<?xml version="1.0" encoding="UTF-8"?>
<svg xmlns="http://www.w3.org/2000/svg" xmlns:xlink="http://www.w3.org/1999/xlink" width="278pt" height="210pt" viewBox="0 0 278 210" version="1.1">
<g id="surface777">
<path style="fill:none;stroke-width:1;stroke-linecap:butt;stroke-linejoin:miter;stroke:rgb(49.803922%,49.803922%,49.803922%);stroke-opacity:1;stroke-miterlimit:4;" d="M 24 -143 C 24 -136.371094 18.628906 -131 12 -131 C 5.371094 -131 0 -136.371094 0 -143 C 0 -149.628906 5.371094 -155 12 -155 C 18.628906 -155 24 -149.628906 24 -143 Z M 24 -143 " transform="matrix(1,0,0,1,4,206)"/>
<path style=" stroke:none;fill-rule:nonzero;fill:rgb(0%,0%,0%);fill-opacity:1;" d="M 13.160156 64.800781 L 12.457031 64.800781 L 13.996094 62.59375 L 12.550781 60.496094 L 13.28125 60.496094 L 14.378906 62.144531 L 15.46875 60.496094 L 16.164062 60.496094 L 14.71875 62.59375 L 16.234375 64.800781 L 15.511719 64.800781 L 14.351562 63.03125 Z M 16.910156 61.832031 L 16.910156 61.425781 C 17.289062 61.386719 17.554688 61.328125 17.707031 61.238281 C 17.859375 61.152344 17.96875 60.949219 18.042969 60.621094 L 18.460938 60.621094 L 18.460938 64.800781 L 17.898438 64.800781 L 17.898438 61.832031 Z M 12.332031 60.179688 "/>
<path style="fill-rule:nonzero;fill:rgb(89.803922%,89.803922%,89.803922%);fill-opacity:1;stroke-width:3;stroke-linecap:butt;stroke-linejoin:miter;stroke:rgb(33.725491%,70.588237%,91.37255%);stroke-opacity:0.501961;stroke-miterlimit:4;" d="M 82 -145 C 82 -140.03125 77.96875 -136 73 -136 C 68.03125 -136 64 -140.03125 64 -145 C 64 -149.96875 68.03125 -154 73 -154 C 77.96875 -154 82 -149.96875 82 -145 Z M 82 -145 " transform="matrix(1,0,0,1,4,206)"/>
<path style="fill:none;stroke-width:3;stroke-linecap:butt;stroke-linejoin:miter;stroke:rgb(33.725491%,70.588237%,91.37255%);stroke-opacity:0.501961;stroke-miterlimit:4;" d="M 86 -145 C 86 -137.820312 80.179688 -132 73 -132 C 65.820312 -132 60 -137.820312 60 -145 C 60 -152.179688 65.820312 -158 73 -158 C 80.179688 -158 86 -152.179688 86 -145 Z M 86 -145 " transform="matrix(1,0,0,1,4,206)"/>
<path style=" stroke:none;fill-rule:nonzero;fill:rgb(0%,0%,0%);fill-opacity:1;" d="M 74.175781 56.828125 L 75.15625 56.828125 L 75.15625 59.789062 L 78.890625 59.789062 L 78.890625 56.828125 L 79.871094 56.828125 L 79.871094 64 L 78.890625 64 L 78.890625 60.644531 L 75.15625 60.644531 L 75.15625 64 L 74.175781 64 Z M 73.390625 56.300781 "/>
<path style="fill:none;stroke-width:1;stroke-linecap:butt;stroke-linejoin:miter;stroke:rgb(100%,100%,100%);stroke-opacity:0.0313726;stroke-miterlimit:4;" d="M 24.050781 -143.394531 C 31.359375 -143.632812 40.925781 -143.949219 49.664062 -144.234375 " transform="matrix(1,0,0,1,4,206)"/>
<path style="fill-rule:nonzero;fill:rgb(100%,100%,100%);fill-opacity:0.0313726;stroke-width:1;stroke-linecap:butt;stroke-linejoin:miter;stroke:rgb(100%,100%,100%);stroke-opacity:0.0313726;stroke-miterlimit:4;" d="M 49.59375 -147.734375 L 59.703125 -144.5625 L 49.824219 -140.738281 Z M 49.59375 -147.734375 " transform="matrix(1,0,0,1,4,206)"/>
<path style="fill-rule:nonzero;fill:rgb(89.803922%,89.803922%,89.803922%);fill-opacity:1;stroke-width:3;stroke-linecap:butt;stroke-linejoin:miter;stroke:rgb(33.725491%,70.588237%,91.37255%);stroke-opacity:0.501961;stroke-miterlimit:4;" d="M 82 -101 C 82 -96.03125 77.96875 -92 73 -92 C 68.03125 -92 64 -96.03125 64 -101 C 64 -105.96875 68.03125 -110 73 -110 C 77.96875 -110 82 -105.96875 82 -101 Z M 82 -101 " transform="matrix(1,0,0,1,4,206)"/>
<path style="fill:none;stroke-width:3;stroke-linecap:butt;stroke-linejoin:miter;stroke:rgb(33.725491%,70.588237%,91.37255%);stroke-opacity:0.501961;stroke-miterlimit:4;" d="M 86 -101 C 86 -93.820312 80.179688 -88 73 -88 C 65.820312 -88 60 -93.820312 60 -101 C 60 -108.179688 65.820312 -114 73 -114 C 80.179688 -114 86 -108.179688 86 -101 Z M 86 -101 " transform="matrix(1,0,0,1,4,206)"/>
<path style=" stroke:none;fill-rule:nonzero;fill:rgb(0%,0%,0%);fill-opacity:1;" d="M 74.175781 100.828125 L 75.15625 100.828125 L 75.15625 103.789062 L 78.890625 103.789062 L 78.890625 100.828125 L 79.871094 100.828125 L 79.871094 108 L 78.890625 108 L 78.890625 104.644531 L 75.15625 104.644531 L 75.15625 108 L 74.175781 108 Z M 73.390625 100.300781 "/>
<path style="fill:none;stroke-width:1;stroke-linecap:butt;stroke-linejoin:miter;stroke:rgb(100%,100%,100%);stroke-opacity:0.0313726;stroke-miterlimit:4;" d="M 22.074219 -136.066406 C 30.554688 -130.226562 42.929688 -121.703125 53.363281 -114.523438 " transform="matrix(1,0,0,1,4,206)"/>
<path style="fill-rule:nonzero;fill:rgb(100%,100%,100%);fill-opacity:0.0313726;stroke-width:1;stroke-linecap:butt;stroke-linejoin:miter;stroke:rgb(100%,100%,100%);stroke-opacity:0.0313726;stroke-miterlimit:4;" d="M 55.625 -117.210938 L 61.878906 -108.65625 L 51.65625 -111.445312 Z M 55.625 -117.210938 " transform="matrix(1,0,0,1,4,206)"/>
<path style="fill:none;stroke-width:3;stroke-linecap:butt;stroke-linejoin:miter;stroke:rgb(33.725491%,70.588237%,91.37255%);stroke-opacity:0.501961;stroke-dasharray:5,2;stroke-miterlimit:4;" d="M 82 -57 C 82 -52.03125 77.96875 -48 73 -48 C 68.03125 -48 64 -52.03125 64 -57 C 64 -61.96875 68.03125 -66 73 -66 C 77.96875 -66 82 -61.96875 82 -57 Z M 82 -57 " transform="matrix(1,0,0,1,4,206)"/>
<path style="fill:none;stroke-width:3;stroke-linecap:butt;stroke-linejoin:miter;stroke:rgb(33.725491%,70.588237%,91.37255%);stroke-opacity:0.501961;stroke-dasharray:5,2;stroke-miterlimit:4;" d="M 86 -57 C 86 -49.820312 80.179688 -44 73 -44 C 65.820312 -44 60 -49.820312 60 -57 C 60 -64.179688 65.820312 -70 73 -70 C 80.179688 -70 86 -64.179688 86 -57 Z M 86 -57 " transform="matrix(1,0,0,1,4,206)"/>
<path style=" stroke:none;fill-rule:nonzero;fill:rgb(0%,0%,0%);fill-opacity:1;" d="M 74.175781 144.828125 L 75.15625 144.828125 L 75.15625 147.789062 L 78.890625 147.789062 L 78.890625 144.828125 L 79.871094 144.828125 L 79.871094 152 L 78.890625 152 L 78.890625 148.644531 L 75.15625 148.644531 L 75.15625 152 L 74.175781 152 Z M 73.390625 144.300781 "/>
<path style="fill:none;stroke-width:1;stroke-linecap:butt;stroke-linejoin:miter;stroke:rgb(74.901962%,74.901962%,74.901962%);stroke-opacity:1;stroke-miterlimit:4;" d="M 18.996094 -133.132812 C 30.332031 -117.152344 52.660156 -85.671875 64.753906 -68.628906 " transform="matrix(1,0,0,1,4,206)"/>
<path style="fill-rule:nonzero;fill:rgb(74.901962%,74.901962%,74.901962%);fill-opacity:1;stroke-width:1;stroke-linecap:butt;stroke-linejoin:miter;stroke:rgb(74.901962%,74.901962%,74.901962%);stroke-opacity:1;stroke-miterlimit:4;" d="M 65.488281 -68.152344 C 65.488281 -67.933594 65.308594 -67.753906 65.089844 -67.753906 C 64.867188 -67.753906 64.6875 -67.933594 64.6875 -68.152344 C 64.6875 -68.375 64.867188 -68.554688 65.089844 -68.554688 C 65.308594 -68.554688 65.488281 -68.375 65.488281 -68.152344 Z M 65.488281 -68.152344 " transform="matrix(1,0,0,1,4,206)"/>
<path style="fill:none;stroke-width:3;stroke-linecap:butt;stroke-linejoin:miter;stroke:rgb(33.725491%,70.588237%,91.37255%);stroke-opacity:0.501961;stroke-dasharray:5,2;stroke-miterlimit:4;" d="M 82 -13 C 82 -8.03125 77.96875 -4 73 -4 C 68.03125 -4 64 -8.03125 64 -13 C 64 -17.96875 68.03125 -22 73 -22 C 77.96875 -22 82 -17.96875 82 -13 Z M 82 -13 " transform="matrix(1,0,0,1,4,206)"/>
<path style="fill:none;stroke-width:3;stroke-linecap:butt;stroke-linejoin:miter;stroke:rgb(33.725491%,70.588237%,91.37255%);stroke-opacity:0.501961;stroke-dasharray:5,2;stroke-miterlimit:4;" d="M 86 -13 C 86 -5.820312 80.179688 0 73 0 C 65.820312 0 60 -5.820312 60 -13 C 60 -20.179688 65.820312 -26 73 -26 C 80.179688 -26 86 -20.179688 86 -13 Z M 86 -13 " transform="matrix(1,0,0,1,4,206)"/>
<path style=" stroke:none;fill-rule:nonzero;fill:rgb(0%,0%,0%);fill-opacity:1;" d="M 74.175781 188.828125 L 75.15625 188.828125 L 75.15625 191.789062 L 78.890625 191.789062 L 78.890625 188.828125 L 79.871094 188.828125 L 79.871094 196 L 78.890625 196 L 78.890625 192.644531 L 75.15625 192.644531 L 75.15625 196 L 74.175781 196 Z M 73.390625 188.300781 "/>
<path style="fill:none;stroke-width:1;stroke-linecap:butt;stroke-linejoin:miter;stroke:rgb(74.901962%,74.901962%,74.901962%);stroke-opacity:1;stroke-miterlimit:4;" d="M 18.371094 -132.457031 C 20.273438 -129.15625 22.300781 -125.46875 24 -122 C 42.417969 -84.425781 41.308594 -72.441406 60 -35 C 61.652344 -31.691406 63.605469 -28.203125 65.492188 -25.003906 " transform="matrix(1,0,0,1,4,206)"/>
<path style="fill-rule:nonzero;fill:rgb(74.901962%,74.901962%,74.901962%);fill-opacity:1;stroke-width:1;stroke-linecap:butt;stroke-linejoin:miter;stroke:rgb(74.901962%,74.901962%,74.901962%);stroke-opacity:1;stroke-miterlimit:4;" d="M 66.269531 -24.367188 C 66.269531 -24.144531 66.089844 -23.964844 65.871094 -23.964844 C 65.648438 -23.964844 65.46875 -24.144531 65.46875 -24.367188 C 65.46875 -24.585938 65.648438 -24.765625 65.871094 -24.765625 C 66.089844 -24.765625 66.269531 -24.585938 66.269531 -24.367188 Z M 66.269531 -24.367188 " transform="matrix(1,0,0,1,4,206)"/>
<path style="fill:none;stroke-width:3;stroke-linecap:butt;stroke-linejoin:miter;stroke:rgb(33.725491%,70.588237%,91.37255%);stroke-opacity:0.501961;stroke-dasharray:5,2;stroke-miterlimit:4;" d="M 82 -189 C 82 -184.03125 77.96875 -180 73 -180 C 68.03125 -180 64 -184.03125 64 -189 C 64 -193.96875 68.03125 -198 73 -198 C 77.96875 -198 82 -193.96875 82 -189 Z M 82 -189 " transform="matrix(1,0,0,1,4,206)"/>
<path style="fill:none;stroke-width:3;stroke-linecap:butt;stroke-linejoin:miter;stroke:rgb(33.725491%,70.588237%,91.37255%);stroke-opacity:0.501961;stroke-dasharray:5,2;stroke-miterlimit:4;" d="M 86 -189 C 86 -181.820312 80.179688 -176 73 -176 C 65.820312 -176 60 -181.820312 60 -189 C 60 -196.179688 65.820312 -202 73 -202 C 80.179688 -202 86 -196.179688 86 -189 Z M 86 -189 " transform="matrix(1,0,0,1,4,206)"/>
<path style=" stroke:none;fill-rule:nonzero;fill:rgb(0%,0%,0%);fill-opacity:1;" d="M 74.175781 12.828125 L 75.15625 12.828125 L 75.15625 15.789062 L 78.890625 15.789062 L 78.890625 12.828125 L 79.871094 12.828125 L 79.871094 20 L 78.890625 20 L 78.890625 16.644531 L 75.15625 16.644531 L 75.15625 20 L 74.175781 20 Z M 73.390625 12.300781 "/>
<path style="fill:none;stroke-width:1;stroke-linecap:butt;stroke-linejoin:miter;stroke:rgb(74.901962%,74.901962%,74.901962%);stroke-opacity:1;stroke-miterlimit:4;" d="M 21.800781 -150.390625 C 32.71875 -158.625 50.339844 -171.914062 61.796875 -180.550781 " transform="matrix(1,0,0,1,4,206)"/>
<path style="fill-rule:nonzero;fill:rgb(74.901962%,74.901962%,74.901962%);fill-opacity:1;stroke-width:1;stroke-linecap:butt;stroke-linejoin:miter;stroke:rgb(74.901962%,74.901962%,74.901962%);stroke-opacity:1;stroke-miterlimit:4;" d="M 62.691406 -180.925781 C 62.691406 -180.703125 62.511719 -180.523438 62.292969 -180.523438 C 62.070312 -180.523438 61.890625 -180.703125 61.890625 -180.925781 C 61.890625 -181.144531 62.070312 -181.324219 62.292969 -181.324219 C 62.511719 -181.324219 62.691406 -181.144531 62.691406 -180.925781 Z M 62.691406 -180.925781 " transform="matrix(1,0,0,1,4,206)"/>
<path style="fill:none;stroke-width:1;stroke-linecap:butt;stroke-linejoin:miter;stroke:rgb(49.803922%,49.803922%,49.803922%);stroke-opacity:1;stroke-miterlimit:4;" d="M 24 -101 C 24 -94.371094 18.628906 -89 12 -89 C 5.371094 -89 0 -94.371094 0 -101 C 0 -107.628906 5.371094 -113 12 -113 C 18.628906 -113 24 -107.628906 24 -101 Z M 24 -101 " transform="matrix(1,0,0,1,4,206)"/>
<path style=" stroke:none;fill-rule:nonzero;fill:rgb(0%,0%,0%);fill-opacity:1;" d="M 13.160156 106.800781 L 12.457031 106.800781 L 13.996094 104.59375 L 12.550781 102.496094 L 13.28125 102.496094 L 14.378906 104.144531 L 15.46875 102.496094 L 16.164062 102.496094 L 14.71875 104.59375 L 16.234375 106.800781 L 15.511719 106.800781 L 14.351562 105.03125 Z M 16.523438 106.800781 C 16.542969 106.441406 16.617188 106.125 16.746094 105.855469 C 16.875 105.589844 17.132812 105.347656 17.507812 105.128906 L 18.070312 104.800781 C 18.320312 104.65625 18.5 104.53125 18.601562 104.425781 C 18.761719 104.265625 18.839844 104.082031 18.839844 103.871094 C 18.839844 103.628906 18.765625 103.433594 18.621094 103.289062 C 18.476562 103.144531 18.28125 103.074219 18.035156 103.074219 C 17.671875 103.074219 17.421875 103.210938 17.285156 103.484375 C 17.210938 103.628906 17.171875 103.832031 17.164062 104.09375 L 16.625 104.09375 C 16.632812 103.730469 16.699219 103.429688 16.828125 103.199219 C 17.054688 102.792969 17.460938 102.589844 18.039062 102.589844 C 18.519531 102.589844 18.871094 102.722656 19.089844 102.980469 C 19.3125 103.238281 19.421875 103.527344 19.421875 103.847656 C 19.421875 104.183594 19.304688 104.472656 19.070312 104.707031 C 18.933594 104.847656 18.6875 105.015625 18.335938 105.214844 L 17.933594 105.433594 C 17.742188 105.539062 17.589844 105.640625 17.480469 105.738281 C 17.285156 105.90625 17.164062 106.097656 17.113281 106.300781 L 19.402344 106.300781 L 19.402344 106.800781 Z M 12.332031 102.179688 "/>
<path style="fill:none;stroke-width:1;stroke-linecap:butt;stroke-linejoin:miter;stroke:rgb(100%,100%,100%);stroke-opacity:0.0313726;stroke-miterlimit:4;" d="M 21.800781 -108.070312 C 30.429688 -114.292969 43.246094 -123.539062 53.898438 -131.222656 " transform="matrix(1,0,0,1,4,206)"/>
<path style="fill-rule:nonzero;fill:rgb(100%,100%,100%);fill-opacity:0.0313726;stroke-width:1;stroke-linecap:butt;stroke-linejoin:miter;stroke:rgb(100%,100%,100%);stroke-opacity:0.0313726;stroke-miterlimit:4;" d="M 52.039062 -134.195312 L 62.195312 -137.207031 L 56.132812 -128.519531 Z M 52.039062 -134.195312 " transform="matrix(1,0,0,1,4,206)"/>
<path style="fill:none;stroke-width:1;stroke-linecap:butt;stroke-linejoin:miter;stroke:rgb(100%,100%,100%);stroke-opacity:0.0313726;stroke-miterlimit:4;" d="M 24.050781 -101 C 31.359375 -101 40.925781 -101 49.664062 -101 " transform="matrix(1,0,0,1,4,206)"/>
<path style="fill-rule:nonzero;fill:rgb(100%,100%,100%);fill-opacity:0.0313726;stroke-width:1;stroke-linecap:butt;stroke-linejoin:miter;stroke:rgb(100%,100%,100%);stroke-opacity:0.0313726;stroke-miterlimit:4;" d="M 49.703125 -104.5 L 59.703125 -101 L 49.703125 -97.5 Z M 49.703125 -104.5 " transform="matrix(1,0,0,1,4,206)"/>
<path style="fill:none;stroke-width:1;stroke-linecap:butt;stroke-linejoin:miter;stroke:rgb(74.901962%,74.901962%,74.901962%);stroke-opacity:1;stroke-miterlimit:4;" d="M 21.800781 -93.929688 C 32.589844 -86.148438 49.917969 -73.648438 61.378906 -65.382812 " transform="matrix(1,0,0,1,4,206)"/>
<path style="fill-rule:nonzero;fill:rgb(74.901962%,74.901962%,74.901962%);fill-opacity:1;stroke-width:1;stroke-linecap:butt;stroke-linejoin:miter;stroke:rgb(74.901962%,74.901962%,74.901962%);stroke-opacity:1;stroke-miterlimit:4;" d="M 62.269531 -65.027344 C 62.269531 -64.804688 62.09375 -64.628906 61.871094 -64.628906 C 61.648438 -64.628906 61.472656 -64.804688 61.472656 -65.027344 C 61.472656 -65.25 61.648438 -65.425781 61.871094 -65.425781 C 62.09375 -65.425781 62.269531 -65.25 62.269531 -65.027344 Z M 62.269531 -65.027344 " transform="matrix(1,0,0,1,4,206)"/>
<path style="fill:none;stroke-width:1;stroke-linecap:butt;stroke-linejoin:miter;stroke:rgb(74.901962%,74.901962%,74.901962%);stroke-opacity:1;stroke-miterlimit:4;" d="M 18.996094 -90.90625 C 30.394531 -74.460938 52.90625 -41.988281 64.949219 -24.613281 " transform="matrix(1,0,0,1,4,206)"/>
<path style="fill-rule:nonzero;fill:rgb(74.901962%,74.901962%,74.901962%);fill-opacity:1;stroke-width:1;stroke-linecap:butt;stroke-linejoin:miter;stroke:rgb(74.901962%,74.901962%,74.901962%);stroke-opacity:1;stroke-miterlimit:4;" d="M 65.6875 -24.128906 C 65.6875 -23.90625 65.507812 -23.726562 65.285156 -23.726562 C 65.066406 -23.726562 64.886719 -23.90625 64.886719 -24.128906 C 64.886719 -24.347656 65.066406 -24.527344 65.285156 -24.527344 C 65.507812 -24.527344 65.6875 -24.347656 65.6875 -24.128906 Z M 65.6875 -24.128906 " transform="matrix(1,0,0,1,4,206)"/>
<path style="fill:none;stroke-width:1;stroke-linecap:butt;stroke-linejoin:miter;stroke:rgb(74.901962%,74.901962%,74.901962%);stroke-opacity:1;stroke-miterlimit:4;" d="M 18.996094 -111.09375 C 30.394531 -127.539062 52.90625 -160.011719 64.949219 -177.386719 " transform="matrix(1,0,0,1,4,206)"/>
<path style="fill-rule:nonzero;fill:rgb(74.901962%,74.901962%,74.901962%);fill-opacity:1;stroke-width:1;stroke-linecap:butt;stroke-linejoin:miter;stroke:rgb(74.901962%,74.901962%,74.901962%);stroke-opacity:1;stroke-miterlimit:4;" d="M 65.6875 -177.871094 C 65.6875 -177.652344 65.507812 -177.472656 65.285156 -177.472656 C 65.066406 -177.472656 64.886719 -177.652344 64.886719 -177.871094 C 64.886719 -178.09375 65.066406 -178.273438 65.285156 -178.273438 C 65.507812 -178.273438 65.6875 -178.09375 65.6875 -177.871094 Z M 65.6875 -177.871094 " transform="matrix(1,0,0,1,4,206)"/>
<path style="fill:none;stroke-width:1;stroke-linecap:butt;stroke-linejoin:miter;stroke:rgb(49.803922%,49.803922%,49.803922%);stroke-opacity:1;stroke-miterlimit:4;" d="M 24 -59 C 24 -52.371094 18.628906 -47 12 -47 C 5.371094 -47 0 -52.371094 0 -59 C 0 -65.628906 5.371094 -71 12 -71 C 18.628906 -71 24 -65.628906 24 -59 Z M 24 -59 " transform="matrix(1,0,0,1,4,206)"/>
<path style=" stroke:none;fill-rule:nonzero;fill:rgb(0%,0%,0%);fill-opacity:1;" d="M 13.160156 148.800781 L 12.457031 148.800781 L 13.996094 146.59375 L 12.550781 144.496094 L 13.28125 144.496094 L 14.378906 146.144531 L 15.46875 144.496094 L 16.164062 144.496094 L 14.71875 146.59375 L 16.234375 148.800781 L 15.511719 148.800781 L 14.351562 147.03125 Z M 17.894531 148.914062 C 17.398438 148.914062 17.039062 148.777344 16.816406 148.507812 C 16.59375 148.234375 16.480469 147.902344 16.480469 147.511719 L 17.03125 147.511719 C 17.054688 147.785156 17.105469 147.980469 17.183594 148.105469 C 17.320312 148.324219 17.566406 148.433594 17.921875 148.433594 C 18.199219 148.433594 18.421875 148.359375 18.59375 148.210938 C 18.761719 148.0625 18.84375 147.871094 18.84375 147.636719 C 18.84375 147.347656 18.753906 147.144531 18.578125 147.03125 C 18.402344 146.917969 18.15625 146.859375 17.84375 146.859375 C 17.808594 146.859375 17.769531 146.859375 17.734375 146.859375 C 17.699219 146.859375 17.664062 146.863281 17.625 146.863281 L 17.625 146.398438 C 17.679688 146.402344 17.726562 146.410156 17.761719 146.410156 C 17.800781 146.410156 17.839844 146.414062 17.882812 146.414062 C 18.078125 146.414062 18.242188 146.382812 18.367188 146.320312 C 18.589844 146.210938 18.703125 146.015625 18.703125 145.734375 C 18.703125 145.523438 18.628906 145.363281 18.480469 145.25 C 18.332031 145.136719 18.160156 145.082031 17.960938 145.082031 C 17.609375 145.082031 17.367188 145.199219 17.234375 145.433594 C 17.160156 145.5625 17.117188 145.746094 17.105469 145.980469 L 16.585938 145.980469 C 16.585938 145.667969 16.648438 145.402344 16.773438 145.183594 C 16.988281 144.792969 17.367188 144.597656 17.90625 144.597656 C 18.335938 144.597656 18.664062 144.695312 18.898438 144.886719 C 19.132812 145.074219 19.25 145.351562 19.25 145.714844 C 19.25 145.972656 19.179688 146.179688 19.042969 146.339844 C 18.957031 146.441406 18.84375 146.519531 18.710938 146.574219 C 18.929688 146.636719 19.101562 146.75 19.226562 146.925781 C 19.351562 147.097656 19.414062 147.308594 19.414062 147.558594 C 19.414062 147.957031 19.28125 148.285156 19.015625 148.535156 C 18.753906 148.789062 18.378906 148.914062 17.894531 148.914062 Z M 12.332031 144.179688 "/>
<path style="fill:none;stroke-width:1;stroke-linecap:butt;stroke-linejoin:miter;stroke:rgb(100%,100%,100%);stroke-opacity:0.0313726;stroke-miterlimit:4;" d="M 18.996094 -68.867188 C 28.804688 -82.691406 46.835938 -108.113281 59.351562 -125.757812 " transform="matrix(1,0,0,1,4,206)"/>
<path style="fill-rule:nonzero;fill:rgb(100%,100%,100%);fill-opacity:0.0313726;stroke-width:1;stroke-linecap:butt;stroke-linejoin:miter;stroke:rgb(100%,100%,100%);stroke-opacity:0.0313726;stroke-miterlimit:4;" d="M 56.679688 -128.042969 L 65.320312 -134.171875 L 62.390625 -123.992188 Z M 56.679688 -128.042969 " transform="matrix(1,0,0,1,4,206)"/>
<path style="fill:none;stroke-width:1;stroke-linecap:butt;stroke-linejoin:miter;stroke:rgb(100%,100%,100%);stroke-opacity:0.0313726;stroke-miterlimit:4;" d="M 22.074219 -65.933594 C 30.554688 -71.773438 42.929688 -80.296875 53.363281 -87.476562 " transform="matrix(1,0,0,1,4,206)"/>
<path style="fill-rule:nonzero;fill:rgb(100%,100%,100%);fill-opacity:0.0313726;stroke-width:1;stroke-linecap:butt;stroke-linejoin:miter;stroke:rgb(100%,100%,100%);stroke-opacity:0.0313726;stroke-miterlimit:4;" d="M 51.65625 -90.554688 L 61.878906 -93.34375 L 55.625 -84.789062 Z M 51.65625 -90.554688 " transform="matrix(1,0,0,1,4,206)"/>
<path style="fill:none;stroke-width:1;stroke-linecap:butt;stroke-linejoin:miter;stroke:rgb(74.901962%,74.901962%,74.901962%);stroke-opacity:1;stroke-miterlimit:4;" d="M 24.050781 -58.605469 C 34.007812 -58.277344 48.164062 -57.8125 58.695312 -57.46875 " transform="matrix(1,0,0,1,4,206)"/>
<path style="fill-rule:nonzero;fill:rgb(74.901962%,74.901962%,74.901962%);fill-opacity:1;stroke-width:1;stroke-linecap:butt;stroke-linejoin:miter;stroke:rgb(74.901962%,74.901962%,74.901962%);stroke-opacity:1;stroke-miterlimit:4;" d="M 59.703125 -57.449219 C 59.703125 -57.226562 59.523438 -57.050781 59.304688 -57.050781 C 59.082031 -57.050781 58.902344 -57.226562 58.902344 -57.449219 C 58.902344 -57.671875 59.082031 -57.847656 59.304688 -57.847656 C 59.523438 -57.847656 59.703125 -57.671875 59.703125 -57.449219 Z M 59.703125 -57.449219 " transform="matrix(1,0,0,1,4,206)"/>
<path style="fill:none;stroke-width:1;stroke-linecap:butt;stroke-linejoin:miter;stroke:rgb(74.901962%,74.901962%,74.901962%);stroke-opacity:1;stroke-miterlimit:4;" d="M 21.800781 -51.609375 C 32.71875 -43.375 50.339844 -30.085938 61.796875 -21.449219 " transform="matrix(1,0,0,1,4,206)"/>
<path style="fill-rule:nonzero;fill:rgb(74.901962%,74.901962%,74.901962%);fill-opacity:1;stroke-width:1;stroke-linecap:butt;stroke-linejoin:miter;stroke:rgb(74.901962%,74.901962%,74.901962%);stroke-opacity:1;stroke-miterlimit:4;" d="M 62.691406 -21.074219 C 62.691406 -20.855469 62.511719 -20.675781 62.292969 -20.675781 C 62.070312 -20.675781 61.890625 -20.855469 61.890625 -21.074219 C 61.890625 -21.296875 62.070312 -21.476562 62.292969 -21.476562 C 62.511719 -21.476562 62.691406 -21.296875 62.691406 -21.074219 Z M 62.691406 -21.074219 " transform="matrix(1,0,0,1,4,206)"/>
<path style="fill:none;stroke-width:1;stroke-linecap:butt;stroke-linejoin:miter;stroke:rgb(74.901962%,74.901962%,74.901962%);stroke-opacity:1;stroke-miterlimit:4;" d="M 18.371094 -69.542969 C 20.273438 -72.84375 22.300781 -76.53125 24 -80 C 42.417969 -117.574219 41.308594 -129.558594 60 -167 C 61.652344 -170.308594 63.605469 -173.796875 65.492188 -176.996094 " transform="matrix(1,0,0,1,4,206)"/>
<path style="fill-rule:nonzero;fill:rgb(74.901962%,74.901962%,74.901962%);fill-opacity:1;stroke-width:1;stroke-linecap:butt;stroke-linejoin:miter;stroke:rgb(74.901962%,74.901962%,74.901962%);stroke-opacity:1;stroke-miterlimit:4;" d="M 66.269531 -177.632812 C 66.269531 -177.414062 66.089844 -177.234375 65.871094 -177.234375 C 65.648438 -177.234375 65.46875 -177.414062 65.46875 -177.632812 C 65.46875 -177.855469 65.648438 -178.035156 65.871094 -178.035156 C 66.089844 -178.035156 66.269531 -177.855469 66.269531 -177.632812 Z M 66.269531 -177.632812 " transform="matrix(1,0,0,1,4,206)"/>
<path style="fill-rule:nonzero;fill:rgb(89.803922%,89.803922%,89.803922%);fill-opacity:1;stroke-width:3;stroke-linecap:butt;stroke-linejoin:miter;stroke:rgb(33.725491%,70.588237%,91.37255%);stroke-opacity:0.501961;stroke-miterlimit:4;" d="M 144 -145 C 144 -140.03125 139.96875 -136 135 -136 C 130.03125 -136 126 -140.03125 126 -145 C 126 -149.96875 130.03125 -154 135 -154 C 139.96875 -154 144 -149.96875 144 -145 Z M 144 -145 " transform="matrix(1,0,0,1,4,206)"/>
<path style="fill:none;stroke-width:3;stroke-linecap:butt;stroke-linejoin:miter;stroke:rgb(33.725491%,70.588237%,91.37255%);stroke-opacity:0.501961;stroke-miterlimit:4;" d="M 148 -145 C 148 -137.820312 142.179688 -132 135 -132 C 127.820312 -132 122 -137.820312 122 -145 C 122 -152.179688 127.820312 -158 135 -158 C 142.179688 -158 148 -152.179688 148 -145 Z M 148 -145 " transform="matrix(1,0,0,1,4,206)"/>
<path style=" stroke:none;fill-rule:nonzero;fill:rgb(0%,0%,0%);fill-opacity:1;" d="M 136.175781 56.828125 L 137.15625 56.828125 L 137.15625 59.789062 L 140.890625 59.789062 L 140.890625 56.828125 L 141.871094 56.828125 L 141.871094 64 L 140.890625 64 L 140.890625 60.644531 L 137.15625 60.644531 L 137.15625 64 L 136.175781 64 Z M 135.390625 56.300781 "/>
<path style="fill:none;stroke-width:1;stroke-linecap:butt;stroke-linejoin:miter;stroke:rgb(100%,100%,100%);stroke-opacity:0.0313726;stroke-miterlimit:4;" d="M 86.148438 -145 C 93.546875 -145 103.003906 -145 111.621094 -145 " transform="matrix(1,0,0,1,4,206)"/>
<path style="fill-rule:nonzero;fill:rgb(100%,100%,100%);fill-opacity:0.0313726;stroke-width:1;stroke-linecap:butt;stroke-linejoin:miter;stroke:rgb(100%,100%,100%);stroke-opacity:0.0313726;stroke-miterlimit:4;" d="M 111.871094 -148.5 L 121.871094 -145 L 111.871094 -141.5 Z M 111.871094 -148.5 " transform="matrix(1,0,0,1,4,206)"/>
<path style="fill:none;stroke-width:3;stroke-linecap:butt;stroke-linejoin:miter;stroke:rgb(33.725491%,70.588237%,91.37255%);stroke-opacity:0.501961;stroke-dasharray:5,2;stroke-miterlimit:4;" d="M 144 -101 C 144 -96.03125 139.96875 -92 135 -92 C 130.03125 -92 126 -96.03125 126 -101 C 126 -105.96875 130.03125 -110 135 -110 C 139.96875 -110 144 -105.96875 144 -101 Z M 144 -101 " transform="matrix(1,0,0,1,4,206)"/>
<path style="fill:none;stroke-width:3;stroke-linecap:butt;stroke-linejoin:miter;stroke:rgb(33.725491%,70.588237%,91.37255%);stroke-opacity:0.501961;stroke-dasharray:5,2;stroke-miterlimit:4;" d="M 148 -101 C 148 -93.820312 142.179688 -88 135 -88 C 127.820312 -88 122 -93.820312 122 -101 C 122 -108.179688 127.820312 -114 135 -114 C 142.179688 -114 148 -108.179688 148 -101 Z M 148 -101 " transform="matrix(1,0,0,1,4,206)"/>
<path style=" stroke:none;fill-rule:nonzero;fill:rgb(0%,0%,0%);fill-opacity:1;" d="M 136.175781 100.828125 L 137.15625 100.828125 L 137.15625 103.789062 L 140.890625 103.789062 L 140.890625 100.828125 L 141.871094 100.828125 L 141.871094 108 L 140.890625 108 L 140.890625 104.644531 L 137.15625 104.644531 L 137.15625 108 L 136.175781 108 Z M 135.390625 100.300781 "/>
<path style="fill:none;stroke-width:1;stroke-linecap:butt;stroke-linejoin:miter;stroke:rgb(100%,100%,100%);stroke-opacity:0.0313726;stroke-miterlimit:4;" d="M 83.800781 -137.335938 C 92.691406 -131.027344 105.507812 -121.929688 116.09375 -114.417969 " transform="matrix(1,0,0,1,4,206)"/>
<path style="fill-rule:nonzero;fill:rgb(100%,100%,100%);fill-opacity:0.0313726;stroke-width:1;stroke-linecap:butt;stroke-linejoin:miter;stroke:rgb(100%,100%,100%);stroke-opacity:0.0313726;stroke-miterlimit:4;" d="M 118.195312 -117.21875 L 124.324219 -108.578125 L 114.144531 -111.507812 Z M 118.195312 -117.21875 " transform="matrix(1,0,0,1,4,206)"/>
<path style="fill:none;stroke-width:3;stroke-linecap:butt;stroke-linejoin:miter;stroke:rgb(33.725491%,70.588237%,91.37255%);stroke-opacity:0.501961;stroke-dasharray:5,2;stroke-miterlimit:4;" d="M 144 -57 C 144 -52.03125 139.96875 -48 135 -48 C 130.03125 -48 126 -52.03125 126 -57 C 126 -61.96875 130.03125 -66 135 -66 C 139.96875 -66 144 -61.96875 144 -57 Z M 144 -57 " transform="matrix(1,0,0,1,4,206)"/>
<path style="fill:none;stroke-width:3;stroke-linecap:butt;stroke-linejoin:miter;stroke:rgb(33.725491%,70.588237%,91.37255%);stroke-opacity:0.501961;stroke-dasharray:5,2;stroke-miterlimit:4;" d="M 148 -57 C 148 -49.820312 142.179688 -44 135 -44 C 127.820312 -44 122 -49.820312 122 -57 C 122 -64.179688 127.820312 -70 135 -70 C 142.179688 -70 148 -64.179688 148 -57 Z M 148 -57 " transform="matrix(1,0,0,1,4,206)"/>
<path style=" stroke:none;fill-rule:nonzero;fill:rgb(0%,0%,0%);fill-opacity:1;" d="M 136.175781 144.828125 L 137.15625 144.828125 L 137.15625 147.789062 L 140.890625 147.789062 L 140.890625 144.828125 L 141.871094 144.828125 L 141.871094 152 L 140.890625 152 L 140.890625 148.644531 L 137.15625 148.644531 L 137.15625 152 L 136.175781 152 Z M 135.390625 144.300781 "/>
<path style="fill:none;stroke-width:1;stroke-linecap:butt;stroke-linejoin:miter;stroke:rgb(100%,100%,100%);stroke-opacity:0.0313726;stroke-miterlimit:4;" d="M 80.601562 -134.210938 C 90.734375 -119.828125 108.84375 -94.125 121.367188 -76.351562 " transform="matrix(1,0,0,1,4,206)"/>
<path style="fill-rule:nonzero;fill:rgb(100%,100%,100%);fill-opacity:0.0313726;stroke-width:1;stroke-linecap:butt;stroke-linejoin:miter;stroke:rgb(100%,100%,100%);stroke-opacity:0.0313726;stroke-miterlimit:4;" d="M 124.4375 -78.070312 L 127.335938 -67.878906 L 118.714844 -74.039062 Z M 124.4375 -78.070312 " transform="matrix(1,0,0,1,4,206)"/>
<path style="fill:none;stroke-width:3;stroke-linecap:butt;stroke-linejoin:miter;stroke:rgb(33.725491%,70.588237%,91.37255%);stroke-opacity:0.501961;stroke-dasharray:5,2;stroke-miterlimit:4;" d="M 144 -13 C 144 -8.03125 139.96875 -4 135 -4 C 130.03125 -4 126 -8.03125 126 -13 C 126 -17.96875 130.03125 -22 135 -22 C 139.96875 -22 144 -17.96875 144 -13 Z M 144 -13 " transform="matrix(1,0,0,1,4,206)"/>
<path style="fill:none;stroke-width:3;stroke-linecap:butt;stroke-linejoin:miter;stroke:rgb(33.725491%,70.588237%,91.37255%);stroke-opacity:0.501961;stroke-dasharray:5,2;stroke-miterlimit:4;" d="M 148 -13 C 148 -5.820312 142.179688 0 135 0 C 127.820312 0 122 -5.820312 122 -13 C 122 -20.179688 127.820312 -26 135 -26 C 142.179688 -26 148 -20.179688 148 -13 Z M 148 -13 " transform="matrix(1,0,0,1,4,206)"/>
<path style=" stroke:none;fill-rule:nonzero;fill:rgb(0%,0%,0%);fill-opacity:1;" d="M 136.175781 188.828125 L 137.15625 188.828125 L 137.15625 191.789062 L 140.890625 191.789062 L 140.890625 188.828125 L 141.871094 188.828125 L 141.871094 196 L 140.890625 196 L 140.890625 192.644531 L 137.15625 192.644531 L 137.15625 196 L 136.175781 196 Z M 135.390625 188.300781 "/>
<path style="fill:none;stroke-width:1;stroke-linecap:butt;stroke-linejoin:miter;stroke:rgb(100%,100%,100%);stroke-opacity:0.0313726;stroke-miterlimit:4;" d="M 79.933594 -133.980469 C 81.996094 -130.523438 84.183594 -126.65625 86 -123 C 104.796875 -85.15625 103.203125 -72.84375 122 -35 C 122.339844 -34.316406 122.695312 -33.621094 123.058594 -32.925781 " transform="matrix(1,0,0,1,4,206)"/>
<path style="fill-rule:nonzero;fill:rgb(100%,100%,100%);fill-opacity:0.0313726;stroke-width:1;stroke-linecap:butt;stroke-linejoin:miter;stroke:rgb(100%,100%,100%);stroke-opacity:0.0313726;stroke-miterlimit:4;" d="M 126.214844 -34.449219 L 128.066406 -24.019531 L 120.113281 -31.019531 Z M 126.214844 -34.449219 " transform="matrix(1,0,0,1,4,206)"/>
<path style="fill:none;stroke-width:3;stroke-linecap:butt;stroke-linejoin:miter;stroke:rgb(33.725491%,70.588237%,91.37255%);stroke-opacity:0.501961;stroke-dasharray:5,2;stroke-miterlimit:4;" d="M 144 -189 C 144 -184.03125 139.96875 -180 135 -180 C 130.03125 -180 126 -184.03125 126 -189 C 126 -193.96875 130.03125 -198 135 -198 C 139.96875 -198 144 -193.96875 144 -189 Z M 144 -189 " transform="matrix(1,0,0,1,4,206)"/>
<path style="fill:none;stroke-width:3;stroke-linecap:butt;stroke-linejoin:miter;stroke:rgb(33.725491%,70.588237%,91.37255%);stroke-opacity:0.501961;stroke-dasharray:5,2;stroke-miterlimit:4;" d="M 148 -189 C 148 -181.820312 142.179688 -176 135 -176 C 127.820312 -176 122 -181.820312 122 -189 C 122 -196.179688 127.820312 -202 135 -202 C 142.179688 -202 148 -196.179688 148 -189 Z M 148 -189 " transform="matrix(1,0,0,1,4,206)"/>
<path style=" stroke:none;fill-rule:nonzero;fill:rgb(0%,0%,0%);fill-opacity:1;" d="M 136.175781 12.828125 L 137.15625 12.828125 L 137.15625 15.789062 L 140.890625 15.789062 L 140.890625 12.828125 L 141.871094 12.828125 L 141.871094 20 L 140.890625 20 L 140.890625 16.644531 L 137.15625 16.644531 L 137.15625 20 L 136.175781 20 Z M 135.390625 12.300781 "/>
<path style="fill:none;stroke-width:1;stroke-linecap:butt;stroke-linejoin:miter;stroke:rgb(100%,100%,100%);stroke-opacity:0.0313726;stroke-miterlimit:4;" d="M 83.800781 -152.664062 C 92.691406 -158.972656 105.507812 -168.070312 116.09375 -175.582031 " transform="matrix(1,0,0,1,4,206)"/>
<path style="fill-rule:nonzero;fill:rgb(100%,100%,100%);fill-opacity:0.0313726;stroke-width:1;stroke-linecap:butt;stroke-linejoin:miter;stroke:rgb(100%,100%,100%);stroke-opacity:0.0313726;stroke-miterlimit:4;" d="M 114.144531 -178.492188 L 124.324219 -181.421875 L 118.195312 -172.78125 Z M 114.144531 -178.492188 " transform="matrix(1,0,0,1,4,206)"/>
<path style="fill:none;stroke-width:1;stroke-linecap:butt;stroke-linejoin:miter;stroke:rgb(100%,100%,100%);stroke-opacity:0.0313726;stroke-miterlimit:4;" d="M 83.800781 -108.664062 C 92.691406 -114.972656 105.507812 -124.070312 116.09375 -131.582031 " transform="matrix(1,0,0,1,4,206)"/>
<path style="fill-rule:nonzero;fill:rgb(100%,100%,100%);fill-opacity:0.0313726;stroke-width:1;stroke-linecap:butt;stroke-linejoin:miter;stroke:rgb(100%,100%,100%);stroke-opacity:0.0313726;stroke-miterlimit:4;" d="M 114.144531 -134.492188 L 124.324219 -137.421875 L 118.195312 -128.78125 Z M 114.144531 -134.492188 " transform="matrix(1,0,0,1,4,206)"/>
<path style="fill:none;stroke-width:1;stroke-linecap:butt;stroke-linejoin:miter;stroke:rgb(100%,100%,100%);stroke-opacity:0.0313726;stroke-miterlimit:4;" d="M 86.148438 -101 C 93.546875 -101 103.003906 -101 111.621094 -101 " transform="matrix(1,0,0,1,4,206)"/>
<path style="fill-rule:nonzero;fill:rgb(100%,100%,100%);fill-opacity:0.0313726;stroke-width:1;stroke-linecap:butt;stroke-linejoin:miter;stroke:rgb(100%,100%,100%);stroke-opacity:0.0313726;stroke-miterlimit:4;" d="M 111.871094 -104.5 L 121.871094 -101 L 111.871094 -97.5 Z M 111.871094 -104.5 " transform="matrix(1,0,0,1,4,206)"/>
<path style="fill:none;stroke-width:1;stroke-linecap:butt;stroke-linejoin:miter;stroke:rgb(100%,100%,100%);stroke-opacity:0.0313726;stroke-miterlimit:4;" d="M 83.800781 -93.335938 C 92.691406 -87.027344 105.507812 -77.929688 116.09375 -70.417969 " transform="matrix(1,0,0,1,4,206)"/>
<path style="fill-rule:nonzero;fill:rgb(100%,100%,100%);fill-opacity:0.0313726;stroke-width:1;stroke-linecap:butt;stroke-linejoin:miter;stroke:rgb(100%,100%,100%);stroke-opacity:0.0313726;stroke-miterlimit:4;" d="M 118.195312 -73.21875 L 124.324219 -64.578125 L 114.144531 -67.507812 Z M 118.195312 -73.21875 " transform="matrix(1,0,0,1,4,206)"/>
<path style="fill:none;stroke-width:1;stroke-linecap:butt;stroke-linejoin:miter;stroke:rgb(100%,100%,100%);stroke-opacity:0.0313726;stroke-miterlimit:4;" d="M 80.601562 -90.210938 C 90.734375 -75.828125 108.84375 -50.125 121.367188 -32.351562 " transform="matrix(1,0,0,1,4,206)"/>
<path style="fill-rule:nonzero;fill:rgb(100%,100%,100%);fill-opacity:0.0313726;stroke-width:1;stroke-linecap:butt;stroke-linejoin:miter;stroke:rgb(100%,100%,100%);stroke-opacity:0.0313726;stroke-miterlimit:4;" d="M 124.4375 -34.070312 L 127.335938 -23.878906 L 118.714844 -30.039062 Z M 124.4375 -34.070312 " transform="matrix(1,0,0,1,4,206)"/>
<path style="fill:none;stroke-width:1;stroke-linecap:butt;stroke-linejoin:miter;stroke:rgb(100%,100%,100%);stroke-opacity:0.0313726;stroke-miterlimit:4;" d="M 80.601562 -111.789062 C 90.734375 -126.171875 108.84375 -151.875 121.367188 -169.648438 " transform="matrix(1,0,0,1,4,206)"/>
<path style="fill-rule:nonzero;fill:rgb(100%,100%,100%);fill-opacity:0.0313726;stroke-width:1;stroke-linecap:butt;stroke-linejoin:miter;stroke:rgb(100%,100%,100%);stroke-opacity:0.0313726;stroke-miterlimit:4;" d="M 118.714844 -171.960938 L 127.335938 -178.121094 L 124.4375 -167.929688 Z M 118.714844 -171.960938 " transform="matrix(1,0,0,1,4,206)"/>
<path style="fill:none;stroke-width:1;stroke-linecap:butt;stroke-linejoin:miter;stroke:rgb(100%,100%,100%);stroke-opacity:0.0313726;stroke-miterlimit:4;" d="M 80.601562 -67.789062 C 92.316406 -84.417969 114.683594 -116.164062 126.769531 -133.316406 " transform="matrix(1,0,0,1,4,206)"/>
<path style="fill-rule:nonzero;fill:rgb(100%,100%,100%);fill-opacity:0.0313726;stroke-width:1;stroke-linecap:butt;stroke-linejoin:miter;stroke:rgb(100%,100%,100%);stroke-opacity:0.0313726;stroke-miterlimit:4;" d="M 127.503906 -133.792969 C 127.503906 -133.574219 127.324219 -133.394531 127.105469 -133.394531 C 126.882812 -133.394531 126.703125 -133.574219 126.703125 -133.792969 C 126.703125 -134.015625 126.882812 -134.195312 127.105469 -134.195312 C 127.324219 -134.195312 127.503906 -134.015625 127.503906 -133.792969 Z M 127.503906 -133.792969 " transform="matrix(1,0,0,1,4,206)"/>
<path style="fill:none;stroke-width:1;stroke-linecap:butt;stroke-linejoin:miter;stroke:rgb(74.901962%,74.901962%,74.901962%);stroke-opacity:1;stroke-miterlimit:4;" d="M 83.800781 -64.664062 C 94.914062 -72.550781 112.160156 -84.789062 123.515625 -92.851562 " transform="matrix(1,0,0,1,4,206)"/>
<path style="fill-rule:nonzero;fill:rgb(74.901962%,74.901962%,74.901962%);fill-opacity:1;stroke-width:1;stroke-linecap:butt;stroke-linejoin:miter;stroke:rgb(74.901962%,74.901962%,74.901962%);stroke-opacity:1;stroke-miterlimit:4;" d="M 124.398438 -93.191406 C 124.398438 -92.972656 124.21875 -92.792969 123.996094 -92.792969 C 123.777344 -92.792969 123.597656 -92.972656 123.597656 -93.191406 C 123.597656 -93.414062 123.777344 -93.59375 123.996094 -93.59375 C 124.21875 -93.59375 124.398438 -93.414062 124.398438 -93.191406 Z M 124.398438 -93.191406 " transform="matrix(1,0,0,1,4,206)"/>
<path style="fill:none;stroke-width:1;stroke-linecap:butt;stroke-linejoin:miter;stroke:rgb(74.901962%,74.901962%,74.901962%);stroke-opacity:1;stroke-miterlimit:4;" d="M 86.148438 -57 C 96.339844 -57 110.441406 -57 120.871094 -57 " transform="matrix(1,0,0,1,4,206)"/>
<path style="fill-rule:nonzero;fill:rgb(74.901962%,74.901962%,74.901962%);fill-opacity:1;stroke-width:1;stroke-linecap:butt;stroke-linejoin:miter;stroke:rgb(74.901962%,74.901962%,74.901962%);stroke-opacity:1;stroke-miterlimit:4;" d="M 121.871094 -57 C 121.871094 -56.777344 121.691406 -56.601562 121.46875 -56.601562 C 121.25 -56.601562 121.070312 -56.777344 121.070312 -57 C 121.070312 -57.222656 121.25 -57.398438 121.46875 -57.398438 C 121.691406 -57.398438 121.871094 -57.222656 121.871094 -57 Z M 121.871094 -57 " transform="matrix(1,0,0,1,4,206)"/>
<path style="fill:none;stroke-width:1;stroke-linecap:butt;stroke-linejoin:miter;stroke:rgb(74.901962%,74.901962%,74.901962%);stroke-opacity:1;stroke-miterlimit:4;" d="M 83.800781 -49.335938 C 94.914062 -41.449219 112.160156 -29.210938 123.515625 -21.148438 " transform="matrix(1,0,0,1,4,206)"/>
<path style="fill-rule:nonzero;fill:rgb(74.901962%,74.901962%,74.901962%);fill-opacity:1;stroke-width:1;stroke-linecap:butt;stroke-linejoin:miter;stroke:rgb(74.901962%,74.901962%,74.901962%);stroke-opacity:1;stroke-miterlimit:4;" d="M 124.398438 -20.808594 C 124.398438 -20.585938 124.21875 -20.40625 123.996094 -20.40625 C 123.777344 -20.40625 123.597656 -20.585938 123.597656 -20.808594 C 123.597656 -21.027344 123.777344 -21.207031 123.996094 -21.207031 C 124.21875 -21.207031 124.398438 -21.027344 124.398438 -20.808594 Z M 124.398438 -20.808594 " transform="matrix(1,0,0,1,4,206)"/>
<path style="fill:none;stroke-width:1;stroke-linecap:butt;stroke-linejoin:miter;stroke:rgb(74.901962%,74.901962%,74.901962%);stroke-opacity:1;stroke-miterlimit:4;" d="M 79.933594 -68.019531 C 81.996094 -71.476562 84.183594 -75.34375 86 -79 C 104.796875 -116.84375 103.203125 -129.15625 122 -167 C 123.644531 -170.3125 125.597656 -173.800781 127.484375 -177 " transform="matrix(1,0,0,1,4,206)"/>
<path style="fill-rule:nonzero;fill:rgb(74.901962%,74.901962%,74.901962%);fill-opacity:1;stroke-width:1;stroke-linecap:butt;stroke-linejoin:miter;stroke:rgb(74.901962%,74.901962%,74.901962%);stroke-opacity:1;stroke-miterlimit:4;" d="M 128.261719 -177.636719 C 128.261719 -177.417969 128.082031 -177.238281 127.863281 -177.238281 C 127.640625 -177.238281 127.460938 -177.417969 127.460938 -177.636719 C 127.460938 -177.859375 127.640625 -178.039062 127.863281 -178.039062 C 128.082031 -178.039062 128.261719 -177.859375 128.261719 -177.636719 Z M 128.261719 -177.636719 " transform="matrix(1,0,0,1,4,206)"/>
<path style="fill:none;stroke-width:1;stroke-linecap:butt;stroke-linejoin:miter;stroke:rgb(100%,100%,100%);stroke-opacity:0.0313726;stroke-miterlimit:4;" d="M 79.933594 -24.019531 C 81.996094 -27.476562 84.183594 -31.34375 86 -35 C 104.796875 -72.84375 103.203125 -85.15625 122 -123 C 123.644531 -126.3125 125.597656 -129.800781 127.484375 -133 " transform="matrix(1,0,0,1,4,206)"/>
<path style="fill-rule:nonzero;fill:rgb(100%,100%,100%);fill-opacity:0.0313726;stroke-width:1;stroke-linecap:butt;stroke-linejoin:miter;stroke:rgb(100%,100%,100%);stroke-opacity:0.0313726;stroke-miterlimit:4;" d="M 128.261719 -133.636719 C 128.261719 -133.417969 128.082031 -133.238281 127.863281 -133.238281 C 127.640625 -133.238281 127.460938 -133.417969 127.460938 -133.636719 C 127.460938 -133.859375 127.640625 -134.039062 127.863281 -134.039062 C 128.082031 -134.039062 128.261719 -133.859375 128.261719 -133.636719 Z M 128.261719 -133.636719 " transform="matrix(1,0,0,1,4,206)"/>
<path style="fill:none;stroke-width:1;stroke-linecap:butt;stroke-linejoin:miter;stroke:rgb(74.901962%,74.901962%,74.901962%);stroke-opacity:1;stroke-miterlimit:4;" d="M 80.601562 -23.789062 C 92.316406 -40.417969 114.683594 -72.164062 126.769531 -89.316406 " transform="matrix(1,0,0,1,4,206)"/>
<path style="fill-rule:nonzero;fill:rgb(74.901962%,74.901962%,74.901962%);fill-opacity:1;stroke-width:1;stroke-linecap:butt;stroke-linejoin:miter;stroke:rgb(74.901962%,74.901962%,74.901962%);stroke-opacity:1;stroke-miterlimit:4;" d="M 127.503906 -89.792969 C 127.503906 -89.574219 127.324219 -89.394531 127.105469 -89.394531 C 126.882812 -89.394531 126.703125 -89.574219 126.703125 -89.792969 C 126.703125 -90.015625 126.882812 -90.195312 127.105469 -90.195312 C 127.324219 -90.195312 127.503906 -90.015625 127.503906 -89.792969 Z M 127.503906 -89.792969 " transform="matrix(1,0,0,1,4,206)"/>
<path style="fill:none;stroke-width:1;stroke-linecap:butt;stroke-linejoin:miter;stroke:rgb(74.901962%,74.901962%,74.901962%);stroke-opacity:1;stroke-miterlimit:4;" d="M 83.800781 -20.664062 C 94.914062 -28.550781 112.160156 -40.789062 123.515625 -48.851562 " transform="matrix(1,0,0,1,4,206)"/>
<path style="fill-rule:nonzero;fill:rgb(74.901962%,74.901962%,74.901962%);fill-opacity:1;stroke-width:1;stroke-linecap:butt;stroke-linejoin:miter;stroke:rgb(74.901962%,74.901962%,74.901962%);stroke-opacity:1;stroke-miterlimit:4;" d="M 124.398438 -49.191406 C 124.398438 -48.972656 124.21875 -48.792969 123.996094 -48.792969 C 123.777344 -48.792969 123.597656 -48.972656 123.597656 -49.191406 C 123.597656 -49.414062 123.777344 -49.59375 123.996094 -49.59375 C 124.21875 -49.59375 124.398438 -49.414062 124.398438 -49.191406 Z M 124.398438 -49.191406 " transform="matrix(1,0,0,1,4,206)"/>
<path style="fill:none;stroke-width:1;stroke-linecap:butt;stroke-linejoin:miter;stroke:rgb(74.901962%,74.901962%,74.901962%);stroke-opacity:1;stroke-miterlimit:4;" d="M 86.148438 -13 C 96.339844 -13 110.441406 -13 120.871094 -13 " transform="matrix(1,0,0,1,4,206)"/>
<path style="fill-rule:nonzero;fill:rgb(74.901962%,74.901962%,74.901962%);fill-opacity:1;stroke-width:1;stroke-linecap:butt;stroke-linejoin:miter;stroke:rgb(74.901962%,74.901962%,74.901962%);stroke-opacity:1;stroke-miterlimit:4;" d="M 121.871094 -13 C 121.871094 -12.777344 121.691406 -12.601562 121.46875 -12.601562 C 121.25 -12.601562 121.070312 -12.777344 121.070312 -13 C 121.070312 -13.222656 121.25 -13.398438 121.46875 -13.398438 C 121.691406 -13.398438 121.871094 -13.222656 121.871094 -13 Z M 121.871094 -13 " transform="matrix(1,0,0,1,4,206)"/>
<path style="fill:none;stroke-width:1;stroke-linecap:butt;stroke-linejoin:miter;stroke:rgb(74.901962%,74.901962%,74.901962%);stroke-opacity:1;stroke-miterlimit:4;" d="M 80.214844 -23.890625 C 82.285156 -27.34375 84.410156 -31.242188 86 -35 C 109.679688 -91.007812 98.320312 -110.992188 122 -167 C 123.441406 -170.40625 125.320312 -173.929688 127.203125 -177.128906 " transform="matrix(1,0,0,1,4,206)"/>
<path style="fill-rule:nonzero;fill:rgb(74.901962%,74.901962%,74.901962%);fill-opacity:1;stroke-width:1;stroke-linecap:butt;stroke-linejoin:miter;stroke:rgb(74.901962%,74.901962%,74.901962%);stroke-opacity:1;stroke-miterlimit:4;" d="M 127.984375 -177.765625 C 127.984375 -177.546875 127.804688 -177.367188 127.582031 -177.367188 C 127.363281 -177.367188 127.183594 -177.546875 127.183594 -177.765625 C 127.183594 -177.988281 127.363281 -178.167969 127.582031 -178.167969 C 127.804688 -178.167969 127.984375 -177.988281 127.984375 -177.765625 Z M 127.984375 -177.765625 " transform="matrix(1,0,0,1,4,206)"/>
<path style="fill:none;stroke-width:1;stroke-linecap:butt;stroke-linejoin:miter;stroke:rgb(100%,100%,100%);stroke-opacity:0.0313726;stroke-miterlimit:4;" d="M 83.800781 -181.335938 C 94.914062 -173.449219 112.160156 -161.210938 123.515625 -153.148438 " transform="matrix(1,0,0,1,4,206)"/>
<path style="fill-rule:nonzero;fill:rgb(100%,100%,100%);fill-opacity:0.0313726;stroke-width:1;stroke-linecap:butt;stroke-linejoin:miter;stroke:rgb(100%,100%,100%);stroke-opacity:0.0313726;stroke-miterlimit:4;" d="M 124.398438 -152.808594 C 124.398438 -152.585938 124.21875 -152.40625 123.996094 -152.40625 C 123.777344 -152.40625 123.597656 -152.585938 123.597656 -152.808594 C 123.597656 -153.027344 123.777344 -153.207031 123.996094 -153.207031 C 124.21875 -153.207031 124.398438 -153.027344 124.398438 -152.808594 Z M 124.398438 -152.808594 " transform="matrix(1,0,0,1,4,206)"/>
<path style="fill:none;stroke-width:1;stroke-linecap:butt;stroke-linejoin:miter;stroke:rgb(74.901962%,74.901962%,74.901962%);stroke-opacity:1;stroke-miterlimit:4;" d="M 80.601562 -178.210938 C 92.316406 -161.582031 114.683594 -129.835938 126.769531 -112.683594 " transform="matrix(1,0,0,1,4,206)"/>
<path style="fill-rule:nonzero;fill:rgb(74.901962%,74.901962%,74.901962%);fill-opacity:1;stroke-width:1;stroke-linecap:butt;stroke-linejoin:miter;stroke:rgb(74.901962%,74.901962%,74.901962%);stroke-opacity:1;stroke-miterlimit:4;" d="M 127.503906 -112.207031 C 127.503906 -111.984375 127.324219 -111.804688 127.105469 -111.804688 C 126.882812 -111.804688 126.703125 -111.984375 126.703125 -112.207031 C 126.703125 -112.425781 126.882812 -112.605469 127.105469 -112.605469 C 127.324219 -112.605469 127.503906 -112.425781 127.503906 -112.207031 Z M 127.503906 -112.207031 " transform="matrix(1,0,0,1,4,206)"/>
<path style="fill:none;stroke-width:1;stroke-linecap:butt;stroke-linejoin:miter;stroke:rgb(74.901962%,74.901962%,74.901962%);stroke-opacity:1;stroke-miterlimit:4;" d="M 79.933594 -177.980469 C 81.996094 -174.523438 84.183594 -170.65625 86 -167 C 104.796875 -129.15625 103.203125 -116.84375 122 -79 C 123.644531 -75.6875 125.597656 -72.199219 127.484375 -69 " transform="matrix(1,0,0,1,4,206)"/>
<path style="fill-rule:nonzero;fill:rgb(74.901962%,74.901962%,74.901962%);fill-opacity:1;stroke-width:1;stroke-linecap:butt;stroke-linejoin:miter;stroke:rgb(74.901962%,74.901962%,74.901962%);stroke-opacity:1;stroke-miterlimit:4;" d="M 128.261719 -68.363281 C 128.261719 -68.140625 128.082031 -67.960938 127.863281 -67.960938 C 127.640625 -67.960938 127.460938 -68.140625 127.460938 -68.363281 C 127.460938 -68.582031 127.640625 -68.761719 127.863281 -68.761719 C 128.082031 -68.761719 128.261719 -68.582031 128.261719 -68.363281 Z M 128.261719 -68.363281 " transform="matrix(1,0,0,1,4,206)"/>
<path style="fill:none;stroke-width:1;stroke-linecap:butt;stroke-linejoin:miter;stroke:rgb(74.901962%,74.901962%,74.901962%);stroke-opacity:1;stroke-miterlimit:4;" d="M 80.214844 -178.109375 C 82.285156 -174.65625 84.410156 -170.757812 86 -167 C 109.679688 -110.992188 98.320312 -91.007812 122 -35 C 123.441406 -31.59375 125.320312 -28.070312 127.203125 -24.871094 " transform="matrix(1,0,0,1,4,206)"/>
<path style="fill-rule:nonzero;fill:rgb(74.901962%,74.901962%,74.901962%);fill-opacity:1;stroke-width:1;stroke-linecap:butt;stroke-linejoin:miter;stroke:rgb(74.901962%,74.901962%,74.901962%);stroke-opacity:1;stroke-miterlimit:4;" d="M 127.984375 -24.234375 C 127.984375 -24.011719 127.804688 -23.832031 127.582031 -23.832031 C 127.363281 -23.832031 127.183594 -24.011719 127.183594 -24.234375 C 127.183594 -24.453125 127.363281 -24.632812 127.582031 -24.632812 C 127.804688 -24.632812 127.984375 -24.453125 127.984375 -24.234375 Z M 127.984375 -24.234375 " transform="matrix(1,0,0,1,4,206)"/>
<path style="fill:none;stroke-width:1;stroke-linecap:butt;stroke-linejoin:miter;stroke:rgb(74.901962%,74.901962%,74.901962%);stroke-opacity:1;stroke-miterlimit:4;" d="M 86.148438 -189 C 96.339844 -189 110.441406 -189 120.871094 -189 " transform="matrix(1,0,0,1,4,206)"/>
<path style="fill-rule:nonzero;fill:rgb(74.901962%,74.901962%,74.901962%);fill-opacity:1;stroke-width:1;stroke-linecap:butt;stroke-linejoin:miter;stroke:rgb(74.901962%,74.901962%,74.901962%);stroke-opacity:1;stroke-miterlimit:4;" d="M 121.871094 -189 C 121.871094 -188.777344 121.691406 -188.601562 121.46875 -188.601562 C 121.25 -188.601562 121.070312 -188.777344 121.070312 -189 C 121.070312 -189.222656 121.25 -189.398438 121.46875 -189.398438 C 121.691406 -189.398438 121.871094 -189.222656 121.871094 -189 Z M 121.871094 -189 " transform="matrix(1,0,0,1,4,206)"/>
<path style="fill:none;stroke-width:3;stroke-linecap:butt;stroke-linejoin:miter;stroke:rgb(33.725491%,70.588237%,91.37255%);stroke-opacity:0.501961;stroke-dasharray:5,2;stroke-miterlimit:4;" d="M 206 -145 C 206 -140.03125 201.96875 -136 197 -136 C 192.03125 -136 188 -140.03125 188 -145 C 188 -149.96875 192.03125 -154 197 -154 C 201.96875 -154 206 -149.96875 206 -145 Z M 206 -145 " transform="matrix(1,0,0,1,4,206)"/>
<path style="fill:none;stroke-width:3;stroke-linecap:butt;stroke-linejoin:miter;stroke:rgb(33.725491%,70.588237%,91.37255%);stroke-opacity:0.501961;stroke-dasharray:5,2;stroke-miterlimit:4;" d="M 210 -145 C 210 -137.820312 204.179688 -132 197 -132 C 189.820312 -132 184 -137.820312 184 -145 C 184 -152.179688 189.820312 -158 197 -158 C 204.179688 -158 210 -152.179688 210 -145 Z M 210 -145 " transform="matrix(1,0,0,1,4,206)"/>
<path style=" stroke:none;fill-rule:nonzero;fill:rgb(0%,0%,0%);fill-opacity:1;" d="M 198.175781 56.828125 L 199.15625 56.828125 L 199.15625 59.789062 L 202.890625 59.789062 L 202.890625 56.828125 L 203.871094 56.828125 L 203.871094 64 L 202.890625 64 L 202.890625 60.644531 L 199.15625 60.644531 L 199.15625 64 L 198.175781 64 Z M 197.390625 56.300781 "/>
<path style="fill:none;stroke-width:1;stroke-linecap:butt;stroke-linejoin:miter;stroke:rgb(100%,100%,100%);stroke-opacity:0.0313726;stroke-miterlimit:4;" d="M 148.148438 -145 C 155.546875 -145 165.003906 -145 173.621094 -145 " transform="matrix(1,0,0,1,4,206)"/>
<path style="fill-rule:nonzero;fill:rgb(100%,100%,100%);fill-opacity:0.0313726;stroke-width:1;stroke-linecap:butt;stroke-linejoin:miter;stroke:rgb(100%,100%,100%);stroke-opacity:0.0313726;stroke-miterlimit:4;" d="M 173.871094 -148.5 L 183.871094 -145 L 173.871094 -141.5 Z M 173.871094 -148.5 " transform="matrix(1,0,0,1,4,206)"/>
<path style="fill:none;stroke-width:3;stroke-linecap:butt;stroke-linejoin:miter;stroke:rgb(33.725491%,70.588237%,91.37255%);stroke-opacity:0.501961;stroke-dasharray:5,2;stroke-miterlimit:4;" d="M 206 -101 C 206 -96.03125 201.96875 -92 197 -92 C 192.03125 -92 188 -96.03125 188 -101 C 188 -105.96875 192.03125 -110 197 -110 C 201.96875 -110 206 -105.96875 206 -101 Z M 206 -101 " transform="matrix(1,0,0,1,4,206)"/>
<path style="fill:none;stroke-width:3;stroke-linecap:butt;stroke-linejoin:miter;stroke:rgb(33.725491%,70.588237%,91.37255%);stroke-opacity:0.501961;stroke-dasharray:5,2;stroke-miterlimit:4;" d="M 210 -101 C 210 -93.820312 204.179688 -88 197 -88 C 189.820312 -88 184 -93.820312 184 -101 C 184 -108.179688 189.820312 -114 197 -114 C 204.179688 -114 210 -108.179688 210 -101 Z M 210 -101 " transform="matrix(1,0,0,1,4,206)"/>
<path style=" stroke:none;fill-rule:nonzero;fill:rgb(0%,0%,0%);fill-opacity:1;" d="M 198.175781 100.828125 L 199.15625 100.828125 L 199.15625 103.789062 L 202.890625 103.789062 L 202.890625 100.828125 L 203.871094 100.828125 L 203.871094 108 L 202.890625 108 L 202.890625 104.644531 L 199.15625 104.644531 L 199.15625 108 L 198.175781 108 Z M 197.390625 100.300781 "/>
<path style="fill:none;stroke-width:1;stroke-linecap:butt;stroke-linejoin:miter;stroke:rgb(100%,100%,100%);stroke-opacity:0.0313726;stroke-miterlimit:4;" d="M 145.800781 -137.335938 C 154.691406 -131.027344 167.507812 -121.929688 178.09375 -114.417969 " transform="matrix(1,0,0,1,4,206)"/>
<path style="fill-rule:nonzero;fill:rgb(100%,100%,100%);fill-opacity:0.0313726;stroke-width:1;stroke-linecap:butt;stroke-linejoin:miter;stroke:rgb(100%,100%,100%);stroke-opacity:0.0313726;stroke-miterlimit:4;" d="M 180.195312 -117.21875 L 186.324219 -108.578125 L 176.144531 -111.507812 Z M 180.195312 -117.21875 " transform="matrix(1,0,0,1,4,206)"/>
<path style="fill:none;stroke-width:3;stroke-linecap:butt;stroke-linejoin:miter;stroke:rgb(33.725491%,70.588237%,91.37255%);stroke-opacity:0.501961;stroke-dasharray:5,2;stroke-miterlimit:4;" d="M 206 -57 C 206 -52.03125 201.96875 -48 197 -48 C 192.03125 -48 188 -52.03125 188 -57 C 188 -61.96875 192.03125 -66 197 -66 C 201.96875 -66 206 -61.96875 206 -57 Z M 206 -57 " transform="matrix(1,0,0,1,4,206)"/>
<path style="fill:none;stroke-width:3;stroke-linecap:butt;stroke-linejoin:miter;stroke:rgb(33.725491%,70.588237%,91.37255%);stroke-opacity:0.501961;stroke-dasharray:5,2;stroke-miterlimit:4;" d="M 210 -57 C 210 -49.820312 204.179688 -44 197 -44 C 189.820312 -44 184 -49.820312 184 -57 C 184 -64.179688 189.820312 -70 197 -70 C 204.179688 -70 210 -64.179688 210 -57 Z M 210 -57 " transform="matrix(1,0,0,1,4,206)"/>
<path style=" stroke:none;fill-rule:nonzero;fill:rgb(0%,0%,0%);fill-opacity:1;" d="M 198.175781 144.828125 L 199.15625 144.828125 L 199.15625 147.789062 L 202.890625 147.789062 L 202.890625 144.828125 L 203.871094 144.828125 L 203.871094 152 L 202.890625 152 L 202.890625 148.644531 L 199.15625 148.644531 L 199.15625 152 L 198.175781 152 Z M 197.390625 144.300781 "/>
<path style="fill:none;stroke-width:1;stroke-linecap:butt;stroke-linejoin:miter;stroke:rgb(100%,100%,100%);stroke-opacity:0.0313726;stroke-miterlimit:4;" d="M 142.601562 -134.210938 C 152.734375 -119.828125 170.84375 -94.125 183.367188 -76.351562 " transform="matrix(1,0,0,1,4,206)"/>
<path style="fill-rule:nonzero;fill:rgb(100%,100%,100%);fill-opacity:0.0313726;stroke-width:1;stroke-linecap:butt;stroke-linejoin:miter;stroke:rgb(100%,100%,100%);stroke-opacity:0.0313726;stroke-miterlimit:4;" d="M 186.4375 -78.070312 L 189.335938 -67.878906 L 180.714844 -74.039062 Z M 186.4375 -78.070312 " transform="matrix(1,0,0,1,4,206)"/>
<path style="fill-rule:nonzero;fill:rgb(89.803922%,89.803922%,89.803922%);fill-opacity:1;stroke-width:3;stroke-linecap:butt;stroke-linejoin:miter;stroke:rgb(33.725491%,70.588237%,91.37255%);stroke-opacity:0.501961;stroke-miterlimit:4;" d="M 206 -13 C 206 -8.03125 201.96875 -4 197 -4 C 192.03125 -4 188 -8.03125 188 -13 C 188 -17.96875 192.03125 -22 197 -22 C 201.96875 -22 206 -17.96875 206 -13 Z M 206 -13 " transform="matrix(1,0,0,1,4,206)"/>
<path style="fill:none;stroke-width:3;stroke-linecap:butt;stroke-linejoin:miter;stroke:rgb(33.725491%,70.588237%,91.37255%);stroke-opacity:0.501961;stroke-miterlimit:4;" d="M 210 -13 C 210 -5.820312 204.179688 0 197 0 C 189.820312 0 184 -5.820312 184 -13 C 184 -20.179688 189.820312 -26 197 -26 C 204.179688 -26 210 -20.179688 210 -13 Z M 210 -13 " transform="matrix(1,0,0,1,4,206)"/>
<path style=" stroke:none;fill-rule:nonzero;fill:rgb(0%,0%,0%);fill-opacity:1;" d="M 198.175781 188.828125 L 199.15625 188.828125 L 199.15625 191.789062 L 202.890625 191.789062 L 202.890625 188.828125 L 203.871094 188.828125 L 203.871094 196 L 202.890625 196 L 202.890625 192.644531 L 199.15625 192.644531 L 199.15625 196 L 198.175781 196 Z M 197.390625 188.300781 "/>
<path style="fill:none;stroke-width:1;stroke-linecap:butt;stroke-linejoin:miter;stroke:rgb(100%,100%,100%);stroke-opacity:0.0313726;stroke-miterlimit:4;" d="M 141.933594 -133.980469 C 143.996094 -130.523438 146.183594 -126.65625 148 -123 C 166.796875 -85.15625 165.203125 -72.84375 184 -35 C 184.339844 -34.316406 184.695312 -33.621094 185.058594 -32.925781 " transform="matrix(1,0,0,1,4,206)"/>
<path style="fill-rule:nonzero;fill:rgb(100%,100%,100%);fill-opacity:0.0313726;stroke-width:1;stroke-linecap:butt;stroke-linejoin:miter;stroke:rgb(100%,100%,100%);stroke-opacity:0.0313726;stroke-miterlimit:4;" d="M 188.214844 -34.449219 L 190.066406 -24.019531 L 182.113281 -31.019531 Z M 188.214844 -34.449219 " transform="matrix(1,0,0,1,4,206)"/>
<path style="fill-rule:nonzero;fill:rgb(89.803922%,89.803922%,89.803922%);fill-opacity:1;stroke-width:3;stroke-linecap:butt;stroke-linejoin:miter;stroke:rgb(33.725491%,70.588237%,91.37255%);stroke-opacity:0.501961;stroke-miterlimit:4;" d="M 206 -189 C 206 -184.03125 201.96875 -180 197 -180 C 192.03125 -180 188 -184.03125 188 -189 C 188 -193.96875 192.03125 -198 197 -198 C 201.96875 -198 206 -193.96875 206 -189 Z M 206 -189 " transform="matrix(1,0,0,1,4,206)"/>
<path style="fill:none;stroke-width:3;stroke-linecap:butt;stroke-linejoin:miter;stroke:rgb(33.725491%,70.588237%,91.37255%);stroke-opacity:0.501961;stroke-miterlimit:4;" d="M 210 -189 C 210 -181.820312 204.179688 -176 197 -176 C 189.820312 -176 184 -181.820312 184 -189 C 184 -196.179688 189.820312 -202 197 -202 C 204.179688 -202 210 -196.179688 210 -189 Z M 210 -189 " transform="matrix(1,0,0,1,4,206)"/>
<path style=" stroke:none;fill-rule:nonzero;fill:rgb(0%,0%,0%);fill-opacity:1;" d="M 198.175781 12.828125 L 199.15625 12.828125 L 199.15625 15.789062 L 202.890625 15.789062 L 202.890625 12.828125 L 203.871094 12.828125 L 203.871094 20 L 202.890625 20 L 202.890625 16.644531 L 199.15625 16.644531 L 199.15625 20 L 198.175781 20 Z M 197.390625 12.300781 "/>
<path style="fill:none;stroke-width:1;stroke-linecap:butt;stroke-linejoin:miter;stroke:rgb(100%,100%,100%);stroke-opacity:0.0313726;stroke-miterlimit:4;" d="M 145.800781 -152.664062 C 154.691406 -158.972656 167.507812 -168.070312 178.09375 -175.582031 " transform="matrix(1,0,0,1,4,206)"/>
<path style="fill-rule:nonzero;fill:rgb(100%,100%,100%);fill-opacity:0.0313726;stroke-width:1;stroke-linecap:butt;stroke-linejoin:miter;stroke:rgb(100%,100%,100%);stroke-opacity:0.0313726;stroke-miterlimit:4;" d="M 176.144531 -178.492188 L 186.324219 -181.421875 L 180.195312 -172.78125 Z M 176.144531 -178.492188 " transform="matrix(1,0,0,1,4,206)"/>
<path style="fill:none;stroke-width:1;stroke-linecap:butt;stroke-linejoin:miter;stroke:rgb(74.901962%,74.901962%,74.901962%);stroke-opacity:1;stroke-miterlimit:4;" d="M 145.800781 -108.664062 C 156.914062 -116.550781 174.160156 -128.789062 185.515625 -136.851562 " transform="matrix(1,0,0,1,4,206)"/>
<path style="fill-rule:nonzero;fill:rgb(74.901962%,74.901962%,74.901962%);fill-opacity:1;stroke-width:1;stroke-linecap:butt;stroke-linejoin:miter;stroke:rgb(74.901962%,74.901962%,74.901962%);stroke-opacity:1;stroke-miterlimit:4;" d="M 186.398438 -137.191406 C 186.398438 -136.972656 186.21875 -136.792969 185.996094 -136.792969 C 185.777344 -136.792969 185.597656 -136.972656 185.597656 -137.191406 C 185.597656 -137.414062 185.777344 -137.59375 185.996094 -137.59375 C 186.21875 -137.59375 186.398438 -137.414062 186.398438 -137.191406 Z M 186.398438 -137.191406 " transform="matrix(1,0,0,1,4,206)"/>
<path style="fill:none;stroke-width:1;stroke-linecap:butt;stroke-linejoin:miter;stroke:rgb(74.901962%,74.901962%,74.901962%);stroke-opacity:1;stroke-miterlimit:4;" d="M 148.148438 -101 C 158.339844 -101 172.441406 -101 182.871094 -101 " transform="matrix(1,0,0,1,4,206)"/>
<path style="fill-rule:nonzero;fill:rgb(74.901962%,74.901962%,74.901962%);fill-opacity:1;stroke-width:1;stroke-linecap:butt;stroke-linejoin:miter;stroke:rgb(74.901962%,74.901962%,74.901962%);stroke-opacity:1;stroke-miterlimit:4;" d="M 183.871094 -101 C 183.871094 -100.777344 183.691406 -100.601562 183.46875 -100.601562 C 183.25 -100.601562 183.070312 -100.777344 183.070312 -101 C 183.070312 -101.222656 183.25 -101.398438 183.46875 -101.398438 C 183.691406 -101.398438 183.871094 -101.222656 183.871094 -101 Z M 183.871094 -101 " transform="matrix(1,0,0,1,4,206)"/>
<path style="fill:none;stroke-width:1;stroke-linecap:butt;stroke-linejoin:miter;stroke:rgb(74.901962%,74.901962%,74.901962%);stroke-opacity:1;stroke-miterlimit:4;" d="M 145.800781 -93.335938 C 156.914062 -85.449219 174.160156 -73.210938 185.515625 -65.148438 " transform="matrix(1,0,0,1,4,206)"/>
<path style="fill-rule:nonzero;fill:rgb(74.901962%,74.901962%,74.901962%);fill-opacity:1;stroke-width:1;stroke-linecap:butt;stroke-linejoin:miter;stroke:rgb(74.901962%,74.901962%,74.901962%);stroke-opacity:1;stroke-miterlimit:4;" d="M 186.398438 -64.808594 C 186.398438 -64.585938 186.21875 -64.40625 185.996094 -64.40625 C 185.777344 -64.40625 185.597656 -64.585938 185.597656 -64.808594 C 185.597656 -65.027344 185.777344 -65.207031 185.996094 -65.207031 C 186.21875 -65.207031 186.398438 -65.027344 186.398438 -64.808594 Z M 186.398438 -64.808594 " transform="matrix(1,0,0,1,4,206)"/>
<path style="fill:none;stroke-width:1;stroke-linecap:butt;stroke-linejoin:miter;stroke:rgb(100%,100%,100%);stroke-opacity:0.0313726;stroke-miterlimit:4;" d="M 142.601562 -90.210938 C 152.734375 -75.828125 170.84375 -50.125 183.367188 -32.351562 " transform="matrix(1,0,0,1,4,206)"/>
<path style="fill-rule:nonzero;fill:rgb(100%,100%,100%);fill-opacity:0.0313726;stroke-width:1;stroke-linecap:butt;stroke-linejoin:miter;stroke:rgb(100%,100%,100%);stroke-opacity:0.0313726;stroke-miterlimit:4;" d="M 186.4375 -34.070312 L 189.335938 -23.878906 L 180.714844 -30.039062 Z M 186.4375 -34.070312 " transform="matrix(1,0,0,1,4,206)"/>
<path style="fill:none;stroke-width:1;stroke-linecap:butt;stroke-linejoin:miter;stroke:rgb(100%,100%,100%);stroke-opacity:0.0313726;stroke-miterlimit:4;" d="M 142.601562 -111.789062 C 152.734375 -126.171875 170.84375 -151.875 183.367188 -169.648438 " transform="matrix(1,0,0,1,4,206)"/>
<path style="fill-rule:nonzero;fill:rgb(100%,100%,100%);fill-opacity:0.0313726;stroke-width:1;stroke-linecap:butt;stroke-linejoin:miter;stroke:rgb(100%,100%,100%);stroke-opacity:0.0313726;stroke-miterlimit:4;" d="M 180.714844 -171.960938 L 189.335938 -178.121094 L 186.4375 -167.929688 Z M 180.714844 -171.960938 " transform="matrix(1,0,0,1,4,206)"/>
<path style="fill:none;stroke-width:1;stroke-linecap:butt;stroke-linejoin:miter;stroke:rgb(74.901962%,74.901962%,74.901962%);stroke-opacity:1;stroke-miterlimit:4;" d="M 142.601562 -67.789062 C 154.316406 -84.417969 176.683594 -116.164062 188.769531 -133.316406 " transform="matrix(1,0,0,1,4,206)"/>
<path style="fill-rule:nonzero;fill:rgb(74.901962%,74.901962%,74.901962%);fill-opacity:1;stroke-width:1;stroke-linecap:butt;stroke-linejoin:miter;stroke:rgb(74.901962%,74.901962%,74.901962%);stroke-opacity:1;stroke-miterlimit:4;" d="M 189.503906 -133.792969 C 189.503906 -133.574219 189.324219 -133.394531 189.105469 -133.394531 C 188.882812 -133.394531 188.703125 -133.574219 188.703125 -133.792969 C 188.703125 -134.015625 188.882812 -134.195312 189.105469 -134.195312 C 189.324219 -134.195312 189.503906 -134.015625 189.503906 -133.792969 Z M 189.503906 -133.792969 " transform="matrix(1,0,0,1,4,206)"/>
<path style="fill:none;stroke-width:1;stroke-linecap:butt;stroke-linejoin:miter;stroke:rgb(74.901962%,74.901962%,74.901962%);stroke-opacity:1;stroke-miterlimit:4;" d="M 145.800781 -64.664062 C 156.914062 -72.550781 174.160156 -84.789062 185.515625 -92.851562 " transform="matrix(1,0,0,1,4,206)"/>
<path style="fill-rule:nonzero;fill:rgb(74.901962%,74.901962%,74.901962%);fill-opacity:1;stroke-width:1;stroke-linecap:butt;stroke-linejoin:miter;stroke:rgb(74.901962%,74.901962%,74.901962%);stroke-opacity:1;stroke-miterlimit:4;" d="M 186.398438 -93.191406 C 186.398438 -92.972656 186.21875 -92.792969 185.996094 -92.792969 C 185.777344 -92.792969 185.597656 -92.972656 185.597656 -93.191406 C 185.597656 -93.414062 185.777344 -93.59375 185.996094 -93.59375 C 186.21875 -93.59375 186.398438 -93.414062 186.398438 -93.191406 Z M 186.398438 -93.191406 " transform="matrix(1,0,0,1,4,206)"/>
<path style="fill:none;stroke-width:1;stroke-linecap:butt;stroke-linejoin:miter;stroke:rgb(74.901962%,74.901962%,74.901962%);stroke-opacity:1;stroke-miterlimit:4;" d="M 148.148438 -57 C 158.339844 -57 172.441406 -57 182.871094 -57 " transform="matrix(1,0,0,1,4,206)"/>
<path style="fill-rule:nonzero;fill:rgb(74.901962%,74.901962%,74.901962%);fill-opacity:1;stroke-width:1;stroke-linecap:butt;stroke-linejoin:miter;stroke:rgb(74.901962%,74.901962%,74.901962%);stroke-opacity:1;stroke-miterlimit:4;" d="M 183.871094 -57 C 183.871094 -56.777344 183.691406 -56.601562 183.46875 -56.601562 C 183.25 -56.601562 183.070312 -56.777344 183.070312 -57 C 183.070312 -57.222656 183.25 -57.398438 183.46875 -57.398438 C 183.691406 -57.398438 183.871094 -57.222656 183.871094 -57 Z M 183.871094 -57 " transform="matrix(1,0,0,1,4,206)"/>
<path style="fill:none;stroke-width:1;stroke-linecap:butt;stroke-linejoin:miter;stroke:rgb(100%,100%,100%);stroke-opacity:0.0313726;stroke-miterlimit:4;" d="M 145.800781 -49.335938 C 154.691406 -43.027344 167.507812 -33.929688 178.09375 -26.417969 " transform="matrix(1,0,0,1,4,206)"/>
<path style="fill-rule:nonzero;fill:rgb(100%,100%,100%);fill-opacity:0.0313726;stroke-width:1;stroke-linecap:butt;stroke-linejoin:miter;stroke:rgb(100%,100%,100%);stroke-opacity:0.0313726;stroke-miterlimit:4;" d="M 180.195312 -29.21875 L 186.324219 -20.578125 L 176.144531 -23.507812 Z M 180.195312 -29.21875 " transform="matrix(1,0,0,1,4,206)"/>
<path style="fill:none;stroke-width:1;stroke-linecap:butt;stroke-linejoin:miter;stroke:rgb(100%,100%,100%);stroke-opacity:0.0313726;stroke-miterlimit:4;" d="M 141.933594 -68.019531 C 143.996094 -71.476562 146.183594 -75.34375 148 -79 C 166.796875 -116.84375 165.203125 -129.15625 184 -167 C 184.339844 -167.683594 184.695312 -168.378906 185.058594 -169.074219 " transform="matrix(1,0,0,1,4,206)"/>
<path style="fill-rule:nonzero;fill:rgb(100%,100%,100%);fill-opacity:0.0313726;stroke-width:1;stroke-linecap:butt;stroke-linejoin:miter;stroke:rgb(100%,100%,100%);stroke-opacity:0.0313726;stroke-miterlimit:4;" d="M 182.113281 -170.980469 L 190.066406 -177.980469 L 188.214844 -167.550781 Z M 182.113281 -170.980469 " transform="matrix(1,0,0,1,4,206)"/>
<path style="fill:none;stroke-width:1;stroke-linecap:butt;stroke-linejoin:miter;stroke:rgb(74.901962%,74.901962%,74.901962%);stroke-opacity:1;stroke-miterlimit:4;" d="M 141.933594 -24.019531 C 143.996094 -27.476562 146.183594 -31.34375 148 -35 C 166.796875 -72.84375 165.203125 -85.15625 184 -123 C 185.644531 -126.3125 187.597656 -129.800781 189.484375 -133 " transform="matrix(1,0,0,1,4,206)"/>
<path style="fill-rule:nonzero;fill:rgb(74.901962%,74.901962%,74.901962%);fill-opacity:1;stroke-width:1;stroke-linecap:butt;stroke-linejoin:miter;stroke:rgb(74.901962%,74.901962%,74.901962%);stroke-opacity:1;stroke-miterlimit:4;" d="M 190.261719 -133.636719 C 190.261719 -133.417969 190.082031 -133.238281 189.863281 -133.238281 C 189.640625 -133.238281 189.460938 -133.417969 189.460938 -133.636719 C 189.460938 -133.859375 189.640625 -134.039062 189.863281 -134.039062 C 190.082031 -134.039062 190.261719 -133.859375 190.261719 -133.636719 Z M 190.261719 -133.636719 " transform="matrix(1,0,0,1,4,206)"/>
<path style="fill:none;stroke-width:1;stroke-linecap:butt;stroke-linejoin:miter;stroke:rgb(74.901962%,74.901962%,74.901962%);stroke-opacity:1;stroke-miterlimit:4;" d="M 142.601562 -23.789062 C 154.316406 -40.417969 176.683594 -72.164062 188.769531 -89.316406 " transform="matrix(1,0,0,1,4,206)"/>
<path style="fill-rule:nonzero;fill:rgb(74.901962%,74.901962%,74.901962%);fill-opacity:1;stroke-width:1;stroke-linecap:butt;stroke-linejoin:miter;stroke:rgb(74.901962%,74.901962%,74.901962%);stroke-opacity:1;stroke-miterlimit:4;" d="M 189.503906 -89.792969 C 189.503906 -89.574219 189.324219 -89.394531 189.105469 -89.394531 C 188.882812 -89.394531 188.703125 -89.574219 188.703125 -89.792969 C 188.703125 -90.015625 188.882812 -90.195312 189.105469 -90.195312 C 189.324219 -90.195312 189.503906 -90.015625 189.503906 -89.792969 Z M 189.503906 -89.792969 " transform="matrix(1,0,0,1,4,206)"/>
<path style="fill:none;stroke-width:1;stroke-linecap:butt;stroke-linejoin:miter;stroke:rgb(74.901962%,74.901962%,74.901962%);stroke-opacity:1;stroke-miterlimit:4;" d="M 145.800781 -20.664062 C 156.914062 -28.550781 174.160156 -40.789062 185.515625 -48.851562 " transform="matrix(1,0,0,1,4,206)"/>
<path style="fill-rule:nonzero;fill:rgb(74.901962%,74.901962%,74.901962%);fill-opacity:1;stroke-width:1;stroke-linecap:butt;stroke-linejoin:miter;stroke:rgb(74.901962%,74.901962%,74.901962%);stroke-opacity:1;stroke-miterlimit:4;" d="M 186.398438 -49.191406 C 186.398438 -48.972656 186.21875 -48.792969 185.996094 -48.792969 C 185.777344 -48.792969 185.597656 -48.972656 185.597656 -49.191406 C 185.597656 -49.414062 185.777344 -49.59375 185.996094 -49.59375 C 186.21875 -49.59375 186.398438 -49.414062 186.398438 -49.191406 Z M 186.398438 -49.191406 " transform="matrix(1,0,0,1,4,206)"/>
<path style="fill:none;stroke-width:1;stroke-linecap:butt;stroke-linejoin:miter;stroke:rgb(100%,100%,100%);stroke-opacity:0.0313726;stroke-miterlimit:4;" d="M 148.148438 -13 C 155.546875 -13 165.003906 -13 173.621094 -13 " transform="matrix(1,0,0,1,4,206)"/>
<path style="fill-rule:nonzero;fill:rgb(100%,100%,100%);fill-opacity:0.0313726;stroke-width:1;stroke-linecap:butt;stroke-linejoin:miter;stroke:rgb(100%,100%,100%);stroke-opacity:0.0313726;stroke-miterlimit:4;" d="M 173.871094 -16.5 L 183.871094 -13 L 173.871094 -9.5 Z M 173.871094 -16.5 " transform="matrix(1,0,0,1,4,206)"/>
<path style="fill:none;stroke-width:1;stroke-linecap:butt;stroke-linejoin:miter;stroke:rgb(100%,100%,100%);stroke-opacity:0.0313726;stroke-miterlimit:4;" d="M 142.214844 -23.890625 C 144.285156 -27.34375 146.410156 -31.242188 148 -35 C 171.679688 -91.007812 160.320312 -110.992188 184 -167 C 184.296875 -167.703125 184.613281 -168.414062 184.945312 -169.125 " transform="matrix(1,0,0,1,4,206)"/>
<path style="fill-rule:nonzero;fill:rgb(100%,100%,100%);fill-opacity:0.0313726;stroke-width:1;stroke-linecap:butt;stroke-linejoin:miter;stroke:rgb(100%,100%,100%);stroke-opacity:0.0313726;stroke-miterlimit:4;" d="M 181.960938 -170.964844 L 189.785156 -178.109375 L 188.125 -167.648438 Z M 181.960938 -170.964844 " transform="matrix(1,0,0,1,4,206)"/>
<path style="fill:none;stroke-width:1;stroke-linecap:butt;stroke-linejoin:miter;stroke:rgb(74.901962%,74.901962%,74.901962%);stroke-opacity:1;stroke-miterlimit:4;" d="M 145.800781 -181.335938 C 156.914062 -173.449219 174.160156 -161.210938 185.515625 -153.148438 " transform="matrix(1,0,0,1,4,206)"/>
<path style="fill-rule:nonzero;fill:rgb(74.901962%,74.901962%,74.901962%);fill-opacity:1;stroke-width:1;stroke-linecap:butt;stroke-linejoin:miter;stroke:rgb(74.901962%,74.901962%,74.901962%);stroke-opacity:1;stroke-miterlimit:4;" d="M 186.398438 -152.808594 C 186.398438 -152.585938 186.21875 -152.40625 185.996094 -152.40625 C 185.777344 -152.40625 185.597656 -152.585938 185.597656 -152.808594 C 185.597656 -153.027344 185.777344 -153.207031 185.996094 -153.207031 C 186.21875 -153.207031 186.398438 -153.027344 186.398438 -152.808594 Z M 186.398438 -152.808594 " transform="matrix(1,0,0,1,4,206)"/>
<path style="fill:none;stroke-width:1;stroke-linecap:butt;stroke-linejoin:miter;stroke:rgb(74.901962%,74.901962%,74.901962%);stroke-opacity:1;stroke-miterlimit:4;" d="M 142.601562 -178.210938 C 154.316406 -161.582031 176.683594 -129.835938 188.769531 -112.683594 " transform="matrix(1,0,0,1,4,206)"/>
<path style="fill-rule:nonzero;fill:rgb(74.901962%,74.901962%,74.901962%);fill-opacity:1;stroke-width:1;stroke-linecap:butt;stroke-linejoin:miter;stroke:rgb(74.901962%,74.901962%,74.901962%);stroke-opacity:1;stroke-miterlimit:4;" d="M 189.503906 -112.207031 C 189.503906 -111.984375 189.324219 -111.804688 189.105469 -111.804688 C 188.882812 -111.804688 188.703125 -111.984375 188.703125 -112.207031 C 188.703125 -112.425781 188.882812 -112.605469 189.105469 -112.605469 C 189.324219 -112.605469 189.503906 -112.425781 189.503906 -112.207031 Z M 189.503906 -112.207031 " transform="matrix(1,0,0,1,4,206)"/>
<path style="fill:none;stroke-width:1;stroke-linecap:butt;stroke-linejoin:miter;stroke:rgb(74.901962%,74.901962%,74.901962%);stroke-opacity:1;stroke-miterlimit:4;" d="M 141.933594 -177.980469 C 143.996094 -174.523438 146.183594 -170.65625 148 -167 C 166.796875 -129.15625 165.203125 -116.84375 184 -79 C 185.644531 -75.6875 187.597656 -72.199219 189.484375 -69 " transform="matrix(1,0,0,1,4,206)"/>
<path style="fill-rule:nonzero;fill:rgb(74.901962%,74.901962%,74.901962%);fill-opacity:1;stroke-width:1;stroke-linecap:butt;stroke-linejoin:miter;stroke:rgb(74.901962%,74.901962%,74.901962%);stroke-opacity:1;stroke-miterlimit:4;" d="M 190.261719 -68.363281 C 190.261719 -68.140625 190.082031 -67.960938 189.863281 -67.960938 C 189.640625 -67.960938 189.460938 -68.140625 189.460938 -68.363281 C 189.460938 -68.582031 189.640625 -68.761719 189.863281 -68.761719 C 190.082031 -68.761719 190.261719 -68.582031 190.261719 -68.363281 Z M 190.261719 -68.363281 " transform="matrix(1,0,0,1,4,206)"/>
<path style="fill:none;stroke-width:1;stroke-linecap:butt;stroke-linejoin:miter;stroke:rgb(100%,100%,100%);stroke-opacity:0.0313726;stroke-miterlimit:4;" d="M 142.214844 -178.109375 C 144.285156 -174.65625 146.410156 -170.757812 148 -167 C 171.679688 -110.992188 160.320312 -91.007812 184 -35 C 184.296875 -34.296875 184.613281 -33.585938 184.945312 -32.875 " transform="matrix(1,0,0,1,4,206)"/>
<path style="fill-rule:nonzero;fill:rgb(100%,100%,100%);fill-opacity:0.0313726;stroke-width:1;stroke-linecap:butt;stroke-linejoin:miter;stroke:rgb(100%,100%,100%);stroke-opacity:0.0313726;stroke-miterlimit:4;" d="M 188.125 -34.351562 L 189.785156 -23.890625 L 181.960938 -31.035156 Z M 188.125 -34.351562 " transform="matrix(1,0,0,1,4,206)"/>
<path style="fill:none;stroke-width:1;stroke-linecap:butt;stroke-linejoin:miter;stroke:rgb(100%,100%,100%);stroke-opacity:0.0313726;stroke-miterlimit:4;" d="M 148.148438 -189 C 155.546875 -189 165.003906 -189 173.621094 -189 " transform="matrix(1,0,0,1,4,206)"/>
<path style="fill-rule:nonzero;fill:rgb(100%,100%,100%);fill-opacity:0.0313726;stroke-width:1;stroke-linecap:butt;stroke-linejoin:miter;stroke:rgb(100%,100%,100%);stroke-opacity:0.0313726;stroke-miterlimit:4;" d="M 173.871094 -192.5 L 183.871094 -189 L 173.871094 -185.5 Z M 173.871094 -192.5 " transform="matrix(1,0,0,1,4,206)"/>
<path style="fill:none;stroke-width:1;stroke-linecap:butt;stroke-linejoin:miter;stroke:rgb(0%,0%,0%);stroke-opacity:1;stroke-miterlimit:4;" d="M 262 -113 C 262 -113 254 -113 254 -113 C 250 -113 246 -109 246 -105 C 246 -105 246 -97 246 -97 C 246 -93 250 -89 254 -89 C 254 -89 262 -89 262 -89 C 266 -89 270 -93 270 -97 C 270 -97 270 -105 270 -105 C 270 -109 266 -113 262 -113 " transform="matrix(1,0,0,1,4,206)"/>
<path style=" stroke:none;fill-rule:nonzero;fill:rgb(0%,0%,0%);fill-opacity:1;" d="M 253.054688 106.945312 C 253.519531 106.945312 253.839844 106.769531 254.011719 106.414062 C 254.1875 106.0625 254.273438 105.671875 254.273438 105.238281 C 254.273438 104.847656 254.210938 104.53125 254.085938 104.285156 C 253.886719 103.898438 253.546875 103.707031 253.0625 103.707031 C 252.632812 103.707031 252.320312 103.871094 252.125 104.199219 C 251.929688 104.527344 251.832031 104.921875 251.832031 105.386719 C 251.832031 105.832031 251.929688 106.203125 252.125 106.5 C 252.320312 106.796875 252.628906 106.945312 253.054688 106.945312 Z M 253.082031 103.09375 C 253.621094 103.09375 254.078125 103.273438 254.449219 103.632812 C 254.820312 103.992188 255.007812 104.519531 255.007812 105.21875 C 255.007812 105.894531 254.84375 106.449219 254.515625 106.890625 C 254.1875 107.332031 253.679688 107.550781 252.988281 107.550781 C 252.414062 107.550781 251.957031 107.355469 251.617188 106.96875 C 251.277344 106.578125 251.109375 106.054688 251.109375 105.398438 C 251.109375 104.695312 251.289062 104.136719 251.644531 103.71875 C 252 103.300781 252.480469 103.09375 253.082031 103.09375 Z M 256.546875 103.214844 L 256.546875 105.992188 C 256.546875 106.207031 256.582031 106.378906 256.648438 106.515625 C 256.773438 106.765625 257.007812 106.890625 257.347656 106.890625 C 257.835938 106.890625 258.171875 106.671875 258.347656 106.234375 C 258.445312 106 258.492188 105.679688 258.492188 105.269531 L 258.492188 103.214844 L 259.195312 103.214844 L 259.195312 107.398438 L 258.53125 107.398438 L 258.539062 106.78125 C 258.449219 106.941406 258.335938 107.074219 258.199219 107.183594 C 257.929688 107.402344 257.605469 107.511719 257.222656 107.511719 C 256.625 107.511719 256.21875 107.3125 256.003906 106.914062 C 255.886719 106.699219 255.828125 106.414062 255.828125 106.058594 L 255.828125 103.214844 Z M 260.433594 102.046875 L 261.144531 102.046875 L 261.144531 103.214844 L 261.8125 103.214844 L 261.8125 103.789062 L 261.144531 103.789062 L 261.144531 106.519531 C 261.144531 106.664062 261.195312 106.761719 261.292969 106.8125 C 261.347656 106.839844 261.4375 106.855469 261.566406 106.855469 C 261.601562 106.855469 261.636719 106.855469 261.675781 106.851562 C 261.714844 106.851562 261.761719 106.847656 261.8125 106.84375 L 261.8125 107.398438 C 261.730469 107.421875 261.648438 107.4375 261.558594 107.449219 C 261.472656 107.460938 261.378906 107.464844 261.277344 107.464844 C 260.949219 107.464844 260.726562 107.382812 260.609375 107.210938 C 260.492188 107.042969 260.433594 106.828125 260.433594 106.558594 L 260.433594 103.789062 L 259.867188 103.789062 L 259.867188 103.214844 L 260.433594 103.214844 Z M 264.28125 106.925781 C 264.609375 106.925781 264.882812 106.789062 265.101562 106.515625 C 265.316406 106.238281 265.425781 105.828125 265.425781 105.28125 C 265.425781 104.949219 265.378906 104.660156 265.28125 104.421875 C 265.097656 103.960938 264.765625 103.730469 264.28125 103.730469 C 263.792969 103.730469 263.460938 103.972656 263.28125 104.460938 C 263.183594 104.722656 263.136719 105.050781 263.136719 105.453125 C 263.136719 105.777344 263.183594 106.050781 263.28125 106.277344 C 263.464844 106.710938 263.796875 106.925781 264.28125 106.925781 Z M 262.460938 103.234375 L 263.144531 103.234375 L 263.144531 103.789062 C 263.285156 103.597656 263.4375 103.453125 263.605469 103.347656 C 263.84375 103.191406 264.121094 103.113281 264.441406 103.113281 C 264.914062 103.113281 265.316406 103.296875 265.648438 103.65625 C 265.980469 104.019531 266.144531 104.539062 266.144531 105.214844 C 266.144531 106.125 265.90625 106.777344 265.429688 107.167969 C 265.128906 107.414062 264.777344 107.539062 264.375 107.539062 C 264.058594 107.539062 263.796875 107.46875 263.582031 107.332031 C 263.457031 107.253906 263.316406 107.121094 263.164062 106.929688 L 263.164062 109.066406 L 262.460938 109.066406 Z M 267.667969 103.214844 L 267.667969 105.992188 C 267.667969 106.207031 267.703125 106.378906 267.769531 106.515625 C 267.894531 106.765625 268.128906 106.890625 268.46875 106.890625 C 268.957031 106.890625 269.292969 106.671875 269.46875 106.234375 C 269.566406 106 269.613281 105.679688 269.613281 105.269531 L 269.613281 103.214844 L 270.316406 103.214844 L 270.316406 107.398438 L 269.652344 107.398438 L 269.660156 106.78125 C 269.570312 106.941406 269.457031 107.074219 269.320312 107.183594 C 269.050781 107.402344 268.726562 107.511719 268.34375 107.511719 C 267.746094 107.511719 267.339844 107.3125 267.125 106.914062 C 267.007812 106.699219 266.949219 106.414062 266.949219 106.058594 L 266.949219 103.214844 Z M 271.554688 102.046875 L 272.265625 102.046875 L 272.265625 103.214844 L 272.933594 103.214844 L 272.933594 103.789062 L 272.265625 103.789062 L 272.265625 106.519531 C 272.265625 106.664062 272.316406 106.761719 272.414062 106.8125 C 272.46875 106.839844 272.558594 106.855469 272.6875 106.855469 C 272.722656 106.855469 272.757812 106.855469 272.796875 106.851562 C 272.835938 106.851562 272.882812 106.847656 272.933594 106.84375 L 272.933594 107.398438 C 272.851562 107.421875 272.769531 107.4375 272.679688 107.449219 C 272.59375 107.460938 272.5 107.464844 272.398438 107.464844 C 272.070312 107.464844 271.847656 107.382812 271.730469 107.210938 C 271.613281 107.042969 271.554688 106.828125 271.554688 106.558594 L 271.554688 103.789062 L 270.988281 103.789062 L 270.988281 103.214844 L 271.554688 103.214844 Z M 250.878906 101.238281 "/>
<path style="fill:none;stroke-width:1;stroke-linecap:butt;stroke-linejoin:miter;stroke:rgb(74.901962%,74.901962%,74.901962%);stroke-opacity:1;stroke-miterlimit:4;" d="M 207.625 -137.335938 C 217.691406 -130.074219 232.878906 -119.121094 243.941406 -111.140625 " transform="matrix(1,0,0,1,4,206)"/>
<path style="fill-rule:nonzero;fill:rgb(74.901962%,74.901962%,74.901962%);fill-opacity:1;stroke-width:1;stroke-linecap:butt;stroke-linejoin:miter;stroke:rgb(74.901962%,74.901962%,74.901962%);stroke-opacity:1;stroke-miterlimit:4;" d="M 246.007812 -110.371094 C 246.007812 -109.816406 245.5625 -109.371094 245.007812 -109.371094 C 244.457031 -109.371094 244.007812 -109.816406 244.007812 -110.371094 C 244.007812 -110.921875 244.457031 -111.371094 245.007812 -111.371094 C 245.5625 -111.371094 246.007812 -110.921875 246.007812 -110.371094 Z M 246.007812 -110.371094 " transform="matrix(1,0,0,1,4,206)"/>
<path style="fill:none;stroke-width:1;stroke-linecap:butt;stroke-linejoin:miter;stroke:rgb(74.901962%,74.901962%,74.901962%);stroke-opacity:1;stroke-miterlimit:4;" d="M 210.234375 -101 C 220.007812 -101 233.308594 -101 243.390625 -101 " transform="matrix(1,0,0,1,4,206)"/>
<path style="fill-rule:nonzero;fill:rgb(74.901962%,74.901962%,74.901962%);fill-opacity:1;stroke-width:1;stroke-linecap:butt;stroke-linejoin:miter;stroke:rgb(74.901962%,74.901962%,74.901962%);stroke-opacity:1;stroke-miterlimit:4;" d="M 245.621094 -101 C 245.621094 -100.449219 245.171875 -100 244.621094 -100 C 244.070312 -100 243.621094 -100.449219 243.621094 -101 C 243.621094 -101.550781 244.070312 -102 244.621094 -102 C 245.171875 -102 245.621094 -101.550781 245.621094 -101 Z M 245.621094 -101 " transform="matrix(1,0,0,1,4,206)"/>
<path style="fill:none;stroke-width:1;stroke-linecap:butt;stroke-linejoin:miter;stroke:rgb(74.901962%,74.901962%,74.901962%);stroke-opacity:1;stroke-miterlimit:4;" d="M 207.625 -64.664062 C 217.691406 -71.925781 232.878906 -82.878906 243.941406 -90.859375 " transform="matrix(1,0,0,1,4,206)"/>
<path style="fill-rule:nonzero;fill:rgb(74.901962%,74.901962%,74.901962%);fill-opacity:1;stroke-width:1;stroke-linecap:butt;stroke-linejoin:miter;stroke:rgb(74.901962%,74.901962%,74.901962%);stroke-opacity:1;stroke-miterlimit:4;" d="M 246.007812 -91.628906 C 246.007812 -91.078125 245.5625 -90.628906 245.007812 -90.628906 C 244.457031 -90.628906 244.007812 -91.078125 244.007812 -91.628906 C 244.007812 -92.183594 244.457031 -92.628906 245.007812 -92.628906 C 245.5625 -92.628906 246.007812 -92.183594 246.007812 -91.628906 Z M 246.007812 -91.628906 " transform="matrix(1,0,0,1,4,206)"/>
</g>
</svg>
