<?xml version="1.0" encoding="UTF-8"?>
<svg xmlns="http://www.w3.org/2000/svg" xmlns:xlink="http://www.w3.org/1999/xlink" width="157pt" height="110pt" viewBox="0 0 157 110" version="1.1">
<g id="surface34">
<path style="fill:none;stroke-width:0.5;stroke-linecap:butt;stroke-linejoin:miter;stroke:rgb(49.803922%,49.803922%,49.803922%);stroke-opacity:1;stroke-miterlimit:4;" d="M 21.998672 -91.000663 C 21.998672 -84.926097 17.073348 -80.000774 10.998783 -80.000774 C 4.924217 -80.000774 -0.00110642 -84.926097 -0.00110642 -91.000663 C -0.00110642 -97.075228 4.924217 -102.000552 10.998783 -102.000552 C 17.073348 -102.000552 21.998672 -97.075228 21.998672 -91.000663 Z M 21.998672 -91.000663 " transform="matrix(0.9993,0,0,0.9993,3.997199,105.964292)"/>
<path style=" stroke:none;fill-rule:nonzero;fill:rgb(25.098041%,25.098041%,25.098041%);fill-opacity:1;" d="M 12.984375 13.195312 L 13.789062 11.566406 L 14.414062 11.566406 L 13.308594 13.679688 L 14.4375 15.828125 L 13.804688 15.828125 L 12.984375 14.164062 L 12.164062 15.828125 L 11.527344 15.828125 L 12.667969 13.679688 L 11.550781 11.566406 L 12.179688 11.566406 Z M 11.328125 10.265625 "/>
<path style=" stroke:none;fill-rule:nonzero;fill:rgb(25.098041%,25.098041%,25.098041%);fill-opacity:1;" d="M 17.539062 17.027344 L 17.019531 17.027344 L 17.019531 13.414062 L 16.121094 13.816406 L 16.121094 13.324219 L 17.457031 12.746094 L 17.539062 12.746094 Z M 15.652344 11.464844 "/>
<path style="fill:none;stroke-width:0.5;stroke-linecap:butt;stroke-linejoin:miter;stroke:rgb(33.725491%,70.588237%,91.37255%);stroke-opacity:0.501961;stroke-dasharray:5,2;stroke-miterlimit:4;" d="M 86.109966 -51 C 86.109966 -46.027769 82.0798 -42.001512 77.107569 -42.001512 C 72.139246 -42.001512 68.109081 -46.027769 68.109081 -51 C 68.109081 -55.972231 72.139246 -59.998488 77.107569 -59.998488 C 82.0798 -59.998488 86.109966 -55.972231 86.109966 -51 Z M 86.109966 -51 " transform="matrix(0.9993,0,0,0.9993,3.997199,105.964292)"/>
<path style="fill:none;stroke-width:0.5;stroke-linecap:butt;stroke-linejoin:miter;stroke:rgb(33.725491%,70.588237%,91.37255%);stroke-opacity:0.501961;stroke-dasharray:5,2;stroke-miterlimit:4;" d="M 90.108859 -51 C 90.108859 -43.819191 84.288378 -37.99871 77.107569 -37.99871 C 69.930669 -37.99871 64.110187 -43.819191 64.110187 -51 C 64.110187 -58.180809 69.930669 -64.00129 77.107569 -64.00129 C 84.288378 -64.00129 90.108859 -58.180809 90.108859 -51 Z M 90.108859 -51 " transform="matrix(0.9993,0,0,0.9993,3.997199,105.964292)"/>
<path style=" stroke:none;fill-rule:nonzero;fill:rgb(25.098041%,25.098041%,25.098041%);fill-opacity:1;" d="M 77.121094 55.035156 C 77.121094 55.519531 77.019531 55.894531 76.8125 56.15625 C 76.605469 56.417969 76.308594 56.546875 75.929688 56.546875 C 75.5625 56.546875 75.273438 56.421875 75.066406 56.167969 C 74.851562 55.914062 74.742188 55.550781 74.734375 55.085938 L 74.734375 54.417969 C 74.734375 53.941406 74.839844 53.570312 75.050781 53.300781 C 75.261719 53.03125 75.550781 52.898438 75.925781 52.898438 C 76.300781 52.898438 76.589844 53.027344 76.800781 53.285156 C 77.007812 53.542969 77.117188 53.910156 77.121094 54.386719 Z M 76.675781 54.414062 C 76.675781 54.039062 76.613281 53.757812 76.488281 53.574219 C 76.367188 53.390625 76.179688 53.300781 75.925781 53.300781 C 75.679688 53.300781 75.492188 53.390625 75.367188 53.578125 C 75.246094 53.761719 75.179688 54.035156 75.179688 54.398438 L 75.179688 55.035156 C 75.179688 55.398438 75.242188 55.675781 75.363281 55.867188 C 75.488281 56.054688 75.679688 56.152344 75.929688 56.152344 C 76.179688 56.152344 76.367188 56.0625 76.488281 55.886719 C 76.605469 55.710938 76.667969 55.441406 76.675781 55.078125 Z M 79.101562 56.269531 C 78.957031 56.457031 78.746094 56.546875 78.472656 56.546875 C 78.234375 56.546875 78.050781 56.464844 77.929688 56.300781 C 77.808594 56.136719 77.746094 55.894531 77.746094 55.578125 L 77.746094 53.859375 L 78.175781 53.859375 L 78.175781 55.546875 C 78.175781 55.960938 78.296875 56.164062 78.546875 56.164062 C 78.808594 56.164062 78.988281 56.046875 79.085938 55.8125 L 79.085938 53.859375 L 79.519531 53.859375 L 79.519531 56.5 L 79.109375 56.5 Z M 80.734375 53.21875 L 80.734375 53.859375 L 81.125 53.859375 L 81.125 54.207031 L 80.734375 54.207031 L 80.734375 55.84375 C 80.734375 55.949219 80.75 56.027344 80.785156 56.082031 C 80.820312 56.136719 80.871094 56.164062 80.957031 56.164062 C 81.011719 56.164062 81.070312 56.152344 81.128906 56.132812 L 81.125 56.5 C 81.027344 56.53125 80.925781 56.546875 80.828125 56.546875 C 80.65625 56.546875 80.527344 56.488281 80.4375 56.367188 C 80.347656 56.242188 80.304688 56.070312 80.304688 55.847656 L 80.304688 54.207031 L 79.898438 54.207031 L 79.898438 53.859375 L 80.304688 53.859375 L 80.304688 53.21875 Z M 83.550781 55.304688 C 83.550781 55.722656 83.476562 56.035156 83.324219 56.242188 C 83.175781 56.445312 82.960938 56.546875 82.6875 56.546875 C 82.421875 56.546875 82.21875 56.449219 82.074219 56.25 L 82.074219 57.515625 L 81.644531 57.515625 L 81.644531 53.859375 L 82.035156 53.859375 L 82.058594 54.152344 C 82.203125 53.921875 82.410156 53.808594 82.679688 53.808594 C 82.96875 53.808594 83.1875 53.910156 83.328125 54.113281 C 83.472656 54.3125 83.546875 54.617188 83.550781 55.019531 Z M 83.121094 55.058594 C 83.121094 54.761719 83.078125 54.542969 82.984375 54.402344 C 82.894531 54.261719 82.746094 54.191406 82.546875 54.191406 C 82.339844 54.191406 82.183594 54.296875 82.074219 54.503906 L 82.074219 55.878906 C 82.179688 56.078125 82.339844 56.179688 82.550781 56.179688 C 82.746094 56.179688 82.890625 56.109375 82.980469 55.96875 C 83.074219 55.828125 83.121094 55.613281 83.121094 55.324219 Z M 85.457031 56.269531 C 85.3125 56.457031 85.101562 56.546875 84.828125 56.546875 C 84.589844 56.546875 84.40625 56.464844 84.285156 56.300781 C 84.164062 56.136719 84.101562 55.894531 84.101562 55.578125 L 84.101562 53.859375 L 84.53125 53.859375 L 84.53125 55.546875 C 84.53125 55.960938 84.652344 56.164062 84.902344 56.164062 C 85.164062 56.164062 85.34375 56.046875 85.441406 55.8125 L 85.441406 53.859375 L 85.875 53.859375 L 85.875 56.5 L 85.464844 56.5 Z M 87.089844 53.21875 L 87.089844 53.859375 L 87.484375 53.859375 L 87.484375 54.207031 L 87.089844 54.207031 L 87.089844 55.84375 C 87.089844 55.949219 87.105469 56.027344 87.140625 56.082031 C 87.175781 56.136719 87.230469 56.164062 87.316406 56.164062 C 87.371094 56.164062 87.429688 56.152344 87.488281 56.132812 L 87.484375 56.5 C 87.386719 56.53125 87.285156 56.546875 87.183594 56.546875 C 87.011719 56.546875 86.882812 56.488281 86.792969 56.367188 C 86.703125 56.242188 86.660156 56.070312 86.660156 55.847656 L 86.660156 54.207031 L 86.257812 54.207031 L 86.257812 53.859375 L 86.660156 53.859375 L 86.660156 53.21875 Z M 74.429688 51.867188 "/>
<path style="fill:none;stroke-width:0.5;stroke-linecap:butt;stroke-linejoin:miter;stroke:rgb(32.941177%,32.941177%,32.941177%);stroke-opacity:1;stroke-miterlimit:4;" d="M 20.470258 -85.270088 C 31.904044 -78.351181 51.194895 -66.678946 64.039826 -58.90788 " transform="matrix(0.9993,0,0,0.9993,3.997199,105.964292)"/>
<path style="fill-rule:nonzero;fill:rgb(32.941177%,32.941177%,32.941177%);fill-opacity:1;stroke-width:0.5;stroke-linecap:butt;stroke-linejoin:miter;stroke:rgb(32.941177%,32.941177%,32.941177%);stroke-opacity:1;stroke-miterlimit:4;" d="M 66.0295 -58.309805 C 66.0295 -57.754729 65.583875 -57.309105 65.028799 -57.309105 C 64.477632 -57.309105 64.028099 -57.754729 64.028099 -58.309805 C 64.028099 -58.860973 64.477632 -59.310506 65.028799 -59.310506 C 65.583875 -59.310506 66.0295 -58.860973 66.0295 -58.309805 Z M 66.0295 -58.309805 " transform="matrix(0.9993,0,0,0.9993,3.997199,105.964292)"/>
<path style=" stroke:none;fill-rule:nonzero;fill:rgb(25.098041%,25.098041%,25.098041%);fill-opacity:1;" d="M 46.292969 28.328125 C 46.195312 28.339844 46.121094 28.355469 46.074219 28.375 C 46.027344 28.398438 46.003906 28.441406 46.003906 28.503906 C 46.003906 28.539062 46.011719 28.574219 46.019531 28.609375 C 46.03125 28.644531 46.046875 28.6875 46.0625 28.738281 L 46.507812 29.898438 L 46.941406 28.835938 C 46.960938 28.792969 46.984375 28.730469 47.007812 28.65625 C 47.03125 28.582031 47.039062 28.527344 47.039062 28.492188 C 47.039062 28.429688 47.019531 28.390625 46.984375 28.367188 C 46.945312 28.347656 46.890625 28.332031 46.820312 28.324219 L 46.820312 28.25 L 47.4375 28.25 L 47.4375 28.324219 C 47.394531 28.332031 47.367188 28.351562 47.339844 28.378906 C 47.3125 28.410156 47.277344 28.484375 47.230469 28.601562 L 46.449219 30.523438 C 46.441406 30.539062 46.4375 30.546875 46.433594 30.554688 C 46.429688 30.5625 46.421875 30.5625 46.410156 30.5625 C 46.390625 30.554688 46.378906 30.546875 46.375 30.539062 L 45.824219 29.179688 L 45.183594 30.535156 C 45.179688 30.542969 45.175781 30.550781 45.167969 30.554688 C 45.164062 30.5625 45.15625 30.5625 45.148438 30.5625 C 45.128906 30.554688 45.117188 30.546875 45.113281 30.539062 L 44.382812 28.746094 C 44.304688 28.546875 44.25 28.433594 44.226562 28.398438 C 44.199219 28.363281 44.148438 28.339844 44.070312 28.328125 L 44.070312 28.25 L 44.976562 28.25 L 44.976562 28.328125 C 44.898438 28.332031 44.84375 28.347656 44.800781 28.367188 C 44.761719 28.386719 44.742188 28.429688 44.742188 28.496094 C 44.742188 28.542969 44.777344 28.660156 44.84375 28.84375 C 44.882812 28.949219 44.929688 29.078125 44.992188 29.230469 L 45.269531 29.921875 L 45.710938 28.980469 L 45.714844 28.953125 C 45.714844 28.917969 45.695312 28.859375 45.660156 28.769531 C 45.625 28.679688 45.59375 28.601562 45.5625 28.53125 C 45.527344 28.457031 45.492188 28.40625 45.449219 28.378906 C 45.40625 28.351562 45.351562 28.332031 45.273438 28.328125 L 45.273438 28.25 L 46.292969 28.25 Z M 43.96875 26.769531 "/>
<path style=" stroke:none;fill-rule:nonzero;fill:rgb(25.098041%,25.098041%,25.098041%);fill-opacity:1;" d="M 49.054688 28.164062 C 49.058594 28.171875 49.0625 28.179688 49.066406 28.183594 C 49.066406 28.1875 49.066406 28.195312 49.066406 28.210938 L 49.066406 31.148438 C 49.066406 31.273438 49.097656 31.351562 49.167969 31.386719 C 49.234375 31.421875 49.355469 31.441406 49.539062 31.445312 L 49.539062 31.515625 L 48.164062 31.515625 L 48.164062 31.441406 C 48.359375 31.433594 48.488281 31.40625 48.546875 31.363281 C 48.609375 31.320312 48.636719 31.222656 48.636719 31.078125 L 48.636719 28.820312 C 48.636719 28.742188 48.628906 28.683594 48.609375 28.640625 C 48.589844 28.601562 48.546875 28.582031 48.480469 28.582031 C 48.441406 28.582031 48.386719 28.59375 48.316406 28.617188 C 48.25 28.640625 48.1875 28.664062 48.128906 28.691406 L 48.128906 28.621094 L 49.023438 28.164062 Z M 47.574219 27.769531 "/>
<path style="fill:none;stroke-width:0.5;stroke-linecap:butt;stroke-linejoin:miter;stroke:rgb(49.803922%,49.803922%,49.803922%);stroke-opacity:1;stroke-miterlimit:4;" d="M 21.998672 -51 C 21.998672 -44.925434 17.073348 -40.000111 10.998783 -40.000111 C 4.924217 -40.000111 -0.00110642 -44.925434 -0.00110642 -51 C -0.00110642 -57.074566 4.924217 -61.999889 10.998783 -61.999889 C 17.073348 -61.999889 21.998672 -57.074566 21.998672 -51 Z M 21.998672 -51 " transform="matrix(0.9993,0,0,0.9993,3.997199,105.964292)"/>
<path style=" stroke:none;fill-rule:nonzero;fill:rgb(25.098041%,25.098041%,25.098041%);fill-opacity:1;" d="M 12.984375 53.167969 L 13.789062 51.539062 L 14.414062 51.539062 L 13.308594 53.652344 L 14.4375 55.800781 L 13.804688 55.800781 L 12.984375 54.136719 L 12.164062 55.800781 L 11.527344 55.800781 L 12.667969 53.652344 L 11.550781 51.539062 L 12.179688 51.539062 Z M 11.328125 50.238281 "/>
<path style=" stroke:none;fill-rule:nonzero;fill:rgb(25.098041%,25.098041%,25.098041%);fill-opacity:1;" d="M 18.378906 57 L 15.996094 57 L 15.996094 56.609375 L 17.210938 55 C 17.394531 54.75 17.523438 54.546875 17.59375 54.386719 C 17.664062 54.226562 17.699219 54.0625 17.699219 53.882812 C 17.699219 53.65625 17.648438 53.472656 17.542969 53.332031 C 17.4375 53.191406 17.296875 53.121094 17.125 53.121094 C 16.910156 53.121094 16.742188 53.195312 16.625 53.34375 C 16.503906 53.492188 16.445312 53.710938 16.445312 53.992188 L 15.925781 53.992188 C 15.925781 53.597656 16.035156 53.28125 16.25 53.039062 C 16.464844 52.796875 16.757812 52.675781 17.125 52.675781 C 17.464844 52.675781 17.734375 52.78125 17.929688 52.988281 C 18.125 53.195312 18.222656 53.472656 18.222656 53.820312 C 18.222656 54.242188 18.003906 54.738281 17.5625 55.316406 L 16.613281 56.558594 L 18.378906 56.558594 Z M 15.652344 51.4375 "/>
<path style="fill:none;stroke-width:0.5;stroke-linecap:butt;stroke-linejoin:miter;stroke:rgb(32.941177%,32.941177%,32.941177%);stroke-opacity:1;stroke-miterlimit:4;" d="M 22.213666 -51 C 33.08065 -51 49.643027 -51 61.733523 -51 " transform="matrix(0.9993,0,0,0.9993,3.997199,105.964292)"/>
<path style="fill-rule:nonzero;fill:rgb(32.941177%,32.941177%,32.941177%);fill-opacity:1;stroke-width:0.5;stroke-linecap:butt;stroke-linejoin:miter;stroke:rgb(32.941177%,32.941177%,32.941177%);stroke-opacity:1;stroke-miterlimit:4;" d="M 63.785741 -51 C 63.785741 -50.448833 63.340117 -49.999299 62.785041 -49.999299 C 62.233874 -49.999299 61.78434 -50.448833 61.78434 -51 C 61.78434 -51.551167 62.233874 -52.000701 62.785041 -52.000701 C 63.340117 -52.000701 63.785741 -51.551167 63.785741 -51 Z M 63.785741 -51 " transform="matrix(0.9993,0,0,0.9993,3.997199,105.964292)"/>
<path style=" stroke:none;fill-rule:nonzero;fill:rgb(25.098041%,25.098041%,25.098041%);fill-opacity:1;" d="M 46.292969 50.3125 C 46.195312 50.324219 46.121094 50.339844 46.074219 50.359375 C 46.027344 50.382812 46.003906 50.425781 46.003906 50.488281 C 46.003906 50.523438 46.011719 50.558594 46.019531 50.59375 C 46.03125 50.628906 46.046875 50.671875 46.0625 50.722656 L 46.507812 51.882812 L 46.941406 50.820312 C 46.960938 50.777344 46.984375 50.714844 47.007812 50.640625 C 47.03125 50.566406 47.039062 50.511719 47.039062 50.476562 C 47.039062 50.414062 47.019531 50.375 46.984375 50.351562 C 46.945312 50.332031 46.890625 50.316406 46.820312 50.308594 L 46.820312 50.234375 L 47.4375 50.234375 L 47.4375 50.308594 C 47.394531 50.316406 47.367188 50.335938 47.339844 50.363281 C 47.3125 50.394531 47.277344 50.46875 47.230469 50.585938 L 46.449219 52.507812 C 46.441406 52.523438 46.4375 52.53125 46.433594 52.539062 C 46.429688 52.546875 46.421875 52.546875 46.410156 52.546875 C 46.390625 52.539062 46.378906 52.53125 46.375 52.523438 L 45.824219 51.164062 L 45.183594 52.519531 C 45.179688 52.527344 45.175781 52.535156 45.167969 52.539062 C 45.164062 52.546875 45.15625 52.546875 45.148438 52.546875 C 45.128906 52.539062 45.117188 52.53125 45.113281 52.523438 L 44.382812 50.730469 C 44.304688 50.53125 44.25 50.417969 44.226562 50.382812 C 44.199219 50.347656 44.148438 50.324219 44.070312 50.3125 L 44.070312 50.234375 L 44.976562 50.234375 L 44.976562 50.3125 C 44.898438 50.316406 44.84375 50.332031 44.800781 50.351562 C 44.761719 50.371094 44.742188 50.414062 44.742188 50.480469 C 44.742188 50.527344 44.777344 50.644531 44.84375 50.828125 C 44.882812 50.933594 44.929688 51.0625 44.992188 51.214844 L 45.269531 51.910156 L 45.710938 50.964844 L 45.714844 50.9375 C 45.714844 50.902344 45.695312 50.84375 45.660156 50.753906 C 45.625 50.664062 45.59375 50.585938 45.5625 50.515625 C 45.527344 50.441406 45.492188 50.390625 45.449219 50.363281 C 45.40625 50.335938 45.351562 50.316406 45.273438 50.3125 L 45.273438 50.234375 L 46.292969 50.234375 Z M 43.96875 48.753906 "/>
<path style=" stroke:none;fill-rule:nonzero;fill:rgb(25.098041%,25.098041%,25.098041%);fill-opacity:1;" d="M 47.722656 53.445312 C 48.320312 52.824219 48.722656 52.371094 48.9375 52.085938 C 49.148438 51.796875 49.257812 51.511719 49.257812 51.238281 C 49.257812 50.996094 49.191406 50.8125 49.0625 50.6875 C 48.929688 50.5625 48.777344 50.5 48.59375 50.5 C 48.371094 50.5 48.191406 50.578125 48.050781 50.742188 C 47.976562 50.832031 47.902344 50.96875 47.832031 51.15625 L 47.726562 51.132812 C 47.808594 50.757812 47.949219 50.5 48.140625 50.351562 C 48.335938 50.207031 48.546875 50.136719 48.769531 50.136719 C 49.042969 50.136719 49.265625 50.222656 49.4375 50.394531 C 49.605469 50.566406 49.691406 50.78125 49.691406 51.03125 C 49.691406 51.296875 49.597656 51.554688 49.414062 51.800781 C 49.230469 52.050781 48.832031 52.484375 48.214844 53.117188 L 49.335938 53.117188 C 49.492188 53.117188 49.601562 53.101562 49.667969 53.0625 C 49.730469 53.023438 49.800781 52.933594 49.882812 52.789062 L 49.945312 52.820312 L 49.675781 53.5 L 47.722656 53.5 Z M 47.574219 49.753906 "/>
<path style="fill:none;stroke-width:0.5;stroke-linecap:butt;stroke-linejoin:miter;stroke:rgb(49.803922%,49.803922%,49.803922%);stroke-opacity:1;stroke-miterlimit:4;" d="M 21.998672 -10.999337 C 21.998672 -4.924772 17.073348 0.0005518 10.998783 0.0005518 C 4.924217 0.0005518 -0.00110642 -4.924772 -0.00110642 -10.999337 C -0.00110642 -17.073903 4.924217 -21.999226 10.998783 -21.999226 C 17.073348 -21.999226 21.998672 -17.073903 21.998672 -10.999337 Z M 21.998672 -10.999337 " transform="matrix(0.9993,0,0,0.9993,3.997199,105.964292)"/>
<path style=" stroke:none;fill-rule:nonzero;fill:rgb(25.098041%,25.098041%,25.098041%);fill-opacity:1;" d="M 12.984375 93.140625 L 13.789062 91.507812 L 14.414062 91.507812 L 13.308594 93.625 L 14.4375 95.773438 L 13.804688 95.773438 L 12.984375 94.109375 L 12.164062 95.773438 L 11.527344 95.773438 L 12.667969 93.625 L 11.550781 91.507812 L 12.179688 91.507812 Z M 11.328125 90.210938 "/>
<path style=" stroke:none;fill-rule:nonzero;fill:rgb(25.098041%,25.098041%,25.098041%);fill-opacity:1;" d="M 16.65625 94.574219 L 16.988281 94.574219 C 17.199219 94.574219 17.363281 94.511719 17.480469 94.378906 C 17.597656 94.25 17.652344 94.070312 17.652344 93.84375 C 17.652344 93.34375 17.460938 93.09375 17.074219 93.09375 C 16.886719 93.09375 16.742188 93.160156 16.636719 93.296875 C 16.53125 93.429688 16.480469 93.605469 16.480469 93.824219 L 15.964844 93.824219 C 15.964844 93.484375 16.066406 93.203125 16.273438 92.980469 C 16.480469 92.757812 16.75 92.648438 17.074219 92.648438 C 17.410156 92.648438 17.675781 92.753906 17.871094 92.964844 C 18.070312 93.175781 18.167969 93.472656 18.167969 93.855469 C 18.167969 94.050781 18.117188 94.238281 18.015625 94.40625 C 17.914062 94.578125 17.777344 94.703125 17.613281 94.785156 C 18.015625 94.933594 18.21875 95.265625 18.21875 95.785156 C 18.21875 96.164062 18.113281 96.46875 17.902344 96.691406 C 17.691406 96.914062 17.410156 97.027344 17.070312 97.027344 C 16.730469 97.027344 16.460938 96.921875 16.25 96.710938 C 16.042969 96.496094 15.941406 96.207031 15.941406 95.847656 L 16.457031 95.847656 C 16.457031 96.074219 16.511719 96.253906 16.621094 96.386719 C 16.730469 96.519531 16.878906 96.589844 17.070312 96.589844 C 17.261719 96.589844 17.417969 96.523438 17.53125 96.394531 C 17.644531 96.261719 17.703125 96.0625 17.703125 95.792969 C 17.703125 95.277344 17.457031 95.019531 16.96875 95.019531 L 16.65625 95.019531 Z M 15.652344 91.40625 "/>
<path style="fill:none;stroke-width:0.5;stroke-linecap:butt;stroke-linejoin:miter;stroke:rgb(32.941177%,32.941177%,32.941177%);stroke-opacity:1;stroke-miterlimit:4;" d="M 20.470258 -16.729912 C 31.904044 -23.648819 51.194895 -35.321054 64.039826 -43.09212 " transform="matrix(0.9993,0,0,0.9993,3.997199,105.964292)"/>
<path style="fill-rule:nonzero;fill:rgb(32.941177%,32.941177%,32.941177%);fill-opacity:1;stroke-width:0.5;stroke-linecap:butt;stroke-linejoin:miter;stroke:rgb(32.941177%,32.941177%,32.941177%);stroke-opacity:1;stroke-miterlimit:4;" d="M 66.0295 -43.690195 C 66.0295 -43.139027 65.583875 -42.689494 65.028799 -42.689494 C 64.477632 -42.689494 64.028099 -43.139027 64.028099 -43.690195 C 64.028099 -44.245271 64.477632 -44.690895 65.028799 -44.690895 C 65.583875 -44.690895 66.0295 -44.245271 66.0295 -43.690195 Z M 66.0295 -43.690195 " transform="matrix(0.9993,0,0,0.9993,3.997199,105.964292)"/>
<path style=" stroke:none;fill-rule:nonzero;fill:rgb(25.098041%,25.098041%,25.098041%);fill-opacity:1;" d="M 46.292969 69.296875 C 46.195312 69.308594 46.121094 69.324219 46.074219 69.34375 C 46.027344 69.367188 46.003906 69.410156 46.003906 69.472656 C 46.003906 69.507812 46.011719 69.542969 46.019531 69.578125 C 46.03125 69.613281 46.046875 69.65625 46.0625 69.707031 L 46.507812 70.867188 L 46.941406 69.804688 C 46.960938 69.761719 46.984375 69.699219 47.007812 69.625 C 47.03125 69.550781 47.039062 69.496094 47.039062 69.460938 C 47.039062 69.398438 47.019531 69.359375 46.984375 69.335938 C 46.945312 69.316406 46.890625 69.300781 46.820312 69.292969 L 46.820312 69.21875 L 47.4375 69.21875 L 47.4375 69.292969 C 47.394531 69.300781 47.367188 69.320312 47.339844 69.347656 C 47.3125 69.378906 47.277344 69.453125 47.230469 69.570312 L 46.449219 71.496094 C 46.441406 71.511719 46.4375 71.519531 46.433594 71.527344 C 46.429688 71.535156 46.421875 71.535156 46.410156 71.535156 C 46.390625 71.527344 46.378906 71.519531 46.375 71.511719 L 45.824219 70.148438 L 45.183594 71.507812 C 45.179688 71.515625 45.175781 71.523438 45.167969 71.527344 C 45.164062 71.535156 45.15625 71.535156 45.148438 71.535156 C 45.128906 71.527344 45.117188 71.519531 45.113281 71.511719 L 44.382812 69.714844 C 44.304688 69.515625 44.25 69.402344 44.226562 69.367188 C 44.199219 69.332031 44.148438 69.308594 44.070312 69.296875 L 44.070312 69.21875 L 44.976562 69.21875 L 44.976562 69.296875 C 44.898438 69.300781 44.84375 69.316406 44.800781 69.335938 C 44.761719 69.355469 44.742188 69.398438 44.742188 69.464844 C 44.742188 69.511719 44.777344 69.628906 44.84375 69.8125 C 44.882812 69.917969 44.929688 70.046875 44.992188 70.199219 L 45.269531 70.894531 L 45.710938 69.949219 L 45.714844 69.921875 C 45.714844 69.886719 45.695312 69.828125 45.660156 69.738281 C 45.625 69.648438 45.59375 69.570312 45.5625 69.5 C 45.527344 69.425781 45.492188 69.375 45.449219 69.347656 C 45.40625 69.320312 45.351562 69.300781 45.273438 69.296875 L 45.273438 69.21875 L 46.292969 69.21875 Z M 43.96875 67.742188 "/>
<path style=" stroke:none;fill-rule:nonzero;fill:rgb(25.098041%,25.098041%,25.098041%);fill-opacity:1;" d="M 47.960938 72.0625 C 48.050781 72.0625 48.171875 72.109375 48.316406 72.203125 C 48.464844 72.296875 48.589844 72.339844 48.691406 72.339844 C 48.917969 72.339844 49.089844 72.265625 49.199219 72.109375 C 49.308594 71.957031 49.367188 71.789062 49.367188 71.609375 C 49.367188 71.433594 49.320312 71.28125 49.230469 71.152344 C 49.082031 70.929688 48.824219 70.816406 48.464844 70.816406 C 48.445312 70.816406 48.425781 70.816406 48.402344 70.816406 C 48.382812 70.816406 48.363281 70.820312 48.335938 70.824219 L 48.332031 70.761719 C 48.589844 70.667969 48.796875 70.558594 48.945312 70.433594 C 49.097656 70.3125 49.171875 70.152344 49.171875 69.953125 C 49.171875 69.773438 49.113281 69.640625 48.992188 69.546875 C 48.875 69.453125 48.742188 69.40625 48.589844 69.40625 C 48.410156 69.40625 48.253906 69.472656 48.117188 69.605469 C 48.042969 69.675781 47.960938 69.789062 47.875 69.9375 L 47.800781 69.917969 C 47.863281 69.671875 47.984375 69.476562 48.164062 69.328125 C 48.339844 69.179688 48.546875 69.105469 48.777344 69.105469 C 49.027344 69.105469 49.21875 69.171875 49.355469 69.308594 C 49.492188 69.445312 49.558594 69.605469 49.558594 69.785156 C 49.558594 69.941406 49.503906 70.085938 49.390625 70.21875 C 49.328125 70.292969 49.230469 70.375 49.09375 70.46875 C 49.25 70.535156 49.375 70.613281 49.472656 70.703125 C 49.648438 70.875 49.738281 71.089844 49.738281 71.351562 C 49.738281 71.660156 49.617188 71.933594 49.371094 72.171875 C 49.128906 72.40625 48.78125 72.523438 48.332031 72.523438 C 48.132812 72.523438 47.992188 72.496094 47.914062 72.4375 C 47.832031 72.378906 47.792969 72.3125 47.792969 72.246094 C 47.792969 72.203125 47.804688 72.160156 47.832031 72.121094 C 47.859375 72.082031 47.902344 72.0625 47.960938 72.0625 Z M 47.574219 68.742188 "/>
<path style="fill:none;stroke-width:0.5;stroke-linecap:butt;stroke-linejoin:miter;stroke:rgb(0%,0%,0%);stroke-opacity:1;stroke-miterlimit:4;" d="M 141.777848 -61.999889 C 141.777848 -61.999889 134.444588 -61.999889 134.444588 -61.999889 C 130.777959 -61.999889 127.111329 -58.333259 127.111329 -54.66663 C 127.111329 -54.66663 127.111329 -47.33337 127.111329 -47.33337 C 127.111329 -43.666741 130.777959 -40.000111 134.444588 -40.000111 C 134.444588 -40.000111 141.777848 -40.000111 141.777848 -40.000111 C 145.444477 -40.000111 149.111107 -43.666741 149.111107 -47.33337 C 149.111107 -47.33337 149.111107 -54.66663 149.111107 -54.66663 C 149.111107 -58.333259 145.444477 -61.999889 141.777848 -61.999889 " transform="matrix(0.9993,0,0,0.9993,3.997199,105.964292)"/>
<path style=" stroke:none;fill-rule:nonzero;fill:rgb(25.098041%,25.098041%,25.098041%);fill-opacity:1;" d="M 137.476562 52.996094 L 136.359375 52.996094 L 136.359375 56.800781 L 135.824219 56.800781 L 135.824219 52.996094 L 134.703125 52.996094 L 134.703125 52.535156 L 137.476562 52.535156 Z M 139.335938 56.800781 C 139.304688 56.730469 139.28125 56.617188 139.269531 56.457031 C 139.085938 56.726562 138.847656 56.859375 138.566406 56.859375 C 138.277344 56.859375 138.054688 56.777344 137.890625 56.617188 C 137.730469 56.457031 137.652344 56.230469 137.652344 55.9375 C 137.652344 55.613281 137.761719 55.359375 137.980469 55.167969 C 138.199219 54.980469 138.496094 54.882812 138.878906 54.878906 L 139.257812 54.878906 L 139.257812 54.542969 C 139.257812 54.351562 139.214844 54.21875 139.132812 54.136719 C 139.050781 54.058594 138.921875 54.019531 138.75 54.019531 C 138.59375 54.019531 138.464844 54.0625 138.367188 54.15625 C 138.269531 54.25 138.222656 54.367188 138.222656 54.511719 L 137.703125 54.511719 C 137.703125 54.347656 137.75 54.191406 137.847656 54.046875 C 137.941406 53.898438 138.070312 53.78125 138.234375 53.699219 C 138.394531 53.613281 138.574219 53.574219 138.777344 53.574219 C 139.101562 53.574219 139.347656 53.652344 139.515625 53.8125 C 139.683594 53.972656 139.769531 54.210938 139.773438 54.519531 L 139.773438 56.117188 C 139.777344 56.363281 139.808594 56.574219 139.875 56.753906 L 139.875 56.800781 Z M 138.644531 56.386719 C 138.769531 56.386719 138.890625 56.351562 139.007812 56.28125 C 139.121094 56.210938 139.207031 56.125 139.257812 56.019531 L 139.257812 55.261719 L 138.964844 55.261719 C 138.71875 55.265625 138.527344 55.320312 138.382812 55.429688 C 138.238281 55.535156 138.167969 55.683594 138.167969 55.875 C 138.167969 56.054688 138.207031 56.183594 138.277344 56.265625 C 138.347656 56.347656 138.472656 56.386719 138.644531 56.386719 Z M 141.886719 54.117188 C 141.816406 54.105469 141.738281 54.097656 141.652344 54.097656 C 141.386719 54.097656 141.203125 54.242188 141.097656 54.535156 L 141.097656 56.800781 L 140.578125 56.800781 L 140.578125 53.628906 L 141.082031 53.628906 L 141.089844 53.953125 C 141.230469 53.699219 141.425781 53.574219 141.679688 53.574219 C 141.761719 53.574219 141.832031 53.585938 141.886719 53.613281 Z M 142.238281 55.074219 C 142.238281 54.578125 142.328125 54.203125 142.507812 53.953125 C 142.6875 53.699219 142.949219 53.574219 143.296875 53.574219 C 143.617188 53.574219 143.863281 53.710938 144.03125 53.984375 L 144.054688 53.628906 L 144.523438 53.628906 L 144.523438 56.832031 C 144.523438 57.222656 144.425781 57.523438 144.222656 57.734375 C 144.023438 57.941406 143.742188 58.046875 143.382812 58.046875 C 143.226562 58.046875 143.050781 58.007812 142.855469 57.929688 C 142.664062 57.851562 142.515625 57.761719 142.417969 57.648438 L 142.628906 57.289062 C 142.84375 57.5 143.082031 57.605469 143.34375 57.605469 C 143.773438 57.605469 143.996094 57.371094 144.007812 56.902344 L 144.007812 56.488281 C 143.839844 56.734375 143.601562 56.859375 143.292969 56.859375 C 142.964844 56.859375 142.707031 56.734375 142.523438 56.488281 C 142.339844 56.242188 142.246094 55.886719 142.238281 55.425781 Z M 142.757812 55.367188 C 142.757812 55.722656 142.808594 55.984375 142.914062 56.152344 C 143.015625 56.320312 143.1875 56.402344 143.425781 56.402344 C 143.683594 56.402344 143.878906 56.269531 144.007812 56.007812 L 144.007812 54.421875 C 143.871094 54.160156 143.679688 54.03125 143.433594 54.03125 C 143.195312 54.03125 143.023438 54.117188 142.917969 54.28125 C 142.8125 54.449219 142.757812 54.707031 142.757812 55.050781 Z M 146.429688 56.859375 C 146.035156 56.859375 145.734375 56.742188 145.523438 56.507812 C 145.3125 56.269531 145.203125 55.925781 145.199219 55.472656 L 145.199219 55.085938 C 145.199219 54.613281 145.304688 54.242188 145.507812 53.976562 C 145.714844 53.707031 146.003906 53.574219 146.371094 53.574219 C 146.742188 53.574219 147.019531 53.691406 147.203125 53.925781 C 147.386719 54.164062 147.480469 54.53125 147.484375 55.03125 L 147.484375 55.371094 L 145.714844 55.371094 L 145.714844 55.445312 C 145.714844 55.785156 145.78125 56.03125 145.90625 56.183594 C 146.035156 56.339844 146.21875 56.417969 146.460938 56.417969 C 146.613281 56.417969 146.746094 56.386719 146.863281 56.332031 C 146.980469 56.273438 147.089844 56.183594 147.191406 56.058594 L 147.457031 56.386719 C 147.234375 56.703125 146.890625 56.859375 146.429688 56.859375 Z M 146.371094 54.019531 C 146.15625 54.019531 145.996094 54.089844 145.894531 54.238281 C 145.792969 54.386719 145.730469 54.613281 145.71875 54.925781 L 146.964844 54.925781 L 146.964844 54.855469 C 146.953125 54.554688 146.898438 54.339844 146.804688 54.210938 C 146.710938 54.082031 146.566406 54.019531 146.371094 54.019531 Z M 148.78125 52.863281 L 148.78125 53.628906 L 149.257812 53.628906 L 149.257812 54.050781 L 148.78125 54.050781 L 148.78125 56.015625 C 148.78125 56.140625 148.800781 56.234375 148.84375 56.300781 C 148.882812 56.363281 148.953125 56.394531 149.054688 56.394531 C 149.121094 56.394531 149.191406 56.386719 149.261719 56.363281 L 149.253906 56.800781 C 149.136719 56.839844 149.019531 56.859375 148.894531 56.859375 C 148.691406 56.859375 148.535156 56.785156 148.425781 56.640625 C 148.320312 56.492188 148.265625 56.285156 148.265625 56.019531 L 148.265625 54.050781 L 147.78125 54.050781 L 147.78125 53.628906 L 148.265625 53.628906 L 148.265625 52.863281 Z M 134.527344 51.238281 "/>
<path style="fill:none;stroke-width:1;stroke-linecap:butt;stroke-linejoin:miter;stroke:rgb(25.098041%,25.098041%,25.098041%);stroke-opacity:1;stroke-miterlimit:4;" d="M 90.347307 -51 C 99.912598 -51 112.855254 -51 122.854442 -51 " transform="matrix(0.9993,0,0,0.9993,3.997199,105.964292)"/>
<path style="fill-rule:nonzero;fill:rgb(25.098041%,25.098041%,25.098041%);fill-opacity:1;stroke-width:1;stroke-linecap:butt;stroke-linejoin:miter;stroke:rgb(25.098041%,25.098041%,25.098041%);stroke-opacity:1;stroke-miterlimit:4;" d="M 126.943242 -51 C 126.943242 -49.893757 126.048084 -48.998599 124.941841 -48.998599 C 123.839507 -48.998599 122.944349 -49.893757 122.944349 -51 C 122.944349 -52.106243 123.839507 -53.001401 124.941841 -53.001401 C 126.048084 -53.001401 126.943242 -52.106243 126.943242 -51 Z M 126.943242 -51 " transform="matrix(0.9993,0,0,0.9993,3.997199,105.964292)"/>
</g>
</svg>
