<?xml version="1.0" encoding="UTF-8"?>
<svg xmlns="http://www.w3.org/2000/svg" xmlns:xlink="http://www.w3.org/1999/xlink" width="139pt" height="210pt" viewBox="0 0 139 210" version="1.1">
<g id="surface41">
<path style="fill:none;stroke-width:1;stroke-linecap:butt;stroke-linejoin:miter;stroke:rgb(33.725491%,70.588237%,91.37255%);stroke-opacity:0.501961;stroke-dasharray:5,2;stroke-miterlimit:4;" d="M 22 -101 C 22 -96.03125 17.96875 -92 13 -92 C 8.03125 -92 4 -96.03125 4 -101 C 4 -105.96875 8.03125 -110 13 -110 C 17.96875 -110 22 -105.96875 22 -101 Z M 22 -101 " transform="matrix(1,0,0,1,4,206)"/>
<path style="fill:none;stroke-width:1;stroke-linecap:butt;stroke-linejoin:miter;stroke:rgb(33.725491%,70.588237%,91.37255%);stroke-opacity:0.501961;stroke-dasharray:5,2;stroke-miterlimit:4;" d="M 26 -101 C 26 -93.820312 20.179688 -88 13 -88 C 5.820312 -88 0 -93.820312 0 -101 C 0 -108.179688 5.820312 -114 13 -114 C 20.179688 -114 26 -108.179688 26 -101 Z M 26 -101 " transform="matrix(1,0,0,1,4,206)"/>
<path style=" stroke:none;fill-rule:nonzero;fill:rgb(0%,0%,0%);fill-opacity:1;" d="M 15.085938 105.800781 L 14.546875 105.800781 L 14.546875 103.828125 L 12.832031 103.828125 L 12.832031 105.800781 L 12.296875 105.800781 L 12.296875 101.535156 L 12.832031 101.535156 L 12.832031 103.371094 L 14.546875 103.371094 L 14.546875 101.535156 L 15.085938 101.535156 Z M 11.835938 100.234375 "/>
<path style=" stroke:none;fill-rule:nonzero;fill:rgb(0%,0%,0%);fill-opacity:1;" d="M 18.050781 107 L 17.53125 107 L 17.53125 103.386719 L 16.632812 103.789062 L 16.632812 103.296875 L 17.96875 102.714844 L 18.050781 102.714844 Z M 21.011719 107 L 20.492188 107 L 20.492188 103.386719 L 19.59375 103.789062 L 19.59375 103.296875 L 20.929688 102.714844 L 21.011719 102.714844 Z M 16.164062 101.433594 "/>
<path style="fill:none;stroke-width:0.25;stroke-linecap:butt;stroke-linejoin:miter;stroke:rgb(100%,54.901963%,0%);stroke-opacity:1;stroke-miterlimit:4;" d="M 65.5 -104.5 L 62 -101 L 65.5 -97.5 L 69 -101 Z M 65.5 -104.5 " transform="matrix(1,0,0,1,4,206)"/>
<path style="fill:none;stroke-width:0.25;stroke-linecap:butt;stroke-linejoin:miter;stroke:rgb(100%,54.901963%,0%);stroke-opacity:1;stroke-miterlimit:4;" d="M 63.167969 -102.167969 L 63.167969 -99.832031 " transform="matrix(1,0,0,1,4,206)"/>
<path style="fill:none;stroke-width:0.25;stroke-linecap:butt;stroke-linejoin:miter;stroke:rgb(100%,54.901963%,0%);stroke-opacity:1;stroke-miterlimit:4;" d="M 64.332031 -98.667969 L 66.667969 -98.667969 " transform="matrix(1,0,0,1,4,206)"/>
<path style="fill:none;stroke-width:0.25;stroke-linecap:butt;stroke-linejoin:miter;stroke:rgb(100%,54.901963%,0%);stroke-opacity:1;stroke-miterlimit:4;" d="M 67.832031 -99.832031 L 67.832031 -102.167969 " transform="matrix(1,0,0,1,4,206)"/>
<path style="fill:none;stroke-width:0.25;stroke-linecap:butt;stroke-linejoin:miter;stroke:rgb(100%,54.901963%,0%);stroke-opacity:1;stroke-miterlimit:4;" d="M 66.667969 -103.332031 L 64.332031 -103.332031 " transform="matrix(1,0,0,1,4,206)"/>
<path style="fill:none;stroke-width:1;stroke-linecap:butt;stroke-linejoin:miter;stroke:rgb(94.901961%,94.901961%,94.901961%);stroke-opacity:1;stroke-miterlimit:4;" d="M 26.246094 -101 C 37.914062 -101 54.160156 -101 61.554688 -101 " transform="matrix(1,0,0,1,4,206)"/>
<path style="fill:none;stroke-width:1;stroke-linecap:butt;stroke-linejoin:miter;stroke:rgb(100%,93.725491%,83.529413%);stroke-opacity:1;stroke-dasharray:5,2;stroke-miterlimit:4;" d="M 127 -189 C 127 -184.03125 122.96875 -180 118 -180 C 113.03125 -180 109 -184.03125 109 -189 C 109 -193.96875 113.03125 -198 118 -198 C 122.96875 -198 127 -193.96875 127 -189 Z M 127 -189 " transform="matrix(1,0,0,1,4,206)"/>
<path style="fill:none;stroke-width:1;stroke-linecap:butt;stroke-linejoin:miter;stroke:rgb(100%,93.725491%,83.529413%);stroke-opacity:1;stroke-dasharray:5,2;stroke-miterlimit:4;" d="M 131 -189 C 131 -181.820312 125.179688 -176 118 -176 C 110.820312 -176 105 -181.820312 105 -189 C 105 -196.179688 110.820312 -202 118 -202 C 125.179688 -202 131 -196.179688 131 -189 Z M 131 -189 " transform="matrix(1,0,0,1,4,206)"/>
<path style=" stroke:none;fill-rule:nonzero;fill:rgb(0%,0%,0%);fill-opacity:1;" d="M 120.40625 17.5 L 119.957031 17.5 L 119.957031 15.855469 L 118.523438 15.855469 L 118.523438 17.5 L 118.078125 17.5 L 118.078125 13.945312 L 118.523438 13.945312 L 118.523438 15.472656 L 119.957031 15.472656 L 119.957031 13.945312 L 120.40625 13.945312 Z M 117.695312 12.859375 "/>
<path style=" stroke:none;fill-rule:nonzero;fill:rgb(0%,0%,0%);fill-opacity:1;" d="M 123.578125 18.5 L 121.589844 18.5 L 121.589844 18.175781 L 122.601562 16.832031 C 122.757812 16.625 122.863281 16.457031 122.921875 16.324219 C 122.980469 16.191406 123.011719 16.050781 123.011719 15.902344 C 123.011719 15.714844 122.96875 15.5625 122.878906 15.445312 C 122.792969 15.328125 122.675781 15.265625 122.53125 15.265625 C 122.351562 15.265625 122.210938 15.328125 122.113281 15.453125 C 122.015625 15.578125 121.964844 15.757812 121.964844 15.992188 L 121.535156 15.992188 C 121.535156 15.664062 121.625 15.402344 121.804688 15.199219 C 121.984375 14.996094 122.226562 14.898438 122.53125 14.898438 C 122.816406 14.898438 123.039062 14.984375 123.203125 15.15625 C 123.363281 15.328125 123.445312 15.5625 123.445312 15.847656 C 123.445312 16.199219 123.261719 16.617188 122.898438 17.097656 L 122.105469 18.132812 L 123.578125 18.132812 Z M 125.34375 18.5 L 124.910156 18.5 L 124.910156 15.488281 L 124.164062 15.824219 L 124.164062 15.414062 L 125.277344 14.929688 L 125.34375 14.929688 Z M 121.304688 13.859375 "/>
<path style="fill:none;stroke-width:1;stroke-linecap:butt;stroke-linejoin:miter;stroke:rgb(94.901961%,94.901961%,94.901961%);stroke-opacity:1;stroke-miterlimit:4;" d="M 67.015625 -103.539062 C 73.46875 -114.359375 98.921875 -157.019531 111.242188 -177.675781 " transform="matrix(1,0,0,1,4,206)"/>
<path style="fill:none;stroke-width:1;stroke-linecap:butt;stroke-linejoin:miter;stroke:rgb(100%,93.725491%,83.529413%);stroke-opacity:1;stroke-dasharray:5,2;stroke-miterlimit:4;" d="M 127 -145 C 127 -140.03125 122.96875 -136 118 -136 C 113.03125 -136 109 -140.03125 109 -145 C 109 -149.96875 113.03125 -154 118 -154 C 122.96875 -154 127 -149.96875 127 -145 Z M 127 -145 " transform="matrix(1,0,0,1,4,206)"/>
<path style="fill:none;stroke-width:1;stroke-linecap:butt;stroke-linejoin:miter;stroke:rgb(100%,93.725491%,83.529413%);stroke-opacity:1;stroke-dasharray:5,2;stroke-miterlimit:4;" d="M 131 -145 C 131 -137.820312 125.179688 -132 118 -132 C 110.820312 -132 105 -137.820312 105 -145 C 105 -152.179688 110.820312 -158 118 -158 C 125.179688 -158 131 -152.179688 131 -145 Z M 131 -145 " transform="matrix(1,0,0,1,4,206)"/>
<path style=" stroke:none;fill-rule:nonzero;fill:rgb(0%,0%,0%);fill-opacity:1;" d="M 120.40625 61.5 L 119.957031 61.5 L 119.957031 59.855469 L 118.523438 59.855469 L 118.523438 61.5 L 118.078125 61.5 L 118.078125 57.945312 L 118.523438 57.945312 L 118.523438 59.472656 L 119.957031 59.472656 L 119.957031 57.945312 L 120.40625 57.945312 Z M 117.695312 56.859375 "/>
<path style=" stroke:none;fill-rule:nonzero;fill:rgb(0%,0%,0%);fill-opacity:1;" d="M 123.578125 62.5 L 121.589844 62.5 L 121.589844 62.175781 L 122.601562 60.832031 C 122.757812 60.625 122.863281 60.457031 122.921875 60.324219 C 122.980469 60.191406 123.011719 60.050781 123.011719 59.902344 C 123.011719 59.714844 122.96875 59.5625 122.878906 59.445312 C 122.792969 59.328125 122.675781 59.265625 122.53125 59.265625 C 122.351562 59.265625 122.210938 59.328125 122.113281 59.453125 C 122.015625 59.578125 121.964844 59.757812 121.964844 59.992188 L 121.535156 59.992188 C 121.535156 59.664062 121.625 59.402344 121.804688 59.199219 C 121.984375 58.996094 122.226562 58.898438 122.53125 58.898438 C 122.816406 58.898438 123.039062 58.984375 123.203125 59.15625 C 123.363281 59.328125 123.445312 59.5625 123.445312 59.847656 C 123.445312 60.199219 123.261719 60.617188 122.898438 61.097656 L 122.105469 62.132812 L 123.578125 62.132812 Z M 126.046875 62.5 L 124.058594 62.5 L 124.058594 62.175781 L 125.070312 60.832031 C 125.226562 60.625 125.332031 60.457031 125.390625 60.324219 C 125.449219 60.191406 125.480469 60.050781 125.480469 59.902344 C 125.480469 59.714844 125.4375 59.5625 125.347656 59.445312 C 125.261719 59.328125 125.144531 59.265625 125 59.265625 C 124.820312 59.265625 124.679688 59.328125 124.582031 59.453125 C 124.484375 59.578125 124.433594 59.757812 124.433594 59.992188 L 124.003906 59.992188 C 124.003906 59.664062 124.09375 59.402344 124.273438 59.199219 C 124.453125 58.996094 124.695312 58.898438 125 58.898438 C 125.285156 58.898438 125.507812 58.984375 125.671875 59.15625 C 125.832031 59.328125 125.914062 59.5625 125.914062 59.847656 C 125.914062 60.199219 125.730469 60.617188 125.367188 61.097656 L 124.574219 62.132812 L 126.046875 62.132812 Z M 121.304688 57.859375 "/>
<path style="fill:none;stroke-width:1;stroke-linecap:butt;stroke-linejoin:miter;stroke:rgb(94.901961%,94.901961%,94.901961%);stroke-opacity:1;stroke-miterlimit:4;" d="M 67.757812 -102.890625 C 74.585938 -108.613281 95.34375 -126.011719 107.941406 -136.570312 " transform="matrix(1,0,0,1,4,206)"/>
<path style="fill:none;stroke-width:1;stroke-linecap:butt;stroke-linejoin:miter;stroke:rgb(100%,93.725491%,83.529413%);stroke-opacity:1;stroke-dasharray:5,2;stroke-miterlimit:4;" d="M 127 -101 C 127 -96.03125 122.96875 -92 118 -92 C 113.03125 -92 109 -96.03125 109 -101 C 109 -105.96875 113.03125 -110 118 -110 C 122.96875 -110 127 -105.96875 127 -101 Z M 127 -101 " transform="matrix(1,0,0,1,4,206)"/>
<path style="fill:none;stroke-width:1;stroke-linecap:butt;stroke-linejoin:miter;stroke:rgb(100%,93.725491%,83.529413%);stroke-opacity:1;stroke-dasharray:5,2;stroke-miterlimit:4;" d="M 131 -101 C 131 -93.820312 125.179688 -88 118 -88 C 110.820312 -88 105 -93.820312 105 -101 C 105 -108.179688 110.820312 -114 118 -114 C 125.179688 -114 131 -108.179688 131 -101 Z M 131 -101 " transform="matrix(1,0,0,1,4,206)"/>
<path style=" stroke:none;fill-rule:nonzero;fill:rgb(0%,0%,0%);fill-opacity:1;" d="M 120.40625 105.5 L 119.957031 105.5 L 119.957031 103.855469 L 118.523438 103.855469 L 118.523438 105.5 L 118.078125 105.5 L 118.078125 101.945312 L 118.523438 101.945312 L 118.523438 103.472656 L 119.957031 103.472656 L 119.957031 101.945312 L 120.40625 101.945312 Z M 117.695312 100.859375 "/>
<path style=" stroke:none;fill-rule:nonzero;fill:rgb(0%,0%,0%);fill-opacity:1;" d="M 123.578125 106.5 L 121.589844 106.5 L 121.589844 106.175781 L 122.601562 104.832031 C 122.757812 104.625 122.863281 104.457031 122.921875 104.324219 C 122.980469 104.191406 123.011719 104.050781 123.011719 103.902344 C 123.011719 103.714844 122.96875 103.5625 122.878906 103.445312 C 122.792969 103.328125 122.675781 103.265625 122.53125 103.265625 C 122.351562 103.265625 122.210938 103.328125 122.113281 103.453125 C 122.015625 103.578125 121.964844 103.757812 121.964844 103.992188 L 121.535156 103.992188 C 121.535156 103.664062 121.625 103.402344 121.804688 103.199219 C 121.984375 102.996094 122.226562 102.898438 122.53125 102.898438 C 122.816406 102.898438 123.039062 102.984375 123.203125 103.15625 C 123.363281 103.328125 123.445312 103.5625 123.445312 103.847656 C 123.445312 104.199219 123.261719 104.617188 122.898438 105.097656 L 122.105469 106.132812 L 123.578125 106.132812 Z M 124.609375 104.503906 L 124.886719 104.503906 C 125.0625 104.503906 125.199219 104.449219 125.296875 104.339844 C 125.394531 104.230469 125.441406 104.082031 125.441406 103.890625 C 125.441406 103.476562 125.28125 103.265625 124.957031 103.265625 C 124.804688 103.265625 124.679688 103.324219 124.59375 103.4375 C 124.507812 103.546875 124.460938 103.695312 124.460938 103.878906 L 124.03125 103.878906 C 124.03125 103.59375 124.117188 103.359375 124.292969 103.171875 C 124.464844 102.988281 124.6875 102.898438 124.957031 102.898438 C 125.238281 102.898438 125.460938 102.984375 125.625 103.160156 C 125.789062 103.335938 125.871094 103.582031 125.871094 103.902344 C 125.871094 104.066406 125.828125 104.21875 125.742188 104.363281 C 125.65625 104.503906 125.546875 104.609375 125.410156 104.675781 C 125.746094 104.800781 125.914062 105.078125 125.914062 105.507812 C 125.914062 105.824219 125.824219 106.078125 125.648438 106.265625 C 125.472656 106.453125 125.238281 106.546875 124.953125 106.546875 C 124.671875 106.546875 124.445312 106.460938 124.273438 106.28125 C 124.101562 106.101562 124.011719 105.863281 124.011719 105.5625 L 124.445312 105.5625 C 124.445312 105.75 124.492188 105.902344 124.582031 106.011719 C 124.671875 106.125 124.796875 106.179688 124.953125 106.179688 C 125.117188 106.179688 125.246094 106.125 125.339844 106.015625 C 125.433594 105.90625 125.484375 105.742188 125.484375 105.519531 C 125.484375 105.085938 125.277344 104.871094 124.871094 104.871094 L 124.609375 104.871094 Z M 121.304688 101.859375 "/>
<path style="fill:none;stroke-width:1;stroke-linecap:butt;stroke-linejoin:miter;stroke:rgb(94.901961%,94.901961%,94.901961%);stroke-opacity:1;stroke-miterlimit:4;" d="M 69.277344 -101 C 76.609375 -101 93.101562 -101 104.863281 -101 " transform="matrix(1,0,0,1,4,206)"/>
<path style="fill:none;stroke-width:1;stroke-linecap:butt;stroke-linejoin:miter;stroke:rgb(100%,93.725491%,83.529413%);stroke-opacity:1;stroke-dasharray:5,2;stroke-miterlimit:4;" d="M 127 -57 C 127 -52.03125 122.96875 -48 118 -48 C 113.03125 -48 109 -52.03125 109 -57 C 109 -61.96875 113.03125 -66 118 -66 C 122.96875 -66 127 -61.96875 127 -57 Z M 127 -57 " transform="matrix(1,0,0,1,4,206)"/>
<path style="fill:none;stroke-width:1;stroke-linecap:butt;stroke-linejoin:miter;stroke:rgb(100%,93.725491%,83.529413%);stroke-opacity:1;stroke-dasharray:5,2;stroke-miterlimit:4;" d="M 131 -57 C 131 -49.820312 125.179688 -44 118 -44 C 110.820312 -44 105 -49.820312 105 -57 C 105 -64.179688 110.820312 -70 118 -70 C 125.179688 -70 131 -64.179688 131 -57 Z M 131 -57 " transform="matrix(1,0,0,1,4,206)"/>
<path style=" stroke:none;fill-rule:nonzero;fill:rgb(0%,0%,0%);fill-opacity:1;" d="M 120.40625 149.5 L 119.957031 149.5 L 119.957031 147.855469 L 118.523438 147.855469 L 118.523438 149.5 L 118.078125 149.5 L 118.078125 145.945312 L 118.523438 145.945312 L 118.523438 147.472656 L 119.957031 147.472656 L 119.957031 145.945312 L 120.40625 145.945312 Z M 117.695312 144.859375 "/>
<path style=" stroke:none;fill-rule:nonzero;fill:rgb(0%,0%,0%);fill-opacity:1;" d="M 123.578125 150.5 L 121.589844 150.5 L 121.589844 150.175781 L 122.601562 148.832031 C 122.757812 148.625 122.863281 148.457031 122.921875 148.324219 C 122.980469 148.191406 123.011719 148.050781 123.011719 147.902344 C 123.011719 147.714844 122.96875 147.5625 122.878906 147.445312 C 122.792969 147.328125 122.675781 147.265625 122.53125 147.265625 C 122.351562 147.265625 122.210938 147.328125 122.113281 147.453125 C 122.015625 147.578125 121.964844 147.757812 121.964844 147.992188 L 121.535156 147.992188 C 121.535156 147.664062 121.625 147.402344 121.804688 147.199219 C 121.984375 146.996094 122.226562 146.898438 122.53125 146.898438 C 122.816406 146.898438 123.039062 146.984375 123.203125 147.15625 C 123.363281 147.328125 123.445312 147.5625 123.445312 147.847656 C 123.445312 148.199219 123.261719 148.617188 122.898438 149.097656 L 122.105469 150.132812 L 123.578125 150.132812 Z M 125.695312 149.304688 L 126.089844 149.304688 L 126.089844 149.675781 L 125.695312 149.675781 L 125.695312 150.5 L 125.261719 150.5 L 125.261719 149.675781 L 123.921875 149.675781 L 123.921875 149.410156 L 125.242188 146.945312 L 125.695312 146.945312 Z M 124.398438 149.304688 L 125.261719 149.304688 L 125.261719 147.617188 Z M 121.304688 145.859375 "/>
<path style="fill:none;stroke-width:1;stroke-linecap:butt;stroke-linejoin:miter;stroke:rgb(94.901961%,94.901961%,94.901961%);stroke-opacity:1;stroke-miterlimit:4;" d="M 67.757812 -99.109375 C 74.585938 -93.386719 95.34375 -75.988281 107.941406 -65.429688 " transform="matrix(1,0,0,1,4,206)"/>
<path style="fill:none;stroke-width:1;stroke-linecap:butt;stroke-linejoin:miter;stroke:rgb(100%,93.725491%,83.529413%);stroke-opacity:1;stroke-dasharray:5,2;stroke-miterlimit:4;" d="M 127 -13 C 127 -8.03125 122.96875 -4 118 -4 C 113.03125 -4 109 -8.03125 109 -13 C 109 -17.96875 113.03125 -22 118 -22 C 122.96875 -22 127 -17.96875 127 -13 Z M 127 -13 " transform="matrix(1,0,0,1,4,206)"/>
<path style="fill:none;stroke-width:1;stroke-linecap:butt;stroke-linejoin:miter;stroke:rgb(100%,93.725491%,83.529413%);stroke-opacity:1;stroke-dasharray:5,2;stroke-miterlimit:4;" d="M 131 -13 C 131 -5.820312 125.179688 0 118 0 C 110.820312 0 105 -5.820312 105 -13 C 105 -20.179688 110.820312 -26 118 -26 C 125.179688 -26 131 -20.179688 131 -13 Z M 131 -13 " transform="matrix(1,0,0,1,4,206)"/>
<path style=" stroke:none;fill-rule:nonzero;fill:rgb(0%,0%,0%);fill-opacity:1;" d="M 120.40625 193.5 L 119.957031 193.5 L 119.957031 191.855469 L 118.523438 191.855469 L 118.523438 193.5 L 118.078125 193.5 L 118.078125 189.945312 L 118.523438 189.945312 L 118.523438 191.472656 L 119.957031 191.472656 L 119.957031 189.945312 L 120.40625 189.945312 Z M 117.695312 188.859375 "/>
<path style=" stroke:none;fill-rule:nonzero;fill:rgb(0%,0%,0%);fill-opacity:1;" d="M 123.578125 194.5 L 121.589844 194.5 L 121.589844 194.175781 L 122.601562 192.832031 C 122.757812 192.625 122.863281 192.457031 122.921875 192.324219 C 122.980469 192.191406 123.011719 192.050781 123.011719 191.902344 C 123.011719 191.714844 122.96875 191.5625 122.878906 191.445312 C 122.792969 191.328125 122.675781 191.265625 122.53125 191.265625 C 122.351562 191.265625 122.210938 191.328125 122.113281 191.453125 C 122.015625 191.578125 121.964844 191.757812 121.964844 191.992188 L 121.535156 191.992188 C 121.535156 191.664062 121.625 191.402344 121.804688 191.199219 C 121.984375 190.996094 122.226562 190.898438 122.53125 190.898438 C 122.816406 190.898438 123.039062 190.984375 123.203125 191.15625 C 123.363281 191.328125 123.445312 191.5625 123.445312 191.847656 C 123.445312 192.199219 123.261719 192.617188 122.898438 193.097656 L 122.105469 194.132812 L 123.578125 194.132812 Z M 124.234375 192.71875 L 124.390625 190.945312 L 125.933594 190.945312 L 125.933594 191.363281 L 124.753906 191.363281 L 124.667969 192.332031 C 124.816406 192.230469 124.972656 192.179688 125.144531 192.179688 C 125.421875 192.179688 125.636719 192.285156 125.796875 192.5 C 125.953125 192.714844 126.03125 193.003906 126.03125 193.367188 C 126.03125 193.734375 125.945312 194.023438 125.773438 194.234375 C 125.601562 194.445312 125.367188 194.546875 125.066406 194.546875 C 124.800781 194.546875 124.582031 194.460938 124.414062 194.289062 C 124.246094 194.113281 124.152344 193.871094 124.128906 193.566406 L 124.53125 193.566406 C 124.554688 193.769531 124.617188 193.921875 124.707031 194.023438 C 124.800781 194.128906 124.917969 194.179688 125.066406 194.179688 C 125.234375 194.179688 125.367188 194.105469 125.460938 193.960938 C 125.554688 193.816406 125.601562 193.621094 125.601562 193.371094 C 125.601562 193.140625 125.550781 192.949219 125.449219 192.804688 C 125.347656 192.65625 125.210938 192.582031 125.039062 192.582031 C 124.894531 192.582031 124.78125 192.621094 124.695312 192.695312 L 124.578125 192.8125 Z M 121.304688 189.859375 "/>
<path style="fill:none;stroke-width:1;stroke-linecap:butt;stroke-linejoin:miter;stroke:rgb(94.901961%,94.901961%,94.901961%);stroke-opacity:1;stroke-miterlimit:4;" d="M 67.015625 -98.460938 C 73.46875 -87.640625 98.921875 -44.980469 111.242188 -24.324219 " transform="matrix(1,0,0,1,4,206)"/>
</g>
</svg>
