<?xml version="1.0" encoding="UTF-8"?>
<svg xmlns="http://www.w3.org/2000/svg" xmlns:xlink="http://www.w3.org/1999/xlink" width="216pt" height="210pt" viewBox="0 0 216 210" version="1.1">
<g id="surface1">
<path style="fill:none;stroke-width:1;stroke-linecap:butt;stroke-linejoin:miter;stroke:rgb(49.803922%,49.803922%,49.803922%);stroke-opacity:1;stroke-miterlimit:4;" d="M 24 -143 C 24 -136.371094 18.628906 -131 12 -131 C 5.371094 -131 0 -136.371094 0 -143 C 0 -149.628906 5.371094 -155 12 -155 C 18.628906 -155 24 -149.628906 24 -143 Z M 24 -143 " transform="matrix(1,0,0,1,4,206)"/>
<path style=" stroke:none;fill-rule:nonzero;fill:rgb(0%,0%,0%);fill-opacity:1;" d="M 14.523438 62.167969 L 15.328125 60.535156 L 15.957031 60.535156 L 14.847656 62.652344 L 15.980469 64.800781 L 15.34375 64.800781 L 14.523438 63.136719 L 13.703125 64.800781 L 13.066406 64.800781 L 14.207031 62.652344 L 13.089844 60.535156 L 13.71875 60.535156 Z M 18.058594 64.800781 L 17.539062 64.800781 L 17.539062 61.1875 L 16.640625 61.589844 L 16.640625 61.097656 L 17.976562 60.515625 L 18.058594 60.515625 Z M 12.867188 59.234375 "/>
<path style="fill:none;stroke-width:1;stroke-linecap:butt;stroke-linejoin:miter;stroke:rgb(33.725491%,70.588237%,91.37255%);stroke-opacity:0.501961;stroke-dasharray:5,2;stroke-miterlimit:4;" d="M 82 -145 C 82 -140.03125 77.96875 -136 73 -136 C 68.03125 -136 64 -140.03125 64 -145 C 64 -149.96875 68.03125 -154 73 -154 C 77.96875 -154 82 -149.96875 82 -145 Z M 82 -145 " transform="matrix(1,0,0,1,4,206)"/>
<path style="fill:none;stroke-width:1;stroke-linecap:butt;stroke-linejoin:miter;stroke:rgb(33.725491%,70.588237%,91.37255%);stroke-opacity:0.501961;stroke-dasharray:5,2;stroke-miterlimit:4;" d="M 86 -145 C 86 -137.820312 80.179688 -132 73 -132 C 65.820312 -132 60 -137.820312 60 -145 C 60 -152.179688 65.820312 -158 73 -158 C 80.179688 -158 86 -152.179688 86 -145 Z M 86 -145 " transform="matrix(1,0,0,1,4,206)"/>
<path style="fill:none;stroke-width:1;stroke-linecap:butt;stroke-linejoin:miter;stroke:rgb(74.901962%,74.901962%,74.901962%);stroke-opacity:1;stroke-miterlimit:4;" d="M 24.050781 -143.394531 C 34.007812 -143.722656 48.164062 -144.1875 58.695312 -144.53125 " transform="matrix(1,0,0,1,4,206)"/>
<path style="fill-rule:nonzero;fill:rgb(74.901962%,74.901962%,74.901962%);fill-opacity:1;stroke-width:1;stroke-linecap:butt;stroke-linejoin:miter;stroke:rgb(74.901962%,74.901962%,74.901962%);stroke-opacity:1;stroke-miterlimit:4;" d="M 59.703125 -144.550781 C 59.703125 -144.328125 59.523438 -144.152344 59.304688 -144.152344 C 59.082031 -144.152344 58.902344 -144.328125 58.902344 -144.550781 C 58.902344 -144.773438 59.082031 -144.949219 59.304688 -144.949219 C 59.523438 -144.949219 59.703125 -144.773438 59.703125 -144.550781 Z M 59.703125 -144.550781 " transform="matrix(1,0,0,1,4,206)"/>
<path style="fill:none;stroke-width:1;stroke-linecap:butt;stroke-linejoin:miter;stroke:rgb(33.725491%,70.588237%,91.37255%);stroke-opacity:0.501961;stroke-dasharray:5,2;stroke-miterlimit:4;" d="M 82 -101 C 82 -96.03125 77.96875 -92 73 -92 C 68.03125 -92 64 -96.03125 64 -101 C 64 -105.96875 68.03125 -110 73 -110 C 77.96875 -110 82 -105.96875 82 -101 Z M 82 -101 " transform="matrix(1,0,0,1,4,206)"/>
<path style="fill:none;stroke-width:1;stroke-linecap:butt;stroke-linejoin:miter;stroke:rgb(33.725491%,70.588237%,91.37255%);stroke-opacity:0.501961;stroke-dasharray:5,2;stroke-miterlimit:4;" d="M 86 -101 C 86 -93.820312 80.179688 -88 73 -88 C 65.820312 -88 60 -93.820312 60 -101 C 60 -108.179688 65.820312 -114 73 -114 C 80.179688 -114 86 -108.179688 86 -101 Z M 86 -101 " transform="matrix(1,0,0,1,4,206)"/>
<path style="fill:none;stroke-width:1;stroke-linecap:butt;stroke-linejoin:miter;stroke:rgb(74.901962%,74.901962%,74.901962%);stroke-opacity:1;stroke-miterlimit:4;" d="M 22.074219 -136.066406 C 32.78125 -128.691406 49.703125 -117.039062 61.070312 -109.214844 " transform="matrix(1,0,0,1,4,206)"/>
<path style="fill-rule:nonzero;fill:rgb(74.901962%,74.901962%,74.901962%);fill-opacity:1;stroke-width:1;stroke-linecap:butt;stroke-linejoin:miter;stroke:rgb(74.901962%,74.901962%,74.901962%);stroke-opacity:1;stroke-miterlimit:4;" d="M 61.949219 -108.882812 C 61.949219 -108.664062 61.769531 -108.484375 61.546875 -108.484375 C 61.328125 -108.484375 61.148438 -108.664062 61.148438 -108.882812 C 61.148438 -109.105469 61.328125 -109.285156 61.546875 -109.285156 C 61.769531 -109.285156 61.949219 -109.105469 61.949219 -108.882812 Z M 61.949219 -108.882812 " transform="matrix(1,0,0,1,4,206)"/>
<path style="fill:none;stroke-width:1;stroke-linecap:butt;stroke-linejoin:miter;stroke:rgb(33.725491%,70.588237%,91.37255%);stroke-opacity:0.501961;stroke-dasharray:5,2;stroke-miterlimit:4;" d="M 82 -57 C 82 -52.03125 77.96875 -48 73 -48 C 68.03125 -48 64 -52.03125 64 -57 C 64 -61.96875 68.03125 -66 73 -66 C 77.96875 -66 82 -61.96875 82 -57 Z M 82 -57 " transform="matrix(1,0,0,1,4,206)"/>
<path style="fill:none;stroke-width:1;stroke-linecap:butt;stroke-linejoin:miter;stroke:rgb(33.725491%,70.588237%,91.37255%);stroke-opacity:0.501961;stroke-dasharray:5,2;stroke-miterlimit:4;" d="M 86 -57 C 86 -49.820312 80.179688 -44 73 -44 C 65.820312 -44 60 -49.820312 60 -57 C 60 -64.179688 65.820312 -70 73 -70 C 80.179688 -70 86 -64.179688 86 -57 Z M 86 -57 " transform="matrix(1,0,0,1,4,206)"/>
<path style="fill:none;stroke-width:1;stroke-linecap:butt;stroke-linejoin:miter;stroke:rgb(74.901962%,74.901962%,74.901962%);stroke-opacity:1;stroke-miterlimit:4;" d="M 18.996094 -133.132812 C 30.332031 -117.152344 52.660156 -85.671875 64.753906 -68.628906 " transform="matrix(1,0,0,1,4,206)"/>
<path style="fill-rule:nonzero;fill:rgb(74.901962%,74.901962%,74.901962%);fill-opacity:1;stroke-width:1;stroke-linecap:butt;stroke-linejoin:miter;stroke:rgb(74.901962%,74.901962%,74.901962%);stroke-opacity:1;stroke-miterlimit:4;" d="M 65.488281 -68.152344 C 65.488281 -67.933594 65.308594 -67.753906 65.089844 -67.753906 C 64.867188 -67.753906 64.6875 -67.933594 64.6875 -68.152344 C 64.6875 -68.375 64.867188 -68.554688 65.089844 -68.554688 C 65.308594 -68.554688 65.488281 -68.375 65.488281 -68.152344 Z M 65.488281 -68.152344 " transform="matrix(1,0,0,1,4,206)"/>
<path style="fill:none;stroke-width:1;stroke-linecap:butt;stroke-linejoin:miter;stroke:rgb(33.725491%,70.588237%,91.37255%);stroke-opacity:0.501961;stroke-dasharray:5,2;stroke-miterlimit:4;" d="M 82 -13 C 82 -8.03125 77.96875 -4 73 -4 C 68.03125 -4 64 -8.03125 64 -13 C 64 -17.96875 68.03125 -22 73 -22 C 77.96875 -22 82 -17.96875 82 -13 Z M 82 -13 " transform="matrix(1,0,0,1,4,206)"/>
<path style="fill:none;stroke-width:1;stroke-linecap:butt;stroke-linejoin:miter;stroke:rgb(33.725491%,70.588237%,91.37255%);stroke-opacity:0.501961;stroke-dasharray:5,2;stroke-miterlimit:4;" d="M 86 -13 C 86 -5.820312 80.179688 0 73 0 C 65.820312 0 60 -5.820312 60 -13 C 60 -20.179688 65.820312 -26 73 -26 C 80.179688 -26 86 -20.179688 86 -13 Z M 86 -13 " transform="matrix(1,0,0,1,4,206)"/>
<path style="fill:none;stroke-width:1;stroke-linecap:butt;stroke-linejoin:miter;stroke:rgb(74.901962%,74.901962%,74.901962%);stroke-opacity:1;stroke-miterlimit:4;" d="M 18.371094 -132.457031 C 20.273438 -129.15625 22.300781 -125.46875 24 -122 C 42.417969 -84.425781 41.308594 -72.441406 60 -35 C 61.652344 -31.691406 63.605469 -28.203125 65.492188 -25.003906 " transform="matrix(1,0,0,1,4,206)"/>
<path style="fill-rule:nonzero;fill:rgb(74.901962%,74.901962%,74.901962%);fill-opacity:1;stroke-width:1;stroke-linecap:butt;stroke-linejoin:miter;stroke:rgb(74.901962%,74.901962%,74.901962%);stroke-opacity:1;stroke-miterlimit:4;" d="M 66.269531 -24.367188 C 66.269531 -24.144531 66.089844 -23.964844 65.871094 -23.964844 C 65.648438 -23.964844 65.46875 -24.144531 65.46875 -24.367188 C 65.46875 -24.585938 65.648438 -24.765625 65.871094 -24.765625 C 66.089844 -24.765625 66.269531 -24.585938 66.269531 -24.367188 Z M 66.269531 -24.367188 " transform="matrix(1,0,0,1,4,206)"/>
<path style="fill:none;stroke-width:1;stroke-linecap:butt;stroke-linejoin:miter;stroke:rgb(33.725491%,70.588237%,91.37255%);stroke-opacity:0.501961;stroke-dasharray:5,2;stroke-miterlimit:4;" d="M 82 -189 C 82 -184.03125 77.96875 -180 73 -180 C 68.03125 -180 64 -184.03125 64 -189 C 64 -193.96875 68.03125 -198 73 -198 C 77.96875 -198 82 -193.96875 82 -189 Z M 82 -189 " transform="matrix(1,0,0,1,4,206)"/>
<path style="fill:none;stroke-width:1;stroke-linecap:butt;stroke-linejoin:miter;stroke:rgb(33.725491%,70.588237%,91.37255%);stroke-opacity:0.501961;stroke-dasharray:5,2;stroke-miterlimit:4;" d="M 86 -189 C 86 -181.820312 80.179688 -176 73 -176 C 65.820312 -176 60 -181.820312 60 -189 C 60 -196.179688 65.820312 -202 73 -202 C 80.179688 -202 86 -196.179688 86 -189 Z M 86 -189 " transform="matrix(1,0,0,1,4,206)"/>
<path style="fill:none;stroke-width:1;stroke-linecap:butt;stroke-linejoin:miter;stroke:rgb(74.901962%,74.901962%,74.901962%);stroke-opacity:1;stroke-miterlimit:4;" d="M 21.800781 -150.390625 C 32.71875 -158.625 50.339844 -171.914062 61.796875 -180.550781 " transform="matrix(1,0,0,1,4,206)"/>
<path style="fill-rule:nonzero;fill:rgb(74.901962%,74.901962%,74.901962%);fill-opacity:1;stroke-width:1;stroke-linecap:butt;stroke-linejoin:miter;stroke:rgb(74.901962%,74.901962%,74.901962%);stroke-opacity:1;stroke-miterlimit:4;" d="M 62.691406 -180.925781 C 62.691406 -180.703125 62.511719 -180.523438 62.292969 -180.523438 C 62.070312 -180.523438 61.890625 -180.703125 61.890625 -180.925781 C 61.890625 -181.144531 62.070312 -181.324219 62.292969 -181.324219 C 62.511719 -181.324219 62.691406 -181.144531 62.691406 -180.925781 Z M 62.691406 -180.925781 " transform="matrix(1,0,0,1,4,206)"/>
<path style="fill:none;stroke-width:1;stroke-linecap:butt;stroke-linejoin:miter;stroke:rgb(49.803922%,49.803922%,49.803922%);stroke-opacity:1;stroke-miterlimit:4;" d="M 24 -101 C 24 -94.371094 18.628906 -89 12 -89 C 5.371094 -89 0 -94.371094 0 -101 C 0 -107.628906 5.371094 -113 12 -113 C 18.628906 -113 24 -107.628906 24 -101 Z M 24 -101 " transform="matrix(1,0,0,1,4,206)"/>
<path style=" stroke:none;fill-rule:nonzero;fill:rgb(0%,0%,0%);fill-opacity:1;" d="M 14.523438 104.167969 L 15.328125 102.535156 L 15.957031 102.535156 L 14.847656 104.652344 L 15.980469 106.800781 L 15.34375 106.800781 L 14.523438 105.136719 L 13.703125 106.800781 L 13.066406 106.800781 L 14.207031 104.652344 L 13.089844 102.535156 L 13.71875 102.535156 Z M 18.898438 106.800781 L 16.515625 106.800781 L 16.515625 106.410156 L 17.730469 104.800781 C 17.914062 104.550781 18.042969 104.347656 18.113281 104.1875 C 18.183594 104.027344 18.21875 103.863281 18.21875 103.683594 C 18.21875 103.457031 18.167969 103.273438 18.0625 103.132812 C 17.957031 102.992188 17.816406 102.921875 17.644531 102.921875 C 17.429688 102.921875 17.261719 102.996094 17.144531 103.144531 C 17.023438 103.292969 16.964844 103.511719 16.964844 103.792969 L 16.445312 103.792969 C 16.445312 103.398438 16.554688 103.082031 16.769531 102.839844 C 16.984375 102.597656 17.277344 102.476562 17.644531 102.476562 C 17.984375 102.476562 18.253906 102.582031 18.449219 102.789062 C 18.644531 102.996094 18.742188 103.273438 18.742188 103.621094 C 18.742188 104.042969 18.523438 104.539062 18.082031 105.117188 L 17.132812 106.359375 L 18.898438 106.359375 Z M 12.867188 101.234375 "/>
<path style="fill:none;stroke-width:1;stroke-linecap:butt;stroke-linejoin:miter;stroke:rgb(74.901962%,74.901962%,74.901962%);stroke-opacity:1;stroke-miterlimit:4;" d="M 21.800781 -108.070312 C 32.589844 -115.851562 49.917969 -128.351562 61.378906 -136.617188 " transform="matrix(1,0,0,1,4,206)"/>
<path style="fill-rule:nonzero;fill:rgb(74.901962%,74.901962%,74.901962%);fill-opacity:1;stroke-width:1;stroke-linecap:butt;stroke-linejoin:miter;stroke:rgb(74.901962%,74.901962%,74.901962%);stroke-opacity:1;stroke-miterlimit:4;" d="M 62.269531 -136.972656 C 62.269531 -136.75 62.09375 -136.574219 61.871094 -136.574219 C 61.648438 -136.574219 61.472656 -136.75 61.472656 -136.972656 C 61.472656 -137.195312 61.648438 -137.371094 61.871094 -137.371094 C 62.09375 -137.371094 62.269531 -137.195312 62.269531 -136.972656 Z M 62.269531 -136.972656 " transform="matrix(1,0,0,1,4,206)"/>
<path style="fill:none;stroke-width:1;stroke-linecap:butt;stroke-linejoin:miter;stroke:rgb(74.901962%,74.901962%,74.901962%);stroke-opacity:1;stroke-miterlimit:4;" d="M 24.050781 -101 C 34.007812 -101 48.164062 -101 58.695312 -101 " transform="matrix(1,0,0,1,4,206)"/>
<path style="fill-rule:nonzero;fill:rgb(74.901962%,74.901962%,74.901962%);fill-opacity:1;stroke-width:1;stroke-linecap:butt;stroke-linejoin:miter;stroke:rgb(74.901962%,74.901962%,74.901962%);stroke-opacity:1;stroke-miterlimit:4;" d="M 59.703125 -101 C 59.703125 -100.777344 59.523438 -100.601562 59.304688 -100.601562 C 59.082031 -100.601562 58.902344 -100.777344 58.902344 -101 C 58.902344 -101.222656 59.082031 -101.398438 59.304688 -101.398438 C 59.523438 -101.398438 59.703125 -101.222656 59.703125 -101 Z M 59.703125 -101 " transform="matrix(1,0,0,1,4,206)"/>
<path style="fill:none;stroke-width:1;stroke-linecap:butt;stroke-linejoin:miter;stroke:rgb(74.901962%,74.901962%,74.901962%);stroke-opacity:1;stroke-miterlimit:4;" d="M 21.800781 -93.929688 C 32.589844 -86.148438 49.917969 -73.648438 61.378906 -65.382812 " transform="matrix(1,0,0,1,4,206)"/>
<path style="fill-rule:nonzero;fill:rgb(74.901962%,74.901962%,74.901962%);fill-opacity:1;stroke-width:1;stroke-linecap:butt;stroke-linejoin:miter;stroke:rgb(74.901962%,74.901962%,74.901962%);stroke-opacity:1;stroke-miterlimit:4;" d="M 62.269531 -65.027344 C 62.269531 -64.804688 62.09375 -64.628906 61.871094 -64.628906 C 61.648438 -64.628906 61.472656 -64.804688 61.472656 -65.027344 C 61.472656 -65.25 61.648438 -65.425781 61.871094 -65.425781 C 62.09375 -65.425781 62.269531 -65.25 62.269531 -65.027344 Z M 62.269531 -65.027344 " transform="matrix(1,0,0,1,4,206)"/>
<path style="fill:none;stroke-width:1;stroke-linecap:butt;stroke-linejoin:miter;stroke:rgb(74.901962%,74.901962%,74.901962%);stroke-opacity:1;stroke-miterlimit:4;" d="M 18.996094 -90.90625 C 30.394531 -74.460938 52.90625 -41.988281 64.949219 -24.613281 " transform="matrix(1,0,0,1,4,206)"/>
<path style="fill-rule:nonzero;fill:rgb(74.901962%,74.901962%,74.901962%);fill-opacity:1;stroke-width:1;stroke-linecap:butt;stroke-linejoin:miter;stroke:rgb(74.901962%,74.901962%,74.901962%);stroke-opacity:1;stroke-miterlimit:4;" d="M 65.6875 -24.128906 C 65.6875 -23.90625 65.507812 -23.726562 65.285156 -23.726562 C 65.066406 -23.726562 64.886719 -23.90625 64.886719 -24.128906 C 64.886719 -24.347656 65.066406 -24.527344 65.285156 -24.527344 C 65.507812 -24.527344 65.6875 -24.347656 65.6875 -24.128906 Z M 65.6875 -24.128906 " transform="matrix(1,0,0,1,4,206)"/>
<path style="fill:none;stroke-width:1;stroke-linecap:butt;stroke-linejoin:miter;stroke:rgb(74.901962%,74.901962%,74.901962%);stroke-opacity:1;stroke-miterlimit:4;" d="M 18.996094 -111.09375 C 30.394531 -127.539062 52.90625 -160.011719 64.949219 -177.386719 " transform="matrix(1,0,0,1,4,206)"/>
<path style="fill-rule:nonzero;fill:rgb(74.901962%,74.901962%,74.901962%);fill-opacity:1;stroke-width:1;stroke-linecap:butt;stroke-linejoin:miter;stroke:rgb(74.901962%,74.901962%,74.901962%);stroke-opacity:1;stroke-miterlimit:4;" d="M 65.6875 -177.871094 C 65.6875 -177.652344 65.507812 -177.472656 65.285156 -177.472656 C 65.066406 -177.472656 64.886719 -177.652344 64.886719 -177.871094 C 64.886719 -178.09375 65.066406 -178.273438 65.285156 -178.273438 C 65.507812 -178.273438 65.6875 -178.09375 65.6875 -177.871094 Z M 65.6875 -177.871094 " transform="matrix(1,0,0,1,4,206)"/>
<path style="fill:none;stroke-width:1;stroke-linecap:butt;stroke-linejoin:miter;stroke:rgb(49.803922%,49.803922%,49.803922%);stroke-opacity:1;stroke-miterlimit:4;" d="M 24 -59 C 24 -52.371094 18.628906 -47 12 -47 C 5.371094 -47 0 -52.371094 0 -59 C 0 -65.628906 5.371094 -71 12 -71 C 18.628906 -71 24 -65.628906 24 -59 Z M 24 -59 " transform="matrix(1,0,0,1,4,206)"/>
<path style=" stroke:none;fill-rule:nonzero;fill:rgb(0%,0%,0%);fill-opacity:1;" d="M 14.523438 146.167969 L 15.328125 144.535156 L 15.957031 144.535156 L 14.847656 146.652344 L 15.980469 148.800781 L 15.34375 148.800781 L 14.523438 147.136719 L 13.703125 148.800781 L 13.066406 148.800781 L 14.207031 146.652344 L 13.089844 144.535156 L 13.71875 144.535156 Z M 17.175781 146.402344 L 17.507812 146.402344 C 17.71875 146.402344 17.882812 146.339844 18 146.207031 C 18.117188 146.078125 18.171875 145.898438 18.171875 145.671875 C 18.171875 145.171875 17.980469 144.921875 17.59375 144.921875 C 17.40625 144.921875 17.261719 144.988281 17.15625 145.125 C 17.050781 145.257812 17 145.433594 17 145.652344 L 16.484375 145.652344 C 16.484375 145.3125 16.585938 145.03125 16.792969 144.808594 C 17 144.585938 17.269531 144.476562 17.59375 144.476562 C 17.929688 144.476562 18.195312 144.582031 18.390625 144.792969 C 18.589844 145.003906 18.6875 145.300781 18.6875 145.683594 C 18.6875 145.878906 18.636719 146.066406 18.535156 146.234375 C 18.433594 146.40625 18.296875 146.53125 18.132812 146.613281 C 18.535156 146.761719 18.738281 147.09375 18.738281 147.613281 C 18.738281 147.992188 18.632812 148.296875 18.421875 148.519531 C 18.210938 148.746094 17.929688 148.859375 17.589844 148.859375 C 17.25 148.859375 16.980469 148.753906 16.769531 148.539062 C 16.5625 148.324219 16.460938 148.035156 16.460938 147.675781 L 16.976562 147.675781 C 16.976562 147.902344 17.03125 148.082031 17.140625 148.214844 C 17.25 148.347656 17.398438 148.417969 17.589844 148.417969 C 17.78125 148.417969 17.9375 148.351562 18.050781 148.222656 C 18.164062 148.089844 18.222656 147.890625 18.222656 147.621094 C 18.222656 147.105469 17.976562 146.847656 17.488281 146.847656 L 17.175781 146.847656 Z M 12.867188 143.234375 "/>
<path style="fill:none;stroke-width:1;stroke-linecap:butt;stroke-linejoin:miter;stroke:rgb(74.901962%,74.901962%,74.901962%);stroke-opacity:1;stroke-miterlimit:4;" d="M 18.996094 -68.867188 C 30.332031 -84.847656 52.660156 -116.328125 64.753906 -133.371094 " transform="matrix(1,0,0,1,4,206)"/>
<path style="fill-rule:nonzero;fill:rgb(74.901962%,74.901962%,74.901962%);fill-opacity:1;stroke-width:1;stroke-linecap:butt;stroke-linejoin:miter;stroke:rgb(74.901962%,74.901962%,74.901962%);stroke-opacity:1;stroke-miterlimit:4;" d="M 65.488281 -133.847656 C 65.488281 -133.625 65.308594 -133.445312 65.089844 -133.445312 C 64.867188 -133.445312 64.6875 -133.625 64.6875 -133.847656 C 64.6875 -134.066406 64.867188 -134.246094 65.089844 -134.246094 C 65.308594 -134.246094 65.488281 -134.066406 65.488281 -133.847656 Z M 65.488281 -133.847656 " transform="matrix(1,0,0,1,4,206)"/>
<path style="fill:none;stroke-width:1;stroke-linecap:butt;stroke-linejoin:miter;stroke:rgb(74.901962%,74.901962%,74.901962%);stroke-opacity:1;stroke-miterlimit:4;" d="M 22.074219 -65.933594 C 32.78125 -73.308594 49.703125 -84.960938 61.070312 -92.785156 " transform="matrix(1,0,0,1,4,206)"/>
<path style="fill-rule:nonzero;fill:rgb(74.901962%,74.901962%,74.901962%);fill-opacity:1;stroke-width:1;stroke-linecap:butt;stroke-linejoin:miter;stroke:rgb(74.901962%,74.901962%,74.901962%);stroke-opacity:1;stroke-miterlimit:4;" d="M 61.949219 -93.117188 C 61.949219 -92.894531 61.769531 -92.714844 61.546875 -92.714844 C 61.328125 -92.714844 61.148438 -92.894531 61.148438 -93.117188 C 61.148438 -93.335938 61.328125 -93.515625 61.546875 -93.515625 C 61.769531 -93.515625 61.949219 -93.335938 61.949219 -93.117188 Z M 61.949219 -93.117188 " transform="matrix(1,0,0,1,4,206)"/>
<path style="fill:none;stroke-width:1;stroke-linecap:butt;stroke-linejoin:miter;stroke:rgb(74.901962%,74.901962%,74.901962%);stroke-opacity:1;stroke-miterlimit:4;" d="M 24.050781 -58.605469 C 34.007812 -58.277344 48.164062 -57.8125 58.695312 -57.46875 " transform="matrix(1,0,0,1,4,206)"/>
<path style="fill-rule:nonzero;fill:rgb(74.901962%,74.901962%,74.901962%);fill-opacity:1;stroke-width:1;stroke-linecap:butt;stroke-linejoin:miter;stroke:rgb(74.901962%,74.901962%,74.901962%);stroke-opacity:1;stroke-miterlimit:4;" d="M 59.703125 -57.449219 C 59.703125 -57.226562 59.523438 -57.050781 59.304688 -57.050781 C 59.082031 -57.050781 58.902344 -57.226562 58.902344 -57.449219 C 58.902344 -57.671875 59.082031 -57.847656 59.304688 -57.847656 C 59.523438 -57.847656 59.703125 -57.671875 59.703125 -57.449219 Z M 59.703125 -57.449219 " transform="matrix(1,0,0,1,4,206)"/>
<path style="fill:none;stroke-width:1;stroke-linecap:butt;stroke-linejoin:miter;stroke:rgb(74.901962%,74.901962%,74.901962%);stroke-opacity:1;stroke-miterlimit:4;" d="M 21.800781 -51.609375 C 32.71875 -43.375 50.339844 -30.085938 61.796875 -21.449219 " transform="matrix(1,0,0,1,4,206)"/>
<path style="fill-rule:nonzero;fill:rgb(74.901962%,74.901962%,74.901962%);fill-opacity:1;stroke-width:1;stroke-linecap:butt;stroke-linejoin:miter;stroke:rgb(74.901962%,74.901962%,74.901962%);stroke-opacity:1;stroke-miterlimit:4;" d="M 62.691406 -21.074219 C 62.691406 -20.855469 62.511719 -20.675781 62.292969 -20.675781 C 62.070312 -20.675781 61.890625 -20.855469 61.890625 -21.074219 C 61.890625 -21.296875 62.070312 -21.476562 62.292969 -21.476562 C 62.511719 -21.476562 62.691406 -21.296875 62.691406 -21.074219 Z M 62.691406 -21.074219 " transform="matrix(1,0,0,1,4,206)"/>
<path style="fill:none;stroke-width:1;stroke-linecap:butt;stroke-linejoin:miter;stroke:rgb(74.901962%,74.901962%,74.901962%);stroke-opacity:1;stroke-miterlimit:4;" d="M 18.371094 -69.542969 C 20.273438 -72.84375 22.300781 -76.53125 24 -80 C 42.417969 -117.574219 41.308594 -129.558594 60 -167 C 61.652344 -170.308594 63.605469 -173.796875 65.492188 -176.996094 " transform="matrix(1,0,0,1,4,206)"/>
<path style="fill-rule:nonzero;fill:rgb(74.901962%,74.901962%,74.901962%);fill-opacity:1;stroke-width:1;stroke-linecap:butt;stroke-linejoin:miter;stroke:rgb(74.901962%,74.901962%,74.901962%);stroke-opacity:1;stroke-miterlimit:4;" d="M 66.269531 -177.632812 C 66.269531 -177.414062 66.089844 -177.234375 65.871094 -177.234375 C 65.648438 -177.234375 65.46875 -177.414062 65.46875 -177.632812 C 65.46875 -177.855469 65.648438 -178.035156 65.871094 -178.035156 C 66.089844 -178.035156 66.269531 -177.855469 66.269531 -177.632812 Z M 66.269531 -177.632812 " transform="matrix(1,0,0,1,4,206)"/>
<path style="fill:none;stroke-width:1;stroke-linecap:butt;stroke-linejoin:miter;stroke:rgb(33.725491%,70.588237%,91.37255%);stroke-opacity:0.501961;stroke-dasharray:5,2;stroke-miterlimit:4;" d="M 144 -145 C 144 -140.03125 139.96875 -136 135 -136 C 130.03125 -136 126 -140.03125 126 -145 C 126 -149.96875 130.03125 -154 135 -154 C 139.96875 -154 144 -149.96875 144 -145 Z M 144 -145 " transform="matrix(1,0,0,1,4,206)"/>
<path style="fill:none;stroke-width:1;stroke-linecap:butt;stroke-linejoin:miter;stroke:rgb(33.725491%,70.588237%,91.37255%);stroke-opacity:0.501961;stroke-dasharray:5,2;stroke-miterlimit:4;" d="M 148 -145 C 148 -137.820312 142.179688 -132 135 -132 C 127.820312 -132 122 -137.820312 122 -145 C 122 -152.179688 127.820312 -158 135 -158 C 142.179688 -158 148 -152.179688 148 -145 Z M 148 -145 " transform="matrix(1,0,0,1,4,206)"/>
<path style="fill:none;stroke-width:1;stroke-linecap:butt;stroke-linejoin:miter;stroke:rgb(74.901962%,74.901962%,74.901962%);stroke-opacity:1;stroke-miterlimit:4;" d="M 86.148438 -145 C 96.339844 -145 110.441406 -145 120.871094 -145 " transform="matrix(1,0,0,1,4,206)"/>
<path style="fill-rule:nonzero;fill:rgb(74.901962%,74.901962%,74.901962%);fill-opacity:1;stroke-width:1;stroke-linecap:butt;stroke-linejoin:miter;stroke:rgb(74.901962%,74.901962%,74.901962%);stroke-opacity:1;stroke-miterlimit:4;" d="M 121.871094 -145 C 121.871094 -144.777344 121.691406 -144.601562 121.46875 -144.601562 C 121.25 -144.601562 121.070312 -144.777344 121.070312 -145 C 121.070312 -145.222656 121.25 -145.398438 121.46875 -145.398438 C 121.691406 -145.398438 121.871094 -145.222656 121.871094 -145 Z M 121.871094 -145 " transform="matrix(1,0,0,1,4,206)"/>
<path style="fill:none;stroke-width:1;stroke-linecap:butt;stroke-linejoin:miter;stroke:rgb(33.725491%,70.588237%,91.37255%);stroke-opacity:0.501961;stroke-dasharray:5,2;stroke-miterlimit:4;" d="M 144 -101 C 144 -96.03125 139.96875 -92 135 -92 C 130.03125 -92 126 -96.03125 126 -101 C 126 -105.96875 130.03125 -110 135 -110 C 139.96875 -110 144 -105.96875 144 -101 Z M 144 -101 " transform="matrix(1,0,0,1,4,206)"/>
<path style="fill:none;stroke-width:1;stroke-linecap:butt;stroke-linejoin:miter;stroke:rgb(33.725491%,70.588237%,91.37255%);stroke-opacity:0.501961;stroke-dasharray:5,2;stroke-miterlimit:4;" d="M 148 -101 C 148 -93.820312 142.179688 -88 135 -88 C 127.820312 -88 122 -93.820312 122 -101 C 122 -108.179688 127.820312 -114 135 -114 C 142.179688 -114 148 -108.179688 148 -101 Z M 148 -101 " transform="matrix(1,0,0,1,4,206)"/>
<path style="fill:none;stroke-width:1;stroke-linecap:butt;stroke-linejoin:miter;stroke:rgb(74.901962%,74.901962%,74.901962%);stroke-opacity:1;stroke-miterlimit:4;" d="M 83.800781 -137.335938 C 94.914062 -129.449219 112.160156 -117.210938 123.515625 -109.148438 " transform="matrix(1,0,0,1,4,206)"/>
<path style="fill-rule:nonzero;fill:rgb(74.901962%,74.901962%,74.901962%);fill-opacity:1;stroke-width:1;stroke-linecap:butt;stroke-linejoin:miter;stroke:rgb(74.901962%,74.901962%,74.901962%);stroke-opacity:1;stroke-miterlimit:4;" d="M 124.398438 -108.808594 C 124.398438 -108.585938 124.21875 -108.40625 123.996094 -108.40625 C 123.777344 -108.40625 123.597656 -108.585938 123.597656 -108.808594 C 123.597656 -109.027344 123.777344 -109.207031 123.996094 -109.207031 C 124.21875 -109.207031 124.398438 -109.027344 124.398438 -108.808594 Z M 124.398438 -108.808594 " transform="matrix(1,0,0,1,4,206)"/>
<path style="fill:none;stroke-width:1;stroke-linecap:butt;stroke-linejoin:miter;stroke:rgb(33.725491%,70.588237%,91.37255%);stroke-opacity:0.501961;stroke-dasharray:5,2;stroke-miterlimit:4;" d="M 144 -57 C 144 -52.03125 139.96875 -48 135 -48 C 130.03125 -48 126 -52.03125 126 -57 C 126 -61.96875 130.03125 -66 135 -66 C 139.96875 -66 144 -61.96875 144 -57 Z M 144 -57 " transform="matrix(1,0,0,1,4,206)"/>
<path style="fill:none;stroke-width:1;stroke-linecap:butt;stroke-linejoin:miter;stroke:rgb(33.725491%,70.588237%,91.37255%);stroke-opacity:0.501961;stroke-dasharray:5,2;stroke-miterlimit:4;" d="M 148 -57 C 148 -49.820312 142.179688 -44 135 -44 C 127.820312 -44 122 -49.820312 122 -57 C 122 -64.179688 127.820312 -70 135 -70 C 142.179688 -70 148 -64.179688 148 -57 Z M 148 -57 " transform="matrix(1,0,0,1,4,206)"/>
<path style="fill:none;stroke-width:1;stroke-linecap:butt;stroke-linejoin:miter;stroke:rgb(74.901962%,74.901962%,74.901962%);stroke-opacity:1;stroke-miterlimit:4;" d="M 80.601562 -134.210938 C 92.316406 -117.582031 114.683594 -85.835938 126.769531 -68.683594 " transform="matrix(1,0,0,1,4,206)"/>
<path style="fill-rule:nonzero;fill:rgb(74.901962%,74.901962%,74.901962%);fill-opacity:1;stroke-width:1;stroke-linecap:butt;stroke-linejoin:miter;stroke:rgb(74.901962%,74.901962%,74.901962%);stroke-opacity:1;stroke-miterlimit:4;" d="M 127.503906 -68.207031 C 127.503906 -67.984375 127.324219 -67.804688 127.105469 -67.804688 C 126.882812 -67.804688 126.703125 -67.984375 126.703125 -68.207031 C 126.703125 -68.425781 126.882812 -68.605469 127.105469 -68.605469 C 127.324219 -68.605469 127.503906 -68.425781 127.503906 -68.207031 Z M 127.503906 -68.207031 " transform="matrix(1,0,0,1,4,206)"/>
<path style="fill:none;stroke-width:1;stroke-linecap:butt;stroke-linejoin:miter;stroke:rgb(33.725491%,70.588237%,91.37255%);stroke-opacity:0.501961;stroke-dasharray:5,2;stroke-miterlimit:4;" d="M 144 -13 C 144 -8.03125 139.96875 -4 135 -4 C 130.03125 -4 126 -8.03125 126 -13 C 126 -17.96875 130.03125 -22 135 -22 C 139.96875 -22 144 -17.96875 144 -13 Z M 144 -13 " transform="matrix(1,0,0,1,4,206)"/>
<path style="fill:none;stroke-width:1;stroke-linecap:butt;stroke-linejoin:miter;stroke:rgb(33.725491%,70.588237%,91.37255%);stroke-opacity:0.501961;stroke-dasharray:5,2;stroke-miterlimit:4;" d="M 148 -13 C 148 -5.820312 142.179688 0 135 0 C 127.820312 0 122 -5.820312 122 -13 C 122 -20.179688 127.820312 -26 135 -26 C 142.179688 -26 148 -20.179688 148 -13 Z M 148 -13 " transform="matrix(1,0,0,1,4,206)"/>
<path style="fill:none;stroke-width:1;stroke-linecap:butt;stroke-linejoin:miter;stroke:rgb(74.901962%,74.901962%,74.901962%);stroke-opacity:1;stroke-miterlimit:4;" d="M 79.933594 -133.980469 C 81.996094 -130.523438 84.183594 -126.65625 86 -123 C 104.796875 -85.15625 103.203125 -72.84375 122 -35 C 123.644531 -31.6875 125.597656 -28.199219 127.484375 -25 " transform="matrix(1,0,0,1,4,206)"/>
<path style="fill-rule:nonzero;fill:rgb(74.901962%,74.901962%,74.901962%);fill-opacity:1;stroke-width:1;stroke-linecap:butt;stroke-linejoin:miter;stroke:rgb(74.901962%,74.901962%,74.901962%);stroke-opacity:1;stroke-miterlimit:4;" d="M 128.261719 -24.363281 C 128.261719 -24.140625 128.082031 -23.960938 127.863281 -23.960938 C 127.640625 -23.960938 127.460938 -24.140625 127.460938 -24.363281 C 127.460938 -24.582031 127.640625 -24.761719 127.863281 -24.761719 C 128.082031 -24.761719 128.261719 -24.582031 128.261719 -24.363281 Z M 128.261719 -24.363281 " transform="matrix(1,0,0,1,4,206)"/>
<path style="fill:none;stroke-width:1;stroke-linecap:butt;stroke-linejoin:miter;stroke:rgb(33.725491%,70.588237%,91.37255%);stroke-opacity:0.501961;stroke-dasharray:5,2;stroke-miterlimit:4;" d="M 144 -189 C 144 -184.03125 139.96875 -180 135 -180 C 130.03125 -180 126 -184.03125 126 -189 C 126 -193.96875 130.03125 -198 135 -198 C 139.96875 -198 144 -193.96875 144 -189 Z M 144 -189 " transform="matrix(1,0,0,1,4,206)"/>
<path style="fill:none;stroke-width:1;stroke-linecap:butt;stroke-linejoin:miter;stroke:rgb(33.725491%,70.588237%,91.37255%);stroke-opacity:0.501961;stroke-dasharray:5,2;stroke-miterlimit:4;" d="M 148 -189 C 148 -181.820312 142.179688 -176 135 -176 C 127.820312 -176 122 -181.820312 122 -189 C 122 -196.179688 127.820312 -202 135 -202 C 142.179688 -202 148 -196.179688 148 -189 Z M 148 -189 " transform="matrix(1,0,0,1,4,206)"/>
<path style="fill:none;stroke-width:1;stroke-linecap:butt;stroke-linejoin:miter;stroke:rgb(74.901962%,74.901962%,74.901962%);stroke-opacity:1;stroke-miterlimit:4;" d="M 83.800781 -152.664062 C 94.914062 -160.550781 112.160156 -172.789062 123.515625 -180.851562 " transform="matrix(1,0,0,1,4,206)"/>
<path style="fill-rule:nonzero;fill:rgb(74.901962%,74.901962%,74.901962%);fill-opacity:1;stroke-width:1;stroke-linecap:butt;stroke-linejoin:miter;stroke:rgb(74.901962%,74.901962%,74.901962%);stroke-opacity:1;stroke-miterlimit:4;" d="M 124.398438 -181.191406 C 124.398438 -180.972656 124.21875 -180.792969 123.996094 -180.792969 C 123.777344 -180.792969 123.597656 -180.972656 123.597656 -181.191406 C 123.597656 -181.414062 123.777344 -181.59375 123.996094 -181.59375 C 124.21875 -181.59375 124.398438 -181.414062 124.398438 -181.191406 Z M 124.398438 -181.191406 " transform="matrix(1,0,0,1,4,206)"/>
<path style="fill:none;stroke-width:1;stroke-linecap:butt;stroke-linejoin:miter;stroke:rgb(74.901962%,74.901962%,74.901962%);stroke-opacity:1;stroke-miterlimit:4;" d="M 83.800781 -108.664062 C 94.914062 -116.550781 112.160156 -128.789062 123.515625 -136.851562 " transform="matrix(1,0,0,1,4,206)"/>
<path style="fill-rule:nonzero;fill:rgb(74.901962%,74.901962%,74.901962%);fill-opacity:1;stroke-width:1;stroke-linecap:butt;stroke-linejoin:miter;stroke:rgb(74.901962%,74.901962%,74.901962%);stroke-opacity:1;stroke-miterlimit:4;" d="M 124.398438 -137.191406 C 124.398438 -136.972656 124.21875 -136.792969 123.996094 -136.792969 C 123.777344 -136.792969 123.597656 -136.972656 123.597656 -137.191406 C 123.597656 -137.414062 123.777344 -137.59375 123.996094 -137.59375 C 124.21875 -137.59375 124.398438 -137.414062 124.398438 -137.191406 Z M 124.398438 -137.191406 " transform="matrix(1,0,0,1,4,206)"/>
<path style="fill:none;stroke-width:1;stroke-linecap:butt;stroke-linejoin:miter;stroke:rgb(74.901962%,74.901962%,74.901962%);stroke-opacity:1;stroke-miterlimit:4;" d="M 86.148438 -101 C 96.339844 -101 110.441406 -101 120.871094 -101 " transform="matrix(1,0,0,1,4,206)"/>
<path style="fill-rule:nonzero;fill:rgb(74.901962%,74.901962%,74.901962%);fill-opacity:1;stroke-width:1;stroke-linecap:butt;stroke-linejoin:miter;stroke:rgb(74.901962%,74.901962%,74.901962%);stroke-opacity:1;stroke-miterlimit:4;" d="M 121.871094 -101 C 121.871094 -100.777344 121.691406 -100.601562 121.46875 -100.601562 C 121.25 -100.601562 121.070312 -100.777344 121.070312 -101 C 121.070312 -101.222656 121.25 -101.398438 121.46875 -101.398438 C 121.691406 -101.398438 121.871094 -101.222656 121.871094 -101 Z M 121.871094 -101 " transform="matrix(1,0,0,1,4,206)"/>
<path style="fill:none;stroke-width:1;stroke-linecap:butt;stroke-linejoin:miter;stroke:rgb(74.901962%,74.901962%,74.901962%);stroke-opacity:1;stroke-miterlimit:4;" d="M 83.800781 -93.335938 C 94.914062 -85.449219 112.160156 -73.210938 123.515625 -65.148438 " transform="matrix(1,0,0,1,4,206)"/>
<path style="fill-rule:nonzero;fill:rgb(74.901962%,74.901962%,74.901962%);fill-opacity:1;stroke-width:1;stroke-linecap:butt;stroke-linejoin:miter;stroke:rgb(74.901962%,74.901962%,74.901962%);stroke-opacity:1;stroke-miterlimit:4;" d="M 124.398438 -64.808594 C 124.398438 -64.585938 124.21875 -64.40625 123.996094 -64.40625 C 123.777344 -64.40625 123.597656 -64.585938 123.597656 -64.808594 C 123.597656 -65.027344 123.777344 -65.207031 123.996094 -65.207031 C 124.21875 -65.207031 124.398438 -65.027344 124.398438 -64.808594 Z M 124.398438 -64.808594 " transform="matrix(1,0,0,1,4,206)"/>
<path style="fill:none;stroke-width:1;stroke-linecap:butt;stroke-linejoin:miter;stroke:rgb(74.901962%,74.901962%,74.901962%);stroke-opacity:1;stroke-miterlimit:4;" d="M 80.601562 -90.210938 C 92.316406 -73.582031 114.683594 -41.835938 126.769531 -24.683594 " transform="matrix(1,0,0,1,4,206)"/>
<path style="fill-rule:nonzero;fill:rgb(74.901962%,74.901962%,74.901962%);fill-opacity:1;stroke-width:1;stroke-linecap:butt;stroke-linejoin:miter;stroke:rgb(74.901962%,74.901962%,74.901962%);stroke-opacity:1;stroke-miterlimit:4;" d="M 127.503906 -24.207031 C 127.503906 -23.984375 127.324219 -23.804688 127.105469 -23.804688 C 126.882812 -23.804688 126.703125 -23.984375 126.703125 -24.207031 C 126.703125 -24.425781 126.882812 -24.605469 127.105469 -24.605469 C 127.324219 -24.605469 127.503906 -24.425781 127.503906 -24.207031 Z M 127.503906 -24.207031 " transform="matrix(1,0,0,1,4,206)"/>
<path style="fill:none;stroke-width:1;stroke-linecap:butt;stroke-linejoin:miter;stroke:rgb(74.901962%,74.901962%,74.901962%);stroke-opacity:1;stroke-miterlimit:4;" d="M 80.601562 -111.789062 C 92.316406 -128.417969 114.683594 -160.164062 126.769531 -177.316406 " transform="matrix(1,0,0,1,4,206)"/>
<path style="fill-rule:nonzero;fill:rgb(74.901962%,74.901962%,74.901962%);fill-opacity:1;stroke-width:1;stroke-linecap:butt;stroke-linejoin:miter;stroke:rgb(74.901962%,74.901962%,74.901962%);stroke-opacity:1;stroke-miterlimit:4;" d="M 127.503906 -177.792969 C 127.503906 -177.574219 127.324219 -177.394531 127.105469 -177.394531 C 126.882812 -177.394531 126.703125 -177.574219 126.703125 -177.792969 C 126.703125 -178.015625 126.882812 -178.195312 127.105469 -178.195312 C 127.324219 -178.195312 127.503906 -178.015625 127.503906 -177.792969 Z M 127.503906 -177.792969 " transform="matrix(1,0,0,1,4,206)"/>
<path style="fill:none;stroke-width:1;stroke-linecap:butt;stroke-linejoin:miter;stroke:rgb(74.901962%,74.901962%,74.901962%);stroke-opacity:1;stroke-miterlimit:4;" d="M 80.601562 -67.789062 C 92.316406 -84.417969 114.683594 -116.164062 126.769531 -133.316406 " transform="matrix(1,0,0,1,4,206)"/>
<path style="fill-rule:nonzero;fill:rgb(74.901962%,74.901962%,74.901962%);fill-opacity:1;stroke-width:1;stroke-linecap:butt;stroke-linejoin:miter;stroke:rgb(74.901962%,74.901962%,74.901962%);stroke-opacity:1;stroke-miterlimit:4;" d="M 127.503906 -133.792969 C 127.503906 -133.574219 127.324219 -133.394531 127.105469 -133.394531 C 126.882812 -133.394531 126.703125 -133.574219 126.703125 -133.792969 C 126.703125 -134.015625 126.882812 -134.195312 127.105469 -134.195312 C 127.324219 -134.195312 127.503906 -134.015625 127.503906 -133.792969 Z M 127.503906 -133.792969 " transform="matrix(1,0,0,1,4,206)"/>
<path style="fill:none;stroke-width:1;stroke-linecap:butt;stroke-linejoin:miter;stroke:rgb(74.901962%,74.901962%,74.901962%);stroke-opacity:1;stroke-miterlimit:4;" d="M 83.800781 -64.664062 C 94.914062 -72.550781 112.160156 -84.789062 123.515625 -92.851562 " transform="matrix(1,0,0,1,4,206)"/>
<path style="fill-rule:nonzero;fill:rgb(74.901962%,74.901962%,74.901962%);fill-opacity:1;stroke-width:1;stroke-linecap:butt;stroke-linejoin:miter;stroke:rgb(74.901962%,74.901962%,74.901962%);stroke-opacity:1;stroke-miterlimit:4;" d="M 124.398438 -93.191406 C 124.398438 -92.972656 124.21875 -92.792969 123.996094 -92.792969 C 123.777344 -92.792969 123.597656 -92.972656 123.597656 -93.191406 C 123.597656 -93.414062 123.777344 -93.59375 123.996094 -93.59375 C 124.21875 -93.59375 124.398438 -93.414062 124.398438 -93.191406 Z M 124.398438 -93.191406 " transform="matrix(1,0,0,1,4,206)"/>
<path style="fill:none;stroke-width:1;stroke-linecap:butt;stroke-linejoin:miter;stroke:rgb(74.901962%,74.901962%,74.901962%);stroke-opacity:1;stroke-miterlimit:4;" d="M 86.148438 -57 C 96.339844 -57 110.441406 -57 120.871094 -57 " transform="matrix(1,0,0,1,4,206)"/>
<path style="fill-rule:nonzero;fill:rgb(74.901962%,74.901962%,74.901962%);fill-opacity:1;stroke-width:1;stroke-linecap:butt;stroke-linejoin:miter;stroke:rgb(74.901962%,74.901962%,74.901962%);stroke-opacity:1;stroke-miterlimit:4;" d="M 121.871094 -57 C 121.871094 -56.777344 121.691406 -56.601562 121.46875 -56.601562 C 121.25 -56.601562 121.070312 -56.777344 121.070312 -57 C 121.070312 -57.222656 121.25 -57.398438 121.46875 -57.398438 C 121.691406 -57.398438 121.871094 -57.222656 121.871094 -57 Z M 121.871094 -57 " transform="matrix(1,0,0,1,4,206)"/>
<path style="fill:none;stroke-width:1;stroke-linecap:butt;stroke-linejoin:miter;stroke:rgb(74.901962%,74.901962%,74.901962%);stroke-opacity:1;stroke-miterlimit:4;" d="M 83.800781 -49.335938 C 94.914062 -41.449219 112.160156 -29.210938 123.515625 -21.148438 " transform="matrix(1,0,0,1,4,206)"/>
<path style="fill-rule:nonzero;fill:rgb(74.901962%,74.901962%,74.901962%);fill-opacity:1;stroke-width:1;stroke-linecap:butt;stroke-linejoin:miter;stroke:rgb(74.901962%,74.901962%,74.901962%);stroke-opacity:1;stroke-miterlimit:4;" d="M 124.398438 -20.808594 C 124.398438 -20.585938 124.21875 -20.40625 123.996094 -20.40625 C 123.777344 -20.40625 123.597656 -20.585938 123.597656 -20.808594 C 123.597656 -21.027344 123.777344 -21.207031 123.996094 -21.207031 C 124.21875 -21.207031 124.398438 -21.027344 124.398438 -20.808594 Z M 124.398438 -20.808594 " transform="matrix(1,0,0,1,4,206)"/>
<path style="fill:none;stroke-width:1;stroke-linecap:butt;stroke-linejoin:miter;stroke:rgb(74.901962%,74.901962%,74.901962%);stroke-opacity:1;stroke-miterlimit:4;" d="M 79.933594 -68.019531 C 81.996094 -71.476562 84.183594 -75.34375 86 -79 C 104.796875 -116.84375 103.203125 -129.15625 122 -167 C 123.644531 -170.3125 125.597656 -173.800781 127.484375 -177 " transform="matrix(1,0,0,1,4,206)"/>
<path style="fill-rule:nonzero;fill:rgb(74.901962%,74.901962%,74.901962%);fill-opacity:1;stroke-width:1;stroke-linecap:butt;stroke-linejoin:miter;stroke:rgb(74.901962%,74.901962%,74.901962%);stroke-opacity:1;stroke-miterlimit:4;" d="M 128.261719 -177.636719 C 128.261719 -177.417969 128.082031 -177.238281 127.863281 -177.238281 C 127.640625 -177.238281 127.460938 -177.417969 127.460938 -177.636719 C 127.460938 -177.859375 127.640625 -178.039062 127.863281 -178.039062 C 128.082031 -178.039062 128.261719 -177.859375 128.261719 -177.636719 Z M 128.261719 -177.636719 " transform="matrix(1,0,0,1,4,206)"/>
<path style="fill:none;stroke-width:1;stroke-linecap:butt;stroke-linejoin:miter;stroke:rgb(74.901962%,74.901962%,74.901962%);stroke-opacity:1;stroke-miterlimit:4;" d="M 79.933594 -24.019531 C 81.996094 -27.476562 84.183594 -31.34375 86 -35 C 104.796875 -72.84375 103.203125 -85.15625 122 -123 C 123.644531 -126.3125 125.597656 -129.800781 127.484375 -133 " transform="matrix(1,0,0,1,4,206)"/>
<path style="fill-rule:nonzero;fill:rgb(74.901962%,74.901962%,74.901962%);fill-opacity:1;stroke-width:1;stroke-linecap:butt;stroke-linejoin:miter;stroke:rgb(74.901962%,74.901962%,74.901962%);stroke-opacity:1;stroke-miterlimit:4;" d="M 128.261719 -133.636719 C 128.261719 -133.417969 128.082031 -133.238281 127.863281 -133.238281 C 127.640625 -133.238281 127.460938 -133.417969 127.460938 -133.636719 C 127.460938 -133.859375 127.640625 -134.039062 127.863281 -134.039062 C 128.082031 -134.039062 128.261719 -133.859375 128.261719 -133.636719 Z M 128.261719 -133.636719 " transform="matrix(1,0,0,1,4,206)"/>
<path style="fill:none;stroke-width:1;stroke-linecap:butt;stroke-linejoin:miter;stroke:rgb(74.901962%,74.901962%,74.901962%);stroke-opacity:1;stroke-miterlimit:4;" d="M 80.601562 -23.789062 C 92.316406 -40.417969 114.683594 -72.164062 126.769531 -89.316406 " transform="matrix(1,0,0,1,4,206)"/>
<path style="fill-rule:nonzero;fill:rgb(74.901962%,74.901962%,74.901962%);fill-opacity:1;stroke-width:1;stroke-linecap:butt;stroke-linejoin:miter;stroke:rgb(74.901962%,74.901962%,74.901962%);stroke-opacity:1;stroke-miterlimit:4;" d="M 127.503906 -89.792969 C 127.503906 -89.574219 127.324219 -89.394531 127.105469 -89.394531 C 126.882812 -89.394531 126.703125 -89.574219 126.703125 -89.792969 C 126.703125 -90.015625 126.882812 -90.195312 127.105469 -90.195312 C 127.324219 -90.195312 127.503906 -90.015625 127.503906 -89.792969 Z M 127.503906 -89.792969 " transform="matrix(1,0,0,1,4,206)"/>
<path style="fill:none;stroke-width:1;stroke-linecap:butt;stroke-linejoin:miter;stroke:rgb(74.901962%,74.901962%,74.901962%);stroke-opacity:1;stroke-miterlimit:4;" d="M 83.800781 -20.664062 C 94.914062 -28.550781 112.160156 -40.789062 123.515625 -48.851562 " transform="matrix(1,0,0,1,4,206)"/>
<path style="fill-rule:nonzero;fill:rgb(74.901962%,74.901962%,74.901962%);fill-opacity:1;stroke-width:1;stroke-linecap:butt;stroke-linejoin:miter;stroke:rgb(74.901962%,74.901962%,74.901962%);stroke-opacity:1;stroke-miterlimit:4;" d="M 124.398438 -49.191406 C 124.398438 -48.972656 124.21875 -48.792969 123.996094 -48.792969 C 123.777344 -48.792969 123.597656 -48.972656 123.597656 -49.191406 C 123.597656 -49.414062 123.777344 -49.59375 123.996094 -49.59375 C 124.21875 -49.59375 124.398438 -49.414062 124.398438 -49.191406 Z M 124.398438 -49.191406 " transform="matrix(1,0,0,1,4,206)"/>
<path style="fill:none;stroke-width:1;stroke-linecap:butt;stroke-linejoin:miter;stroke:rgb(74.901962%,74.901962%,74.901962%);stroke-opacity:1;stroke-miterlimit:4;" d="M 86.148438 -13 C 96.339844 -13 110.441406 -13 120.871094 -13 " transform="matrix(1,0,0,1,4,206)"/>
<path style="fill-rule:nonzero;fill:rgb(74.901962%,74.901962%,74.901962%);fill-opacity:1;stroke-width:1;stroke-linecap:butt;stroke-linejoin:miter;stroke:rgb(74.901962%,74.901962%,74.901962%);stroke-opacity:1;stroke-miterlimit:4;" d="M 121.871094 -13 C 121.871094 -12.777344 121.691406 -12.601562 121.46875 -12.601562 C 121.25 -12.601562 121.070312 -12.777344 121.070312 -13 C 121.070312 -13.222656 121.25 -13.398438 121.46875 -13.398438 C 121.691406 -13.398438 121.871094 -13.222656 121.871094 -13 Z M 121.871094 -13 " transform="matrix(1,0,0,1,4,206)"/>
<path style="fill:none;stroke-width:1;stroke-linecap:butt;stroke-linejoin:miter;stroke:rgb(74.901962%,74.901962%,74.901962%);stroke-opacity:1;stroke-miterlimit:4;" d="M 80.214844 -23.890625 C 82.285156 -27.34375 84.410156 -31.242188 86 -35 C 109.679688 -91.007812 98.320312 -110.992188 122 -167 C 123.441406 -170.40625 125.320312 -173.929688 127.203125 -177.128906 " transform="matrix(1,0,0,1,4,206)"/>
<path style="fill-rule:nonzero;fill:rgb(74.901962%,74.901962%,74.901962%);fill-opacity:1;stroke-width:1;stroke-linecap:butt;stroke-linejoin:miter;stroke:rgb(74.901962%,74.901962%,74.901962%);stroke-opacity:1;stroke-miterlimit:4;" d="M 127.984375 -177.765625 C 127.984375 -177.546875 127.804688 -177.367188 127.582031 -177.367188 C 127.363281 -177.367188 127.183594 -177.546875 127.183594 -177.765625 C 127.183594 -177.988281 127.363281 -178.167969 127.582031 -178.167969 C 127.804688 -178.167969 127.984375 -177.988281 127.984375 -177.765625 Z M 127.984375 -177.765625 " transform="matrix(1,0,0,1,4,206)"/>
<path style="fill:none;stroke-width:1;stroke-linecap:butt;stroke-linejoin:miter;stroke:rgb(74.901962%,74.901962%,74.901962%);stroke-opacity:1;stroke-miterlimit:4;" d="M 83.800781 -181.335938 C 94.914062 -173.449219 112.160156 -161.210938 123.515625 -153.148438 " transform="matrix(1,0,0,1,4,206)"/>
<path style="fill-rule:nonzero;fill:rgb(74.901962%,74.901962%,74.901962%);fill-opacity:1;stroke-width:1;stroke-linecap:butt;stroke-linejoin:miter;stroke:rgb(74.901962%,74.901962%,74.901962%);stroke-opacity:1;stroke-miterlimit:4;" d="M 124.398438 -152.808594 C 124.398438 -152.585938 124.21875 -152.40625 123.996094 -152.40625 C 123.777344 -152.40625 123.597656 -152.585938 123.597656 -152.808594 C 123.597656 -153.027344 123.777344 -153.207031 123.996094 -153.207031 C 124.21875 -153.207031 124.398438 -153.027344 124.398438 -152.808594 Z M 124.398438 -152.808594 " transform="matrix(1,0,0,1,4,206)"/>
<path style="fill:none;stroke-width:1;stroke-linecap:butt;stroke-linejoin:miter;stroke:rgb(74.901962%,74.901962%,74.901962%);stroke-opacity:1;stroke-miterlimit:4;" d="M 80.601562 -178.210938 C 92.316406 -161.582031 114.683594 -129.835938 126.769531 -112.683594 " transform="matrix(1,0,0,1,4,206)"/>
<path style="fill-rule:nonzero;fill:rgb(74.901962%,74.901962%,74.901962%);fill-opacity:1;stroke-width:1;stroke-linecap:butt;stroke-linejoin:miter;stroke:rgb(74.901962%,74.901962%,74.901962%);stroke-opacity:1;stroke-miterlimit:4;" d="M 127.503906 -112.207031 C 127.503906 -111.984375 127.324219 -111.804688 127.105469 -111.804688 C 126.882812 -111.804688 126.703125 -111.984375 126.703125 -112.207031 C 126.703125 -112.425781 126.882812 -112.605469 127.105469 -112.605469 C 127.324219 -112.605469 127.503906 -112.425781 127.503906 -112.207031 Z M 127.503906 -112.207031 " transform="matrix(1,0,0,1,4,206)"/>
<path style="fill:none;stroke-width:1;stroke-linecap:butt;stroke-linejoin:miter;stroke:rgb(74.901962%,74.901962%,74.901962%);stroke-opacity:1;stroke-miterlimit:4;" d="M 79.933594 -177.980469 C 81.996094 -174.523438 84.183594 -170.65625 86 -167 C 104.796875 -129.15625 103.203125 -116.84375 122 -79 C 123.644531 -75.6875 125.597656 -72.199219 127.484375 -69 " transform="matrix(1,0,0,1,4,206)"/>
<path style="fill-rule:nonzero;fill:rgb(74.901962%,74.901962%,74.901962%);fill-opacity:1;stroke-width:1;stroke-linecap:butt;stroke-linejoin:miter;stroke:rgb(74.901962%,74.901962%,74.901962%);stroke-opacity:1;stroke-miterlimit:4;" d="M 128.261719 -68.363281 C 128.261719 -68.140625 128.082031 -67.960938 127.863281 -67.960938 C 127.640625 -67.960938 127.460938 -68.140625 127.460938 -68.363281 C 127.460938 -68.582031 127.640625 -68.761719 127.863281 -68.761719 C 128.082031 -68.761719 128.261719 -68.582031 128.261719 -68.363281 Z M 128.261719 -68.363281 " transform="matrix(1,0,0,1,4,206)"/>
<path style="fill:none;stroke-width:1;stroke-linecap:butt;stroke-linejoin:miter;stroke:rgb(74.901962%,74.901962%,74.901962%);stroke-opacity:1;stroke-miterlimit:4;" d="M 80.214844 -178.109375 C 82.285156 -174.65625 84.410156 -170.757812 86 -167 C 109.679688 -110.992188 98.320312 -91.007812 122 -35 C 123.441406 -31.59375 125.320312 -28.070312 127.203125 -24.871094 " transform="matrix(1,0,0,1,4,206)"/>
<path style="fill-rule:nonzero;fill:rgb(74.901962%,74.901962%,74.901962%);fill-opacity:1;stroke-width:1;stroke-linecap:butt;stroke-linejoin:miter;stroke:rgb(74.901962%,74.901962%,74.901962%);stroke-opacity:1;stroke-miterlimit:4;" d="M 127.984375 -24.234375 C 127.984375 -24.011719 127.804688 -23.832031 127.582031 -23.832031 C 127.363281 -23.832031 127.183594 -24.011719 127.183594 -24.234375 C 127.183594 -24.453125 127.363281 -24.632812 127.582031 -24.632812 C 127.804688 -24.632812 127.984375 -24.453125 127.984375 -24.234375 Z M 127.984375 -24.234375 " transform="matrix(1,0,0,1,4,206)"/>
<path style="fill:none;stroke-width:1;stroke-linecap:butt;stroke-linejoin:miter;stroke:rgb(74.901962%,74.901962%,74.901962%);stroke-opacity:1;stroke-miterlimit:4;" d="M 86.148438 -189 C 96.339844 -189 110.441406 -189 120.871094 -189 " transform="matrix(1,0,0,1,4,206)"/>
<path style="fill-rule:nonzero;fill:rgb(74.901962%,74.901962%,74.901962%);fill-opacity:1;stroke-width:1;stroke-linecap:butt;stroke-linejoin:miter;stroke:rgb(74.901962%,74.901962%,74.901962%);stroke-opacity:1;stroke-miterlimit:4;" d="M 121.871094 -189 C 121.871094 -188.777344 121.691406 -188.601562 121.46875 -188.601562 C 121.25 -188.601562 121.070312 -188.777344 121.070312 -189 C 121.070312 -189.222656 121.25 -189.398438 121.46875 -189.398438 C 121.691406 -189.398438 121.871094 -189.222656 121.871094 -189 Z M 121.871094 -189 " transform="matrix(1,0,0,1,4,206)"/>
<path style="fill:none;stroke-width:1;stroke-linecap:butt;stroke-linejoin:miter;stroke:rgb(54.509807%,0%,0%);stroke-opacity:1;stroke-miterlimit:4;" d="M 200 -113 C 200 -113 192 -113 192 -113 C 188 -113 184 -109 184 -105 C 184 -105 184 -97 184 -97 C 184 -93 188 -89 192 -89 C 192 -89 200 -89 200 -89 C 204 -89 208 -93 208 -97 C 208 -97 208 -105 208 -105 C 208 -109 204 -113 200 -113 " transform="matrix(1,0,0,1,4,206)"/>
<path style=" stroke:none;fill-rule:nonzero;fill:rgb(0%,0%,0%);fill-opacity:1;" d="M 190.160156 105.089844 C 190.160156 104.476562 190.308594 103.988281 190.609375 103.632812 C 190.90625 103.273438 191.300781 103.09375 191.789062 103.09375 C 192.277344 103.09375 192.671875 103.269531 192.96875 103.617188 C 193.269531 103.964844 193.421875 104.441406 193.429688 105.042969 L 193.429688 105.488281 C 193.429688 106.101562 193.28125 106.585938 192.984375 106.941406 C 192.6875 107.296875 192.292969 107.476562 191.796875 107.476562 C 191.308594 107.476562 190.914062 107.304688 190.617188 106.957031 C 190.324219 106.609375 190.171875 106.140625 190.160156 105.550781 Z M 190.851562 105.488281 C 190.851562 105.921875 190.9375 106.265625 191.109375 106.515625 C 191.277344 106.761719 191.507812 106.886719 191.796875 106.886719 C 192.40625 106.886719 192.71875 106.445312 192.738281 105.566406 L 192.738281 105.089844 C 192.738281 104.65625 192.652344 104.316406 192.480469 104.0625 C 192.308594 103.8125 192.078125 103.6875 191.789062 103.6875 C 191.503906 103.6875 191.277344 103.8125 191.109375 104.0625 C 190.9375 104.316406 190.851562 104.65625 190.851562 105.085938 Z M 196.476562 107.027344 C 196.246094 107.328125 195.914062 107.476562 195.472656 107.476562 C 195.089844 107.476562 194.800781 107.34375 194.605469 107.078125 C 194.410156 106.816406 194.3125 106.429688 194.308594 105.925781 L 194.308594 103.171875 L 194.996094 103.171875 L 194.996094 105.875 C 194.996094 106.535156 195.195312 106.863281 195.589844 106.863281 C 196.007812 106.863281 196.296875 106.675781 196.457031 106.300781 L 196.457031 103.171875 L 197.148438 103.171875 L 197.148438 107.398438 L 196.492188 107.398438 Z M 199.09375 102.148438 L 199.09375 103.171875 L 199.730469 103.171875 L 199.730469 103.730469 L 199.09375 103.730469 L 199.09375 106.351562 C 199.09375 106.519531 199.121094 106.644531 199.175781 106.730469 C 199.230469 106.816406 199.324219 106.859375 199.457031 106.859375 C 199.546875 106.859375 199.640625 106.84375 199.734375 106.8125 L 199.726562 107.398438 C 199.570312 107.449219 199.410156 107.476562 199.246094 107.476562 C 198.972656 107.476562 198.765625 107.378906 198.621094 107.183594 C 198.476562 106.988281 198.40625 106.710938 198.40625 106.355469 L 198.40625 103.730469 L 197.761719 103.730469 L 197.761719 103.171875 L 198.40625 103.171875 L 198.40625 102.148438 Z M 203.605469 105.488281 C 203.605469 106.15625 203.484375 106.65625 203.246094 106.984375 C 203.003906 107.3125 202.664062 107.476562 202.222656 107.476562 C 201.796875 107.476562 201.472656 107.316406 201.242188 106.996094 L 201.242188 109.023438 L 200.554688 109.023438 L 200.554688 103.171875 L 201.179688 103.171875 L 201.214844 103.640625 C 201.445312 103.277344 201.777344 103.09375 202.210938 103.09375 C 202.675781 103.09375 203.019531 103.253906 203.25 103.578125 C 203.480469 103.902344 203.597656 104.382812 203.605469 105.027344 Z M 202.917969 105.09375 C 202.917969 104.621094 202.84375 104.269531 202.699219 104.046875 C 202.554688 103.820312 202.320312 103.707031 201.996094 103.707031 C 201.664062 103.707031 201.414062 103.871094 201.242188 104.203125 L 201.242188 106.402344 C 201.410156 106.726562 201.664062 106.886719 202.003906 106.886719 C 202.316406 106.886719 202.546875 106.773438 202.691406 106.546875 C 202.839844 106.324219 202.914062 105.980469 202.917969 105.515625 Z M 206.652344 107.027344 C 206.421875 107.328125 206.089844 107.476562 205.648438 107.476562 C 205.265625 107.476562 204.976562 107.34375 204.78125 107.078125 C 204.585938 106.816406 204.488281 106.429688 204.484375 105.925781 L 204.484375 103.171875 L 205.171875 103.171875 L 205.171875 105.875 C 205.171875 106.535156 205.371094 106.863281 205.765625 106.863281 C 206.183594 106.863281 206.472656 106.675781 206.632812 106.300781 L 206.632812 103.171875 L 207.324219 103.171875 L 207.324219 107.398438 L 206.667969 107.398438 Z M 209.269531 102.148438 L 209.269531 103.171875 L 209.90625 103.171875 L 209.90625 103.730469 L 209.269531 103.730469 L 209.269531 106.351562 C 209.269531 106.519531 209.296875 106.644531 209.351562 106.730469 C 209.40625 106.816406 209.5 106.859375 209.632812 106.859375 C 209.722656 106.859375 209.816406 106.84375 209.910156 106.8125 L 209.902344 107.398438 C 209.746094 107.449219 209.585938 107.476562 209.421875 107.476562 C 209.148438 107.476562 208.941406 107.378906 208.796875 107.183594 C 208.652344 106.988281 208.582031 106.710938 208.582031 106.355469 L 208.582031 103.730469 L 207.9375 103.730469 L 207.9375 103.171875 L 208.582031 103.171875 L 208.582031 102.148438 Z M 189.789062 99.976562 "/>
<path style="fill:none;stroke-width:1;stroke-linecap:butt;stroke-linejoin:miter;stroke:rgb(74.901962%,74.901962%,74.901962%);stroke-opacity:1;stroke-miterlimit:4;" d="M 145.625 -137.335938 C 155.691406 -130.074219 170.878906 -119.121094 181.941406 -111.140625 " transform="matrix(1,0,0,1,4,206)"/>
<path style="fill-rule:nonzero;fill:rgb(74.901962%,74.901962%,74.901962%);fill-opacity:1;stroke-width:1;stroke-linecap:butt;stroke-linejoin:miter;stroke:rgb(74.901962%,74.901962%,74.901962%);stroke-opacity:1;stroke-miterlimit:4;" d="M 184.007812 -110.371094 C 184.007812 -109.816406 183.5625 -109.371094 183.007812 -109.371094 C 182.457031 -109.371094 182.007812 -109.816406 182.007812 -110.371094 C 182.007812 -110.921875 182.457031 -111.371094 183.007812 -111.371094 C 183.5625 -111.371094 184.007812 -110.921875 184.007812 -110.371094 Z M 184.007812 -110.371094 " transform="matrix(1,0,0,1,4,206)"/>
<path style="fill:none;stroke-width:1;stroke-linecap:butt;stroke-linejoin:miter;stroke:rgb(74.901962%,74.901962%,74.901962%);stroke-opacity:1;stroke-miterlimit:4;" d="M 148.234375 -101 C 158.007812 -101 171.308594 -101 181.390625 -101 " transform="matrix(1,0,0,1,4,206)"/>
<path style="fill-rule:nonzero;fill:rgb(74.901962%,74.901962%,74.901962%);fill-opacity:1;stroke-width:1;stroke-linecap:butt;stroke-linejoin:miter;stroke:rgb(74.901962%,74.901962%,74.901962%);stroke-opacity:1;stroke-miterlimit:4;" d="M 183.621094 -101 C 183.621094 -100.449219 183.171875 -100 182.621094 -100 C 182.070312 -100 181.621094 -100.449219 181.621094 -101 C 181.621094 -101.550781 182.070312 -102 182.621094 -102 C 183.171875 -102 183.621094 -101.550781 183.621094 -101 Z M 183.621094 -101 " transform="matrix(1,0,0,1,4,206)"/>
<path style="fill:none;stroke-width:1;stroke-linecap:butt;stroke-linejoin:miter;stroke:rgb(74.901962%,74.901962%,74.901962%);stroke-opacity:1;stroke-miterlimit:4;" d="M 145.625 -64.664062 C 155.691406 -71.925781 170.878906 -82.878906 181.941406 -90.859375 " transform="matrix(1,0,0,1,4,206)"/>
<path style="fill-rule:nonzero;fill:rgb(74.901962%,74.901962%,74.901962%);fill-opacity:1;stroke-width:1;stroke-linecap:butt;stroke-linejoin:miter;stroke:rgb(74.901962%,74.901962%,74.901962%);stroke-opacity:1;stroke-miterlimit:4;" d="M 184.007812 -91.628906 C 184.007812 -91.078125 183.5625 -90.628906 183.007812 -90.628906 C 182.457031 -90.628906 182.007812 -91.078125 182.007812 -91.628906 C 182.007812 -92.183594 182.457031 -92.628906 183.007812 -92.628906 C 183.5625 -92.628906 184.007812 -92.183594 184.007812 -91.628906 Z M 184.007812 -91.628906 " transform="matrix(1,0,0,1,4,206)"/>
<path style="fill:none;stroke-width:1;stroke-linecap:butt;stroke-linejoin:miter;stroke:rgb(74.901962%,74.901962%,74.901962%);stroke-opacity:1;stroke-miterlimit:4;" d="M 142.480469 -23.789062 C 153.574219 -39.796875 174.386719 -69.820312 186.53125 -87.339844 " transform="matrix(1,0,0,1,4,206)"/>
<path style="fill-rule:nonzero;fill:rgb(74.901962%,74.901962%,74.901962%);fill-opacity:1;stroke-width:1;stroke-linecap:butt;stroke-linejoin:miter;stroke:rgb(74.901962%,74.901962%,74.901962%);stroke-opacity:1;stroke-miterlimit:4;" d="M 188.109375 -88.171875 C 188.109375 -87.621094 187.660156 -87.171875 187.109375 -87.171875 C 186.554688 -87.171875 186.109375 -87.621094 186.109375 -88.171875 C 186.109375 -88.726562 186.554688 -89.171875 187.109375 -89.171875 C 187.660156 -89.171875 188.109375 -88.726562 188.109375 -88.171875 Z M 188.109375 -88.171875 " transform="matrix(1,0,0,1,4,206)"/>
<path style="fill:none;stroke-width:1;stroke-linecap:butt;stroke-linejoin:miter;stroke:rgb(74.901962%,74.901962%,74.901962%);stroke-opacity:1;stroke-miterlimit:4;" d="M 142.480469 -178.210938 C 153.574219 -162.203125 174.386719 -132.179688 186.53125 -114.660156 " transform="matrix(1,0,0,1,4,206)"/>
<path style="fill-rule:nonzero;fill:rgb(74.901962%,74.901962%,74.901962%);fill-opacity:1;stroke-width:1;stroke-linecap:butt;stroke-linejoin:miter;stroke:rgb(74.901962%,74.901962%,74.901962%);stroke-opacity:1;stroke-miterlimit:4;" d="M 188.109375 -113.828125 C 188.109375 -113.273438 187.660156 -112.828125 187.109375 -112.828125 C 186.554688 -112.828125 186.109375 -113.273438 186.109375 -113.828125 C 186.109375 -114.378906 186.554688 -114.828125 187.109375 -114.828125 C 187.660156 -114.828125 188.109375 -114.378906 188.109375 -113.828125 Z M 188.109375 -113.828125 " transform="matrix(1,0,0,1,4,206)"/>
</g>
</svg>
