<?xml version="1.0" encoding="UTF-8"?>
<svg xmlns="http://www.w3.org/2000/svg" xmlns:xlink="http://www.w3.org/1999/xlink" width="94pt" height="210pt" viewBox="0 0 94 210" version="1.1">
<g id="surface555">
<path style="fill:none;stroke-width:1;stroke-linecap:butt;stroke-linejoin:miter;stroke:rgb(49.803922%,49.803922%,49.803922%);stroke-opacity:1;stroke-miterlimit:4;" d="M 24 -143 C 24 -136.371094 18.628906 -131 12 -131 C 5.371094 -131 0 -136.371094 0 -143 C 0 -149.628906 5.371094 -155 12 -155 C 18.628906 -155 24 -149.628906 24 -143 Z M 24 -143 " transform="matrix(1,0,0,1,4,206)"/>
<path style=" stroke:none;fill-rule:nonzero;fill:rgb(0%,0%,0%);fill-opacity:1;" d="M 14.523438 62.167969 L 15.328125 60.535156 L 15.957031 60.535156 L 14.847656 62.652344 L 15.980469 64.800781 L 15.34375 64.800781 L 14.523438 63.136719 L 13.703125 64.800781 L 13.066406 64.800781 L 14.207031 62.652344 L 13.089844 60.535156 L 13.71875 60.535156 Z M 18.058594 64.800781 L 17.539062 64.800781 L 17.539062 61.1875 L 16.640625 61.589844 L 16.640625 61.097656 L 17.976562 60.515625 L 18.058594 60.515625 Z M 12.867188 59.234375 "/>
<path style="fill:none;stroke-width:1;stroke-linecap:butt;stroke-linejoin:miter;stroke:rgb(33.725491%,70.588237%,91.37255%);stroke-opacity:0.501961;stroke-dasharray:5,2;stroke-miterlimit:4;" d="M 82 -145 C 82 -140.03125 77.96875 -136 73 -136 C 68.03125 -136 64 -140.03125 64 -145 C 64 -149.96875 68.03125 -154 73 -154 C 77.96875 -154 82 -149.96875 82 -145 Z M 82 -145 " transform="matrix(1,0,0,1,4,206)"/>
<path style="fill:none;stroke-width:1;stroke-linecap:butt;stroke-linejoin:miter;stroke:rgb(33.725491%,70.588237%,91.37255%);stroke-opacity:0.501961;stroke-dasharray:5,2;stroke-miterlimit:4;" d="M 86 -145 C 86 -137.820312 80.179688 -132 73 -132 C 65.820312 -132 60 -137.820312 60 -145 C 60 -152.179688 65.820312 -158 73 -158 C 80.179688 -158 86 -152.179688 86 -145 Z M 86 -145 " transform="matrix(1,0,0,1,4,206)"/>
<path style=" stroke:none;fill-rule:nonzero;fill:rgb(0%,0%,0%);fill-opacity:1;" d="M 79.320312 64 L 78.421875 64 L 78.421875 60.714844 L 75.558594 60.714844 L 75.558594 64 L 74.664062 64 L 74.664062 56.890625 L 75.558594 56.890625 L 75.558594 59.945312 L 78.421875 59.945312 L 78.421875 56.890625 L 79.320312 56.890625 Z M 73.898438 54.722656 "/>
<path style="fill:none;stroke-width:1;stroke-linecap:butt;stroke-linejoin:miter;stroke:rgb(74.901962%,74.901962%,74.901962%);stroke-opacity:1;stroke-miterlimit:4;" d="M 24.050781 -143.394531 C 34.007812 -143.722656 48.164062 -144.1875 58.695312 -144.53125 " transform="matrix(1,0,0,1,4,206)"/>
<path style="fill-rule:nonzero;fill:rgb(74.901962%,74.901962%,74.901962%);fill-opacity:1;stroke-width:1;stroke-linecap:butt;stroke-linejoin:miter;stroke:rgb(74.901962%,74.901962%,74.901962%);stroke-opacity:1;stroke-miterlimit:4;" d="M 59.703125 -144.550781 C 59.703125 -144.328125 59.523438 -144.152344 59.304688 -144.152344 C 59.082031 -144.152344 58.902344 -144.328125 58.902344 -144.550781 C 58.902344 -144.773438 59.082031 -144.949219 59.304688 -144.949219 C 59.523438 -144.949219 59.703125 -144.773438 59.703125 -144.550781 Z M 59.703125 -144.550781 " transform="matrix(1,0,0,1,4,206)"/>
<path style="fill:none;stroke-width:1;stroke-linecap:butt;stroke-linejoin:miter;stroke:rgb(33.725491%,70.588237%,91.37255%);stroke-opacity:0.501961;stroke-dasharray:5,2;stroke-miterlimit:4;" d="M 82 -101 C 82 -96.03125 77.96875 -92 73 -92 C 68.03125 -92 64 -96.03125 64 -101 C 64 -105.96875 68.03125 -110 73 -110 C 77.96875 -110 82 -105.96875 82 -101 Z M 82 -101 " transform="matrix(1,0,0,1,4,206)"/>
<path style="fill:none;stroke-width:1;stroke-linecap:butt;stroke-linejoin:miter;stroke:rgb(33.725491%,70.588237%,91.37255%);stroke-opacity:0.501961;stroke-dasharray:5,2;stroke-miterlimit:4;" d="M 86 -101 C 86 -93.820312 80.179688 -88 73 -88 C 65.820312 -88 60 -93.820312 60 -101 C 60 -108.179688 65.820312 -114 73 -114 C 80.179688 -114 86 -108.179688 86 -101 Z M 86 -101 " transform="matrix(1,0,0,1,4,206)"/>
<path style=" stroke:none;fill-rule:nonzero;fill:rgb(0%,0%,0%);fill-opacity:1;" d="M 79.320312 108 L 78.421875 108 L 78.421875 104.714844 L 75.558594 104.714844 L 75.558594 108 L 74.664062 108 L 74.664062 100.890625 L 75.558594 100.890625 L 75.558594 103.945312 L 78.421875 103.945312 L 78.421875 100.890625 L 79.320312 100.890625 Z M 73.898438 98.722656 "/>
<path style="fill:none;stroke-width:1;stroke-linecap:butt;stroke-linejoin:miter;stroke:rgb(74.901962%,74.901962%,74.901962%);stroke-opacity:1;stroke-miterlimit:4;" d="M 22.074219 -136.066406 C 32.78125 -128.691406 49.703125 -117.039062 61.070312 -109.214844 " transform="matrix(1,0,0,1,4,206)"/>
<path style="fill-rule:nonzero;fill:rgb(74.901962%,74.901962%,74.901962%);fill-opacity:1;stroke-width:1;stroke-linecap:butt;stroke-linejoin:miter;stroke:rgb(74.901962%,74.901962%,74.901962%);stroke-opacity:1;stroke-miterlimit:4;" d="M 61.949219 -108.882812 C 61.949219 -108.664062 61.769531 -108.484375 61.546875 -108.484375 C 61.328125 -108.484375 61.148438 -108.664062 61.148438 -108.882812 C 61.148438 -109.105469 61.328125 -109.285156 61.546875 -109.285156 C 61.769531 -109.285156 61.949219 -109.105469 61.949219 -108.882812 Z M 61.949219 -108.882812 " transform="matrix(1,0,0,1,4,206)"/>
<path style="fill:none;stroke-width:1;stroke-linecap:butt;stroke-linejoin:miter;stroke:rgb(33.725491%,70.588237%,91.37255%);stroke-opacity:0.501961;stroke-dasharray:5,2;stroke-miterlimit:4;" d="M 82 -57 C 82 -52.03125 77.96875 -48 73 -48 C 68.03125 -48 64 -52.03125 64 -57 C 64 -61.96875 68.03125 -66 73 -66 C 77.96875 -66 82 -61.96875 82 -57 Z M 82 -57 " transform="matrix(1,0,0,1,4,206)"/>
<path style="fill:none;stroke-width:1;stroke-linecap:butt;stroke-linejoin:miter;stroke:rgb(33.725491%,70.588237%,91.37255%);stroke-opacity:0.501961;stroke-dasharray:5,2;stroke-miterlimit:4;" d="M 86 -57 C 86 -49.820312 80.179688 -44 73 -44 C 65.820312 -44 60 -49.820312 60 -57 C 60 -64.179688 65.820312 -70 73 -70 C 80.179688 -70 86 -64.179688 86 -57 Z M 86 -57 " transform="matrix(1,0,0,1,4,206)"/>
<path style=" stroke:none;fill-rule:nonzero;fill:rgb(0%,0%,0%);fill-opacity:1;" d="M 79.320312 152 L 78.421875 152 L 78.421875 148.714844 L 75.558594 148.714844 L 75.558594 152 L 74.664062 152 L 74.664062 144.890625 L 75.558594 144.890625 L 75.558594 147.945312 L 78.421875 147.945312 L 78.421875 144.890625 L 79.320312 144.890625 Z M 73.898438 142.722656 "/>
<path style="fill:none;stroke-width:1;stroke-linecap:butt;stroke-linejoin:miter;stroke:rgb(74.901962%,74.901962%,74.901962%);stroke-opacity:1;stroke-miterlimit:4;" d="M 18.996094 -133.132812 C 30.332031 -117.152344 52.660156 -85.671875 64.753906 -68.628906 " transform="matrix(1,0,0,1,4,206)"/>
<path style="fill-rule:nonzero;fill:rgb(74.901962%,74.901962%,74.901962%);fill-opacity:1;stroke-width:1;stroke-linecap:butt;stroke-linejoin:miter;stroke:rgb(74.901962%,74.901962%,74.901962%);stroke-opacity:1;stroke-miterlimit:4;" d="M 65.488281 -68.152344 C 65.488281 -67.933594 65.308594 -67.753906 65.089844 -67.753906 C 64.867188 -67.753906 64.6875 -67.933594 64.6875 -68.152344 C 64.6875 -68.375 64.867188 -68.554688 65.089844 -68.554688 C 65.308594 -68.554688 65.488281 -68.375 65.488281 -68.152344 Z M 65.488281 -68.152344 " transform="matrix(1,0,0,1,4,206)"/>
<path style="fill:none;stroke-width:1;stroke-linecap:butt;stroke-linejoin:miter;stroke:rgb(33.725491%,70.588237%,91.37255%);stroke-opacity:0.501961;stroke-dasharray:5,2;stroke-miterlimit:4;" d="M 82 -13 C 82 -8.03125 77.96875 -4 73 -4 C 68.03125 -4 64 -8.03125 64 -13 C 64 -17.96875 68.03125 -22 73 -22 C 77.96875 -22 82 -17.96875 82 -13 Z M 82 -13 " transform="matrix(1,0,0,1,4,206)"/>
<path style="fill:none;stroke-width:1;stroke-linecap:butt;stroke-linejoin:miter;stroke:rgb(33.725491%,70.588237%,91.37255%);stroke-opacity:0.501961;stroke-dasharray:5,2;stroke-miterlimit:4;" d="M 86 -13 C 86 -5.820312 80.179688 0 73 0 C 65.820312 0 60 -5.820312 60 -13 C 60 -20.179688 65.820312 -26 73 -26 C 80.179688 -26 86 -20.179688 86 -13 Z M 86 -13 " transform="matrix(1,0,0,1,4,206)"/>
<path style=" stroke:none;fill-rule:nonzero;fill:rgb(0%,0%,0%);fill-opacity:1;" d="M 79.320312 196 L 78.421875 196 L 78.421875 192.714844 L 75.558594 192.714844 L 75.558594 196 L 74.664062 196 L 74.664062 188.890625 L 75.558594 188.890625 L 75.558594 191.945312 L 78.421875 191.945312 L 78.421875 188.890625 L 79.320312 188.890625 Z M 73.898438 186.722656 "/>
<path style="fill:none;stroke-width:1;stroke-linecap:butt;stroke-linejoin:miter;stroke:rgb(74.901962%,74.901962%,74.901962%);stroke-opacity:1;stroke-miterlimit:4;" d="M 18.371094 -132.457031 C 20.273438 -129.15625 22.300781 -125.46875 24 -122 C 42.417969 -84.425781 41.308594 -72.441406 60 -35 C 61.652344 -31.691406 63.605469 -28.203125 65.492188 -25.003906 " transform="matrix(1,0,0,1,4,206)"/>
<path style="fill-rule:nonzero;fill:rgb(74.901962%,74.901962%,74.901962%);fill-opacity:1;stroke-width:1;stroke-linecap:butt;stroke-linejoin:miter;stroke:rgb(74.901962%,74.901962%,74.901962%);stroke-opacity:1;stroke-miterlimit:4;" d="M 66.269531 -24.367188 C 66.269531 -24.144531 66.089844 -23.964844 65.871094 -23.964844 C 65.648438 -23.964844 65.46875 -24.144531 65.46875 -24.367188 C 65.46875 -24.585938 65.648438 -24.765625 65.871094 -24.765625 C 66.089844 -24.765625 66.269531 -24.585938 66.269531 -24.367188 Z M 66.269531 -24.367188 " transform="matrix(1,0,0,1,4,206)"/>
<path style="fill:none;stroke-width:1;stroke-linecap:butt;stroke-linejoin:miter;stroke:rgb(33.725491%,70.588237%,91.37255%);stroke-opacity:0.501961;stroke-dasharray:5,2;stroke-miterlimit:4;" d="M 82 -189 C 82 -184.03125 77.96875 -180 73 -180 C 68.03125 -180 64 -184.03125 64 -189 C 64 -193.96875 68.03125 -198 73 -198 C 77.96875 -198 82 -193.96875 82 -189 Z M 82 -189 " transform="matrix(1,0,0,1,4,206)"/>
<path style="fill:none;stroke-width:1;stroke-linecap:butt;stroke-linejoin:miter;stroke:rgb(33.725491%,70.588237%,91.37255%);stroke-opacity:0.501961;stroke-dasharray:5,2;stroke-miterlimit:4;" d="M 86 -189 C 86 -181.820312 80.179688 -176 73 -176 C 65.820312 -176 60 -181.820312 60 -189 C 60 -196.179688 65.820312 -202 73 -202 C 80.179688 -202 86 -196.179688 86 -189 Z M 86 -189 " transform="matrix(1,0,0,1,4,206)"/>
<path style=" stroke:none;fill-rule:nonzero;fill:rgb(0%,0%,0%);fill-opacity:1;" d="M 79.320312 20 L 78.421875 20 L 78.421875 16.714844 L 75.558594 16.714844 L 75.558594 20 L 74.664062 20 L 74.664062 12.890625 L 75.558594 12.890625 L 75.558594 15.945312 L 78.421875 15.945312 L 78.421875 12.890625 L 79.320312 12.890625 Z M 73.898438 10.722656 "/>
<path style="fill:none;stroke-width:1;stroke-linecap:butt;stroke-linejoin:miter;stroke:rgb(74.901962%,74.901962%,74.901962%);stroke-opacity:1;stroke-miterlimit:4;" d="M 21.800781 -150.390625 C 32.71875 -158.625 50.339844 -171.914062 61.796875 -180.550781 " transform="matrix(1,0,0,1,4,206)"/>
<path style="fill-rule:nonzero;fill:rgb(74.901962%,74.901962%,74.901962%);fill-opacity:1;stroke-width:1;stroke-linecap:butt;stroke-linejoin:miter;stroke:rgb(74.901962%,74.901962%,74.901962%);stroke-opacity:1;stroke-miterlimit:4;" d="M 62.691406 -180.925781 C 62.691406 -180.703125 62.511719 -180.523438 62.292969 -180.523438 C 62.070312 -180.523438 61.890625 -180.703125 61.890625 -180.925781 C 61.890625 -181.144531 62.070312 -181.324219 62.292969 -181.324219 C 62.511719 -181.324219 62.691406 -181.144531 62.691406 -180.925781 Z M 62.691406 -180.925781 " transform="matrix(1,0,0,1,4,206)"/>
<path style="fill:none;stroke-width:1;stroke-linecap:butt;stroke-linejoin:miter;stroke:rgb(49.803922%,49.803922%,49.803922%);stroke-opacity:1;stroke-miterlimit:4;" d="M 24 -101 C 24 -94.371094 18.628906 -89 12 -89 C 5.371094 -89 0 -94.371094 0 -101 C 0 -107.628906 5.371094 -113 12 -113 C 18.628906 -113 24 -107.628906 24 -101 Z M 24 -101 " transform="matrix(1,0,0,1,4,206)"/>
<path style=" stroke:none;fill-rule:nonzero;fill:rgb(0%,0%,0%);fill-opacity:1;" d="M 14.523438 104.167969 L 15.328125 102.535156 L 15.957031 102.535156 L 14.847656 104.652344 L 15.980469 106.800781 L 15.34375 106.800781 L 14.523438 105.136719 L 13.703125 106.800781 L 13.066406 106.800781 L 14.207031 104.652344 L 13.089844 102.535156 L 13.71875 102.535156 Z M 18.898438 106.800781 L 16.515625 106.800781 L 16.515625 106.410156 L 17.730469 104.800781 C 17.914062 104.550781 18.042969 104.347656 18.113281 104.1875 C 18.183594 104.027344 18.21875 103.863281 18.21875 103.683594 C 18.21875 103.457031 18.167969 103.273438 18.0625 103.132812 C 17.957031 102.992188 17.816406 102.921875 17.644531 102.921875 C 17.429688 102.921875 17.261719 102.996094 17.144531 103.144531 C 17.023438 103.292969 16.964844 103.511719 16.964844 103.792969 L 16.445312 103.792969 C 16.445312 103.398438 16.554688 103.082031 16.769531 102.839844 C 16.984375 102.597656 17.277344 102.476562 17.644531 102.476562 C 17.984375 102.476562 18.253906 102.582031 18.449219 102.789062 C 18.644531 102.996094 18.742188 103.273438 18.742188 103.621094 C 18.742188 104.042969 18.523438 104.539062 18.082031 105.117188 L 17.132812 106.359375 L 18.898438 106.359375 Z M 12.867188 101.234375 "/>
<path style="fill:none;stroke-width:1;stroke-linecap:butt;stroke-linejoin:miter;stroke:rgb(74.901962%,74.901962%,74.901962%);stroke-opacity:1;stroke-miterlimit:4;" d="M 21.800781 -108.070312 C 32.589844 -115.851562 49.917969 -128.351562 61.378906 -136.617188 " transform="matrix(1,0,0,1,4,206)"/>
<path style="fill-rule:nonzero;fill:rgb(74.901962%,74.901962%,74.901962%);fill-opacity:1;stroke-width:1;stroke-linecap:butt;stroke-linejoin:miter;stroke:rgb(74.901962%,74.901962%,74.901962%);stroke-opacity:1;stroke-miterlimit:4;" d="M 62.269531 -136.972656 C 62.269531 -136.75 62.09375 -136.574219 61.871094 -136.574219 C 61.648438 -136.574219 61.472656 -136.75 61.472656 -136.972656 C 61.472656 -137.195312 61.648438 -137.371094 61.871094 -137.371094 C 62.09375 -137.371094 62.269531 -137.195312 62.269531 -136.972656 Z M 62.269531 -136.972656 " transform="matrix(1,0,0,1,4,206)"/>
<path style="fill:none;stroke-width:1;stroke-linecap:butt;stroke-linejoin:miter;stroke:rgb(74.901962%,74.901962%,74.901962%);stroke-opacity:1;stroke-miterlimit:4;" d="M 24.050781 -101 C 34.007812 -101 48.164062 -101 58.695312 -101 " transform="matrix(1,0,0,1,4,206)"/>
<path style="fill-rule:nonzero;fill:rgb(74.901962%,74.901962%,74.901962%);fill-opacity:1;stroke-width:1;stroke-linecap:butt;stroke-linejoin:miter;stroke:rgb(74.901962%,74.901962%,74.901962%);stroke-opacity:1;stroke-miterlimit:4;" d="M 59.703125 -101 C 59.703125 -100.777344 59.523438 -100.601562 59.304688 -100.601562 C 59.082031 -100.601562 58.902344 -100.777344 58.902344 -101 C 58.902344 -101.222656 59.082031 -101.398438 59.304688 -101.398438 C 59.523438 -101.398438 59.703125 -101.222656 59.703125 -101 Z M 59.703125 -101 " transform="matrix(1,0,0,1,4,206)"/>
<path style="fill:none;stroke-width:1;stroke-linecap:butt;stroke-linejoin:miter;stroke:rgb(74.901962%,74.901962%,74.901962%);stroke-opacity:1;stroke-miterlimit:4;" d="M 21.800781 -93.929688 C 32.589844 -86.148438 49.917969 -73.648438 61.378906 -65.382812 " transform="matrix(1,0,0,1,4,206)"/>
<path style="fill-rule:nonzero;fill:rgb(74.901962%,74.901962%,74.901962%);fill-opacity:1;stroke-width:1;stroke-linecap:butt;stroke-linejoin:miter;stroke:rgb(74.901962%,74.901962%,74.901962%);stroke-opacity:1;stroke-miterlimit:4;" d="M 62.269531 -65.027344 C 62.269531 -64.804688 62.09375 -64.628906 61.871094 -64.628906 C 61.648438 -64.628906 61.472656 -64.804688 61.472656 -65.027344 C 61.472656 -65.25 61.648438 -65.425781 61.871094 -65.425781 C 62.09375 -65.425781 62.269531 -65.25 62.269531 -65.027344 Z M 62.269531 -65.027344 " transform="matrix(1,0,0,1,4,206)"/>
<path style="fill:none;stroke-width:1;stroke-linecap:butt;stroke-linejoin:miter;stroke:rgb(74.901962%,74.901962%,74.901962%);stroke-opacity:1;stroke-miterlimit:4;" d="M 18.996094 -90.90625 C 30.394531 -74.460938 52.90625 -41.988281 64.949219 -24.613281 " transform="matrix(1,0,0,1,4,206)"/>
<path style="fill-rule:nonzero;fill:rgb(74.901962%,74.901962%,74.901962%);fill-opacity:1;stroke-width:1;stroke-linecap:butt;stroke-linejoin:miter;stroke:rgb(74.901962%,74.901962%,74.901962%);stroke-opacity:1;stroke-miterlimit:4;" d="M 65.6875 -24.128906 C 65.6875 -23.90625 65.507812 -23.726562 65.285156 -23.726562 C 65.066406 -23.726562 64.886719 -23.90625 64.886719 -24.128906 C 64.886719 -24.347656 65.066406 -24.527344 65.285156 -24.527344 C 65.507812 -24.527344 65.6875 -24.347656 65.6875 -24.128906 Z M 65.6875 -24.128906 " transform="matrix(1,0,0,1,4,206)"/>
<path style="fill:none;stroke-width:1;stroke-linecap:butt;stroke-linejoin:miter;stroke:rgb(74.901962%,74.901962%,74.901962%);stroke-opacity:1;stroke-miterlimit:4;" d="M 18.996094 -111.09375 C 30.394531 -127.539062 52.90625 -160.011719 64.949219 -177.386719 " transform="matrix(1,0,0,1,4,206)"/>
<path style="fill-rule:nonzero;fill:rgb(74.901962%,74.901962%,74.901962%);fill-opacity:1;stroke-width:1;stroke-linecap:butt;stroke-linejoin:miter;stroke:rgb(74.901962%,74.901962%,74.901962%);stroke-opacity:1;stroke-miterlimit:4;" d="M 65.6875 -177.871094 C 65.6875 -177.652344 65.507812 -177.472656 65.285156 -177.472656 C 65.066406 -177.472656 64.886719 -177.652344 64.886719 -177.871094 C 64.886719 -178.09375 65.066406 -178.273438 65.285156 -178.273438 C 65.507812 -178.273438 65.6875 -178.09375 65.6875 -177.871094 Z M 65.6875 -177.871094 " transform="matrix(1,0,0,1,4,206)"/>
<path style="fill:none;stroke-width:1;stroke-linecap:butt;stroke-linejoin:miter;stroke:rgb(49.803922%,49.803922%,49.803922%);stroke-opacity:1;stroke-miterlimit:4;" d="M 24 -59 C 24 -52.371094 18.628906 -47 12 -47 C 5.371094 -47 0 -52.371094 0 -59 C 0 -65.628906 5.371094 -71 12 -71 C 18.628906 -71 24 -65.628906 24 -59 Z M 24 -59 " transform="matrix(1,0,0,1,4,206)"/>
<path style=" stroke:none;fill-rule:nonzero;fill:rgb(0%,0%,0%);fill-opacity:1;" d="M 14.523438 146.167969 L 15.328125 144.535156 L 15.957031 144.535156 L 14.847656 146.652344 L 15.980469 148.800781 L 15.34375 148.800781 L 14.523438 147.136719 L 13.703125 148.800781 L 13.066406 148.800781 L 14.207031 146.652344 L 13.089844 144.535156 L 13.71875 144.535156 Z M 17.175781 146.402344 L 17.507812 146.402344 C 17.71875 146.402344 17.882812 146.339844 18 146.207031 C 18.117188 146.078125 18.171875 145.898438 18.171875 145.671875 C 18.171875 145.171875 17.980469 144.921875 17.59375 144.921875 C 17.40625 144.921875 17.261719 144.988281 17.15625 145.125 C 17.050781 145.257812 17 145.433594 17 145.652344 L 16.484375 145.652344 C 16.484375 145.3125 16.585938 145.03125 16.792969 144.808594 C 17 144.585938 17.269531 144.476562 17.59375 144.476562 C 17.929688 144.476562 18.195312 144.582031 18.390625 144.792969 C 18.589844 145.003906 18.6875 145.300781 18.6875 145.683594 C 18.6875 145.878906 18.636719 146.066406 18.535156 146.234375 C 18.433594 146.40625 18.296875 146.53125 18.132812 146.613281 C 18.535156 146.761719 18.738281 147.09375 18.738281 147.613281 C 18.738281 147.992188 18.632812 148.296875 18.421875 148.519531 C 18.210938 148.746094 17.929688 148.859375 17.589844 148.859375 C 17.25 148.859375 16.980469 148.753906 16.769531 148.539062 C 16.5625 148.324219 16.460938 148.035156 16.460938 147.675781 L 16.976562 147.675781 C 16.976562 147.902344 17.03125 148.082031 17.140625 148.214844 C 17.25 148.347656 17.398438 148.417969 17.589844 148.417969 C 17.78125 148.417969 17.9375 148.351562 18.050781 148.222656 C 18.164062 148.089844 18.222656 147.890625 18.222656 147.621094 C 18.222656 147.105469 17.976562 146.847656 17.488281 146.847656 L 17.175781 146.847656 Z M 12.867188 143.234375 "/>
<path style="fill:none;stroke-width:1;stroke-linecap:butt;stroke-linejoin:miter;stroke:rgb(74.901962%,74.901962%,74.901962%);stroke-opacity:1;stroke-miterlimit:4;" d="M 18.996094 -68.867188 C 30.332031 -84.847656 52.660156 -116.328125 64.753906 -133.371094 " transform="matrix(1,0,0,1,4,206)"/>
<path style="fill-rule:nonzero;fill:rgb(74.901962%,74.901962%,74.901962%);fill-opacity:1;stroke-width:1;stroke-linecap:butt;stroke-linejoin:miter;stroke:rgb(74.901962%,74.901962%,74.901962%);stroke-opacity:1;stroke-miterlimit:4;" d="M 65.488281 -133.847656 C 65.488281 -133.625 65.308594 -133.445312 65.089844 -133.445312 C 64.867188 -133.445312 64.6875 -133.625 64.6875 -133.847656 C 64.6875 -134.066406 64.867188 -134.246094 65.089844 -134.246094 C 65.308594 -134.246094 65.488281 -134.066406 65.488281 -133.847656 Z M 65.488281 -133.847656 " transform="matrix(1,0,0,1,4,206)"/>
<path style="fill:none;stroke-width:1;stroke-linecap:butt;stroke-linejoin:miter;stroke:rgb(74.901962%,74.901962%,74.901962%);stroke-opacity:1;stroke-miterlimit:4;" d="M 22.074219 -65.933594 C 32.78125 -73.308594 49.703125 -84.960938 61.070312 -92.785156 " transform="matrix(1,0,0,1,4,206)"/>
<path style="fill-rule:nonzero;fill:rgb(74.901962%,74.901962%,74.901962%);fill-opacity:1;stroke-width:1;stroke-linecap:butt;stroke-linejoin:miter;stroke:rgb(74.901962%,74.901962%,74.901962%);stroke-opacity:1;stroke-miterlimit:4;" d="M 61.949219 -93.117188 C 61.949219 -92.894531 61.769531 -92.714844 61.546875 -92.714844 C 61.328125 -92.714844 61.148438 -92.894531 61.148438 -93.117188 C 61.148438 -93.335938 61.328125 -93.515625 61.546875 -93.515625 C 61.769531 -93.515625 61.949219 -93.335938 61.949219 -93.117188 Z M 61.949219 -93.117188 " transform="matrix(1,0,0,1,4,206)"/>
<path style="fill:none;stroke-width:1;stroke-linecap:butt;stroke-linejoin:miter;stroke:rgb(74.901962%,74.901962%,74.901962%);stroke-opacity:1;stroke-miterlimit:4;" d="M 24.050781 -58.605469 C 34.007812 -58.277344 48.164062 -57.8125 58.695312 -57.46875 " transform="matrix(1,0,0,1,4,206)"/>
<path style="fill-rule:nonzero;fill:rgb(74.901962%,74.901962%,74.901962%);fill-opacity:1;stroke-width:1;stroke-linecap:butt;stroke-linejoin:miter;stroke:rgb(74.901962%,74.901962%,74.901962%);stroke-opacity:1;stroke-miterlimit:4;" d="M 59.703125 -57.449219 C 59.703125 -57.226562 59.523438 -57.050781 59.304688 -57.050781 C 59.082031 -57.050781 58.902344 -57.226562 58.902344 -57.449219 C 58.902344 -57.671875 59.082031 -57.847656 59.304688 -57.847656 C 59.523438 -57.847656 59.703125 -57.671875 59.703125 -57.449219 Z M 59.703125 -57.449219 " transform="matrix(1,0,0,1,4,206)"/>
<path style="fill:none;stroke-width:1;stroke-linecap:butt;stroke-linejoin:miter;stroke:rgb(74.901962%,74.901962%,74.901962%);stroke-opacity:1;stroke-miterlimit:4;" d="M 21.800781 -51.609375 C 32.71875 -43.375 50.339844 -30.085938 61.796875 -21.449219 " transform="matrix(1,0,0,1,4,206)"/>
<path style="fill-rule:nonzero;fill:rgb(74.901962%,74.901962%,74.901962%);fill-opacity:1;stroke-width:1;stroke-linecap:butt;stroke-linejoin:miter;stroke:rgb(74.901962%,74.901962%,74.901962%);stroke-opacity:1;stroke-miterlimit:4;" d="M 62.691406 -21.074219 C 62.691406 -20.855469 62.511719 -20.675781 62.292969 -20.675781 C 62.070312 -20.675781 61.890625 -20.855469 61.890625 -21.074219 C 61.890625 -21.296875 62.070312 -21.476562 62.292969 -21.476562 C 62.511719 -21.476562 62.691406 -21.296875 62.691406 -21.074219 Z M 62.691406 -21.074219 " transform="matrix(1,0,0,1,4,206)"/>
<path style="fill:none;stroke-width:1;stroke-linecap:butt;stroke-linejoin:miter;stroke:rgb(74.901962%,74.901962%,74.901962%);stroke-opacity:1;stroke-miterlimit:4;" d="M 18.371094 -69.542969 C 20.273438 -72.84375 22.300781 -76.53125 24 -80 C 42.417969 -117.574219 41.308594 -129.558594 60 -167 C 61.652344 -170.308594 63.605469 -173.796875 65.492188 -176.996094 " transform="matrix(1,0,0,1,4,206)"/>
<path style="fill-rule:nonzero;fill:rgb(74.901962%,74.901962%,74.901962%);fill-opacity:1;stroke-width:1;stroke-linecap:butt;stroke-linejoin:miter;stroke:rgb(74.901962%,74.901962%,74.901962%);stroke-opacity:1;stroke-miterlimit:4;" d="M 66.269531 -177.632812 C 66.269531 -177.414062 66.089844 -177.234375 65.871094 -177.234375 C 65.648438 -177.234375 65.46875 -177.414062 65.46875 -177.632812 C 65.46875 -177.855469 65.648438 -178.035156 65.871094 -178.035156 C 66.089844 -178.035156 66.269531 -177.855469 66.269531 -177.632812 Z M 66.269531 -177.632812 " transform="matrix(1,0,0,1,4,206)"/>
</g>
</svg>
