<?xml version="1.0" encoding="UTF-8"?>
<svg xmlns="http://www.w3.org/2000/svg" xmlns:xlink="http://www.w3.org/1999/xlink" width="394pt" height="255pt" viewBox="0 0 394 255" version="1.1">
<g id="surface1">
<path style=" stroke:none;fill-rule:nonzero;fill:rgb(100%,100%,100%);fill-opacity:1;" d="M 0.140625 255 L 0.140625 0 L 393.859375 0 L 393.859375 255 Z M 0.140625 255 "/>
<path style="fill:none;stroke-width:1;stroke-linecap:butt;stroke-linejoin:miter;stroke:rgb(33.725491%,70.588237%,91.37255%);stroke-opacity:0.501961;stroke-miterlimit:4;" d="M 163.369725 -208.722678 C 163.369725 -188.087029 146.639174 -171.352569 125.999616 -171.352569 C 105.360058 -171.352569 88.629507 -188.087029 88.629507 -208.722678 C 88.629507 -229.362236 105.360058 -246.092787 125.999616 -246.092787 C 146.639174 -246.092787 163.369725 -229.362236 163.369725 -208.722678 Z M 163.369725 -208.722678 " transform="matrix(0.999295,0,0,0.999295,4.136134,251.001236)"/>
<path style=" stroke:none;fill-rule:nonzero;fill:rgb(0%,0%,0%);fill-opacity:1;" d="M 109.363281 43.871094 C 109.363281 43.445312 109.246094 43.121094 109.015625 42.894531 C 108.785156 42.667969 108.371094 42.445312 107.769531 42.230469 C 107.167969 42.015625 106.707031 41.789062 106.386719 41.554688 C 106.070312 41.316406 105.832031 41.046875 105.675781 40.746094 C 105.519531 40.441406 105.4375 40.097656 105.4375 39.707031 C 105.4375 39.035156 105.664062 38.476562 106.113281 38.039062 C 106.5625 37.601562 107.152344 37.382812 107.886719 37.382812 C 108.386719 37.382812 108.832031 37.496094 109.222656 37.71875 C 109.613281 37.945312 109.910156 38.257812 110.121094 38.65625 C 110.332031 39.054688 110.441406 39.492188 110.441406 39.964844 L 109.363281 39.964844 C 109.363281 39.441406 109.234375 39.03125 108.980469 38.742188 C 108.726562 38.453125 108.363281 38.308594 107.886719 38.308594 C 107.453125 38.308594 107.113281 38.429688 106.878906 38.671875 C 106.640625 38.914062 106.519531 39.253906 106.519531 39.691406 C 106.519531 40.046875 106.648438 40.347656 106.90625 40.589844 C 107.164062 40.832031 107.5625 41.050781 108.101562 41.238281 C 108.941406 41.515625 109.542969 41.859375 109.902344 42.265625 C 110.265625 42.671875 110.445312 43.203125 110.445312 43.859375 C 110.445312 44.550781 110.222656 45.105469 109.769531 45.515625 C 109.320312 45.933594 108.710938 46.140625 107.9375 46.140625 C 107.441406 46.140625 106.984375 46.03125 106.5625 45.816406 C 106.144531 45.597656 105.8125 45.292969 105.578125 44.90625 C 105.335938 44.511719 105.21875 44.0625 105.21875 43.554688 L 106.292969 43.554688 C 106.292969 44.082031 106.4375 44.492188 106.734375 44.785156 C 107.027344 45.078125 107.429688 45.222656 107.9375 45.222656 C 108.410156 45.222656 108.765625 45.105469 109.003906 44.863281 C 109.242188 44.621094 109.363281 44.289062 109.363281 43.871094 Z M 111.480469 42.566406 C 111.480469 41.644531 111.707031 40.914062 112.152344 40.375 C 112.601562 39.839844 113.191406 39.574219 113.925781 39.574219 C 114.660156 39.574219 115.25 39.832031 115.699219 40.355469 C 116.144531 40.878906 116.375 41.589844 116.386719 42.496094 L 116.386719 43.160156 C 116.386719 44.078125 116.164062 44.808594 115.71875 45.335938 C 115.273438 45.871094 114.679688 46.140625 113.9375 46.140625 C 113.203125 46.140625 112.613281 45.882812 112.171875 45.359375 C 111.726562 44.84375 111.496094 44.144531 111.480469 43.253906 Z M 112.519531 43.160156 C 112.519531 43.8125 112.648438 44.328125 112.902344 44.699219 C 113.160156 45.074219 113.503906 45.257812 113.9375 45.257812 C 114.851562 45.257812 115.324219 44.597656 115.347656 43.277344 L 115.347656 42.566406 C 115.347656 41.917969 115.222656 41.402344 114.964844 41.027344 C 114.707031 40.648438 114.359375 40.460938 113.925781 40.460938 C 113.5 40.460938 113.160156 40.648438 112.902344 41.027344 C 112.648438 41.402344 112.519531 41.914062 112.519531 42.558594 Z M 119.921875 45.257812 C 120.265625 45.257812 120.539062 45.152344 120.75 44.941406 C 120.957031 44.726562 121.070312 44.425781 121.085938 44.027344 L 122.066406 44.027344 C 122.042969 44.636719 121.828125 45.144531 121.417969 45.539062 C 121.011719 45.941406 120.511719 46.140625 119.921875 46.140625 C 119.136719 46.140625 118.539062 45.894531 118.125 45.398438 C 117.714844 44.910156 117.507812 44.175781 117.507812 43.199219 L 117.507812 42.5 C 117.507812 41.542969 117.710938 40.816406 118.125 40.316406 C 118.535156 39.820312 119.132812 39.574219 119.914062 39.574219 C 120.5625 39.574219 121.078125 39.777344 121.460938 40.183594 C 121.839844 40.59375 122.042969 41.15625 122.066406 41.867188 L 121.085938 41.867188 C 121.0625 41.398438 120.953125 41.046875 120.75 40.8125 C 120.550781 40.578125 120.273438 40.460938 119.914062 40.460938 C 119.453125 40.460938 119.113281 40.613281 118.890625 40.914062 C 118.667969 41.21875 118.554688 41.714844 118.546875 42.40625 L 118.546875 43.214844 C 118.546875 43.960938 118.65625 44.488281 118.875 44.796875 C 119.097656 45.105469 119.445312 45.257812 119.921875 45.257812 Z M 123.332031 45.453125 C 123.332031 45.265625 123.386719 45.113281 123.5 44.988281 C 123.609375 44.863281 123.777344 44.800781 124 44.800781 C 124.222656 44.800781 124.390625 44.863281 124.507812 44.988281 C 124.621094 45.113281 124.679688 45.265625 124.679688 45.453125 C 124.679688 45.632812 124.621094 45.785156 124.507812 45.90625 C 124.390625 46.027344 124.222656 46.085938 124 46.085938 C 123.777344 46.085938 123.609375 46.027344 123.5 45.90625 C 123.386719 45.785156 123.332031 45.632812 123.332031 45.453125 Z M 133.039062 43.871094 C 133.039062 43.445312 132.921875 43.121094 132.691406 42.894531 C 132.460938 42.667969 132.046875 42.445312 131.445312 42.230469 C 130.84375 42.015625 130.382812 41.789062 130.0625 41.554688 C 129.746094 41.316406 129.507812 41.046875 129.347656 40.746094 C 129.191406 40.441406 129.109375 40.097656 129.109375 39.707031 C 129.109375 39.035156 129.335938 38.476562 129.789062 38.039062 C 130.238281 37.601562 130.828125 37.382812 131.5625 37.382812 C 132.0625 37.382812 132.507812 37.496094 132.898438 37.71875 C 133.289062 37.945312 133.582031 38.257812 133.792969 38.65625 C 134.003906 39.054688 134.113281 39.492188 134.113281 39.964844 L 133.039062 39.964844 C 133.039062 39.441406 132.910156 39.03125 132.65625 38.742188 C 132.402344 38.453125 132.039062 38.308594 131.5625 38.308594 C 131.128906 38.308594 130.789062 38.429688 130.554688 38.671875 C 130.316406 38.914062 130.195312 39.253906 130.195312 39.691406 C 130.195312 40.046875 130.324219 40.347656 130.582031 40.589844 C 130.839844 40.832031 131.238281 41.050781 131.777344 41.238281 C 132.617188 41.515625 133.21875 41.859375 133.574219 42.265625 C 133.9375 42.671875 134.117188 43.203125 134.117188 43.859375 C 134.117188 44.550781 133.894531 45.105469 133.441406 45.515625 C 132.996094 45.933594 132.386719 46.140625 131.613281 46.140625 C 131.117188 46.140625 130.660156 46.03125 130.238281 45.816406 C 129.820312 45.597656 129.488281 45.292969 129.25 44.90625 C 129.007812 44.511719 128.890625 44.0625 128.890625 43.554688 L 129.96875 43.554688 C 129.96875 44.082031 130.113281 44.492188 130.410156 44.785156 C 130.703125 45.078125 131.105469 45.222656 131.613281 45.222656 C 132.085938 45.222656 132.441406 45.105469 132.679688 44.863281 C 132.917969 44.621094 133.039062 44.289062 133.039062 43.871094 Z M 138.609375 45.46875 C 138.265625 45.917969 137.765625 46.140625 137.101562 46.140625 C 136.527344 46.140625 136.09375 45.941406 135.804688 45.546875 C 135.511719 45.152344 135.359375 44.574219 135.359375 43.816406 L 135.359375 39.691406 L 136.390625 39.691406 L 136.390625 43.742188 C 136.390625 44.730469 136.6875 45.222656 137.28125 45.222656 C 137.910156 45.222656 138.34375 44.941406 138.578125 44.378906 L 138.578125 39.691406 L 139.613281 39.691406 L 139.613281 46.023438 L 138.632812 46.023438 Z M 145.75 43.160156 C 145.75 44.164062 145.570312 44.914062 145.207031 45.402344 C 144.847656 45.894531 144.339844 46.140625 143.679688 46.140625 C 143.042969 46.140625 142.554688 45.898438 142.210938 45.421875 L 142.210938 48.460938 L 141.179688 48.460938 L 141.179688 39.691406 L 142.117188 39.691406 L 142.167969 40.390625 C 142.515625 39.84375 143.015625 39.574219 143.664062 39.574219 C 144.359375 39.574219 144.871094 39.8125 145.214844 40.296875 C 145.558594 40.78125 145.738281 41.503906 145.75 42.472656 Z M 144.71875 42.570312 C 144.71875 41.859375 144.609375 41.335938 144.394531 40.996094 C 144.175781 40.660156 143.824219 40.488281 143.339844 40.488281 C 142.84375 40.488281 142.46875 40.738281 142.210938 41.234375 L 142.210938 44.535156 C 142.464844 45.019531 142.84375 45.257812 143.351562 45.257812 C 143.820312 45.257812 144.164062 45.089844 144.386719 44.753906 C 144.601562 44.414062 144.714844 43.898438 144.71875 43.203125 Z M 151.664062 43.160156 C 151.664062 44.164062 151.484375 44.914062 151.121094 45.402344 C 150.761719 45.894531 150.25 46.140625 149.59375 46.140625 C 148.957031 46.140625 148.46875 45.898438 148.125 45.421875 L 148.125 48.460938 L 147.09375 48.460938 L 147.09375 39.691406 L 148.03125 39.691406 L 148.082031 40.390625 C 148.429688 39.84375 148.929688 39.574219 149.578125 39.574219 C 150.269531 39.574219 150.785156 39.8125 151.128906 40.296875 C 151.472656 40.78125 151.652344 41.503906 151.664062 42.472656 Z M 150.632812 42.570312 C 150.632812 41.859375 150.523438 41.335938 150.304688 40.996094 C 150.085938 40.660156 149.738281 40.488281 149.253906 40.488281 C 148.757812 40.488281 148.382812 40.738281 148.125 41.234375 L 148.125 44.535156 C 148.378906 45.019531 148.757812 45.257812 149.265625 45.257812 C 149.734375 45.257812 150.074219 45.089844 150.296875 44.753906 C 150.515625 44.414062 150.628906 43.898438 150.632812 43.203125 Z M 153.070312 45.453125 C 153.070312 45.265625 153.125 45.113281 153.238281 44.988281 C 153.347656 44.863281 153.515625 44.800781 153.738281 44.800781 C 153.960938 44.800781 154.128906 44.863281 154.246094 44.988281 C 154.359375 45.113281 154.417969 45.265625 154.417969 45.453125 C 154.417969 45.632812 154.359375 45.785156 154.246094 45.90625 C 154.128906 46.027344 153.960938 46.085938 153.738281 46.085938 C 153.515625 46.085938 153.347656 46.027344 153.238281 45.90625 C 153.125 45.785156 153.070312 45.632812 153.070312 45.453125 Z M 104.71875 34.898438 "/>
<path style="fill:none;stroke-width:1;stroke-linecap:butt;stroke-linejoin:miter;stroke:rgb(33.725491%,70.588237%,91.37255%);stroke-opacity:0.501961;stroke-miterlimit:4;" d="M 224.272058 -103.136484 C 224.272058 -85.86649 210.269994 -71.864426 193 -71.864426 C 175.730006 -71.864426 161.727942 -85.86649 161.727942 -103.136484 C 161.727942 -120.406478 175.730006 -134.404632 193 -134.404632 C 210.269994 -134.404632 224.272058 -120.406478 224.272058 -103.136484 Z M 224.272058 -103.136484 " transform="matrix(0.999295,0,0,0.999295,4.136134,251.001236)"/>
<path style=" stroke:none;fill-rule:nonzero;fill:rgb(0%,0%,0%);fill-opacity:1;" d="M 182.03125 149.382812 C 182.03125 148.957031 181.914062 148.632812 181.683594 148.40625 C 181.453125 148.179688 181.039062 147.957031 180.4375 147.742188 C 179.835938 147.527344 179.375 147.300781 179.054688 147.066406 C 178.738281 146.828125 178.5 146.558594 178.339844 146.257812 C 178.183594 145.953125 178.101562 145.609375 178.101562 145.21875 C 178.101562 144.546875 178.328125 143.988281 178.78125 143.550781 C 179.230469 143.113281 179.820312 142.894531 180.554688 142.894531 C 181.054688 142.894531 181.5 143.007812 181.890625 143.230469 C 182.28125 143.457031 182.578125 143.769531 182.789062 144.167969 C 183 144.566406 183.109375 145 183.109375 145.476562 L 182.03125 145.476562 C 182.03125 144.949219 181.902344 144.542969 181.648438 144.253906 C 181.394531 143.964844 181.03125 143.820312 180.554688 143.820312 C 180.121094 143.820312 179.78125 143.941406 179.546875 144.183594 C 179.308594 144.425781 179.1875 144.765625 179.1875 145.199219 C 179.1875 145.558594 179.316406 145.859375 179.574219 146.101562 C 179.832031 146.34375 180.230469 146.5625 180.769531 146.75 C 181.609375 147.027344 182.210938 147.371094 182.570312 147.777344 C 182.933594 148.183594 183.113281 148.714844 183.113281 149.371094 C 183.113281 150.0625 182.890625 150.613281 182.4375 151.027344 C 181.988281 151.445312 181.378906 151.652344 180.605469 151.652344 C 180.109375 151.652344 179.652344 151.542969 179.230469 151.328125 C 178.8125 151.109375 178.480469 150.804688 178.242188 150.414062 C 178 150.023438 177.882812 149.574219 177.882812 149.066406 L 178.960938 149.066406 C 178.960938 149.59375 179.105469 150.003906 179.402344 150.296875 C 179.695312 150.585938 180.097656 150.730469 180.605469 150.730469 C 181.078125 150.730469 181.433594 150.613281 181.671875 150.371094 C 181.910156 150.132812 182.03125 149.800781 182.03125 149.382812 Z M 186.632812 151.652344 C 185.84375 151.652344 185.242188 151.417969 184.820312 150.945312 C 184.398438 150.476562 184.179688 149.789062 184.171875 148.878906 L 184.171875 148.109375 C 184.171875 147.164062 184.378906 146.425781 184.792969 145.886719 C 185.203125 145.351562 185.78125 145.082031 186.515625 145.082031 C 187.257812 145.082031 187.8125 145.320312 188.179688 145.789062 C 188.546875 146.261719 188.730469 147 188.738281 148 L 188.738281 148.679688 L 185.203125 148.679688 L 185.203125 148.828125 C 185.203125 149.507812 185.332031 150 185.589844 150.308594 C 185.84375 150.613281 186.210938 150.769531 186.695312 150.769531 C 187 150.769531 187.265625 150.710938 187.5 150.59375 C 187.730469 150.480469 187.949219 150.300781 188.152344 150.050781 L 188.691406 150.703125 C 188.242188 151.335938 187.554688 151.652344 186.632812 151.652344 Z M 186.515625 145.972656 C 186.085938 145.972656 185.769531 146.121094 185.5625 146.414062 C 185.355469 146.710938 185.238281 147.167969 185.210938 147.789062 L 187.707031 147.789062 L 187.707031 147.648438 C 187.679688 147.046875 187.570312 146.617188 187.382812 146.359375 C 187.191406 146.101562 186.90625 145.972656 186.515625 145.972656 Z M 191.101562 151.535156 L 190.066406 151.535156 L 190.066406 142.542969 L 191.101562 142.542969 Z M 193.1875 151.535156 L 193.1875 146.039062 L 192.363281 146.039062 L 192.363281 145.199219 L 193.1875 145.199219 L 193.1875 144.472656 C 193.199219 143.828125 193.363281 143.324219 193.675781 142.960938 C 193.992188 142.601562 194.429688 142.417969 195.007812 142.417969 C 195.214844 142.417969 195.421875 142.453125 195.632812 142.519531 L 195.578125 143.398438 C 195.429688 143.363281 195.273438 143.347656 195.105469 143.347656 C 194.515625 143.347656 194.222656 143.765625 194.222656 144.605469 L 194.222656 145.199219 L 195.304688 145.199219 L 195.304688 146.039062 L 194.222656 146.039062 L 194.222656 151.535156 Z M 203.503906 147.59375 L 200.488281 147.59375 L 200.488281 150.613281 L 204.003906 150.613281 L 204.003906 151.535156 L 199.421875 151.535156 L 199.421875 143.011719 L 203.945312 143.011719 L 203.945312 143.9375 L 200.488281 143.9375 L 200.488281 146.675781 L 203.503906 146.675781 Z M 208.308594 149.914062 C 208.308594 149.691406 208.226562 149.5 208.054688 149.34375 C 207.886719 149.183594 207.5625 148.992188 207.085938 148.78125 C 206.527344 148.550781 206.132812 148.351562 205.902344 148.1875 C 205.675781 148.023438 205.503906 147.835938 205.390625 147.628906 C 205.28125 147.417969 205.222656 147.171875 205.222656 146.882812 C 205.222656 146.367188 205.410156 145.9375 205.785156 145.59375 C 206.164062 145.253906 206.644531 145.082031 207.230469 145.082031 C 207.847656 145.082031 208.34375 145.261719 208.71875 145.621094 C 209.09375 145.980469 209.28125 146.441406 209.28125 147.003906 L 208.25 147.003906 C 208.25 146.71875 208.15625 146.476562 207.960938 146.273438 C 207.769531 146.074219 207.527344 145.972656 207.230469 145.972656 C 206.925781 145.972656 206.6875 146.050781 206.511719 146.210938 C 206.339844 146.367188 206.25 146.578125 206.25 146.84375 C 206.25 147.054688 206.316406 147.226562 206.441406 147.355469 C 206.570312 147.484375 206.875 147.65625 207.359375 147.867188 C 208.128906 148.167969 208.652344 148.460938 208.929688 148.746094 C 209.207031 149.035156 209.34375 149.398438 209.34375 149.839844 C 209.34375 150.386719 209.15625 150.828125 208.777344 151.15625 C 208.398438 151.488281 207.890625 151.652344 207.253906 151.652344 C 206.59375 151.652344 206.058594 151.464844 205.648438 151.082031 C 205.242188 150.703125 205.035156 150.226562 205.035156 149.648438 L 206.078125 149.648438 C 206.089844 150 206.195312 150.273438 206.398438 150.46875 C 206.601562 150.667969 206.886719 150.769531 207.253906 150.769531 C 207.597656 150.769531 207.859375 150.691406 208.039062 150.535156 C 208.21875 150.382812 208.308594 150.179688 208.308594 149.914062 Z M 212.046875 143.667969 L 212.046875 145.199219 L 213 145.199219 L 213 146.039062 L 212.046875 146.039062 L 212.046875 149.96875 C 212.046875 150.21875 212.085938 150.402344 212.171875 150.535156 C 212.253906 150.664062 212.390625 150.726562 212.59375 150.726562 C 212.730469 150.726562 212.867188 150.703125 213.007812 150.65625 L 212.996094 151.535156 C 212.761719 151.613281 212.523438 151.652344 212.273438 151.652344 C 211.863281 151.652344 211.554688 151.503906 211.335938 151.214844 C 211.121094 150.921875 211.015625 150.503906 211.015625 149.976562 L 211.015625 146.039062 L 210.050781 146.039062 L 210.050781 145.199219 L 211.015625 145.199219 L 211.015625 143.667969 Z M 214.300781 150.964844 C 214.300781 150.777344 214.355469 150.621094 214.46875 150.496094 C 214.578125 150.371094 214.746094 150.3125 214.96875 150.3125 C 215.191406 150.3125 215.359375 150.371094 215.476562 150.496094 C 215.589844 150.621094 215.648438 150.777344 215.648438 150.964844 C 215.648438 151.144531 215.589844 151.296875 215.476562 151.417969 C 215.359375 151.539062 215.191406 151.597656 214.96875 151.597656 C 214.746094 151.597656 214.578125 151.539062 214.46875 151.417969 C 214.355469 151.296875 214.300781 151.144531 214.300781 150.964844 Z M 177.386719 140.410156 "/>
<path style="fill:none;stroke-width:1;stroke-linecap:butt;stroke-linejoin:miter;stroke:rgb(54.509807%,0%,0%);stroke-opacity:1;stroke-miterlimit:4;" d="M 146.10364 -177.044083 C 154.984905 -163.04202 165.375046 -146.671097 174.111677 -132.899665 " transform="matrix(0.999295,0,0,0.999295,4.136134,251.001236)"/>
<path style="fill-rule:nonzero;fill:rgb(54.509807%,0%,0%);fill-opacity:1;stroke-width:1;stroke-linecap:butt;stroke-linejoin:miter;stroke:rgb(54.509807%,0%,0%);stroke-opacity:1;stroke-miterlimit:4;" d="M 177.227156 -131.148429 C 177.227156 -130.04218 176.328084 -129.147018 175.225744 -129.147018 C 174.119495 -129.147018 173.224332 -130.04218 173.224332 -131.148429 C 173.224332 -132.250769 174.119495 -133.145932 175.225744 -133.145932 C 176.328084 -133.145932 177.227156 -132.250769 177.227156 -131.148429 Z M 177.227156 -131.148429 " transform="matrix(0.999295,0,0,0.999295,4.136134,251.001236)"/>
<path style="fill:none;stroke-width:1;stroke-linecap:butt;stroke-linejoin:miter;stroke:rgb(33.725491%,70.588237%,91.37255%);stroke-opacity:0.501961;stroke-miterlimit:4;" d="M 298.410289 -208.722678 C 298.410289 -187.512405 281.210657 -170.316682 260.000384 -170.316682 C 238.786202 -170.316682 221.590479 -187.512405 221.590479 -208.722678 C 221.590479 -229.93686 238.786202 -247.132583 260.000384 -247.132583 C 281.210657 -247.132583 298.410289 -229.93686 298.410289 -208.722678 Z M 298.410289 -208.722678 " transform="matrix(0.999295,0,0,0.999295,4.136134,251.001236)"/>
<path style=" stroke:none;fill-rule:nonzero;fill:rgb(0%,0%,0%);fill-opacity:1;" d="M 238.367188 46.023438 L 238.367188 37.5 L 240.394531 37.5 C 241.390625 37.5 242.164062 37.8125 242.714844 38.433594 C 243.265625 39.058594 243.542969 39.929688 243.542969 41.058594 L 243.542969 42.488281 C 243.542969 43.617188 243.261719 44.488281 242.703125 45.105469 C 242.144531 45.714844 241.332031 46.023438 240.269531 46.023438 Z M 239.433594 38.425781 L 239.433594 45.105469 L 240.292969 45.105469 C 241.046875 45.105469 241.597656 44.890625 241.949219 44.460938 C 242.296875 44.027344 242.472656 43.386719 242.480469 42.542969 L 242.480469 41.027344 C 242.480469 40.128906 242.308594 39.476562 241.960938 39.054688 C 241.617188 38.636719 241.09375 38.425781 240.394531 38.425781 Z M 247.324219 46.140625 C 246.535156 46.140625 245.933594 45.90625 245.511719 45.433594 C 245.089844 44.96875 244.871094 44.277344 244.863281 43.367188 L 244.863281 42.597656 C 244.863281 41.652344 245.070312 40.914062 245.484375 40.375 C 245.894531 39.839844 246.472656 39.574219 247.207031 39.574219 C 247.949219 39.574219 248.503906 39.808594 248.871094 40.277344 C 249.238281 40.75 249.425781 41.488281 249.433594 42.488281 L 249.433594 43.167969 L 245.894531 43.167969 L 245.894531 43.316406 C 245.894531 43.996094 246.023438 44.488281 246.28125 44.796875 C 246.535156 45.105469 246.902344 45.257812 247.386719 45.257812 C 247.691406 45.257812 247.957031 45.203125 248.191406 45.085938 C 248.421875 44.972656 248.640625 44.789062 248.84375 44.539062 L 249.382812 45.195312 C 248.933594 45.824219 248.246094 46.140625 247.324219 46.140625 Z M 247.207031 40.460938 C 246.777344 40.460938 246.460938 40.609375 246.253906 40.902344 C 246.046875 41.199219 245.929688 41.65625 245.902344 42.277344 L 248.398438 42.277344 L 248.398438 42.136719 C 248.371094 41.535156 248.261719 41.105469 248.074219 40.847656 C 247.882812 40.589844 247.597656 40.460938 247.207031 40.460938 Z M 255.253906 43.160156 C 255.253906 44.164062 255.078125 44.914062 254.714844 45.402344 C 254.355469 45.894531 253.84375 46.140625 253.183594 46.140625 C 252.546875 46.140625 252.058594 45.898438 251.714844 45.421875 L 251.714844 48.460938 L 250.683594 48.460938 L 250.683594 39.691406 L 251.621094 39.691406 L 251.671875 40.390625 C 252.019531 39.84375 252.519531 39.574219 253.167969 39.574219 C 253.863281 39.574219 254.378906 39.8125 254.722656 40.296875 C 255.066406 40.78125 255.242188 41.503906 255.253906 42.472656 Z M 254.226562 42.570312 C 254.226562 41.859375 254.117188 41.335938 253.898438 40.996094 C 253.679688 40.660156 253.328125 40.488281 252.84375 40.488281 C 252.347656 40.488281 251.972656 40.738281 251.714844 41.234375 L 251.714844 44.535156 C 251.96875 45.019531 252.347656 45.257812 252.855469 45.257812 C 253.324219 45.257812 253.667969 45.089844 253.890625 44.753906 C 254.109375 44.414062 254.222656 43.898438 254.226562 43.203125 Z M 259.207031 40.660156 C 259.0625 40.632812 258.910156 40.621094 258.738281 40.621094 C 258.207031 40.621094 257.839844 40.910156 257.628906 41.492188 L 257.628906 46.023438 L 256.589844 46.023438 L 256.589844 39.691406 L 257.597656 39.691406 L 257.613281 40.332031 C 257.890625 39.824219 258.285156 39.574219 258.792969 39.574219 C 258.957031 39.574219 259.09375 39.601562 259.203125 39.65625 Z M 262.390625 46.140625 C 261.601562 46.140625 261 45.90625 260.582031 45.433594 C 260.160156 44.96875 259.941406 44.277344 259.933594 43.367188 L 259.933594 42.597656 C 259.933594 41.652344 260.140625 40.914062 260.554688 40.375 C 260.960938 39.839844 261.539062 39.574219 262.273438 39.574219 C 263.015625 39.574219 263.570312 39.808594 263.9375 40.277344 C 264.304688 40.75 264.492188 41.488281 264.5 42.488281 L 264.5 43.167969 L 260.960938 43.167969 L 260.960938 43.316406 C 260.960938 43.996094 261.089844 44.488281 261.347656 44.796875 C 261.601562 45.105469 261.96875 45.257812 262.453125 45.257812 C 262.757812 45.257812 263.023438 45.203125 263.257812 45.085938 C 263.488281 44.972656 263.707031 44.789062 263.910156 44.539062 L 264.449219 45.195312 C 264 45.824219 263.3125 46.140625 262.390625 46.140625 Z M 262.273438 40.460938 C 261.84375 40.460938 261.527344 40.609375 261.320312 40.902344 C 261.113281 41.199219 260.996094 41.65625 260.96875 42.277344 L 263.464844 42.277344 L 263.464844 42.136719 C 263.4375 41.535156 263.328125 41.105469 263.140625 40.847656 C 262.949219 40.589844 262.664062 40.460938 262.273438 40.460938 Z M 268.820312 44.402344 C 268.820312 44.179688 268.738281 43.988281 268.566406 43.832031 C 268.398438 43.671875 268.074219 43.480469 267.597656 43.269531 C 267.039062 43.039062 266.644531 42.839844 266.414062 42.675781 C 266.1875 42.511719 266.019531 42.324219 265.90625 42.117188 C 265.792969 41.90625 265.734375 41.660156 265.734375 41.371094 C 265.734375 40.855469 265.925781 40.425781 266.296875 40.082031 C 266.675781 39.742188 267.15625 39.574219 267.742188 39.574219 C 268.359375 39.574219 268.855469 39.75 269.230469 40.109375 C 269.605469 40.46875 269.792969 40.929688 269.792969 41.492188 L 268.761719 41.492188 C 268.761719 41.207031 268.667969 40.964844 268.472656 40.761719 C 268.28125 40.5625 268.039062 40.460938 267.742188 40.460938 C 267.4375 40.460938 267.199219 40.539062 267.023438 40.699219 C 266.851562 40.855469 266.761719 41.066406 266.761719 41.332031 C 266.761719 41.542969 266.828125 41.714844 266.953125 41.84375 C 267.082031 41.972656 267.386719 42.144531 267.871094 42.355469 C 268.640625 42.65625 269.164062 42.949219 269.441406 43.234375 C 269.71875 43.523438 269.855469 43.886719 269.855469 44.328125 C 269.855469 44.878906 269.667969 45.316406 269.289062 45.644531 C 268.910156 45.976562 268.402344 46.140625 267.765625 46.140625 C 267.105469 46.140625 266.570312 45.953125 266.164062 45.570312 C 265.753906 45.195312 265.546875 44.714844 265.546875 44.136719 L 266.589844 44.136719 C 266.601562 44.488281 266.707031 44.761719 266.910156 44.960938 C 267.113281 45.160156 267.398438 45.257812 267.765625 45.257812 C 268.109375 45.257812 268.371094 45.183594 268.550781 45.027344 C 268.730469 44.875 268.820312 44.667969 268.820312 44.402344 Z M 274.285156 44.402344 C 274.285156 44.179688 274.203125 43.988281 274.03125 43.832031 C 273.863281 43.671875 273.539062 43.480469 273.0625 43.269531 C 272.503906 43.039062 272.109375 42.839844 271.878906 42.675781 C 271.65625 42.511719 271.484375 42.324219 271.371094 42.117188 C 271.257812 41.90625 271.199219 41.660156 271.199219 41.371094 C 271.199219 40.855469 271.390625 40.425781 271.761719 40.082031 C 272.140625 39.742188 272.621094 39.574219 273.207031 39.574219 C 273.824219 39.574219 274.320312 39.75 274.695312 40.109375 C 275.070312 40.46875 275.257812 40.929688 275.257812 41.492188 L 274.226562 41.492188 C 274.226562 41.207031 274.132812 40.964844 273.9375 40.761719 C 273.746094 40.5625 273.503906 40.460938 273.207031 40.460938 C 272.902344 40.460938 272.664062 40.539062 272.488281 40.699219 C 272.316406 40.855469 272.226562 41.066406 272.226562 41.332031 C 272.226562 41.542969 272.292969 41.714844 272.417969 41.84375 C 272.546875 41.972656 272.851562 42.144531 273.335938 42.355469 C 274.105469 42.65625 274.628906 42.949219 274.90625 43.234375 C 275.183594 43.523438 275.320312 43.886719 275.320312 44.328125 C 275.320312 44.878906 275.132812 45.316406 274.753906 45.644531 C 274.375 45.976562 273.867188 46.140625 273.230469 46.140625 C 272.570312 46.140625 272.035156 45.953125 271.628906 45.570312 C 271.21875 45.195312 271.011719 44.714844 271.011719 44.136719 L 272.054688 44.136719 C 272.066406 44.488281 272.171875 44.761719 272.375 44.960938 C 272.578125 45.160156 272.863281 45.257812 273.230469 45.257812 C 273.574219 45.257812 273.835938 45.183594 274.015625 45.027344 C 274.195312 44.875 274.285156 44.667969 274.285156 44.402344 Z M 277.785156 46.023438 L 276.753906 46.023438 L 276.753906 39.691406 L 277.785156 39.691406 Z M 277.871094 38.007812 C 277.871094 38.183594 277.820312 38.332031 277.722656 38.449219 C 277.625 38.566406 277.476562 38.625 277.277344 38.625 C 277.085938 38.625 276.9375 38.566406 276.84375 38.449219 C 276.746094 38.332031 276.695312 38.1875 276.695312 38.007812 C 276.695312 37.832031 276.742188 37.6875 276.84375 37.5625 C 276.941406 37.441406 277.085938 37.382812 277.277344 37.382812 C 277.472656 37.382812 277.621094 37.445312 277.71875 37.566406 C 277.820312 37.691406 277.871094 37.835938 277.871094 38.007812 Z M 279.195312 42.566406 C 279.195312 41.644531 279.421875 40.914062 279.867188 40.375 C 280.316406 39.839844 280.90625 39.574219 281.640625 39.574219 C 282.375 39.574219 282.960938 39.832031 283.410156 40.355469 C 283.855469 40.878906 284.085938 41.589844 284.097656 42.496094 L 284.097656 43.160156 C 284.097656 44.078125 283.875 44.808594 283.429688 45.335938 C 282.984375 45.871094 282.394531 46.140625 281.652344 46.140625 C 280.917969 46.140625 280.328125 45.882812 279.886719 45.359375 C 279.441406 44.84375 279.210938 44.144531 279.195312 43.253906 Z M 280.234375 43.160156 C 280.234375 43.8125 280.363281 44.328125 280.617188 44.699219 C 280.875 45.074219 281.21875 45.257812 281.652344 45.257812 C 282.566406 45.257812 283.035156 44.597656 283.058594 43.277344 L 283.058594 42.566406 C 283.058594 41.917969 282.933594 41.402344 282.679688 41.027344 C 282.421875 40.648438 282.074219 40.460938 281.640625 40.460938 C 281.214844 40.460938 280.875 40.648438 280.617188 41.027344 C 280.363281 41.402344 280.234375 41.914062 280.234375 42.558594 Z M 286.410156 39.691406 L 286.441406 40.371094 C 286.84375 39.835938 287.355469 39.574219 287.980469 39.574219 C 289.097656 39.574219 289.667969 40.316406 289.683594 41.816406 L 289.683594 46.023438 L 288.652344 46.023438 L 288.652344 41.863281 C 288.652344 41.367188 288.570312 41.011719 288.402344 40.804688 C 288.242188 40.59375 287.992188 40.488281 287.660156 40.488281 C 287.402344 40.488281 287.171875 40.574219 286.964844 40.746094 C 286.761719 40.917969 286.597656 41.144531 286.472656 41.421875 L 286.472656 46.023438 L 285.433594 46.023438 L 285.433594 39.691406 Z M 237.445312 34.898438 "/>
<path style="fill:none;stroke-width:1;stroke-linecap:butt;stroke-linejoin:miter;stroke:rgb(54.509807%,0%,0%);stroke-opacity:1;stroke-miterlimit:4;" d="M 163.424451 -208.722678 C 181.429339 -208.722678 199.434226 -208.722678 217.435204 -208.722678 " transform="matrix(0.999295,0,0,0.999295,4.136134,251.001236)"/>
<path style="fill-rule:nonzero;fill:rgb(54.509807%,0%,0%);fill-opacity:1;stroke-width:1;stroke-linecap:butt;stroke-linejoin:miter;stroke:rgb(54.509807%,0%,0%);stroke-opacity:1;stroke-miterlimit:4;" d="M 221.520117 -208.722678 C 221.520117 -207.620338 220.624954 -206.725175 219.522614 -206.725175 C 218.416365 -206.725175 217.521202 -207.620338 217.521202 -208.722678 C 217.521202 -209.828927 218.416365 -210.72409 219.522614 -210.72409 C 220.624954 -210.72409 221.520117 -209.828927 221.520117 -208.722678 Z M 221.520117 -208.722678 " transform="matrix(0.999295,0,0,0.999295,4.136134,251.001236)"/>
<path style="fill:none;stroke-width:1;stroke-linecap:butt;stroke-linejoin:miter;stroke:rgb(49.803922%,49.803922%,49.803922%);stroke-opacity:1;stroke-miterlimit:4;" d="M 24.00189 -121.133553 C 24.00189 -121.133553 12.001238 -121.133553 12.001238 -121.133553 C 6.000912 -121.133553 0.000585503 -115.133227 0.000585503 -109.13681 C 0.000585503 -109.13681 0.000585503 -97.136157 0.000585503 -97.136157 C 0.000585503 -91.135831 6.000912 -85.135505 12.001238 -85.135505 C 12.001238 -85.135505 24.00189 -85.135505 24.00189 -85.135505 C 29.998307 -85.135505 35.998633 -91.135831 35.998633 -97.136157 C 35.998633 -97.136157 35.998633 -109.13681 35.998633 -109.13681 C 35.998633 -115.133227 29.998307 -121.133553 24.00189 -121.133553 " transform="matrix(0.999295,0,0,0.999295,4.136134,251.001236)"/>
<path style=" stroke:none;fill-rule:nonzero;fill:rgb(0%,0%,0%);fill-opacity:1;" d="M 14.707031 147.582031 L 15.613281 145.65625 L 16.613281 145.65625 L 15.175781 148.265625 L 16.644531 150.933594 L 15.65625 150.933594 L 14.722656 148.960938 L 13.785156 150.933594 L 12.789062 150.933594 L 14.257812 148.265625 L 12.828125 145.65625 L 13.820312 145.65625 Z M 22.355469 150.933594 L 21.484375 150.933594 L 21.484375 144.917969 L 19.992188 145.585938 L 19.992188 144.769531 L 22.21875 143.796875 L 22.355469 143.796875 Z M 24.847656 150.460938 C 24.847656 150.308594 24.894531 150.175781 24.988281 150.074219 C 25.082031 149.96875 25.21875 149.917969 25.402344 149.917969 C 25.589844 149.917969 25.730469 149.96875 25.828125 150.074219 C 25.921875 150.179688 25.972656 150.308594 25.972656 150.460938 C 25.972656 150.609375 25.921875 150.734375 25.828125 150.835938 C 25.730469 150.9375 25.589844 150.988281 25.402344 150.988281 C 25.21875 150.988281 25.078125 150.9375 24.988281 150.835938 C 24.894531 150.734375 24.847656 150.609375 24.847656 150.460938 Z M 29.917969 150.933594 L 29.046875 150.933594 L 29.046875 144.917969 L 27.558594 145.585938 L 27.558594 144.769531 L 29.78125 143.796875 L 29.917969 143.796875 Z M 12.535156 141.664062 "/>
<path style="fill:none;stroke-width:1;stroke-linecap:butt;stroke-linejoin:miter;stroke:rgb(74.901962%,74.901962%,74.901962%);stroke-opacity:1;stroke-miterlimit:4;" d="M 94.094299 -180.914001 C 78.85308 -167.25202 60.58238 -150.310383 45.001077 -134.267817 C 41.00998 -130.16336 36.87816 -125.585912 33.082514 -121.227369 " transform="matrix(0.999295,0,0,0.999295,4.136134,251.001236)"/>
<path style="fill-rule:nonzero;fill:rgb(74.901962%,74.901962%,74.901962%);fill-opacity:1;stroke-width:1;stroke-linecap:butt;stroke-linejoin:miter;stroke:rgb(74.901962%,74.901962%,74.901962%);stroke-opacity:1;stroke-miterlimit:4;" d="M 93.007595 -182.289971 L 97.901672 -184.314837 L 95.337363 -179.678754 Z M 93.007595 -182.289971 " transform="matrix(0.999295,0,0,0.999295,4.136134,251.001236)"/>
<path style="fill:none;stroke-width:1;stroke-linecap:butt;stroke-linejoin:miter;stroke:rgb(49.803922%,49.803922%,49.803922%);stroke-opacity:1;stroke-miterlimit:4;" d="M 78.000916 -121.133553 C 78.000916 -121.133553 66.000264 -121.133553 66.000264 -121.133553 C 59.999938 -121.133553 53.999612 -115.133227 53.999612 -109.13681 C 53.999612 -109.13681 53.999612 -97.136157 53.999612 -97.136157 C 53.999612 -91.135831 59.999938 -85.135505 66.000264 -85.135505 C 66.000264 -85.135505 78.000916 -85.135505 78.000916 -85.135505 C 84.001242 -85.135505 90.001568 -91.135831 90.001568 -97.136157 C 90.001568 -97.136157 90.001568 -109.13681 90.001568 -109.13681 C 90.001568 -115.133227 84.001242 -121.133553 78.000916 -121.133553 " transform="matrix(0.999295,0,0,0.999295,4.136134,251.001236)"/>
<path style=" stroke:none;fill-rule:nonzero;fill:rgb(0%,0%,0%);fill-opacity:1;" d="M 68.667969 147.582031 L 69.574219 145.65625 L 70.574219 145.65625 L 69.136719 148.265625 L 70.605469 150.933594 L 69.617188 150.933594 L 68.683594 148.960938 L 67.746094 150.933594 L 66.753906 150.933594 L 68.21875 148.265625 L 66.792969 145.65625 L 67.78125 145.65625 Z M 76.316406 150.933594 L 75.445312 150.933594 L 75.445312 144.917969 L 73.953125 145.585938 L 73.953125 144.769531 L 76.179688 143.796875 L 76.316406 143.796875 Z M 78.808594 150.460938 C 78.808594 150.308594 78.855469 150.175781 78.949219 150.074219 C 79.042969 149.96875 79.179688 149.917969 79.363281 149.917969 C 79.550781 149.917969 79.691406 149.96875 79.789062 150.074219 C 79.882812 150.179688 79.933594 150.308594 79.933594 150.460938 C 79.933594 150.609375 79.882812 150.734375 79.789062 150.835938 C 79.691406 150.9375 79.550781 150.988281 79.363281 150.988281 C 79.179688 150.988281 79.039062 150.9375 78.949219 150.835938 C 78.855469 150.734375 78.808594 150.609375 78.808594 150.460938 Z M 85.28125 150.933594 L 81.308594 150.933594 L 81.308594 150.289062 L 83.335938 147.601562 C 83.636719 147.1875 83.851562 146.851562 83.96875 146.585938 C 84.085938 146.320312 84.148438 146.039062 84.148438 145.742188 C 84.148438 145.363281 84.058594 145.058594 83.882812 144.828125 C 83.707031 144.59375 83.480469 144.476562 83.195312 144.476562 C 82.832031 144.476562 82.554688 144.601562 82.355469 144.847656 C 82.160156 145.09375 82.0625 145.453125 82.0625 145.921875 L 81.199219 145.921875 C 81.199219 145.269531 81.375 144.742188 81.734375 144.339844 C 82.09375 143.9375 82.578125 143.734375 83.195312 143.734375 C 83.757812 143.734375 84.203125 143.90625 84.527344 144.253906 C 84.851562 144.601562 85.015625 145.058594 85.015625 145.632812 C 85.015625 146.335938 84.648438 147.167969 83.917969 148.128906 L 82.339844 150.199219 L 85.28125 150.199219 Z M 66.5 141.664062 "/>
<path style="fill:none;stroke-width:1;stroke-linecap:butt;stroke-linejoin:miter;stroke:rgb(74.901962%,74.901962%,74.901962%);stroke-opacity:1;stroke-miterlimit:4;" d="M 106.665666 -170.918669 C 98.050214 -154.066939 88.297241 -134.998802 81.335299 -121.387638 " transform="matrix(0.999295,0,0,0.999295,4.136134,251.001236)"/>
<path style="fill-rule:nonzero;fill:rgb(74.901962%,74.901962%,74.901962%);fill-opacity:1;stroke-width:1;stroke-linecap:butt;stroke-linejoin:miter;stroke:rgb(74.901962%,74.901962%,74.901962%);stroke-opacity:1;stroke-miterlimit:4;" d="M 105.227151 -171.950647 L 109.061888 -175.605569 L 108.34263 -170.355772 Z M 105.227151 -171.950647 " transform="matrix(0.999295,0,0,0.999295,4.136134,251.001236)"/>
<path style="fill:none;stroke-width:1;stroke-linecap:butt;stroke-linejoin:miter;stroke:rgb(49.803922%,49.803922%,49.803922%);stroke-opacity:1;stroke-miterlimit:4;" d="M 131.999942 -121.133553 C 131.999942 -121.133553 119.99929 -121.133553 119.99929 -121.133553 C 113.998964 -121.133553 107.998638 -115.133227 107.998638 -109.13681 C 107.998638 -109.13681 107.998638 -97.136157 107.998638 -97.136157 C 107.998638 -91.135831 113.998964 -85.135505 119.99929 -85.135505 C 119.99929 -85.135505 131.999942 -85.135505 131.999942 -85.135505 C 138.000268 -85.135505 144.000594 -91.135831 144.000594 -97.136157 C 144.000594 -97.136157 144.000594 -109.13681 144.000594 -109.13681 C 144.000594 -115.133227 138.000268 -121.133553 131.999942 -121.133553 " transform="matrix(0.999295,0,0,0.999295,4.136134,251.001236)"/>
<path style=" stroke:none;fill-rule:nonzero;fill:rgb(0%,0%,0%);fill-opacity:1;" d="M 122.628906 147.582031 L 123.535156 145.65625 L 124.535156 145.65625 L 123.097656 148.265625 L 124.566406 150.933594 L 123.578125 150.933594 L 122.644531 148.960938 L 121.710938 150.933594 L 120.714844 150.933594 L 122.183594 148.265625 L 120.753906 145.65625 L 121.746094 145.65625 Z M 130.277344 150.933594 L 129.40625 150.933594 L 129.40625 144.917969 L 127.914062 145.585938 L 127.914062 144.769531 L 130.140625 143.796875 L 130.277344 143.796875 Z M 132.773438 150.460938 C 132.773438 150.308594 132.820312 150.175781 132.914062 150.074219 C 133.007812 149.96875 133.144531 149.917969 133.328125 149.917969 C 133.511719 149.917969 133.652344 149.96875 133.75 150.074219 C 133.84375 150.179688 133.894531 150.308594 133.894531 150.460938 C 133.894531 150.609375 133.84375 150.734375 133.75 150.835938 C 133.652344 150.9375 133.511719 150.988281 133.328125 150.988281 C 133.144531 150.988281 133.003906 150.9375 132.914062 150.835938 C 132.820312 150.734375 132.773438 150.609375 132.773438 150.460938 Z M 136.375 146.945312 L 136.925781 146.945312 C 137.28125 146.945312 137.554688 146.835938 137.746094 146.617188 C 137.9375 146.398438 138.035156 146.101562 138.035156 145.722656 C 138.035156 144.890625 137.710938 144.476562 137.066406 144.476562 C 136.757812 144.476562 136.515625 144.589844 136.339844 144.8125 C 136.164062 145.035156 136.074219 145.328125 136.074219 145.695312 L 135.214844 145.695312 C 135.214844 145.125 135.390625 144.65625 135.738281 144.289062 C 136.082031 143.917969 136.527344 143.734375 137.066406 143.734375 C 137.628906 143.734375 138.070312 143.910156 138.402344 144.257812 C 138.730469 144.609375 138.890625 145.101562 138.890625 145.742188 C 138.890625 146.070312 138.808594 146.378906 138.636719 146.664062 C 138.464844 146.949219 138.246094 147.15625 137.972656 147.289062 C 138.640625 147.539062 138.972656 148.09375 138.972656 148.953125 C 138.972656 149.589844 138.800781 150.09375 138.445312 150.46875 C 138.09375 150.84375 137.632812 151.03125 137.0625 151.03125 C 136.5 151.03125 136.042969 150.851562 135.699219 150.496094 C 135.351562 150.144531 135.175781 149.664062 135.175781 149.0625 L 136.042969 149.0625 C 136.042969 149.441406 136.132812 149.742188 136.316406 149.964844 C 136.496094 150.1875 136.746094 150.296875 137.0625 150.296875 C 137.386719 150.296875 137.640625 150.1875 137.832031 149.96875 C 138.023438 149.75 138.117188 149.421875 138.117188 148.976562 C 138.117188 148.113281 137.707031 147.679688 136.890625 147.679688 L 136.375 147.679688 Z M 120.460938 141.664062 "/>
<path style="fill:none;stroke-width:1;stroke-linecap:butt;stroke-linejoin:miter;stroke:rgb(74.901962%,74.901962%,74.901962%);stroke-opacity:1;stroke-miterlimit:4;" d="M 125.999616 -166.259132 C 125.999616 -150.646558 125.999616 -133.775282 125.999616 -121.411092 " transform="matrix(0.999295,0,0,0.999295,4.136134,251.001236)"/>
<path style="fill-rule:nonzero;fill:rgb(74.901962%,74.901962%,74.901962%);fill-opacity:1;stroke-width:1;stroke-linecap:butt;stroke-linejoin:miter;stroke:rgb(74.901962%,74.901962%,74.901962%);stroke-opacity:1;stroke-miterlimit:4;" d="M 124.248381 -166.497582 L 125.999616 -171.497202 L 127.750851 -166.497582 Z M 124.248381 -166.497582 " transform="matrix(0.999295,0,0,0.999295,4.136134,251.001236)"/>
<path style="fill:none;stroke-width:1;stroke-linecap:butt;stroke-linejoin:miter;stroke:rgb(54.509807%,0%,0%);stroke-opacity:1;stroke-miterlimit:4;" d="M 209.875184 -129.725551 C 218.12319 -142.726909 228.177156 -158.570115 237.105329 -172.64645 " transform="matrix(0.999295,0,0,0.999295,4.136134,251.001236)"/>
<path style="fill-rule:nonzero;fill:rgb(54.509807%,0%,0%);fill-opacity:1;stroke-width:1;stroke-linecap:butt;stroke-linejoin:miter;stroke:rgb(54.509807%,0%,0%);stroke-opacity:1;stroke-miterlimit:4;" d="M 240.279443 -174.495411 C 240.279443 -173.389162 239.38428 -172.493999 238.278031 -172.493999 C 237.175691 -172.493999 236.280528 -173.389162 236.280528 -174.495411 C 236.280528 -175.597751 237.175691 -176.492913 238.278031 -176.492913 C 239.38428 -176.492913 240.279443 -175.597751 240.279443 -174.495411 Z M 240.279443 -174.495411 " transform="matrix(0.999295,0,0,0.999295,4.136134,251.001236)"/>
<path style="fill:none;stroke-width:1;stroke-linecap:butt;stroke-linejoin:miter;stroke:rgb(49.803922%,49.803922%,49.803922%);stroke-opacity:1;stroke-miterlimit:4;" d="M 145.0013 -35.999284 C 145.0013 -35.999284 133.000648 -35.999284 133.000648 -35.999284 C 127.000322 -35.999284 120.999996 -29.998958 120.999996 -23.998632 C 120.999996 -23.998632 120.999996 -12.001889 120.999996 -12.001889 C 120.999996 -6.001563 127.000322 -0.0012365 133.000648 -0.0012365 C 133.000648 -0.0012365 145.0013 -0.0012365 145.0013 -0.0012365 C 151.001626 -0.0012365 157.001952 -6.001563 157.001952 -12.001889 C 157.001952 -12.001889 157.001952 -23.998632 157.001952 -23.998632 C 157.001952 -29.998958 151.001626 -35.999284 145.0013 -35.999284 " transform="matrix(0.999295,0,0,0.999295,4.136134,251.001236)"/>
<path style=" stroke:none;fill-rule:nonzero;fill:rgb(0%,0%,0%);fill-opacity:1;" d="M 135.621094 232.660156 L 136.527344 230.734375 L 137.527344 230.734375 L 136.089844 233.34375 L 137.558594 236.011719 L 136.570312 236.011719 L 135.636719 234.035156 L 134.699219 236.011719 L 133.703125 236.011719 L 135.171875 233.34375 L 133.742188 230.734375 L 134.734375 230.734375 Z M 144.667969 236.011719 L 140.695312 236.011719 L 140.695312 235.363281 L 142.722656 232.679688 C 143.027344 232.265625 143.242188 231.929688 143.359375 231.664062 C 143.476562 231.398438 143.539062 231.117188 143.539062 230.820312 C 143.539062 230.441406 143.449219 230.136719 143.273438 229.902344 C 143.097656 229.667969 142.867188 229.550781 142.582031 229.550781 C 142.21875 229.550781 141.941406 229.675781 141.742188 229.925781 C 141.546875 230.171875 141.449219 230.53125 141.449219 231 L 140.585938 231 C 140.585938 230.347656 140.761719 229.816406 141.121094 229.414062 C 141.480469 229.011719 141.964844 228.808594 142.582031 228.808594 C 143.148438 228.808594 143.59375 228.980469 143.917969 229.328125 C 144.242188 229.675781 144.40625 230.136719 144.40625 230.710938 C 144.40625 231.414062 144.039062 232.246094 143.308594 233.207031 L 141.726562 235.273438 L 144.667969 235.273438 Z M 145.761719 235.539062 C 145.761719 235.382812 145.808594 235.25 145.902344 235.148438 C 145.996094 235.042969 146.132812 234.992188 146.316406 234.992188 C 146.503906 234.992188 146.644531 235.042969 146.742188 235.148438 C 146.835938 235.253906 146.886719 235.382812 146.886719 235.539062 C 146.886719 235.6875 146.835938 235.8125 146.742188 235.914062 C 146.644531 236.015625 146.503906 236.066406 146.316406 236.066406 C 146.132812 236.066406 145.992188 236.015625 145.902344 235.914062 C 145.808594 235.8125 145.761719 235.6875 145.761719 235.539062 Z M 150.832031 236.011719 L 149.960938 236.011719 L 149.960938 229.996094 L 148.472656 230.664062 L 148.472656 229.84375 L 150.695312 228.871094 L 150.832031 228.871094 Z M 133.449219 226.742188 "/>
<path style="fill:none;stroke-width:1;stroke-linecap:butt;stroke-linejoin:miter;stroke:rgb(74.901962%,74.901962%,74.901962%);stroke-opacity:1;stroke-miterlimit:4;" d="M 176.210814 -76.664687 C 168.635158 -64.722669 159.800802 -50.794877 152.643409 -39.509573 " transform="matrix(0.999295,0,0,0.999295,4.136134,251.001236)"/>
<path style="fill-rule:nonzero;fill:rgb(74.901962%,74.901962%,74.901962%);fill-opacity:1;stroke-width:1;stroke-linecap:butt;stroke-linejoin:miter;stroke:rgb(74.901962%,74.901962%,74.901962%);stroke-opacity:1;stroke-miterlimit:4;" d="M 153.550299 -37.7857 C 153.550299 -36.679451 152.655136 -35.784289 151.548887 -35.784289 C 150.442638 -35.784289 149.547476 -36.679451 149.547476 -37.7857 C 149.547476 -38.888041 150.442638 -39.783203 151.548887 -39.783203 C 152.655136 -39.783203 153.550299 -38.888041 153.550299 -37.7857 Z M 153.550299 -37.7857 " transform="matrix(0.999295,0,0,0.999295,4.136134,251.001236)"/>
<path style="fill:none;stroke-width:1;stroke-linecap:butt;stroke-linejoin:miter;stroke:rgb(49.803922%,49.803922%,49.803922%);stroke-opacity:1;stroke-miterlimit:4;" d="M 199.000326 -35.999284 C 199.000326 -35.999284 186.999674 -35.999284 186.999674 -35.999284 C 180.999348 -35.999284 174.999022 -29.998958 174.999022 -23.998632 C 174.999022 -23.998632 174.999022 -12.001889 174.999022 -12.001889 C 174.999022 -6.001563 180.999348 -0.0012365 186.999674 -0.0012365 C 186.999674 -0.0012365 199.000326 -0.0012365 199.000326 -0.0012365 C 205.000652 -0.0012365 211.000978 -6.001563 211.000978 -12.001889 C 211.000978 -12.001889 211.000978 -23.998632 211.000978 -23.998632 C 211.000978 -29.998958 205.000652 -35.999284 199.000326 -35.999284 " transform="matrix(0.999295,0,0,0.999295,4.136134,251.001236)"/>
<path style=" stroke:none;fill-rule:nonzero;fill:rgb(0%,0%,0%);fill-opacity:1;" d="M 189.582031 232.660156 L 190.488281 230.734375 L 191.488281 230.734375 L 190.050781 233.34375 L 191.519531 236.011719 L 190.53125 236.011719 L 189.597656 234.035156 L 188.664062 236.011719 L 187.667969 236.011719 L 189.132812 233.34375 L 187.707031 230.734375 L 188.699219 230.734375 Z M 198.632812 236.011719 L 194.65625 236.011719 L 194.65625 235.363281 L 196.683594 232.679688 C 196.988281 232.265625 197.203125 231.929688 197.320312 231.664062 C 197.4375 231.398438 197.5 231.117188 197.5 230.820312 C 197.5 230.441406 197.410156 230.136719 197.234375 229.902344 C 197.058594 229.667969 196.828125 229.550781 196.542969 229.550781 C 196.179688 229.550781 195.902344 229.675781 195.703125 229.925781 C 195.507812 230.171875 195.410156 230.53125 195.410156 231 L 194.546875 231 C 194.546875 230.347656 194.722656 229.816406 195.082031 229.414062 C 195.441406 229.011719 195.925781 228.808594 196.542969 228.808594 C 197.109375 228.808594 197.554688 228.980469 197.878906 229.328125 C 198.203125 229.675781 198.367188 230.136719 198.367188 230.710938 C 198.367188 231.414062 198 232.246094 197.269531 233.207031 L 195.6875 235.273438 L 198.632812 235.273438 Z M 199.726562 235.539062 C 199.726562 235.382812 199.769531 235.25 199.863281 235.148438 C 199.957031 235.042969 200.09375 234.992188 200.277344 234.992188 C 200.464844 234.992188 200.605469 235.042969 200.703125 235.148438 C 200.796875 235.253906 200.847656 235.382812 200.847656 235.539062 C 200.847656 235.6875 200.796875 235.8125 200.703125 235.914062 C 200.605469 236.015625 200.464844 236.066406 200.277344 236.066406 C 200.09375 236.066406 199.953125 236.015625 199.863281 235.914062 C 199.769531 235.8125 199.726562 235.6875 199.726562 235.539062 Z M 206.195312 236.011719 L 202.222656 236.011719 L 202.222656 235.363281 L 204.25 232.679688 C 204.554688 232.265625 204.769531 231.929688 204.886719 231.664062 C 205.003906 231.398438 205.066406 231.117188 205.066406 230.820312 C 205.066406 230.441406 204.976562 230.136719 204.800781 229.902344 C 204.625 229.667969 204.394531 229.550781 204.109375 229.550781 C 203.746094 229.550781 203.46875 229.675781 203.269531 229.925781 C 203.074219 230.171875 202.976562 230.53125 202.976562 231 L 202.113281 231 C 202.113281 230.347656 202.289062 229.816406 202.648438 229.414062 C 203.007812 229.011719 203.492188 228.808594 204.109375 228.808594 C 204.675781 228.808594 205.121094 228.980469 205.441406 229.328125 C 205.765625 229.675781 205.929688 230.136719 205.929688 230.710938 C 205.929688 231.414062 205.5625 232.246094 204.835938 233.207031 L 203.253906 235.273438 L 206.195312 235.273438 Z M 187.414062 226.742188 "/>
<path style="fill:none;stroke-width:1;stroke-linecap:butt;stroke-linejoin:miter;stroke:rgb(74.901962%,74.901962%,74.901962%);stroke-opacity:1;stroke-miterlimit:4;" d="M 193 -71.919152 C 193 -61.454739 193 -50.001348 193 -40.353918 " transform="matrix(0.999295,0,0,0.999295,4.136134,251.001236)"/>
<path style="fill-rule:nonzero;fill:rgb(74.901962%,74.901962%,74.901962%);fill-opacity:1;stroke-width:1;stroke-linecap:butt;stroke-linejoin:miter;stroke:rgb(74.901962%,74.901962%,74.901962%);stroke-opacity:1;stroke-miterlimit:4;" d="M 195.001412 -38.336871 C 195.001412 -37.23453 194.106249 -36.339368 193 -36.339368 C 191.893751 -36.339368 190.998588 -37.23453 190.998588 -38.336871 C 190.998588 -39.44312 191.893751 -40.338282 193 -40.338282 C 194.106249 -40.338282 195.001412 -39.44312 195.001412 -38.336871 Z M 195.001412 -38.336871 " transform="matrix(0.999295,0,0,0.999295,4.136134,251.001236)"/>
<path style="fill:none;stroke-width:1;stroke-linecap:butt;stroke-linejoin:miter;stroke:rgb(49.803922%,49.803922%,49.803922%);stroke-opacity:1;stroke-miterlimit:4;" d="M 252.999352 -35.999284 C 252.999352 -35.999284 240.9987 -35.999284 240.9987 -35.999284 C 234.998374 -35.999284 228.998048 -29.998958 228.998048 -23.998632 C 228.998048 -23.998632 228.998048 -12.001889 228.998048 -12.001889 C 228.998048 -6.001563 234.998374 -0.0012365 240.9987 -0.0012365 C 240.9987 -0.0012365 252.999352 -0.0012365 252.999352 -0.0012365 C 258.999678 -0.0012365 265.000004 -6.001563 265.000004 -12.001889 C 265.000004 -12.001889 265.000004 -23.998632 265.000004 -23.998632 C 265.000004 -29.998958 258.999678 -35.999284 252.999352 -35.999284 " transform="matrix(0.999295,0,0,0.999295,4.136134,251.001236)"/>
<path style=" stroke:none;fill-rule:nonzero;fill:rgb(0%,0%,0%);fill-opacity:1;" d="M 243.546875 232.660156 L 244.449219 230.734375 L 245.449219 230.734375 L 244.015625 233.34375 L 245.480469 236.011719 L 244.492188 236.011719 L 243.5625 234.035156 L 242.625 236.011719 L 241.628906 236.011719 L 243.097656 233.34375 L 241.667969 230.734375 L 242.660156 230.734375 Z M 252.59375 236.011719 L 248.621094 236.011719 L 248.621094 235.363281 L 250.644531 232.679688 C 250.949219 232.265625 251.164062 231.929688 251.28125 231.664062 C 251.398438 231.398438 251.460938 231.117188 251.460938 230.820312 C 251.460938 230.441406 251.371094 230.136719 251.195312 229.902344 C 251.019531 229.667969 250.789062 229.550781 250.503906 229.550781 C 250.140625 229.550781 249.863281 229.675781 249.664062 229.925781 C 249.472656 230.171875 249.375 230.53125 249.375 231 L 248.511719 231 C 248.511719 230.347656 248.6875 229.816406 249.046875 229.414062 C 249.40625 229.011719 249.886719 228.808594 250.503906 228.808594 C 251.070312 228.808594 251.515625 228.980469 251.839844 229.328125 C 252.164062 229.675781 252.328125 230.136719 252.328125 230.710938 C 252.328125 231.414062 251.960938 232.246094 251.230469 233.207031 L 249.648438 235.273438 L 252.59375 235.273438 Z M 253.6875 235.539062 C 253.6875 235.382812 253.734375 235.25 253.828125 235.148438 C 253.921875 235.042969 254.058594 234.992188 254.242188 234.992188 C 254.429688 234.992188 254.570312 235.042969 254.667969 235.148438 C 254.761719 235.253906 254.8125 235.382812 254.8125 235.539062 C 254.8125 235.6875 254.761719 235.8125 254.667969 235.914062 C 254.570312 236.015625 254.429688 236.066406 254.242188 236.066406 C 254.058594 236.066406 253.917969 236.015625 253.828125 235.914062 C 253.734375 235.8125 253.6875 235.6875 253.6875 235.539062 Z M 257.289062 232.023438 L 257.839844 232.023438 C 258.195312 232.023438 258.46875 231.914062 258.660156 231.695312 C 258.851562 231.476562 258.949219 231.179688 258.949219 230.800781 C 258.949219 229.96875 258.625 229.550781 257.980469 229.550781 C 257.671875 229.550781 257.429688 229.664062 257.253906 229.886719 C 257.078125 230.113281 256.988281 230.40625 256.988281 230.773438 L 256.128906 230.773438 C 256.128906 230.203125 256.304688 229.730469 256.652344 229.363281 C 256.996094 228.992188 257.441406 228.808594 257.980469 228.808594 C 258.542969 228.808594 258.984375 228.984375 259.316406 229.332031 C 259.644531 229.683594 259.808594 230.179688 259.808594 230.820312 C 259.808594 231.148438 259.722656 231.457031 259.550781 231.742188 C 259.378906 232.027344 259.160156 232.234375 258.886719 232.367188 C 259.554688 232.617188 259.890625 233.171875 259.890625 234.027344 C 259.890625 234.664062 259.714844 235.167969 259.359375 235.546875 C 259.007812 235.921875 258.546875 236.109375 257.976562 236.109375 C 257.414062 236.109375 256.957031 235.929688 256.613281 235.574219 C 256.265625 235.21875 256.089844 234.738281 256.089844 234.136719 L 256.957031 234.136719 C 256.957031 234.515625 257.046875 234.816406 257.230469 235.039062 C 257.410156 235.261719 257.660156 235.371094 257.976562 235.371094 C 258.300781 235.371094 258.554688 235.261719 258.746094 235.042969 C 258.9375 234.824219 259.03125 234.496094 259.03125 234.050781 C 259.03125 233.191406 258.621094 232.757812 257.804688 232.757812 L 257.289062 232.757812 Z M 241.375 226.742188 "/>
<path style="fill:none;stroke-width:1;stroke-linecap:butt;stroke-linejoin:miter;stroke:rgb(74.901962%,74.901962%,74.901962%);stroke-opacity:1;stroke-miterlimit:4;" d="M 209.789186 -76.664687 C 217.364842 -64.722669 226.199198 -50.794877 233.356591 -39.509573 " transform="matrix(0.999295,0,0,0.999295,4.136134,251.001236)"/>
<path style="fill-rule:nonzero;fill:rgb(74.901962%,74.901962%,74.901962%);fill-opacity:1;stroke-width:1;stroke-linecap:butt;stroke-linejoin:miter;stroke:rgb(74.901962%,74.901962%,74.901962%);stroke-opacity:1;stroke-miterlimit:4;" d="M 236.452524 -37.7857 C 236.452524 -36.679451 235.557362 -35.784289 234.451113 -35.784289 C 233.344864 -35.784289 232.449701 -36.679451 232.449701 -37.7857 C 232.449701 -38.888041 233.344864 -39.783203 234.451113 -39.783203 C 235.557362 -39.783203 236.452524 -38.888041 236.452524 -37.7857 Z M 236.452524 -37.7857 " transform="matrix(0.999295,0,0,0.999295,4.136134,251.001236)"/>
<path style="fill:none;stroke-width:1;stroke-linecap:butt;stroke-linejoin:miter;stroke:rgb(49.803922%,49.803922%,49.803922%);stroke-opacity:1;stroke-miterlimit:4;" d="M 266.00071 -121.133553 C 266.00071 -121.133553 254.000058 -121.133553 254.000058 -121.133553 C 247.999732 -121.133553 241.999406 -115.133227 241.999406 -109.13681 C 241.999406 -109.13681 241.999406 -97.136157 241.999406 -97.136157 C 241.999406 -91.135831 247.999732 -85.135505 254.000058 -85.135505 C 254.000058 -85.135505 266.00071 -85.135505 266.00071 -85.135505 C 272.001036 -85.135505 278.001362 -91.135831 278.001362 -97.136157 C 278.001362 -97.136157 278.001362 -109.13681 278.001362 -109.13681 C 278.001362 -115.133227 272.001036 -121.133553 266.00071 -121.133553 " transform="matrix(0.999295,0,0,0.999295,4.136134,251.001236)"/>
<path style=" stroke:none;fill-rule:nonzero;fill:rgb(0%,0%,0%);fill-opacity:1;" d="M 256.535156 147.582031 L 257.441406 145.65625 L 258.441406 145.65625 L 257.003906 148.265625 L 258.472656 150.933594 L 257.484375 150.933594 L 256.550781 148.960938 L 255.613281 150.933594 L 254.621094 150.933594 L 256.085938 148.265625 L 254.660156 145.65625 L 255.648438 145.65625 Z M 262.714844 146.945312 L 263.265625 146.945312 C 263.621094 146.945312 263.894531 146.835938 264.085938 146.617188 C 264.277344 146.398438 264.375 146.101562 264.375 145.722656 C 264.375 144.890625 264.050781 144.476562 263.40625 144.476562 C 263.097656 144.476562 262.855469 144.589844 262.679688 144.8125 C 262.503906 145.035156 262.414062 145.328125 262.414062 145.695312 L 261.554688 145.695312 C 261.554688 145.125 261.730469 144.65625 262.078125 144.289062 C 262.421875 143.917969 262.867188 143.734375 263.40625 143.734375 C 263.96875 143.734375 264.410156 143.910156 264.742188 144.257812 C 265.070312 144.609375 265.234375 145.101562 265.234375 145.742188 C 265.234375 146.070312 265.148438 146.378906 264.976562 146.664062 C 264.804688 146.949219 264.585938 147.15625 264.3125 147.289062 C 264.980469 147.539062 265.316406 148.09375 265.316406 148.953125 C 265.316406 149.589844 265.140625 150.09375 264.785156 150.46875 C 264.433594 150.84375 263.972656 151.03125 263.402344 151.03125 C 262.839844 151.03125 262.382812 150.851562 262.039062 150.496094 C 261.691406 150.144531 261.515625 149.664062 261.515625 149.0625 L 262.382812 149.0625 C 262.382812 149.441406 262.472656 149.742188 262.65625 149.964844 C 262.835938 150.1875 263.085938 150.296875 263.402344 150.296875 C 263.726562 150.296875 263.980469 150.1875 264.171875 149.96875 C 264.363281 149.75 264.457031 149.421875 264.457031 148.976562 C 264.457031 148.113281 264.046875 147.679688 263.230469 147.679688 L 262.714844 147.679688 Z M 266.675781 150.460938 C 266.675781 150.308594 266.722656 150.175781 266.816406 150.074219 C 266.910156 149.96875 267.046875 149.917969 267.230469 149.917969 C 267.417969 149.917969 267.558594 149.96875 267.65625 150.074219 C 267.75 150.179688 267.800781 150.308594 267.800781 150.460938 C 267.800781 150.609375 267.75 150.734375 267.65625 150.835938 C 267.558594 150.9375 267.417969 150.988281 267.230469 150.988281 C 267.046875 150.988281 266.90625 150.9375 266.816406 150.835938 C 266.722656 150.734375 266.675781 150.609375 266.675781 150.460938 Z M 271.746094 150.933594 L 270.878906 150.933594 L 270.878906 144.917969 L 269.386719 145.585938 L 269.386719 144.769531 L 271.613281 143.796875 L 271.746094 143.796875 Z M 254.367188 141.664062 "/>
<path style="fill:none;stroke-width:1;stroke-linecap:butt;stroke-linejoin:miter;stroke:rgb(74.901962%,74.901962%,74.901962%);stroke-opacity:1;stroke-miterlimit:4;" d="M 260.000384 -170.00787 C 260.000384 -154.989465 260.000384 -138.329276 260.000384 -125.39828 " transform="matrix(0.999295,0,0,0.999295,4.136134,251.001236)"/>
<path style="fill-rule:nonzero;fill:rgb(74.901962%,74.901962%,74.901962%);fill-opacity:1;stroke-width:1;stroke-linecap:butt;stroke-linejoin:miter;stroke:rgb(74.901962%,74.901962%,74.901962%);stroke-opacity:1;stroke-miterlimit:4;" d="M 262.001796 -123.162328 C 262.001796 -122.056079 261.102724 -121.160916 260.000384 -121.160916 C 258.894135 -121.160916 257.998972 -122.056079 257.998972 -123.162328 C 257.998972 -124.268577 258.894135 -125.163739 260.000384 -125.163739 C 261.102724 -125.163739 262.001796 -124.268577 262.001796 -123.162328 Z M 262.001796 -123.162328 " transform="matrix(0.999295,0,0,0.999295,4.136134,251.001236)"/>
<path style="fill:none;stroke-width:1;stroke-linecap:butt;stroke-linejoin:miter;stroke:rgb(49.803922%,49.803922%,49.803922%);stroke-opacity:1;stroke-miterlimit:4;" d="M 319.999736 -121.133553 C 319.999736 -121.133553 307.999084 -121.133553 307.999084 -121.133553 C 301.998758 -121.133553 295.998432 -115.133227 295.998432 -109.13681 C 295.998432 -109.13681 295.998432 -97.136157 295.998432 -97.136157 C 295.998432 -91.135831 301.998758 -85.135505 307.999084 -85.135505 C 307.999084 -85.135505 319.999736 -85.135505 319.999736 -85.135505 C 326.000062 -85.135505 332.000388 -91.135831 332.000388 -97.136157 C 332.000388 -97.136157 332.000388 -109.13681 332.000388 -109.13681 C 332.000388 -115.133227 326.000062 -121.133553 319.999736 -121.133553 " transform="matrix(0.999295,0,0,0.999295,4.136134,251.001236)"/>
<path style=" stroke:none;fill-rule:nonzero;fill:rgb(0%,0%,0%);fill-opacity:1;" d="M 310.496094 147.582031 L 311.402344 145.65625 L 312.402344 145.65625 L 310.964844 148.265625 L 312.433594 150.933594 L 311.445312 150.933594 L 310.511719 148.960938 L 309.578125 150.933594 L 308.582031 150.933594 L 310.050781 148.265625 L 308.621094 145.65625 L 309.613281 145.65625 Z M 316.675781 146.945312 L 317.226562 146.945312 C 317.582031 146.945312 317.855469 146.835938 318.046875 146.617188 C 318.238281 146.398438 318.335938 146.101562 318.335938 145.722656 C 318.335938 144.890625 318.011719 144.476562 317.367188 144.476562 C 317.058594 144.476562 316.816406 144.589844 316.640625 144.8125 C 316.464844 145.035156 316.375 145.328125 316.375 145.695312 L 315.519531 145.695312 C 315.519531 145.125 315.695312 144.65625 316.039062 144.289062 C 316.382812 143.917969 316.828125 143.734375 317.367188 143.734375 C 317.929688 143.734375 318.371094 143.910156 318.703125 144.257812 C 319.03125 144.609375 319.195312 145.101562 319.195312 145.742188 C 319.195312 146.070312 319.109375 146.378906 318.9375 146.664062 C 318.765625 146.949219 318.546875 147.15625 318.273438 147.289062 C 318.941406 147.539062 319.277344 148.09375 319.277344 148.953125 C 319.277344 149.589844 319.101562 150.09375 318.746094 150.46875 C 318.394531 150.84375 317.933594 151.03125 317.363281 151.03125 C 316.800781 151.03125 316.34375 150.851562 316 150.496094 C 315.65625 150.144531 315.480469 149.664062 315.480469 149.0625 L 316.34375 149.0625 C 316.34375 149.441406 316.433594 149.742188 316.617188 149.964844 C 316.796875 150.1875 317.046875 150.296875 317.363281 150.296875 C 317.6875 150.296875 317.941406 150.1875 318.132812 149.96875 C 318.324219 149.75 318.417969 149.421875 318.417969 148.976562 C 318.417969 148.113281 318.007812 147.679688 317.191406 147.679688 L 316.675781 147.679688 Z M 320.640625 150.460938 C 320.640625 150.308594 320.6875 150.175781 320.78125 150.074219 C 320.875 149.96875 321.011719 149.917969 321.195312 149.917969 C 321.382812 149.917969 321.519531 149.96875 321.617188 150.074219 C 321.710938 150.179688 321.761719 150.308594 321.761719 150.460938 C 321.761719 150.609375 321.710938 150.734375 321.617188 150.835938 C 321.519531 150.9375 321.382812 150.988281 321.195312 150.988281 C 321.011719 150.988281 320.871094 150.9375 320.78125 150.835938 C 320.6875 150.734375 320.640625 150.609375 320.640625 150.460938 Z M 327.109375 150.933594 L 323.136719 150.933594 L 323.136719 150.289062 L 325.164062 147.601562 C 325.46875 147.1875 325.683594 146.851562 325.800781 146.585938 C 325.917969 146.320312 325.980469 146.039062 325.980469 145.742188 C 325.980469 145.363281 325.890625 145.058594 325.714844 144.828125 C 325.539062 144.59375 325.308594 144.476562 325.023438 144.476562 C 324.660156 144.476562 324.382812 144.601562 324.183594 144.847656 C 323.988281 145.09375 323.890625 145.453125 323.890625 145.921875 L 323.027344 145.921875 C 323.027344 145.269531 323.203125 144.742188 323.5625 144.339844 C 323.921875 143.9375 324.40625 143.734375 325.023438 143.734375 C 325.589844 143.734375 326.035156 143.90625 326.359375 144.253906 C 326.683594 144.601562 326.847656 145.058594 326.847656 145.632812 C 326.847656 146.335938 326.480469 147.167969 325.75 148.128906 L 324.167969 150.199219 L 327.109375 150.199219 Z M 308.328125 141.664062 "/>
<path style="fill:none;stroke-width:1;stroke-linecap:butt;stroke-linejoin:miter;stroke:rgb(74.901962%,74.901962%,74.901962%);stroke-opacity:1;stroke-miterlimit:4;" d="M 277.532282 -174.440685 C 285.80765 -158.261304 295.443353 -139.419889 302.729742 -125.171557 " transform="matrix(0.999295,0,0,0.999295,4.136134,251.001236)"/>
<path style="fill-rule:nonzero;fill:rgb(74.901962%,74.901962%,74.901962%);fill-opacity:1;stroke-width:1;stroke-linecap:butt;stroke-linejoin:miter;stroke:rgb(74.901962%,74.901962%,74.901962%);stroke-opacity:1;stroke-miterlimit:4;" d="M 305.81004 -123.060693 C 305.81004 -121.954444 304.914877 -121.059282 303.808628 -121.059282 C 302.706288 -121.059282 301.811126 -121.954444 301.811126 -123.060693 C 301.811126 -124.163033 302.706288 -125.062105 303.808628 -125.062105 C 304.914877 -125.062105 305.81004 -124.163033 305.81004 -123.060693 Z M 305.81004 -123.060693 " transform="matrix(0.999295,0,0,0.999295,4.136134,251.001236)"/>
<path style="fill:none;stroke-width:1;stroke-linecap:butt;stroke-linejoin:miter;stroke:rgb(49.803922%,49.803922%,49.803922%);stroke-opacity:1;stroke-miterlimit:4;" d="M 373.998762 -121.133553 C 373.998762 -121.133553 361.99811 -121.133553 361.99811 -121.133553 C 356.001693 -121.133553 350.001367 -115.133227 350.001367 -109.13681 C 350.001367 -109.13681 350.001367 -97.136157 350.001367 -97.136157 C 350.001367 -91.135831 356.001693 -85.135505 361.99811 -85.135505 C 361.99811 -85.135505 373.998762 -85.135505 373.998762 -85.135505 C 379.999088 -85.135505 385.999414 -91.135831 385.999414 -97.136157 C 385.999414 -97.136157 385.999414 -109.13681 385.999414 -109.13681 C 385.999414 -115.133227 379.999088 -121.133553 373.998762 -121.133553 " transform="matrix(0.999295,0,0,0.999295,4.136134,251.001236)"/>
<path style=" stroke:none;fill-rule:nonzero;fill:rgb(0%,0%,0%);fill-opacity:1;" d="M 364.460938 147.582031 L 365.367188 145.65625 L 366.363281 145.65625 L 364.929688 148.265625 L 366.394531 150.933594 L 365.410156 150.933594 L 364.476562 148.960938 L 363.539062 150.933594 L 362.542969 150.933594 L 364.011719 148.265625 L 362.582031 145.65625 L 363.574219 145.65625 Z M 370.640625 146.945312 L 371.191406 146.945312 C 371.542969 146.945312 371.816406 146.835938 372.007812 146.617188 C 372.199219 146.398438 372.296875 146.101562 372.296875 145.722656 C 372.296875 144.890625 371.972656 144.476562 371.328125 144.476562 C 371.023438 144.476562 370.78125 144.589844 370.605469 144.8125 C 370.429688 145.035156 370.339844 145.328125 370.339844 145.695312 L 369.480469 145.695312 C 369.480469 145.125 369.65625 144.65625 370.003906 144.289062 C 370.347656 143.917969 370.792969 143.734375 371.328125 143.734375 C 371.890625 143.734375 372.332031 143.910156 372.664062 144.257812 C 372.992188 144.609375 373.15625 145.101562 373.15625 145.742188 C 373.15625 146.070312 373.070312 146.378906 372.898438 146.664062 C 372.726562 146.949219 372.507812 147.15625 372.234375 147.289062 C 372.902344 147.539062 373.238281 148.09375 373.238281 148.953125 C 373.238281 149.589844 373.0625 150.09375 372.707031 150.46875 C 372.355469 150.84375 371.894531 151.03125 371.324219 151.03125 C 370.765625 151.03125 370.308594 150.851562 369.964844 150.496094 C 369.617188 150.144531 369.441406 149.664062 369.441406 149.0625 L 370.308594 149.0625 C 370.308594 149.441406 370.398438 149.742188 370.582031 149.964844 C 370.761719 150.1875 371.011719 150.296875 371.324219 150.296875 C 371.648438 150.296875 371.902344 150.1875 372.09375 149.96875 C 372.285156 149.75 372.378906 149.421875 372.378906 148.976562 C 372.378906 148.113281 371.96875 147.679688 371.15625 147.679688 L 370.640625 147.679688 Z M 374.601562 150.460938 C 374.601562 150.308594 374.648438 150.175781 374.742188 150.074219 C 374.835938 149.96875 374.972656 149.917969 375.15625 149.917969 C 375.34375 149.917969 375.484375 149.96875 375.582031 150.074219 C 375.675781 150.179688 375.726562 150.308594 375.726562 150.460938 C 375.726562 150.609375 375.675781 150.734375 375.582031 150.835938 C 375.484375 150.9375 375.34375 150.988281 375.15625 150.988281 C 374.972656 150.988281 374.832031 150.9375 374.742188 150.835938 C 374.648438 150.734375 374.601562 150.609375 374.601562 150.460938 Z M 378.203125 146.945312 L 378.753906 146.945312 C 379.109375 146.945312 379.382812 146.835938 379.574219 146.617188 C 379.765625 146.398438 379.863281 146.101562 379.863281 145.722656 C 379.863281 144.890625 379.539062 144.476562 378.894531 144.476562 C 378.585938 144.476562 378.34375 144.589844 378.167969 144.8125 C 377.992188 145.035156 377.902344 145.328125 377.902344 145.695312 L 377.042969 145.695312 C 377.042969 145.125 377.21875 144.65625 377.566406 144.289062 C 377.910156 143.917969 378.355469 143.734375 378.894531 143.734375 C 379.457031 143.734375 379.898438 143.910156 380.230469 144.257812 C 380.558594 144.609375 380.722656 145.101562 380.722656 145.742188 C 380.722656 146.070312 380.636719 146.378906 380.464844 146.664062 C 380.292969 146.949219 380.074219 147.15625 379.800781 147.289062 C 380.46875 147.539062 380.804688 148.09375 380.804688 148.953125 C 380.804688 149.589844 380.628906 150.09375 380.273438 150.46875 C 379.921875 150.84375 379.460938 151.03125 378.890625 151.03125 C 378.328125 151.03125 377.871094 150.851562 377.527344 150.496094 C 377.179688 150.144531 377.003906 149.664062 377.003906 149.0625 L 377.871094 149.0625 C 377.871094 149.441406 377.960938 149.742188 378.144531 149.964844 C 378.324219 150.1875 378.574219 150.296875 378.890625 150.296875 C 379.214844 150.296875 379.46875 150.1875 379.660156 149.96875 C 379.851562 149.75 379.945312 149.421875 379.945312 148.976562 C 379.945312 148.113281 379.535156 147.679688 378.71875 147.679688 L 378.203125 147.679688 Z M 362.289062 141.664062 "/>
<path style="fill:none;stroke-width:1;stroke-linecap:butt;stroke-linejoin:miter;stroke:rgb(74.901962%,74.901962%,74.901962%);stroke-opacity:1;stroke-miterlimit:4;" d="M 289.235849 -183.302404 C 304.977421 -169.257341 324.495095 -151.256363 340.998923 -134.267817 C 343.993223 -131.191429 347.061793 -127.845318 350.013094 -124.526571 " transform="matrix(0.999295,0,0,0.999295,4.136134,251.001236)"/>
<path style="fill-rule:nonzero;fill:rgb(74.901962%,74.901962%,74.901962%);fill-opacity:1;stroke-width:1;stroke-linecap:butt;stroke-linejoin:miter;stroke:rgb(74.901962%,74.901962%,74.901962%);stroke-opacity:1;stroke-miterlimit:4;" d="M 353.597653 -122.728428 C 353.597653 -121.622179 352.702491 -120.727016 351.596242 -120.727016 C 350.489993 -120.727016 349.59483 -121.622179 349.59483 -122.728428 C 349.59483 -123.834677 350.489993 -124.72984 351.596242 -124.72984 C 352.702491 -124.72984 353.597653 -123.834677 353.597653 -122.728428 Z M 353.597653 -122.728428 " transform="matrix(0.999295,0,0,0.999295,4.136134,251.001236)"/>
</g>
</svg>
