<?xml version="1.0" encoding="utf-8"?>
<!-- Generator: Adobe Illustrator 16.0.3, SVG Export Plug-In . SVG Version: 6.00 Build 0)  -->
<!DOCTYPE svg PUBLIC "-//W3C//DTD SVG 1.1//EN" "http://www.w3.org/Graphics/SVG/1.1/DTD/svg11.dtd">
<svg version="1.1" id="Layer_1" xmlns="http://www.w3.org/2000/svg" xmlns:xlink="http://www.w3.org/1999/xlink" x="0px" y="0px"
	 width="359.637px" height="260.211px" viewBox="0 0 359.637 260.211" enable-background="new 0 0 359.637 260.211"
	 xml:space="preserve">
<g>
	<g>
		<circle fill="#FFFFFF" stroke="#F7941E" stroke-miterlimit="10" cx="138.85" cy="93.044" r="44.25"/>
		<circle fill="#FFFFFF" stroke="#F15A29" stroke-miterlimit="10" cx="138.85" cy="93.044" r="29.5"/>
		<circle fill="#FFFFFF" stroke="#BE1E2D" stroke-miterlimit="10" cx="138.85" cy="93.044" r="17.5"/>
	</g>
	
		<text transform="matrix(1 0 0 1 161.6836 63.5439)" stroke="#00AEEF" stroke-miterlimit="10" font-family="'MyriadPro-Regular'" font-size="12">X</text>
	
		<text transform="matrix(1 0 0 1 161.6836 70.2109)" stroke="#00AEEF" stroke-miterlimit="10" font-family="'MyriadPro-Regular'" font-size="12">X</text>
	
		<text transform="matrix(1 0 0 1 171.0171 70.2109)" stroke="#00AEEF" stroke-miterlimit="10" font-family="'MyriadPro-Regular'" font-size="12">X</text>
	
		<text transform="matrix(1 0 0 1 171.6836 75.5439)" stroke="#00AEEF" stroke-miterlimit="10" font-family="'MyriadPro-Regular'" font-size="12">X</text>
	
		<text transform="matrix(1 0 0 1 168.3501 59.5439)" stroke="#00AEEF" stroke-miterlimit="10" font-family="'MyriadPro-Regular'" font-size="12">X</text>
	
		<text transform="matrix(1 0 0 1 168.3501 69.5439)" stroke="#00AEEF" stroke-miterlimit="10" font-family="'MyriadPro-Regular'" font-size="12">X</text>
</g>
<g>
	<g>
		<circle fill="#FFFFFF" stroke="#F7941E" stroke-miterlimit="10" cx="138.85" cy="215.461" r="44.25"/>
		<circle fill="#FFFFFF" stroke="#F15A29" stroke-miterlimit="10" cx="138.85" cy="215.461" r="29.5"/>
		<circle fill="#FFFFFF" stroke="#BE1E2D" stroke-miterlimit="10" cx="138.85" cy="215.461" r="17.5"/>
	</g>
	
		<text transform="matrix(1 0 0 1 128.8501 211.4609)" stroke="#00AEEF" stroke-miterlimit="10" font-family="'MyriadPro-Regular'" font-size="12">X</text>
	
		<text transform="matrix(1 0 0 1 128.8501 218.1279)" stroke="#00AEEF" stroke-miterlimit="10" font-family="'MyriadPro-Regular'" font-size="12">X</text>
	
		<text transform="matrix(1 0 0 1 138.1836 218.1279)" stroke="#00AEEF" stroke-miterlimit="10" font-family="'MyriadPro-Regular'" font-size="12">X</text>
	
		<text transform="matrix(1 0 0 1 138.8501 223.4609)" stroke="#00AEEF" stroke-miterlimit="10" font-family="'MyriadPro-Regular'" font-size="12">X</text>
	
		<text transform="matrix(1 0 0 1 135.5166 207.4609)" stroke="#00AEEF" stroke-miterlimit="10" font-family="'MyriadPro-Regular'" font-size="12">X</text>
	
		<text transform="matrix(1 0 0 1 135.5166 217.4609)" stroke="#00AEEF" stroke-miterlimit="10" font-family="'MyriadPro-Regular'" font-size="12">X</text>
</g>
<g>
	<g>
		<circle fill="#FFFFFF" stroke="#F7941E" stroke-miterlimit="10" cx="313.001" cy="93.044" r="44.25"/>
		<circle fill="#FFFFFF" stroke="#F15A29" stroke-miterlimit="10" cx="313.001" cy="93.044" r="29.5"/>
		<circle fill="#FFFFFF" stroke="#BE1E2D" stroke-miterlimit="10" cx="313.001" cy="93.044" r="17.5"/>
	</g>
	<g>
		
			<text transform="matrix(1 0 0 1 352.084 36.9604)" stroke="#00AEEF" stroke-miterlimit="10" font-family="'MyriadPro-Regular'" font-size="12">X</text>
		
			<text transform="matrix(1 0 0 1 327.418 73.6274)" stroke="#00AEEF" stroke-miterlimit="10" font-family="'MyriadPro-Regular'" font-size="12">X</text>
		
			<text transform="matrix(1 0 0 1 332.752 62.9604)" stroke="#00AEEF" stroke-miterlimit="10" font-family="'MyriadPro-Regular'" font-size="12">X</text>
		
			<text transform="matrix(1 0 0 1 342.418 72.6274)" stroke="#00AEEF" stroke-miterlimit="10" font-family="'MyriadPro-Regular'" font-size="12">X</text>
		
			<text transform="matrix(1 0 0 1 352.084 62.9604)" stroke="#00AEEF" stroke-miterlimit="10" font-family="'MyriadPro-Regular'" font-size="12">X</text>
		
			<text transform="matrix(1 0 0 1 352.084 82.1274)" stroke="#00AEEF" stroke-miterlimit="10" font-family="'MyriadPro-Regular'" font-size="12">X</text>
	</g>
</g>
<g>
	<g>
		<circle fill="#FFFFFF" stroke="#F7941E" stroke-miterlimit="10" cx="313" cy="215.461" r="44.25"/>
		<circle fill="#FFFFFF" stroke="#F15A29" stroke-miterlimit="10" cx="313" cy="215.461" r="29.5"/>
		<circle fill="#FFFFFF" stroke="#BE1E2D" stroke-miterlimit="10" cx="313" cy="215.461" r="17.5"/>
	</g>
	
		<text transform="matrix(1 0 0 1 313 180.4609)" stroke="#00AEEF" stroke-miterlimit="10" font-family="'MyriadPro-Regular'" font-size="12">X</text>
	
		<text transform="matrix(1 0 0 1 286.251 221.1279)" stroke="#00AEEF" stroke-miterlimit="10" font-family="'MyriadPro-Regular'" font-size="12">X</text>
	
		<text transform="matrix(1 0 0 1 330.5 249.4609)" stroke="#00AEEF" stroke-miterlimit="10" font-family="'MyriadPro-Regular'" font-size="12">X</text>
	
		<text transform="matrix(1 0 0 1 320.5 221.1279)" stroke="#00AEEF" stroke-miterlimit="10" font-family="'MyriadPro-Regular'" font-size="12">X</text>
	
		<text transform="matrix(1 0 0 1 342.5 197.9609)" stroke="#00AEEF" stroke-miterlimit="10" font-family="'MyriadPro-Regular'" font-size="12">X</text>
	
		<text transform="matrix(1 0 0 1 295.5 197.9609)" stroke="#00AEEF" stroke-miterlimit="10" font-family="'MyriadPro-Regular'" font-size="12">X</text>
</g>
<text transform="matrix(1 0 0 1 0 93.0439)" fill="#414042" font-family="'MyriadPro-Regular'" font-size="12">High Bias</text>
<text transform="matrix(1 0 0 1 0 217.4609)" fill="#414042" font-family="'MyriadPro-Regular'" font-size="12">Low Bias</text>
<text transform="matrix(1 0 0 1 283.502 10.0439)" fill="#414042" font-family="'MyriadPro-Regular'" font-size="12">High Variance</text>
<text transform="matrix(1 0 0 1 109.3501 10.0439)" fill="#414042" font-family="'MyriadPro-Regular'" font-size="12">Low Variance</text>
</svg>
