<?xml version="1.0" encoding="UTF-8"?>
<svg xmlns="http://www.w3.org/2000/svg" xmlns:xlink="http://www.w3.org/1999/xlink" width="94pt" height="210pt" viewBox="0 0 94 210" version="1.1">
<g id="surface277">
<path style="fill:none;stroke-width:1;stroke-linecap:butt;stroke-linejoin:miter;stroke:rgb(49.803922%,49.803922%,49.803922%);stroke-opacity:1;stroke-miterlimit:4;" d="M 24 -143 C 24 -136.371094 18.628906 -131 12 -131 C 5.371094 -131 0 -136.371094 0 -143 C 0 -149.628906 5.371094 -155 12 -155 C 18.628906 -155 24 -149.628906 24 -143 Z M 24 -143 " transform="matrix(1,0,0,1,4,206)"/>
<path style=" stroke:none;fill-rule:nonzero;fill:rgb(0%,0%,0%);fill-opacity:1;" d="M 8.355469 60.863281 L 8.355469 61.628906 L 8.832031 61.628906 L 8.832031 62.050781 L 8.355469 62.050781 L 8.355469 64.015625 C 8.355469 64.140625 8.375 64.234375 8.417969 64.300781 C 8.457031 64.363281 8.527344 64.394531 8.628906 64.394531 C 8.695312 64.394531 8.765625 64.386719 8.835938 64.363281 L 8.828125 64.800781 C 8.710938 64.839844 8.59375 64.859375 8.46875 64.859375 C 8.265625 64.859375 8.109375 64.785156 8 64.640625 C 7.894531 64.492188 7.839844 64.285156 7.839844 64.019531 L 7.839844 62.050781 L 7.355469 62.050781 L 7.355469 61.628906 L 7.839844 61.628906 L 7.839844 60.863281 Z M 9.28125 63.070312 C 9.28125 62.609375 9.394531 62.242188 9.617188 61.976562 C 9.839844 61.707031 10.136719 61.574219 10.503906 61.574219 C 10.871094 61.574219 11.167969 61.703125 11.390625 61.964844 C 11.613281 62.226562 11.730469 62.582031 11.734375 63.035156 L 11.734375 63.367188 C 11.734375 63.828125 11.621094 64.191406 11.402344 64.457031 C 11.179688 64.726562 10.878906 64.859375 10.511719 64.859375 C 10.144531 64.859375 9.847656 64.730469 9.625 64.46875 C 9.402344 64.210938 9.289062 63.859375 9.28125 63.414062 Z M 9.800781 63.367188 C 9.800781 63.695312 9.863281 63.949219 9.992188 64.136719 C 10.121094 64.324219 10.292969 64.417969 10.511719 64.417969 C 10.96875 64.417969 11.203125 64.085938 11.214844 63.425781 L 11.214844 63.070312 C 11.214844 62.746094 11.152344 62.488281 11.023438 62.300781 C 10.894531 62.113281 10.722656 62.019531 10.503906 62.019531 C 10.292969 62.019531 10.121094 62.113281 9.992188 62.300781 C 9.863281 62.488281 9.800781 62.746094 9.800781 63.066406 Z M 13.199219 63.351562 L 12.921875 63.667969 L 12.921875 64.800781 L 12.40625 64.800781 L 12.40625 60.300781 L 12.921875 60.300781 L 12.921875 62.992188 L 13.910156 61.628906 L 14.53125 61.628906 L 13.523438 62.957031 L 14.664062 64.800781 L 14.0625 64.800781 Z M 16.179688 64.859375 C 15.785156 64.859375 15.484375 64.742188 15.273438 64.507812 C 15.0625 64.269531 14.953125 63.925781 14.949219 63.472656 L 14.949219 63.085938 C 14.949219 62.613281 15.054688 62.242188 15.257812 61.976562 C 15.464844 61.707031 15.753906 61.574219 16.121094 61.574219 C 16.492188 61.574219 16.769531 61.691406 16.953125 61.925781 C 17.136719 62.164062 17.230469 62.53125 17.234375 63.03125 L 17.234375 63.371094 L 15.464844 63.371094 L 15.464844 63.445312 C 15.464844 63.785156 15.53125 64.03125 15.65625 64.183594 C 15.785156 64.339844 15.96875 64.417969 16.210938 64.417969 C 16.363281 64.417969 16.496094 64.386719 16.613281 64.332031 C 16.730469 64.273438 16.839844 64.183594 16.941406 64.058594 L 17.207031 64.386719 C 16.984375 64.703125 16.640625 64.859375 16.179688 64.859375 Z M 16.121094 62.019531 C 15.90625 62.019531 15.746094 62.089844 15.644531 62.238281 C 15.542969 62.386719 15.480469 62.613281 15.46875 62.925781 L 16.714844 62.925781 L 16.714844 62.855469 C 16.703125 62.554688 16.648438 62.339844 16.554688 62.210938 C 16.460938 62.082031 16.316406 62.019531 16.121094 62.019531 Z M 18.34375 61.628906 L 18.359375 61.972656 C 18.5625 61.707031 18.816406 61.574219 19.128906 61.574219 C 19.691406 61.574219 19.976562 61.945312 19.984375 62.695312 L 19.984375 64.800781 L 19.46875 64.800781 L 19.46875 62.71875 C 19.46875 62.46875 19.425781 62.292969 19.34375 62.1875 C 19.257812 62.082031 19.132812 62.03125 18.96875 62.03125 C 18.839844 62.03125 18.722656 62.074219 18.621094 62.160156 C 18.519531 62.246094 18.4375 62.359375 18.375 62.496094 L 18.375 64.800781 L 17.855469 64.800781 L 17.855469 61.628906 Z M 23.632812 64.800781 L 23.113281 64.800781 L 23.113281 61.1875 L 22.214844 61.589844 L 22.214844 61.097656 L 23.550781 60.515625 L 23.632812 60.515625 Z M 7.289062 59.234375 "/>
<path style="fill:none;stroke-width:1;stroke-linecap:butt;stroke-linejoin:miter;stroke:rgb(33.725491%,70.588237%,91.37255%);stroke-opacity:0.501961;stroke-dasharray:5,2;stroke-miterlimit:4;" d="M 82 -145 C 82 -140.03125 77.96875 -136 73 -136 C 68.03125 -136 64 -140.03125 64 -145 C 64 -149.96875 68.03125 -154 73 -154 C 77.96875 -154 82 -149.96875 82 -145 Z M 82 -145 " transform="matrix(1,0,0,1,4,206)"/>
<path style="fill:none;stroke-width:1;stroke-linecap:butt;stroke-linejoin:miter;stroke:rgb(33.725491%,70.588237%,91.37255%);stroke-opacity:0.501961;stroke-dasharray:5,2;stroke-miterlimit:4;" d="M 86 -145 C 86 -137.820312 80.179688 -132 73 -132 C 65.820312 -132 60 -137.820312 60 -145 C 60 -152.179688 65.820312 -158 73 -158 C 80.179688 -158 86 -152.179688 86 -145 Z M 86 -145 " transform="matrix(1,0,0,1,4,206)"/>
<path style=" stroke:none;fill-rule:nonzero;fill:rgb(0%,0%,0%);fill-opacity:1;" d="M 79.320312 64 L 78.421875 64 L 78.421875 60.714844 L 75.558594 60.714844 L 75.558594 64 L 74.664062 64 L 74.664062 56.890625 L 75.558594 56.890625 L 75.558594 59.945312 L 78.421875 59.945312 L 78.421875 56.890625 L 79.320312 56.890625 Z M 73.898438 54.722656 "/>
<path style="fill:none;stroke-width:1;stroke-linecap:butt;stroke-linejoin:miter;stroke:rgb(74.901962%,74.901962%,74.901962%);stroke-opacity:1;stroke-miterlimit:4;" d="M 24.050781 -143.394531 C 34.007812 -143.722656 48.164062 -144.1875 58.695312 -144.53125 " transform="matrix(1,0,0,1,4,206)"/>
<path style="fill-rule:nonzero;fill:rgb(74.901962%,74.901962%,74.901962%);fill-opacity:1;stroke-width:1;stroke-linecap:butt;stroke-linejoin:miter;stroke:rgb(74.901962%,74.901962%,74.901962%);stroke-opacity:1;stroke-miterlimit:4;" d="M 59.703125 -144.550781 C 59.703125 -144.328125 59.523438 -144.152344 59.304688 -144.152344 C 59.082031 -144.152344 58.902344 -144.328125 58.902344 -144.550781 C 58.902344 -144.773438 59.082031 -144.949219 59.304688 -144.949219 C 59.523438 -144.949219 59.703125 -144.773438 59.703125 -144.550781 Z M 59.703125 -144.550781 " transform="matrix(1,0,0,1,4,206)"/>
<path style="fill:none;stroke-width:1;stroke-linecap:butt;stroke-linejoin:miter;stroke:rgb(33.725491%,70.588237%,91.37255%);stroke-opacity:0.501961;stroke-dasharray:5,2;stroke-miterlimit:4;" d="M 82 -101 C 82 -96.03125 77.96875 -92 73 -92 C 68.03125 -92 64 -96.03125 64 -101 C 64 -105.96875 68.03125 -110 73 -110 C 77.96875 -110 82 -105.96875 82 -101 Z M 82 -101 " transform="matrix(1,0,0,1,4,206)"/>
<path style="fill:none;stroke-width:1;stroke-linecap:butt;stroke-linejoin:miter;stroke:rgb(33.725491%,70.588237%,91.37255%);stroke-opacity:0.501961;stroke-dasharray:5,2;stroke-miterlimit:4;" d="M 86 -101 C 86 -93.820312 80.179688 -88 73 -88 C 65.820312 -88 60 -93.820312 60 -101 C 60 -108.179688 65.820312 -114 73 -114 C 80.179688 -114 86 -108.179688 86 -101 Z M 86 -101 " transform="matrix(1,0,0,1,4,206)"/>
<path style=" stroke:none;fill-rule:nonzero;fill:rgb(0%,0%,0%);fill-opacity:1;" d="M 79.320312 108 L 78.421875 108 L 78.421875 104.714844 L 75.558594 104.714844 L 75.558594 108 L 74.664062 108 L 74.664062 100.890625 L 75.558594 100.890625 L 75.558594 103.945312 L 78.421875 103.945312 L 78.421875 100.890625 L 79.320312 100.890625 Z M 73.898438 98.722656 "/>
<path style="fill:none;stroke-width:1;stroke-linecap:butt;stroke-linejoin:miter;stroke:rgb(74.901962%,74.901962%,74.901962%);stroke-opacity:1;stroke-miterlimit:4;" d="M 22.074219 -136.066406 C 32.78125 -128.691406 49.703125 -117.039062 61.070312 -109.214844 " transform="matrix(1,0,0,1,4,206)"/>
<path style="fill-rule:nonzero;fill:rgb(74.901962%,74.901962%,74.901962%);fill-opacity:1;stroke-width:1;stroke-linecap:butt;stroke-linejoin:miter;stroke:rgb(74.901962%,74.901962%,74.901962%);stroke-opacity:1;stroke-miterlimit:4;" d="M 61.949219 -108.882812 C 61.949219 -108.664062 61.769531 -108.484375 61.546875 -108.484375 C 61.328125 -108.484375 61.148438 -108.664062 61.148438 -108.882812 C 61.148438 -109.105469 61.328125 -109.285156 61.546875 -109.285156 C 61.769531 -109.285156 61.949219 -109.105469 61.949219 -108.882812 Z M 61.949219 -108.882812 " transform="matrix(1,0,0,1,4,206)"/>
<path style="fill:none;stroke-width:1;stroke-linecap:butt;stroke-linejoin:miter;stroke:rgb(33.725491%,70.588237%,91.37255%);stroke-opacity:0.501961;stroke-dasharray:5,2;stroke-miterlimit:4;" d="M 82 -57 C 82 -52.03125 77.96875 -48 73 -48 C 68.03125 -48 64 -52.03125 64 -57 C 64 -61.96875 68.03125 -66 73 -66 C 77.96875 -66 82 -61.96875 82 -57 Z M 82 -57 " transform="matrix(1,0,0,1,4,206)"/>
<path style="fill:none;stroke-width:1;stroke-linecap:butt;stroke-linejoin:miter;stroke:rgb(33.725491%,70.588237%,91.37255%);stroke-opacity:0.501961;stroke-dasharray:5,2;stroke-miterlimit:4;" d="M 86 -57 C 86 -49.820312 80.179688 -44 73 -44 C 65.820312 -44 60 -49.820312 60 -57 C 60 -64.179688 65.820312 -70 73 -70 C 80.179688 -70 86 -64.179688 86 -57 Z M 86 -57 " transform="matrix(1,0,0,1,4,206)"/>
<path style=" stroke:none;fill-rule:nonzero;fill:rgb(0%,0%,0%);fill-opacity:1;" d="M 79.320312 152 L 78.421875 152 L 78.421875 148.714844 L 75.558594 148.714844 L 75.558594 152 L 74.664062 152 L 74.664062 144.890625 L 75.558594 144.890625 L 75.558594 147.945312 L 78.421875 147.945312 L 78.421875 144.890625 L 79.320312 144.890625 Z M 73.898438 142.722656 "/>
<path style="fill:none;stroke-width:1;stroke-linecap:butt;stroke-linejoin:miter;stroke:rgb(74.901962%,74.901962%,74.901962%);stroke-opacity:1;stroke-miterlimit:4;" d="M 18.996094 -133.132812 C 30.332031 -117.152344 52.660156 -85.671875 64.753906 -68.628906 " transform="matrix(1,0,0,1,4,206)"/>
<path style="fill-rule:nonzero;fill:rgb(74.901962%,74.901962%,74.901962%);fill-opacity:1;stroke-width:1;stroke-linecap:butt;stroke-linejoin:miter;stroke:rgb(74.901962%,74.901962%,74.901962%);stroke-opacity:1;stroke-miterlimit:4;" d="M 65.488281 -68.152344 C 65.488281 -67.933594 65.308594 -67.753906 65.089844 -67.753906 C 64.867188 -67.753906 64.6875 -67.933594 64.6875 -68.152344 C 64.6875 -68.375 64.867188 -68.554688 65.089844 -68.554688 C 65.308594 -68.554688 65.488281 -68.375 65.488281 -68.152344 Z M 65.488281 -68.152344 " transform="matrix(1,0,0,1,4,206)"/>
<path style="fill:none;stroke-width:1;stroke-linecap:butt;stroke-linejoin:miter;stroke:rgb(33.725491%,70.588237%,91.37255%);stroke-opacity:0.501961;stroke-dasharray:5,2;stroke-miterlimit:4;" d="M 82 -13 C 82 -8.03125 77.96875 -4 73 -4 C 68.03125 -4 64 -8.03125 64 -13 C 64 -17.96875 68.03125 -22 73 -22 C 77.96875 -22 82 -17.96875 82 -13 Z M 82 -13 " transform="matrix(1,0,0,1,4,206)"/>
<path style="fill:none;stroke-width:1;stroke-linecap:butt;stroke-linejoin:miter;stroke:rgb(33.725491%,70.588237%,91.37255%);stroke-opacity:0.501961;stroke-dasharray:5,2;stroke-miterlimit:4;" d="M 86 -13 C 86 -5.820312 80.179688 0 73 0 C 65.820312 0 60 -5.820312 60 -13 C 60 -20.179688 65.820312 -26 73 -26 C 80.179688 -26 86 -20.179688 86 -13 Z M 86 -13 " transform="matrix(1,0,0,1,4,206)"/>
<path style=" stroke:none;fill-rule:nonzero;fill:rgb(0%,0%,0%);fill-opacity:1;" d="M 79.320312 196 L 78.421875 196 L 78.421875 192.714844 L 75.558594 192.714844 L 75.558594 196 L 74.664062 196 L 74.664062 188.890625 L 75.558594 188.890625 L 75.558594 191.945312 L 78.421875 191.945312 L 78.421875 188.890625 L 79.320312 188.890625 Z M 73.898438 186.722656 "/>
<path style="fill:none;stroke-width:1;stroke-linecap:butt;stroke-linejoin:miter;stroke:rgb(74.901962%,74.901962%,74.901962%);stroke-opacity:1;stroke-miterlimit:4;" d="M 18.371094 -132.457031 C 20.273438 -129.15625 22.300781 -125.46875 24 -122 C 42.417969 -84.425781 41.308594 -72.441406 60 -35 C 61.652344 -31.691406 63.605469 -28.203125 65.492188 -25.003906 " transform="matrix(1,0,0,1,4,206)"/>
<path style="fill-rule:nonzero;fill:rgb(74.901962%,74.901962%,74.901962%);fill-opacity:1;stroke-width:1;stroke-linecap:butt;stroke-linejoin:miter;stroke:rgb(74.901962%,74.901962%,74.901962%);stroke-opacity:1;stroke-miterlimit:4;" d="M 66.269531 -24.367188 C 66.269531 -24.144531 66.089844 -23.964844 65.871094 -23.964844 C 65.648438 -23.964844 65.46875 -24.144531 65.46875 -24.367188 C 65.46875 -24.585938 65.648438 -24.765625 65.871094 -24.765625 C 66.089844 -24.765625 66.269531 -24.585938 66.269531 -24.367188 Z M 66.269531 -24.367188 " transform="matrix(1,0,0,1,4,206)"/>
<path style="fill:none;stroke-width:1;stroke-linecap:butt;stroke-linejoin:miter;stroke:rgb(33.725491%,70.588237%,91.37255%);stroke-opacity:0.501961;stroke-dasharray:5,2;stroke-miterlimit:4;" d="M 82 -189 C 82 -184.03125 77.96875 -180 73 -180 C 68.03125 -180 64 -184.03125 64 -189 C 64 -193.96875 68.03125 -198 73 -198 C 77.96875 -198 82 -193.96875 82 -189 Z M 82 -189 " transform="matrix(1,0,0,1,4,206)"/>
<path style="fill:none;stroke-width:1;stroke-linecap:butt;stroke-linejoin:miter;stroke:rgb(33.725491%,70.588237%,91.37255%);stroke-opacity:0.501961;stroke-dasharray:5,2;stroke-miterlimit:4;" d="M 86 -189 C 86 -181.820312 80.179688 -176 73 -176 C 65.820312 -176 60 -181.820312 60 -189 C 60 -196.179688 65.820312 -202 73 -202 C 80.179688 -202 86 -196.179688 86 -189 Z M 86 -189 " transform="matrix(1,0,0,1,4,206)"/>
<path style=" stroke:none;fill-rule:nonzero;fill:rgb(0%,0%,0%);fill-opacity:1;" d="M 79.320312 20 L 78.421875 20 L 78.421875 16.714844 L 75.558594 16.714844 L 75.558594 20 L 74.664062 20 L 74.664062 12.890625 L 75.558594 12.890625 L 75.558594 15.945312 L 78.421875 15.945312 L 78.421875 12.890625 L 79.320312 12.890625 Z M 73.898438 10.722656 "/>
<path style="fill:none;stroke-width:1;stroke-linecap:butt;stroke-linejoin:miter;stroke:rgb(74.901962%,74.901962%,74.901962%);stroke-opacity:1;stroke-miterlimit:4;" d="M 21.800781 -150.390625 C 32.71875 -158.625 50.339844 -171.914062 61.796875 -180.550781 " transform="matrix(1,0,0,1,4,206)"/>
<path style="fill-rule:nonzero;fill:rgb(74.901962%,74.901962%,74.901962%);fill-opacity:1;stroke-width:1;stroke-linecap:butt;stroke-linejoin:miter;stroke:rgb(74.901962%,74.901962%,74.901962%);stroke-opacity:1;stroke-miterlimit:4;" d="M 62.691406 -180.925781 C 62.691406 -180.703125 62.511719 -180.523438 62.292969 -180.523438 C 62.070312 -180.523438 61.890625 -180.703125 61.890625 -180.925781 C 61.890625 -181.144531 62.070312 -181.324219 62.292969 -181.324219 C 62.511719 -181.324219 62.691406 -181.144531 62.691406 -180.925781 Z M 62.691406 -180.925781 " transform="matrix(1,0,0,1,4,206)"/>
<path style="fill:none;stroke-width:1;stroke-linecap:butt;stroke-linejoin:miter;stroke:rgb(49.803922%,49.803922%,49.803922%);stroke-opacity:1;stroke-miterlimit:4;" d="M 24 -101 C 24 -94.371094 18.628906 -89 12 -89 C 5.371094 -89 0 -94.371094 0 -101 C 0 -107.628906 5.371094 -113 12 -113 C 18.628906 -113 24 -107.628906 24 -101 Z M 24 -101 " transform="matrix(1,0,0,1,4,206)"/>
<path style=" stroke:none;fill-rule:nonzero;fill:rgb(0%,0%,0%);fill-opacity:1;" d="M 8.355469 102.863281 L 8.355469 103.628906 L 8.832031 103.628906 L 8.832031 104.050781 L 8.355469 104.050781 L 8.355469 106.015625 C 8.355469 106.140625 8.375 106.234375 8.417969 106.300781 C 8.457031 106.363281 8.527344 106.394531 8.628906 106.394531 C 8.695312 106.394531 8.765625 106.386719 8.835938 106.363281 L 8.828125 106.800781 C 8.710938 106.839844 8.59375 106.859375 8.46875 106.859375 C 8.265625 106.859375 8.109375 106.785156 8 106.640625 C 7.894531 106.492188 7.839844 106.285156 7.839844 106.019531 L 7.839844 104.050781 L 7.355469 104.050781 L 7.355469 103.628906 L 7.839844 103.628906 L 7.839844 102.863281 Z M 9.28125 105.070312 C 9.28125 104.609375 9.394531 104.242188 9.617188 103.976562 C 9.839844 103.707031 10.136719 103.574219 10.503906 103.574219 C 10.871094 103.574219 11.167969 103.703125 11.390625 103.964844 C 11.613281 104.226562 11.730469 104.582031 11.734375 105.035156 L 11.734375 105.367188 C 11.734375 105.828125 11.621094 106.191406 11.402344 106.457031 C 11.179688 106.726562 10.878906 106.859375 10.511719 106.859375 C 10.144531 106.859375 9.847656 106.730469 9.625 106.46875 C 9.402344 106.210938 9.289062 105.859375 9.28125 105.414062 Z M 9.800781 105.367188 C 9.800781 105.695312 9.863281 105.949219 9.992188 106.136719 C 10.121094 106.324219 10.292969 106.417969 10.511719 106.417969 C 10.96875 106.417969 11.203125 106.085938 11.214844 105.425781 L 11.214844 105.070312 C 11.214844 104.746094 11.152344 104.488281 11.023438 104.300781 C 10.894531 104.113281 10.722656 104.019531 10.503906 104.019531 C 10.292969 104.019531 10.121094 104.113281 9.992188 104.300781 C 9.863281 104.488281 9.800781 104.746094 9.800781 105.066406 Z M 13.199219 105.351562 L 12.921875 105.667969 L 12.921875 106.800781 L 12.40625 106.800781 L 12.40625 102.300781 L 12.921875 102.300781 L 12.921875 104.992188 L 13.910156 103.628906 L 14.53125 103.628906 L 13.523438 104.957031 L 14.664062 106.800781 L 14.0625 106.800781 Z M 16.179688 106.859375 C 15.785156 106.859375 15.484375 106.742188 15.273438 106.507812 C 15.0625 106.269531 14.953125 105.925781 14.949219 105.472656 L 14.949219 105.085938 C 14.949219 104.613281 15.054688 104.242188 15.257812 103.976562 C 15.464844 103.707031 15.753906 103.574219 16.121094 103.574219 C 16.492188 103.574219 16.769531 103.691406 16.953125 103.925781 C 17.136719 104.164062 17.230469 104.53125 17.234375 105.03125 L 17.234375 105.371094 L 15.464844 105.371094 L 15.464844 105.445312 C 15.464844 105.785156 15.53125 106.03125 15.65625 106.183594 C 15.785156 106.339844 15.96875 106.417969 16.210938 106.417969 C 16.363281 106.417969 16.496094 106.386719 16.613281 106.332031 C 16.730469 106.273438 16.839844 106.183594 16.941406 106.058594 L 17.207031 106.386719 C 16.984375 106.703125 16.640625 106.859375 16.179688 106.859375 Z M 16.121094 104.019531 C 15.90625 104.019531 15.746094 104.089844 15.644531 104.238281 C 15.542969 104.386719 15.480469 104.613281 15.46875 104.925781 L 16.714844 104.925781 L 16.714844 104.855469 C 16.703125 104.554688 16.648438 104.339844 16.554688 104.210938 C 16.460938 104.082031 16.316406 104.019531 16.121094 104.019531 Z M 18.34375 103.628906 L 18.359375 103.972656 C 18.5625 103.707031 18.816406 103.574219 19.128906 103.574219 C 19.691406 103.574219 19.976562 103.945312 19.984375 104.695312 L 19.984375 106.800781 L 19.46875 106.800781 L 19.46875 104.71875 C 19.46875 104.46875 19.425781 104.292969 19.34375 104.1875 C 19.257812 104.082031 19.132812 104.03125 18.96875 104.03125 C 18.839844 104.03125 18.722656 104.074219 18.621094 104.160156 C 18.519531 104.246094 18.4375 104.359375 18.375 104.496094 L 18.375 106.800781 L 17.855469 106.800781 L 17.855469 103.628906 Z M 24.472656 106.800781 L 22.089844 106.800781 L 22.089844 106.410156 L 23.304688 104.800781 C 23.488281 104.550781 23.617188 104.347656 23.6875 104.1875 C 23.757812 104.027344 23.792969 103.863281 23.792969 103.683594 C 23.792969 103.457031 23.742188 103.273438 23.636719 103.132812 C 23.53125 102.992188 23.390625 102.921875 23.21875 102.921875 C 23.003906 102.921875 22.835938 102.996094 22.71875 103.144531 C 22.597656 103.292969 22.539062 103.511719 22.539062 103.792969 L 22.019531 103.792969 C 22.019531 103.398438 22.128906 103.082031 22.34375 102.839844 C 22.558594 102.597656 22.851562 102.476562 23.21875 102.476562 C 23.558594 102.476562 23.828125 102.582031 24.023438 102.789062 C 24.21875 102.996094 24.316406 103.273438 24.316406 103.621094 C 24.316406 104.042969 24.097656 104.539062 23.65625 105.117188 L 22.707031 106.359375 L 24.472656 106.359375 Z M 7.289062 101.234375 "/>
<path style="fill:none;stroke-width:1;stroke-linecap:butt;stroke-linejoin:miter;stroke:rgb(74.901962%,74.901962%,74.901962%);stroke-opacity:1;stroke-miterlimit:4;" d="M 21.800781 -108.070312 C 32.589844 -115.851562 49.917969 -128.351562 61.378906 -136.617188 " transform="matrix(1,0,0,1,4,206)"/>
<path style="fill-rule:nonzero;fill:rgb(74.901962%,74.901962%,74.901962%);fill-opacity:1;stroke-width:1;stroke-linecap:butt;stroke-linejoin:miter;stroke:rgb(74.901962%,74.901962%,74.901962%);stroke-opacity:1;stroke-miterlimit:4;" d="M 62.269531 -136.972656 C 62.269531 -136.75 62.09375 -136.574219 61.871094 -136.574219 C 61.648438 -136.574219 61.472656 -136.75 61.472656 -136.972656 C 61.472656 -137.195312 61.648438 -137.371094 61.871094 -137.371094 C 62.09375 -137.371094 62.269531 -137.195312 62.269531 -136.972656 Z M 62.269531 -136.972656 " transform="matrix(1,0,0,1,4,206)"/>
<path style="fill:none;stroke-width:1;stroke-linecap:butt;stroke-linejoin:miter;stroke:rgb(74.901962%,74.901962%,74.901962%);stroke-opacity:1;stroke-miterlimit:4;" d="M 24.050781 -101 C 34.007812 -101 48.164062 -101 58.695312 -101 " transform="matrix(1,0,0,1,4,206)"/>
<path style="fill-rule:nonzero;fill:rgb(74.901962%,74.901962%,74.901962%);fill-opacity:1;stroke-width:1;stroke-linecap:butt;stroke-linejoin:miter;stroke:rgb(74.901962%,74.901962%,74.901962%);stroke-opacity:1;stroke-miterlimit:4;" d="M 59.703125 -101 C 59.703125 -100.777344 59.523438 -100.601562 59.304688 -100.601562 C 59.082031 -100.601562 58.902344 -100.777344 58.902344 -101 C 58.902344 -101.222656 59.082031 -101.398438 59.304688 -101.398438 C 59.523438 -101.398438 59.703125 -101.222656 59.703125 -101 Z M 59.703125 -101 " transform="matrix(1,0,0,1,4,206)"/>
<path style="fill:none;stroke-width:1;stroke-linecap:butt;stroke-linejoin:miter;stroke:rgb(74.901962%,74.901962%,74.901962%);stroke-opacity:1;stroke-miterlimit:4;" d="M 21.800781 -93.929688 C 32.589844 -86.148438 49.917969 -73.648438 61.378906 -65.382812 " transform="matrix(1,0,0,1,4,206)"/>
<path style="fill-rule:nonzero;fill:rgb(74.901962%,74.901962%,74.901962%);fill-opacity:1;stroke-width:1;stroke-linecap:butt;stroke-linejoin:miter;stroke:rgb(74.901962%,74.901962%,74.901962%);stroke-opacity:1;stroke-miterlimit:4;" d="M 62.269531 -65.027344 C 62.269531 -64.804688 62.09375 -64.628906 61.871094 -64.628906 C 61.648438 -64.628906 61.472656 -64.804688 61.472656 -65.027344 C 61.472656 -65.25 61.648438 -65.425781 61.871094 -65.425781 C 62.09375 -65.425781 62.269531 -65.25 62.269531 -65.027344 Z M 62.269531 -65.027344 " transform="matrix(1,0,0,1,4,206)"/>
<path style="fill:none;stroke-width:1;stroke-linecap:butt;stroke-linejoin:miter;stroke:rgb(74.901962%,74.901962%,74.901962%);stroke-opacity:1;stroke-miterlimit:4;" d="M 18.996094 -90.90625 C 30.394531 -74.460938 52.90625 -41.988281 64.949219 -24.613281 " transform="matrix(1,0,0,1,4,206)"/>
<path style="fill-rule:nonzero;fill:rgb(74.901962%,74.901962%,74.901962%);fill-opacity:1;stroke-width:1;stroke-linecap:butt;stroke-linejoin:miter;stroke:rgb(74.901962%,74.901962%,74.901962%);stroke-opacity:1;stroke-miterlimit:4;" d="M 65.6875 -24.128906 C 65.6875 -23.90625 65.507812 -23.726562 65.285156 -23.726562 C 65.066406 -23.726562 64.886719 -23.90625 64.886719 -24.128906 C 64.886719 -24.347656 65.066406 -24.527344 65.285156 -24.527344 C 65.507812 -24.527344 65.6875 -24.347656 65.6875 -24.128906 Z M 65.6875 -24.128906 " transform="matrix(1,0,0,1,4,206)"/>
<path style="fill:none;stroke-width:1;stroke-linecap:butt;stroke-linejoin:miter;stroke:rgb(74.901962%,74.901962%,74.901962%);stroke-opacity:1;stroke-miterlimit:4;" d="M 18.996094 -111.09375 C 30.394531 -127.539062 52.90625 -160.011719 64.949219 -177.386719 " transform="matrix(1,0,0,1,4,206)"/>
<path style="fill-rule:nonzero;fill:rgb(74.901962%,74.901962%,74.901962%);fill-opacity:1;stroke-width:1;stroke-linecap:butt;stroke-linejoin:miter;stroke:rgb(74.901962%,74.901962%,74.901962%);stroke-opacity:1;stroke-miterlimit:4;" d="M 65.6875 -177.871094 C 65.6875 -177.652344 65.507812 -177.472656 65.285156 -177.472656 C 65.066406 -177.472656 64.886719 -177.652344 64.886719 -177.871094 C 64.886719 -178.09375 65.066406 -178.273438 65.285156 -178.273438 C 65.507812 -178.273438 65.6875 -178.09375 65.6875 -177.871094 Z M 65.6875 -177.871094 " transform="matrix(1,0,0,1,4,206)"/>
<path style="fill:none;stroke-width:1;stroke-linecap:butt;stroke-linejoin:miter;stroke:rgb(49.803922%,49.803922%,49.803922%);stroke-opacity:1;stroke-miterlimit:4;" d="M 24 -59 C 24 -52.371094 18.628906 -47 12 -47 C 5.371094 -47 0 -52.371094 0 -59 C 0 -65.628906 5.371094 -71 12 -71 C 18.628906 -71 24 -65.628906 24 -59 Z M 24 -59 " transform="matrix(1,0,0,1,4,206)"/>
<path style=" stroke:none;fill-rule:nonzero;fill:rgb(0%,0%,0%);fill-opacity:1;" d="M 8.355469 144.863281 L 8.355469 145.628906 L 8.832031 145.628906 L 8.832031 146.050781 L 8.355469 146.050781 L 8.355469 148.015625 C 8.355469 148.140625 8.375 148.234375 8.417969 148.300781 C 8.457031 148.363281 8.527344 148.394531 8.628906 148.394531 C 8.695312 148.394531 8.765625 148.386719 8.835938 148.363281 L 8.828125 148.800781 C 8.710938 148.839844 8.59375 148.859375 8.46875 148.859375 C 8.265625 148.859375 8.109375 148.785156 8 148.640625 C 7.894531 148.492188 7.839844 148.285156 7.839844 148.019531 L 7.839844 146.050781 L 7.355469 146.050781 L 7.355469 145.628906 L 7.839844 145.628906 L 7.839844 144.863281 Z M 9.28125 147.070312 C 9.28125 146.609375 9.394531 146.242188 9.617188 145.976562 C 9.839844 145.707031 10.136719 145.574219 10.503906 145.574219 C 10.871094 145.574219 11.167969 145.703125 11.390625 145.964844 C 11.613281 146.226562 11.730469 146.582031 11.734375 147.035156 L 11.734375 147.367188 C 11.734375 147.828125 11.621094 148.191406 11.402344 148.457031 C 11.179688 148.726562 10.878906 148.859375 10.511719 148.859375 C 10.144531 148.859375 9.847656 148.730469 9.625 148.46875 C 9.402344 148.210938 9.289062 147.859375 9.28125 147.414062 Z M 9.800781 147.367188 C 9.800781 147.695312 9.863281 147.949219 9.992188 148.136719 C 10.121094 148.324219 10.292969 148.417969 10.511719 148.417969 C 10.96875 148.417969 11.203125 148.085938 11.214844 147.425781 L 11.214844 147.070312 C 11.214844 146.746094 11.152344 146.488281 11.023438 146.300781 C 10.894531 146.113281 10.722656 146.019531 10.503906 146.019531 C 10.292969 146.019531 10.121094 146.113281 9.992188 146.300781 C 9.863281 146.488281 9.800781 146.746094 9.800781 147.066406 Z M 13.199219 147.351562 L 12.921875 147.667969 L 12.921875 148.800781 L 12.40625 148.800781 L 12.40625 144.300781 L 12.921875 144.300781 L 12.921875 146.992188 L 13.910156 145.628906 L 14.53125 145.628906 L 13.523438 146.957031 L 14.664062 148.800781 L 14.0625 148.800781 Z M 16.179688 148.859375 C 15.785156 148.859375 15.484375 148.742188 15.273438 148.507812 C 15.0625 148.269531 14.953125 147.925781 14.949219 147.472656 L 14.949219 147.085938 C 14.949219 146.613281 15.054688 146.242188 15.257812 145.976562 C 15.464844 145.707031 15.753906 145.574219 16.121094 145.574219 C 16.492188 145.574219 16.769531 145.691406 16.953125 145.925781 C 17.136719 146.164062 17.230469 146.53125 17.234375 147.03125 L 17.234375 147.371094 L 15.464844 147.371094 L 15.464844 147.445312 C 15.464844 147.785156 15.53125 148.03125 15.65625 148.183594 C 15.785156 148.339844 15.96875 148.417969 16.210938 148.417969 C 16.363281 148.417969 16.496094 148.386719 16.613281 148.332031 C 16.730469 148.273438 16.839844 148.183594 16.941406 148.058594 L 17.207031 148.386719 C 16.984375 148.703125 16.640625 148.859375 16.179688 148.859375 Z M 16.121094 146.019531 C 15.90625 146.019531 15.746094 146.089844 15.644531 146.238281 C 15.542969 146.386719 15.480469 146.613281 15.46875 146.925781 L 16.714844 146.925781 L 16.714844 146.855469 C 16.703125 146.554688 16.648438 146.339844 16.554688 146.210938 C 16.460938 146.082031 16.316406 146.019531 16.121094 146.019531 Z M 18.34375 145.628906 L 18.359375 145.972656 C 18.5625 145.707031 18.816406 145.574219 19.128906 145.574219 C 19.691406 145.574219 19.976562 145.945312 19.984375 146.695312 L 19.984375 148.800781 L 19.46875 148.800781 L 19.46875 146.71875 C 19.46875 146.46875 19.425781 146.292969 19.34375 146.1875 C 19.257812 146.082031 19.132812 146.03125 18.96875 146.03125 C 18.839844 146.03125 18.722656 146.074219 18.621094 146.160156 C 18.519531 146.246094 18.4375 146.359375 18.375 146.496094 L 18.375 148.800781 L 17.855469 148.800781 L 17.855469 145.628906 Z M 22.75 146.402344 L 23.082031 146.402344 C 23.292969 146.402344 23.457031 146.339844 23.574219 146.207031 C 23.691406 146.078125 23.746094 145.898438 23.746094 145.671875 C 23.746094 145.171875 23.554688 144.921875 23.167969 144.921875 C 22.980469 144.921875 22.835938 144.988281 22.730469 145.125 C 22.625 145.257812 22.574219 145.433594 22.574219 145.652344 L 22.058594 145.652344 C 22.058594 145.3125 22.160156 145.03125 22.367188 144.808594 C 22.574219 144.585938 22.84375 144.476562 23.167969 144.476562 C 23.503906 144.476562 23.769531 144.582031 23.964844 144.792969 C 24.164062 145.003906 24.261719 145.300781 24.261719 145.683594 C 24.261719 145.878906 24.210938 146.066406 24.109375 146.234375 C 24.007812 146.40625 23.871094 146.53125 23.707031 146.613281 C 24.109375 146.761719 24.3125 147.09375 24.3125 147.613281 C 24.3125 147.992188 24.207031 148.296875 23.996094 148.519531 C 23.785156 148.746094 23.503906 148.859375 23.164062 148.859375 C 22.824219 148.859375 22.554688 148.753906 22.34375 148.539062 C 22.136719 148.324219 22.035156 148.035156 22.035156 147.675781 L 22.550781 147.675781 C 22.550781 147.902344 22.605469 148.082031 22.714844 148.214844 C 22.824219 148.347656 22.972656 148.417969 23.164062 148.417969 C 23.355469 148.417969 23.511719 148.351562 23.625 148.222656 C 23.738281 148.089844 23.796875 147.890625 23.796875 147.621094 C 23.796875 147.105469 23.550781 146.847656 23.0625 146.847656 L 22.75 146.847656 Z M 7.289062 143.234375 "/>
<path style="fill:none;stroke-width:1;stroke-linecap:butt;stroke-linejoin:miter;stroke:rgb(74.901962%,74.901962%,74.901962%);stroke-opacity:1;stroke-miterlimit:4;" d="M 18.996094 -68.867188 C 30.332031 -84.847656 52.660156 -116.328125 64.753906 -133.371094 " transform="matrix(1,0,0,1,4,206)"/>
<path style="fill-rule:nonzero;fill:rgb(74.901962%,74.901962%,74.901962%);fill-opacity:1;stroke-width:1;stroke-linecap:butt;stroke-linejoin:miter;stroke:rgb(74.901962%,74.901962%,74.901962%);stroke-opacity:1;stroke-miterlimit:4;" d="M 65.488281 -133.847656 C 65.488281 -133.625 65.308594 -133.445312 65.089844 -133.445312 C 64.867188 -133.445312 64.6875 -133.625 64.6875 -133.847656 C 64.6875 -134.066406 64.867188 -134.246094 65.089844 -134.246094 C 65.308594 -134.246094 65.488281 -134.066406 65.488281 -133.847656 Z M 65.488281 -133.847656 " transform="matrix(1,0,0,1,4,206)"/>
<path style="fill:none;stroke-width:1;stroke-linecap:butt;stroke-linejoin:miter;stroke:rgb(74.901962%,74.901962%,74.901962%);stroke-opacity:1;stroke-miterlimit:4;" d="M 22.074219 -65.933594 C 32.78125 -73.308594 49.703125 -84.960938 61.070312 -92.785156 " transform="matrix(1,0,0,1,4,206)"/>
<path style="fill-rule:nonzero;fill:rgb(74.901962%,74.901962%,74.901962%);fill-opacity:1;stroke-width:1;stroke-linecap:butt;stroke-linejoin:miter;stroke:rgb(74.901962%,74.901962%,74.901962%);stroke-opacity:1;stroke-miterlimit:4;" d="M 61.949219 -93.117188 C 61.949219 -92.894531 61.769531 -92.714844 61.546875 -92.714844 C 61.328125 -92.714844 61.148438 -92.894531 61.148438 -93.117188 C 61.148438 -93.335938 61.328125 -93.515625 61.546875 -93.515625 C 61.769531 -93.515625 61.949219 -93.335938 61.949219 -93.117188 Z M 61.949219 -93.117188 " transform="matrix(1,0,0,1,4,206)"/>
<path style="fill:none;stroke-width:1;stroke-linecap:butt;stroke-linejoin:miter;stroke:rgb(74.901962%,74.901962%,74.901962%);stroke-opacity:1;stroke-miterlimit:4;" d="M 24.050781 -58.605469 C 34.007812 -58.277344 48.164062 -57.8125 58.695312 -57.46875 " transform="matrix(1,0,0,1,4,206)"/>
<path style="fill-rule:nonzero;fill:rgb(74.901962%,74.901962%,74.901962%);fill-opacity:1;stroke-width:1;stroke-linecap:butt;stroke-linejoin:miter;stroke:rgb(74.901962%,74.901962%,74.901962%);stroke-opacity:1;stroke-miterlimit:4;" d="M 59.703125 -57.449219 C 59.703125 -57.226562 59.523438 -57.050781 59.304688 -57.050781 C 59.082031 -57.050781 58.902344 -57.226562 58.902344 -57.449219 C 58.902344 -57.671875 59.082031 -57.847656 59.304688 -57.847656 C 59.523438 -57.847656 59.703125 -57.671875 59.703125 -57.449219 Z M 59.703125 -57.449219 " transform="matrix(1,0,0,1,4,206)"/>
<path style="fill:none;stroke-width:1;stroke-linecap:butt;stroke-linejoin:miter;stroke:rgb(74.901962%,74.901962%,74.901962%);stroke-opacity:1;stroke-miterlimit:4;" d="M 21.800781 -51.609375 C 32.71875 -43.375 50.339844 -30.085938 61.796875 -21.449219 " transform="matrix(1,0,0,1,4,206)"/>
<path style="fill-rule:nonzero;fill:rgb(74.901962%,74.901962%,74.901962%);fill-opacity:1;stroke-width:1;stroke-linecap:butt;stroke-linejoin:miter;stroke:rgb(74.901962%,74.901962%,74.901962%);stroke-opacity:1;stroke-miterlimit:4;" d="M 62.691406 -21.074219 C 62.691406 -20.855469 62.511719 -20.675781 62.292969 -20.675781 C 62.070312 -20.675781 61.890625 -20.855469 61.890625 -21.074219 C 61.890625 -21.296875 62.070312 -21.476562 62.292969 -21.476562 C 62.511719 -21.476562 62.691406 -21.296875 62.691406 -21.074219 Z M 62.691406 -21.074219 " transform="matrix(1,0,0,1,4,206)"/>
<path style="fill:none;stroke-width:1;stroke-linecap:butt;stroke-linejoin:miter;stroke:rgb(74.901962%,74.901962%,74.901962%);stroke-opacity:1;stroke-miterlimit:4;" d="M 18.371094 -69.542969 C 20.273438 -72.84375 22.300781 -76.53125 24 -80 C 42.417969 -117.574219 41.308594 -129.558594 60 -167 C 61.652344 -170.308594 63.605469 -173.796875 65.492188 -176.996094 " transform="matrix(1,0,0,1,4,206)"/>
<path style="fill-rule:nonzero;fill:rgb(74.901962%,74.901962%,74.901962%);fill-opacity:1;stroke-width:1;stroke-linecap:butt;stroke-linejoin:miter;stroke:rgb(74.901962%,74.901962%,74.901962%);stroke-opacity:1;stroke-miterlimit:4;" d="M 66.269531 -177.632812 C 66.269531 -177.414062 66.089844 -177.234375 65.871094 -177.234375 C 65.648438 -177.234375 65.46875 -177.414062 65.46875 -177.632812 C 65.46875 -177.855469 65.648438 -178.035156 65.871094 -178.035156 C 66.089844 -178.035156 66.269531 -177.855469 66.269531 -177.632812 Z M 66.269531 -177.632812 " transform="matrix(1,0,0,1,4,206)"/>
</g>
</svg>
