<?xml version="1.0" encoding="UTF-8"?>
<svg xmlns="http://www.w3.org/2000/svg" xmlns:xlink="http://www.w3.org/1999/xlink" width="164pt" height="150pt" viewBox="0 0 164 150" version="1.1">
<g id="surface1">
<path style="fill:none;stroke-width:1;stroke-linecap:butt;stroke-linejoin:miter;stroke:rgb(49.803922%,49.803922%,49.803922%);stroke-opacity:1;stroke-miterlimit:4;" d="M 22 -131 C 22 -124.925781 17.074219 -120 11 -120 C 4.925781 -120 0 -124.925781 0 -131 C 0 -137.074219 4.925781 -142 11 -142 C 17.074219 -142 22 -137.074219 22 -131 Z M 22 -131 " transform="matrix(1,0,0,1,4,146)"/>
<path style=" stroke:none;fill-rule:nonzero;fill:rgb(25.098041%,25.098041%,25.098041%);fill-opacity:1;" d="M 11.917969 12.664062 L 12.601562 12.664062 L 13.324219 13.769531 L 14.050781 12.664062 L 14.695312 12.675781 L 13.636719 14.191406 L 14.742188 15.800781 L 14.066406 15.800781 L 13.289062 14.621094 L 12.53125 15.800781 L 11.863281 15.800781 L 12.96875 14.191406 Z M 11.832031 11.179688 "/>
<path style=" stroke:none;fill-rule:nonzero;fill:rgb(25.098041%,25.098041%,25.098041%);fill-opacity:1;" d="M 15.40625 14.03125 L 15.40625 13.625 C 15.785156 13.585938 16.050781 13.527344 16.203125 13.4375 C 16.355469 13.351562 16.464844 13.148438 16.539062 12.820312 L 16.957031 12.820312 L 16.957031 17 L 16.394531 17 L 16.394531 14.03125 Z M 14.832031 12.378906 "/>
<path style="fill:none;stroke-width:3;stroke-linecap:butt;stroke-linejoin:miter;stroke:rgb(33.725491%,70.588237%,91.37255%);stroke-opacity:0.501961;stroke-dasharray:5,2;stroke-miterlimit:4;" d="M 93 -71 C 93 -64.371094 87.628906 -59 81 -59 C 74.371094 -59 69 -64.371094 69 -71 C 69 -77.628906 74.371094 -83 81 -83 C 87.628906 -83 93 -77.628906 93 -71 Z M 93 -71 " transform="matrix(1,0,0,1,4,146)"/>
<path style="fill:none;stroke-width:3;stroke-linecap:butt;stroke-linejoin:miter;stroke:rgb(33.725491%,70.588237%,91.37255%);stroke-opacity:0.501961;stroke-dasharray:5,2;stroke-miterlimit:4;" d="M 97 -71 C 97 -62.164062 89.835938 -55 81 -55 C 72.164062 -55 65 -62.164062 65 -71 C 65 -79.835938 72.164062 -87 81 -87 C 89.835938 -87 97 -79.835938 97 -71 Z M 97 -71 " transform="matrix(1,0,0,1,4,146)"/>
<path style=" stroke:none;fill-rule:nonzero;fill:rgb(25.098041%,25.098041%,25.098041%);fill-opacity:1;" d="M 81.351562 69.914062 L 81.835938 69.914062 L 81.835938 73.074219 L 83.652344 73.074219 L 83.652344 73.5 L 81.351562 73.5 Z M 84.070312 70.898438 L 84.519531 70.898438 L 84.519531 73.5 L 84.070312 73.5 Z M 84.070312 69.914062 L 84.519531 69.914062 L 84.519531 70.410156 L 84.070312 70.410156 Z M 85.179688 70.886719 L 85.597656 70.886719 L 85.597656 71.257812 C 85.722656 71.105469 85.855469 70.992188 85.992188 70.925781 C 86.128906 70.859375 86.285156 70.828125 86.453125 70.828125 C 86.824219 70.828125 87.074219 70.957031 87.207031 71.214844 C 87.277344 71.355469 87.3125 71.558594 87.3125 71.824219 L 87.3125 73.5 L 86.867188 73.5 L 86.867188 71.851562 C 86.867188 71.691406 86.84375 71.5625 86.796875 71.464844 C 86.71875 71.304688 86.574219 71.222656 86.371094 71.222656 C 86.265625 71.222656 86.179688 71.234375 86.113281 71.253906 C 85.992188 71.289062 85.886719 71.359375 85.796875 71.46875 C 85.722656 71.554688 85.675781 71.644531 85.652344 71.734375 C 85.632812 71.828125 85.621094 71.960938 85.621094 72.128906 L 85.621094 73.5 L 85.179688 73.5 Z M 88.066406 72.96875 L 88.578125 72.96875 L 88.578125 73.5 L 88.066406 73.5 Z M 80.96875 69.648438 "/>
<path style=" stroke:none;fill-rule:nonzero;fill:rgb(25.098041%,25.098041%,25.098041%);fill-opacity:1;" d="M 79.449219 75.914062 L 81.0625 75.914062 C 81.382812 75.914062 81.640625 76.003906 81.835938 76.183594 C 82.03125 76.363281 82.128906 76.617188 82.128906 76.941406 C 82.128906 77.222656 82.042969 77.464844 81.867188 77.671875 C 81.695312 77.878906 81.425781 77.984375 81.0625 77.984375 L 79.9375 77.984375 L 79.9375 79.5 L 79.449219 79.5 Z M 81.636719 76.945312 C 81.636719 76.679688 81.539062 76.5 81.34375 76.40625 C 81.238281 76.355469 81.089844 76.332031 80.902344 76.332031 L 79.9375 76.332031 L 79.9375 77.574219 L 80.902344 77.574219 C 81.121094 77.574219 81.296875 77.527344 81.433594 77.433594 C 81.570312 77.339844 81.636719 77.179688 81.636719 76.945312 Z M 82.695312 76.886719 L 83.109375 76.886719 L 83.109375 77.335938 C 83.144531 77.25 83.230469 77.140625 83.363281 77.015625 C 83.496094 76.890625 83.648438 76.828125 83.824219 76.828125 C 83.832031 76.828125 83.847656 76.828125 83.867188 76.828125 C 83.886719 76.832031 83.917969 76.835938 83.964844 76.839844 L 83.964844 77.304688 C 83.9375 77.296875 83.914062 77.292969 83.894531 77.292969 C 83.871094 77.292969 83.847656 77.289062 83.820312 77.289062 C 83.601562 77.289062 83.429688 77.363281 83.3125 77.503906 C 83.191406 77.648438 83.132812 77.8125 83.132812 77.996094 L 83.132812 79.5 L 82.695312 79.5 Z M 85.433594 76.828125 C 85.621094 76.828125 85.800781 76.871094 85.972656 76.957031 C 86.148438 77.042969 86.28125 77.15625 86.371094 77.296875 C 86.460938 77.429688 86.519531 77.582031 86.546875 77.757812 C 86.574219 77.878906 86.585938 78.070312 86.585938 78.332031 L 84.671875 78.332031 C 84.679688 78.597656 84.742188 78.8125 84.859375 78.972656 C 84.976562 79.132812 85.15625 79.210938 85.402344 79.210938 C 85.632812 79.210938 85.816406 79.136719 85.953125 78.984375 C 86.03125 78.898438 86.085938 78.796875 86.117188 78.679688 L 86.550781 78.679688 C 86.539062 78.777344 86.5 78.882812 86.4375 79 C 86.371094 79.117188 86.300781 79.214844 86.21875 79.289062 C 86.085938 79.421875 85.921875 79.507812 85.726562 79.554688 C 85.621094 79.578125 85.5 79.59375 85.367188 79.59375 C 85.039062 79.59375 84.765625 79.472656 84.539062 79.238281 C 84.3125 79 84.199219 78.667969 84.199219 78.242188 C 84.199219 77.824219 84.3125 77.480469 84.539062 77.21875 C 84.769531 76.957031 85.066406 76.828125 85.433594 76.828125 Z M 86.136719 77.984375 C 86.117188 77.792969 86.074219 77.640625 86.011719 77.527344 C 85.890625 77.316406 85.6875 77.210938 85.40625 77.210938 C 85.207031 77.210938 85.035156 77.28125 84.898438 77.429688 C 84.761719 77.574219 84.691406 77.757812 84.683594 77.984375 Z M 87.40625 78.222656 C 87.40625 78.503906 87.464844 78.738281 87.582031 78.925781 C 87.703125 79.113281 87.894531 79.210938 88.15625 79.210938 C 88.359375 79.210938 88.527344 79.121094 88.65625 78.945312 C 88.789062 78.773438 88.851562 78.519531 88.851562 78.195312 C 88.851562 77.863281 88.785156 77.617188 88.648438 77.460938 C 88.515625 77.300781 88.347656 77.222656 88.148438 77.222656 C 87.929688 77.222656 87.75 77.308594 87.613281 77.476562 C 87.476562 77.644531 87.40625 77.894531 87.40625 78.222656 Z M 88.066406 76.839844 C 88.265625 76.839844 88.433594 76.882812 88.570312 76.964844 C 88.648438 77.015625 88.738281 77.101562 88.835938 77.222656 L 88.835938 75.902344 L 89.257812 75.902344 L 89.257812 79.5 L 88.863281 79.5 L 88.863281 79.136719 C 88.761719 79.296875 88.640625 79.414062 88.5 79.484375 C 88.359375 79.554688 88.199219 79.59375 88.019531 79.59375 C 87.726562 79.59375 87.472656 79.46875 87.261719 79.226562 C 87.046875 78.980469 86.941406 78.65625 86.941406 78.246094 C 86.941406 77.867188 87.039062 77.535156 87.234375 77.257812 C 87.429688 76.976562 87.707031 76.839844 88.066406 76.839844 Z M 90.011719 78.96875 L 90.523438 78.96875 L 90.523438 79.5 L 90.011719 79.5 Z M 79.023438 75.648438 "/>
<path style="fill:none;stroke-width:1;stroke-linecap:butt;stroke-linejoin:miter;stroke:rgb(25.098041%,25.098041%,25.098041%);stroke-opacity:1;stroke-miterlimit:4;" d="M 19.582031 -123.644531 C 31.371094 -113.539062 52.714844 -95.242188 66.875 -83.105469 " transform="matrix(1,0,0,1,4,146)"/>
<path style="fill-rule:nonzero;fill:rgb(25.098041%,25.098041%,25.098041%);fill-opacity:1;stroke-width:1;stroke-linecap:butt;stroke-linejoin:miter;stroke:rgb(25.098041%,25.098041%,25.098041%);stroke-opacity:1;stroke-miterlimit:4;" d="M 68.808594 -82.308594 C 68.808594 -81.757812 68.359375 -81.308594 67.808594 -81.308594 C 67.253906 -81.308594 66.808594 -81.757812 66.808594 -82.308594 C 66.808594 -82.859375 67.253906 -83.308594 67.808594 -83.308594 C 68.359375 -83.308594 68.808594 -82.859375 68.808594 -82.308594 Z M 68.808594 -82.308594 " transform="matrix(1,0,0,1,4,146)"/>
<path style=" stroke:none;fill-rule:nonzero;fill:rgb(25.098041%,25.098041%,25.098041%);fill-opacity:1;" d="M 44.023438 34.550781 L 44.023438 34.433594 C 44.285156 34.375 44.515625 34.308594 44.726562 34.234375 C 44.933594 34.164062 45.042969 34.125 45.058594 34.125 C 45.0625 34.140625 45.066406 34.15625 45.066406 34.167969 L 45.066406 36.25 C 45.125 36.140625 45.214844 36.035156 45.332031 35.9375 C 45.542969 35.765625 45.785156 35.683594 46.058594 35.683594 C 46.394531 35.683594 46.679688 35.824219 46.914062 36.105469 C 47.152344 36.386719 47.269531 36.753906 47.269531 37.207031 C 47.269531 37.691406 47.117188 38.101562 46.808594 38.445312 C 46.5 38.789062 46.097656 38.964844 45.597656 38.964844 C 45.34375 38.964844 45.09375 38.914062 44.851562 38.8125 C 44.609375 38.710938 44.484375 38.613281 44.484375 38.511719 L 44.484375 34.898438 C 44.484375 34.765625 44.46875 34.671875 44.429688 34.617188 C 44.394531 34.5625 44.308594 34.535156 44.179688 34.535156 Z M 45.054688 38.398438 C 45.074219 38.515625 45.164062 38.601562 45.320312 38.652344 C 45.476562 38.703125 45.613281 38.730469 45.734375 38.730469 C 46.050781 38.730469 46.289062 38.609375 46.441406 38.371094 C 46.59375 38.132812 46.671875 37.84375 46.671875 37.503906 C 46.671875 37.164062 46.601562 36.851562 46.457031 36.5625 C 46.3125 36.273438 46.082031 36.128906 45.761719 36.128906 C 45.597656 36.128906 45.441406 36.179688 45.285156 36.277344 C 45.128906 36.378906 45.054688 36.503906 45.054688 36.65625 Z M 44 33.648438 "/>
<path style=" stroke:none;fill-rule:nonzero;fill:rgb(25.098041%,25.098041%,25.098041%);fill-opacity:1;" d="M 49.570312 35.605469 C 49.578125 35.617188 49.585938 35.625 49.585938 35.628906 C 49.585938 35.636719 49.589844 35.648438 49.589844 35.667969 L 49.589844 39.785156 C 49.589844 39.960938 49.636719 40.070312 49.726562 40.121094 C 49.820312 40.167969 49.996094 40.195312 50.25 40.207031 L 50.25 40.300781 L 48.324219 40.300781 L 48.324219 40.199219 C 48.601562 40.183594 48.78125 40.148438 48.863281 40.085938 C 48.949219 40.023438 48.992188 39.890625 48.992188 39.683594 L 48.992188 36.519531 C 48.992188 36.410156 48.976562 36.328125 48.949219 36.269531 C 48.921875 36.214844 48.863281 36.183594 48.773438 36.183594 C 48.710938 36.183594 48.636719 36.203125 48.539062 36.234375 C 48.445312 36.269531 48.359375 36.304688 48.277344 36.339844 L 48.277344 36.242188 L 49.53125 35.605469 Z M 47.5 35.050781 "/>
<path style="fill:none;stroke-width:1;stroke-linecap:butt;stroke-linejoin:miter;stroke:rgb(49.803922%,49.803922%,49.803922%);stroke-opacity:1;stroke-miterlimit:4;" d="M 22 -91 C 22 -84.925781 17.074219 -80 11 -80 C 4.925781 -80 0 -84.925781 0 -91 C 0 -97.074219 4.925781 -102 11 -102 C 17.074219 -102 22 -97.074219 22 -91 Z M 22 -91 " transform="matrix(1,0,0,1,4,146)"/>
<path style=" stroke:none;fill-rule:nonzero;fill:rgb(25.098041%,25.098041%,25.098041%);fill-opacity:1;" d="M 11.917969 52.664062 L 12.601562 52.664062 L 13.324219 53.769531 L 14.050781 52.664062 L 14.695312 52.675781 L 13.636719 54.191406 L 14.742188 55.800781 L 14.066406 55.800781 L 13.289062 54.621094 L 12.53125 55.800781 L 11.863281 55.800781 L 12.96875 54.191406 Z M 11.832031 51.179688 "/>
<path style=" stroke:none;fill-rule:nonzero;fill:rgb(25.098041%,25.098041%,25.098041%);fill-opacity:1;" d="M 15.019531 57 C 15.039062 56.640625 15.113281 56.324219 15.242188 56.054688 C 15.371094 55.789062 15.628906 55.546875 16.003906 55.328125 L 16.566406 55 C 16.816406 54.855469 16.996094 54.730469 17.097656 54.625 C 17.257812 54.464844 17.335938 54.28125 17.335938 54.070312 C 17.335938 53.828125 17.261719 53.632812 17.117188 53.488281 C 16.972656 53.34375 16.777344 53.273438 16.53125 53.273438 C 16.167969 53.273438 15.917969 53.410156 15.78125 53.683594 C 15.707031 53.828125 15.667969 54.03125 15.660156 54.292969 L 15.121094 54.292969 C 15.128906 53.929688 15.195312 53.628906 15.324219 53.398438 C 15.550781 52.992188 15.957031 52.789062 16.535156 52.789062 C 17.015625 52.789062 17.367188 52.921875 17.585938 53.179688 C 17.808594 53.4375 17.917969 53.726562 17.917969 54.046875 C 17.917969 54.382812 17.800781 54.671875 17.566406 54.90625 C 17.429688 55.046875 17.183594 55.214844 16.832031 55.414062 L 16.429688 55.632812 C 16.238281 55.738281 16.085938 55.839844 15.976562 55.9375 C 15.78125 56.105469 15.660156 56.296875 15.609375 56.5 L 17.898438 56.5 L 17.898438 57 Z M 14.832031 52.378906 "/>
<path style="fill:none;stroke-width:1;stroke-linecap:butt;stroke-linejoin:miter;stroke:rgb(25.098041%,25.098041%,25.098041%);stroke-opacity:1;stroke-miterlimit:4;" d="M 21.632812 -87.960938 C 32.695312 -84.800781 50.207031 -79.796875 63.351562 -76.042969 " transform="matrix(1,0,0,1,4,146)"/>
<path style="fill-rule:nonzero;fill:rgb(25.098041%,25.098041%,25.098041%);fill-opacity:1;stroke-width:1;stroke-linecap:butt;stroke-linejoin:miter;stroke:rgb(25.098041%,25.098041%,25.098041%);stroke-opacity:1;stroke-miterlimit:4;" d="M 65.625 -75.679688 C 65.625 -75.125 65.175781 -74.679688 64.625 -74.679688 C 64.070312 -74.679688 63.625 -75.125 63.625 -75.679688 C 63.625 -76.230469 64.070312 -76.679688 64.625 -76.679688 C 65.175781 -76.679688 65.625 -76.230469 65.625 -75.679688 Z M 65.625 -75.679688 " transform="matrix(1,0,0,1,4,146)"/>
<path style=" stroke:none;fill-rule:nonzero;fill:rgb(25.098041%,25.098041%,25.098041%);fill-opacity:1;" d="M 44.023438 56.550781 L 44.023438 56.433594 C 44.285156 56.375 44.515625 56.308594 44.726562 56.234375 C 44.933594 56.164062 45.042969 56.125 45.058594 56.125 C 45.0625 56.140625 45.066406 56.15625 45.066406 56.167969 L 45.066406 58.25 C 45.125 58.140625 45.214844 58.035156 45.332031 57.9375 C 45.542969 57.765625 45.785156 57.683594 46.058594 57.683594 C 46.394531 57.683594 46.679688 57.824219 46.914062 58.105469 C 47.152344 58.386719 47.269531 58.753906 47.269531 59.207031 C 47.269531 59.691406 47.117188 60.101562 46.808594 60.445312 C 46.5 60.789062 46.097656 60.964844 45.597656 60.964844 C 45.34375 60.964844 45.09375 60.914062 44.851562 60.8125 C 44.609375 60.710938 44.484375 60.613281 44.484375 60.511719 L 44.484375 56.898438 C 44.484375 56.765625 44.46875 56.671875 44.429688 56.617188 C 44.394531 56.5625 44.308594 56.535156 44.179688 56.535156 Z M 45.054688 60.398438 C 45.074219 60.515625 45.164062 60.601562 45.320312 60.652344 C 45.476562 60.703125 45.613281 60.730469 45.734375 60.730469 C 46.050781 60.730469 46.289062 60.609375 46.441406 60.371094 C 46.59375 60.132812 46.671875 59.84375 46.671875 59.503906 C 46.671875 59.164062 46.601562 58.851562 46.457031 58.5625 C 46.3125 58.273438 46.082031 58.128906 45.761719 58.128906 C 45.597656 58.128906 45.441406 58.179688 45.285156 58.277344 C 45.128906 58.378906 45.054688 58.503906 45.054688 58.65625 Z M 44 55.648438 "/>
<path style=" stroke:none;fill-rule:nonzero;fill:rgb(25.098041%,25.098041%,25.098041%);fill-opacity:1;" d="M 47.707031 62.222656 C 48.542969 61.355469 49.109375 60.71875 49.40625 60.316406 C 49.707031 59.910156 49.855469 59.515625 49.855469 59.128906 C 49.855469 58.792969 49.765625 58.535156 49.582031 58.359375 C 49.398438 58.183594 49.179688 58.09375 48.929688 58.09375 C 48.617188 58.09375 48.363281 58.207031 48.171875 58.433594 C 48.0625 58.558594 47.960938 58.753906 47.863281 59.011719 L 47.714844 58.980469 C 47.828125 58.457031 48.023438 58.09375 48.292969 57.890625 C 48.566406 57.6875 48.859375 57.582031 49.171875 57.582031 C 49.554688 57.582031 49.867188 57.707031 50.105469 57.949219 C 50.34375 58.191406 50.464844 58.488281 50.464844 58.839844 C 50.464844 59.210938 50.335938 59.570312 50.078125 59.917969 C 49.820312 60.265625 49.261719 60.882812 48.398438 61.769531 L 49.96875 61.769531 C 50.1875 61.769531 50.339844 61.742188 50.429688 61.6875 C 50.519531 61.636719 50.617188 61.507812 50.730469 61.304688 L 50.820312 61.347656 L 50.4375 62.300781 L 47.707031 62.300781 Z M 47.5 57.050781 "/>
<path style="fill:none;stroke-width:1;stroke-linecap:butt;stroke-linejoin:miter;stroke:rgb(49.803922%,49.803922%,49.803922%);stroke-opacity:1;stroke-miterlimit:4;" d="M 22 -51 C 22 -44.925781 17.074219 -40 11 -40 C 4.925781 -40 0 -44.925781 0 -51 C 0 -57.074219 4.925781 -62 11 -62 C 17.074219 -62 22 -57.074219 22 -51 Z M 22 -51 " transform="matrix(1,0,0,1,4,146)"/>
<path style=" stroke:none;fill-rule:nonzero;fill:rgb(25.098041%,25.098041%,25.098041%);fill-opacity:1;" d="M 11.917969 92.664062 L 12.601562 92.664062 L 13.324219 93.769531 L 14.050781 92.664062 L 14.695312 92.675781 L 13.636719 94.191406 L 14.742188 95.800781 L 14.066406 95.800781 L 13.289062 94.621094 L 12.53125 95.800781 L 11.863281 95.800781 L 12.96875 94.191406 Z M 11.832031 91.179688 "/>
<path style=" stroke:none;fill-rule:nonzero;fill:rgb(25.098041%,25.098041%,25.098041%);fill-opacity:1;" d="M 16.390625 97.113281 C 15.894531 97.113281 15.535156 96.976562 15.3125 96.707031 C 15.089844 96.433594 14.976562 96.101562 14.976562 95.710938 L 15.527344 95.710938 C 15.550781 95.984375 15.601562 96.179688 15.679688 96.304688 C 15.816406 96.523438 16.0625 96.632812 16.417969 96.632812 C 16.695312 96.632812 16.917969 96.558594 17.089844 96.410156 C 17.257812 96.261719 17.339844 96.070312 17.339844 95.835938 C 17.339844 95.546875 17.25 95.34375 17.074219 95.230469 C 16.898438 95.117188 16.652344 95.058594 16.339844 95.058594 C 16.304688 95.058594 16.265625 95.058594 16.230469 95.058594 C 16.195312 95.058594 16.160156 95.0625 16.121094 95.0625 L 16.121094 94.597656 C 16.175781 94.601562 16.222656 94.609375 16.257812 94.609375 C 16.296875 94.609375 16.335938 94.613281 16.378906 94.613281 C 16.574219 94.613281 16.738281 94.582031 16.863281 94.519531 C 17.085938 94.410156 17.199219 94.214844 17.199219 93.933594 C 17.199219 93.722656 17.125 93.5625 16.976562 93.449219 C 16.828125 93.335938 16.65625 93.28125 16.457031 93.28125 C 16.105469 93.28125 15.863281 93.398438 15.730469 93.632812 C 15.65625 93.761719 15.613281 93.945312 15.601562 94.179688 L 15.082031 94.179688 C 15.082031 93.867188 15.144531 93.601562 15.269531 93.382812 C 15.484375 92.992188 15.863281 92.796875 16.402344 92.796875 C 16.832031 92.796875 17.160156 92.894531 17.394531 93.085938 C 17.628906 93.273438 17.746094 93.550781 17.746094 93.914062 C 17.746094 94.171875 17.675781 94.378906 17.539062 94.539062 C 17.453125 94.640625 17.339844 94.71875 17.207031 94.773438 C 17.425781 94.835938 17.597656 94.949219 17.722656 95.125 C 17.847656 95.296875 17.910156 95.507812 17.910156 95.757812 C 17.910156 96.15625 17.777344 96.484375 17.511719 96.734375 C 17.25 96.988281 16.875 97.113281 16.390625 97.113281 Z M 14.832031 92.378906 "/>
<path style="fill:none;stroke-width:1;stroke-linecap:butt;stroke-linejoin:miter;stroke:rgb(25.098041%,25.098041%,25.098041%);stroke-opacity:1;stroke-miterlimit:4;" d="M 21.632812 -54.039062 C 32.695312 -57.199219 50.207031 -62.203125 63.351562 -65.957031 " transform="matrix(1,0,0,1,4,146)"/>
<path style="fill-rule:nonzero;fill:rgb(25.098041%,25.098041%,25.098041%);fill-opacity:1;stroke-width:1;stroke-linecap:butt;stroke-linejoin:miter;stroke:rgb(25.098041%,25.098041%,25.098041%);stroke-opacity:1;stroke-miterlimit:4;" d="M 65.625 -66.320312 C 65.625 -65.769531 65.175781 -65.320312 64.625 -65.320312 C 64.070312 -65.320312 63.625 -65.769531 63.625 -66.320312 C 63.625 -66.875 64.070312 -67.320312 64.625 -67.320312 C 65.175781 -67.320312 65.625 -66.875 65.625 -66.320312 Z M 65.625 -66.320312 " transform="matrix(1,0,0,1,4,146)"/>
<path style=" stroke:none;fill-rule:nonzero;fill:rgb(25.098041%,25.098041%,25.098041%);fill-opacity:1;" d="M 44.023438 77.550781 L 44.023438 77.433594 C 44.285156 77.375 44.515625 77.308594 44.726562 77.234375 C 44.933594 77.164062 45.042969 77.125 45.058594 77.125 C 45.0625 77.140625 45.066406 77.15625 45.066406 77.167969 L 45.066406 79.25 C 45.125 79.140625 45.214844 79.035156 45.332031 78.9375 C 45.542969 78.765625 45.785156 78.683594 46.058594 78.683594 C 46.394531 78.683594 46.679688 78.824219 46.914062 79.105469 C 47.152344 79.386719 47.269531 79.753906 47.269531 80.207031 C 47.269531 80.691406 47.117188 81.101562 46.808594 81.445312 C 46.5 81.789062 46.097656 81.964844 45.597656 81.964844 C 45.34375 81.964844 45.09375 81.914062 44.851562 81.8125 C 44.609375 81.710938 44.484375 81.613281 44.484375 81.511719 L 44.484375 77.898438 C 44.484375 77.765625 44.46875 77.671875 44.429688 77.617188 C 44.394531 77.5625 44.308594 77.535156 44.179688 77.535156 Z M 45.054688 81.398438 C 45.074219 81.515625 45.164062 81.601562 45.320312 81.652344 C 45.476562 81.703125 45.613281 81.730469 45.734375 81.730469 C 46.050781 81.730469 46.289062 81.609375 46.441406 81.371094 C 46.59375 81.132812 46.671875 80.84375 46.671875 80.503906 C 46.671875 80.164062 46.601562 79.851562 46.457031 79.5625 C 46.3125 79.273438 46.082031 79.128906 45.761719 79.128906 C 45.597656 79.128906 45.441406 79.179688 45.285156 79.277344 C 45.128906 79.378906 45.054688 79.503906 45.054688 79.65625 Z M 44 76.648438 "/>
<path style=" stroke:none;fill-rule:nonzero;fill:rgb(25.098041%,25.098041%,25.098041%);fill-opacity:1;" d="M 48.042969 82.707031 C 48.167969 82.707031 48.335938 82.769531 48.539062 82.902344 C 48.746094 83.03125 48.921875 83.097656 49.066406 83.097656 C 49.382812 83.097656 49.621094 82.988281 49.777344 82.773438 C 49.929688 82.558594 50.007812 82.324219 50.007812 82.070312 C 50.007812 81.828125 49.945312 81.613281 49.820312 81.425781 C 49.609375 81.113281 49.25 80.960938 48.746094 80.960938 C 48.71875 80.960938 48.6875 80.960938 48.664062 80.960938 C 48.636719 80.960938 48.601562 80.964844 48.566406 80.96875 L 48.558594 80.878906 C 48.921875 80.746094 49.210938 80.597656 49.421875 80.425781 C 49.632812 80.253906 49.734375 80.03125 49.734375 79.75 C 49.734375 79.5 49.652344 79.3125 49.488281 79.183594 C 49.324219 79.050781 49.132812 78.988281 48.921875 78.988281 C 48.671875 78.988281 48.449219 79.078125 48.257812 79.265625 C 48.152344 79.363281 48.042969 79.519531 47.921875 79.730469 L 47.8125 79.707031 C 47.90625 79.359375 48.074219 79.082031 48.324219 78.875 C 48.570312 78.667969 48.859375 78.5625 49.183594 78.5625 C 49.53125 78.5625 49.804688 78.660156 49.992188 78.851562 C 50.183594 79.042969 50.277344 79.261719 50.277344 79.511719 C 50.277344 79.734375 50.199219 79.9375 50.042969 80.121094 C 49.953125 80.226562 49.816406 80.34375 49.628906 80.472656 C 49.847656 80.566406 50.023438 80.675781 50.15625 80.800781 C 50.40625 81.042969 50.527344 81.34375 50.527344 81.710938 C 50.527344 82.144531 50.359375 82.527344 50.015625 82.855469 C 49.675781 83.1875 49.191406 83.351562 48.5625 83.351562 C 48.28125 83.351562 48.085938 83.308594 47.972656 83.226562 C 47.859375 83.144531 47.804688 83.054688 47.804688 82.957031 C 47.804688 82.898438 47.824219 82.84375 47.859375 82.789062 C 47.898438 82.734375 47.960938 82.707031 48.042969 82.707031 Z M 47.5 78.050781 "/>
<path style="fill:none;stroke-width:1;stroke-linecap:butt;stroke-linejoin:miter;stroke:rgb(0%,0%,0%);stroke-opacity:1;stroke-miterlimit:4;" d="M 148.667969 -82 C 148.667969 -82 141.332031 -82 141.332031 -82 C 137.667969 -82 134 -78.332031 134 -74.667969 C 134 -74.667969 134 -67.332031 134 -67.332031 C 134 -63.667969 137.667969 -60 141.332031 -60 C 141.332031 -60 148.667969 -60 148.667969 -60 C 152.332031 -60 156 -63.667969 156 -67.332031 C 156 -67.332031 156 -74.667969 156 -74.667969 C 156 -78.332031 152.332031 -82 148.667969 -82 " transform="matrix(1,0,0,1,4,146)"/>
<path style=" stroke:none;fill-rule:nonzero;fill:rgb(25.098041%,25.098041%,25.098041%);fill-opacity:1;" d="M 150.410156 72.769531 L 151.382812 72.769531 C 151.257812 73.105469 150.984375 73.871094 150.558594 75.066406 C 150.238281 75.964844 149.972656 76.695312 149.757812 77.261719 C 149.25 78.597656 148.890625 79.410156 148.683594 79.703125 C 148.476562 79.996094 148.117188 80.144531 147.609375 80.144531 C 147.484375 80.144531 147.390625 80.140625 147.324219 80.128906 C 147.257812 80.117188 147.171875 80.101562 147.078125 80.074219 L 147.078125 79.273438 C 147.230469 79.316406 147.339844 79.34375 147.40625 79.351562 C 147.476562 79.363281 147.535156 79.367188 147.589844 79.367188 C 147.75 79.367188 147.871094 79.339844 147.949219 79.285156 C 148.023438 79.234375 148.089844 79.167969 148.140625 79.089844 C 148.15625 79.0625 148.214844 78.929688 148.316406 78.6875 C 148.417969 78.445312 148.492188 78.269531 148.535156 78.152344 L 146.601562 72.769531 L 147.597656 72.769531 L 149 77.027344 Z M 146.5 70.300781 "/>
<path style="fill:none;stroke-width:1;stroke-linecap:butt;stroke-linejoin:miter;stroke:rgb(49.803922%,49.803922%,49.803922%);stroke-opacity:1;stroke-miterlimit:4;" d="M 97.148438 -71 C 106.773438 -71 118.953125 -71 128.617188 -71 " transform="matrix(1,0,0,1,4,146)"/>
<path style="fill-rule:nonzero;fill:rgb(49.803922%,49.803922%,49.803922%);fill-opacity:1;stroke-width:1;stroke-linecap:butt;stroke-linejoin:miter;stroke:rgb(49.803922%,49.803922%,49.803922%);stroke-opacity:1;stroke-miterlimit:4;" d="M 128.695312 -72.75 L 133.695312 -71 L 128.695312 -69.25 Z M 128.695312 -72.75 " transform="matrix(1,0,0,1,4,146)"/>
<path style="fill-rule:nonzero;fill:rgb(89.803922%,89.803922%,89.803922%);fill-opacity:1;stroke-width:1;stroke-linecap:butt;stroke-linejoin:miter;stroke:rgb(49.803922%,49.803922%,49.803922%);stroke-opacity:1;stroke-miterlimit:4;" d="M 22 -11 C 22 -4.925781 17.074219 0 11 0 C 4.925781 0 0 -4.925781 0 -11 C 0 -17.074219 4.925781 -22 11 -22 C 17.074219 -22 22 -17.074219 22 -11 Z M 22 -11 " transform="matrix(1,0,0,1,4,146)"/>
<path style=" stroke:none;fill-rule:nonzero;fill:rgb(25.098041%,25.098041%,25.098041%);fill-opacity:1;" d="M 3.878906 133.675781 L 4.414062 133.675781 L 4.414062 136.800781 L 3.878906 136.800781 Z M 3.878906 132.496094 L 4.414062 132.496094 L 4.414062 133.09375 L 3.878906 133.09375 Z M 5.210938 133.664062 L 5.710938 133.664062 L 5.710938 134.109375 C 5.859375 133.925781 6.019531 133.792969 6.183594 133.714844 C 6.347656 133.632812 6.535156 133.59375 6.738281 133.59375 C 7.183594 133.59375 7.484375 133.746094 7.640625 134.058594 C 7.726562 134.230469 7.769531 134.472656 7.769531 134.789062 L 7.769531 136.800781 L 7.230469 136.800781 L 7.230469 134.824219 C 7.230469 134.632812 7.203125 134.476562 7.148438 134.359375 C 7.054688 134.164062 6.882812 134.066406 6.636719 134.066406 C 6.511719 134.066406 6.410156 134.082031 6.332031 134.105469 C 6.1875 134.148438 6.058594 134.234375 5.949219 134.363281 C 5.863281 134.464844 5.804688 134.574219 5.777344 134.683594 C 5.75 134.792969 5.738281 134.953125 5.738281 135.15625 L 5.738281 136.800781 L 5.210938 136.800781 Z M 8.65625 132.785156 L 9.1875 132.785156 L 9.1875 133.664062 L 9.691406 133.664062 L 9.691406 134.09375 L 9.1875 134.09375 L 9.1875 136.140625 C 9.1875 136.25 9.226562 136.324219 9.300781 136.363281 C 9.34375 136.382812 9.410156 136.394531 9.507812 136.394531 C 9.53125 136.394531 9.558594 136.394531 9.585938 136.390625 C 9.617188 136.390625 9.652344 136.386719 9.691406 136.386719 L 9.691406 136.800781 C 9.628906 136.816406 9.566406 136.832031 9.5 136.839844 C 9.4375 136.847656 9.367188 136.851562 9.289062 136.851562 C 9.042969 136.851562 8.875 136.789062 8.789062 136.660156 C 8.699219 136.535156 8.65625 136.371094 8.65625 136.171875 L 8.65625 134.09375 L 8.230469 134.09375 L 8.230469 133.664062 L 8.65625 133.664062 Z M 11.523438 133.59375 C 11.746094 133.59375 11.960938 133.644531 12.167969 133.75 C 12.378906 133.855469 12.539062 133.988281 12.648438 134.15625 C 12.753906 134.3125 12.820312 134.496094 12.859375 134.707031 C 12.890625 134.851562 12.90625 135.082031 12.90625 135.402344 L 10.605469 135.402344 C 10.613281 135.71875 10.6875 135.972656 10.828125 136.167969 C 10.96875 136.359375 11.1875 136.457031 11.484375 136.457031 C 11.757812 136.457031 11.976562 136.363281 12.140625 136.183594 C 12.234375 136.078125 12.304688 135.957031 12.34375 135.816406 L 12.859375 135.816406 C 12.847656 135.933594 12.800781 136.058594 12.722656 136.203125 C 12.648438 136.34375 12.5625 136.457031 12.464844 136.550781 C 12.304688 136.707031 12.105469 136.808594 11.871094 136.863281 C 11.742188 136.894531 11.601562 136.910156 11.4375 136.910156 C 11.046875 136.910156 10.71875 136.769531 10.445312 136.484375 C 10.175781 136.199219 10.039062 135.804688 10.039062 135.292969 C 10.039062 134.789062 10.175781 134.378906 10.449219 134.066406 C 10.722656 133.75 11.078125 133.59375 11.523438 133.59375 Z M 12.363281 134.980469 C 12.339844 134.753906 12.289062 134.570312 12.210938 134.433594 C 12.066406 134.179688 11.828125 134.050781 11.488281 134.050781 C 11.246094 134.050781 11.042969 134.140625 10.878906 134.316406 C 10.714844 134.488281 10.628906 134.710938 10.617188 134.980469 Z M 13.566406 133.664062 L 14.066406 133.664062 L 14.066406 134.207031 C 14.109375 134.101562 14.207031 133.972656 14.367188 133.820312 C 14.527344 133.667969 14.710938 133.59375 14.921875 133.59375 C 14.929688 133.59375 14.949219 133.59375 14.972656 133.597656 C 14.996094 133.597656 15.035156 133.601562 15.09375 133.605469 L 15.09375 134.164062 C 15.0625 134.160156 15.03125 134.152344 15.003906 134.152344 C 14.976562 134.152344 14.949219 134.148438 14.917969 134.148438 C 14.652344 134.148438 14.449219 134.234375 14.304688 134.40625 C 14.164062 134.578125 14.09375 134.773438 14.09375 134.996094 L 14.09375 136.800781 L 13.566406 136.800781 Z M 16.761719 133.574219 C 17.113281 133.574219 17.402344 133.660156 17.625 133.832031 C 17.84375 134.003906 17.976562 134.296875 18.023438 134.71875 L 17.511719 134.71875 C 17.480469 134.523438 17.40625 134.363281 17.296875 134.234375 C 17.1875 134.105469 17.007812 134.042969 16.761719 134.042969 C 16.425781 134.042969 16.183594 134.207031 16.039062 134.535156 C 15.945312 134.75 15.898438 135.011719 15.898438 135.324219 C 15.898438 135.636719 15.964844 135.902344 16.097656 136.117188 C 16.230469 136.332031 16.441406 136.441406 16.726562 136.441406 C 16.945312 136.441406 17.117188 136.375 17.246094 136.238281 C 17.375 136.105469 17.460938 135.921875 17.511719 135.691406 L 18.023438 135.691406 C 17.964844 136.105469 17.820312 136.410156 17.585938 136.601562 C 17.351562 136.792969 17.050781 136.890625 16.683594 136.890625 C 16.273438 136.890625 15.945312 136.742188 15.703125 136.441406 C 15.460938 136.140625 15.335938 135.769531 15.335938 135.316406 C 15.335938 134.765625 15.46875 134.339844 15.738281 134.03125 C 16.007812 133.726562 16.347656 133.574219 16.761719 133.574219 Z M 19.859375 133.59375 C 20.082031 133.59375 20.296875 133.644531 20.503906 133.75 C 20.714844 133.855469 20.875 133.988281 20.984375 134.15625 C 21.089844 134.3125 21.15625 134.496094 21.195312 134.707031 C 21.226562 134.851562 21.242188 135.082031 21.242188 135.402344 L 18.941406 135.402344 C 18.949219 135.71875 19.023438 135.972656 19.164062 136.167969 C 19.304688 136.359375 19.523438 136.457031 19.820312 136.457031 C 20.09375 136.457031 20.3125 136.363281 20.476562 136.183594 C 20.570312 136.078125 20.640625 135.957031 20.679688 135.816406 L 21.195312 135.816406 C 21.183594 135.933594 21.136719 136.058594 21.058594 136.203125 C 20.984375 136.34375 20.898438 136.457031 20.800781 136.550781 C 20.640625 136.707031 20.441406 136.808594 20.207031 136.863281 C 20.078125 136.894531 19.9375 136.910156 19.773438 136.910156 C 19.382812 136.910156 19.054688 136.769531 18.78125 136.484375 C 18.511719 136.199219 18.375 135.804688 18.375 135.292969 C 18.375 134.789062 18.511719 134.378906 18.785156 134.066406 C 19.058594 133.75 19.414062 133.59375 19.859375 133.59375 Z M 20.699219 134.980469 C 20.675781 134.753906 20.625 134.570312 20.546875 134.433594 C 20.402344 134.179688 20.164062 134.050781 19.824219 134.050781 C 19.582031 134.050781 19.378906 134.140625 19.214844 134.316406 C 19.050781 134.488281 18.964844 134.710938 18.953125 134.980469 Z M 23.210938 136.445312 C 23.457031 136.445312 23.660156 136.34375 23.824219 136.136719 C 23.988281 135.929688 24.070312 135.621094 24.070312 135.214844 C 24.070312 134.964844 24.03125 134.746094 23.960938 134.566406 C 23.824219 134.222656 23.574219 134.050781 23.210938 134.050781 C 22.84375 134.050781 22.59375 134.230469 22.460938 134.597656 C 22.390625 134.792969 22.351562 135.042969 22.351562 135.339844 C 22.351562 135.582031 22.390625 135.789062 22.460938 135.960938 C 22.597656 136.285156 22.847656 136.445312 23.210938 136.445312 Z M 21.84375 133.675781 L 22.359375 133.675781 L 22.359375 134.09375 C 22.464844 133.949219 22.578125 133.839844 22.703125 133.761719 C 22.882812 133.644531 23.089844 133.585938 23.332031 133.585938 C 23.6875 133.585938 23.988281 133.722656 24.234375 133.996094 C 24.484375 134.269531 24.609375 134.65625 24.609375 135.164062 C 24.609375 135.847656 24.429688 136.335938 24.070312 136.628906 C 23.84375 136.8125 23.582031 136.90625 23.28125 136.90625 C 23.046875 136.90625 22.847656 136.855469 22.6875 136.75 C 22.59375 136.691406 22.488281 136.589844 22.375 136.449219 L 22.375 138.050781 L 21.84375 138.050781 Z M 25.328125 132.785156 L 25.859375 132.785156 L 25.859375 133.664062 L 26.363281 133.664062 L 26.363281 134.09375 L 25.859375 134.09375 L 25.859375 136.140625 C 25.859375 136.25 25.898438 136.324219 25.972656 136.363281 C 26.015625 136.382812 26.082031 136.394531 26.179688 136.394531 C 26.203125 136.394531 26.230469 136.394531 26.257812 136.390625 C 26.289062 136.390625 26.324219 136.386719 26.363281 136.386719 L 26.363281 136.800781 C 26.300781 136.816406 26.238281 136.832031 26.171875 136.839844 C 26.109375 136.847656 26.039062 136.851562 25.960938 136.851562 C 25.714844 136.851562 25.546875 136.789062 25.460938 136.660156 C 25.371094 136.535156 25.328125 136.371094 25.328125 136.171875 L 25.328125 134.09375 L 24.902344 134.09375 L 24.902344 133.664062 L 25.328125 133.664062 Z M 3.492188 132.179688 "/>
<path style="fill:none;stroke-width:1;stroke-linecap:butt;stroke-linejoin:miter;stroke:rgb(25.098041%,25.098041%,25.098041%);stroke-opacity:1;stroke-miterlimit:4;" d="M 19.582031 -18.355469 C 31.371094 -28.460938 52.714844 -46.757812 66.875 -58.894531 " transform="matrix(1,0,0,1,4,146)"/>
<path style="fill-rule:nonzero;fill:rgb(25.098041%,25.098041%,25.098041%);fill-opacity:1;stroke-width:1;stroke-linecap:butt;stroke-linejoin:miter;stroke:rgb(25.098041%,25.098041%,25.098041%);stroke-opacity:1;stroke-miterlimit:4;" d="M 68.808594 -59.691406 C 68.808594 -59.140625 68.359375 -58.691406 67.808594 -58.691406 C 67.253906 -58.691406 66.808594 -59.140625 66.808594 -59.691406 C 66.808594 -60.242188 67.253906 -60.691406 67.808594 -60.691406 C 68.359375 -60.691406 68.808594 -60.242188 68.808594 -59.691406 Z M 68.808594 -59.691406 " transform="matrix(1,0,0,1,4,146)"/>
<path style=" stroke:none;fill-rule:nonzero;fill:rgb(25.098041%,25.098041%,25.098041%);fill-opacity:1;" d="M 44.023438 97.550781 L 44.023438 97.433594 C 44.285156 97.375 44.515625 97.308594 44.726562 97.234375 C 44.933594 97.164062 45.042969 97.125 45.058594 97.125 C 45.0625 97.140625 45.066406 97.15625 45.066406 97.167969 L 45.066406 99.25 C 45.125 99.140625 45.214844 99.035156 45.332031 98.9375 C 45.542969 98.765625 45.785156 98.683594 46.058594 98.683594 C 46.394531 98.683594 46.679688 98.824219 46.914062 99.105469 C 47.152344 99.386719 47.269531 99.753906 47.269531 100.207031 C 47.269531 100.691406 47.117188 101.101562 46.808594 101.445312 C 46.5 101.789062 46.097656 101.964844 45.597656 101.964844 C 45.34375 101.964844 45.09375 101.914062 44.851562 101.8125 C 44.609375 101.710938 44.484375 101.613281 44.484375 101.511719 L 44.484375 97.898438 C 44.484375 97.765625 44.46875 97.671875 44.429688 97.617188 C 44.394531 97.5625 44.308594 97.535156 44.179688 97.535156 Z M 45.054688 101.398438 C 45.074219 101.515625 45.164062 101.601562 45.320312 101.652344 C 45.476562 101.703125 45.613281 101.730469 45.734375 101.730469 C 46.050781 101.730469 46.289062 101.609375 46.441406 101.371094 C 46.59375 101.132812 46.671875 100.84375 46.671875 100.503906 C 46.671875 100.164062 46.601562 99.851562 46.457031 99.5625 C 46.3125 99.273438 46.082031 99.128906 45.761719 99.128906 C 45.597656 99.128906 45.441406 99.179688 45.285156 99.277344 C 45.128906 99.378906 45.054688 99.503906 45.054688 99.65625 Z M 44 96.648438 "/>
<path style=" stroke:none;fill-rule:nonzero;fill:rgb(25.098041%,25.098041%,25.098041%);fill-opacity:1;" d="M 49.175781 103.175781 C 49.511719 103.175781 49.738281 102.992188 49.867188 102.625 C 49.992188 102.257812 50.054688 101.726562 50.054688 101.03125 C 50.054688 100.476562 50.015625 100.035156 49.941406 99.707031 C 49.800781 99.089844 49.535156 98.78125 49.148438 98.78125 C 48.761719 98.78125 48.496094 99.097656 48.351562 99.730469 C 48.277344 100.070312 48.238281 100.515625 48.238281 101.066406 C 48.238281 101.582031 48.277344 101.996094 48.355469 102.304688 C 48.5 102.882812 48.773438 103.175781 49.175781 103.175781 Z M 49.164062 98.597656 C 49.6875 98.597656 50.09375 98.871094 50.382812 99.421875 C 50.613281 99.867188 50.730469 100.375 50.730469 100.953125 C 50.730469 101.40625 50.660156 101.832031 50.519531 102.234375 C 50.25 102.988281 49.789062 103.367188 49.132812 103.367188 C 48.683594 103.367188 48.316406 103.160156 48.027344 102.753906 C 47.71875 102.320312 47.5625 101.726562 47.5625 100.980469 C 47.5625 100.390625 47.664062 99.886719 47.871094 99.460938 C 48.152344 98.886719 48.582031 98.597656 49.164062 98.597656 Z M 47.5 98.050781 "/>
</g>
</svg>
