<?xml version="1.0" encoding="UTF-8"?>
<svg xmlns="http://www.w3.org/2000/svg" xmlns:xlink="http://www.w3.org/1999/xlink" width="251pt" height="206pt" viewBox="0 0 251 206" version="1.1">
<g id="surface41">
<path style="fill:none;stroke-width:1;stroke-linecap:butt;stroke-linejoin:miter;stroke:rgb(49.803922%,49.803922%,49.803922%);stroke-opacity:1;stroke-miterlimit:4;" d="M 36 -180 C 36 -170.058594 27.941406 -162 18 -162 C 8.058594 -162 0 -170.058594 0 -180 C 0 -189.941406 8.058594 -198 18 -198 C 27.941406 -198 36 -189.941406 36 -180 Z M 36 -180 " transform="matrix(1,0,0,1,4,202)"/>
<path style=" stroke:none;fill-rule:nonzero;fill:rgb(0%,0%,0%);fill-opacity:1;" d="M 12 20.019531 C 12 19.933594 12.03125 19.863281 12.085938 19.800781 C 12.144531 19.742188 12.21875 19.710938 12.304688 19.710938 C 12.390625 19.710938 12.460938 19.742188 12.519531 19.800781 C 12.578125 19.859375 12.609375 19.933594 12.609375 20.019531 C 12.609375 20.101562 12.578125 20.175781 12.519531 20.234375 C 12.460938 20.292969 12.390625 20.324219 12.304688 20.324219 C 12.21875 20.324219 12.148438 20.292969 12.085938 20.234375 C 12.027344 20.175781 12 20.101562 12 20.019531 Z M 11.625 23.71875 C 11.835938 23.699219 11.964844 23.664062 12.019531 23.613281 C 12.074219 23.558594 12.101562 23.417969 12.101562 23.191406 L 12.101562 21.792969 C 12.101562 21.667969 12.09375 21.578125 12.078125 21.53125 C 12.046875 21.449219 11.984375 21.410156 11.890625 21.410156 C 11.871094 21.410156 11.847656 21.410156 11.828125 21.417969 C 11.808594 21.421875 11.75 21.433594 11.652344 21.464844 L 11.652344 21.371094 L 11.777344 21.332031 C 12.117188 21.21875 12.359375 21.136719 12.492188 21.078125 C 12.546875 21.054688 12.582031 21.042969 12.597656 21.042969 C 12.601562 21.058594 12.601562 21.074219 12.601562 21.089844 L 12.601562 23.191406 C 12.601562 23.414062 12.628906 23.554688 12.683594 23.609375 C 12.738281 23.667969 12.859375 23.703125 13.046875 23.71875 L 13.046875 23.800781 L 11.625 23.800781 Z M 13.285156 23.71875 C 13.421875 23.699219 13.519531 23.667969 13.574219 23.613281 C 13.628906 23.5625 13.660156 23.449219 13.660156 23.269531 L 13.660156 21.78125 C 13.660156 21.65625 13.648438 21.570312 13.625 21.519531 C 13.585938 21.445312 13.511719 21.40625 13.394531 21.40625 C 13.378906 21.40625 13.359375 21.410156 13.339844 21.410156 C 13.324219 21.410156 13.300781 21.414062 13.273438 21.417969 L 13.273438 21.316406 C 13.351562 21.292969 13.542969 21.230469 13.839844 21.136719 L 14.117188 21.042969 C 14.128906 21.042969 14.136719 21.050781 14.140625 21.058594 C 14.144531 21.066406 14.144531 21.082031 14.144531 21.097656 L 14.144531 21.53125 C 14.324219 21.363281 14.464844 21.246094 14.566406 21.183594 C 14.71875 21.089844 14.878906 21.042969 15.042969 21.042969 C 15.175781 21.042969 15.296875 21.078125 15.40625 21.15625 C 15.617188 21.304688 15.722656 21.566406 15.722656 21.949219 L 15.722656 23.316406 C 15.722656 23.457031 15.75 23.558594 15.808594 23.621094 C 15.863281 23.683594 15.957031 23.714844 16.089844 23.71875 L 16.089844 23.800781 L 14.839844 23.800781 L 14.839844 23.71875 C 14.980469 23.699219 15.082031 23.660156 15.136719 23.601562 C 15.195312 23.542969 15.222656 23.410156 15.222656 23.210938 L 15.222656 21.960938 C 15.222656 21.792969 15.191406 21.652344 15.128906 21.542969 C 15.066406 21.433594 14.953125 21.378906 14.785156 21.378906 C 14.667969 21.378906 14.550781 21.417969 14.433594 21.496094 C 14.367188 21.539062 14.28125 21.613281 14.175781 21.71875 L 14.175781 23.359375 C 14.175781 23.5 14.207031 23.59375 14.269531 23.640625 C 14.332031 23.6875 14.429688 23.714844 14.566406 23.71875 L 14.566406 23.800781 L 13.285156 23.800781 Z M 17.703125 21.097656 L 17.703125 21.308594 L 17.105469 21.308594 L 17.097656 22.996094 C 17.097656 23.144531 17.113281 23.257812 17.136719 23.335938 C 17.183594 23.46875 17.277344 23.535156 17.410156 23.535156 C 17.480469 23.535156 17.542969 23.519531 17.59375 23.488281 C 17.644531 23.453125 17.707031 23.402344 17.773438 23.328125 L 17.847656 23.394531 L 17.785156 23.480469 C 17.683594 23.617188 17.574219 23.714844 17.460938 23.769531 C 17.347656 23.828125 17.238281 23.855469 17.132812 23.855469 C 16.902344 23.855469 16.746094 23.753906 16.664062 23.550781 C 16.621094 23.4375 16.597656 23.285156 16.597656 23.085938 L 16.597656 21.308594 L 16.277344 21.308594 C 16.269531 21.304688 16.261719 21.300781 16.257812 21.292969 C 16.253906 21.285156 16.25 21.277344 16.25 21.269531 C 16.25 21.25 16.253906 21.234375 16.261719 21.222656 C 16.269531 21.214844 16.300781 21.1875 16.347656 21.148438 C 16.480469 21.039062 16.578125 20.949219 16.636719 20.878906 C 16.695312 20.808594 16.835938 20.625 17.058594 20.328125 C 17.082031 20.328125 17.097656 20.332031 17.101562 20.335938 C 17.105469 20.339844 17.109375 20.355469 17.109375 20.378906 L 17.109375 21.097656 Z M 19.21875 21.050781 C 19.492188 21.050781 19.734375 21.148438 19.941406 21.339844 C 20.148438 21.527344 20.25 21.800781 20.25 22.148438 L 18.390625 22.148438 C 18.410156 22.601562 18.515625 22.933594 18.699219 23.136719 C 18.882812 23.34375 19.105469 23.449219 19.359375 23.449219 C 19.5625 23.449219 19.734375 23.394531 19.875 23.289062 C 20.015625 23.179688 20.148438 23.027344 20.265625 22.832031 L 20.367188 22.867188 C 20.289062 23.113281 20.140625 23.34375 19.917969 23.554688 C 19.699219 23.765625 19.429688 23.871094 19.113281 23.871094 C 18.746094 23.871094 18.460938 23.730469 18.261719 23.457031 C 18.0625 23.179688 17.960938 22.859375 17.960938 22.496094 C 17.960938 22.105469 18.078125 21.765625 18.308594 21.480469 C 18.542969 21.195312 18.84375 21.050781 19.21875 21.050781 Z M 19.046875 21.265625 C 18.824219 21.265625 18.65625 21.363281 18.539062 21.5625 C 18.476562 21.667969 18.429688 21.800781 18.402344 21.960938 L 19.640625 21.960938 C 19.617188 21.765625 19.582031 21.621094 19.527344 21.523438 C 19.433594 21.351562 19.273438 21.265625 19.046875 21.265625 Z M 20.53125 23.703125 C 20.710938 23.6875 20.828125 23.65625 20.886719 23.609375 C 20.945312 23.5625 20.976562 23.457031 20.976562 23.300781 L 20.976562 21.980469 C 20.976562 21.789062 20.957031 21.648438 20.921875 21.566406 C 20.886719 21.484375 20.820312 21.441406 20.722656 21.441406 C 20.703125 21.441406 20.679688 21.445312 20.644531 21.449219 C 20.613281 21.453125 20.582031 21.460938 20.542969 21.46875 L 20.542969 21.371094 C 20.65625 21.332031 20.769531 21.292969 20.886719 21.253906 C 21.003906 21.210938 21.085938 21.183594 21.128906 21.164062 C 21.226562 21.128906 21.328125 21.085938 21.433594 21.039062 C 21.445312 21.039062 21.453125 21.042969 21.457031 21.050781 C 21.460938 21.0625 21.460938 21.082031 21.460938 21.113281 L 21.460938 21.59375 C 21.585938 21.421875 21.707031 21.285156 21.824219 21.1875 C 21.941406 21.089844 22.058594 21.042969 22.183594 21.042969 C 22.285156 21.042969 22.367188 21.070312 22.429688 21.128906 C 22.492188 21.191406 22.523438 21.265625 22.523438 21.355469 C 22.523438 21.433594 22.5 21.503906 22.449219 21.558594 C 22.402344 21.613281 22.34375 21.636719 22.269531 21.636719 C 22.195312 21.636719 22.121094 21.605469 22.046875 21.535156 C 21.972656 21.46875 21.910156 21.433594 21.871094 21.433594 C 21.800781 21.433594 21.714844 21.488281 21.617188 21.597656 C 21.519531 21.707031 21.46875 21.824219 21.46875 21.941406 L 21.46875 23.261719 C 21.46875 23.429688 21.507812 23.546875 21.585938 23.613281 C 21.664062 23.675781 21.792969 23.707031 21.972656 23.703125 L 21.972656 23.800781 L 20.53125 23.800781 Z M 23.996094 21.039062 C 24.238281 21.039062 24.449219 21.101562 24.625 21.226562 C 24.800781 21.351562 24.890625 21.492188 24.890625 21.640625 C 24.890625 21.707031 24.871094 21.765625 24.824219 21.820312 C 24.777344 21.878906 24.710938 21.90625 24.617188 21.90625 C 24.546875 21.90625 24.488281 21.882812 24.4375 21.835938 C 24.386719 21.789062 24.347656 21.71875 24.324219 21.628906 L 24.289062 21.488281 C 24.261719 21.386719 24.21875 21.3125 24.15625 21.269531 C 24.089844 21.230469 24.007812 21.207031 23.902344 21.207031 C 23.679688 21.207031 23.492188 21.304688 23.335938 21.5 C 23.183594 21.695312 23.105469 21.953125 23.105469 22.273438 C 23.105469 22.570312 23.191406 22.832031 23.359375 23.066406 C 23.527344 23.300781 23.757812 23.417969 24.042969 23.417969 C 24.246094 23.417969 24.429688 23.355469 24.585938 23.222656 C 24.675781 23.144531 24.777344 23.023438 24.890625 22.855469 L 24.972656 22.90625 C 24.863281 23.140625 24.746094 23.328125 24.621094 23.464844 C 24.386719 23.726562 24.113281 23.855469 23.800781 23.855469 C 23.496094 23.855469 23.226562 23.738281 22.992188 23.496094 C 22.757812 23.253906 22.640625 22.929688 22.640625 22.519531 C 22.640625 22.113281 22.769531 21.765625 23.027344 21.472656 C 23.28125 21.183594 23.605469 21.039062 23.996094 21.039062 Z M 26.539062 21.050781 C 26.8125 21.050781 27.054688 21.148438 27.261719 21.339844 C 27.46875 21.527344 27.570312 21.800781 27.570312 22.148438 L 25.710938 22.148438 C 25.730469 22.601562 25.835938 22.933594 26.019531 23.136719 C 26.203125 23.34375 26.425781 23.449219 26.679688 23.449219 C 26.882812 23.449219 27.054688 23.394531 27.195312 23.289062 C 27.335938 23.179688 27.46875 23.027344 27.585938 22.832031 L 27.6875 22.867188 C 27.609375 23.113281 27.460938 23.34375 27.238281 23.554688 C 27.019531 23.765625 26.75 23.871094 26.433594 23.871094 C 26.066406 23.871094 25.78125 23.730469 25.582031 23.457031 C 25.382812 23.179688 25.28125 22.859375 25.28125 22.496094 C 25.28125 22.105469 25.398438 21.765625 25.628906 21.480469 C 25.863281 21.195312 26.164062 21.050781 26.539062 21.050781 Z M 26.367188 21.265625 C 26.144531 21.265625 25.976562 21.363281 25.859375 21.5625 C 25.796875 21.667969 25.75 21.800781 25.722656 21.960938 L 26.960938 21.960938 C 26.9375 21.765625 26.902344 21.621094 26.847656 21.523438 C 26.753906 21.351562 26.59375 21.265625 26.367188 21.265625 Z M 28.785156 23.261719 C 28.835938 23.394531 28.914062 23.492188 29.011719 23.558594 C 29.113281 23.625 29.234375 23.65625 29.367188 23.65625 C 29.578125 23.65625 29.761719 23.550781 29.910156 23.34375 C 30.058594 23.132812 30.132812 22.839844 30.132812 22.464844 C 30.132812 22.105469 30.054688 21.835938 29.902344 21.660156 C 29.746094 21.480469 29.566406 21.394531 29.359375 21.394531 C 29.214844 21.394531 29.085938 21.4375 28.964844 21.527344 C 28.84375 21.613281 28.785156 21.703125 28.785156 21.789062 Z M 27.855469 25.011719 C 28.039062 25 28.15625 24.960938 28.203125 24.894531 C 28.253906 24.828125 28.28125 24.722656 28.28125 24.582031 L 28.28125 21.769531 C 28.28125 21.621094 28.261719 21.523438 28.226562 21.480469 C 28.1875 21.441406 28.121094 21.417969 28.023438 21.417969 C 28 21.417969 27.980469 21.417969 27.960938 21.421875 C 27.941406 21.425781 27.914062 21.425781 27.882812 21.433594 L 27.882812 21.335938 L 28.160156 21.246094 C 28.167969 21.246094 28.367188 21.175781 28.75 21.042969 C 28.757812 21.042969 28.765625 21.046875 28.769531 21.058594 C 28.773438 21.066406 28.777344 21.074219 28.777344 21.089844 L 28.777344 21.484375 C 28.90625 21.355469 29.019531 21.257812 29.117188 21.195312 C 29.292969 21.085938 29.472656 21.03125 29.660156 21.03125 C 29.929688 21.03125 30.160156 21.148438 30.355469 21.375 C 30.550781 21.605469 30.648438 21.917969 30.648438 22.316406 C 30.648438 22.707031 30.53125 23.0625 30.296875 23.382812 C 30.0625 23.699219 29.769531 23.859375 29.414062 23.859375 C 29.304688 23.859375 29.210938 23.847656 29.132812 23.816406 C 29.007812 23.777344 28.890625 23.703125 28.785156 23.59375 L 28.785156 24.550781 C 28.785156 24.746094 28.820312 24.871094 28.882812 24.914062 C 28.945312 24.957031 29.085938 24.988281 29.304688 25.003906 L 29.304688 25.105469 L 27.855469 25.105469 Z M 32.355469 21.097656 L 32.355469 21.308594 L 31.757812 21.308594 L 31.75 22.996094 C 31.75 23.144531 31.765625 23.257812 31.789062 23.335938 C 31.835938 23.46875 31.929688 23.535156 32.0625 23.535156 C 32.132812 23.535156 32.195312 23.519531 32.246094 23.488281 C 32.296875 23.453125 32.359375 23.402344 32.425781 23.328125 L 32.5 23.394531 L 32.4375 23.480469 C 32.335938 23.617188 32.226562 23.714844 32.113281 23.769531 C 32 23.828125 31.890625 23.855469 31.785156 23.855469 C 31.554688 23.855469 31.398438 23.753906 31.316406 23.550781 C 31.273438 23.4375 31.25 23.285156 31.25 23.085938 L 31.25 21.308594 L 30.929688 21.308594 C 30.921875 21.304688 30.914062 21.300781 30.910156 21.292969 C 30.90625 21.285156 30.902344 21.277344 30.902344 21.269531 C 30.902344 21.25 30.90625 21.234375 30.914062 21.222656 C 30.921875 21.214844 30.953125 21.1875 31 21.148438 C 31.132812 21.039062 31.230469 20.949219 31.289062 20.878906 C 31.347656 20.808594 31.488281 20.625 31.710938 20.328125 C 31.734375 20.328125 31.75 20.332031 31.753906 20.335938 C 31.757812 20.339844 31.761719 20.355469 31.761719 20.378906 L 31.761719 21.097656 Z M 11.507812 19.300781 "/>
<path style="fill:none;stroke-width:3;stroke-linecap:butt;stroke-linejoin:miter;stroke:rgb(33.725491%,70.588237%,91.37255%);stroke-opacity:0.501961;stroke-dasharray:5,2;stroke-miterlimit:4;" d="M 107 -99 C 107 -92.371094 101.628906 -87 95 -87 C 88.371094 -87 83 -92.371094 83 -99 C 83 -105.628906 88.371094 -111 95 -111 C 101.628906 -111 107 -105.628906 107 -99 Z M 107 -99 " transform="matrix(1,0,0,1,4,202)"/>
<path style="fill:none;stroke-width:3;stroke-linecap:butt;stroke-linejoin:miter;stroke:rgb(33.725491%,70.588237%,91.37255%);stroke-opacity:0.501961;stroke-dasharray:5,2;stroke-miterlimit:4;" d="M 111 -99 C 111 -90.164062 103.835938 -83 95 -83 C 86.164062 -83 79 -90.164062 79 -99 C 79 -107.835938 86.164062 -115 95 -115 C 103.835938 -115 111 -107.835938 111 -99 Z M 111 -99 " transform="matrix(1,0,0,1,4,202)"/>
<path style=" stroke:none;fill-rule:nonzero;fill:rgb(0%,0%,0%);fill-opacity:1;" d="M 94.152344 101.089844 C 94.375 101.066406 94.515625 101.027344 94.582031 100.972656 C 94.648438 100.917969 94.679688 100.777344 94.679688 100.550781 L 94.679688 97.878906 C 94.679688 97.667969 94.648438 97.527344 94.585938 97.460938 C 94.519531 97.394531 94.375 97.355469 94.152344 97.339844 L 94.152344 97.230469 L 95.851562 97.230469 L 95.851562 97.339844 C 95.628906 97.351562 95.480469 97.386719 95.40625 97.449219 C 95.332031 97.511719 95.292969 97.640625 95.292969 97.839844 L 95.292969 100.722656 C 95.292969 100.789062 95.304688 100.839844 95.328125 100.878906 C 95.351562 100.917969 95.398438 100.941406 95.476562 100.949219 C 95.519531 100.957031 95.566406 100.960938 95.617188 100.960938 C 95.667969 100.964844 95.757812 100.964844 95.898438 100.964844 C 96.429688 100.964844 96.789062 100.921875 96.976562 100.832031 C 97.164062 100.746094 97.347656 100.519531 97.523438 100.160156 L 97.675781 100.160156 L 97.382812 101.199219 L 94.152344 101.199219 Z M 98.242188 97.417969 C 98.242188 97.332031 98.273438 97.261719 98.328125 97.199219 C 98.386719 97.140625 98.460938 97.109375 98.546875 97.109375 C 98.632812 97.109375 98.703125 97.140625 98.761719 97.199219 C 98.820312 97.257812 98.851562 97.332031 98.851562 97.417969 C 98.851562 97.5 98.820312 97.574219 98.761719 97.632812 C 98.703125 97.691406 98.632812 97.722656 98.546875 97.722656 C 98.460938 97.722656 98.390625 97.691406 98.328125 97.632812 C 98.269531 97.574219 98.242188 97.5 98.242188 97.417969 Z M 97.867188 101.117188 C 98.078125 101.097656 98.207031 101.0625 98.261719 101.011719 C 98.316406 100.957031 98.34375 100.816406 98.34375 100.589844 L 98.34375 99.191406 C 98.34375 99.066406 98.335938 98.976562 98.320312 98.929688 C 98.289062 98.847656 98.226562 98.808594 98.132812 98.808594 C 98.113281 98.808594 98.089844 98.808594 98.070312 98.816406 C 98.050781 98.820312 97.992188 98.832031 97.894531 98.863281 L 97.894531 98.769531 L 98.019531 98.730469 C 98.359375 98.617188 98.601562 98.535156 98.734375 98.476562 C 98.789062 98.453125 98.824219 98.441406 98.839844 98.441406 C 98.84375 98.457031 98.84375 98.472656 98.84375 98.488281 L 98.84375 100.589844 C 98.84375 100.8125 98.871094 100.953125 98.925781 101.007812 C 98.980469 101.066406 99.101562 101.101562 99.289062 101.117188 L 99.289062 101.199219 L 97.867188 101.199219 Z M 99.527344 101.117188 C 99.664062 101.097656 99.761719 101.066406 99.816406 101.011719 C 99.871094 100.960938 99.902344 100.847656 99.902344 100.667969 L 99.902344 99.179688 C 99.902344 99.054688 99.890625 98.96875 99.867188 98.917969 C 99.828125 98.84375 99.753906 98.804688 99.636719 98.804688 C 99.621094 98.804688 99.601562 98.808594 99.582031 98.808594 C 99.566406 98.808594 99.542969 98.8125 99.515625 98.816406 L 99.515625 98.714844 C 99.59375 98.691406 99.785156 98.628906 100.082031 98.535156 L 100.359375 98.441406 C 100.371094 98.441406 100.378906 98.449219 100.382812 98.457031 C 100.386719 98.464844 100.386719 98.480469 100.386719 98.496094 L 100.386719 98.929688 C 100.566406 98.761719 100.707031 98.644531 100.808594 98.582031 C 100.960938 98.488281 101.121094 98.441406 101.285156 98.441406 C 101.417969 98.441406 101.539062 98.476562 101.648438 98.554688 C 101.859375 98.703125 101.964844 98.964844 101.964844 99.347656 L 101.964844 100.714844 C 101.964844 100.855469 101.992188 100.957031 102.050781 101.019531 C 102.105469 101.082031 102.199219 101.113281 102.332031 101.117188 L 102.332031 101.199219 L 101.082031 101.199219 L 101.082031 101.117188 C 101.222656 101.097656 101.324219 101.058594 101.378906 101 C 101.4375 100.941406 101.464844 100.808594 101.464844 100.609375 L 101.464844 99.359375 C 101.464844 99.191406 101.433594 99.050781 101.371094 98.941406 C 101.308594 98.832031 101.195312 98.777344 101.027344 98.777344 C 100.910156 98.777344 100.792969 98.816406 100.675781 98.894531 C 100.609375 98.9375 100.523438 99.011719 100.417969 99.117188 L 100.417969 100.757812 C 100.417969 100.898438 100.449219 100.992188 100.511719 101.039062 C 100.574219 101.085938 100.671875 101.113281 100.808594 101.117188 L 100.808594 101.199219 L 99.527344 101.199219 Z M 103.394531 101.269531 C 103.300781 101.269531 103.222656 101.238281 103.160156 101.171875 C 103.09375 101.105469 103.0625 101.027344 103.0625 100.933594 C 103.0625 100.84375 103.09375 100.765625 103.160156 100.699219 C 103.226562 100.636719 103.304688 100.605469 103.394531 100.605469 C 103.488281 100.605469 103.566406 100.636719 103.628906 100.699219 C 103.695312 100.765625 103.726562 100.84375 103.726562 100.933594 C 103.726562 101.027344 103.695312 101.105469 103.632812 101.171875 C 103.570312 101.238281 103.488281 101.269531 103.394531 101.269531 Z M 94.085938 96.699219 "/>
<path style=" stroke:none;fill-rule:nonzero;fill:rgb(0%,0%,0%);fill-opacity:1;" d="M 95.34375 105.519531 C 95.34375 105.152344 95.1875 104.898438 94.871094 104.761719 C 94.703125 104.6875 94.484375 104.652344 94.226562 104.652344 C 94.101562 104.652344 94.027344 104.664062 94 104.6875 C 93.972656 104.710938 93.957031 104.765625 93.957031 104.851562 L 93.957031 106.414062 C 94.0625 106.425781 94.132812 106.429688 94.167969 106.433594 C 94.203125 106.433594 94.234375 106.4375 94.265625 106.4375 C 94.539062 106.4375 94.757812 106.398438 94.914062 106.320312 C 95.203125 106.175781 95.34375 105.910156 95.34375 105.519531 Z M 92.847656 108.289062 C 93.074219 108.269531 93.21875 108.222656 93.273438 108.152344 C 93.332031 108.085938 93.359375 107.925781 93.359375 107.679688 L 93.359375 105.078125 C 93.359375 104.871094 93.328125 104.734375 93.265625 104.664062 C 93.203125 104.597656 93.0625 104.558594 92.847656 104.539062 L 92.847656 104.429688 L 94.429688 104.429688 C 94.9375 104.429688 95.324219 104.527344 95.59375 104.726562 C 95.863281 104.921875 96 105.179688 96 105.503906 C 96 105.914062 95.851562 106.207031 95.550781 106.390625 C 95.25 106.574219 94.878906 106.667969 94.429688 106.667969 C 94.363281 106.667969 94.28125 106.664062 94.179688 106.664062 C 94.078125 106.660156 94.007812 106.65625 93.957031 106.65625 L 93.957031 107.75 C 93.957031 107.976562 93.992188 108.117188 94.0625 108.175781 C 94.132812 108.234375 94.285156 108.273438 94.523438 108.289062 L 94.523438 108.398438 L 92.847656 108.398438 Z M 96.113281 108.300781 C 96.292969 108.285156 96.410156 108.253906 96.46875 108.207031 C 96.527344 108.160156 96.558594 108.054688 96.558594 107.898438 L 96.558594 106.578125 C 96.558594 106.386719 96.539062 106.246094 96.503906 106.164062 C 96.46875 106.082031 96.402344 106.039062 96.304688 106.039062 C 96.285156 106.039062 96.261719 106.042969 96.226562 106.046875 C 96.195312 106.050781 96.164062 106.058594 96.125 106.066406 L 96.125 105.96875 C 96.238281 105.929688 96.351562 105.890625 96.46875 105.851562 C 96.585938 105.808594 96.667969 105.78125 96.710938 105.761719 C 96.808594 105.726562 96.910156 105.683594 97.015625 105.636719 C 97.027344 105.636719 97.035156 105.640625 97.039062 105.648438 C 97.042969 105.660156 97.042969 105.679688 97.042969 105.710938 L 97.042969 106.191406 C 97.167969 106.019531 97.289062 105.882812 97.40625 105.785156 C 97.523438 105.6875 97.640625 105.640625 97.765625 105.640625 C 97.867188 105.640625 97.949219 105.667969 98.011719 105.726562 C 98.074219 105.789062 98.105469 105.863281 98.105469 105.953125 C 98.105469 106.03125 98.082031 106.101562 98.03125 106.15625 C 97.984375 106.210938 97.925781 106.234375 97.851562 106.234375 C 97.777344 106.234375 97.703125 106.203125 97.628906 106.132812 C 97.554688 106.066406 97.492188 106.03125 97.453125 106.03125 C 97.382812 106.03125 97.296875 106.085938 97.199219 106.195312 C 97.101562 106.304688 97.050781 106.421875 97.050781 106.539062 L 97.050781 107.859375 C 97.050781 108.027344 97.089844 108.144531 97.167969 108.210938 C 97.246094 108.273438 97.375 108.304688 97.554688 108.300781 L 97.554688 108.398438 L 96.113281 108.398438 Z M 99.460938 105.648438 C 99.734375 105.648438 99.976562 105.746094 100.183594 105.9375 C 100.390625 106.125 100.492188 106.398438 100.492188 106.746094 L 98.632812 106.746094 C 98.652344 107.199219 98.757812 107.53125 98.941406 107.734375 C 99.125 107.941406 99.347656 108.046875 99.601562 108.046875 C 99.804688 108.046875 99.976562 107.992188 100.117188 107.886719 C 100.257812 107.777344 100.390625 107.625 100.507812 107.429688 L 100.609375 107.464844 C 100.53125 107.710938 100.382812 107.941406 100.160156 108.152344 C 99.941406 108.363281 99.671875 108.46875 99.355469 108.46875 C 98.988281 108.46875 98.703125 108.328125 98.503906 108.054688 C 98.304688 107.777344 98.203125 107.457031 98.203125 107.09375 C 98.203125 106.703125 98.320312 106.363281 98.550781 106.078125 C 98.785156 105.792969 99.085938 105.648438 99.460938 105.648438 Z M 99.289062 105.863281 C 99.066406 105.863281 98.898438 105.960938 98.78125 106.160156 C 98.71875 106.265625 98.671875 106.398438 98.644531 106.558594 L 99.882812 106.558594 C 99.859375 106.363281 99.824219 106.21875 99.769531 106.121094 C 99.675781 105.949219 99.515625 105.863281 99.289062 105.863281 Z M 102.171875 105.628906 C 102.3125 105.628906 102.445312 105.660156 102.5625 105.722656 C 102.640625 105.765625 102.71875 105.820312 102.789062 105.894531 L 102.789062 104.960938 C 102.789062 104.84375 102.777344 104.761719 102.75 104.714844 C 102.722656 104.671875 102.660156 104.648438 102.5625 104.648438 C 102.539062 104.648438 102.515625 104.648438 102.5 104.652344 C 102.480469 104.652344 102.441406 104.65625 102.382812 104.664062 L 102.382812 104.566406 L 102.621094 104.503906 C 102.710938 104.480469 102.796875 104.457031 102.886719 104.429688 C 102.972656 104.40625 103.050781 104.382812 103.117188 104.359375 C 103.148438 104.347656 103.199219 104.328125 103.273438 104.304688 L 103.289062 104.308594 L 103.285156 104.617188 C 103.28125 104.726562 103.28125 104.84375 103.277344 104.960938 C 103.277344 105.078125 103.273438 105.195312 103.273438 105.3125 L 103.269531 107.703125 C 103.269531 107.832031 103.285156 107.921875 103.316406 107.96875 C 103.347656 108.019531 103.429688 108.046875 103.566406 108.046875 C 103.585938 108.046875 103.609375 108.046875 103.628906 108.046875 C 103.652344 108.046875 103.671875 108.042969 103.695312 108.039062 L 103.695312 108.132812 C 103.683594 108.136719 103.539062 108.1875 103.269531 108.28125 L 102.808594 108.453125 L 102.789062 108.429688 L 102.789062 108.066406 C 102.679688 108.1875 102.585938 108.273438 102.503906 108.320312 C 102.363281 108.410156 102.195312 108.453125 102.007812 108.453125 C 101.675781 108.453125 101.410156 108.324219 101.203125 108.070312 C 100.996094 107.8125 100.894531 107.515625 100.894531 107.175781 C 100.894531 106.753906 101.015625 106.390625 101.265625 106.085938 C 101.511719 105.78125 101.8125 105.628906 102.171875 105.628906 Z M 102.28125 108.136719 C 102.433594 108.136719 102.554688 108.09375 102.648438 108.003906 C 102.742188 107.914062 102.789062 107.828125 102.789062 107.75 L 102.789062 106.492188 C 102.789062 106.238281 102.722656 106.058594 102.585938 105.953125 C 102.449219 105.847656 102.316406 105.796875 102.1875 105.796875 C 101.941406 105.796875 101.75 105.90625 101.613281 106.125 C 101.476562 106.34375 101.410156 106.609375 101.410156 106.929688 C 101.410156 107.242188 101.480469 107.523438 101.628906 107.769531 C 101.773438 108.015625 101.992188 108.136719 102.28125 108.136719 Z M 104.726562 108.46875 C 104.632812 108.46875 104.554688 108.4375 104.492188 108.371094 C 104.425781 108.304688 104.394531 108.226562 104.394531 108.132812 C 104.394531 108.042969 104.425781 107.964844 104.492188 107.898438 C 104.558594 107.835938 104.636719 107.804688 104.726562 107.804688 C 104.820312 107.804688 104.898438 107.835938 104.960938 107.898438 C 105.027344 107.964844 105.058594 108.042969 105.058594 108.132812 C 105.058594 108.226562 105.027344 108.304688 104.964844 108.371094 C 104.902344 108.4375 104.820312 108.46875 104.726562 108.46875 Z M 92.75 103.898438 "/>
<path style="fill:none;stroke-width:1;stroke-linecap:butt;stroke-linejoin:miter;stroke:rgb(25.098041%,25.098041%,25.098041%);stroke-opacity:1;stroke-miterlimit:4;" d="M 30.714844 -166.625 C 44.917969 -151.683594 67.78125 -127.632812 82.070312 -112.601562 " transform="matrix(1,0,0,1,4,202)"/>
<path style="fill-rule:nonzero;fill:rgb(25.098041%,25.098041%,25.098041%);fill-opacity:1;stroke-width:1;stroke-linecap:butt;stroke-linejoin:miter;stroke:rgb(25.098041%,25.098041%,25.098041%);stroke-opacity:1;stroke-miterlimit:4;" d="M 84.082031 -111.539062 C 84.082031 -110.984375 83.632812 -110.539062 83.082031 -110.539062 C 82.527344 -110.539062 82.082031 -110.984375 82.082031 -111.539062 C 82.082031 -112.089844 82.527344 -112.539062 83.082031 -112.539062 C 83.632812 -112.539062 84.082031 -112.089844 84.082031 -111.539062 Z M 84.082031 -111.539062 " transform="matrix(1,0,0,1,4,202)"/>
<path style=" stroke:none;fill-rule:nonzero;fill:rgb(0%,0%,0%);fill-opacity:1;" d="M 58.023438 53.550781 L 58.023438 53.433594 C 58.285156 53.375 58.515625 53.308594 58.726562 53.234375 C 58.933594 53.164062 59.042969 53.125 59.058594 53.125 C 59.0625 53.140625 59.066406 53.15625 59.066406 53.167969 L 59.066406 55.25 C 59.125 55.140625 59.214844 55.035156 59.332031 54.9375 C 59.542969 54.765625 59.785156 54.683594 60.058594 54.683594 C 60.394531 54.683594 60.679688 54.824219 60.914062 55.105469 C 61.152344 55.386719 61.269531 55.753906 61.269531 56.207031 C 61.269531 56.691406 61.117188 57.101562 60.808594 57.445312 C 60.5 57.789062 60.097656 57.964844 59.597656 57.964844 C 59.34375 57.964844 59.09375 57.914062 58.851562 57.8125 C 58.609375 57.710938 58.484375 57.613281 58.484375 57.511719 L 58.484375 53.898438 C 58.484375 53.765625 58.46875 53.671875 58.429688 53.617188 C 58.394531 53.5625 58.308594 53.535156 58.179688 53.535156 Z M 59.054688 57.398438 C 59.074219 57.515625 59.164062 57.601562 59.320312 57.652344 C 59.476562 57.703125 59.613281 57.730469 59.734375 57.730469 C 60.050781 57.730469 60.289062 57.609375 60.441406 57.371094 C 60.59375 57.132812 60.671875 56.84375 60.671875 56.503906 C 60.671875 56.164062 60.601562 55.851562 60.457031 55.5625 C 60.3125 55.273438 60.082031 55.128906 59.761719 55.128906 C 59.597656 55.128906 59.441406 55.179688 59.285156 55.277344 C 59.128906 55.378906 59.054688 55.503906 59.054688 55.65625 Z M 58 52.648438 "/>
<path style=" stroke:none;fill-rule:nonzero;fill:rgb(0%,0%,0%);fill-opacity:1;" d="M 63.175781 59.175781 C 63.511719 59.175781 63.738281 58.992188 63.867188 58.625 C 63.992188 58.257812 64.054688 57.726562 64.054688 57.03125 C 64.054688 56.476562 64.015625 56.035156 63.941406 55.707031 C 63.800781 55.089844 63.535156 54.78125 63.148438 54.78125 C 62.761719 54.78125 62.496094 55.097656 62.351562 55.730469 C 62.277344 56.070312 62.238281 56.515625 62.238281 57.066406 C 62.238281 57.582031 62.277344 57.996094 62.355469 58.304688 C 62.5 58.882812 62.773438 59.175781 63.175781 59.175781 Z M 63.164062 54.597656 C 63.6875 54.597656 64.09375 54.871094 64.382812 55.421875 C 64.613281 55.867188 64.730469 56.375 64.730469 56.953125 C 64.730469 57.40625 64.660156 57.832031 64.519531 58.234375 C 64.25 58.988281 63.789062 59.367188 63.132812 59.367188 C 62.683594 59.367188 62.316406 59.160156 62.027344 58.753906 C 61.71875 58.320312 61.5625 57.726562 61.5625 56.980469 C 61.5625 56.390625 61.664062 55.886719 61.871094 55.460938 C 62.152344 54.886719 62.582031 54.597656 63.164062 54.597656 Z M 61.5 54.050781 "/>
<path style="fill:none;stroke-width:1;stroke-linecap:butt;stroke-linejoin:miter;stroke:rgb(49.803922%,49.803922%,49.803922%);stroke-opacity:1;stroke-miterlimit:4;" d="M 36 -126 C 36 -116.058594 27.941406 -108 18 -108 C 8.058594 -108 0 -116.058594 0 -126 C 0 -135.941406 8.058594 -144 18 -144 C 27.941406 -144 36 -135.941406 36 -126 Z M 36 -126 " transform="matrix(1,0,0,1,4,202)"/>
<path style=" stroke:none;fill-rule:nonzero;fill:rgb(0%,0%,0%);fill-opacity:1;" d="M 18.394531 77.691406 C 18.554688 77.675781 18.679688 77.632812 18.761719 77.5625 C 18.847656 77.496094 19.011719 77.308594 19.261719 77.003906 L 20.199219 75.847656 L 19.535156 74.886719 C 19.246094 74.46875 19.042969 74.210938 18.929688 74.109375 C 18.8125 74.003906 18.65625 73.949219 18.464844 73.941406 L 18.464844 73.832031 L 20.273438 73.832031 L 20.273438 73.941406 C 20.101562 73.949219 19.988281 73.960938 19.933594 73.976562 C 19.855469 74.003906 19.816406 74.058594 19.816406 74.144531 C 19.816406 74.199219 19.832031 74.265625 19.871094 74.339844 C 19.890625 74.378906 19.917969 74.425781 19.957031 74.476562 L 20.578125 75.378906 L 21.261719 74.550781 C 21.363281 74.433594 21.429688 74.335938 21.464844 74.265625 C 21.484375 74.222656 21.496094 74.183594 21.496094 74.148438 C 21.496094 74.058594 21.453125 74 21.367188 73.972656 C 21.316406 73.953125 21.21875 73.945312 21.082031 73.941406 L 21.082031 73.832031 L 22.503906 73.832031 L 22.503906 73.941406 C 22.34375 73.945312 22.21875 73.972656 22.132812 74.019531 C 21.992188 74.09375 21.820312 74.257812 21.617188 74.511719 L 20.734375 75.59375 L 21.886719 77.246094 C 22.007812 77.425781 22.113281 77.539062 22.191406 77.585938 C 22.273438 77.632812 22.394531 77.667969 22.554688 77.691406 L 22.554688 77.800781 L 20.777344 77.800781 L 20.777344 77.683594 C 20.945312 77.679688 21.0625 77.664062 21.132812 77.640625 C 21.199219 77.613281 21.230469 77.566406 21.230469 77.492188 C 21.230469 77.429688 21.1875 77.328125 21.097656 77.183594 C 21.007812 77.039062 20.757812 76.667969 20.351562 76.066406 L 19.640625 76.964844 C 19.539062 77.09375 19.464844 77.191406 19.425781 77.25 C 19.359375 77.347656 19.328125 77.417969 19.328125 77.464844 C 19.328125 77.550781 19.378906 77.609375 19.480469 77.644531 C 19.542969 77.667969 19.644531 77.683594 19.789062 77.691406 L 19.789062 77.800781 L 18.394531 77.800781 Z M 24.4375 73.777344 C 24.445312 73.785156 24.453125 73.792969 24.453125 73.796875 C 24.453125 73.800781 24.453125 73.8125 24.453125 73.832031 L 24.453125 77.359375 C 24.453125 77.507812 24.492188 77.605469 24.574219 77.644531 C 24.65625 77.6875 24.804688 77.710938 25.023438 77.71875 L 25.023438 77.800781 L 23.371094 77.800781 L 23.371094 77.714844 C 23.605469 77.703125 23.761719 77.667969 23.832031 77.617188 C 23.90625 77.5625 23.941406 77.449219 23.941406 77.273438 L 23.941406 74.558594 C 23.941406 74.464844 23.929688 74.394531 23.90625 74.347656 C 23.882812 74.296875 23.832031 74.273438 23.753906 74.273438 C 23.703125 74.273438 23.636719 74.289062 23.554688 74.316406 C 23.476562 74.34375 23.398438 74.375 23.328125 74.40625 L 23.328125 74.324219 L 24.40625 73.777344 Z M 18.332031 73.300781 "/>
<path style="fill:none;stroke-width:1;stroke-linecap:butt;stroke-linejoin:miter;stroke:rgb(25.098041%,25.098041%,25.098041%);stroke-opacity:1;stroke-miterlimit:4;" d="M 35.089844 -120.007812 C 47.738281 -115.574219 64.90625 -109.550781 77.625 -105.09375 " transform="matrix(1,0,0,1,4,202)"/>
<path style="fill-rule:nonzero;fill:rgb(25.098041%,25.098041%,25.098041%);fill-opacity:1;stroke-width:1;stroke-linecap:butt;stroke-linejoin:miter;stroke:rgb(25.098041%,25.098041%,25.098041%);stroke-opacity:1;stroke-miterlimit:4;" d="M 79.839844 -104.667969 C 79.839844 -104.113281 79.394531 -103.667969 78.839844 -103.667969 C 78.289062 -103.667969 77.839844 -104.113281 77.839844 -104.667969 C 77.839844 -105.21875 78.289062 -105.667969 78.839844 -105.667969 C 79.394531 -105.667969 79.839844 -105.21875 79.839844 -104.667969 Z M 79.839844 -104.667969 " transform="matrix(1,0,0,1,4,202)"/>
<path style=" stroke:none;fill-rule:nonzero;fill:rgb(0%,0%,0%);fill-opacity:1;" d="M 58.023438 81.550781 L 58.023438 81.433594 C 58.285156 81.375 58.515625 81.308594 58.726562 81.234375 C 58.933594 81.164062 59.042969 81.125 59.058594 81.125 C 59.0625 81.140625 59.066406 81.15625 59.066406 81.167969 L 59.066406 83.25 C 59.125 83.140625 59.214844 83.035156 59.332031 82.9375 C 59.542969 82.765625 59.785156 82.683594 60.058594 82.683594 C 60.394531 82.683594 60.679688 82.824219 60.914062 83.105469 C 61.152344 83.386719 61.269531 83.753906 61.269531 84.207031 C 61.269531 84.691406 61.117188 85.101562 60.808594 85.445312 C 60.5 85.789062 60.097656 85.964844 59.597656 85.964844 C 59.34375 85.964844 59.09375 85.914062 58.851562 85.8125 C 58.609375 85.710938 58.484375 85.613281 58.484375 85.511719 L 58.484375 81.898438 C 58.484375 81.765625 58.46875 81.671875 58.429688 81.617188 C 58.394531 81.5625 58.308594 81.535156 58.179688 81.535156 Z M 59.054688 85.398438 C 59.074219 85.515625 59.164062 85.601562 59.320312 85.652344 C 59.476562 85.703125 59.613281 85.730469 59.734375 85.730469 C 60.050781 85.730469 60.289062 85.609375 60.441406 85.371094 C 60.59375 85.132812 60.671875 84.84375 60.671875 84.503906 C 60.671875 84.164062 60.601562 83.851562 60.457031 83.5625 C 60.3125 83.273438 60.082031 83.128906 59.761719 83.128906 C 59.597656 83.128906 59.441406 83.179688 59.285156 83.277344 C 59.128906 83.378906 59.054688 83.503906 59.054688 83.65625 Z M 58 80.648438 "/>
<path style=" stroke:none;fill-rule:nonzero;fill:rgb(0%,0%,0%);fill-opacity:1;" d="M 63.570312 82.605469 C 63.578125 82.617188 63.585938 82.625 63.585938 82.628906 C 63.585938 82.636719 63.589844 82.648438 63.589844 82.667969 L 63.589844 86.785156 C 63.589844 86.960938 63.636719 87.070312 63.726562 87.121094 C 63.820312 87.167969 63.996094 87.195312 64.25 87.207031 L 64.25 87.300781 L 62.324219 87.300781 L 62.324219 87.199219 C 62.601562 87.183594 62.78125 87.148438 62.863281 87.085938 C 62.949219 87.023438 62.992188 86.890625 62.992188 86.683594 L 62.992188 83.519531 C 62.992188 83.410156 62.976562 83.328125 62.949219 83.269531 C 62.921875 83.214844 62.863281 83.183594 62.773438 83.183594 C 62.710938 83.183594 62.636719 83.203125 62.539062 83.234375 C 62.445312 83.269531 62.359375 83.304688 62.277344 83.339844 L 62.277344 83.242188 L 63.53125 82.605469 Z M 61.5 82.050781 "/>
<path style="fill:none;stroke-width:1;stroke-linecap:butt;stroke-linejoin:miter;stroke:rgb(49.803922%,49.803922%,49.803922%);stroke-opacity:1;stroke-miterlimit:4;" d="M 36 -72 C 36 -62.058594 27.941406 -54 18 -54 C 8.058594 -54 0 -62.058594 0 -72 C 0 -81.941406 8.058594 -90 18 -90 C 27.941406 -90 36 -81.941406 36 -72 Z M 36 -72 " transform="matrix(1,0,0,1,4,202)"/>
<path style=" stroke:none;fill-rule:nonzero;fill:rgb(0%,0%,0%);fill-opacity:1;" d="M 18.394531 131.691406 C 18.554688 131.675781 18.679688 131.632812 18.761719 131.5625 C 18.847656 131.496094 19.011719 131.308594 19.261719 131.003906 L 20.199219 129.847656 L 19.535156 128.886719 C 19.246094 128.46875 19.042969 128.210938 18.929688 128.109375 C 18.8125 128.003906 18.65625 127.949219 18.464844 127.941406 L 18.464844 127.832031 L 20.273438 127.832031 L 20.273438 127.941406 C 20.101562 127.949219 19.988281 127.960938 19.933594 127.976562 C 19.855469 128.003906 19.816406 128.058594 19.816406 128.144531 C 19.816406 128.199219 19.832031 128.265625 19.871094 128.339844 C 19.890625 128.378906 19.917969 128.425781 19.957031 128.476562 L 20.578125 129.378906 L 21.261719 128.550781 C 21.363281 128.433594 21.429688 128.335938 21.464844 128.265625 C 21.484375 128.222656 21.496094 128.183594 21.496094 128.148438 C 21.496094 128.058594 21.453125 128 21.367188 127.972656 C 21.316406 127.953125 21.21875 127.945312 21.082031 127.941406 L 21.082031 127.832031 L 22.503906 127.832031 L 22.503906 127.941406 C 22.34375 127.945312 22.21875 127.972656 22.132812 128.019531 C 21.992188 128.09375 21.820312 128.257812 21.617188 128.511719 L 20.734375 129.59375 L 21.886719 131.246094 C 22.007812 131.425781 22.113281 131.539062 22.191406 131.585938 C 22.273438 131.632812 22.394531 131.667969 22.554688 131.691406 L 22.554688 131.800781 L 20.777344 131.800781 L 20.777344 131.683594 C 20.945312 131.679688 21.0625 131.664062 21.132812 131.640625 C 21.199219 131.613281 21.230469 131.566406 21.230469 131.492188 C 21.230469 131.429688 21.1875 131.328125 21.097656 131.183594 C 21.007812 131.039062 20.757812 130.667969 20.351562 130.066406 L 19.640625 130.964844 C 19.539062 131.09375 19.464844 131.191406 19.425781 131.25 C 19.359375 131.347656 19.328125 131.417969 19.328125 131.464844 C 19.328125 131.550781 19.378906 131.609375 19.480469 131.644531 C 19.542969 131.667969 19.644531 131.683594 19.789062 131.691406 L 19.789062 131.800781 L 18.394531 131.800781 Z M 22.84375 131.734375 C 23.558594 130.992188 24.042969 130.445312 24.296875 130.097656 C 24.554688 129.75 24.683594 129.410156 24.683594 129.082031 C 24.683594 128.792969 24.605469 128.574219 24.449219 128.421875 C 24.292969 128.269531 24.105469 128.195312 23.890625 128.195312 C 23.621094 128.195312 23.40625 128.292969 23.238281 128.488281 C 23.148438 128.59375 23.058594 128.761719 22.976562 128.980469 L 22.847656 128.957031 C 22.945312 128.507812 23.113281 128.195312 23.34375 128.019531 C 23.578125 127.84375 23.828125 127.757812 24.097656 127.757812 C 24.425781 127.757812 24.695312 127.863281 24.898438 128.070312 C 25.101562 128.277344 25.203125 128.53125 25.203125 128.832031 C 25.203125 129.152344 25.09375 129.460938 24.875 129.757812 C 24.652344 130.054688 24.171875 130.582031 23.433594 131.34375 L 24.78125 131.34375 C 24.96875 131.34375 25.097656 131.320312 25.175781 131.277344 C 25.25 131.230469 25.335938 131.121094 25.433594 130.949219 L 25.507812 130.984375 L 25.183594 131.800781 L 22.84375 131.800781 Z M 18.332031 127.300781 "/>
<path style="fill:none;stroke-width:1;stroke-linecap:butt;stroke-linejoin:miter;stroke:rgb(25.098041%,25.098041%,25.098041%);stroke-opacity:1;stroke-miterlimit:4;" d="M 35.089844 -77.992188 C 47.738281 -82.425781 64.90625 -88.449219 77.625 -92.90625 " transform="matrix(1,0,0,1,4,202)"/>
<path style="fill-rule:nonzero;fill:rgb(25.098041%,25.098041%,25.098041%);fill-opacity:1;stroke-width:1;stroke-linecap:butt;stroke-linejoin:miter;stroke:rgb(25.098041%,25.098041%,25.098041%);stroke-opacity:1;stroke-miterlimit:4;" d="M 79.839844 -93.332031 C 79.839844 -92.78125 79.394531 -92.332031 78.839844 -92.332031 C 78.289062 -92.332031 77.839844 -92.78125 77.839844 -93.332031 C 77.839844 -93.886719 78.289062 -94.332031 78.839844 -94.332031 C 79.394531 -94.332031 79.839844 -93.886719 79.839844 -93.332031 Z M 79.839844 -93.332031 " transform="matrix(1,0,0,1,4,202)"/>
<path style=" stroke:none;fill-rule:nonzero;fill:rgb(0%,0%,0%);fill-opacity:1;" d="M 58.023438 108.550781 L 58.023438 108.433594 C 58.285156 108.375 58.515625 108.308594 58.726562 108.234375 C 58.933594 108.164062 59.042969 108.125 59.058594 108.125 C 59.0625 108.140625 59.066406 108.15625 59.066406 108.167969 L 59.066406 110.25 C 59.125 110.140625 59.214844 110.035156 59.332031 109.9375 C 59.542969 109.765625 59.785156 109.683594 60.058594 109.683594 C 60.394531 109.683594 60.679688 109.824219 60.914062 110.105469 C 61.152344 110.386719 61.269531 110.753906 61.269531 111.207031 C 61.269531 111.691406 61.117188 112.101562 60.808594 112.445312 C 60.5 112.789062 60.097656 112.964844 59.597656 112.964844 C 59.34375 112.964844 59.09375 112.914062 58.851562 112.8125 C 58.609375 112.710938 58.484375 112.613281 58.484375 112.511719 L 58.484375 108.898438 C 58.484375 108.765625 58.46875 108.671875 58.429688 108.617188 C 58.394531 108.5625 58.308594 108.535156 58.179688 108.535156 Z M 59.054688 112.398438 C 59.074219 112.515625 59.164062 112.601562 59.320312 112.652344 C 59.476562 112.703125 59.613281 112.730469 59.734375 112.730469 C 60.050781 112.730469 60.289062 112.609375 60.441406 112.371094 C 60.59375 112.132812 60.671875 111.84375 60.671875 111.503906 C 60.671875 111.164062 60.601562 110.851562 60.457031 110.5625 C 60.3125 110.273438 60.082031 110.128906 59.761719 110.128906 C 59.597656 110.128906 59.441406 110.179688 59.285156 110.277344 C 59.128906 110.378906 59.054688 110.503906 59.054688 110.65625 Z M 58 107.648438 "/>
<path style=" stroke:none;fill-rule:nonzero;fill:rgb(0%,0%,0%);fill-opacity:1;" d="M 61.707031 114.222656 C 62.542969 113.355469 63.109375 112.71875 63.40625 112.316406 C 63.707031 111.910156 63.855469 111.515625 63.855469 111.128906 C 63.855469 110.792969 63.765625 110.535156 63.582031 110.359375 C 63.398438 110.183594 63.179688 110.09375 62.929688 110.09375 C 62.617188 110.09375 62.363281 110.207031 62.171875 110.433594 C 62.0625 110.558594 61.960938 110.753906 61.863281 111.011719 L 61.714844 110.980469 C 61.828125 110.457031 62.023438 110.09375 62.292969 109.890625 C 62.566406 109.6875 62.859375 109.582031 63.171875 109.582031 C 63.554688 109.582031 63.867188 109.707031 64.105469 109.949219 C 64.34375 110.191406 64.464844 110.488281 64.464844 110.839844 C 64.464844 111.210938 64.335938 111.570312 64.078125 111.917969 C 63.820312 112.265625 63.261719 112.882812 62.398438 113.769531 L 63.96875 113.769531 C 64.1875 113.769531 64.339844 113.742188 64.429688 113.6875 C 64.519531 113.636719 64.617188 113.507812 64.730469 113.304688 L 64.820312 113.347656 L 64.4375 114.300781 L 61.707031 114.300781 Z M 61.5 109.050781 "/>
<path style="fill:none;stroke-width:1;stroke-linecap:butt;stroke-linejoin:miter;stroke:rgb(49.803922%,49.803922%,49.803922%);stroke-opacity:1;stroke-miterlimit:4;" d="M 36 -18 C 36 -8.058594 27.941406 0 18 0 C 8.058594 0 0 -8.058594 0 -18 C 0 -27.941406 8.058594 -36 18 -36 C 27.941406 -36 36 -27.941406 36 -18 Z M 36 -18 " transform="matrix(1,0,0,1,4,202)"/>
<path style=" stroke:none;fill-rule:nonzero;fill:rgb(0%,0%,0%);fill-opacity:1;" d="M 18.394531 185.691406 C 18.554688 185.675781 18.679688 185.632812 18.761719 185.5625 C 18.847656 185.496094 19.011719 185.308594 19.261719 185.003906 L 20.199219 183.847656 L 19.535156 182.886719 C 19.246094 182.46875 19.042969 182.210938 18.929688 182.109375 C 18.8125 182.003906 18.65625 181.949219 18.464844 181.941406 L 18.464844 181.832031 L 20.273438 181.832031 L 20.273438 181.941406 C 20.101562 181.949219 19.988281 181.960938 19.933594 181.976562 C 19.855469 182.003906 19.816406 182.058594 19.816406 182.144531 C 19.816406 182.199219 19.832031 182.265625 19.871094 182.339844 C 19.890625 182.378906 19.917969 182.425781 19.957031 182.476562 L 20.578125 183.378906 L 21.261719 182.550781 C 21.363281 182.433594 21.429688 182.335938 21.464844 182.265625 C 21.484375 182.222656 21.496094 182.183594 21.496094 182.148438 C 21.496094 182.058594 21.453125 182 21.367188 181.972656 C 21.316406 181.953125 21.21875 181.945312 21.082031 181.941406 L 21.082031 181.832031 L 22.503906 181.832031 L 22.503906 181.941406 C 22.34375 181.945312 22.21875 181.972656 22.132812 182.019531 C 21.992188 182.09375 21.820312 182.257812 21.617188 182.511719 L 20.734375 183.59375 L 21.886719 185.246094 C 22.007812 185.425781 22.113281 185.539062 22.191406 185.585938 C 22.273438 185.632812 22.394531 185.667969 22.554688 185.691406 L 22.554688 185.800781 L 20.777344 185.800781 L 20.777344 185.683594 C 20.945312 185.679688 21.0625 185.664062 21.132812 185.640625 C 21.199219 185.613281 21.230469 185.566406 21.230469 185.492188 C 21.230469 185.429688 21.1875 185.328125 21.097656 185.183594 C 21.007812 185.039062 20.757812 184.667969 20.351562 184.066406 L 19.640625 184.964844 C 19.539062 185.09375 19.464844 185.191406 19.425781 185.25 C 19.359375 185.347656 19.328125 185.417969 19.328125 185.464844 C 19.328125 185.550781 19.378906 185.609375 19.480469 185.644531 C 19.542969 185.667969 19.644531 185.683594 19.789062 185.691406 L 19.789062 185.800781 L 18.394531 185.800781 Z M 23.128906 185.292969 C 23.238281 185.292969 23.378906 185.347656 23.554688 185.457031 C 23.734375 185.570312 23.882812 185.625 24.007812 185.625 C 24.28125 185.625 24.484375 185.53125 24.617188 185.347656 C 24.75 185.164062 24.8125 184.964844 24.8125 184.746094 C 24.8125 184.535156 24.761719 184.355469 24.652344 184.195312 C 24.472656 183.925781 24.164062 183.792969 23.734375 183.792969 C 23.707031 183.792969 23.683594 183.792969 23.660156 183.796875 C 23.636719 183.796875 23.609375 183.800781 23.578125 183.800781 L 23.570312 183.726562 C 23.882812 183.613281 24.132812 183.484375 24.3125 183.335938 C 24.492188 183.191406 24.578125 182.996094 24.578125 182.757812 C 24.578125 182.542969 24.507812 182.382812 24.367188 182.269531 C 24.226562 182.160156 24.0625 182.105469 23.882812 182.105469 C 23.667969 182.105469 23.476562 182.183594 23.3125 182.339844 C 23.222656 182.425781 23.128906 182.558594 23.023438 182.738281 L 22.933594 182.71875 C 23.011719 182.421875 23.15625 182.183594 23.371094 182.007812 C 23.582031 181.828125 23.828125 181.738281 24.109375 181.738281 C 24.40625 181.738281 24.636719 181.824219 24.800781 181.988281 C 24.964844 182.152344 25.046875 182.339844 25.046875 182.554688 C 25.046875 182.746094 24.976562 182.917969 24.84375 183.074219 C 24.765625 183.164062 24.648438 183.265625 24.488281 183.378906 C 24.675781 183.457031 24.828125 183.550781 24.941406 183.660156 C 25.152344 183.863281 25.257812 184.125 25.257812 184.4375 C 25.257812 184.808594 25.113281 185.136719 24.820312 185.417969 C 24.53125 185.703125 24.113281 185.84375 23.574219 185.84375 C 23.335938 185.84375 23.167969 185.808594 23.070312 185.738281 C 22.972656 185.667969 22.925781 185.589844 22.925781 185.507812 C 22.925781 185.457031 22.941406 185.410156 22.972656 185.363281 C 23.003906 185.316406 23.058594 185.292969 23.128906 185.292969 Z M 18.332031 181.300781 "/>
<path style="fill:none;stroke-width:1;stroke-linecap:butt;stroke-linejoin:miter;stroke:rgb(25.098041%,25.098041%,25.098041%);stroke-opacity:1;stroke-miterlimit:4;" d="M 30.714844 -31.375 C 44.917969 -46.316406 67.78125 -70.367188 82.070312 -85.398438 " transform="matrix(1,0,0,1,4,202)"/>
<path style="fill-rule:nonzero;fill:rgb(25.098041%,25.098041%,25.098041%);fill-opacity:1;stroke-width:1;stroke-linecap:butt;stroke-linejoin:miter;stroke:rgb(25.098041%,25.098041%,25.098041%);stroke-opacity:1;stroke-miterlimit:4;" d="M 84.082031 -86.460938 C 84.082031 -85.910156 83.632812 -85.460938 83.082031 -85.460938 C 82.527344 -85.460938 82.082031 -85.910156 82.082031 -86.460938 C 82.082031 -87.015625 82.527344 -87.460938 83.082031 -87.460938 C 83.632812 -87.460938 84.082031 -87.015625 84.082031 -86.460938 Z M 84.082031 -86.460938 " transform="matrix(1,0,0,1,4,202)"/>
<path style=" stroke:none;fill-rule:nonzero;fill:rgb(0%,0%,0%);fill-opacity:1;" d="M 58.023438 134.550781 L 58.023438 134.433594 C 58.285156 134.375 58.515625 134.308594 58.726562 134.234375 C 58.933594 134.164062 59.042969 134.125 59.058594 134.125 C 59.0625 134.140625 59.066406 134.15625 59.066406 134.167969 L 59.066406 136.25 C 59.125 136.140625 59.214844 136.035156 59.332031 135.9375 C 59.542969 135.765625 59.785156 135.683594 60.058594 135.683594 C 60.394531 135.683594 60.679688 135.824219 60.914062 136.105469 C 61.152344 136.386719 61.269531 136.753906 61.269531 137.207031 C 61.269531 137.691406 61.117188 138.101562 60.808594 138.445312 C 60.5 138.789062 60.097656 138.964844 59.597656 138.964844 C 59.34375 138.964844 59.09375 138.914062 58.851562 138.8125 C 58.609375 138.710938 58.484375 138.613281 58.484375 138.511719 L 58.484375 134.898438 C 58.484375 134.765625 58.46875 134.671875 58.429688 134.617188 C 58.394531 134.5625 58.308594 134.535156 58.179688 134.535156 Z M 59.054688 138.398438 C 59.074219 138.515625 59.164062 138.601562 59.320312 138.652344 C 59.476562 138.703125 59.613281 138.730469 59.734375 138.730469 C 60.050781 138.730469 60.289062 138.609375 60.441406 138.371094 C 60.59375 138.132812 60.671875 137.84375 60.671875 137.503906 C 60.671875 137.164062 60.601562 136.851562 60.457031 136.5625 C 60.3125 136.273438 60.082031 136.128906 59.761719 136.128906 C 59.597656 136.128906 59.441406 136.179688 59.285156 136.277344 C 59.128906 136.378906 59.054688 136.503906 59.054688 136.65625 Z M 58 133.648438 "/>
<path style=" stroke:none;fill-rule:nonzero;fill:rgb(0%,0%,0%);fill-opacity:1;" d="M 62.042969 139.707031 C 62.167969 139.707031 62.335938 139.769531 62.539062 139.902344 C 62.746094 140.03125 62.921875 140.097656 63.066406 140.097656 C 63.382812 140.097656 63.621094 139.988281 63.777344 139.773438 C 63.929688 139.558594 64.007812 139.324219 64.007812 139.070312 C 64.007812 138.828125 63.945312 138.613281 63.820312 138.425781 C 63.609375 138.113281 63.25 137.960938 62.746094 137.960938 C 62.71875 137.960938 62.6875 137.960938 62.664062 137.960938 C 62.636719 137.960938 62.601562 137.964844 62.566406 137.96875 L 62.558594 137.878906 C 62.921875 137.746094 63.210938 137.597656 63.421875 137.425781 C 63.632812 137.253906 63.734375 137.03125 63.734375 136.75 C 63.734375 136.5 63.652344 136.3125 63.488281 136.183594 C 63.324219 136.050781 63.132812 135.988281 62.921875 135.988281 C 62.671875 135.988281 62.449219 136.078125 62.257812 136.265625 C 62.152344 136.363281 62.042969 136.519531 61.921875 136.730469 L 61.8125 136.707031 C 61.90625 136.359375 62.074219 136.082031 62.324219 135.875 C 62.570312 135.667969 62.859375 135.5625 63.183594 135.5625 C 63.53125 135.5625 63.804688 135.660156 63.992188 135.851562 C 64.183594 136.042969 64.277344 136.261719 64.277344 136.511719 C 64.277344 136.734375 64.199219 136.9375 64.042969 137.121094 C 63.953125 137.226562 63.816406 137.34375 63.628906 137.472656 C 63.847656 137.566406 64.023438 137.675781 64.15625 137.800781 C 64.40625 138.042969 64.527344 138.34375 64.527344 138.710938 C 64.527344 139.144531 64.359375 139.527344 64.015625 139.855469 C 63.675781 140.1875 63.191406 140.351562 62.5625 140.351562 C 62.28125 140.351562 62.085938 140.308594 61.972656 140.226562 C 61.859375 140.144531 61.804688 140.054688 61.804688 139.957031 C 61.804688 139.898438 61.824219 139.84375 61.859375 139.789062 C 61.898438 139.734375 61.960938 139.707031 62.042969 139.707031 Z M 61.5 135.050781 "/>
<path style="fill:none;stroke-width:1;stroke-linecap:butt;stroke-linejoin:miter;stroke:rgb(100%,54.901963%,0%);stroke-opacity:1;stroke-miterlimit:4;" d="M 166 -117 L 148 -99 L 166 -81 L 184 -99 Z M 166 -117 " transform="matrix(1,0,0,1,4,202)"/>
<path style="fill:none;stroke-width:1;stroke-linecap:butt;stroke-linejoin:miter;stroke:rgb(100%,54.901963%,0%);stroke-opacity:1;stroke-miterlimit:4;" d="M 154 -105 L 154 -93 " transform="matrix(1,0,0,1,4,202)"/>
<path style="fill:none;stroke-width:1;stroke-linecap:butt;stroke-linejoin:miter;stroke:rgb(100%,54.901963%,0%);stroke-opacity:1;stroke-miterlimit:4;" d="M 160 -87 L 172 -87 " transform="matrix(1,0,0,1,4,202)"/>
<path style="fill:none;stroke-width:1;stroke-linecap:butt;stroke-linejoin:miter;stroke:rgb(100%,54.901963%,0%);stroke-opacity:1;stroke-miterlimit:4;" d="M 178 -93 L 178 -105 " transform="matrix(1,0,0,1,4,202)"/>
<path style="fill:none;stroke-width:1;stroke-linecap:butt;stroke-linejoin:miter;stroke:rgb(100%,54.901963%,0%);stroke-opacity:1;stroke-miterlimit:4;" d="M 172 -111 L 160 -111 " transform="matrix(1,0,0,1,4,202)"/>
<path style=" stroke:none;fill-rule:nonzero;fill:rgb(0%,0%,0%);fill-opacity:1;" d="M 160.644531 103.878906 L 160.738281 103.878906 C 160.785156 104.101562 160.84375 104.269531 160.921875 104.390625 C 161.058594 104.609375 161.257812 104.71875 161.519531 104.71875 C 161.667969 104.71875 161.785156 104.679688 161.867188 104.597656 C 161.953125 104.515625 161.996094 104.410156 161.996094 104.28125 C 161.996094 104.199219 161.972656 104.121094 161.921875 104.042969 C 161.875 103.96875 161.789062 103.894531 161.664062 103.824219 L 161.335938 103.636719 C 161.097656 103.507812 160.917969 103.375 160.808594 103.246094 C 160.695312 103.113281 160.636719 102.960938 160.636719 102.78125 C 160.636719 102.5625 160.714844 102.382812 160.871094 102.242188 C 161.027344 102.101562 161.222656 102.03125 161.460938 102.03125 C 161.5625 102.03125 161.675781 102.050781 161.800781 102.089844 C 161.925781 102.128906 161.996094 102.148438 162.011719 102.148438 C 162.046875 102.148438 162.070312 102.144531 162.085938 102.136719 C 162.101562 102.125 162.117188 102.109375 162.128906 102.089844 L 162.199219 102.089844 L 162.21875 102.90625 L 162.128906 102.90625 C 162.089844 102.714844 162.035156 102.566406 161.96875 102.464844 C 161.847656 102.269531 161.675781 102.167969 161.445312 102.167969 C 161.308594 102.167969 161.199219 102.210938 161.121094 102.296875 C 161.042969 102.378906 161.003906 102.480469 161.003906 102.589844 C 161.003906 102.769531 161.140625 102.933594 161.410156 103.074219 L 161.796875 103.28125 C 162.214844 103.507812 162.421875 103.769531 162.421875 104.070312 C 162.421875 104.300781 162.335938 104.488281 162.160156 104.636719 C 161.988281 104.785156 161.761719 104.855469 161.484375 104.855469 C 161.367188 104.855469 161.234375 104.835938 161.085938 104.796875 C 160.9375 104.757812 160.847656 104.738281 160.820312 104.738281 C 160.796875 104.738281 160.777344 104.746094 160.761719 104.765625 C 160.742188 104.78125 160.730469 104.800781 160.71875 104.824219 L 160.644531 104.824219 Z M 163.160156 101.019531 C 163.160156 100.933594 163.191406 100.863281 163.246094 100.800781 C 163.304688 100.742188 163.378906 100.710938 163.464844 100.710938 C 163.550781 100.710938 163.621094 100.742188 163.679688 100.800781 C 163.738281 100.859375 163.769531 100.933594 163.769531 101.019531 C 163.769531 101.101562 163.738281 101.175781 163.679688 101.234375 C 163.621094 101.292969 163.550781 101.324219 163.464844 101.324219 C 163.378906 101.324219 163.308594 101.292969 163.246094 101.234375 C 163.1875 101.175781 163.160156 101.101562 163.160156 101.019531 Z M 162.785156 104.71875 C 162.996094 104.699219 163.125 104.664062 163.179688 104.613281 C 163.234375 104.558594 163.261719 104.417969 163.261719 104.191406 L 163.261719 102.792969 C 163.261719 102.667969 163.253906 102.578125 163.238281 102.53125 C 163.207031 102.449219 163.144531 102.410156 163.050781 102.410156 C 163.03125 102.410156 163.007812 102.410156 162.988281 102.417969 C 162.96875 102.421875 162.910156 102.433594 162.8125 102.464844 L 162.8125 102.371094 L 162.9375 102.332031 C 163.277344 102.21875 163.519531 102.136719 163.652344 102.078125 C 163.707031 102.054688 163.742188 102.042969 163.757812 102.042969 C 163.761719 102.058594 163.761719 102.074219 163.761719 102.089844 L 163.761719 104.191406 C 163.761719 104.414062 163.789062 104.554688 163.84375 104.609375 C 163.898438 104.667969 164.019531 104.703125 164.207031 104.71875 L 164.207031 104.800781 L 162.785156 104.800781 Z M 164.925781 105.34375 C 164.925781 105.507812 165.015625 105.621094 165.203125 105.683594 C 165.386719 105.746094 165.597656 105.777344 165.835938 105.777344 C 166.160156 105.777344 166.421875 105.71875 166.625 105.609375 C 166.828125 105.496094 166.929688 105.355469 166.929688 105.191406 C 166.929688 105.0625 166.851562 104.976562 166.6875 104.933594 C 166.585938 104.90625 166.390625 104.894531 166.109375 104.886719 C 166.035156 104.886719 165.960938 104.882812 165.878906 104.882812 C 165.800781 104.878906 165.726562 104.875 165.660156 104.871094 C 165.617188 104.871094 165.546875 104.863281 165.453125 104.847656 C 165.355469 104.832031 165.285156 104.824219 165.238281 104.8125 C 165.214844 104.8125 165.15625 104.875 165.066406 104.996094 C 164.972656 105.121094 164.925781 105.238281 164.925781 105.34375 Z M 165.304688 103.816406 C 165.128906 103.757812 164.988281 103.652344 164.890625 103.503906 C 164.792969 103.351562 164.742188 103.183594 164.742188 102.996094 C 164.742188 102.769531 164.835938 102.550781 165.015625 102.347656 C 165.195312 102.140625 165.453125 102.039062 165.785156 102.039062 C 165.929688 102.039062 166.085938 102.070312 166.257812 102.140625 C 166.429688 102.207031 166.59375 102.238281 166.753906 102.238281 C 166.792969 102.238281 166.855469 102.238281 166.9375 102.234375 C 167.023438 102.230469 167.082031 102.230469 167.117188 102.230469 L 167.15625 102.230469 L 167.15625 102.46875 L 166.648438 102.46875 C 166.683594 102.550781 166.710938 102.621094 166.730469 102.683594 C 166.761719 102.796875 166.78125 102.902344 166.78125 103.003906 C 166.78125 103.226562 166.6875 103.433594 166.503906 103.617188 C 166.320312 103.804688 166.070312 103.898438 165.757812 103.898438 C 165.707031 103.898438 165.621094 103.890625 165.492188 103.871094 C 165.4375 103.871094 165.363281 103.917969 165.269531 104.015625 C 165.175781 104.113281 165.128906 104.191406 165.128906 104.25 C 165.128906 104.3125 165.199219 104.359375 165.335938 104.386719 C 165.425781 104.40625 165.523438 104.417969 165.632812 104.417969 C 166.136719 104.417969 166.476562 104.445312 166.65625 104.503906 C 166.953125 104.59375 167.097656 104.792969 167.097656 105.09375 C 167.097656 105.402344 166.925781 105.648438 166.582031 105.832031 C 166.238281 106.015625 165.890625 106.105469 165.539062 106.105469 C 165.21875 106.105469 164.960938 106.042969 164.773438 105.914062 C 164.585938 105.785156 164.492188 105.644531 164.492188 105.503906 C 164.492188 105.433594 164.519531 105.363281 164.570312 105.296875 C 164.617188 105.230469 164.71875 105.128906 164.863281 104.996094 L 165.054688 104.824219 L 165.09375 104.789062 C 165.003906 104.753906 164.933594 104.71875 164.890625 104.6875 C 164.8125 104.625 164.773438 104.558594 164.773438 104.480469 C 164.773438 104.40625 164.804688 104.328125 164.875 104.238281 C 164.941406 104.152344 165.085938 104.011719 165.304688 103.816406 Z M 165.863281 103.757812 C 165.96875 103.757812 166.058594 103.730469 166.132812 103.667969 C 166.25 103.574219 166.308594 103.414062 166.308594 103.179688 C 166.308594 102.996094 166.261719 102.785156 166.164062 102.554688 C 166.070312 102.320312 165.914062 102.207031 165.691406 102.207031 C 165.5 102.207031 165.367188 102.296875 165.296875 102.476562 C 165.257812 102.574219 165.242188 102.691406 165.242188 102.832031 C 165.242188 103.070312 165.296875 103.285156 165.414062 103.472656 C 165.53125 103.664062 165.679688 103.757812 165.863281 103.757812 Z M 167.433594 104.722656 C 167.585938 104.710938 167.6875 104.683594 167.738281 104.648438 C 167.816406 104.589844 167.855469 104.480469 167.855469 104.308594 L 167.855469 102.792969 C 167.855469 102.648438 167.835938 102.554688 167.796875 102.511719 C 167.757812 102.464844 167.695312 102.441406 167.609375 102.441406 C 167.566406 102.441406 167.535156 102.445312 167.515625 102.449219 C 167.496094 102.453125 167.472656 102.457031 167.445312 102.46875 L 167.445312 102.367188 L 167.65625 102.296875 C 167.730469 102.269531 167.855469 102.222656 168.03125 102.160156 C 168.203125 102.09375 168.296875 102.058594 168.304688 102.058594 C 168.316406 102.058594 168.320312 102.0625 168.324219 102.074219 C 168.324219 102.082031 168.328125 102.101562 168.328125 102.128906 L 168.328125 102.523438 C 168.519531 102.347656 168.6875 102.226562 168.828125 102.160156 C 168.96875 102.09375 169.113281 102.058594 169.261719 102.058594 C 169.460938 102.058594 169.621094 102.128906 169.742188 102.261719 C 169.804688 102.335938 169.855469 102.4375 169.898438 102.566406 C 170.042969 102.417969 170.167969 102.308594 170.273438 102.238281 C 170.460938 102.117188 170.648438 102.058594 170.84375 102.058594 C 171.15625 102.058594 171.367188 102.1875 171.472656 102.441406 C 171.53125 102.585938 171.5625 102.816406 171.5625 103.128906 L 171.5625 104.34375 C 171.5625 104.480469 171.59375 104.578125 171.65625 104.625 C 171.71875 104.675781 171.828125 104.707031 171.988281 104.722656 L 171.988281 104.800781 L 170.667969 104.800781 L 170.667969 104.71875 C 170.835938 104.703125 170.949219 104.667969 171.003906 104.617188 C 171.054688 104.5625 171.082031 104.457031 171.082031 104.292969 L 171.082031 103.03125 C 171.082031 102.839844 171.0625 102.703125 171.023438 102.613281 C 170.949219 102.453125 170.808594 102.371094 170.597656 102.371094 C 170.46875 102.371094 170.34375 102.414062 170.21875 102.496094 C 170.148438 102.546875 170.058594 102.625 169.953125 102.730469 L 169.953125 104.230469 C 169.953125 104.390625 169.980469 104.511719 170.035156 104.59375 C 170.089844 104.675781 170.210938 104.71875 170.390625 104.722656 L 170.390625 104.800781 L 169.042969 104.800781 L 169.042969 104.722656 C 169.230469 104.699219 169.347656 104.65625 169.398438 104.589844 C 169.449219 104.523438 169.476562 104.359375 169.476562 104.101562 L 169.476562 103.28125 C 169.476562 102.980469 169.453125 102.773438 169.414062 102.660156 C 169.351562 102.46875 169.214844 102.371094 169.007812 102.371094 C 168.886719 102.371094 168.769531 102.40625 168.65625 102.46875 C 168.539062 102.535156 168.4375 102.621094 168.351562 102.726562 L 168.351562 104.328125 C 168.351562 104.476562 168.375 104.582031 168.425781 104.636719 C 168.476562 104.691406 168.59375 104.722656 168.765625 104.722656 L 168.765625 104.800781 L 167.433594 104.800781 Z M 172.152344 103.441406 C 172.152344 103.050781 172.277344 102.722656 172.523438 102.457031 C 172.769531 102.1875 173.085938 102.050781 173.476562 102.050781 C 173.863281 102.050781 174.183594 102.179688 174.4375 102.433594 C 174.691406 102.6875 174.820312 103.027344 174.820312 103.449219 C 174.820312 103.835938 174.695312 104.175781 174.449219 104.460938 C 174.203125 104.746094 173.882812 104.890625 173.492188 104.890625 C 173.117188 104.890625 172.800781 104.753906 172.542969 104.480469 C 172.28125 104.203125 172.152344 103.855469 172.152344 103.441406 Z M 173.394531 102.230469 C 173.242188 102.230469 173.105469 102.277344 172.992188 102.378906 C 172.796875 102.558594 172.699219 102.863281 172.699219 103.300781 C 172.699219 103.648438 172.777344 103.972656 172.9375 104.273438 C 173.09375 104.574219 173.3125 104.722656 173.589844 104.722656 C 173.808594 104.722656 173.976562 104.625 174.097656 104.421875 C 174.214844 104.222656 174.273438 103.957031 174.273438 103.632812 C 174.273438 103.292969 174.199219 102.976562 174.046875 102.675781 C 173.898438 102.378906 173.679688 102.230469 173.394531 102.230469 Z M 175.492188 101.019531 C 175.492188 100.933594 175.523438 100.863281 175.578125 100.800781 C 175.636719 100.742188 175.710938 100.710938 175.796875 100.710938 C 175.882812 100.710938 175.953125 100.742188 176.011719 100.800781 C 176.070312 100.859375 176.101562 100.933594 176.101562 101.019531 C 176.101562 101.101562 176.070312 101.175781 176.011719 101.234375 C 175.953125 101.292969 175.882812 101.324219 175.796875 101.324219 C 175.710938 101.324219 175.640625 101.292969 175.578125 101.234375 C 175.519531 101.175781 175.492188 101.101562 175.492188 101.019531 Z M 175.117188 104.71875 C 175.328125 104.699219 175.457031 104.664062 175.511719 104.613281 C 175.566406 104.558594 175.59375 104.417969 175.59375 104.191406 L 175.59375 102.792969 C 175.59375 102.667969 175.585938 102.578125 175.570312 102.53125 C 175.539062 102.449219 175.476562 102.410156 175.382812 102.410156 C 175.363281 102.410156 175.339844 102.410156 175.320312 102.417969 C 175.300781 102.421875 175.242188 102.433594 175.144531 102.464844 L 175.144531 102.371094 L 175.269531 102.332031 C 175.609375 102.21875 175.851562 102.136719 175.984375 102.078125 C 176.039062 102.054688 176.074219 102.042969 176.089844 102.042969 C 176.09375 102.058594 176.09375 102.074219 176.09375 102.089844 L 176.09375 104.191406 C 176.09375 104.414062 176.121094 104.554688 176.175781 104.609375 C 176.230469 104.667969 176.351562 104.703125 176.539062 104.71875 L 176.539062 104.800781 L 175.117188 104.800781 Z M 178.089844 102.03125 C 178.230469 102.03125 178.363281 102.0625 178.480469 102.125 C 178.558594 102.167969 178.636719 102.222656 178.707031 102.296875 L 178.707031 101.363281 C 178.707031 101.246094 178.695312 101.164062 178.667969 101.117188 C 178.640625 101.074219 178.578125 101.050781 178.480469 101.050781 C 178.457031 101.050781 178.433594 101.050781 178.417969 101.054688 C 178.398438 101.054688 178.359375 101.058594 178.300781 101.066406 L 178.300781 100.96875 L 178.539062 100.90625 C 178.628906 100.882812 178.714844 100.859375 178.804688 100.832031 C 178.890625 100.808594 178.96875 100.785156 179.035156 100.761719 C 179.066406 100.75 179.117188 100.730469 179.191406 100.707031 L 179.207031 100.710938 L 179.203125 101.019531 C 179.199219 101.128906 179.199219 101.246094 179.195312 101.363281 C 179.195312 101.480469 179.191406 101.597656 179.191406 101.714844 L 179.1875 104.105469 C 179.1875 104.234375 179.203125 104.324219 179.234375 104.371094 C 179.265625 104.421875 179.347656 104.449219 179.484375 104.449219 C 179.503906 104.449219 179.527344 104.449219 179.546875 104.449219 C 179.570312 104.449219 179.589844 104.445312 179.613281 104.441406 L 179.613281 104.535156 C 179.601562 104.539062 179.457031 104.589844 179.1875 104.683594 L 178.726562 104.855469 L 178.707031 104.832031 L 178.707031 104.46875 C 178.597656 104.589844 178.503906 104.675781 178.421875 104.722656 C 178.28125 104.8125 178.113281 104.855469 177.925781 104.855469 C 177.59375 104.855469 177.328125 104.726562 177.121094 104.472656 C 176.914062 104.214844 176.8125 103.917969 176.8125 103.578125 C 176.8125 103.15625 176.933594 102.792969 177.183594 102.488281 C 177.429688 102.183594 177.730469 102.03125 178.089844 102.03125 Z M 178.199219 104.539062 C 178.351562 104.539062 178.472656 104.496094 178.566406 104.40625 C 178.660156 104.316406 178.707031 104.230469 178.707031 104.152344 L 178.707031 102.894531 C 178.707031 102.640625 178.640625 102.460938 178.503906 102.355469 C 178.367188 102.25 178.234375 102.199219 178.105469 102.199219 C 177.859375 102.199219 177.667969 102.308594 177.53125 102.527344 C 177.394531 102.746094 177.328125 103.011719 177.328125 103.332031 C 177.328125 103.644531 177.398438 103.925781 177.546875 104.171875 C 177.691406 104.417969 177.910156 104.539062 178.199219 104.539062 Z M 160.332031 100.300781 "/>
<path style="fill:none;stroke-width:1;stroke-linecap:butt;stroke-linejoin:miter;stroke:rgb(25.098041%,25.098041%,25.098041%);stroke-opacity:1;stroke-miterlimit:4;" d="M 111.109375 -99 C 122.074219 -99 136.601562 -99 147.953125 -99 " transform="matrix(1,0,0,1,4,202)"/>
<path style="fill:none;stroke-width:1;stroke-linecap:butt;stroke-linejoin:miter;stroke:rgb(0%,0%,0%);stroke-opacity:1;stroke-miterlimit:4;" d="M 235.667969 -110 C 235.667969 -110 228.332031 -110 228.332031 -110 C 224.667969 -110 221 -106.332031 221 -102.667969 C 221 -102.667969 221 -95.332031 221 -95.332031 C 221 -91.667969 224.667969 -88 228.332031 -88 C 228.332031 -88 235.667969 -88 235.667969 -88 C 239.332031 -88 243 -91.667969 243 -95.332031 C 243 -95.332031 243 -102.667969 243 -102.667969 C 243 -106.332031 239.332031 -110 235.667969 -110 " transform="matrix(1,0,0,1,4,202)"/>
<path style=" stroke:none;fill-rule:nonzero;fill:rgb(0%,0%,0%);fill-opacity:1;" d="M 234.109375 101.808594 L 235.757812 101.808594 L 235.757812 101.929688 C 235.628906 101.933594 235.53125 101.945312 235.46875 101.964844 C 235.347656 102 235.289062 102.066406 235.289062 102.164062 C 235.289062 102.199219 235.296875 102.238281 235.308594 102.273438 C 235.320312 102.3125 235.34375 102.371094 235.378906 102.445312 L 236.292969 104.472656 L 237.027344 102.429688 C 237.035156 102.410156 237.046875 102.363281 237.0625 102.289062 C 237.082031 102.214844 237.089844 102.167969 237.089844 102.140625 C 237.089844 102.074219 237.066406 102.023438 237.019531 101.992188 C 236.972656 101.960938 236.914062 101.941406 236.839844 101.9375 L 236.71875 101.929688 L 236.71875 101.808594 L 237.792969 101.808594 L 237.792969 101.929688 C 237.6875 101.941406 237.605469 101.980469 237.554688 102.039062 C 237.5 102.097656 237.453125 102.183594 237.414062 102.289062 L 236.183594 105.546875 C 235.96875 106.109375 235.765625 106.515625 235.570312 106.769531 C 235.375 107.023438 235.128906 107.148438 234.828125 107.148438 C 234.683594 107.148438 234.546875 107.113281 234.417969 107.039062 C 234.289062 106.964844 234.226562 106.851562 234.226562 106.691406 C 234.226562 106.585938 234.265625 106.5 234.34375 106.4375 C 234.417969 106.371094 234.515625 106.335938 234.632812 106.335938 C 234.699219 106.335938 234.800781 106.359375 234.9375 106.410156 C 235.070312 106.460938 235.164062 106.484375 235.222656 106.484375 C 235.367188 106.484375 235.523438 106.316406 235.683594 105.976562 C 235.84375 105.636719 235.925781 105.410156 235.925781 105.296875 C 235.925781 105.273438 235.921875 105.246094 235.914062 105.210938 C 235.90625 105.175781 235.898438 105.148438 235.886719 105.121094 L 234.636719 102.417969 C 234.546875 102.226562 234.46875 102.097656 234.40625 102.039062 C 234.339844 101.976562 234.238281 101.9375 234.109375 101.917969 Z M 234 99.398438 "/>
<path style="fill:none;stroke-width:1;stroke-linecap:butt;stroke-linejoin:miter;stroke:rgb(25.098041%,25.098041%,25.098041%);stroke-opacity:1;stroke-miterlimit:4;" d="M 184.035156 -99 C 194.230469 -99 206.839844 -99 216.574219 -99 " transform="matrix(1,0,0,1,4,202)"/>
<path style="fill-rule:nonzero;fill:rgb(25.098041%,25.098041%,25.098041%);fill-opacity:1;stroke-width:1;stroke-linecap:butt;stroke-linejoin:miter;stroke:rgb(25.098041%,25.098041%,25.098041%);stroke-opacity:1;stroke-miterlimit:4;" d="M 220.824219 -99 C 220.824219 -97.894531 219.925781 -97 218.824219 -97 C 217.71875 -97 216.824219 -97.894531 216.824219 -99 C 216.824219 -100.105469 217.71875 -101 218.824219 -101 C 219.925781 -101 220.824219 -100.105469 220.824219 -99 Z M 220.824219 -99 " transform="matrix(1,0,0,1,4,202)"/>
</g>
</svg>
