<?xml version="1.0" encoding="UTF-8"?>
<svg xmlns="http://www.w3.org/2000/svg" xmlns:xlink="http://www.w3.org/1999/xlink" width="237pt" height="150pt" viewBox="0 0 237 150" version="1.1">
<g id="surface271">
<path style="fill:none;stroke-width:0.5;stroke-linecap:butt;stroke-linejoin:miter;stroke:rgb(49.803922%,49.803922%,49.803922%);stroke-opacity:1;stroke-miterlimit:4;" d="M 22 -131 C 22 -124.925781 17.074219 -120 11 -120 C 4.925781 -120 0 -124.925781 0 -131 C 0 -137.074219 4.925781 -142 11 -142 C 17.074219 -142 22 -137.074219 22 -131 Z M 22 -131 " transform="matrix(1,0,0,1,4,146)"/>
<path style=" stroke:none;fill-rule:nonzero;fill:rgb(25.098041%,25.098041%,25.098041%);fill-opacity:1;" d="M 11.917969 12.664062 L 12.601562 12.664062 L 13.324219 13.769531 L 14.050781 12.664062 L 14.695312 12.675781 L 13.636719 14.191406 L 14.742188 15.800781 L 14.066406 15.800781 L 13.289062 14.621094 L 12.53125 15.800781 L 11.863281 15.800781 L 12.96875 14.191406 Z M 11.832031 11.179688 "/>
<path style=" stroke:none;fill-rule:nonzero;fill:rgb(25.098041%,25.098041%,25.098041%);fill-opacity:1;" d="M 15.40625 14.03125 L 15.40625 13.625 C 15.785156 13.585938 16.050781 13.527344 16.203125 13.4375 C 16.355469 13.351562 16.464844 13.148438 16.539062 12.820312 L 16.957031 12.820312 L 16.957031 17 L 16.394531 17 L 16.394531 14.03125 Z M 14.832031 12.378906 "/>
<path style="fill:none;stroke-width:1;stroke-linecap:butt;stroke-linejoin:miter;stroke:rgb(33.725491%,70.588237%,91.37255%);stroke-opacity:0.501961;stroke-dasharray:5,2;stroke-miterlimit:4;" d="M 93 -71 C 93 -64.371094 87.628906 -59 81 -59 C 74.371094 -59 69 -64.371094 69 -71 C 69 -77.628906 74.371094 -83 81 -83 C 87.628906 -83 93 -77.628906 93 -71 Z M 93 -71 " transform="matrix(1,0,0,1,4,146)"/>
<path style="fill:none;stroke-width:1;stroke-linecap:butt;stroke-linejoin:miter;stroke:rgb(33.725491%,70.588237%,91.37255%);stroke-opacity:0.501961;stroke-dasharray:5,2;stroke-miterlimit:4;" d="M 97 -71 C 97 -62.164062 89.835938 -55 81 -55 C 72.164062 -55 65 -62.164062 65 -71 C 65 -79.835938 72.164062 -87 81 -87 C 89.835938 -87 97 -79.835938 97 -71 Z M 97 -71 " transform="matrix(1,0,0,1,4,146)"/>
<path style=" stroke:none;fill-rule:nonzero;fill:rgb(25.098041%,25.098041%,25.098041%);fill-opacity:1;" d="M 81.351562 69.914062 L 81.835938 69.914062 L 81.835938 73.074219 L 83.652344 73.074219 L 83.652344 73.5 L 81.351562 73.5 Z M 84.070312 70.898438 L 84.519531 70.898438 L 84.519531 73.5 L 84.070312 73.5 Z M 84.070312 69.914062 L 84.519531 69.914062 L 84.519531 70.410156 L 84.070312 70.410156 Z M 85.179688 70.886719 L 85.597656 70.886719 L 85.597656 71.257812 C 85.722656 71.105469 85.855469 70.992188 85.992188 70.925781 C 86.128906 70.859375 86.285156 70.828125 86.453125 70.828125 C 86.824219 70.828125 87.074219 70.957031 87.207031 71.214844 C 87.277344 71.355469 87.3125 71.558594 87.3125 71.824219 L 87.3125 73.5 L 86.867188 73.5 L 86.867188 71.851562 C 86.867188 71.691406 86.84375 71.5625 86.796875 71.464844 C 86.71875 71.304688 86.574219 71.222656 86.371094 71.222656 C 86.265625 71.222656 86.179688 71.234375 86.113281 71.253906 C 85.992188 71.289062 85.886719 71.359375 85.796875 71.46875 C 85.722656 71.554688 85.675781 71.644531 85.652344 71.734375 C 85.632812 71.828125 85.621094 71.960938 85.621094 72.128906 L 85.621094 73.5 L 85.179688 73.5 Z M 88.066406 72.96875 L 88.578125 72.96875 L 88.578125 73.5 L 88.066406 73.5 Z M 80.96875 69.648438 "/>
<path style=" stroke:none;fill-rule:nonzero;fill:rgb(25.098041%,25.098041%,25.098041%);fill-opacity:1;" d="M 79.449219 75.914062 L 81.0625 75.914062 C 81.382812 75.914062 81.640625 76.003906 81.835938 76.183594 C 82.03125 76.363281 82.128906 76.617188 82.128906 76.941406 C 82.128906 77.222656 82.042969 77.464844 81.867188 77.671875 C 81.695312 77.878906 81.425781 77.984375 81.0625 77.984375 L 79.9375 77.984375 L 79.9375 79.5 L 79.449219 79.5 Z M 81.636719 76.945312 C 81.636719 76.679688 81.539062 76.5 81.34375 76.40625 C 81.238281 76.355469 81.089844 76.332031 80.902344 76.332031 L 79.9375 76.332031 L 79.9375 77.574219 L 80.902344 77.574219 C 81.121094 77.574219 81.296875 77.527344 81.433594 77.433594 C 81.570312 77.339844 81.636719 77.179688 81.636719 76.945312 Z M 82.695312 76.886719 L 83.109375 76.886719 L 83.109375 77.335938 C 83.144531 77.25 83.230469 77.140625 83.363281 77.015625 C 83.496094 76.890625 83.648438 76.828125 83.824219 76.828125 C 83.832031 76.828125 83.847656 76.828125 83.867188 76.828125 C 83.886719 76.832031 83.917969 76.835938 83.964844 76.839844 L 83.964844 77.304688 C 83.9375 77.296875 83.914062 77.292969 83.894531 77.292969 C 83.871094 77.292969 83.847656 77.289062 83.820312 77.289062 C 83.601562 77.289062 83.429688 77.363281 83.3125 77.503906 C 83.191406 77.648438 83.132812 77.8125 83.132812 77.996094 L 83.132812 79.5 L 82.695312 79.5 Z M 85.433594 76.828125 C 85.621094 76.828125 85.800781 76.871094 85.972656 76.957031 C 86.148438 77.042969 86.28125 77.15625 86.371094 77.296875 C 86.460938 77.429688 86.519531 77.582031 86.546875 77.757812 C 86.574219 77.878906 86.585938 78.070312 86.585938 78.332031 L 84.671875 78.332031 C 84.679688 78.597656 84.742188 78.8125 84.859375 78.972656 C 84.976562 79.132812 85.15625 79.210938 85.402344 79.210938 C 85.632812 79.210938 85.816406 79.136719 85.953125 78.984375 C 86.03125 78.898438 86.085938 78.796875 86.117188 78.679688 L 86.550781 78.679688 C 86.539062 78.777344 86.5 78.882812 86.4375 79 C 86.371094 79.117188 86.300781 79.214844 86.21875 79.289062 C 86.085938 79.421875 85.921875 79.507812 85.726562 79.554688 C 85.621094 79.578125 85.5 79.59375 85.367188 79.59375 C 85.039062 79.59375 84.765625 79.472656 84.539062 79.238281 C 84.3125 79 84.199219 78.667969 84.199219 78.242188 C 84.199219 77.824219 84.3125 77.480469 84.539062 77.21875 C 84.769531 76.957031 85.066406 76.828125 85.433594 76.828125 Z M 86.136719 77.984375 C 86.117188 77.792969 86.074219 77.640625 86.011719 77.527344 C 85.890625 77.316406 85.6875 77.210938 85.40625 77.210938 C 85.207031 77.210938 85.035156 77.28125 84.898438 77.429688 C 84.761719 77.574219 84.691406 77.757812 84.683594 77.984375 Z M 87.40625 78.222656 C 87.40625 78.503906 87.464844 78.738281 87.582031 78.925781 C 87.703125 79.113281 87.894531 79.210938 88.15625 79.210938 C 88.359375 79.210938 88.527344 79.121094 88.65625 78.945312 C 88.789062 78.773438 88.851562 78.519531 88.851562 78.195312 C 88.851562 77.863281 88.785156 77.617188 88.648438 77.460938 C 88.515625 77.300781 88.347656 77.222656 88.148438 77.222656 C 87.929688 77.222656 87.75 77.308594 87.613281 77.476562 C 87.476562 77.644531 87.40625 77.894531 87.40625 78.222656 Z M 88.066406 76.839844 C 88.265625 76.839844 88.433594 76.882812 88.570312 76.964844 C 88.648438 77.015625 88.738281 77.101562 88.835938 77.222656 L 88.835938 75.902344 L 89.257812 75.902344 L 89.257812 79.5 L 88.863281 79.5 L 88.863281 79.136719 C 88.761719 79.296875 88.640625 79.414062 88.5 79.484375 C 88.359375 79.554688 88.199219 79.59375 88.019531 79.59375 C 87.726562 79.59375 87.472656 79.46875 87.261719 79.226562 C 87.046875 78.980469 86.941406 78.65625 86.941406 78.246094 C 86.941406 77.867188 87.039062 77.535156 87.234375 77.257812 C 87.429688 76.976562 87.707031 76.839844 88.066406 76.839844 Z M 90.011719 78.96875 L 90.523438 78.96875 L 90.523438 79.5 L 90.011719 79.5 Z M 79.023438 75.648438 "/>
<path style="fill:none;stroke-width:0.5;stroke-linecap:butt;stroke-linejoin:miter;stroke:rgb(32.941177%,32.941177%,32.941177%);stroke-opacity:1;stroke-miterlimit:4;" d="M 19.582031 -123.644531 C 31.371094 -113.539062 52.714844 -95.242188 66.875 -83.105469 " transform="matrix(1,0,0,1,4,146)"/>
<path style="fill-rule:nonzero;fill:rgb(32.941177%,32.941177%,32.941177%);fill-opacity:1;stroke-width:0.5;stroke-linecap:butt;stroke-linejoin:miter;stroke:rgb(32.941177%,32.941177%,32.941177%);stroke-opacity:1;stroke-miterlimit:4;" d="M 68.808594 -82.308594 C 68.808594 -81.757812 68.359375 -81.308594 67.808594 -81.308594 C 67.253906 -81.308594 66.808594 -81.757812 66.808594 -82.308594 C 66.808594 -82.859375 67.253906 -83.308594 67.808594 -83.308594 C 68.359375 -83.308594 68.808594 -82.859375 68.808594 -82.308594 Z M 68.808594 -82.308594 " transform="matrix(1,0,0,1,4,146)"/>
<path style=" stroke:none;fill-rule:nonzero;fill:rgb(25.098041%,25.098041%,25.098041%);fill-opacity:1;" d="M 44.023438 34.550781 L 44.023438 34.433594 C 44.285156 34.375 44.515625 34.308594 44.726562 34.234375 C 44.933594 34.164062 45.042969 34.125 45.058594 34.125 C 45.0625 34.140625 45.066406 34.15625 45.066406 34.167969 L 45.066406 36.25 C 45.125 36.140625 45.214844 36.035156 45.332031 35.9375 C 45.542969 35.765625 45.785156 35.683594 46.058594 35.683594 C 46.394531 35.683594 46.679688 35.824219 46.914062 36.105469 C 47.152344 36.386719 47.269531 36.753906 47.269531 37.207031 C 47.269531 37.691406 47.117188 38.101562 46.808594 38.445312 C 46.5 38.789062 46.097656 38.964844 45.597656 38.964844 C 45.34375 38.964844 45.09375 38.914062 44.851562 38.8125 C 44.609375 38.710938 44.484375 38.613281 44.484375 38.511719 L 44.484375 34.898438 C 44.484375 34.765625 44.46875 34.671875 44.429688 34.617188 C 44.394531 34.5625 44.308594 34.535156 44.179688 34.535156 Z M 45.054688 38.398438 C 45.074219 38.515625 45.164062 38.601562 45.320312 38.652344 C 45.476562 38.703125 45.613281 38.730469 45.734375 38.730469 C 46.050781 38.730469 46.289062 38.609375 46.441406 38.371094 C 46.59375 38.132812 46.671875 37.84375 46.671875 37.503906 C 46.671875 37.164062 46.601562 36.851562 46.457031 36.5625 C 46.3125 36.273438 46.082031 36.128906 45.761719 36.128906 C 45.597656 36.128906 45.441406 36.179688 45.285156 36.277344 C 45.128906 36.378906 45.054688 36.503906 45.054688 36.65625 Z M 44 33.648438 "/>
<path style=" stroke:none;fill-rule:nonzero;fill:rgb(25.098041%,25.098041%,25.098041%);fill-opacity:1;" d="M 49.570312 35.605469 C 49.578125 35.617188 49.585938 35.625 49.585938 35.628906 C 49.585938 35.636719 49.589844 35.648438 49.589844 35.667969 L 49.589844 39.785156 C 49.589844 39.960938 49.636719 40.070312 49.726562 40.121094 C 49.820312 40.167969 49.996094 40.195312 50.25 40.207031 L 50.25 40.300781 L 48.324219 40.300781 L 48.324219 40.199219 C 48.601562 40.183594 48.78125 40.148438 48.863281 40.085938 C 48.949219 40.023438 48.992188 39.890625 48.992188 39.683594 L 48.992188 36.519531 C 48.992188 36.410156 48.976562 36.328125 48.949219 36.269531 C 48.921875 36.214844 48.863281 36.183594 48.773438 36.183594 C 48.710938 36.183594 48.636719 36.203125 48.539062 36.234375 C 48.445312 36.269531 48.359375 36.304688 48.277344 36.339844 L 48.277344 36.242188 L 49.53125 35.605469 Z M 47.5 35.050781 "/>
<path style="fill:none;stroke-width:0.5;stroke-linecap:butt;stroke-linejoin:miter;stroke:rgb(49.803922%,49.803922%,49.803922%);stroke-opacity:1;stroke-miterlimit:4;" d="M 22 -91 C 22 -84.925781 17.074219 -80 11 -80 C 4.925781 -80 0 -84.925781 0 -91 C 0 -97.074219 4.925781 -102 11 -102 C 17.074219 -102 22 -97.074219 22 -91 Z M 22 -91 " transform="matrix(1,0,0,1,4,146)"/>
<path style=" stroke:none;fill-rule:nonzero;fill:rgb(25.098041%,25.098041%,25.098041%);fill-opacity:1;" d="M 11.917969 52.664062 L 12.601562 52.664062 L 13.324219 53.769531 L 14.050781 52.664062 L 14.695312 52.675781 L 13.636719 54.191406 L 14.742188 55.800781 L 14.066406 55.800781 L 13.289062 54.621094 L 12.53125 55.800781 L 11.863281 55.800781 L 12.96875 54.191406 Z M 11.832031 51.179688 "/>
<path style=" stroke:none;fill-rule:nonzero;fill:rgb(25.098041%,25.098041%,25.098041%);fill-opacity:1;" d="M 15.019531 57 C 15.039062 56.640625 15.113281 56.324219 15.242188 56.054688 C 15.371094 55.789062 15.628906 55.546875 16.003906 55.328125 L 16.566406 55 C 16.816406 54.855469 16.996094 54.730469 17.097656 54.625 C 17.257812 54.464844 17.335938 54.28125 17.335938 54.070312 C 17.335938 53.828125 17.261719 53.632812 17.117188 53.488281 C 16.972656 53.34375 16.777344 53.273438 16.53125 53.273438 C 16.167969 53.273438 15.917969 53.410156 15.78125 53.683594 C 15.707031 53.828125 15.667969 54.03125 15.660156 54.292969 L 15.121094 54.292969 C 15.128906 53.929688 15.195312 53.628906 15.324219 53.398438 C 15.550781 52.992188 15.957031 52.789062 16.535156 52.789062 C 17.015625 52.789062 17.367188 52.921875 17.585938 53.179688 C 17.808594 53.4375 17.917969 53.726562 17.917969 54.046875 C 17.917969 54.382812 17.800781 54.671875 17.566406 54.90625 C 17.429688 55.046875 17.183594 55.214844 16.832031 55.414062 L 16.429688 55.632812 C 16.238281 55.738281 16.085938 55.839844 15.976562 55.9375 C 15.78125 56.105469 15.660156 56.296875 15.609375 56.5 L 17.898438 56.5 L 17.898438 57 Z M 14.832031 52.378906 "/>
<path style="fill:none;stroke-width:0.5;stroke-linecap:butt;stroke-linejoin:miter;stroke:rgb(32.941177%,32.941177%,32.941177%);stroke-opacity:1;stroke-miterlimit:4;" d="M 21.632812 -87.960938 C 32.695312 -84.800781 50.207031 -79.796875 63.351562 -76.042969 " transform="matrix(1,0,0,1,4,146)"/>
<path style="fill-rule:nonzero;fill:rgb(32.941177%,32.941177%,32.941177%);fill-opacity:1;stroke-width:0.5;stroke-linecap:butt;stroke-linejoin:miter;stroke:rgb(32.941177%,32.941177%,32.941177%);stroke-opacity:1;stroke-miterlimit:4;" d="M 65.625 -75.679688 C 65.625 -75.125 65.175781 -74.679688 64.625 -74.679688 C 64.070312 -74.679688 63.625 -75.125 63.625 -75.679688 C 63.625 -76.230469 64.070312 -76.679688 64.625 -76.679688 C 65.175781 -76.679688 65.625 -76.230469 65.625 -75.679688 Z M 65.625 -75.679688 " transform="matrix(1,0,0,1,4,146)"/>
<path style=" stroke:none;fill-rule:nonzero;fill:rgb(25.098041%,25.098041%,25.098041%);fill-opacity:1;" d="M 44.023438 56.550781 L 44.023438 56.433594 C 44.285156 56.375 44.515625 56.308594 44.726562 56.234375 C 44.933594 56.164062 45.042969 56.125 45.058594 56.125 C 45.0625 56.140625 45.066406 56.15625 45.066406 56.167969 L 45.066406 58.25 C 45.125 58.140625 45.214844 58.035156 45.332031 57.9375 C 45.542969 57.765625 45.785156 57.683594 46.058594 57.683594 C 46.394531 57.683594 46.679688 57.824219 46.914062 58.105469 C 47.152344 58.386719 47.269531 58.753906 47.269531 59.207031 C 47.269531 59.691406 47.117188 60.101562 46.808594 60.445312 C 46.5 60.789062 46.097656 60.964844 45.597656 60.964844 C 45.34375 60.964844 45.09375 60.914062 44.851562 60.8125 C 44.609375 60.710938 44.484375 60.613281 44.484375 60.511719 L 44.484375 56.898438 C 44.484375 56.765625 44.46875 56.671875 44.429688 56.617188 C 44.394531 56.5625 44.308594 56.535156 44.179688 56.535156 Z M 45.054688 60.398438 C 45.074219 60.515625 45.164062 60.601562 45.320312 60.652344 C 45.476562 60.703125 45.613281 60.730469 45.734375 60.730469 C 46.050781 60.730469 46.289062 60.609375 46.441406 60.371094 C 46.59375 60.132812 46.671875 59.84375 46.671875 59.503906 C 46.671875 59.164062 46.601562 58.851562 46.457031 58.5625 C 46.3125 58.273438 46.082031 58.128906 45.761719 58.128906 C 45.597656 58.128906 45.441406 58.179688 45.285156 58.277344 C 45.128906 58.378906 45.054688 58.503906 45.054688 58.65625 Z M 44 55.648438 "/>
<path style=" stroke:none;fill-rule:nonzero;fill:rgb(25.098041%,25.098041%,25.098041%);fill-opacity:1;" d="M 47.707031 62.222656 C 48.542969 61.355469 49.109375 60.71875 49.40625 60.316406 C 49.707031 59.910156 49.855469 59.515625 49.855469 59.128906 C 49.855469 58.792969 49.765625 58.535156 49.582031 58.359375 C 49.398438 58.183594 49.179688 58.09375 48.929688 58.09375 C 48.617188 58.09375 48.363281 58.207031 48.171875 58.433594 C 48.0625 58.558594 47.960938 58.753906 47.863281 59.011719 L 47.714844 58.980469 C 47.828125 58.457031 48.023438 58.09375 48.292969 57.890625 C 48.566406 57.6875 48.859375 57.582031 49.171875 57.582031 C 49.554688 57.582031 49.867188 57.707031 50.105469 57.949219 C 50.34375 58.191406 50.464844 58.488281 50.464844 58.839844 C 50.464844 59.210938 50.335938 59.570312 50.078125 59.917969 C 49.820312 60.265625 49.261719 60.882812 48.398438 61.769531 L 49.96875 61.769531 C 50.1875 61.769531 50.339844 61.742188 50.429688 61.6875 C 50.519531 61.636719 50.617188 61.507812 50.730469 61.304688 L 50.820312 61.347656 L 50.4375 62.300781 L 47.707031 62.300781 Z M 47.5 57.050781 "/>
<path style="fill:none;stroke-width:0.5;stroke-linecap:butt;stroke-linejoin:miter;stroke:rgb(49.803922%,49.803922%,49.803922%);stroke-opacity:1;stroke-miterlimit:4;" d="M 22 -51 C 22 -44.925781 17.074219 -40 11 -40 C 4.925781 -40 0 -44.925781 0 -51 C 0 -57.074219 4.925781 -62 11 -62 C 17.074219 -62 22 -57.074219 22 -51 Z M 22 -51 " transform="matrix(1,0,0,1,4,146)"/>
<path style=" stroke:none;fill-rule:nonzero;fill:rgb(25.098041%,25.098041%,25.098041%);fill-opacity:1;" d="M 11.917969 92.664062 L 12.601562 92.664062 L 13.324219 93.769531 L 14.050781 92.664062 L 14.695312 92.675781 L 13.636719 94.191406 L 14.742188 95.800781 L 14.066406 95.800781 L 13.289062 94.621094 L 12.53125 95.800781 L 11.863281 95.800781 L 12.96875 94.191406 Z M 11.832031 91.179688 "/>
<path style=" stroke:none;fill-rule:nonzero;fill:rgb(25.098041%,25.098041%,25.098041%);fill-opacity:1;" d="M 16.390625 97.113281 C 15.894531 97.113281 15.535156 96.976562 15.3125 96.707031 C 15.089844 96.433594 14.976562 96.101562 14.976562 95.710938 L 15.527344 95.710938 C 15.550781 95.984375 15.601562 96.179688 15.679688 96.304688 C 15.816406 96.523438 16.0625 96.632812 16.417969 96.632812 C 16.695312 96.632812 16.917969 96.558594 17.089844 96.410156 C 17.257812 96.261719 17.339844 96.070312 17.339844 95.835938 C 17.339844 95.546875 17.25 95.34375 17.074219 95.230469 C 16.898438 95.117188 16.652344 95.058594 16.339844 95.058594 C 16.304688 95.058594 16.265625 95.058594 16.230469 95.058594 C 16.195312 95.058594 16.160156 95.0625 16.121094 95.0625 L 16.121094 94.597656 C 16.175781 94.601562 16.222656 94.609375 16.257812 94.609375 C 16.296875 94.609375 16.335938 94.613281 16.378906 94.613281 C 16.574219 94.613281 16.738281 94.582031 16.863281 94.519531 C 17.085938 94.410156 17.199219 94.214844 17.199219 93.933594 C 17.199219 93.722656 17.125 93.5625 16.976562 93.449219 C 16.828125 93.335938 16.65625 93.28125 16.457031 93.28125 C 16.105469 93.28125 15.863281 93.398438 15.730469 93.632812 C 15.65625 93.761719 15.613281 93.945312 15.601562 94.179688 L 15.082031 94.179688 C 15.082031 93.867188 15.144531 93.601562 15.269531 93.382812 C 15.484375 92.992188 15.863281 92.796875 16.402344 92.796875 C 16.832031 92.796875 17.160156 92.894531 17.394531 93.085938 C 17.628906 93.273438 17.746094 93.550781 17.746094 93.914062 C 17.746094 94.171875 17.675781 94.378906 17.539062 94.539062 C 17.453125 94.640625 17.339844 94.71875 17.207031 94.773438 C 17.425781 94.835938 17.597656 94.949219 17.722656 95.125 C 17.847656 95.296875 17.910156 95.507812 17.910156 95.757812 C 17.910156 96.15625 17.777344 96.484375 17.511719 96.734375 C 17.25 96.988281 16.875 97.113281 16.390625 97.113281 Z M 14.832031 92.378906 "/>
<path style="fill:none;stroke-width:0.5;stroke-linecap:butt;stroke-linejoin:miter;stroke:rgb(32.941177%,32.941177%,32.941177%);stroke-opacity:1;stroke-miterlimit:4;" d="M 21.632812 -54.039062 C 32.695312 -57.199219 50.207031 -62.203125 63.351562 -65.957031 " transform="matrix(1,0,0,1,4,146)"/>
<path style="fill-rule:nonzero;fill:rgb(32.941177%,32.941177%,32.941177%);fill-opacity:1;stroke-width:0.5;stroke-linecap:butt;stroke-linejoin:miter;stroke:rgb(32.941177%,32.941177%,32.941177%);stroke-opacity:1;stroke-miterlimit:4;" d="M 65.625 -66.320312 C 65.625 -65.769531 65.175781 -65.320312 64.625 -65.320312 C 64.070312 -65.320312 63.625 -65.769531 63.625 -66.320312 C 63.625 -66.875 64.070312 -67.320312 64.625 -67.320312 C 65.175781 -67.320312 65.625 -66.875 65.625 -66.320312 Z M 65.625 -66.320312 " transform="matrix(1,0,0,1,4,146)"/>
<path style=" stroke:none;fill-rule:nonzero;fill:rgb(25.098041%,25.098041%,25.098041%);fill-opacity:1;" d="M 44.023438 77.550781 L 44.023438 77.433594 C 44.285156 77.375 44.515625 77.308594 44.726562 77.234375 C 44.933594 77.164062 45.042969 77.125 45.058594 77.125 C 45.0625 77.140625 45.066406 77.15625 45.066406 77.167969 L 45.066406 79.25 C 45.125 79.140625 45.214844 79.035156 45.332031 78.9375 C 45.542969 78.765625 45.785156 78.683594 46.058594 78.683594 C 46.394531 78.683594 46.679688 78.824219 46.914062 79.105469 C 47.152344 79.386719 47.269531 79.753906 47.269531 80.207031 C 47.269531 80.691406 47.117188 81.101562 46.808594 81.445312 C 46.5 81.789062 46.097656 81.964844 45.597656 81.964844 C 45.34375 81.964844 45.09375 81.914062 44.851562 81.8125 C 44.609375 81.710938 44.484375 81.613281 44.484375 81.511719 L 44.484375 77.898438 C 44.484375 77.765625 44.46875 77.671875 44.429688 77.617188 C 44.394531 77.5625 44.308594 77.535156 44.179688 77.535156 Z M 45.054688 81.398438 C 45.074219 81.515625 45.164062 81.601562 45.320312 81.652344 C 45.476562 81.703125 45.613281 81.730469 45.734375 81.730469 C 46.050781 81.730469 46.289062 81.609375 46.441406 81.371094 C 46.59375 81.132812 46.671875 80.84375 46.671875 80.503906 C 46.671875 80.164062 46.601562 79.851562 46.457031 79.5625 C 46.3125 79.273438 46.082031 79.128906 45.761719 79.128906 C 45.597656 79.128906 45.441406 79.179688 45.285156 79.277344 C 45.128906 79.378906 45.054688 79.503906 45.054688 79.65625 Z M 44 76.648438 "/>
<path style=" stroke:none;fill-rule:nonzero;fill:rgb(25.098041%,25.098041%,25.098041%);fill-opacity:1;" d="M 48.042969 82.707031 C 48.167969 82.707031 48.335938 82.769531 48.539062 82.902344 C 48.746094 83.03125 48.921875 83.097656 49.066406 83.097656 C 49.382812 83.097656 49.621094 82.988281 49.777344 82.773438 C 49.929688 82.558594 50.007812 82.324219 50.007812 82.070312 C 50.007812 81.828125 49.945312 81.613281 49.820312 81.425781 C 49.609375 81.113281 49.25 80.960938 48.746094 80.960938 C 48.71875 80.960938 48.6875 80.960938 48.664062 80.960938 C 48.636719 80.960938 48.601562 80.964844 48.566406 80.96875 L 48.558594 80.878906 C 48.921875 80.746094 49.210938 80.597656 49.421875 80.425781 C 49.632812 80.253906 49.734375 80.03125 49.734375 79.75 C 49.734375 79.5 49.652344 79.3125 49.488281 79.183594 C 49.324219 79.050781 49.132812 78.988281 48.921875 78.988281 C 48.671875 78.988281 48.449219 79.078125 48.257812 79.265625 C 48.152344 79.363281 48.042969 79.519531 47.921875 79.730469 L 47.8125 79.707031 C 47.90625 79.359375 48.074219 79.082031 48.324219 78.875 C 48.570312 78.667969 48.859375 78.5625 49.183594 78.5625 C 49.53125 78.5625 49.804688 78.660156 49.992188 78.851562 C 50.183594 79.042969 50.277344 79.261719 50.277344 79.511719 C 50.277344 79.734375 50.199219 79.9375 50.042969 80.121094 C 49.953125 80.226562 49.816406 80.34375 49.628906 80.472656 C 49.847656 80.566406 50.023438 80.675781 50.15625 80.800781 C 50.40625 81.042969 50.527344 81.34375 50.527344 81.710938 C 50.527344 82.144531 50.359375 82.527344 50.015625 82.855469 C 49.675781 83.1875 49.191406 83.351562 48.5625 83.351562 C 48.28125 83.351562 48.085938 83.308594 47.972656 83.226562 C 47.859375 83.144531 47.804688 83.054688 47.804688 82.957031 C 47.804688 82.898438 47.824219 82.84375 47.859375 82.789062 C 47.898438 82.734375 47.960938 82.707031 48.042969 82.707031 Z M 47.5 78.050781 "/>
<path style="fill-rule:nonzero;fill:rgb(100%,100%,100%);fill-opacity:1;stroke-width:0.5;stroke-linecap:butt;stroke-linejoin:miter;stroke:rgb(100%,54.901963%,0%);stroke-opacity:1;stroke-miterlimit:4;" d="M 152 -89 L 134 -71 L 152 -53 L 170 -71 Z M 152 -89 " transform="matrix(1,0,0,1,4,146)"/>
<path style="fill:none;stroke-width:0.5;stroke-linecap:butt;stroke-linejoin:miter;stroke:rgb(100%,54.901963%,0%);stroke-opacity:1;stroke-miterlimit:4;" d="M 140 -77 L 140 -65 " transform="matrix(1,0,0,1,4,146)"/>
<path style="fill:none;stroke-width:0.5;stroke-linecap:butt;stroke-linejoin:miter;stroke:rgb(100%,54.901963%,0%);stroke-opacity:1;stroke-miterlimit:4;" d="M 146 -59 L 158 -59 " transform="matrix(1,0,0,1,4,146)"/>
<path style="fill:none;stroke-width:0.5;stroke-linecap:butt;stroke-linejoin:miter;stroke:rgb(100%,54.901963%,0%);stroke-opacity:1;stroke-miterlimit:4;" d="M 164 -65 L 164 -77 " transform="matrix(1,0,0,1,4,146)"/>
<path style="fill:none;stroke-width:0.5;stroke-linecap:butt;stroke-linejoin:miter;stroke:rgb(100%,54.901963%,0%);stroke-opacity:1;stroke-miterlimit:4;" d="M 158 -83 L 146 -83 " transform="matrix(1,0,0,1,4,146)"/>
<path style=" stroke:none;fill-rule:nonzero;fill:rgb(25.098041%,25.098041%,25.098041%);fill-opacity:1;" d="M 146.363281 75.816406 C 146.378906 75.992188 146.421875 76.128906 146.496094 76.222656 C 146.628906 76.390625 146.859375 76.476562 147.1875 76.476562 C 147.382812 76.476562 147.554688 76.433594 147.703125 76.347656 C 147.851562 76.261719 147.925781 76.132812 147.925781 75.953125 C 147.925781 75.820312 147.867188 75.714844 147.746094 75.644531 C 147.671875 75.601562 147.519531 75.554688 147.296875 75.496094 L 146.875 75.390625 C 146.609375 75.324219 146.414062 75.25 146.285156 75.167969 C 146.058594 75.027344 145.945312 74.828125 145.945312 74.578125 C 145.945312 74.28125 146.050781 74.039062 146.265625 73.855469 C 146.480469 73.671875 146.765625 73.582031 147.128906 73.582031 C 147.601562 73.582031 147.941406 73.71875 148.152344 73.996094 C 148.28125 74.171875 148.34375 74.363281 148.34375 74.566406 L 147.84375 74.566406 C 147.835938 74.445312 147.792969 74.339844 147.71875 74.238281 C 147.597656 74.101562 147.386719 74.03125 147.085938 74.03125 C 146.886719 74.03125 146.738281 74.070312 146.636719 74.144531 C 146.53125 74.222656 146.480469 74.324219 146.480469 74.449219 C 146.480469 74.585938 146.546875 74.695312 146.683594 74.777344 C 146.761719 74.824219 146.875 74.867188 147.03125 74.90625 L 147.378906 74.988281 C 147.757812 75.082031 148.011719 75.171875 148.140625 75.257812 C 148.34375 75.390625 148.445312 75.605469 148.445312 75.894531 C 148.445312 76.171875 148.339844 76.414062 148.128906 76.617188 C 147.917969 76.820312 147.59375 76.921875 147.160156 76.921875 C 146.695312 76.921875 146.363281 76.816406 146.167969 76.601562 C 145.976562 76.390625 145.871094 76.128906 145.859375 75.816406 Z M 149.050781 73.675781 L 149.585938 73.675781 L 149.585938 76.800781 L 149.050781 76.800781 Z M 149.050781 72.496094 L 149.585938 72.496094 L 149.585938 73.09375 L 149.050781 73.09375 Z M 151.488281 73.605469 C 151.734375 73.605469 151.949219 73.667969 152.136719 73.789062 C 152.234375 73.855469 152.335938 73.957031 152.441406 74.089844 L 152.441406 73.691406 L 152.925781 73.691406 L 152.925781 76.546875 C 152.925781 76.945312 152.867188 77.257812 152.75 77.488281 C 152.53125 77.914062 152.117188 78.128906 151.511719 78.128906 C 151.171875 78.128906 150.886719 78.050781 150.660156 77.902344 C 150.429688 77.75 150.300781 77.511719 150.269531 77.191406 L 150.808594 77.191406 C 150.832031 77.332031 150.882812 77.441406 150.960938 77.515625 C 151.078125 77.632812 151.265625 77.691406 151.523438 77.691406 C 151.925781 77.691406 152.191406 77.550781 152.316406 77.261719 C 152.390625 77.09375 152.425781 76.796875 152.417969 76.363281 C 152.3125 76.523438 152.1875 76.644531 152.039062 76.722656 C 151.890625 76.800781 151.691406 76.839844 151.449219 76.839844 C 151.109375 76.839844 150.8125 76.71875 150.558594 76.476562 C 150.300781 76.234375 150.175781 75.835938 150.175781 75.28125 C 150.175781 74.753906 150.304688 74.34375 150.558594 74.050781 C 150.816406 73.753906 151.128906 73.605469 151.488281 73.605469 Z M 152.441406 75.21875 C 152.441406 74.832031 152.359375 74.542969 152.199219 74.355469 C 152.039062 74.167969 151.835938 74.074219 151.585938 74.074219 C 151.214844 74.074219 150.960938 74.246094 150.824219 74.59375 C 150.753906 74.78125 150.714844 75.023438 150.714844 75.324219 C 150.714844 75.675781 150.789062 75.945312 150.933594 76.132812 C 151.074219 76.316406 151.269531 76.410156 151.511719 76.410156 C 151.890625 76.410156 152.15625 76.238281 152.308594 75.894531 C 152.394531 75.703125 152.441406 75.476562 152.441406 75.21875 Z M 153.722656 73.664062 L 154.242188 73.664062 L 154.242188 74.109375 C 154.367188 73.953125 154.484375 73.839844 154.585938 73.769531 C 154.757812 73.652344 154.953125 73.59375 155.175781 73.59375 C 155.425781 73.59375 155.625 73.652344 155.78125 73.777344 C 155.867188 73.847656 155.945312 73.949219 156.015625 74.089844 C 156.132812 73.921875 156.269531 73.796875 156.425781 73.714844 C 156.585938 73.632812 156.761719 73.59375 156.960938 73.59375 C 157.382812 73.59375 157.667969 73.746094 157.820312 74.050781 C 157.902344 74.214844 157.945312 74.433594 157.945312 74.710938 L 157.945312 76.800781 L 157.398438 76.800781 L 157.398438 74.621094 C 157.398438 74.410156 157.34375 74.269531 157.238281 74.191406 C 157.132812 74.113281 157.007812 74.074219 156.859375 74.074219 C 156.652344 74.074219 156.472656 74.144531 156.324219 74.28125 C 156.171875 74.417969 156.097656 74.652344 156.097656 74.976562 L 156.097656 76.800781 L 155.5625 76.800781 L 155.5625 74.753906 C 155.5625 74.539062 155.539062 74.386719 155.484375 74.285156 C 155.40625 74.140625 155.257812 74.066406 155.039062 74.066406 C 154.839844 74.066406 154.65625 74.144531 154.496094 74.300781 C 154.332031 74.453125 154.25 74.730469 154.25 75.136719 L 154.25 76.800781 L 153.722656 76.800781 Z M 159.964844 76.460938 C 160.3125 76.460938 160.554688 76.328125 160.683594 76.0625 C 160.8125 75.800781 160.878906 75.503906 160.878906 75.179688 C 160.878906 74.886719 160.832031 74.648438 160.738281 74.464844 C 160.589844 74.175781 160.332031 74.03125 159.96875 74.03125 C 159.648438 74.03125 159.414062 74.15625 159.265625 74.402344 C 159.121094 74.648438 159.046875 74.945312 159.046875 75.292969 C 159.046875 75.625 159.121094 75.902344 159.265625 76.128906 C 159.414062 76.351562 159.644531 76.460938 159.964844 76.460938 Z M 159.984375 73.574219 C 160.386719 73.574219 160.730469 73.707031 161.011719 73.976562 C 161.289062 74.246094 161.429688 74.644531 161.429688 75.167969 C 161.429688 75.671875 161.304688 76.089844 161.058594 76.417969 C 160.8125 76.75 160.433594 76.914062 159.914062 76.914062 C 159.480469 76.914062 159.140625 76.769531 158.886719 76.476562 C 158.632812 76.183594 158.503906 75.792969 158.503906 75.300781 C 158.503906 74.773438 158.636719 74.355469 158.90625 74.042969 C 159.175781 73.730469 159.535156 73.574219 159.984375 73.574219 Z M 162.054688 73.675781 L 162.589844 73.675781 L 162.589844 76.800781 L 162.054688 76.800781 Z M 162.054688 72.496094 L 162.589844 72.496094 L 162.589844 73.09375 L 162.054688 73.09375 Z M 163.71875 75.269531 C 163.71875 75.605469 163.792969 75.886719 163.933594 76.113281 C 164.078125 76.339844 164.304688 76.453125 164.621094 76.453125 C 164.863281 76.453125 165.066406 76.347656 165.222656 76.136719 C 165.378906 75.925781 165.457031 75.625 165.457031 75.234375 C 165.457031 74.835938 165.375 74.542969 165.214844 74.351562 C 165.054688 74.160156 164.851562 74.066406 164.613281 74.066406 C 164.347656 74.066406 164.132812 74.167969 163.96875 74.371094 C 163.804688 74.574219 163.71875 74.875 163.71875 75.269531 Z M 164.515625 73.605469 C 164.753906 73.605469 164.957031 73.660156 165.117188 73.761719 C 165.210938 73.820312 165.320312 73.921875 165.4375 74.066406 L 165.4375 72.480469 L 165.945312 72.480469 L 165.945312 76.800781 L 165.46875 76.800781 L 165.46875 76.363281 C 165.347656 76.558594 165.203125 76.699219 165.03125 76.785156 C 164.863281 76.871094 164.671875 76.910156 164.457031 76.910156 C 164.105469 76.910156 163.804688 76.765625 163.546875 76.472656 C 163.292969 76.175781 163.164062 75.785156 163.164062 75.296875 C 163.164062 74.839844 163.28125 74.445312 163.515625 74.109375 C 163.75 73.773438 164.082031 73.605469 164.515625 73.605469 Z M 145.664062 72.179688 "/>
<path style="fill:none;stroke-width:1;stroke-linecap:butt;stroke-linejoin:miter;stroke:rgb(25.098041%,25.098041%,25.098041%);stroke-opacity:1;stroke-miterlimit:4;" d="M 97.109375 -71 C 108.074219 -71 122.601562 -71 133.953125 -71 " transform="matrix(1,0,0,1,4,146)"/>
<path style="fill-rule:nonzero;fill:rgb(89.803922%,89.803922%,89.803922%);fill-opacity:1;stroke-width:0.5;stroke-linecap:butt;stroke-linejoin:miter;stroke:rgb(49.803922%,49.803922%,49.803922%);stroke-opacity:1;stroke-miterlimit:4;" d="M 22 -11 C 22 -4.925781 17.074219 0 11 0 C 4.925781 0 0 -4.925781 0 -11 C 0 -17.074219 4.925781 -22 11 -22 C 17.074219 -22 22 -17.074219 22 -11 Z M 22 -11 " transform="matrix(1,0,0,1,4,146)"/>
<path style=" stroke:none;fill-rule:nonzero;fill:rgb(25.098041%,25.098041%,25.098041%);fill-opacity:1;" d="M 7.585938 134.121094 L 7.945312 134.121094 L 7.945312 136.203125 L 7.585938 136.203125 Z M 7.585938 133.335938 L 7.945312 133.335938 L 7.945312 133.734375 L 7.585938 133.734375 Z M 8.476562 134.109375 L 8.8125 134.109375 L 8.8125 134.40625 C 8.910156 134.285156 9.015625 134.199219 9.125 134.144531 C 9.234375 134.089844 9.359375 134.0625 9.492188 134.0625 C 9.789062 134.0625 9.992188 134.167969 10.09375 134.375 C 10.152344 134.488281 10.179688 134.648438 10.179688 134.859375 L 10.179688 136.203125 L 9.824219 136.203125 L 9.824219 134.882812 C 9.824219 134.757812 9.804688 134.65625 9.765625 134.578125 C 9.703125 134.445312 9.59375 134.382812 9.429688 134.382812 C 9.34375 134.382812 9.277344 134.390625 9.222656 134.40625 C 9.125 134.433594 9.042969 134.492188 8.96875 134.578125 C 8.910156 134.648438 8.871094 134.71875 8.855469 134.792969 C 8.835938 134.867188 8.828125 134.96875 8.828125 135.109375 L 8.828125 136.203125 L 8.476562 136.203125 Z M 10.769531 133.527344 L 11.125 133.527344 L 11.125 134.109375 L 11.457031 134.109375 L 11.457031 134.398438 L 11.125 134.398438 L 11.125 135.765625 C 11.125 135.835938 11.148438 135.886719 11.199219 135.910156 C 11.226562 135.925781 11.273438 135.929688 11.335938 135.929688 C 11.351562 135.929688 11.371094 135.929688 11.390625 135.929688 C 11.410156 135.929688 11.433594 135.929688 11.457031 135.925781 L 11.457031 136.203125 C 11.417969 136.214844 11.375 136.222656 11.332031 136.226562 C 11.289062 136.234375 11.242188 136.234375 11.191406 136.234375 C 11.027344 136.234375 10.917969 136.195312 10.855469 136.109375 C 10.796875 136.027344 10.769531 135.917969 10.769531 135.78125 L 10.769531 134.398438 L 10.488281 134.398438 L 10.488281 134.109375 L 10.769531 134.109375 Z M 12.683594 134.0625 C 12.832031 134.0625 12.976562 134.097656 13.117188 134.167969 C 13.253906 134.238281 13.359375 134.328125 13.433594 134.4375 C 13.503906 134.542969 13.550781 134.667969 13.574219 134.808594 C 13.59375 134.90625 13.605469 135.058594 13.605469 135.269531 L 12.070312 135.269531 C 12.078125 135.480469 12.128906 135.652344 12.222656 135.78125 C 12.316406 135.910156 12.460938 135.972656 12.65625 135.972656 C 12.839844 135.972656 12.988281 135.914062 13.097656 135.789062 C 13.160156 135.71875 13.203125 135.640625 13.230469 135.546875 L 13.578125 135.546875 C 13.566406 135.625 13.535156 135.710938 13.484375 135.804688 C 13.433594 135.898438 13.375 135.976562 13.3125 136.035156 C 13.207031 136.140625 13.074219 136.210938 12.914062 136.246094 C 12.832031 136.265625 12.734375 136.277344 12.628906 136.277344 C 12.367188 136.277344 12.148438 136.183594 11.96875 135.992188 C 11.785156 135.804688 11.695312 135.539062 11.695312 135.195312 C 11.695312 134.859375 11.785156 134.589844 11.96875 134.378906 C 12.152344 134.167969 12.390625 134.0625 12.683594 134.0625 Z M 13.242188 134.992188 C 13.230469 134.839844 13.195312 134.714844 13.144531 134.625 C 13.046875 134.457031 12.886719 134.371094 12.664062 134.371094 C 12.5 134.371094 12.367188 134.429688 12.257812 134.546875 C 12.148438 134.664062 12.089844 134.8125 12.082031 134.992188 Z M 14.042969 134.109375 L 14.378906 134.109375 L 14.378906 134.472656 C 14.40625 134.402344 14.472656 134.316406 14.582031 134.214844 C 14.6875 134.113281 14.808594 134.0625 14.949219 134.0625 C 14.957031 134.0625 14.964844 134.066406 14.980469 134.066406 C 14.996094 134.066406 15.023438 134.070312 15.0625 134.074219 L 15.0625 134.445312 C 15.042969 134.441406 15.023438 134.4375 15.003906 134.4375 C 14.988281 134.4375 14.96875 134.4375 14.949219 134.4375 C 14.769531 134.4375 14.632812 134.492188 14.539062 134.605469 C 14.445312 134.71875 14.394531 134.851562 14.394531 135 L 14.394531 136.203125 L 14.042969 136.203125 Z M 16.171875 134.050781 C 16.410156 134.050781 16.601562 134.109375 16.75 134.222656 C 16.898438 134.335938 16.984375 134.535156 17.015625 134.8125 L 16.671875 134.8125 C 16.652344 134.683594 16.605469 134.578125 16.53125 134.492188 C 16.457031 134.40625 16.335938 134.367188 16.171875 134.367188 C 15.949219 134.367188 15.789062 134.476562 15.695312 134.695312 C 15.632812 134.835938 15.601562 135.011719 15.601562 135.21875 C 15.601562 135.429688 15.644531 135.605469 15.734375 135.75 C 15.820312 135.890625 15.960938 135.960938 16.148438 135.960938 C 16.296875 135.960938 16.410156 135.917969 16.496094 135.828125 C 16.582031 135.738281 16.640625 135.617188 16.671875 135.460938 L 17.015625 135.460938 C 16.976562 135.738281 16.878906 135.941406 16.722656 136.070312 C 16.566406 136.199219 16.367188 136.265625 16.125 136.265625 C 15.851562 136.265625 15.632812 136.164062 15.46875 135.964844 C 15.304688 135.765625 15.226562 135.515625 15.226562 135.214844 C 15.226562 134.847656 15.3125 134.5625 15.492188 134.359375 C 15.671875 134.152344 15.898438 134.050781 16.171875 134.050781 Z M 18.238281 134.0625 C 18.386719 134.0625 18.53125 134.097656 18.671875 134.167969 C 18.808594 134.238281 18.914062 134.328125 18.988281 134.4375 C 19.058594 134.542969 19.105469 134.667969 19.128906 134.808594 C 19.148438 134.90625 19.160156 135.058594 19.160156 135.269531 L 17.625 135.269531 C 17.632812 135.480469 17.683594 135.652344 17.777344 135.78125 C 17.871094 135.910156 18.015625 135.972656 18.210938 135.972656 C 18.394531 135.972656 18.542969 135.914062 18.652344 135.789062 C 18.714844 135.71875 18.757812 135.640625 18.785156 135.546875 L 19.132812 135.546875 C 19.121094 135.625 19.089844 135.710938 19.039062 135.804688 C 18.988281 135.898438 18.929688 135.976562 18.867188 136.035156 C 18.761719 136.140625 18.628906 136.210938 18.46875 136.246094 C 18.386719 136.265625 18.289062 136.277344 18.183594 136.277344 C 17.921875 136.277344 17.703125 136.183594 17.523438 135.992188 C 17.339844 135.804688 17.25 135.539062 17.25 135.195312 C 17.25 134.859375 17.339844 134.589844 17.523438 134.378906 C 17.707031 134.167969 17.945312 134.0625 18.238281 134.0625 Z M 18.796875 134.992188 C 18.785156 134.839844 18.75 134.714844 18.699219 134.625 C 18.601562 134.457031 18.441406 134.371094 18.21875 134.371094 C 18.054688 134.371094 17.921875 134.429688 17.8125 134.546875 C 17.703125 134.664062 17.644531 134.8125 17.636719 134.992188 Z M 20.476562 135.96875 C 20.640625 135.96875 20.777344 135.898438 20.886719 135.761719 C 20.996094 135.625 21.046875 135.417969 21.046875 135.144531 C 21.046875 134.976562 21.023438 134.835938 20.976562 134.714844 C 20.886719 134.484375 20.71875 134.367188 20.476562 134.367188 C 20.234375 134.367188 20.066406 134.492188 19.976562 134.734375 C 19.929688 134.863281 19.90625 135.03125 19.90625 135.230469 C 19.90625 135.390625 19.929688 135.53125 19.976562 135.640625 C 20.066406 135.859375 20.234375 135.96875 20.476562 135.96875 Z M 19.566406 134.121094 L 19.90625 134.121094 L 19.90625 134.398438 C 19.976562 134.304688 20.054688 134.230469 20.140625 134.179688 C 20.257812 134.101562 20.398438 134.0625 20.554688 134.0625 C 20.792969 134.0625 20.996094 134.152344 21.160156 134.332031 C 21.324219 134.515625 21.40625 134.773438 21.40625 135.109375 C 21.40625 135.566406 21.289062 135.890625 21.050781 136.085938 C 20.898438 136.210938 20.722656 136.273438 20.523438 136.273438 C 20.367188 136.273438 20.234375 136.238281 20.125 136.171875 C 20.0625 136.132812 19.996094 136.0625 19.917969 135.96875 L 19.917969 137.039062 L 19.566406 137.039062 Z M 21.886719 133.527344 L 22.242188 133.527344 L 22.242188 134.109375 L 22.574219 134.109375 L 22.574219 134.398438 L 22.242188 134.398438 L 22.242188 135.765625 C 22.242188 135.835938 22.265625 135.886719 22.316406 135.910156 C 22.34375 135.925781 22.390625 135.929688 22.453125 135.929688 C 22.46875 135.929688 22.488281 135.929688 22.507812 135.929688 C 22.527344 135.929688 22.550781 135.929688 22.574219 135.925781 L 22.574219 136.203125 C 22.535156 136.214844 22.492188 136.222656 22.449219 136.226562 C 22.40625 136.234375 22.359375 136.234375 22.308594 136.234375 C 22.144531 136.234375 22.035156 136.195312 21.972656 136.109375 C 21.914062 136.027344 21.886719 135.917969 21.886719 135.78125 L 21.886719 134.398438 L 21.605469 134.398438 L 21.605469 134.109375 L 21.886719 134.109375 Z M 7.328125 133.121094 "/>
<path style="fill:none;stroke-width:0.5;stroke-linecap:butt;stroke-linejoin:miter;stroke:rgb(32.941177%,32.941177%,32.941177%);stroke-opacity:1;stroke-miterlimit:4;" d="M 19.582031 -18.355469 C 31.371094 -28.460938 52.714844 -46.757812 66.875 -58.894531 " transform="matrix(1,0,0,1,4,146)"/>
<path style="fill-rule:nonzero;fill:rgb(32.941177%,32.941177%,32.941177%);fill-opacity:1;stroke-width:0.5;stroke-linecap:butt;stroke-linejoin:miter;stroke:rgb(32.941177%,32.941177%,32.941177%);stroke-opacity:1;stroke-miterlimit:4;" d="M 68.808594 -59.691406 C 68.808594 -59.140625 68.359375 -58.691406 67.808594 -58.691406 C 67.253906 -58.691406 66.808594 -59.140625 66.808594 -59.691406 C 66.808594 -60.242188 67.253906 -60.691406 67.808594 -60.691406 C 68.359375 -60.691406 68.808594 -60.242188 68.808594 -59.691406 Z M 68.808594 -59.691406 " transform="matrix(1,0,0,1,4,146)"/>
<path style=" stroke:none;fill-rule:nonzero;fill:rgb(25.098041%,25.098041%,25.098041%);fill-opacity:1;" d="M 44.023438 97.550781 L 44.023438 97.433594 C 44.285156 97.375 44.515625 97.308594 44.726562 97.234375 C 44.933594 97.164062 45.042969 97.125 45.058594 97.125 C 45.0625 97.140625 45.066406 97.15625 45.066406 97.167969 L 45.066406 99.25 C 45.125 99.140625 45.214844 99.035156 45.332031 98.9375 C 45.542969 98.765625 45.785156 98.683594 46.058594 98.683594 C 46.394531 98.683594 46.679688 98.824219 46.914062 99.105469 C 47.152344 99.386719 47.269531 99.753906 47.269531 100.207031 C 47.269531 100.691406 47.117188 101.101562 46.808594 101.445312 C 46.5 101.789062 46.097656 101.964844 45.597656 101.964844 C 45.34375 101.964844 45.09375 101.914062 44.851562 101.8125 C 44.609375 101.710938 44.484375 101.613281 44.484375 101.511719 L 44.484375 97.898438 C 44.484375 97.765625 44.46875 97.671875 44.429688 97.617188 C 44.394531 97.5625 44.308594 97.535156 44.179688 97.535156 Z M 45.054688 101.398438 C 45.074219 101.515625 45.164062 101.601562 45.320312 101.652344 C 45.476562 101.703125 45.613281 101.730469 45.734375 101.730469 C 46.050781 101.730469 46.289062 101.609375 46.441406 101.371094 C 46.59375 101.132812 46.671875 100.84375 46.671875 100.503906 C 46.671875 100.164062 46.601562 99.851562 46.457031 99.5625 C 46.3125 99.273438 46.082031 99.128906 45.761719 99.128906 C 45.597656 99.128906 45.441406 99.179688 45.285156 99.277344 C 45.128906 99.378906 45.054688 99.503906 45.054688 99.65625 Z M 44 96.648438 "/>
<path style=" stroke:none;fill-rule:nonzero;fill:rgb(25.098041%,25.098041%,25.098041%);fill-opacity:1;" d="M 49.175781 103.175781 C 49.511719 103.175781 49.738281 102.992188 49.867188 102.625 C 49.992188 102.257812 50.054688 101.726562 50.054688 101.03125 C 50.054688 100.476562 50.015625 100.035156 49.941406 99.707031 C 49.800781 99.089844 49.535156 98.78125 49.148438 98.78125 C 48.761719 98.78125 48.496094 99.097656 48.351562 99.730469 C 48.277344 100.070312 48.238281 100.515625 48.238281 101.066406 C 48.238281 101.582031 48.277344 101.996094 48.355469 102.304688 C 48.5 102.882812 48.773438 103.175781 49.175781 103.175781 Z M 49.164062 98.597656 C 49.6875 98.597656 50.09375 98.871094 50.382812 99.421875 C 50.613281 99.867188 50.730469 100.375 50.730469 100.953125 C 50.730469 101.40625 50.660156 101.832031 50.519531 102.234375 C 50.25 102.988281 49.789062 103.367188 49.132812 103.367188 C 48.683594 103.367188 48.316406 103.160156 48.027344 102.753906 C 47.71875 102.320312 47.5625 101.726562 47.5625 100.980469 C 47.5625 100.390625 47.664062 99.886719 47.871094 99.460938 C 48.152344 98.886719 48.582031 98.597656 49.164062 98.597656 Z M 47.5 98.050781 "/>
<path style="fill:none;stroke-width:0.5;stroke-linecap:butt;stroke-linejoin:miter;stroke:rgb(54.509807%,0%,0%);stroke-opacity:1;stroke-miterlimit:4;" d="M 221.667969 -82 C 221.667969 -82 214.332031 -82 214.332031 -82 C 210.667969 -82 207 -78.332031 207 -74.667969 C 207 -74.667969 207 -67.332031 207 -67.332031 C 207 -63.667969 210.667969 -60 214.332031 -60 C 214.332031 -60 221.667969 -60 221.667969 -60 C 225.332031 -60 229 -63.667969 229 -67.332031 C 229 -67.332031 229 -74.667969 229 -74.667969 C 229 -78.332031 225.332031 -82 221.667969 -82 " transform="matrix(1,0,0,1,4,146)"/>
<path style=" stroke:none;fill-rule:nonzero;fill:rgb(25.098041%,25.098041%,25.098041%);fill-opacity:1;" d="M 223.128906 73.214844 L 223.90625 73.214844 C 223.808594 73.484375 223.585938 74.09375 223.246094 75.050781 C 222.992188 75.769531 222.777344 76.355469 222.605469 76.808594 C 222.199219 77.875 221.914062 78.527344 221.746094 78.761719 C 221.578125 78.996094 221.292969 79.113281 220.886719 79.113281 C 220.789062 79.113281 220.710938 79.109375 220.65625 79.101562 C 220.605469 79.09375 220.539062 79.078125 220.460938 79.058594 L 220.460938 78.417969 C 220.582031 78.453125 220.671875 78.472656 220.726562 78.480469 C 220.78125 78.488281 220.828125 78.492188 220.871094 78.492188 C 221 78.492188 221.097656 78.46875 221.15625 78.429688 C 221.21875 78.386719 221.269531 78.332031 221.3125 78.269531 C 221.324219 78.25 221.371094 78.140625 221.453125 77.949219 C 221.535156 77.757812 221.59375 77.613281 221.628906 77.519531 L 220.082031 73.214844 L 220.878906 73.214844 L 222 76.621094 Z M 220 71.238281 "/>
<path style="fill:none;stroke-width:1;stroke-linecap:butt;stroke-linejoin:miter;stroke:rgb(25.098041%,25.098041%,25.098041%);stroke-opacity:1;stroke-miterlimit:4;" d="M 170.035156 -71 C 180.230469 -71 192.839844 -71 202.574219 -71 " transform="matrix(1,0,0,1,4,146)"/>
<path style="fill-rule:nonzero;fill:rgb(25.098041%,25.098041%,25.098041%);fill-opacity:1;stroke-width:1;stroke-linecap:butt;stroke-linejoin:miter;stroke:rgb(25.098041%,25.098041%,25.098041%);stroke-opacity:1;stroke-miterlimit:4;" d="M 206.824219 -71 C 206.824219 -69.894531 205.925781 -69 204.824219 -69 C 203.71875 -69 202.824219 -69.894531 202.824219 -71 C 202.824219 -72.105469 203.71875 -73 204.824219 -73 C 205.925781 -73 206.824219 -72.105469 206.824219 -71 Z M 206.824219 -71 " transform="matrix(1,0,0,1,4,146)"/>
</g>
</svg>
