<?xml version="1.0" encoding="UTF-8"?>
<svg xmlns="http://www.w3.org/2000/svg" xmlns:xlink="http://www.w3.org/1999/xlink" width="1070pt" height="405pt" viewBox="0 0 1070 405" version="1.1">
<g id="surface1">
<path style="fill:none;stroke-width:5;stroke-linecap:butt;stroke-linejoin:miter;stroke:rgb(100%,33.333334%,0%);stroke-opacity:1;stroke-dasharray:5,2;stroke-miterlimit:4;" d="M 225 -54 C 225 -24.175781 200.824219 0 171 0 C 141.175781 0 117 -24.175781 117 -54 C 117 -83.824219 141.175781 -108 171 -108 C 200.824219 -108 225 -83.824219 225 -54 Z M 225 -54 " transform="matrix(1,0,0,1,4,401)"/>
<path style=" stroke:none;fill-rule:nonzero;fill:rgb(25.098041%,25.098041%,25.098041%);fill-opacity:1;" d="M 152.46875 340.15625 L 159.4375 340.15625 L 159.4375 341.386719 L 153.828125 341.386719 L 153.828125 344.4375 L 158.757812 344.4375 L 158.757812 345.632812 L 153.828125 345.632812 L 153.828125 350.199219 L 152.46875 350.199219 Z M 161.667969 348.25 C 161.667969 348.605469 161.800781 348.886719 162.058594 349.089844 C 162.320312 349.296875 162.628906 349.398438 162.980469 349.398438 C 163.414062 349.398438 163.835938 349.300781 164.238281 349.097656 C 164.921875 348.765625 165.265625 348.222656 165.265625 347.464844 L 165.265625 346.472656 C 165.113281 346.570312 164.921875 346.648438 164.683594 346.714844 C 164.449219 346.777344 164.214844 346.824219 163.988281 346.847656 L 163.242188 346.945312 C 162.796875 347.003906 162.460938 347.097656 162.238281 347.226562 C 161.859375 347.441406 161.667969 347.78125 161.667969 348.25 Z M 164.652344 345.761719 C 164.933594 345.726562 165.121094 345.609375 165.21875 345.40625 C 165.273438 345.296875 165.300781 345.140625 165.300781 344.933594 C 165.300781 344.515625 165.152344 344.210938 164.851562 344.023438 C 164.554688 343.832031 164.125 343.738281 163.570312 343.738281 C 162.925781 343.738281 162.472656 343.914062 162.203125 344.257812 C 162.050781 344.449219 161.953125 344.734375 161.910156 345.113281 L 160.761719 345.113281 C 160.785156 344.210938 161.078125 343.582031 161.640625 343.230469 C 162.203125 342.878906 162.855469 342.699219 163.597656 342.699219 C 164.457031 342.699219 165.160156 342.863281 165.695312 343.191406 C 166.230469 343.519531 166.496094 344.03125 166.496094 344.722656 L 166.496094 348.941406 C 166.496094 349.070312 166.523438 349.171875 166.574219 349.25 C 166.628906 349.328125 166.738281 349.363281 166.90625 349.363281 C 166.960938 349.363281 167.023438 349.363281 167.089844 349.355469 C 167.160156 349.347656 167.230469 349.339844 167.308594 349.324219 L 167.308594 350.234375 C 167.117188 350.289062 166.972656 350.324219 166.871094 350.335938 C 166.769531 350.347656 166.636719 350.355469 166.460938 350.355469 C 166.039062 350.355469 165.730469 350.207031 165.539062 349.90625 C 165.4375 349.746094 165.367188 349.519531 165.328125 349.230469 C 165.078125 349.558594 164.714844 349.839844 164.246094 350.082031 C 163.777344 350.324219 163.261719 350.445312 162.695312 350.445312 C 162.015625 350.445312 161.460938 350.238281 161.03125 349.828125 C 160.601562 349.414062 160.386719 348.898438 160.386719 348.277344 C 160.386719 347.597656 160.597656 347.074219 161.019531 346.699219 C 161.445312 346.324219 162 346.09375 162.6875 346.007812 Z M 171.335938 342.667969 C 172.160156 342.667969 172.832031 342.867188 173.347656 343.269531 C 173.867188 343.667969 174.175781 344.359375 174.28125 345.339844 L 173.085938 345.339844 C 173.011719 344.886719 172.84375 344.511719 172.585938 344.214844 C 172.328125 343.917969 171.910156 343.765625 171.335938 343.765625 C 170.550781 343.765625 169.992188 344.148438 169.652344 344.914062 C 169.433594 345.410156 169.324219 346.023438 169.324219 346.753906 C 169.324219 347.488281 169.480469 348.105469 169.789062 348.605469 C 170.101562 349.105469 170.585938 349.359375 171.253906 349.359375 C 171.765625 349.359375 172.167969 349.203125 172.464844 348.890625 C 172.765625 348.578125 172.972656 348.152344 173.085938 347.609375 L 174.28125 347.609375 C 174.144531 348.578125 173.804688 349.289062 173.257812 349.738281 C 172.710938 350.1875 172.007812 350.410156 171.15625 350.410156 C 170.199219 350.410156 169.4375 350.0625 168.867188 349.363281 C 168.296875 348.664062 168.011719 347.789062 168.011719 346.738281 C 168.011719 345.453125 168.324219 344.453125 168.949219 343.738281 C 169.574219 343.023438 170.367188 342.667969 171.335938 342.667969 Z M 175.757812 340.832031 L 177 340.832031 L 177 342.878906 L 178.171875 342.878906 L 178.171875 343.882812 L 177 343.882812 L 177 348.660156 C 177 348.917969 177.089844 349.085938 177.261719 349.175781 C 177.359375 349.222656 177.515625 349.25 177.742188 349.25 C 177.800781 349.25 177.863281 349.246094 177.929688 349.246094 C 178 349.242188 178.078125 349.238281 178.171875 349.230469 L 178.171875 350.199219 C 178.03125 350.238281 177.882812 350.269531 177.730469 350.289062 C 177.578125 350.308594 177.414062 350.316406 177.234375 350.316406 C 176.660156 350.316406 176.269531 350.167969 176.066406 349.875 C 175.859375 349.582031 175.757812 349.199219 175.757812 348.730469 L 175.757812 343.882812 L 174.765625 343.882812 L 174.765625 342.878906 L 175.757812 342.878906 Z M 182.308594 349.40625 C 183.125 349.40625 183.683594 349.097656 183.984375 348.480469 C 184.289062 347.863281 184.441406 347.175781 184.441406 346.417969 C 184.441406 345.734375 184.332031 345.179688 184.113281 344.75 C 183.765625 344.074219 183.167969 343.738281 182.320312 343.738281 C 181.570312 343.738281 181.023438 344.027344 180.679688 344.601562 C 180.339844 345.175781 180.167969 345.867188 180.167969 346.679688 C 180.167969 347.457031 180.339844 348.105469 180.679688 348.628906 C 181.023438 349.148438 181.566406 349.40625 182.308594 349.40625 Z M 182.355469 342.667969 C 183.296875 342.667969 184.097656 342.980469 184.75 343.609375 C 185.398438 344.238281 185.726562 345.164062 185.726562 346.386719 C 185.726562 347.566406 185.4375 348.539062 184.863281 349.308594 C 184.289062 350.082031 183.398438 350.464844 182.191406 350.464844 C 181.183594 350.464844 180.382812 350.125 179.792969 349.445312 C 179.199219 348.761719 178.902344 347.847656 178.902344 346.699219 C 178.902344 345.46875 179.214844 344.488281 179.839844 343.761719 C 180.464844 343.03125 181.304688 342.667969 182.355469 342.667969 Z M 187.226562 342.878906 L 188.394531 342.878906 L 188.394531 344.144531 C 188.492188 343.898438 188.726562 343.597656 189.097656 343.242188 C 189.472656 342.890625 189.902344 342.714844 190.390625 342.714844 C 190.414062 342.714844 190.453125 342.714844 190.507812 342.722656 C 190.5625 342.726562 190.65625 342.734375 190.789062 342.746094 L 190.789062 344.046875 C 190.714844 344.035156 190.648438 344.023438 190.585938 344.019531 C 190.523438 344.015625 190.457031 344.011719 190.382812 344.011719 C 189.765625 344.011719 189.289062 344.210938 188.953125 344.609375 C 188.621094 345.007812 188.457031 345.46875 188.457031 345.988281 L 188.457031 350.199219 L 187.226562 350.199219 Z M 151.273438 339.417969 "/>
<path style=" stroke:none;fill-rule:nonzero;fill:rgb(25.098041%,25.098041%,25.098041%);fill-opacity:1;" d="M 192.28125 346.070312 L 192.28125 345.125 C 193.167969 345.039062 193.789062 344.894531 194.140625 344.691406 C 194.492188 344.488281 194.753906 344.007812 194.925781 343.25 L 195.898438 343.25 L 195.898438 353 L 194.585938 353 L 194.585938 346.070312 Z M 190.941406 342.21875 "/>
<path style="fill:none;stroke-width:1;stroke-linecap:butt;stroke-linejoin:miter;stroke:rgb(100%,33.333334%,0%);stroke-opacity:1;stroke-miterlimit:4;" d="M 72 -216 L 0 -216 L 0 -144 L 72 -144 Z M 72 -216 " transform="matrix(1,0,0,1,4,401)"/>
<path style=" stroke:none;fill-rule:nonzero;fill:rgb(25.098041%,25.098041%,25.098041%);fill-opacity:1;" d="M 33.371094 224.199219 L 31.730469 224.199219 L 35.324219 219.050781 L 31.953125 214.15625 L 33.65625 214.15625 L 36.21875 218 L 38.761719 214.15625 L 40.382812 214.15625 L 37.011719 219.050781 L 40.546875 224.199219 L 38.859375 224.199219 L 36.152344 220.070312 Z M 31.441406 213.417969 "/>
<path style=" stroke:none;fill-rule:nonzero;fill:rgb(25.098041%,25.098041%,25.098041%);fill-opacity:1;" d="M 42.117188 220.070312 L 42.117188 219.125 C 43.003906 219.039062 43.625 218.894531 43.976562 218.691406 C 44.328125 218.488281 44.589844 218.007812 44.761719 217.25 L 45.734375 217.25 L 45.734375 227 L 44.421875 227 L 44.421875 220.070312 Z M 40.777344 216.21875 "/>
<path style="fill:none;stroke-width:1;stroke-linecap:butt;stroke-linejoin:miter;stroke:rgb(100%,33.333334%,0%);stroke-opacity:1;stroke-dasharray:5,2;stroke-miterlimit:4;" d="M 131.226562 -91.121094 C 115.039062 -106.230469 96.277344 -123.742188 79.707031 -139.207031 " transform="matrix(1,0,0,1,4,401)"/>
<path style="fill-rule:nonzero;fill:rgb(100%,33.333334%,0%);fill-opacity:1;stroke-width:1;stroke-linecap:butt;stroke-linejoin:miter;stroke:rgb(100%,33.333334%,0%);stroke-opacity:1;stroke-miterlimit:4;" d="M 77.1875 -136.769531 L 72.265625 -146.152344 L 81.964844 -141.886719 Z M 77.1875 -136.769531 " transform="matrix(1,0,0,1,4,401)"/>
<path style="fill:none;stroke-width:1;stroke-linecap:butt;stroke-linejoin:miter;stroke:rgb(100%,33.333334%,0%);stroke-opacity:1;stroke-miterlimit:4;" d="M 162 -216 L 90 -216 L 90 -144 L 162 -144 Z M 162 -216 " transform="matrix(1,0,0,1,4,401)"/>
<path style=" stroke:none;fill-rule:nonzero;fill:rgb(25.098041%,25.098041%,25.098041%);fill-opacity:1;" d="M 123.371094 224.199219 L 121.730469 224.199219 L 125.324219 219.050781 L 121.953125 214.15625 L 123.65625 214.15625 L 126.21875 218 L 128.761719 214.15625 L 130.382812 214.15625 L 127.011719 219.050781 L 130.546875 224.199219 L 128.859375 224.199219 L 126.152344 220.070312 Z M 121.441406 213.417969 "/>
<path style=" stroke:none;fill-rule:nonzero;fill:rgb(25.098041%,25.098041%,25.098041%);fill-opacity:1;" d="M 131.214844 227 C 131.261719 226.15625 131.433594 225.421875 131.738281 224.796875 C 132.042969 224.171875 132.632812 223.605469 133.511719 223.097656 L 134.824219 222.335938 C 135.410156 221.996094 135.824219 221.703125 136.0625 221.460938 C 136.433594 221.085938 136.621094 220.652344 136.621094 220.164062 C 136.621094 219.59375 136.449219 219.140625 136.109375 218.808594 C 135.769531 218.472656 135.3125 218.304688 134.742188 218.304688 C 133.898438 218.304688 133.316406 218.625 132.992188 219.261719 C 132.820312 219.601562 132.722656 220.078125 132.707031 220.683594 L 131.453125 220.683594 C 131.46875 219.832031 131.625 219.136719 131.925781 218.597656 C 132.457031 217.648438 133.398438 217.175781 134.75 217.175781 C 135.871094 217.175781 136.6875 217.480469 137.207031 218.085938 C 137.722656 218.691406 137.980469 219.367188 137.980469 220.109375 C 137.980469 220.894531 137.707031 221.5625 137.15625 222.117188 C 136.835938 222.441406 136.265625 222.835938 135.441406 223.296875 L 134.503906 223.8125 C 134.058594 224.058594 133.707031 224.296875 133.449219 224.519531 C 132.996094 224.914062 132.707031 225.355469 132.589844 225.835938 L 137.933594 225.835938 L 137.933594 227 Z M 130.777344 216.21875 "/>
<path style="fill:none;stroke-width:1;stroke-linecap:butt;stroke-linejoin:miter;stroke:rgb(100%,33.333334%,0%);stroke-opacity:1;stroke-miterlimit:4;" d="M 152.828125 -104.886719 C 149.386719 -114.515625 145.808594 -124.542969 142.425781 -134.011719 " transform="matrix(1,0,0,1,4,401)"/>
<path style="fill-rule:nonzero;fill:rgb(100%,33.333334%,0%);fill-opacity:1;stroke-width:1;stroke-linecap:butt;stroke-linejoin:miter;stroke:rgb(100%,33.333334%,0%);stroke-opacity:1;stroke-miterlimit:4;" d="M 139.054688 -133.042969 L 138.984375 -143.640625 L 145.644531 -135.398438 Z M 139.054688 -133.042969 " transform="matrix(1,0,0,1,4,401)"/>
<path style="fill:none;stroke-width:1;stroke-linecap:butt;stroke-linejoin:miter;stroke:rgb(100%,33.333334%,0%);stroke-opacity:1;stroke-miterlimit:4;" d="M 252 -216 L 180 -216 L 180 -144 L 252 -144 Z M 252 -216 " transform="matrix(1,0,0,1,4,401)"/>
<path style=" stroke:none;fill-rule:nonzero;fill:rgb(25.098041%,25.098041%,25.098041%);fill-opacity:1;" d="M 213.371094 224.199219 L 211.730469 224.199219 L 215.324219 219.050781 L 211.953125 214.15625 L 213.65625 214.15625 L 216.21875 218 L 218.761719 214.15625 L 220.382812 214.15625 L 217.011719 219.050781 L 220.546875 224.199219 L 218.859375 224.199219 L 216.152344 220.070312 Z M 211.441406 213.417969 "/>
<path style=" stroke:none;fill-rule:nonzero;fill:rgb(25.098041%,25.098041%,25.098041%);fill-opacity:1;" d="M 224.414062 227.265625 C 223.257812 227.265625 222.417969 226.949219 221.894531 226.3125 C 221.371094 225.675781 221.113281 224.902344 221.113281 223.992188 L 222.398438 223.992188 C 222.453125 224.625 222.570312 225.085938 222.753906 225.375 C 223.074219 225.890625 223.648438 226.144531 224.480469 226.144531 C 225.128906 226.144531 225.648438 225.972656 226.042969 225.625 C 226.433594 225.28125 226.628906 224.832031 226.628906 224.285156 C 226.628906 223.609375 226.421875 223.140625 226.011719 222.871094 C 225.597656 222.601562 225.023438 222.46875 224.292969 222.46875 C 224.210938 222.46875 224.125 222.46875 224.042969 222.472656 C 223.957031 222.472656 223.871094 222.476562 223.785156 222.480469 L 223.785156 221.394531 C 223.914062 221.40625 224.019531 221.417969 224.105469 221.421875 C 224.191406 221.425781 224.285156 221.429688 224.386719 221.429688 C 224.847656 221.429688 225.226562 221.355469 225.519531 221.210938 C 226.039062 220.953125 226.300781 220.5 226.300781 219.84375 C 226.300781 219.355469 226.128906 218.980469 225.78125 218.714844 C 225.433594 218.449219 225.03125 218.320312 224.570312 218.320312 C 223.75 218.320312 223.183594 218.59375 222.871094 219.140625 C 222.695312 219.441406 222.597656 219.867188 222.574219 220.421875 L 221.359375 220.421875 C 221.359375 219.695312 221.503906 219.074219 221.796875 218.5625 C 222.296875 217.652344 223.179688 217.195312 224.441406 217.195312 C 225.441406 217.195312 226.210938 217.417969 226.757812 217.863281 C 227.304688 218.308594 227.578125 218.953125 227.578125 219.796875 C 227.578125 220.398438 227.417969 220.882812 227.09375 221.257812 C 226.894531 221.492188 226.632812 221.671875 226.316406 221.804688 C 226.832031 221.945312 227.230469 222.21875 227.519531 222.621094 C 227.808594 223.023438 227.957031 223.519531 227.957031 224.101562 C 227.957031 225.035156 227.648438 225.796875 227.03125 226.382812 C 226.417969 226.972656 225.542969 227.265625 224.414062 227.265625 Z M 220.777344 216.21875 "/>
<path style="fill:none;stroke-width:1;stroke-linecap:butt;stroke-linejoin:miter;stroke:rgb(100%,33.333334%,0%);stroke-opacity:1;stroke-miterlimit:4;" d="M 189.171875 -104.886719 C 192.613281 -114.515625 196.191406 -124.542969 199.574219 -134.011719 " transform="matrix(1,0,0,1,4,401)"/>
<path style="fill-rule:nonzero;fill:rgb(100%,33.333334%,0%);fill-opacity:1;stroke-width:1;stroke-linecap:butt;stroke-linejoin:miter;stroke:rgb(100%,33.333334%,0%);stroke-opacity:1;stroke-miterlimit:4;" d="M 196.355469 -135.398438 L 203.015625 -143.640625 L 202.945312 -133.042969 Z M 196.355469 -135.398438 " transform="matrix(1,0,0,1,4,401)"/>
<path style="fill:none;stroke-width:1;stroke-linecap:butt;stroke-linejoin:miter;stroke:rgb(100%,33.333334%,0%);stroke-opacity:1;stroke-miterlimit:4;" d="M 342 -216 L 270 -216 L 270 -144 L 342 -144 Z M 342 -216 " transform="matrix(1,0,0,1,4,401)"/>
<path style=" stroke:none;fill-rule:nonzero;fill:rgb(25.098041%,25.098041%,25.098041%);fill-opacity:1;" d="M 303.371094 224.199219 L 301.730469 224.199219 L 305.324219 219.050781 L 301.953125 214.15625 L 303.65625 214.15625 L 306.21875 218 L 308.761719 214.15625 L 310.382812 214.15625 L 307.011719 219.050781 L 310.546875 224.199219 L 308.859375 224.199219 L 306.152344 220.070312 Z M 301.441406 213.417969 "/>
<path style=" stroke:none;fill-rule:nonzero;fill:rgb(25.098041%,25.098041%,25.098041%);fill-opacity:1;" d="M 315.40625 223.535156 L 315.40625 219.097656 L 312.269531 223.535156 Z M 315.425781 227 L 315.425781 224.609375 L 311.132812 224.609375 L 311.132812 223.40625 L 315.617188 217.183594 L 316.65625 217.183594 L 316.65625 223.535156 L 318.097656 223.535156 L 318.097656 224.609375 L 316.65625 224.609375 L 316.65625 227 Z M 310.777344 216.21875 "/>
<path style="fill:none;stroke-width:1;stroke-linecap:butt;stroke-linejoin:miter;stroke:rgb(100%,33.333334%,0%);stroke-opacity:1;stroke-miterlimit:4;" d="M 210.773438 -91.121094 C 226.960938 -106.230469 245.722656 -123.742188 262.292969 -139.207031 " transform="matrix(1,0,0,1,4,401)"/>
<path style="fill-rule:nonzero;fill:rgb(100%,33.333334%,0%);fill-opacity:1;stroke-width:1;stroke-linecap:butt;stroke-linejoin:miter;stroke:rgb(100%,33.333334%,0%);stroke-opacity:1;stroke-miterlimit:4;" d="M 260.035156 -141.886719 L 269.734375 -146.152344 L 264.8125 -136.769531 Z M 260.035156 -141.886719 " transform="matrix(1,0,0,1,4,401)"/>
<path style="fill:none;stroke-width:5;stroke-linecap:butt;stroke-linejoin:miter;stroke:rgb(98.039216%,50.196081%,44.705883%);stroke-opacity:1;stroke-dasharray:5,2;stroke-miterlimit:4;" d="M 585 -54 C 585 -24.175781 560.824219 0 531 0 C 501.175781 0 477 -24.175781 477 -54 C 477 -83.824219 501.175781 -108 531 -108 C 560.824219 -108 585 -83.824219 585 -54 Z M 585 -54 " transform="matrix(1,0,0,1,4,401)"/>
<path style=" stroke:none;fill-rule:nonzero;fill:rgb(25.098041%,25.098041%,25.098041%);fill-opacity:1;" d="M 512.46875 340.15625 L 519.4375 340.15625 L 519.4375 341.386719 L 513.828125 341.386719 L 513.828125 344.4375 L 518.757812 344.4375 L 518.757812 345.632812 L 513.828125 345.632812 L 513.828125 350.199219 L 512.46875 350.199219 Z M 521.667969 348.25 C 521.667969 348.605469 521.800781 348.886719 522.058594 349.089844 C 522.320312 349.296875 522.628906 349.398438 522.980469 349.398438 C 523.414062 349.398438 523.835938 349.300781 524.238281 349.097656 C 524.921875 348.765625 525.265625 348.222656 525.265625 347.464844 L 525.265625 346.472656 C 525.113281 346.570312 524.921875 346.648438 524.683594 346.714844 C 524.449219 346.777344 524.214844 346.824219 523.988281 346.847656 L 523.242188 346.945312 C 522.796875 347.003906 522.460938 347.097656 522.238281 347.226562 C 521.859375 347.441406 521.667969 347.78125 521.667969 348.25 Z M 524.652344 345.761719 C 524.933594 345.726562 525.121094 345.609375 525.21875 345.40625 C 525.273438 345.296875 525.300781 345.140625 525.300781 344.933594 C 525.300781 344.515625 525.152344 344.210938 524.851562 344.023438 C 524.554688 343.832031 524.125 343.738281 523.570312 343.738281 C 522.925781 343.738281 522.472656 343.914062 522.203125 344.257812 C 522.050781 344.449219 521.953125 344.734375 521.910156 345.113281 L 520.761719 345.113281 C 520.785156 344.210938 521.078125 343.582031 521.640625 343.230469 C 522.203125 342.878906 522.855469 342.699219 523.597656 342.699219 C 524.457031 342.699219 525.160156 342.863281 525.695312 343.191406 C 526.230469 343.519531 526.496094 344.03125 526.496094 344.722656 L 526.496094 348.941406 C 526.496094 349.070312 526.523438 349.171875 526.574219 349.25 C 526.628906 349.328125 526.738281 349.363281 526.90625 349.363281 C 526.960938 349.363281 527.023438 349.363281 527.089844 349.355469 C 527.160156 349.347656 527.230469 349.339844 527.308594 349.324219 L 527.308594 350.234375 C 527.117188 350.289062 526.972656 350.324219 526.871094 350.335938 C 526.769531 350.347656 526.636719 350.355469 526.460938 350.355469 C 526.039062 350.355469 525.730469 350.207031 525.539062 349.90625 C 525.4375 349.746094 525.367188 349.519531 525.328125 349.230469 C 525.078125 349.558594 524.714844 349.839844 524.246094 350.082031 C 523.777344 350.324219 523.261719 350.445312 522.695312 350.445312 C 522.015625 350.445312 521.460938 350.238281 521.03125 349.828125 C 520.601562 349.414062 520.386719 348.898438 520.386719 348.277344 C 520.386719 347.597656 520.597656 347.074219 521.019531 346.699219 C 521.445312 346.324219 522 346.09375 522.6875 346.007812 Z M 531.335938 342.667969 C 532.160156 342.667969 532.832031 342.867188 533.347656 343.269531 C 533.867188 343.667969 534.175781 344.359375 534.28125 345.339844 L 533.085938 345.339844 C 533.011719 344.886719 532.84375 344.511719 532.585938 344.214844 C 532.328125 343.917969 531.910156 343.765625 531.335938 343.765625 C 530.550781 343.765625 529.992188 344.148438 529.652344 344.914062 C 529.433594 345.410156 529.324219 346.023438 529.324219 346.753906 C 529.324219 347.488281 529.480469 348.105469 529.789062 348.605469 C 530.101562 349.105469 530.585938 349.359375 531.253906 349.359375 C 531.765625 349.359375 532.167969 349.203125 532.464844 348.890625 C 532.765625 348.578125 532.972656 348.152344 533.085938 347.609375 L 534.28125 347.609375 C 534.144531 348.578125 533.804688 349.289062 533.257812 349.738281 C 532.710938 350.1875 532.007812 350.410156 531.15625 350.410156 C 530.199219 350.410156 529.4375 350.0625 528.867188 349.363281 C 528.296875 348.664062 528.011719 347.789062 528.011719 346.738281 C 528.011719 345.453125 528.324219 344.453125 528.949219 343.738281 C 529.574219 343.023438 530.367188 342.667969 531.335938 342.667969 Z M 535.757812 340.832031 L 537 340.832031 L 537 342.878906 L 538.171875 342.878906 L 538.171875 343.882812 L 537 343.882812 L 537 348.660156 C 537 348.917969 537.089844 349.085938 537.261719 349.175781 C 537.359375 349.222656 537.515625 349.25 537.742188 349.25 C 537.800781 349.25 537.863281 349.246094 537.929688 349.246094 C 538 349.242188 538.078125 349.238281 538.171875 349.230469 L 538.171875 350.199219 C 538.03125 350.238281 537.882812 350.269531 537.730469 350.289062 C 537.578125 350.308594 537.414062 350.316406 537.234375 350.316406 C 536.660156 350.316406 536.269531 350.167969 536.066406 349.875 C 535.859375 349.582031 535.757812 349.199219 535.757812 348.730469 L 535.757812 343.882812 L 534.765625 343.882812 L 534.765625 342.878906 L 535.757812 342.878906 Z M 542.308594 349.40625 C 543.125 349.40625 543.683594 349.097656 543.984375 348.480469 C 544.289062 347.863281 544.441406 347.175781 544.441406 346.417969 C 544.441406 345.734375 544.332031 345.179688 544.113281 344.75 C 543.765625 344.074219 543.167969 343.738281 542.320312 343.738281 C 541.570312 343.738281 541.023438 344.027344 540.679688 344.601562 C 540.339844 345.175781 540.167969 345.867188 540.167969 346.679688 C 540.167969 347.457031 540.339844 348.105469 540.679688 348.628906 C 541.023438 349.148438 541.566406 349.40625 542.308594 349.40625 Z M 542.355469 342.667969 C 543.296875 342.667969 544.097656 342.980469 544.75 343.609375 C 545.398438 344.238281 545.726562 345.164062 545.726562 346.386719 C 545.726562 347.566406 545.4375 348.539062 544.863281 349.308594 C 544.289062 350.082031 543.398438 350.464844 542.191406 350.464844 C 541.183594 350.464844 540.382812 350.125 539.792969 349.445312 C 539.199219 348.761719 538.902344 347.847656 538.902344 346.699219 C 538.902344 345.46875 539.214844 344.488281 539.839844 343.761719 C 540.464844 343.03125 541.304688 342.667969 542.355469 342.667969 Z M 547.226562 342.878906 L 548.394531 342.878906 L 548.394531 344.144531 C 548.492188 343.898438 548.726562 343.597656 549.097656 343.242188 C 549.472656 342.890625 549.902344 342.714844 550.390625 342.714844 C 550.414062 342.714844 550.453125 342.714844 550.507812 342.722656 C 550.5625 342.726562 550.65625 342.734375 550.789062 342.746094 L 550.789062 344.046875 C 550.714844 344.035156 550.648438 344.023438 550.585938 344.019531 C 550.523438 344.015625 550.457031 344.011719 550.382812 344.011719 C 549.765625 344.011719 549.289062 344.210938 548.953125 344.609375 C 548.621094 345.007812 548.457031 345.46875 548.457031 345.988281 L 548.457031 350.199219 L 547.226562 350.199219 Z M 511.273438 339.417969 "/>
<path style=" stroke:none;fill-rule:nonzero;fill:rgb(25.098041%,25.098041%,25.098041%);fill-opacity:1;" d="M 551.378906 353 C 551.425781 352.15625 551.597656 351.421875 551.902344 350.796875 C 552.207031 350.171875 552.796875 349.605469 553.675781 349.097656 L 554.988281 348.335938 C 555.574219 347.996094 555.988281 347.703125 556.226562 347.460938 C 556.597656 347.085938 556.785156 346.652344 556.785156 346.164062 C 556.785156 345.59375 556.613281 345.140625 556.273438 344.808594 C 555.933594 344.472656 555.476562 344.304688 554.90625 344.304688 C 554.0625 344.304688 553.480469 344.625 553.15625 345.261719 C 552.984375 345.601562 552.886719 346.078125 552.871094 346.683594 L 551.617188 346.683594 C 551.632812 345.832031 551.789062 345.136719 552.089844 344.597656 C 552.621094 343.648438 553.5625 343.175781 554.914062 343.175781 C 556.035156 343.175781 556.851562 343.480469 557.371094 344.085938 C 557.886719 344.691406 558.144531 345.367188 558.144531 346.109375 C 558.144531 346.894531 557.871094 347.5625 557.320312 348.117188 C 557 348.441406 556.429688 348.835938 555.605469 349.296875 L 554.667969 349.8125 C 554.222656 350.058594 553.871094 350.296875 553.613281 350.519531 C 553.160156 350.914062 552.871094 351.355469 552.753906 351.835938 L 558.097656 351.835938 L 558.097656 353 Z M 550.941406 342.21875 "/>
<path style="fill:none;stroke-width:1;stroke-linecap:butt;stroke-linejoin:miter;stroke:rgb(98.039216%,50.196081%,44.705883%);stroke-opacity:1;stroke-miterlimit:4;" d="M 432 -216 L 360 -216 L 360 -144 L 432 -144 Z M 432 -216 " transform="matrix(1,0,0,1,4,401)"/>
<path style=" stroke:none;fill-rule:nonzero;fill:rgb(25.098041%,25.098041%,25.098041%);fill-opacity:1;" d="M 393.371094 224.199219 L 391.730469 224.199219 L 395.324219 219.050781 L 391.953125 214.15625 L 393.65625 214.15625 L 396.21875 218 L 398.761719 214.15625 L 400.382812 214.15625 L 397.011719 219.050781 L 400.546875 224.199219 L 398.859375 224.199219 L 396.152344 220.070312 Z M 391.441406 213.417969 "/>
<path style=" stroke:none;fill-rule:nonzero;fill:rgb(25.098041%,25.098041%,25.098041%);fill-opacity:1;" d="M 402.507812 224.503906 C 402.589844 225.207031 402.914062 225.691406 403.484375 225.960938 C 403.777344 226.097656 404.113281 226.164062 404.496094 226.164062 C 405.226562 226.164062 405.765625 225.933594 406.117188 225.46875 C 406.46875 225.003906 406.644531 224.488281 406.644531 223.921875 C 406.644531 223.238281 406.433594 222.710938 406.015625 222.335938 C 405.597656 221.964844 405.101562 221.777344 404.515625 221.777344 C 404.09375 221.777344 403.730469 221.859375 403.425781 222.023438 C 403.121094 222.1875 402.863281 222.414062 402.652344 222.707031 L 401.582031 222.644531 L 402.328125 217.375 L 407.414062 217.375 L 407.414062 218.5625 L 403.253906 218.5625 L 402.835938 221.285156 C 403.0625 221.113281 403.277344 220.980469 403.484375 220.894531 C 403.847656 220.746094 404.269531 220.671875 404.75 220.671875 C 405.648438 220.671875 406.40625 220.960938 407.03125 221.539062 C 407.65625 222.117188 407.96875 222.851562 407.96875 223.738281 C 407.96875 224.664062 407.683594 225.480469 407.109375 226.1875 C 406.539062 226.894531 405.625 227.246094 404.371094 227.246094 C 403.574219 227.246094 402.871094 227.023438 402.257812 226.574219 C 401.644531 226.125 401.300781 225.433594 401.230469 224.503906 Z M 400.777344 216.21875 "/>
<path style="fill:none;stroke-width:1;stroke-linecap:butt;stroke-linejoin:miter;stroke:rgb(98.039216%,50.196081%,44.705883%);stroke-opacity:1;stroke-dasharray:5,2;stroke-miterlimit:4;" d="M 491.226562 -91.121094 C 475.039062 -106.230469 456.277344 -123.742188 439.707031 -139.207031 " transform="matrix(1,0,0,1,4,401)"/>
<path style="fill-rule:nonzero;fill:rgb(98.039216%,50.196081%,44.705883%);fill-opacity:1;stroke-width:1;stroke-linecap:butt;stroke-linejoin:miter;stroke:rgb(98.039216%,50.196081%,44.705883%);stroke-opacity:1;stroke-miterlimit:4;" d="M 437.1875 -136.769531 L 432.265625 -146.152344 L 441.964844 -141.886719 Z M 437.1875 -136.769531 " transform="matrix(1,0,0,1,4,401)"/>
<path style="fill:none;stroke-width:1;stroke-linecap:butt;stroke-linejoin:miter;stroke:rgb(98.039216%,50.196081%,44.705883%);stroke-opacity:1;stroke-miterlimit:4;" d="M 522 -216 L 450 -216 L 450 -144 L 522 -144 Z M 522 -216 " transform="matrix(1,0,0,1,4,401)"/>
<path style=" stroke:none;fill-rule:nonzero;fill:rgb(25.098041%,25.098041%,25.098041%);fill-opacity:1;" d="M 483.371094 224.199219 L 481.730469 224.199219 L 485.324219 219.050781 L 481.953125 214.15625 L 483.65625 214.15625 L 486.21875 218 L 488.761719 214.15625 L 490.382812 214.15625 L 487.011719 219.050781 L 490.546875 224.199219 L 488.859375 224.199219 L 486.152344 220.070312 Z M 481.441406 213.417969 "/>
<path style=" stroke:none;fill-rule:nonzero;fill:rgb(25.098041%,25.098041%,25.098041%);fill-opacity:1;" d="M 494.871094 217.171875 C 495.964844 217.171875 496.726562 217.453125 497.160156 218.019531 C 497.589844 218.585938 497.804688 219.171875 497.804688 219.773438 L 496.589844 219.773438 C 496.515625 219.386719 496.398438 219.085938 496.238281 218.867188 C 495.941406 218.457031 495.496094 218.25 494.894531 218.25 C 494.207031 218.25 493.65625 218.566406 493.253906 219.203125 C 492.847656 219.839844 492.621094 220.75 492.574219 221.933594 C 492.855469 221.519531 493.214844 221.210938 493.640625 221.003906 C 494.035156 220.820312 494.472656 220.730469 494.953125 220.730469 C 495.773438 220.730469 496.488281 220.992188 497.101562 221.515625 C 497.710938 222.039062 498.015625 222.824219 498.015625 223.863281 C 498.015625 224.75 497.726562 225.539062 497.148438 226.222656 C 496.570312 226.910156 495.746094 227.253906 494.675781 227.253906 C 493.757812 227.253906 492.96875 226.90625 492.300781 226.210938 C 491.636719 225.515625 491.304688 224.34375 491.304688 222.699219 C 491.304688 221.484375 491.453125 220.453125 491.746094 219.601562 C 492.316406 217.980469 493.359375 217.171875 494.871094 217.171875 Z M 494.785156 226.160156 C 495.429688 226.160156 495.914062 225.941406 496.234375 225.507812 C 496.558594 225.070312 496.71875 224.558594 496.71875 223.964844 C 496.71875 223.464844 496.574219 222.984375 496.285156 222.53125 C 496 222.078125 495.476562 221.851562 494.722656 221.851562 C 494.191406 221.851562 493.730469 222.027344 493.332031 222.378906 C 492.933594 222.730469 492.730469 223.257812 492.730469 223.964844 C 492.730469 224.585938 492.914062 225.105469 493.277344 225.527344 C 493.636719 225.949219 494.140625 226.160156 494.785156 226.160156 Z M 490.777344 216.21875 "/>
<path style="fill:none;stroke-width:1;stroke-linecap:butt;stroke-linejoin:miter;stroke:rgb(98.039216%,50.196081%,44.705883%);stroke-opacity:1;stroke-miterlimit:4;" d="M 512.828125 -104.886719 C 509.386719 -114.515625 505.808594 -124.542969 502.425781 -134.011719 " transform="matrix(1,0,0,1,4,401)"/>
<path style="fill-rule:nonzero;fill:rgb(98.039216%,50.196081%,44.705883%);fill-opacity:1;stroke-width:1;stroke-linecap:butt;stroke-linejoin:miter;stroke:rgb(98.039216%,50.196081%,44.705883%);stroke-opacity:1;stroke-miterlimit:4;" d="M 499.054688 -133.042969 L 498.984375 -143.640625 L 505.644531 -135.398438 Z M 499.054688 -133.042969 " transform="matrix(1,0,0,1,4,401)"/>
<path style="fill:none;stroke-width:1;stroke-linecap:butt;stroke-linejoin:miter;stroke:rgb(98.039216%,50.196081%,44.705883%);stroke-opacity:1;stroke-miterlimit:4;" d="M 612 -216 L 540 -216 L 540 -144 L 612 -144 Z M 612 -216 " transform="matrix(1,0,0,1,4,401)"/>
<path style=" stroke:none;fill-rule:nonzero;fill:rgb(25.098041%,25.098041%,25.098041%);fill-opacity:1;" d="M 573.371094 224.199219 L 571.730469 224.199219 L 575.324219 219.050781 L 571.953125 214.15625 L 573.65625 214.15625 L 576.21875 218 L 578.761719 214.15625 L 580.382812 214.15625 L 577.011719 219.050781 L 580.546875 224.199219 L 578.859375 224.199219 L 576.152344 220.070312 Z M 571.441406 213.417969 "/>
<path style=" stroke:none;fill-rule:nonzero;fill:rgb(25.098041%,25.098041%,25.098041%);fill-opacity:1;" d="M 588.097656 217.375 L 588.097656 218.449219 C 587.785156 218.753906 587.367188 219.285156 586.84375 220.039062 C 586.324219 220.796875 585.859375 221.613281 585.460938 222.488281 C 585.0625 223.339844 584.761719 224.117188 584.558594 224.820312 C 584.425781 225.269531 584.253906 225.996094 584.042969 227 L 582.683594 227 C 582.996094 225.132812 583.679688 223.273438 584.734375 221.421875 C 585.359375 220.335938 586.015625 219.402344 586.703125 218.613281 L 581.289062 218.613281 L 581.289062 217.375 Z M 580.777344 216.21875 "/>
<path style="fill:none;stroke-width:1;stroke-linecap:butt;stroke-linejoin:miter;stroke:rgb(98.039216%,50.196081%,44.705883%);stroke-opacity:1;stroke-miterlimit:4;" d="M 549.171875 -104.886719 C 552.613281 -114.515625 556.191406 -124.542969 559.574219 -134.011719 " transform="matrix(1,0,0,1,4,401)"/>
<path style="fill-rule:nonzero;fill:rgb(98.039216%,50.196081%,44.705883%);fill-opacity:1;stroke-width:1;stroke-linecap:butt;stroke-linejoin:miter;stroke:rgb(98.039216%,50.196081%,44.705883%);stroke-opacity:1;stroke-miterlimit:4;" d="M 556.355469 -135.398438 L 563.015625 -143.640625 L 562.945312 -133.042969 Z M 556.355469 -135.398438 " transform="matrix(1,0,0,1,4,401)"/>
<path style="fill:none;stroke-width:1;stroke-linecap:butt;stroke-linejoin:miter;stroke:rgb(98.039216%,50.196081%,44.705883%);stroke-opacity:1;stroke-miterlimit:4;" d="M 702 -216 L 630 -216 L 630 -144 L 702 -144 Z M 702 -216 " transform="matrix(1,0,0,1,4,401)"/>
<path style=" stroke:none;fill-rule:nonzero;fill:rgb(25.098041%,25.098041%,25.098041%);fill-opacity:1;" d="M 663.371094 224.199219 L 661.730469 224.199219 L 665.324219 219.050781 L 661.953125 214.15625 L 663.65625 214.15625 L 666.21875 218 L 668.761719 214.15625 L 670.382812 214.15625 L 667.011719 219.050781 L 670.546875 224.199219 L 668.859375 224.199219 L 666.152344 220.070312 Z M 661.441406 213.417969 "/>
<path style=" stroke:none;fill-rule:nonzero;fill:rgb(25.098041%,25.098041%,25.098041%);fill-opacity:1;" d="M 674.585938 221.3125 C 675.128906 221.3125 675.550781 221.160156 675.855469 220.859375 C 676.160156 220.554688 676.316406 220.195312 676.316406 219.773438 C 676.316406 219.410156 676.167969 219.074219 675.878906 218.769531 C 675.585938 218.464844 675.140625 218.3125 674.542969 218.3125 C 673.949219 218.3125 673.523438 218.464844 673.257812 218.769531 C 672.996094 219.074219 672.863281 219.433594 672.863281 219.84375 C 672.863281 220.304688 673.035156 220.664062 673.375 220.921875 C 673.714844 221.183594 674.121094 221.3125 674.585938 221.3125 Z M 674.660156 226.160156 C 675.230469 226.160156 675.703125 226.003906 676.078125 225.699219 C 676.453125 225.390625 676.644531 224.929688 676.644531 224.320312 C 676.644531 223.6875 676.449219 223.207031 676.0625 222.878906 C 675.675781 222.550781 675.175781 222.386719 674.570312 222.386719 C 673.984375 222.386719 673.503906 222.554688 673.132812 222.886719 C 672.761719 223.222656 672.574219 223.6875 672.574219 224.28125 C 672.574219 224.789062 672.746094 225.230469 673.085938 225.601562 C 673.425781 225.972656 673.949219 226.160156 674.660156 226.160156 Z M 672.910156 221.785156 C 672.566406 221.640625 672.300781 221.46875 672.109375 221.273438 C 671.75 220.90625 671.570312 220.433594 671.570312 219.851562 C 671.570312 219.121094 671.835938 218.492188 672.363281 217.96875 C 672.890625 217.445312 673.640625 217.183594 674.613281 217.183594 C 675.550781 217.183594 676.285156 217.429688 676.820312 217.925781 C 677.355469 218.421875 677.621094 218.996094 677.621094 219.65625 C 677.621094 220.269531 677.464844 220.761719 677.15625 221.140625 C 676.980469 221.355469 676.714844 221.566406 676.347656 221.769531 C 676.753906 221.957031 677.074219 222.171875 677.304688 222.414062 C 677.738281 222.867188 677.957031 223.460938 677.957031 224.191406 C 677.957031 225.050781 677.664062 225.78125 677.085938 226.382812 C 676.507812 226.980469 675.691406 227.28125 674.632812 227.28125 C 673.679688 227.28125 672.875 227.023438 672.214844 226.503906 C 671.558594 225.988281 671.230469 225.234375 671.230469 224.25 C 671.230469 223.671875 671.371094 223.171875 671.652344 222.75 C 671.933594 222.328125 672.355469 222.007812 672.910156 221.785156 Z M 670.777344 216.21875 "/>
<path style="fill:none;stroke-width:1;stroke-linecap:butt;stroke-linejoin:miter;stroke:rgb(98.039216%,50.196081%,44.705883%);stroke-opacity:1;stroke-miterlimit:4;" d="M 570.773438 -91.121094 C 586.960938 -106.230469 605.722656 -123.742188 622.292969 -139.207031 " transform="matrix(1,0,0,1,4,401)"/>
<path style="fill-rule:nonzero;fill:rgb(98.039216%,50.196081%,44.705883%);fill-opacity:1;stroke-width:1;stroke-linecap:butt;stroke-linejoin:miter;stroke:rgb(98.039216%,50.196081%,44.705883%);stroke-opacity:1;stroke-miterlimit:4;" d="M 620.035156 -141.886719 L 629.734375 -146.152344 L 624.8125 -136.769531 Z M 620.035156 -141.886719 " transform="matrix(1,0,0,1,4,401)"/>
<path style="fill:none;stroke-width:5;stroke-linecap:butt;stroke-linejoin:miter;stroke:rgb(19.607843%,80.392158%,19.607843%);stroke-opacity:1;stroke-dasharray:5,2;stroke-miterlimit:4;" d="M 945 -54 C 945 -24.175781 920.824219 0 891 0 C 861.175781 0 837 -24.175781 837 -54 C 837 -83.824219 861.175781 -108 891 -108 C 920.824219 -108 945 -83.824219 945 -54 Z M 945 -54 " transform="matrix(1,0,0,1,4,401)"/>
<path style=" stroke:none;fill-rule:nonzero;fill:rgb(25.098041%,25.098041%,25.098041%);fill-opacity:1;" d="M 872.46875 340.15625 L 879.4375 340.15625 L 879.4375 341.386719 L 873.828125 341.386719 L 873.828125 344.4375 L 878.757812 344.4375 L 878.757812 345.632812 L 873.828125 345.632812 L 873.828125 350.199219 L 872.46875 350.199219 Z M 881.667969 348.25 C 881.667969 348.605469 881.800781 348.886719 882.058594 349.089844 C 882.320312 349.296875 882.628906 349.398438 882.980469 349.398438 C 883.414062 349.398438 883.835938 349.300781 884.238281 349.097656 C 884.921875 348.765625 885.265625 348.222656 885.265625 347.464844 L 885.265625 346.472656 C 885.113281 346.570312 884.921875 346.648438 884.683594 346.714844 C 884.449219 346.777344 884.214844 346.824219 883.988281 346.847656 L 883.242188 346.945312 C 882.796875 347.003906 882.460938 347.097656 882.238281 347.226562 C 881.859375 347.441406 881.667969 347.78125 881.667969 348.25 Z M 884.652344 345.761719 C 884.933594 345.726562 885.121094 345.609375 885.21875 345.40625 C 885.273438 345.296875 885.300781 345.140625 885.300781 344.933594 C 885.300781 344.515625 885.152344 344.210938 884.851562 344.023438 C 884.554688 343.832031 884.125 343.738281 883.570312 343.738281 C 882.925781 343.738281 882.472656 343.914062 882.203125 344.257812 C 882.050781 344.449219 881.953125 344.734375 881.910156 345.113281 L 880.761719 345.113281 C 880.785156 344.210938 881.078125 343.582031 881.640625 343.230469 C 882.203125 342.878906 882.855469 342.699219 883.597656 342.699219 C 884.457031 342.699219 885.160156 342.863281 885.695312 343.191406 C 886.230469 343.519531 886.496094 344.03125 886.496094 344.722656 L 886.496094 348.941406 C 886.496094 349.070312 886.523438 349.171875 886.574219 349.25 C 886.628906 349.328125 886.738281 349.363281 886.90625 349.363281 C 886.960938 349.363281 887.023438 349.363281 887.089844 349.355469 C 887.160156 349.347656 887.230469 349.339844 887.308594 349.324219 L 887.308594 350.234375 C 887.117188 350.289062 886.972656 350.324219 886.871094 350.335938 C 886.769531 350.347656 886.636719 350.355469 886.460938 350.355469 C 886.039062 350.355469 885.730469 350.207031 885.539062 349.90625 C 885.4375 349.746094 885.367188 349.519531 885.328125 349.230469 C 885.078125 349.558594 884.714844 349.839844 884.246094 350.082031 C 883.777344 350.324219 883.261719 350.445312 882.695312 350.445312 C 882.015625 350.445312 881.460938 350.238281 881.03125 349.828125 C 880.601562 349.414062 880.386719 348.898438 880.386719 348.277344 C 880.386719 347.597656 880.597656 347.074219 881.019531 346.699219 C 881.445312 346.324219 882 346.09375 882.6875 346.007812 Z M 891.335938 342.667969 C 892.160156 342.667969 892.832031 342.867188 893.347656 343.269531 C 893.867188 343.667969 894.175781 344.359375 894.28125 345.339844 L 893.085938 345.339844 C 893.011719 344.886719 892.84375 344.511719 892.585938 344.214844 C 892.328125 343.917969 891.910156 343.765625 891.335938 343.765625 C 890.550781 343.765625 889.992188 344.148438 889.652344 344.914062 C 889.433594 345.410156 889.324219 346.023438 889.324219 346.753906 C 889.324219 347.488281 889.480469 348.105469 889.789062 348.605469 C 890.101562 349.105469 890.585938 349.359375 891.253906 349.359375 C 891.765625 349.359375 892.167969 349.203125 892.464844 348.890625 C 892.765625 348.578125 892.972656 348.152344 893.085938 347.609375 L 894.28125 347.609375 C 894.144531 348.578125 893.804688 349.289062 893.257812 349.738281 C 892.710938 350.1875 892.007812 350.410156 891.15625 350.410156 C 890.199219 350.410156 889.4375 350.0625 888.867188 349.363281 C 888.296875 348.664062 888.011719 347.789062 888.011719 346.738281 C 888.011719 345.453125 888.324219 344.453125 888.949219 343.738281 C 889.574219 343.023438 890.367188 342.667969 891.335938 342.667969 Z M 895.757812 340.832031 L 897 340.832031 L 897 342.878906 L 898.171875 342.878906 L 898.171875 343.882812 L 897 343.882812 L 897 348.660156 C 897 348.917969 897.089844 349.085938 897.261719 349.175781 C 897.359375 349.222656 897.515625 349.25 897.742188 349.25 C 897.800781 349.25 897.863281 349.246094 897.929688 349.246094 C 898 349.242188 898.078125 349.238281 898.171875 349.230469 L 898.171875 350.199219 C 898.03125 350.238281 897.882812 350.269531 897.730469 350.289062 C 897.578125 350.308594 897.414062 350.316406 897.234375 350.316406 C 896.660156 350.316406 896.269531 350.167969 896.066406 349.875 C 895.859375 349.582031 895.757812 349.199219 895.757812 348.730469 L 895.757812 343.882812 L 894.765625 343.882812 L 894.765625 342.878906 L 895.757812 342.878906 Z M 902.308594 349.40625 C 903.125 349.40625 903.683594 349.097656 903.984375 348.480469 C 904.289062 347.863281 904.441406 347.175781 904.441406 346.417969 C 904.441406 345.734375 904.332031 345.179688 904.113281 344.75 C 903.765625 344.074219 903.167969 343.738281 902.320312 343.738281 C 901.570312 343.738281 901.023438 344.027344 900.679688 344.601562 C 900.339844 345.175781 900.167969 345.867188 900.167969 346.679688 C 900.167969 347.457031 900.339844 348.105469 900.679688 348.628906 C 901.023438 349.148438 901.566406 349.40625 902.308594 349.40625 Z M 902.355469 342.667969 C 903.296875 342.667969 904.097656 342.980469 904.75 343.609375 C 905.398438 344.238281 905.726562 345.164062 905.726562 346.386719 C 905.726562 347.566406 905.4375 348.539062 904.863281 349.308594 C 904.289062 350.082031 903.398438 350.464844 902.191406 350.464844 C 901.183594 350.464844 900.382812 350.125 899.792969 349.445312 C 899.199219 348.761719 898.902344 347.847656 898.902344 346.699219 C 898.902344 345.46875 899.214844 344.488281 899.839844 343.761719 C 900.464844 343.03125 901.304688 342.667969 902.355469 342.667969 Z M 907.226562 342.878906 L 908.394531 342.878906 L 908.394531 344.144531 C 908.492188 343.898438 908.726562 343.597656 909.097656 343.242188 C 909.472656 342.890625 909.902344 342.714844 910.390625 342.714844 C 910.414062 342.714844 910.453125 342.714844 910.507812 342.722656 C 910.5625 342.726562 910.65625 342.734375 910.789062 342.746094 L 910.789062 344.046875 C 910.714844 344.035156 910.648438 344.023438 910.585938 344.019531 C 910.523438 344.015625 910.457031 344.011719 910.382812 344.011719 C 909.765625 344.011719 909.289062 344.210938 908.953125 344.609375 C 908.621094 345.007812 908.457031 345.46875 908.457031 345.988281 L 908.457031 350.199219 L 907.226562 350.199219 Z M 871.273438 339.417969 "/>
<path style=" stroke:none;fill-rule:nonzero;fill:rgb(25.098041%,25.098041%,25.098041%);fill-opacity:1;" d="M 914.578125 353.265625 C 913.421875 353.265625 912.582031 352.949219 912.058594 352.3125 C 911.535156 351.675781 911.277344 350.902344 911.277344 349.992188 L 912.5625 349.992188 C 912.617188 350.625 912.734375 351.085938 912.917969 351.375 C 913.238281 351.890625 913.8125 352.144531 914.644531 352.144531 C 915.292969 352.144531 915.8125 351.972656 916.207031 351.625 C 916.597656 351.28125 916.792969 350.832031 916.792969 350.285156 C 916.792969 349.609375 916.585938 349.140625 916.175781 348.871094 C 915.761719 348.601562 915.1875 348.46875 914.457031 348.46875 C 914.375 348.46875 914.289062 348.46875 914.207031 348.472656 C 914.121094 348.472656 914.035156 348.476562 913.949219 348.480469 L 913.949219 347.394531 C 914.078125 347.40625 914.183594 347.417969 914.269531 347.421875 C 914.355469 347.425781 914.449219 347.429688 914.550781 347.429688 C 915.011719 347.429688 915.390625 347.355469 915.683594 347.210938 C 916.203125 346.953125 916.464844 346.5 916.464844 345.84375 C 916.464844 345.355469 916.292969 344.980469 915.945312 344.714844 C 915.597656 344.449219 915.195312 344.320312 914.734375 344.320312 C 913.914062 344.320312 913.347656 344.59375 913.035156 345.140625 C 912.859375 345.441406 912.761719 345.867188 912.738281 346.421875 L 911.523438 346.421875 C 911.523438 345.695312 911.667969 345.074219 911.960938 344.5625 C 912.460938 343.652344 913.34375 343.195312 914.605469 343.195312 C 915.605469 343.195312 916.375 343.417969 916.921875 343.863281 C 917.46875 344.308594 917.742188 344.953125 917.742188 345.796875 C 917.742188 346.398438 917.582031 346.882812 917.257812 347.257812 C 917.058594 347.492188 916.796875 347.671875 916.480469 347.804688 C 916.996094 347.945312 917.394531 348.21875 917.683594 348.621094 C 917.972656 349.023438 918.121094 349.519531 918.121094 350.101562 C 918.121094 351.035156 917.8125 351.796875 917.195312 352.382812 C 916.582031 352.972656 915.707031 353.265625 914.578125 353.265625 Z M 910.941406 342.21875 "/>
<path style="fill:none;stroke-width:1;stroke-linecap:butt;stroke-linejoin:miter;stroke:rgb(19.607843%,80.392158%,19.607843%);stroke-opacity:1;stroke-miterlimit:4;" d="M 792 -216 L 720 -216 L 720 -144 L 792 -144 Z M 792 -216 " transform="matrix(1,0,0,1,4,401)"/>
<path style=" stroke:none;fill-rule:nonzero;fill:rgb(25.098041%,25.098041%,25.098041%);fill-opacity:1;" d="M 753.371094 224.199219 L 751.730469 224.199219 L 755.324219 219.050781 L 751.953125 214.15625 L 753.65625 214.15625 L 756.21875 218 L 758.761719 214.15625 L 760.382812 214.15625 L 757.011719 219.050781 L 760.546875 224.199219 L 758.859375 224.199219 L 756.152344 220.070312 Z M 751.441406 213.417969 "/>
<path style=" stroke:none;fill-rule:nonzero;fill:rgb(25.098041%,25.098041%,25.098041%);fill-opacity:1;" d="M 762.636719 224.632812 C 762.671875 225.3125 762.933594 225.78125 763.421875 226.042969 C 763.671875 226.179688 763.957031 226.25 764.269531 226.25 C 764.859375 226.25 765.359375 226.003906 765.773438 225.511719 C 766.1875 225.023438 766.484375 224.027344 766.65625 222.53125 C 766.382812 222.960938 766.042969 223.265625 765.640625 223.441406 C 765.238281 223.617188 764.804688 223.703125 764.339844 223.703125 C 763.394531 223.703125 762.648438 223.410156 762.101562 222.824219 C 761.550781 222.234375 761.277344 221.480469 761.277344 220.554688 C 761.277344 219.664062 761.546875 218.882812 762.089844 218.210938 C 762.632812 217.535156 763.433594 217.195312 764.488281 217.195312 C 765.914062 217.195312 766.898438 217.839844 767.441406 219.125 C 767.742188 219.832031 767.894531 220.714844 767.894531 221.777344 C 767.894531 222.976562 767.714844 224.039062 767.355469 224.960938 C 766.757812 226.503906 765.746094 227.273438 764.316406 227.273438 C 763.359375 227.273438 762.632812 227.023438 762.136719 226.523438 C 761.640625 226.019531 761.394531 225.390625 761.394531 224.632812 Z M 764.503906 222.625 C 764.992188 222.625 765.4375 222.464844 765.839844 222.144531 C 766.242188 221.820312 766.445312 221.261719 766.445312 220.457031 C 766.445312 219.738281 766.261719 219.203125 765.902344 218.847656 C 765.539062 218.496094 765.078125 218.320312 764.515625 218.320312 C 763.914062 218.320312 763.4375 218.519531 763.085938 218.921875 C 762.730469 219.328125 762.554688 219.867188 762.554688 220.539062 C 762.554688 221.179688 762.710938 221.683594 763.019531 222.0625 C 763.328125 222.4375 763.824219 222.625 764.503906 222.625 Z M 760.777344 216.21875 "/>
<path style="fill:none;stroke-width:1;stroke-linecap:butt;stroke-linejoin:miter;stroke:rgb(19.607843%,80.392158%,19.607843%);stroke-opacity:1;stroke-dasharray:5,2;stroke-miterlimit:4;" d="M 851.226562 -91.121094 C 835.039062 -106.230469 816.277344 -123.742188 799.707031 -139.207031 " transform="matrix(1,0,0,1,4,401)"/>
<path style="fill-rule:nonzero;fill:rgb(19.607843%,80.392158%,19.607843%);fill-opacity:1;stroke-width:1;stroke-linecap:butt;stroke-linejoin:miter;stroke:rgb(19.607843%,80.392158%,19.607843%);stroke-opacity:1;stroke-miterlimit:4;" d="M 797.1875 -136.769531 L 792.265625 -146.152344 L 801.964844 -141.886719 Z M 797.1875 -136.769531 " transform="matrix(1,0,0,1,4,401)"/>
<path style="fill:none;stroke-width:1;stroke-linecap:butt;stroke-linejoin:miter;stroke:rgb(19.607843%,80.392158%,19.607843%);stroke-opacity:1;stroke-miterlimit:4;" d="M 882 -216 L 810 -216 L 810 -144 L 882 -144 Z M 882 -216 " transform="matrix(1,0,0,1,4,401)"/>
<path style=" stroke:none;fill-rule:nonzero;fill:rgb(25.098041%,25.098041%,25.098041%);fill-opacity:1;" d="M 839.480469 224.199219 L 837.839844 224.199219 L 841.433594 219.050781 L 838.0625 214.15625 L 839.765625 214.15625 L 842.328125 218 L 844.871094 214.15625 L 846.492188 214.15625 L 843.121094 219.050781 L 846.65625 224.199219 L 844.96875 224.199219 L 842.261719 220.070312 Z M 837.550781 213.417969 "/>
<path style=" stroke:none;fill-rule:nonzero;fill:rgb(25.098041%,25.098041%,25.098041%);fill-opacity:1;" d="M 848.226562 220.070312 L 848.226562 219.125 C 849.113281 219.039062 849.734375 218.894531 850.085938 218.691406 C 850.4375 218.488281 850.699219 218.007812 850.871094 217.25 L 851.84375 217.25 L 851.84375 227 L 850.53125 227 L 850.53125 220.070312 Z M 858.460938 217.210938 C 859.726562 217.210938 860.640625 217.734375 861.207031 218.777344 C 861.644531 219.582031 861.863281 220.6875 861.863281 222.09375 C 861.863281 223.421875 861.664062 224.523438 861.269531 225.394531 C 860.695312 226.640625 859.753906 227.265625 858.453125 227.265625 C 857.277344 227.265625 856.402344 226.757812 855.828125 225.734375 C 855.347656 224.882812 855.109375 223.738281 855.109375 222.304688 C 855.109375 221.191406 855.253906 220.238281 855.539062 219.4375 C 856.078125 217.953125 857.050781 217.210938 858.460938 217.210938 Z M 858.445312 226.144531 C 859.082031 226.144531 859.589844 225.863281 859.96875 225.296875 C 860.347656 224.734375 860.539062 223.679688 860.539062 222.140625 C 860.539062 221.027344 860.398438 220.113281 860.125 219.394531 C 859.851562 218.675781 859.324219 218.320312 858.535156 218.320312 C 857.808594 218.320312 857.28125 218.660156 856.945312 219.339844 C 856.609375 220.023438 856.441406 221.023438 856.441406 222.351562 C 856.441406 223.351562 856.550781 224.152344 856.765625 224.757812 C 857.09375 225.683594 857.652344 226.144531 858.445312 226.144531 Z M 846.886719 216.21875 "/>
<path style="fill:none;stroke-width:1;stroke-linecap:butt;stroke-linejoin:miter;stroke:rgb(19.607843%,80.392158%,19.607843%);stroke-opacity:1;stroke-miterlimit:4;" d="M 872.828125 -104.886719 C 869.386719 -114.515625 865.808594 -124.542969 862.425781 -134.011719 " transform="matrix(1,0,0,1,4,401)"/>
<path style="fill-rule:nonzero;fill:rgb(19.607843%,80.392158%,19.607843%);fill-opacity:1;stroke-width:1;stroke-linecap:butt;stroke-linejoin:miter;stroke:rgb(19.607843%,80.392158%,19.607843%);stroke-opacity:1;stroke-miterlimit:4;" d="M 859.054688 -133.042969 L 858.984375 -143.640625 L 865.644531 -135.398438 Z M 859.054688 -133.042969 " transform="matrix(1,0,0,1,4,401)"/>
<path style="fill:none;stroke-width:1;stroke-linecap:butt;stroke-linejoin:miter;stroke:rgb(19.607843%,80.392158%,19.607843%);stroke-opacity:1;stroke-miterlimit:4;" d="M 972 -216 L 900 -216 L 900 -144 L 972 -144 Z M 972 -216 " transform="matrix(1,0,0,1,4,401)"/>
<path style=" stroke:none;fill-rule:nonzero;fill:rgb(25.098041%,25.098041%,25.098041%);fill-opacity:1;" d="M 929.480469 224.199219 L 927.839844 224.199219 L 931.433594 219.050781 L 928.0625 214.15625 L 929.765625 214.15625 L 932.328125 218 L 934.871094 214.15625 L 936.492188 214.15625 L 933.121094 219.050781 L 936.65625 224.199219 L 934.96875 224.199219 L 932.261719 220.070312 Z M 927.550781 213.417969 "/>
<path style=" stroke:none;fill-rule:nonzero;fill:rgb(25.098041%,25.098041%,25.098041%);fill-opacity:1;" d="M 938.226562 220.070312 L 938.226562 219.125 C 939.113281 219.039062 939.734375 218.894531 940.085938 218.691406 C 940.4375 218.488281 940.699219 218.007812 940.871094 217.25 L 941.84375 217.25 L 941.84375 227 L 940.53125 227 L 940.53125 220.070312 Z M 944.980469 220.070312 L 944.980469 219.125 C 945.867188 219.039062 946.488281 218.894531 946.839844 218.691406 C 947.191406 218.488281 947.453125 218.007812 947.625 217.25 L 948.597656 217.25 L 948.597656 227 L 947.285156 227 L 947.285156 220.070312 Z M 936.886719 216.21875 "/>
<path style="fill:none;stroke-width:1;stroke-linecap:butt;stroke-linejoin:miter;stroke:rgb(19.607843%,80.392158%,19.607843%);stroke-opacity:1;stroke-miterlimit:4;" d="M 909.171875 -104.886719 C 912.613281 -114.515625 916.191406 -124.542969 919.574219 -134.011719 " transform="matrix(1,0,0,1,4,401)"/>
<path style="fill-rule:nonzero;fill:rgb(19.607843%,80.392158%,19.607843%);fill-opacity:1;stroke-width:1;stroke-linecap:butt;stroke-linejoin:miter;stroke:rgb(19.607843%,80.392158%,19.607843%);stroke-opacity:1;stroke-miterlimit:4;" d="M 916.355469 -135.398438 L 923.015625 -143.640625 L 922.945312 -133.042969 Z M 916.355469 -135.398438 " transform="matrix(1,0,0,1,4,401)"/>
<path style="fill:none;stroke-width:1;stroke-linecap:butt;stroke-linejoin:miter;stroke:rgb(19.607843%,80.392158%,19.607843%);stroke-opacity:1;stroke-miterlimit:4;" d="M 1062 -216 L 990 -216 L 990 -144 L 1062 -144 Z M 1062 -216 " transform="matrix(1,0,0,1,4,401)"/>
<path style=" stroke:none;fill-rule:nonzero;fill:rgb(25.098041%,25.098041%,25.098041%);fill-opacity:1;" d="M 1019.480469 224.199219 L 1017.839844 224.199219 L 1021.433594 219.050781 L 1018.0625 214.15625 L 1019.765625 214.15625 L 1022.328125 218 L 1024.871094 214.15625 L 1026.492188 214.15625 L 1023.121094 219.050781 L 1026.65625 224.199219 L 1024.96875 224.199219 L 1022.261719 220.070312 Z M 1017.550781 213.417969 "/>
<path style=" stroke:none;fill-rule:nonzero;fill:rgb(25.098041%,25.098041%,25.098041%);fill-opacity:1;" d="M 1028.226562 220.070312 L 1028.226562 219.125 C 1029.113281 219.039062 1029.734375 218.894531 1030.085938 218.691406 C 1030.4375 218.488281 1030.699219 218.007812 1030.871094 217.25 L 1031.84375 217.25 L 1031.84375 227 L 1030.53125 227 L 1030.53125 220.070312 Z M 1035.109375 227 C 1035.15625 226.15625 1035.328125 225.421875 1035.632812 224.796875 C 1035.9375 224.171875 1036.527344 223.605469 1037.40625 223.097656 L 1038.71875 222.335938 C 1039.304688 221.996094 1039.71875 221.703125 1039.957031 221.460938 C 1040.328125 221.085938 1040.515625 220.652344 1040.515625 220.164062 C 1040.515625 219.59375 1040.34375 219.140625 1040.003906 218.808594 C 1039.664062 218.472656 1039.207031 218.304688 1038.636719 218.304688 C 1037.792969 218.304688 1037.210938 218.625 1036.886719 219.261719 C 1036.714844 219.601562 1036.617188 220.078125 1036.601562 220.683594 L 1035.347656 220.683594 C 1035.363281 219.832031 1035.519531 219.136719 1035.820312 218.597656 C 1036.351562 217.648438 1037.292969 217.175781 1038.644531 217.175781 C 1039.765625 217.175781 1040.582031 217.480469 1041.101562 218.085938 C 1041.617188 218.691406 1041.875 219.367188 1041.875 220.109375 C 1041.875 220.894531 1041.601562 221.5625 1041.050781 222.117188 C 1040.730469 222.441406 1040.160156 222.835938 1039.335938 223.296875 L 1038.398438 223.8125 C 1037.953125 224.058594 1037.601562 224.296875 1037.34375 224.519531 C 1036.890625 224.914062 1036.601562 225.355469 1036.484375 225.835938 L 1041.828125 225.835938 L 1041.828125 227 Z M 1026.886719 216.21875 "/>
<path style="fill:none;stroke-width:1;stroke-linecap:butt;stroke-linejoin:miter;stroke:rgb(19.607843%,80.392158%,19.607843%);stroke-opacity:1;stroke-miterlimit:4;" d="M 930.773438 -91.121094 C 946.960938 -106.230469 965.722656 -123.742188 982.292969 -139.207031 " transform="matrix(1,0,0,1,4,401)"/>
<path style="fill-rule:nonzero;fill:rgb(19.607843%,80.392158%,19.607843%);fill-opacity:1;stroke-width:1;stroke-linecap:butt;stroke-linejoin:miter;stroke:rgb(19.607843%,80.392158%,19.607843%);stroke-opacity:1;stroke-miterlimit:4;" d="M 980.035156 -141.886719 L 989.734375 -146.152344 L 984.8125 -136.769531 Z M 980.035156 -141.886719 " transform="matrix(1,0,0,1,4,401)"/>
<path style="fill:none;stroke-width:5;stroke-linecap:butt;stroke-linejoin:miter;stroke:rgb(11.764706%,56.470591%,100%);stroke-opacity:1;stroke-dasharray:5,2;stroke-miterlimit:4;" d="M 591 -343 C 591 -313.175781 566.824219 -289 537 -289 C 507.175781 -289 483 -313.175781 483 -343 C 483 -372.824219 507.175781 -397 537 -397 C 566.824219 -397 591 -372.824219 591 -343 Z M 591 -343 " transform="matrix(1,0,0,1,4,401)"/>
<path style=" stroke:none;fill-rule:nonzero;fill:rgb(25.098041%,25.098041%,25.098041%);fill-opacity:1;" d="M 518.46875 51.15625 L 525.4375 51.15625 L 525.4375 52.386719 L 519.828125 52.386719 L 519.828125 55.4375 L 524.757812 55.4375 L 524.757812 56.632812 L 519.828125 56.632812 L 519.828125 61.199219 L 518.46875 61.199219 Z M 527.667969 59.25 C 527.667969 59.605469 527.800781 59.886719 528.058594 60.089844 C 528.320312 60.296875 528.628906 60.398438 528.980469 60.398438 C 529.414062 60.398438 529.835938 60.300781 530.238281 60.097656 C 530.921875 59.765625 531.265625 59.222656 531.265625 58.464844 L 531.265625 57.472656 C 531.113281 57.570312 530.921875 57.648438 530.683594 57.714844 C 530.449219 57.777344 530.214844 57.824219 529.988281 57.847656 L 529.242188 57.945312 C 528.796875 58.003906 528.460938 58.097656 528.238281 58.226562 C 527.859375 58.441406 527.667969 58.78125 527.667969 59.25 Z M 530.652344 56.761719 C 530.933594 56.726562 531.121094 56.609375 531.21875 56.40625 C 531.273438 56.296875 531.300781 56.140625 531.300781 55.933594 C 531.300781 55.515625 531.152344 55.210938 530.851562 55.023438 C 530.554688 54.832031 530.125 54.738281 529.570312 54.738281 C 528.925781 54.738281 528.472656 54.914062 528.203125 55.257812 C 528.050781 55.449219 527.953125 55.734375 527.910156 56.113281 L 526.761719 56.113281 C 526.785156 55.210938 527.078125 54.582031 527.640625 54.230469 C 528.203125 53.878906 528.855469 53.699219 529.597656 53.699219 C 530.457031 53.699219 531.160156 53.863281 531.695312 54.191406 C 532.230469 54.519531 532.496094 55.03125 532.496094 55.722656 L 532.496094 59.941406 C 532.496094 60.070312 532.523438 60.171875 532.574219 60.25 C 532.628906 60.328125 532.738281 60.363281 532.90625 60.363281 C 532.960938 60.363281 533.023438 60.363281 533.089844 60.355469 C 533.160156 60.347656 533.230469 60.339844 533.308594 60.324219 L 533.308594 61.234375 C 533.117188 61.289062 532.972656 61.324219 532.871094 61.335938 C 532.769531 61.347656 532.636719 61.355469 532.460938 61.355469 C 532.039062 61.355469 531.730469 61.207031 531.539062 60.90625 C 531.4375 60.746094 531.367188 60.519531 531.328125 60.230469 C 531.078125 60.558594 530.714844 60.839844 530.246094 61.082031 C 529.777344 61.324219 529.261719 61.445312 528.695312 61.445312 C 528.015625 61.445312 527.460938 61.238281 527.03125 60.828125 C 526.601562 60.414062 526.386719 59.898438 526.386719 59.277344 C 526.386719 58.597656 526.597656 58.074219 527.019531 57.699219 C 527.445312 57.324219 528 57.09375 528.6875 57.007812 Z M 537.335938 53.667969 C 538.160156 53.667969 538.832031 53.867188 539.347656 54.269531 C 539.867188 54.667969 540.175781 55.359375 540.28125 56.339844 L 539.085938 56.339844 C 539.011719 55.886719 538.84375 55.511719 538.585938 55.214844 C 538.328125 54.917969 537.910156 54.765625 537.335938 54.765625 C 536.550781 54.765625 535.992188 55.148438 535.652344 55.914062 C 535.433594 56.410156 535.324219 57.023438 535.324219 57.753906 C 535.324219 58.488281 535.480469 59.105469 535.789062 59.605469 C 536.101562 60.105469 536.585938 60.359375 537.253906 60.359375 C 537.765625 60.359375 538.167969 60.203125 538.464844 59.890625 C 538.765625 59.578125 538.972656 59.152344 539.085938 58.609375 L 540.28125 58.609375 C 540.144531 59.578125 539.804688 60.289062 539.257812 60.738281 C 538.710938 61.1875 538.007812 61.410156 537.15625 61.410156 C 536.199219 61.410156 535.4375 61.0625 534.867188 60.363281 C 534.296875 59.664062 534.011719 58.789062 534.011719 57.738281 C 534.011719 56.453125 534.324219 55.453125 534.949219 54.738281 C 535.574219 54.023438 536.367188 53.667969 537.335938 53.667969 Z M 541.757812 51.832031 L 543 51.832031 L 543 53.878906 L 544.171875 53.878906 L 544.171875 54.882812 L 543 54.882812 L 543 59.660156 C 543 59.917969 543.089844 60.085938 543.261719 60.175781 C 543.359375 60.222656 543.515625 60.25 543.742188 60.25 C 543.800781 60.25 543.863281 60.246094 543.929688 60.246094 C 544 60.242188 544.078125 60.238281 544.171875 60.230469 L 544.171875 61.199219 C 544.03125 61.238281 543.882812 61.269531 543.730469 61.289062 C 543.578125 61.308594 543.414062 61.316406 543.234375 61.316406 C 542.660156 61.316406 542.269531 61.167969 542.066406 60.875 C 541.859375 60.582031 541.757812 60.199219 541.757812 59.730469 L 541.757812 54.882812 L 540.765625 54.882812 L 540.765625 53.878906 L 541.757812 53.878906 Z M 548.308594 60.40625 C 549.125 60.40625 549.683594 60.097656 549.984375 59.480469 C 550.289062 58.863281 550.441406 58.175781 550.441406 57.417969 C 550.441406 56.734375 550.332031 56.179688 550.113281 55.75 C 549.765625 55.074219 549.167969 54.738281 548.320312 54.738281 C 547.570312 54.738281 547.023438 55.027344 546.679688 55.601562 C 546.339844 56.175781 546.167969 56.867188 546.167969 57.679688 C 546.167969 58.457031 546.339844 59.105469 546.679688 59.628906 C 547.023438 60.148438 547.566406 60.40625 548.308594 60.40625 Z M 548.355469 53.667969 C 549.296875 53.667969 550.097656 53.980469 550.75 54.609375 C 551.398438 55.238281 551.726562 56.164062 551.726562 57.386719 C 551.726562 58.566406 551.4375 59.539062 550.863281 60.308594 C 550.289062 61.082031 549.398438 61.464844 548.191406 61.464844 C 547.183594 61.464844 546.382812 61.125 545.792969 60.445312 C 545.199219 59.761719 544.902344 58.847656 544.902344 57.699219 C 544.902344 56.46875 545.214844 55.488281 545.839844 54.761719 C 546.464844 54.03125 547.304688 53.667969 548.355469 53.667969 Z M 553.226562 53.878906 L 554.394531 53.878906 L 554.394531 55.144531 C 554.492188 54.898438 554.726562 54.597656 555.097656 54.242188 C 555.472656 53.890625 555.902344 53.714844 556.390625 53.714844 C 556.414062 53.714844 556.453125 53.714844 556.507812 53.722656 C 556.5625 53.726562 556.65625 53.734375 556.789062 53.746094 L 556.789062 55.046875 C 556.714844 55.035156 556.648438 55.023438 556.585938 55.019531 C 556.523438 55.015625 556.457031 55.011719 556.382812 55.011719 C 555.765625 55.011719 555.289062 55.210938 554.953125 55.609375 C 554.621094 56.007812 554.457031 56.46875 554.457031 56.988281 L 554.457031 61.199219 L 553.226562 61.199219 Z M 517.273438 50.417969 "/>
<path style=" stroke:none;fill-rule:nonzero;fill:rgb(25.098041%,25.098041%,25.098041%);fill-opacity:1;" d="M 560.425781 56.546875 C 561 56.546875 561.503906 56.691406 561.933594 56.972656 C 562.164062 57.132812 562.402344 57.363281 562.644531 57.671875 L 562.644531 56.746094 L 563.777344 56.746094 L 563.777344 63.40625 C 563.777344 64.335938 563.640625 65.070312 563.367188 65.605469 C 562.855469 66.601562 561.894531 67.097656 560.476562 67.097656 C 559.6875 67.097656 559.023438 66.921875 558.488281 66.566406 C 557.949219 66.214844 557.648438 65.660156 557.582031 64.910156 L 558.835938 64.910156 C 558.894531 65.238281 559.011719 65.492188 559.191406 65.667969 C 559.46875 65.941406 559.90625 66.078125 560.503906 66.078125 C 561.445312 66.078125 562.0625 65.746094 562.355469 65.078125 C 562.527344 64.6875 562.609375 63.988281 562.59375 62.980469 C 562.347656 63.355469 562.050781 63.632812 561.707031 63.816406 C 561.359375 64 560.902344 64.089844 560.332031 64.089844 C 559.539062 64.089844 558.84375 63.808594 558.25 63.246094 C 557.65625 62.683594 557.359375 61.75 557.359375 60.453125 C 557.359375 59.226562 557.65625 58.269531 558.257812 57.582031 C 558.855469 56.894531 559.582031 56.546875 560.425781 56.546875 Z M 562.644531 60.308594 C 562.644531 59.402344 562.457031 58.730469 562.082031 58.292969 C 561.707031 57.855469 561.230469 57.636719 560.652344 57.636719 C 559.785156 57.636719 559.195312 58.042969 558.875 58.851562 C 558.707031 59.285156 558.621094 59.851562 558.621094 60.554688 C 558.621094 61.378906 558.789062 62.007812 559.125 62.4375 C 559.460938 62.867188 559.910156 63.085938 560.476562 63.085938 C 561.359375 63.085938 561.980469 62.683594 562.339844 61.886719 C 562.542969 61.4375 562.644531 60.910156 562.644531 60.308594 Z M 556.941406 53.21875 "/>
<path style="fill:none;stroke-width:1;stroke-linecap:butt;stroke-linejoin:miter;stroke:rgb(11.764706%,56.470591%,100%);stroke-opacity:1;stroke-dasharray:5,2;stroke-miterlimit:4;" d="M 80.722656 -215.859375 C 80.816406 -215.90625 80.90625 -215.953125 81 -216 C 216.875 -285.566406 395.644531 -321.042969 483.527344 -335.273438 " transform="matrix(1,0,0,1,4,401)"/>
<path style="fill-rule:nonzero;fill:rgb(11.764706%,56.470591%,100%);fill-opacity:1;stroke-width:1;stroke-linecap:butt;stroke-linejoin:miter;stroke:rgb(11.764706%,56.470591%,100%);stroke-opacity:1;stroke-miterlimit:4;" d="M 82.664062 -212.9375 L 72.257812 -210.933594 L 79.144531 -218.988281 Z M 82.664062 -212.9375 " transform="matrix(1,0,0,1,4,401)"/>
<path style="fill:none;stroke-width:1;stroke-linecap:butt;stroke-linejoin:miter;stroke:rgb(11.764706%,56.470591%,100%);stroke-opacity:1;stroke-miterlimit:4;" d="M 170.722656 -215.84375 C 170.8125 -215.898438 170.90625 -215.949219 171 -216 C 275.519531 -273.691406 411.050781 -312.4375 484.34375 -330.773438 " transform="matrix(1,0,0,1,4,401)"/>
<path style="fill-rule:nonzero;fill:rgb(11.764706%,56.470591%,100%);fill-opacity:1;stroke-width:1;stroke-linecap:butt;stroke-linejoin:miter;stroke:rgb(11.764706%,56.470591%,100%);stroke-opacity:1;stroke-miterlimit:4;" d="M 172.464844 -212.808594 L 162.109375 -210.554688 L 168.796875 -218.773438 Z M 172.464844 -212.808594 " transform="matrix(1,0,0,1,4,401)"/>
<path style="fill:none;stroke-width:1;stroke-linecap:butt;stroke-linejoin:miter;stroke:rgb(11.764706%,56.470591%,100%);stroke-opacity:1;stroke-miterlimit:4;" d="M 260.441406 -215.652344 C 260.628906 -215.769531 260.8125 -215.886719 261 -216 C 335.507812 -261.988281 429.4375 -301.734375 486.273438 -324 " transform="matrix(1,0,0,1,4,401)"/>
<path style="fill-rule:nonzero;fill:rgb(11.764706%,56.470591%,100%);fill-opacity:1;stroke-width:1;stroke-linecap:butt;stroke-linejoin:miter;stroke:rgb(11.764706%,56.470591%,100%);stroke-opacity:1;stroke-miterlimit:4;" d="M 262.304688 -212.691406 L 252.042969 -210.054688 L 258.421875 -218.511719 Z M 262.304688 -212.691406 " transform="matrix(1,0,0,1,4,401)"/>
<path style="fill:none;stroke-width:1;stroke-linecap:butt;stroke-linejoin:miter;stroke:rgb(11.764706%,56.470591%,100%);stroke-opacity:1;stroke-miterlimit:4;" d="M 350.183594 -215.394531 C 350.457031 -215.597656 350.726562 -215.800781 351 -216 C 397.996094 -250.765625 453.535156 -288.238281 491.613281 -313.398438 " transform="matrix(1,0,0,1,4,401)"/>
<path style="fill-rule:nonzero;fill:rgb(11.764706%,56.470591%,100%);fill-opacity:1;stroke-width:1;stroke-linecap:butt;stroke-linejoin:miter;stroke:rgb(11.764706%,56.470591%,100%);stroke-opacity:1;stroke-miterlimit:4;" d="M 352.25 -212.570312 L 342.164062 -209.320312 L 348.023438 -218.148438 Z M 352.25 -212.570312 " transform="matrix(1,0,0,1,4,401)"/>
<path style="fill:none;stroke-width:1;stroke-linecap:butt;stroke-linejoin:miter;stroke:rgb(11.764706%,56.470591%,100%);stroke-opacity:1;stroke-miterlimit:4;" d="M 433.933594 -223.851562 C 454.96875 -248.167969 480.957031 -278.214844 501.578125 -302.050781 " transform="matrix(1,0,0,1,4,401)"/>
<path style="fill-rule:nonzero;fill:rgb(11.764706%,56.470591%,100%);fill-opacity:1;stroke-width:1;stroke-linecap:butt;stroke-linejoin:miter;stroke:rgb(11.764706%,56.470591%,100%);stroke-opacity:1;stroke-miterlimit:4;" d="M 436.480469 -221.449219 L 427.292969 -216.175781 L 431.1875 -226.027344 Z M 436.480469 -221.449219 " transform="matrix(1,0,0,1,4,401)"/>
<path style="fill:none;stroke-width:1;stroke-linecap:butt;stroke-linejoin:miter;stroke:rgb(11.764706%,56.470591%,100%);stroke-opacity:1;stroke-miterlimit:4;" d="M 500.339844 -225.828125 C 506.699219 -246.15625 514.214844 -270.175781 520.777344 -291.15625 " transform="matrix(1,0,0,1,4,401)"/>
<path style="fill-rule:nonzero;fill:rgb(11.764706%,56.470591%,100%);fill-opacity:1;stroke-width:1;stroke-linecap:butt;stroke-linejoin:miter;stroke:rgb(11.764706%,56.470591%,100%);stroke-opacity:1;stroke-miterlimit:4;" d="M 503.644531 -224.671875 L 497.320312 -216.175781 L 496.964844 -226.765625 Z M 503.644531 -224.671875 " transform="matrix(1,0,0,1,4,401)"/>
<path style="fill:none;stroke-width:1;stroke-linecap:butt;stroke-linejoin:miter;stroke:rgb(11.764706%,56.470591%,100%);stroke-opacity:1;stroke-miterlimit:4;" d="M 565 -225.976562 C 560.214844 -245.96875 554.582031 -269.511719 549.628906 -290.21875 " transform="matrix(1,0,0,1,4,401)"/>
<path style="fill-rule:nonzero;fill:rgb(11.764706%,56.470591%,100%);fill-opacity:1;stroke-width:1;stroke-linecap:butt;stroke-linejoin:miter;stroke:rgb(11.764706%,56.470591%,100%);stroke-opacity:1;stroke-miterlimit:4;" d="M 568.421875 -226.714844 L 567.34375 -216.175781 L 561.613281 -225.085938 Z M 568.421875 -226.714844 " transform="matrix(1,0,0,1,4,401)"/>
<path style="fill:none;stroke-width:1;stroke-linecap:butt;stroke-linejoin:miter;stroke:rgb(11.764706%,56.470591%,100%);stroke-opacity:1;stroke-miterlimit:4;" d="M 631.164062 -224.015625 C 612.335938 -247.804688 589.199219 -277.042969 570.570312 -300.578125 " transform="matrix(1,0,0,1,4,401)"/>
<path style="fill-rule:nonzero;fill:rgb(11.764706%,56.470591%,100%);fill-opacity:1;stroke-width:1;stroke-linecap:butt;stroke-linejoin:miter;stroke:rgb(11.764706%,56.470591%,100%);stroke-opacity:1;stroke-miterlimit:4;" d="M 633.910156 -226.1875 L 637.371094 -216.175781 L 628.421875 -221.84375 Z M 633.910156 -226.1875 " transform="matrix(1,0,0,1,4,401)"/>
<path style="fill:none;stroke-width:1;stroke-linecap:butt;stroke-linejoin:miter;stroke:rgb(11.764706%,56.470591%,100%);stroke-opacity:1;stroke-miterlimit:4;" d="M 711.808594 -215.382812 C 711.539062 -215.589844 711.269531 -215.792969 711 -216 C 667.320312 -249.386719 616.433594 -286.304688 581.015625 -311.691406 " transform="matrix(1,0,0,1,4,401)"/>
<path style="fill-rule:nonzero;fill:rgb(11.764706%,56.470591%,100%);fill-opacity:1;stroke-width:1;stroke-linecap:butt;stroke-linejoin:miter;stroke:rgb(11.764706%,56.470591%,100%);stroke-opacity:1;stroke-miterlimit:4;" d="M 714 -218.109375 L 719.757812 -209.21875 L 709.710938 -212.578125 Z M 714 -218.109375 " transform="matrix(1,0,0,1,4,401)"/>
<path style="fill:none;stroke-width:1;stroke-linecap:butt;stroke-linejoin:miter;stroke:rgb(11.764706%,56.470591%,100%);stroke-opacity:1;stroke-miterlimit:4;" d="M 801.554688 -215.648438 C 801.371094 -215.765625 801.183594 -215.882812 801 -216 C 730.398438 -260.417969 641.910156 -300.046875 587.425781 -322.792969 " transform="matrix(1,0,0,1,4,401)"/>
<path style="fill-rule:nonzero;fill:rgb(11.764706%,56.470591%,100%);fill-opacity:1;stroke-width:1;stroke-linecap:butt;stroke-linejoin:miter;stroke:rgb(11.764706%,56.470591%,100%);stroke-opacity:1;stroke-miterlimit:4;" d="M 803.59375 -218.496094 L 809.921875 -209.996094 L 799.675781 -212.695312 Z M 803.59375 -218.496094 " transform="matrix(1,0,0,1,4,401)"/>
<path style="fill:none;stroke-width:1;stroke-linecap:butt;stroke-linejoin:miter;stroke:rgb(11.764706%,56.470591%,100%);stroke-opacity:1;stroke-miterlimit:4;" d="M 891.277344 -215.84375 C 891.1875 -215.894531 891.09375 -215.949219 891 -216 C 790.683594 -272.058594 660.980469 -311.066406 589.714844 -329.96875 " transform="matrix(1,0,0,1,4,401)"/>
<path style="fill-rule:nonzero;fill:rgb(11.764706%,56.470591%,100%);fill-opacity:1;stroke-width:1;stroke-linecap:butt;stroke-linejoin:miter;stroke:rgb(11.764706%,56.470591%,100%);stroke-opacity:1;stroke-miterlimit:4;" d="M 893.214844 -218.761719 L 899.871094 -210.519531 L 889.527344 -212.8125 Z M 893.214844 -218.761719 " transform="matrix(1,0,0,1,4,401)"/>
<path style="fill:none;stroke-width:1;stroke-linecap:butt;stroke-linejoin:miter;stroke:rgb(11.764706%,56.470591%,100%);stroke-opacity:1;stroke-miterlimit:4;" d="M 981.285156 -215.851562 C 981.1875 -215.902344 981.09375 -215.953125 981 -216 C 849.390625 -283.960938 676.496094 -319.976562 590.449219 -334.757812 " transform="matrix(1,0,0,1,4,401)"/>
<path style="fill-rule:nonzero;fill:rgb(11.764706%,56.470591%,100%);fill-opacity:1;stroke-width:1;stroke-linecap:butt;stroke-linejoin:miter;stroke:rgb(11.764706%,56.470591%,100%);stroke-opacity:1;stroke-miterlimit:4;" d="M 983.136719 -218.824219 L 989.988281 -210.742188 L 979.59375 -212.785156 Z M 983.136719 -218.824219 " transform="matrix(1,0,0,1,4,401)"/>
</g>
</svg>
