<?xml version="1.0" encoding="UTF-8"?>
<svg xmlns="http://www.w3.org/2000/svg" xmlns:xlink="http://www.w3.org/1999/xlink" width="164pt" height="150pt" viewBox="0 0 164 150" version="1.1">
<g id="surface1">
<path style="fill:none;stroke-width:0.5;stroke-linecap:butt;stroke-linejoin:miter;stroke:rgb(49.803922%,49.803922%,49.803922%);stroke-opacity:1;stroke-miterlimit:4;" d="M 22 -131 C 22 -124.925781 17.074219 -120 11 -120 C 4.925781 -120 0 -124.925781 0 -131 C 0 -137.074219 4.925781 -142 11 -142 C 17.074219 -142 22 -137.074219 22 -131 Z M 22 -131 " transform="matrix(1,0,0,1,4,146)"/>
<path style=" stroke:none;fill-rule:nonzero;fill:rgb(25.098041%,25.098041%,25.098041%);fill-opacity:1;" d="M 13.304688 13.789062 L 13.84375 12.628906 L 14.445312 12.628906 L 13.585938 14.199219 L 14.46875 15.800781 L 13.871094 15.800781 L 13.3125 14.613281 L 12.75 15.800781 L 12.152344 15.800781 L 13.035156 14.199219 L 12.175781 12.628906 L 12.769531 12.628906 Z M 12 10.234375 "/>
<path style=" stroke:none;fill-rule:nonzero;fill:rgb(25.098041%,25.098041%,25.098041%);fill-opacity:1;" d="M 16.886719 17 L 16.367188 17 L 16.367188 13.386719 L 15.46875 13.789062 L 15.46875 13.296875 L 16.804688 12.714844 L 16.886719 12.714844 Z M 15 11.433594 "/>
<path style="fill:none;stroke-width:1;stroke-linecap:butt;stroke-linejoin:miter;stroke:rgb(33.725491%,70.588237%,91.37255%);stroke-opacity:0.501961;stroke-dasharray:5,2;stroke-miterlimit:4;" d="M 93 -71 C 93 -64.371094 87.628906 -59 81 -59 C 74.371094 -59 69 -64.371094 69 -71 C 69 -77.628906 74.371094 -83 81 -83 C 87.628906 -83 93 -77.628906 93 -71 Z M 93 -71 " transform="matrix(1,0,0,1,4,146)"/>
<path style="fill:none;stroke-width:1;stroke-linecap:butt;stroke-linejoin:miter;stroke:rgb(33.725491%,70.588237%,91.37255%);stroke-opacity:0.501961;stroke-dasharray:5,2;stroke-miterlimit:4;" d="M 97 -71 C 97 -62.164062 89.835938 -55 81 -55 C 72.164062 -55 65 -62.164062 65 -71 C 65 -79.835938 72.164062 -87 81 -87 C 89.835938 -87 97 -79.835938 97 -71 Z M 97 -71 " transform="matrix(1,0,0,1,4,146)"/>
<path style=" stroke:none;fill-rule:nonzero;fill:rgb(25.098041%,25.098041%,25.098041%);fill-opacity:1;" d="M 82.203125 73.117188 L 83.597656 73.117188 L 83.597656 73.5 L 81.753906 73.5 L 81.753906 69.945312 L 82.203125 69.945312 Z M 84.535156 73.5 L 84.101562 73.5 L 84.101562 70.859375 L 84.535156 70.859375 Z M 84.570312 70.15625 C 84.570312 70.230469 84.546875 70.292969 84.507812 70.339844 C 84.46875 70.390625 84.40625 70.414062 84.324219 70.414062 C 84.242188 70.414062 84.179688 70.390625 84.140625 70.339844 C 84.097656 70.292969 84.078125 70.230469 84.078125 70.15625 C 84.078125 70.085938 84.097656 70.023438 84.140625 69.972656 C 84.179688 69.921875 84.242188 69.898438 84.324219 69.898438 C 84.402344 69.898438 84.464844 69.921875 84.507812 69.972656 C 84.546875 70.023438 84.570312 70.085938 84.570312 70.15625 Z M 85.621094 70.859375 L 85.632812 71.144531 C 85.800781 70.921875 86.015625 70.808594 86.273438 70.808594 C 86.742188 70.808594 86.980469 71.121094 86.984375 71.746094 L 86.984375 73.5 L 86.554688 73.5 L 86.554688 71.765625 C 86.554688 71.558594 86.519531 71.410156 86.453125 71.324219 C 86.382812 71.238281 86.277344 71.191406 86.140625 71.191406 C 86.03125 71.191406 85.9375 71.230469 85.851562 71.300781 C 85.765625 71.371094 85.695312 71.464844 85.644531 71.582031 L 85.644531 73.5 L 85.210938 73.5 L 85.210938 70.859375 Z M 87.664062 73.261719 C 87.664062 73.183594 87.6875 73.121094 87.734375 73.066406 C 87.78125 73.015625 87.851562 72.988281 87.941406 72.988281 C 88.035156 72.988281 88.105469 73.015625 88.152344 73.066406 C 88.203125 73.121094 88.226562 73.183594 88.226562 73.261719 C 88.226562 73.335938 88.203125 73.402344 88.152344 73.453125 C 88.105469 73.503906 88.035156 73.527344 87.941406 73.527344 C 87.847656 73.527344 87.78125 73.5 87.734375 73.453125 C 87.6875 73.402344 87.664062 73.339844 87.664062 73.261719 Z M 81.371094 68.859375 "/>
<path style=" stroke:none;fill-rule:nonzero;fill:rgb(25.098041%,25.098041%,25.098041%);fill-opacity:1;" d="M 80.636719 78.109375 L 80.636719 79.5 L 80.191406 79.5 L 80.191406 75.945312 L 81.324219 75.945312 C 81.65625 75.945312 81.914062 76.042969 82.105469 76.242188 C 82.292969 76.441406 82.386719 76.703125 82.386719 77.03125 C 82.386719 77.375 82.296875 77.636719 82.117188 77.820312 C 81.9375 78.007812 81.683594 78.101562 81.355469 78.109375 Z M 80.636719 77.726562 L 81.324219 77.726562 C 81.523438 77.726562 81.675781 77.664062 81.78125 77.546875 C 81.886719 77.429688 81.941406 77.257812 81.941406 77.035156 C 81.941406 76.824219 81.886719 76.652344 81.777344 76.523438 C 81.667969 76.394531 81.519531 76.332031 81.328125 76.332031 L 80.636719 76.332031 Z M 83.992188 77.265625 C 83.929688 77.253906 83.867188 77.246094 83.796875 77.246094 C 83.574219 77.246094 83.421875 77.367188 83.332031 77.609375 L 83.332031 79.5 L 82.898438 79.5 L 82.898438 76.859375 L 83.320312 76.859375 L 83.328125 77.125 C 83.445312 76.914062 83.605469 76.808594 83.820312 76.808594 C 83.886719 76.808594 83.945312 76.820312 83.988281 76.84375 Z M 85.320312 79.546875 C 84.992188 79.546875 84.742188 79.449219 84.566406 79.253906 C 84.390625 79.058594 84.300781 78.769531 84.296875 78.390625 L 84.296875 78.070312 C 84.296875 77.675781 84.382812 77.367188 84.554688 77.144531 C 84.726562 76.921875 84.964844 76.808594 85.273438 76.808594 C 85.582031 76.808594 85.8125 76.90625 85.964844 77.105469 C 86.117188 77.300781 86.199219 77.609375 86.199219 78.023438 L 86.199219 78.308594 L 84.726562 78.308594 L 84.726562 78.371094 C 84.726562 78.652344 84.78125 78.859375 84.886719 78.988281 C 84.992188 79.117188 85.144531 79.179688 85.347656 79.179688 C 85.472656 79.179688 85.585938 79.15625 85.683594 79.109375 C 85.78125 79.0625 85.871094 78.984375 85.953125 78.878906 L 86.179688 79.152344 C 85.992188 79.417969 85.707031 79.546875 85.320312 79.546875 Z M 85.273438 77.179688 C 85.09375 77.179688 84.960938 77.242188 84.875 77.363281 C 84.789062 77.488281 84.738281 77.679688 84.726562 77.9375 L 85.769531 77.9375 L 85.769531 77.878906 C 85.757812 77.628906 85.710938 77.449219 85.632812 77.34375 C 85.554688 77.234375 85.433594 77.179688 85.273438 77.179688 Z M 86.628906 78.058594 C 86.628906 77.652344 86.707031 77.34375 86.859375 77.128906 C 87.011719 76.914062 87.230469 76.808594 87.515625 76.808594 C 87.765625 76.808594 87.964844 76.914062 88.105469 77.117188 L 88.105469 75.75 L 88.539062 75.75 L 88.539062 79.5 L 88.140625 79.5 L 88.121094 79.21875 C 87.976562 79.4375 87.773438 79.546875 87.511719 79.546875 C 87.238281 79.546875 87.023438 79.441406 86.867188 79.230469 C 86.710938 79.019531 86.632812 78.71875 86.628906 78.332031 Z M 87.0625 78.304688 C 87.0625 78.601562 87.105469 78.820312 87.195312 78.960938 C 87.28125 79.097656 87.425781 79.167969 87.625 79.167969 C 87.839844 79.167969 88 79.058594 88.105469 78.84375 L 88.105469 77.511719 C 87.996094 77.300781 87.835938 77.191406 87.625 77.191406 C 87.425781 77.191406 87.285156 77.261719 87.195312 77.402344 C 87.109375 77.539062 87.0625 77.753906 87.0625 78.042969 Z M 89.230469 79.261719 C 89.230469 79.183594 89.253906 79.121094 89.300781 79.066406 C 89.347656 79.015625 89.417969 78.988281 89.507812 78.988281 C 89.601562 78.988281 89.671875 79.015625 89.71875 79.066406 C 89.769531 79.121094 89.792969 79.183594 89.792969 79.261719 C 89.792969 79.335938 89.769531 79.402344 89.71875 79.453125 C 89.671875 79.503906 89.601562 79.527344 89.507812 79.527344 C 89.414062 79.527344 89.347656 79.5 89.300781 79.453125 C 89.253906 79.402344 89.230469 79.339844 89.230469 79.261719 Z M 79.808594 74.859375 "/>
<path style="fill:none;stroke-width:0.5;stroke-linecap:butt;stroke-linejoin:miter;stroke:rgb(32.941177%,32.941177%,32.941177%);stroke-opacity:1;stroke-miterlimit:4;" d="M 19.582031 -123.644531 C 31.371094 -113.539062 52.714844 -95.242188 66.875 -83.105469 " transform="matrix(1,0,0,1,4,146)"/>
<path style="fill-rule:nonzero;fill:rgb(32.941177%,32.941177%,32.941177%);fill-opacity:1;stroke-width:0.5;stroke-linecap:butt;stroke-linejoin:miter;stroke:rgb(32.941177%,32.941177%,32.941177%);stroke-opacity:1;stroke-miterlimit:4;" d="M 68.808594 -82.308594 C 68.808594 -81.757812 68.359375 -81.308594 67.808594 -81.308594 C 67.253906 -81.308594 66.808594 -81.757812 66.808594 -82.308594 C 66.808594 -82.859375 67.253906 -83.308594 67.808594 -83.308594 C 68.359375 -83.308594 68.808594 -82.859375 68.808594 -82.308594 Z M 68.808594 -82.308594 " transform="matrix(1,0,0,1,4,146)"/>
<path style=" stroke:none;fill-rule:nonzero;fill:rgb(25.098041%,25.098041%,25.098041%);fill-opacity:1;" d="M 44.023438 34.550781 L 44.023438 34.433594 C 44.285156 34.375 44.515625 34.308594 44.726562 34.234375 C 44.933594 34.164062 45.042969 34.125 45.058594 34.125 C 45.0625 34.140625 45.066406 34.15625 45.066406 34.167969 L 45.066406 36.25 C 45.125 36.140625 45.214844 36.035156 45.332031 35.9375 C 45.542969 35.765625 45.785156 35.683594 46.058594 35.683594 C 46.394531 35.683594 46.679688 35.824219 46.914062 36.105469 C 47.152344 36.386719 47.269531 36.753906 47.269531 37.207031 C 47.269531 37.691406 47.117188 38.101562 46.808594 38.445312 C 46.5 38.789062 46.097656 38.964844 45.597656 38.964844 C 45.34375 38.964844 45.09375 38.914062 44.851562 38.8125 C 44.609375 38.710938 44.484375 38.613281 44.484375 38.511719 L 44.484375 34.898438 C 44.484375 34.765625 44.46875 34.671875 44.429688 34.617188 C 44.394531 34.5625 44.308594 34.535156 44.179688 34.535156 Z M 45.054688 38.398438 C 45.074219 38.515625 45.164062 38.601562 45.320312 38.652344 C 45.476562 38.703125 45.613281 38.730469 45.734375 38.730469 C 46.050781 38.730469 46.289062 38.609375 46.441406 38.371094 C 46.59375 38.132812 46.671875 37.84375 46.671875 37.503906 C 46.671875 37.164062 46.601562 36.851562 46.457031 36.5625 C 46.3125 36.273438 46.082031 36.128906 45.761719 36.128906 C 45.597656 36.128906 45.441406 36.179688 45.285156 36.277344 C 45.128906 36.378906 45.054688 36.503906 45.054688 36.65625 Z M 44 33.648438 "/>
<path style=" stroke:none;fill-rule:nonzero;fill:rgb(25.098041%,25.098041%,25.098041%);fill-opacity:1;" d="M 49.570312 35.605469 C 49.578125 35.617188 49.585938 35.625 49.585938 35.628906 C 49.585938 35.636719 49.589844 35.648438 49.589844 35.667969 L 49.589844 39.785156 C 49.589844 39.960938 49.636719 40.070312 49.726562 40.121094 C 49.820312 40.167969 49.996094 40.195312 50.25 40.207031 L 50.25 40.300781 L 48.324219 40.300781 L 48.324219 40.199219 C 48.601562 40.183594 48.78125 40.148438 48.863281 40.085938 C 48.949219 40.023438 48.992188 39.890625 48.992188 39.683594 L 48.992188 36.519531 C 48.992188 36.410156 48.976562 36.328125 48.949219 36.269531 C 48.921875 36.214844 48.863281 36.183594 48.773438 36.183594 C 48.710938 36.183594 48.636719 36.203125 48.539062 36.234375 C 48.445312 36.269531 48.359375 36.304688 48.277344 36.339844 L 48.277344 36.242188 L 49.53125 35.605469 Z M 47.5 35.050781 "/>
<path style="fill:none;stroke-width:0.5;stroke-linecap:butt;stroke-linejoin:miter;stroke:rgb(49.803922%,49.803922%,49.803922%);stroke-opacity:1;stroke-miterlimit:4;" d="M 22 -91 C 22 -84.925781 17.074219 -80 11 -80 C 4.925781 -80 0 -84.925781 0 -91 C 0 -97.074219 4.925781 -102 11 -102 C 17.074219 -102 22 -97.074219 22 -91 Z M 22 -91 " transform="matrix(1,0,0,1,4,146)"/>
<path style=" stroke:none;fill-rule:nonzero;fill:rgb(25.098041%,25.098041%,25.098041%);fill-opacity:1;" d="M 13.304688 53.789062 L 13.84375 52.628906 L 14.445312 52.628906 L 13.585938 54.199219 L 14.46875 55.800781 L 13.871094 55.800781 L 13.3125 54.613281 L 12.75 55.800781 L 12.152344 55.800781 L 13.035156 54.199219 L 12.175781 52.628906 L 12.769531 52.628906 Z M 12 50.234375 "/>
<path style=" stroke:none;fill-rule:nonzero;fill:rgb(25.098041%,25.098041%,25.098041%);fill-opacity:1;" d="M 17.726562 57 L 15.34375 57 L 15.34375 56.609375 L 16.558594 55 C 16.742188 54.75 16.871094 54.546875 16.941406 54.386719 C 17.011719 54.226562 17.046875 54.0625 17.046875 53.882812 C 17.046875 53.65625 16.996094 53.472656 16.890625 53.332031 C 16.785156 53.191406 16.644531 53.121094 16.472656 53.121094 C 16.257812 53.121094 16.089844 53.195312 15.972656 53.34375 C 15.851562 53.492188 15.792969 53.710938 15.792969 53.992188 L 15.273438 53.992188 C 15.273438 53.597656 15.382812 53.28125 15.597656 53.039062 C 15.8125 52.796875 16.105469 52.675781 16.472656 52.675781 C 16.8125 52.675781 17.082031 52.78125 17.277344 52.988281 C 17.472656 53.195312 17.570312 53.472656 17.570312 53.820312 C 17.570312 54.242188 17.351562 54.738281 16.910156 55.316406 L 15.960938 56.558594 L 17.726562 56.558594 Z M 15 51.433594 "/>
<path style="fill:none;stroke-width:0.5;stroke-linecap:butt;stroke-linejoin:miter;stroke:rgb(32.941177%,32.941177%,32.941177%);stroke-opacity:1;stroke-miterlimit:4;" d="M 21.632812 -87.960938 C 32.695312 -84.800781 50.207031 -79.796875 63.351562 -76.042969 " transform="matrix(1,0,0,1,4,146)"/>
<path style="fill-rule:nonzero;fill:rgb(32.941177%,32.941177%,32.941177%);fill-opacity:1;stroke-width:0.5;stroke-linecap:butt;stroke-linejoin:miter;stroke:rgb(32.941177%,32.941177%,32.941177%);stroke-opacity:1;stroke-miterlimit:4;" d="M 65.625 -75.679688 C 65.625 -75.125 65.175781 -74.679688 64.625 -74.679688 C 64.070312 -74.679688 63.625 -75.125 63.625 -75.679688 C 63.625 -76.230469 64.070312 -76.679688 64.625 -76.679688 C 65.175781 -76.679688 65.625 -76.230469 65.625 -75.679688 Z M 65.625 -75.679688 " transform="matrix(1,0,0,1,4,146)"/>
<path style=" stroke:none;fill-rule:nonzero;fill:rgb(25.098041%,25.098041%,25.098041%);fill-opacity:1;" d="M 44.023438 56.550781 L 44.023438 56.433594 C 44.285156 56.375 44.515625 56.308594 44.726562 56.234375 C 44.933594 56.164062 45.042969 56.125 45.058594 56.125 C 45.0625 56.140625 45.066406 56.15625 45.066406 56.167969 L 45.066406 58.25 C 45.125 58.140625 45.214844 58.035156 45.332031 57.9375 C 45.542969 57.765625 45.785156 57.683594 46.058594 57.683594 C 46.394531 57.683594 46.679688 57.824219 46.914062 58.105469 C 47.152344 58.386719 47.269531 58.753906 47.269531 59.207031 C 47.269531 59.691406 47.117188 60.101562 46.808594 60.445312 C 46.5 60.789062 46.097656 60.964844 45.597656 60.964844 C 45.34375 60.964844 45.09375 60.914062 44.851562 60.8125 C 44.609375 60.710938 44.484375 60.613281 44.484375 60.511719 L 44.484375 56.898438 C 44.484375 56.765625 44.46875 56.671875 44.429688 56.617188 C 44.394531 56.5625 44.308594 56.535156 44.179688 56.535156 Z M 45.054688 60.398438 C 45.074219 60.515625 45.164062 60.601562 45.320312 60.652344 C 45.476562 60.703125 45.613281 60.730469 45.734375 60.730469 C 46.050781 60.730469 46.289062 60.609375 46.441406 60.371094 C 46.59375 60.132812 46.671875 59.84375 46.671875 59.503906 C 46.671875 59.164062 46.601562 58.851562 46.457031 58.5625 C 46.3125 58.273438 46.082031 58.128906 45.761719 58.128906 C 45.597656 58.128906 45.441406 58.179688 45.285156 58.277344 C 45.128906 58.378906 45.054688 58.503906 45.054688 58.65625 Z M 44 55.648438 "/>
<path style=" stroke:none;fill-rule:nonzero;fill:rgb(25.098041%,25.098041%,25.098041%);fill-opacity:1;" d="M 47.707031 62.222656 C 48.542969 61.355469 49.109375 60.71875 49.40625 60.316406 C 49.707031 59.910156 49.855469 59.515625 49.855469 59.128906 C 49.855469 58.792969 49.765625 58.535156 49.582031 58.359375 C 49.398438 58.183594 49.179688 58.09375 48.929688 58.09375 C 48.617188 58.09375 48.363281 58.207031 48.171875 58.433594 C 48.0625 58.558594 47.960938 58.753906 47.863281 59.011719 L 47.714844 58.980469 C 47.828125 58.457031 48.023438 58.09375 48.292969 57.890625 C 48.566406 57.6875 48.859375 57.582031 49.171875 57.582031 C 49.554688 57.582031 49.867188 57.707031 50.105469 57.949219 C 50.34375 58.191406 50.464844 58.488281 50.464844 58.839844 C 50.464844 59.210938 50.335938 59.570312 50.078125 59.917969 C 49.820312 60.265625 49.261719 60.882812 48.398438 61.769531 L 49.96875 61.769531 C 50.1875 61.769531 50.339844 61.742188 50.429688 61.6875 C 50.519531 61.636719 50.617188 61.507812 50.730469 61.304688 L 50.820312 61.347656 L 50.4375 62.300781 L 47.707031 62.300781 Z M 47.5 57.050781 "/>
<path style="fill:none;stroke-width:0.5;stroke-linecap:butt;stroke-linejoin:miter;stroke:rgb(49.803922%,49.803922%,49.803922%);stroke-opacity:1;stroke-miterlimit:4;" d="M 22 -51 C 22 -44.925781 17.074219 -40 11 -40 C 4.925781 -40 0 -44.925781 0 -51 C 0 -57.074219 4.925781 -62 11 -62 C 17.074219 -62 22 -57.074219 22 -51 Z M 22 -51 " transform="matrix(1,0,0,1,4,146)"/>
<path style=" stroke:none;fill-rule:nonzero;fill:rgb(25.098041%,25.098041%,25.098041%);fill-opacity:1;" d="M 13.304688 93.789062 L 13.84375 92.628906 L 14.445312 92.628906 L 13.585938 94.199219 L 14.46875 95.800781 L 13.871094 95.800781 L 13.3125 94.613281 L 12.75 95.800781 L 12.152344 95.800781 L 13.035156 94.199219 L 12.175781 92.628906 L 12.769531 92.628906 Z M 12 90.234375 "/>
<path style=" stroke:none;fill-rule:nonzero;fill:rgb(25.098041%,25.098041%,25.098041%);fill-opacity:1;" d="M 16.003906 94.601562 L 16.335938 94.601562 C 16.546875 94.601562 16.710938 94.539062 16.828125 94.40625 C 16.945312 94.277344 17 94.097656 17 93.871094 C 17 93.371094 16.808594 93.121094 16.421875 93.121094 C 16.234375 93.121094 16.089844 93.1875 15.984375 93.324219 C 15.878906 93.457031 15.828125 93.632812 15.828125 93.851562 L 15.3125 93.851562 C 15.3125 93.511719 15.414062 93.230469 15.621094 93.007812 C 15.828125 92.785156 16.097656 92.675781 16.421875 92.675781 C 16.757812 92.675781 17.023438 92.78125 17.21875 92.992188 C 17.417969 93.203125 17.515625 93.5 17.515625 93.882812 C 17.515625 94.078125 17.464844 94.265625 17.363281 94.433594 C 17.261719 94.605469 17.125 94.730469 16.960938 94.8125 C 17.363281 94.960938 17.566406 95.292969 17.566406 95.8125 C 17.566406 96.191406 17.460938 96.496094 17.25 96.71875 C 17.039062 96.945312 16.757812 97.058594 16.417969 97.058594 C 16.078125 97.058594 15.808594 96.953125 15.597656 96.738281 C 15.390625 96.523438 15.289062 96.234375 15.289062 95.875 L 15.804688 95.875 C 15.804688 96.101562 15.859375 96.28125 15.96875 96.414062 C 16.078125 96.546875 16.226562 96.617188 16.417969 96.617188 C 16.609375 96.617188 16.765625 96.550781 16.878906 96.421875 C 16.992188 96.289062 17.050781 96.089844 17.050781 95.820312 C 17.050781 95.304688 16.804688 95.046875 16.316406 95.046875 L 16.003906 95.046875 Z M 15 91.433594 "/>
<path style="fill:none;stroke-width:0.5;stroke-linecap:butt;stroke-linejoin:miter;stroke:rgb(32.941177%,32.941177%,32.941177%);stroke-opacity:1;stroke-miterlimit:4;" d="M 21.632812 -54.039062 C 32.695312 -57.199219 50.207031 -62.203125 63.351562 -65.957031 " transform="matrix(1,0,0,1,4,146)"/>
<path style="fill-rule:nonzero;fill:rgb(32.941177%,32.941177%,32.941177%);fill-opacity:1;stroke-width:0.5;stroke-linecap:butt;stroke-linejoin:miter;stroke:rgb(32.941177%,32.941177%,32.941177%);stroke-opacity:1;stroke-miterlimit:4;" d="M 65.625 -66.320312 C 65.625 -65.769531 65.175781 -65.320312 64.625 -65.320312 C 64.070312 -65.320312 63.625 -65.769531 63.625 -66.320312 C 63.625 -66.875 64.070312 -67.320312 64.625 -67.320312 C 65.175781 -67.320312 65.625 -66.875 65.625 -66.320312 Z M 65.625 -66.320312 " transform="matrix(1,0,0,1,4,146)"/>
<path style=" stroke:none;fill-rule:nonzero;fill:rgb(25.098041%,25.098041%,25.098041%);fill-opacity:1;" d="M 44.023438 77.550781 L 44.023438 77.433594 C 44.285156 77.375 44.515625 77.308594 44.726562 77.234375 C 44.933594 77.164062 45.042969 77.125 45.058594 77.125 C 45.0625 77.140625 45.066406 77.15625 45.066406 77.167969 L 45.066406 79.25 C 45.125 79.140625 45.214844 79.035156 45.332031 78.9375 C 45.542969 78.765625 45.785156 78.683594 46.058594 78.683594 C 46.394531 78.683594 46.679688 78.824219 46.914062 79.105469 C 47.152344 79.386719 47.269531 79.753906 47.269531 80.207031 C 47.269531 80.691406 47.117188 81.101562 46.808594 81.445312 C 46.5 81.789062 46.097656 81.964844 45.597656 81.964844 C 45.34375 81.964844 45.09375 81.914062 44.851562 81.8125 C 44.609375 81.710938 44.484375 81.613281 44.484375 81.511719 L 44.484375 77.898438 C 44.484375 77.765625 44.46875 77.671875 44.429688 77.617188 C 44.394531 77.5625 44.308594 77.535156 44.179688 77.535156 Z M 45.054688 81.398438 C 45.074219 81.515625 45.164062 81.601562 45.320312 81.652344 C 45.476562 81.703125 45.613281 81.730469 45.734375 81.730469 C 46.050781 81.730469 46.289062 81.609375 46.441406 81.371094 C 46.59375 81.132812 46.671875 80.84375 46.671875 80.503906 C 46.671875 80.164062 46.601562 79.851562 46.457031 79.5625 C 46.3125 79.273438 46.082031 79.128906 45.761719 79.128906 C 45.597656 79.128906 45.441406 79.179688 45.285156 79.277344 C 45.128906 79.378906 45.054688 79.503906 45.054688 79.65625 Z M 44 76.648438 "/>
<path style=" stroke:none;fill-rule:nonzero;fill:rgb(25.098041%,25.098041%,25.098041%);fill-opacity:1;" d="M 48.042969 82.707031 C 48.167969 82.707031 48.335938 82.769531 48.539062 82.902344 C 48.746094 83.03125 48.921875 83.097656 49.066406 83.097656 C 49.382812 83.097656 49.621094 82.988281 49.777344 82.773438 C 49.929688 82.558594 50.007812 82.324219 50.007812 82.070312 C 50.007812 81.828125 49.945312 81.613281 49.820312 81.425781 C 49.609375 81.113281 49.25 80.960938 48.746094 80.960938 C 48.71875 80.960938 48.6875 80.960938 48.664062 80.960938 C 48.636719 80.960938 48.601562 80.964844 48.566406 80.96875 L 48.558594 80.878906 C 48.921875 80.746094 49.210938 80.597656 49.421875 80.425781 C 49.632812 80.253906 49.734375 80.03125 49.734375 79.75 C 49.734375 79.5 49.652344 79.3125 49.488281 79.183594 C 49.324219 79.050781 49.132812 78.988281 48.921875 78.988281 C 48.671875 78.988281 48.449219 79.078125 48.257812 79.265625 C 48.152344 79.363281 48.042969 79.519531 47.921875 79.730469 L 47.8125 79.707031 C 47.90625 79.359375 48.074219 79.082031 48.324219 78.875 C 48.570312 78.667969 48.859375 78.5625 49.183594 78.5625 C 49.53125 78.5625 49.804688 78.660156 49.992188 78.851562 C 50.183594 79.042969 50.277344 79.261719 50.277344 79.511719 C 50.277344 79.734375 50.199219 79.9375 50.042969 80.121094 C 49.953125 80.226562 49.816406 80.34375 49.628906 80.472656 C 49.847656 80.566406 50.023438 80.675781 50.15625 80.800781 C 50.40625 81.042969 50.527344 81.34375 50.527344 81.710938 C 50.527344 82.144531 50.359375 82.527344 50.015625 82.855469 C 49.675781 83.1875 49.191406 83.351562 48.5625 83.351562 C 48.28125 83.351562 48.085938 83.308594 47.972656 83.226562 C 47.859375 83.144531 47.804688 83.054688 47.804688 82.957031 C 47.804688 82.898438 47.824219 82.84375 47.859375 82.789062 C 47.898438 82.734375 47.960938 82.707031 48.042969 82.707031 Z M 47.5 78.050781 "/>
<path style="fill:none;stroke-width:0.5;stroke-linecap:butt;stroke-linejoin:miter;stroke:rgb(0%,0%,0%);stroke-opacity:1;stroke-miterlimit:4;" d="M 148.667969 -82 C 148.667969 -82 141.332031 -82 141.332031 -82 C 137.667969 -82 134 -78.332031 134 -74.667969 C 134 -74.667969 134 -67.332031 134 -67.332031 C 134 -63.667969 137.667969 -60 141.332031 -60 C 141.332031 -60 148.667969 -60 148.667969 -60 C 152.332031 -60 156 -63.667969 156 -67.332031 C 156 -67.332031 156 -74.667969 156 -74.667969 C 156 -78.332031 152.332031 -82 148.667969 -82 " transform="matrix(1,0,0,1,4,146)"/>
<path style=" stroke:none;fill-rule:nonzero;fill:rgb(25.098041%,25.098041%,25.098041%);fill-opacity:1;" d="M 149.007812 76.5625 L 149.96875 72.71875 L 150.886719 72.71875 L 149.160156 78.746094 C 149.027344 79.199219 148.84375 79.542969 148.605469 79.78125 C 148.371094 80.015625 148.097656 80.132812 147.796875 80.132812 C 147.679688 80.132812 147.53125 80.109375 147.347656 80.054688 L 147.347656 79.324219 L 147.539062 79.34375 C 147.789062 79.34375 147.984375 79.285156 148.125 79.164062 C 148.269531 79.046875 148.382812 78.839844 148.472656 78.546875 L 148.640625 77.957031 L 147.089844 72.71875 L 148.03125 72.71875 Z M 146.917969 68.722656 "/>
<path style="fill:none;stroke-width:1;stroke-linecap:butt;stroke-linejoin:miter;stroke:rgb(25.098041%,25.098041%,25.098041%);stroke-opacity:1;stroke-miterlimit:4;" d="M 97.148438 -71 C 107.128906 -71 119.859375 -71 129.683594 -71 " transform="matrix(1,0,0,1,4,146)"/>
<path style="fill-rule:nonzero;fill:rgb(25.098041%,25.098041%,25.098041%);fill-opacity:1;stroke-width:1;stroke-linecap:butt;stroke-linejoin:miter;stroke:rgb(25.098041%,25.098041%,25.098041%);stroke-opacity:1;stroke-miterlimit:4;" d="M 133.695312 -71 C 133.695312 -69.894531 132.800781 -69 131.695312 -69 C 130.589844 -69 129.695312 -69.894531 129.695312 -71 C 129.695312 -72.105469 130.589844 -73 131.695312 -73 C 132.800781 -73 133.695312 -72.105469 133.695312 -71 Z M 133.695312 -71 " transform="matrix(1,0,0,1,4,146)"/>
<path style="fill-rule:nonzero;fill:rgb(89.803922%,89.803922%,89.803922%);fill-opacity:1;stroke-width:0.5;stroke-linecap:butt;stroke-linejoin:miter;stroke:rgb(49.803922%,49.803922%,49.803922%);stroke-opacity:1;stroke-miterlimit:4;" d="M 22 -11 C 22 -4.925781 17.074219 0 11 0 C 4.925781 0 0 -4.925781 0 -11 C 0 -17.074219 4.925781 -22 11 -22 C 17.074219 -22 22 -17.074219 22 -11 Z M 22 -11 " transform="matrix(1,0,0,1,4,146)"/>
<path style=" stroke:none;fill-rule:nonzero;fill:rgb(25.098041%,25.098041%,25.098041%);fill-opacity:1;" d="M 8.652344 136.199219 L 8.304688 136.199219 L 8.304688 134.085938 L 8.652344 134.085938 Z M 8.675781 133.527344 C 8.675781 133.585938 8.660156 133.632812 8.628906 133.671875 C 8.597656 133.710938 8.546875 133.730469 8.480469 133.730469 C 8.414062 133.730469 8.367188 133.710938 8.332031 133.671875 C 8.300781 133.632812 8.285156 133.582031 8.285156 133.527344 C 8.285156 133.46875 8.300781 133.417969 8.332031 133.378906 C 8.367188 133.335938 8.414062 133.316406 8.480469 133.316406 C 8.546875 133.316406 8.59375 133.335938 8.628906 133.378906 C 8.660156 133.417969 8.675781 133.46875 8.675781 133.527344 Z M 9.523438 134.085938 L 9.53125 134.316406 C 9.664062 134.136719 9.835938 134.046875 10.046875 134.046875 C 10.417969 134.046875 10.609375 134.296875 10.613281 134.792969 L 10.613281 136.199219 L 10.269531 136.199219 L 10.269531 134.808594 C 10.269531 134.644531 10.242188 134.527344 10.1875 134.457031 C 10.132812 134.386719 10.046875 134.355469 9.9375 134.355469 C 9.851562 134.355469 9.773438 134.382812 9.707031 134.441406 C 9.636719 134.496094 9.582031 134.570312 9.539062 134.664062 L 9.539062 136.199219 L 9.195312 136.199219 L 9.195312 134.085938 Z M 11.582031 133.574219 L 11.582031 134.085938 L 11.902344 134.085938 L 11.902344 134.363281 L 11.582031 134.363281 L 11.582031 135.675781 C 11.582031 135.757812 11.597656 135.824219 11.621094 135.863281 C 11.648438 135.90625 11.699219 135.929688 11.761719 135.929688 C 11.808594 135.929688 11.855469 135.921875 11.902344 135.90625 L 11.898438 136.199219 C 11.820312 136.226562 11.738281 136.238281 11.660156 136.238281 C 11.523438 136.238281 11.417969 136.191406 11.347656 136.089844 C 11.273438 135.992188 11.238281 135.855469 11.238281 135.675781 L 11.238281 134.363281 L 10.917969 134.363281 L 10.917969 134.085938 L 11.238281 134.085938 L 11.238281 133.574219 Z M 13.070312 136.238281 C 12.804688 136.238281 12.601562 136.160156 12.460938 136.003906 C 12.320312 135.847656 12.25 135.617188 12.25 135.3125 L 12.25 135.058594 C 12.25 134.742188 12.316406 134.496094 12.453125 134.316406 C 12.589844 134.136719 12.78125 134.046875 13.03125 134.046875 C 13.277344 134.046875 13.460938 134.125 13.585938 134.285156 C 13.707031 134.441406 13.769531 134.6875 13.773438 135.019531 L 13.773438 135.246094 L 12.59375 135.246094 L 12.59375 135.292969 C 12.59375 135.519531 12.632812 135.6875 12.71875 135.789062 C 12.804688 135.890625 12.929688 135.941406 13.085938 135.941406 C 13.1875 135.941406 13.277344 135.925781 13.355469 135.886719 C 13.433594 135.847656 13.507812 135.785156 13.574219 135.703125 L 13.753906 135.921875 C 13.605469 136.132812 13.375 136.238281 13.070312 136.238281 Z M 13.03125 134.34375 C 12.886719 134.34375 12.78125 134.394531 12.710938 134.492188 C 12.640625 134.589844 12.601562 134.742188 12.59375 134.949219 L 13.425781 134.949219 L 13.425781 134.902344 C 13.417969 134.703125 13.378906 134.558594 13.316406 134.472656 C 13.253906 134.386719 13.15625 134.34375 13.03125 134.34375 Z M 15.058594 134.410156 C 15.007812 134.402344 14.957031 134.394531 14.902344 134.394531 C 14.722656 134.394531 14.597656 134.492188 14.527344 134.6875 L 14.527344 136.199219 L 14.183594 136.199219 L 14.183594 134.085938 L 14.519531 134.085938 L 14.527344 134.300781 C 14.617188 134.132812 14.75 134.046875 14.917969 134.046875 C 14.972656 134.046875 15.019531 134.054688 15.054688 134.074219 Z M 16.097656 135.941406 C 16.210938 135.941406 16.304688 135.90625 16.371094 135.835938 C 16.441406 135.765625 16.480469 135.664062 16.488281 135.535156 L 16.8125 135.535156 C 16.804688 135.738281 16.734375 135.90625 16.597656 136.039062 C 16.460938 136.171875 16.292969 136.238281 16.097656 136.238281 C 15.835938 136.238281 15.636719 136.15625 15.5 135.992188 C 15.363281 135.828125 15.292969 135.582031 15.292969 135.253906 L 15.292969 135.023438 C 15.292969 134.703125 15.363281 134.460938 15.496094 134.296875 C 15.632812 134.128906 15.832031 134.046875 16.097656 134.046875 C 16.3125 134.046875 16.484375 134.113281 16.609375 134.253906 C 16.738281 134.390625 16.804688 134.574219 16.8125 134.8125 L 16.488281 134.8125 C 16.480469 134.65625 16.441406 134.539062 16.375 134.460938 C 16.308594 134.382812 16.214844 134.34375 16.097656 134.34375 C 15.941406 134.34375 15.828125 134.394531 15.753906 134.496094 C 15.679688 134.597656 15.640625 134.761719 15.636719 134.992188 L 15.636719 135.261719 C 15.636719 135.511719 15.675781 135.6875 15.75 135.789062 C 15.824219 135.890625 15.9375 135.941406 16.097656 135.941406 Z M 17.96875 136.238281 C 17.703125 136.238281 17.5 136.160156 17.359375 136.003906 C 17.21875 135.847656 17.148438 135.617188 17.148438 135.3125 L 17.148438 135.058594 C 17.148438 134.742188 17.214844 134.496094 17.351562 134.316406 C 17.488281 134.136719 17.679688 134.046875 17.929688 134.046875 C 18.175781 134.046875 18.359375 134.125 18.484375 134.285156 C 18.605469 134.441406 18.667969 134.6875 18.671875 135.019531 L 18.671875 135.246094 L 17.492188 135.246094 L 17.492188 135.292969 C 17.492188 135.519531 17.53125 135.6875 17.617188 135.789062 C 17.703125 135.890625 17.828125 135.941406 17.984375 135.941406 C 18.085938 135.941406 18.175781 135.925781 18.253906 135.886719 C 18.332031 135.847656 18.40625 135.785156 18.472656 135.703125 L 18.652344 135.921875 C 18.503906 136.132812 18.273438 136.238281 17.96875 136.238281 Z M 17.929688 134.34375 C 17.785156 134.34375 17.679688 134.394531 17.609375 134.492188 C 17.539062 134.589844 17.5 134.742188 17.492188 134.949219 L 18.324219 134.949219 L 18.324219 134.902344 C 18.316406 134.703125 18.277344 134.558594 18.214844 134.472656 C 18.152344 134.386719 18.054688 134.34375 17.929688 134.34375 Z M 20.613281 135.246094 C 20.613281 135.578125 20.554688 135.828125 20.433594 135.992188 C 20.3125 136.15625 20.140625 136.238281 19.921875 136.238281 C 19.710938 136.238281 19.546875 136.160156 19.429688 135.996094 L 19.429688 137.011719 L 19.085938 137.011719 L 19.085938 134.085938 L 19.398438 134.085938 L 19.417969 134.320312 C 19.535156 134.136719 19.699219 134.046875 19.914062 134.046875 C 20.148438 134.046875 20.320312 134.128906 20.4375 134.289062 C 20.550781 134.449219 20.609375 134.691406 20.613281 135.011719 Z M 20.269531 135.046875 C 20.269531 134.808594 20.234375 134.636719 20.160156 134.523438 C 20.085938 134.410156 19.96875 134.355469 19.808594 134.355469 C 19.644531 134.355469 19.515625 134.4375 19.429688 134.601562 L 19.429688 135.699219 C 19.515625 135.863281 19.644531 135.941406 19.8125 135.941406 C 19.96875 135.941406 20.082031 135.886719 20.15625 135.773438 C 20.230469 135.660156 20.269531 135.488281 20.269531 135.257812 Z M 21.507812 133.574219 L 21.507812 134.085938 L 21.828125 134.085938 L 21.828125 134.363281 L 21.507812 134.363281 L 21.507812 135.675781 C 21.507812 135.757812 21.523438 135.824219 21.546875 135.863281 C 21.574219 135.90625 21.625 135.929688 21.6875 135.929688 C 21.734375 135.929688 21.78125 135.921875 21.828125 135.90625 L 21.824219 136.199219 C 21.746094 136.226562 21.664062 136.238281 21.585938 136.238281 C 21.449219 136.238281 21.34375 136.191406 21.273438 136.089844 C 21.199219 135.992188 21.164062 135.855469 21.164062 135.675781 L 21.164062 134.363281 L 20.84375 134.363281 L 20.84375 134.085938 L 21.164062 134.085938 L 21.164062 133.574219 Z M 8.019531 132.488281 "/>
<path style="fill:none;stroke-width:0.5;stroke-linecap:butt;stroke-linejoin:miter;stroke:rgb(32.941177%,32.941177%,32.941177%);stroke-opacity:1;stroke-miterlimit:4;" d="M 19.582031 -18.355469 C 31.371094 -28.460938 52.714844 -46.757812 66.875 -58.894531 " transform="matrix(1,0,0,1,4,146)"/>
<path style="fill-rule:nonzero;fill:rgb(32.941177%,32.941177%,32.941177%);fill-opacity:1;stroke-width:0.5;stroke-linecap:butt;stroke-linejoin:miter;stroke:rgb(32.941177%,32.941177%,32.941177%);stroke-opacity:1;stroke-miterlimit:4;" d="M 68.808594 -59.691406 C 68.808594 -59.140625 68.359375 -58.691406 67.808594 -58.691406 C 67.253906 -58.691406 66.808594 -59.140625 66.808594 -59.691406 C 66.808594 -60.242188 67.253906 -60.691406 67.808594 -60.691406 C 68.359375 -60.691406 68.808594 -60.242188 68.808594 -59.691406 Z M 68.808594 -59.691406 " transform="matrix(1,0,0,1,4,146)"/>
<path style=" stroke:none;fill-rule:nonzero;fill:rgb(25.098041%,25.098041%,25.098041%);fill-opacity:1;" d="M 44.023438 97.550781 L 44.023438 97.433594 C 44.285156 97.375 44.515625 97.308594 44.726562 97.234375 C 44.933594 97.164062 45.042969 97.125 45.058594 97.125 C 45.0625 97.140625 45.066406 97.15625 45.066406 97.167969 L 45.066406 99.25 C 45.125 99.140625 45.214844 99.035156 45.332031 98.9375 C 45.542969 98.765625 45.785156 98.683594 46.058594 98.683594 C 46.394531 98.683594 46.679688 98.824219 46.914062 99.105469 C 47.152344 99.386719 47.269531 99.753906 47.269531 100.207031 C 47.269531 100.691406 47.117188 101.101562 46.808594 101.445312 C 46.5 101.789062 46.097656 101.964844 45.597656 101.964844 C 45.34375 101.964844 45.09375 101.914062 44.851562 101.8125 C 44.609375 101.710938 44.484375 101.613281 44.484375 101.511719 L 44.484375 97.898438 C 44.484375 97.765625 44.46875 97.671875 44.429688 97.617188 C 44.394531 97.5625 44.308594 97.535156 44.179688 97.535156 Z M 45.054688 101.398438 C 45.074219 101.515625 45.164062 101.601562 45.320312 101.652344 C 45.476562 101.703125 45.613281 101.730469 45.734375 101.730469 C 46.050781 101.730469 46.289062 101.609375 46.441406 101.371094 C 46.59375 101.132812 46.671875 100.84375 46.671875 100.503906 C 46.671875 100.164062 46.601562 99.851562 46.457031 99.5625 C 46.3125 99.273438 46.082031 99.128906 45.761719 99.128906 C 45.597656 99.128906 45.441406 99.179688 45.285156 99.277344 C 45.128906 99.378906 45.054688 99.503906 45.054688 99.65625 Z M 44 96.648438 "/>
<path style=" stroke:none;fill-rule:nonzero;fill:rgb(25.098041%,25.098041%,25.098041%);fill-opacity:1;" d="M 49.175781 103.175781 C 49.511719 103.175781 49.738281 102.992188 49.867188 102.625 C 49.992188 102.257812 50.054688 101.726562 50.054688 101.03125 C 50.054688 100.476562 50.015625 100.035156 49.941406 99.707031 C 49.800781 99.089844 49.535156 98.78125 49.148438 98.78125 C 48.761719 98.78125 48.496094 99.097656 48.351562 99.730469 C 48.277344 100.070312 48.238281 100.515625 48.238281 101.066406 C 48.238281 101.582031 48.277344 101.996094 48.355469 102.304688 C 48.5 102.882812 48.773438 103.175781 49.175781 103.175781 Z M 49.164062 98.597656 C 49.6875 98.597656 50.09375 98.871094 50.382812 99.421875 C 50.613281 99.867188 50.730469 100.375 50.730469 100.953125 C 50.730469 101.40625 50.660156 101.832031 50.519531 102.234375 C 50.25 102.988281 49.789062 103.367188 49.132812 103.367188 C 48.683594 103.367188 48.316406 103.160156 48.027344 102.753906 C 47.71875 102.320312 47.5625 101.726562 47.5625 100.980469 C 47.5625 100.390625 47.664062 99.886719 47.871094 99.460938 C 48.152344 98.886719 48.582031 98.597656 49.164062 98.597656 Z M 47.5 98.050781 "/>
</g>
</svg>
