<?xml version="1.0" encoding="utf-8"?>
<!-- Generator: Adobe Illustrator 16.0.3, SVG Export Plug-In . SVG Version: 6.00 Build 0)  -->
<!DOCTYPE svg PUBLIC "-//W3C//DTD SVG 1.1//EN" "http://www.w3.org/Graphics/SVG/1.1/DTD/svg11.dtd">
<svg version="1.1" id="Layer_1" xmlns="http://www.w3.org/2000/svg" xmlns:xlink="http://www.w3.org/1999/xlink" x="0px" y="0px"
	 width="151.923px" height="73.798px" viewBox="0 0 151.923 73.798" enable-background="new 0 0 151.923 73.798"
	 xml:space="preserve">
<rect x="123.148" y="36.16" fill="#FFFFFF" stroke="#939598" stroke-width="0.5" stroke-miterlimit="10" width="28.275" height="14.482"/>
<text transform="matrix(1 0 0 1 129.1099 45.75)" fill="#00AEEF" font-family="'MyriadPro-Regular'" font-size="8">Train</text>
<rect x="80.712" y="36.16" fill="#FFFFFF" stroke="#939598" stroke-width="0.5" stroke-miterlimit="10" width="28.275" height="14.482"/>
<text transform="matrix(1 0 0 1 88.2383 45.75)" fill="#F26522" font-family="'MyriadPro-Regular'" font-size="8">Test</text>
<rect x="38.276" y="36.16" fill="#FFFFFF" stroke="#939598" stroke-width="0.5" stroke-miterlimit="10" width="28.275" height="14.482"/>
<text transform="matrix(1 0 0 1 44.2383 45.75)" fill="#00AEEF" font-family="'MyriadPro-Regular'" font-size="8">Train</text>
<rect x="123.148" y="13.505" fill="#FFFFFF" stroke="#939598" stroke-width="0.5" stroke-miterlimit="10" width="28.275" height="14.482"/>
<text transform="matrix(1 0 0 1 130.6733 23.0938)" fill="#F26522" font-family="'MyriadPro-Regular'" font-size="8">Test</text>
<rect x="80.712" y="13.505" fill="#FFFFFF" stroke="#939598" stroke-width="0.5" stroke-miterlimit="10" width="28.275" height="14.482"/>
<text transform="matrix(1 0 0 1 86.6743 23.0938)" fill="#00AEEF" font-family="'MyriadPro-Regular'" font-size="8">Train</text>
<rect x="38.276" y="13.505" fill="#FFFFFF" stroke="#939598" stroke-width="0.5" stroke-miterlimit="10" width="28.275" height="14.482"/>
<text transform="matrix(1 0 0 1 44.2383 23.0938)" fill="#00AEEF" font-family="'MyriadPro-Regular'" font-size="8">Train</text>
<rect x="123.148" y="58.815" fill="#FFFFFF" stroke="#939598" stroke-width="0.5" stroke-miterlimit="10" width="28.275" height="14.482"/>
<text transform="matrix(1 0 0 1 129.1099 68.4043)" fill="#00AEEF" font-family="'MyriadPro-Regular'" font-size="8">Train</text>
<rect x="80.712" y="58.815" fill="#FFFFFF" stroke="#939598" stroke-width="0.5" stroke-miterlimit="10" width="28.275" height="14.482"/>
<text transform="matrix(1 0 0 1 86.6743 68.4043)" fill="#00AEEF" font-family="'MyriadPro-Regular'" font-size="8">Train</text>
<rect x="38.276" y="58.815" fill="#FFFFFF" stroke="#939598" stroke-width="0.5" stroke-miterlimit="10" width="28.275" height="14.482"/>
<text transform="matrix(1 0 0 1 45.8018 68.4043)" fill="#F26522" font-family="'MyriadPro-Regular'" font-size="8">Test</text>
<text transform="matrix(1 0 0 1 39.5205 5.0229)" fill="#58595B" font-family="'MyriadPro-Regular'" font-size="6">Partition 1</text>
<text transform="matrix(1 0 0 1 124.3921 5.0225)" fill="#58595B" font-family="'MyriadPro-Regular'" font-size="6">Partition 3</text>
<text transform="matrix(1 0 0 1 81.9565 5.022)" fill="#58595B" font-family="'MyriadPro-Regular'" font-size="6">Partition 2</text>
<text transform="matrix(1 0 0 1 4.882813e-004 20.7461)" fill="#A7A9AC" font-family="'MyriadPro-Regular'" font-size="6">Iteration 1</text>
<text transform="matrix(1 0 0 1 0 43.4014)" fill="#A7A9AC" font-family="'MyriadPro-Regular'" font-size="6">Iteration 2</text>
<text transform="matrix(1 0 0 1 4.882813e-004 68.4043)" fill="#A7A9AC" font-family="'MyriadPro-Regular'" font-size="6">Iteration 3</text>
</svg>
