<svg xmlns="http://www.w3.org/2000/svg" width="1440" height="684" style="cursor: move;"><g transform="translate(0,-1) scale(1)"><path class="link" marker-end="" d="M548.3333333333334,283C612.8333333333334,283 612.8333333333334,283 677.3333333333334,283" style="stroke-width: 0.805187; stroke-opacity: 0.745544; stroke: rgb(80, 80, 80); fill: none;"></path><path class="link" marker-end="" d="M548.3333333333334,283C612.8333333333334,283 612.8333333333334,329 677.3333333333334,329" style="stroke-width: 0.782996; stroke-opacity: 0.724997; stroke: rgb(80, 80, 80); fill: none;"></path><path class="link" marker-end="" d="M548.3333333333334,283C612.8333333333334,283 612.8333333333334,375 677.3333333333334,375" style="stroke-width: 0.931987; stroke-opacity: 0.862951; stroke: rgb(80, 80, 80); fill: none;"></path><path class="link" marker-end="" d="M548.3333333333334,283C612.8333333333334,283 612.8333333333334,421 677.3333333333334,421" style="stroke-width: 0.480586; stroke-opacity: 0.444987; stroke: rgb(80, 80, 80); fill: none;"></path><path class="link" marker-end="" d="M548.3333333333334,329C612.8333333333334,329 612.8333333333334,283 677.3333333333334,283" style="stroke-width: 0.291255; stroke-opacity: 0.269681; stroke: rgb(80, 80, 80); fill: none;"></path><path class="link" marker-end="" d="M548.3333333333334,329C612.8333333333334,329 612.8333333333334,329 677.3333333333334,329" style="stroke-width: 0.543139; stroke-opacity: 0.502907; stroke: rgb(80, 80, 80); fill: none;"></path><path class="link" marker-end="" d="M548.3333333333334,329C612.8333333333334,329 612.8333333333334,375 677.3333333333334,375" style="stroke-width: 0.198984; stroke-opacity: 0.184245; stroke: rgb(80, 80, 80); fill: none;"></path><path class="link" marker-end="" d="M548.3333333333334,329C612.8333333333334,329 612.8333333333334,421 677.3333333333334,421" style="stroke-width: 0.67722; stroke-opacity: 0.627056; stroke: rgb(80, 80, 80); fill: none;"></path><path class="link" marker-end="" d="M548.3333333333334,375C612.8333333333334,375 612.8333333333334,283 677.3333333333334,283" style="stroke-width: 0.882191; stroke-opacity: 0.816844; stroke: rgb(80, 80, 80); fill: none;"></path><path class="link" marker-end="" d="M548.3333333333334,375C612.8333333333334,375 612.8333333333334,329 677.3333333333334,329" style="stroke-width: 0.814947; stroke-opacity: 0.75458; stroke: rgb(80, 80, 80); fill: none;"></path><path class="link" marker-end="" d="M548.3333333333334,375C612.8333333333334,375 612.8333333333334,375 677.3333333333334,375" style="stroke-width: 0.831941; stroke-opacity: 0.770316; stroke: rgb(80, 80, 80); fill: none;"></path><path class="link" marker-end="" d="M548.3333333333334,375C612.8333333333334,375 612.8333333333334,421 677.3333333333334,421" style="stroke-width: 0.574488; stroke-opacity: 0.531934; stroke: rgb(80, 80, 80); fill: none;"></path><path class="link" marker-end="" d="M677.3333333333334,237C741.8333333333334,237 741.8333333333334,283 806.3333333333334,283" style="stroke-width: 0.516923; stroke-opacity: 0.478633; stroke: rgb(80, 80, 80); fill: none;"></path><path class="link" marker-end="" d="M677.3333333333334,237C741.8333333333334,237 741.8333333333334,329 806.3333333333334,329" style="stroke-width: 0.20183; stroke-opacity: 0.18688; stroke: rgb(80, 80, 80); fill: none;"></path><path class="link" marker-end="" d="M677.3333333333334,237C741.8333333333334,237 741.8333333333334,375 806.3333333333334,375" style="stroke-width: 0.352977; stroke-opacity: 0.326831; stroke: rgb(80, 80, 80); fill: none;"></path><path class="link" marker-end="" d="M677.3333333333334,237C741.8333333333334,237 741.8333333333334,421 806.3333333333334,421" style="stroke-width: 0.75131; stroke-opacity: 0.695658; stroke: rgb(80, 80, 80); fill: none;"></path><path class="link" marker-end="" d="M677.3333333333334,283C741.8333333333334,283 741.8333333333334,283 806.3333333333334,283" style="stroke-width: 0.0972638; stroke-opacity: 0.090059; stroke: rgb(80, 80, 80); fill: none;"></path><path class="link" marker-end="" d="M677.3333333333334,283C741.8333333333334,283 741.8333333333334,329 806.3333333333334,329" style="stroke-width: 0.0841879; stroke-opacity: 0.0779517; stroke: rgb(80, 80, 80); fill: none;"></path><path class="link" marker-end="" d="M677.3333333333334,283C741.8333333333334,283 741.8333333333334,375 806.3333333333334,375" style="stroke-width: 0.496144; stroke-opacity: 0.459392; stroke: rgb(80, 80, 80); fill: none;"></path><path class="link" marker-end="" d="M677.3333333333334,283C741.8333333333334,283 741.8333333333334,421 806.3333333333334,421" style="stroke-width: 0.798338; stroke-opacity: 0.739202; stroke: rgb(80, 80, 80); fill: none;"></path><path class="link" marker-end="" d="M677.3333333333334,329C741.8333333333334,329 741.8333333333334,283 806.3333333333334,283" style="stroke-width: 0.447635; stroke-opacity: 0.414477; stroke: rgb(80, 80, 80); fill: none;"></path><path class="link" marker-end="" d="M677.3333333333334,329C741.8333333333334,329 741.8333333333334,329 806.3333333333334,329" style="stroke-width: 0.781636; stroke-opacity: 0.723737; stroke: rgb(80, 80, 80); fill: none;"></path><path class="link" marker-end="" d="M677.3333333333334,329C741.8333333333334,329 741.8333333333334,375 806.3333333333334,375" style="stroke-width: 1.01429; stroke-opacity: 0.939161; stroke: rgb(80, 80, 80); fill: none;"></path><path class="link" marker-end="" d="M677.3333333333334,329C741.8333333333334,329 741.8333333333334,421 806.3333333333334,421" style="stroke-width: 0.862358; stroke-opacity: 0.79848; stroke: rgb(80, 80, 80); fill: none;"></path><path class="link" marker-end="" d="M677.3333333333334,375C741.8333333333334,375 741.8333333333334,283 806.3333333333334,283" style="stroke-width: 0.139884; stroke-opacity: 0.129522; stroke: rgb(80, 80, 80); fill: none;"></path><path class="link" marker-end="" d="M677.3333333333334,375C741.8333333333334,375 741.8333333333334,329 806.3333333333334,329" style="stroke-width: 0.727305; stroke-opacity: 0.673431; stroke: rgb(80, 80, 80); fill: none;"></path><path class="link" marker-end="" d="M677.3333333333334,375C741.8333333333334,375 741.8333333333334,375 806.3333333333334,375" style="stroke-width: 0.192806; stroke-opacity: 0.178524; stroke: rgb(80, 80, 80); fill: none;"></path><path class="link" marker-end="" d="M677.3333333333334,375C741.8333333333334,375 741.8333333333334,421 806.3333333333334,421" style="stroke-width: 1.06953; stroke-opacity: 0.99031; stroke: rgb(80, 80, 80); fill: none;"></path><path class="link" marker-end="" d="M677.3333333333334,421C741.8333333333334,421 741.8333333333334,283 806.3333333333334,283" style="stroke-width: 0.221101; stroke-opacity: 0.204723; stroke: rgb(80, 80, 80); fill: none;"></path><path class="link" marker-end="" d="M677.3333333333334,421C741.8333333333334,421 741.8333333333334,329 806.3333333333334,329" style="stroke-width: 0.557998; stroke-opacity: 0.516665; stroke: rgb(80, 80, 80); fill: none;"></path><path class="link" marker-end="" d="M677.3333333333334,421C741.8333333333334,421 741.8333333333334,375 806.3333333333334,375" style="stroke-width: 1.00669; stroke-opacity: 0.932117; stroke: rgb(80, 80, 80); fill: none;"></path><path class="link" marker-end="" d="M677.3333333333334,421C741.8333333333334,421 741.8333333333334,421 806.3333333333334,421" style="stroke-width: 0.757533; stroke-opacity: 0.70142; stroke: rgb(80, 80, 80); fill: none;"></path><path class="link" marker-end="" d="M806.3333333333334,237C870.8333333333334,237 870.8333333333334,329 935.3333333333334,329" style="stroke-width: 0.966918; stroke-opacity: 0.895295; stroke: rgb(80, 80, 80); fill: none;"></path><path class="link" marker-end="" d="M806.3333333333334,237C870.8333333333334,237 870.8333333333334,375 935.3333333333334,375" style="stroke-width: 0.759882; stroke-opacity: 0.703595; stroke: rgb(80, 80, 80); fill: none;"></path><path class="link" marker-end="" d="M806.3333333333334,283C870.8333333333334,283 870.8333333333334,329 935.3333333333334,329" style="stroke-width: 0.0394302; stroke-opacity: 0.0365094; stroke: rgb(80, 80, 80); fill: none;"></path><path class="link" marker-end="" d="M806.3333333333334,283C870.8333333333334,283 870.8333333333334,375 935.3333333333334,375" style="stroke-width: 0.395496; stroke-opacity: 0.3662; stroke: rgb(80, 80, 80); fill: none;"></path><path class="link" marker-end="" d="M806.3333333333334,329C870.8333333333334,329 870.8333333333334,329 935.3333333333334,329" style="stroke-width: 0.284047; stroke-opacity: 0.263007; stroke: rgb(80, 80, 80); fill: none;"></path><path class="link" marker-end="" d="M806.3333333333334,329C870.8333333333334,329 870.8333333333334,375 935.3333333333334,375" style="stroke-width: 0.07419; stroke-opacity: 0.0686944; stroke: rgb(80, 80, 80); fill: none;"></path><path class="link" marker-end="" d="M806.3333333333334,375C870.8333333333334,375 870.8333333333334,329 935.3333333333334,329" style="stroke-width: 0.25602; stroke-opacity: 0.237056; stroke: rgb(80, 80, 80); fill: none;"></path><path class="link" marker-end="" d="M806.3333333333334,375C870.8333333333334,375 870.8333333333334,375 935.3333333333334,375" style="stroke-width: 0.778736; stroke-opacity: 0.721051; stroke: rgb(80, 80, 80); fill: none;"></path><path class="link" marker-end="" d="M806.3333333333334,421C870.8333333333334,421 870.8333333333334,329 935.3333333333334,329" style="stroke-width: 1.01272; stroke-opacity: 0.937707; stroke: rgb(80, 80, 80); fill: none;"></path><path class="link" marker-end="" d="M806.3333333333334,421C870.8333333333334,421 870.8333333333334,375 935.3333333333334,375" style="stroke-width: 0.733984; stroke-opacity: 0.679615; stroke: rgb(80, 80, 80); fill: none;"></path><path class="link" marker-end="" d="M935.3333333333334,283C999.8333333333333,283 999.8333333333333,329 1064.3333333333333,329" style="stroke-width: 0.699457; stroke-opacity: 0.647645; stroke: rgb(80, 80, 80); fill: none;"></path><path class="link" marker-end="" d="M935.3333333333334,329C999.8333333333333,329 999.8333333333333,329 1064.3333333333333,329" style="stroke-width: 0.58688; stroke-opacity: 0.543407; stroke: rgb(80, 80, 80); fill: none;"></path><path class="link" marker-end="" d="M935.3333333333334,375C999.8333333333333,375 999.8333333333333,329 1064.3333333333333,329" style="stroke-width: 0.480201; stroke-opacity: 0.444631; stroke: rgb(80, 80, 80); fill: none;"></path><path class="link" marker-end="" d="M548.3333333333334,283C612.8333333333334,283 612.8333333333334,237 677.3333333333334,237" style="stroke-width: 1.06926; stroke-opacity: 0.990054; stroke: rgb(80, 80, 80); fill: none;"></path><path class="link" marker-end="" d="M548.3333333333334,329C612.8333333333334,329 612.8333333333334,237 677.3333333333334,237" style="stroke-width: 0.553016; stroke-opacity: 0.512052; stroke: rgb(80, 80, 80); fill: none;"></path><path class="link" marker-end="" d="M548.3333333333334,375C612.8333333333334,375 612.8333333333334,237 677.3333333333334,237" style="stroke-width: 0.428682; stroke-opacity: 0.396928; stroke: rgb(80, 80, 80); fill: none;"></path><path class="link" marker-end="" d="M677.3333333333334,237C741.8333333333334,237 741.8333333333334,237 806.3333333333334,237" style="stroke-width: 1.05919; stroke-opacity: 0.980736; stroke: rgb(80, 80, 80); fill: none;"></path><path class="link" marker-end="" d="M677.3333333333334,283C741.8333333333334,283 741.8333333333334,237 806.3333333333334,237" style="stroke-width: 0.397494; stroke-opacity: 0.36805; stroke: rgb(80, 80, 80); fill: none;"></path><path class="link" marker-end="" d="M677.3333333333334,329C741.8333333333334,329 741.8333333333334,237 806.3333333333334,237" style="stroke-width: 0.253988; stroke-opacity: 0.235174; stroke: rgb(80, 80, 80); fill: none;"></path><path class="link" marker-end="" d="M677.3333333333334,375C741.8333333333334,375 741.8333333333334,237 806.3333333333334,237" style="stroke-width: 0.83896; stroke-opacity: 0.776815; stroke: rgb(80, 80, 80); fill: none;"></path><path class="link" marker-end="" d="M677.3333333333334,421C741.8333333333334,421 741.8333333333334,237 806.3333333333334,237" style="stroke-width: 0.562327; stroke-opacity: 0.520673; stroke: rgb(80, 80, 80); fill: none;"></path><path class="link" marker-end="" d="M806.3333333333334,237C870.8333333333334,237 870.8333333333334,283 935.3333333333334,283" style="stroke-width: 0.0751762; stroke-opacity: 0.0696076; stroke: rgb(80, 80, 80); fill: none;"></path><path class="link" marker-end="" d="M806.3333333333334,283C870.8333333333334,283 870.8333333333334,283 935.3333333333334,283" style="stroke-width: 0.950922; stroke-opacity: 0.880484; stroke: rgb(80, 80, 80); fill: none;"></path><path class="link" marker-end="" d="M806.3333333333334,329C870.8333333333334,329 870.8333333333334,283 935.3333333333334,283" style="stroke-width: 0.446999; stroke-opacity: 0.413888; stroke: rgb(80, 80, 80); fill: none;"></path><path class="link" marker-end="" d="M806.3333333333334,375C870.8333333333334,375 870.8333333333334,283 935.3333333333334,283" style="stroke-width: 0.50796; stroke-opacity: 0.470333; stroke: rgb(80, 80, 80); fill: none;"></path><path class="link" marker-end="" d="M806.3333333333334,421C870.8333333333334,421 870.8333333333334,283 935.3333333333334,283" style="stroke-width: 0.594885; stroke-opacity: 0.55082; stroke: rgb(80, 80, 80); fill: none;"></path><circle r="13" class="node" id="0_0" cx="548.3333333333334" cy="283" style="fill: rgb(255, 255, 248); stroke: rgb(255, 85, 0);"></circle><circle r="13" class="node" id="0_1" cx="548.3333333333334" cy="329" style="fill: rgb(255, 255, 248); stroke: rgb(255, 85, 0);"></circle><circle r="13" class="node" id="0_2" cx="548.3333333333334" cy="375" style="fill: rgb(255, 255, 248); stroke: rgb(255, 85, 0);"></circle><circle r="13" class="node" id="1_0" cx="677.3333333333334" cy="237" style="fill: rgb(255, 255, 248); stroke: rgb(255, 85, 0);"></circle><circle r="13" class="node" id="1_1" cx="677.3333333333334" cy="283" style="fill: rgb(255, 255, 248); stroke: rgb(255, 85, 0);"></circle><circle r="13" class="node" id="1_2" cx="677.3333333333334" cy="329" style="fill: rgb(255, 255, 248); stroke: rgb(255, 85, 0);"></circle><circle r="13" class="node" id="1_3" cx="677.3333333333334" cy="375" style="fill: rgb(255, 255, 248); stroke: rgb(255, 85, 0);"></circle><circle r="13" class="node" id="1_4" cx="677.3333333333334" cy="421" style="fill: rgb(255, 255, 248); stroke: rgb(255, 85, 0);"></circle><circle r="13" class="node" id="2_0" cx="806.3333333333334" cy="237" style="fill: rgb(255, 255, 248); stroke: rgb(255, 85, 0);"></circle><circle r="13" class="node" id="2_1" cx="806.3333333333334" cy="283" style="fill: rgb(255, 255, 248); stroke: rgb(255, 85, 0);"></circle><circle r="13" class="node" id="2_2" cx="806.3333333333334" cy="329" style="fill: rgb(255, 255, 248); stroke: rgb(255, 85, 0);"></circle><circle r="13" class="node" id="2_3" cx="806.3333333333334" cy="375" style="fill: rgb(255, 255, 248); stroke: rgb(255, 85, 0);"></circle><circle r="13" class="node" id="2_4" cx="806.3333333333334" cy="421" style="fill: rgb(255, 255, 248); stroke: rgb(255, 85, 0);"></circle><circle r="13" class="node" id="3_0" cx="935.3333333333334" cy="283" style="fill: rgb(255, 255, 248); stroke: rgb(255, 85, 0);"></circle><text class="text" dy=".35em" x="513.3333333333334" y="467" style="font-size: 12px;">Input Layer ∈ ℝ³</text><text class="text" dy=".35em" x="642.3333333333334" y="467" style="font-size: 12px;">Hidden Layer ∈ ℝ⁵</text><text class="text" dy=".35em" x="771.3333333333334" y="467" style="font-size: 12px;">Hidden Layer ∈ ℝ⁵</text><text class="text" dy=".35em" x="900.3333333333334" y="467" style="font-size: 12px;">Hidden Layer ∈ ℝ³</text><circle r="13" class="node" id="3_1" cx="935.3333333333334" cy="329" style="fill: rgb(255, 255, 248); stroke: rgb(255, 85, 0);"></circle><circle r="13" class="node" id="3_2" cx="935.3333333333334" cy="375" style="fill: rgb(255, 255, 248); stroke: rgb(255, 85, 0);"></circle><circle r="13" class="node" id="4_0" cx="1064.3333333333333" cy="329" style="fill: rgb(255, 255, 248); stroke: rgb(255, 85, 0);"></circle><text class="text" dy=".35em" x="1029.3333333333333" y="467" style="font-size: 12px;">Output Layer ∈ ℝ¹</text></g><defs><marker id="arrow" viewBox="0 -5 10 10" markerWidth="7" markerHeight="7" orient="auto" refX="48.4"><path d="M0,-5L10,0L0,5" style="stroke: rgb(80, 80, 80); fill: rgb(80, 80, 80);"></path></marker></defs></svg>