<?xml version="1.0" encoding="UTF-8"?>
<svg xmlns="http://www.w3.org/2000/svg" xmlns:xlink="http://www.w3.org/1999/xlink" width="146pt" height="210pt" viewBox="0 0 146 210" version="1.1">
<g id="surface1">
<path style="fill:none;stroke-width:1;stroke-linecap:butt;stroke-linejoin:miter;stroke:rgb(33.725491%,70.588237%,91.37255%);stroke-opacity:0.501961;stroke-dasharray:5,2;stroke-miterlimit:4;" d="M 22 -101 C 22 -96.03125 17.96875 -92 13 -92 C 8.03125 -92 4 -96.03125 4 -101 C 4 -105.96875 8.03125 -110 13 -110 C 17.96875 -110 22 -105.96875 22 -101 Z M 22 -101 " transform="matrix(1,0,0,1,4,206)"/>
<path style="fill:none;stroke-width:1;stroke-linecap:butt;stroke-linejoin:miter;stroke:rgb(33.725491%,70.588237%,91.37255%);stroke-opacity:0.501961;stroke-dasharray:5,2;stroke-miterlimit:4;" d="M 26 -101 C 26 -93.820312 20.179688 -88 13 -88 C 5.820312 -88 0 -93.820312 0 -101 C 0 -108.179688 5.820312 -114 13 -114 C 20.179688 -114 26 -108.179688 26 -101 Z M 26 -101 " transform="matrix(1,0,0,1,4,206)"/>
<path style=" stroke:none;fill-rule:nonzero;fill:rgb(0%,0%,0%);fill-opacity:1;" d="M 15.085938 105.800781 L 14.546875 105.800781 L 14.546875 103.828125 L 12.832031 103.828125 L 12.832031 105.800781 L 12.296875 105.800781 L 12.296875 101.535156 L 12.832031 101.535156 L 12.832031 103.371094 L 14.546875 103.371094 L 14.546875 101.535156 L 15.085938 101.535156 Z M 11.835938 100.234375 "/>
<path style=" stroke:none;fill-rule:nonzero;fill:rgb(0%,0%,0%);fill-opacity:1;" d="M 18.050781 107 L 17.53125 107 L 17.53125 103.386719 L 16.632812 103.789062 L 16.632812 103.296875 L 17.96875 102.714844 L 18.050781 102.714844 Z M 21.011719 107 L 20.492188 107 L 20.492188 103.386719 L 19.59375 103.789062 L 19.59375 103.296875 L 20.929688 102.714844 L 21.011719 102.714844 Z M 16.164062 101.433594 "/>
<path style="fill:none;stroke-width:0.25;stroke-linecap:butt;stroke-linejoin:miter;stroke:rgb(100%,54.901963%,0%);stroke-opacity:1;stroke-miterlimit:4;" d="M 69 -108 L 62 -101 L 69 -94 L 76 -101 Z M 69 -108 " transform="matrix(1,0,0,1,4,206)"/>
<path style="fill:none;stroke-width:0.25;stroke-linecap:butt;stroke-linejoin:miter;stroke:rgb(100%,54.901963%,0%);stroke-opacity:1;stroke-miterlimit:4;" d="M 64.332031 -103.332031 L 64.332031 -98.667969 " transform="matrix(1,0,0,1,4,206)"/>
<path style="fill:none;stroke-width:0.25;stroke-linecap:butt;stroke-linejoin:miter;stroke:rgb(100%,54.901963%,0%);stroke-opacity:1;stroke-miterlimit:4;" d="M 66.667969 -96.332031 L 71.332031 -96.332031 " transform="matrix(1,0,0,1,4,206)"/>
<path style="fill:none;stroke-width:0.25;stroke-linecap:butt;stroke-linejoin:miter;stroke:rgb(100%,54.901963%,0%);stroke-opacity:1;stroke-miterlimit:4;" d="M 73.667969 -98.667969 L 73.667969 -103.332031 " transform="matrix(1,0,0,1,4,206)"/>
<path style="fill:none;stroke-width:0.25;stroke-linecap:butt;stroke-linejoin:miter;stroke:rgb(100%,54.901963%,0%);stroke-opacity:1;stroke-miterlimit:4;" d="M 71.332031 -105.667969 L 66.667969 -105.667969 " transform="matrix(1,0,0,1,4,206)"/>
<path style="fill:none;stroke-width:1;stroke-linecap:butt;stroke-linejoin:miter;stroke:rgb(94.901961%,94.901961%,94.901961%);stroke-opacity:1;stroke-miterlimit:4;" d="M 26.269531 -101 C 37.398438 -101 52.859375 -101 61.8125 -101 " transform="matrix(1,0,0,1,4,206)"/>
<path style="fill:none;stroke-width:1;stroke-linecap:butt;stroke-linejoin:miter;stroke:rgb(33.725491%,70.588237%,91.37255%);stroke-opacity:0.501961;stroke-dasharray:5,2;stroke-miterlimit:4;" d="M 134 -189 C 134 -184.03125 129.96875 -180 125 -180 C 120.03125 -180 116 -184.03125 116 -189 C 116 -193.96875 120.03125 -198 125 -198 C 129.96875 -198 134 -193.96875 134 -189 Z M 134 -189 " transform="matrix(1,0,0,1,4,206)"/>
<path style="fill:none;stroke-width:1;stroke-linecap:butt;stroke-linejoin:miter;stroke:rgb(33.725491%,70.588237%,91.37255%);stroke-opacity:0.501961;stroke-dasharray:5,2;stroke-miterlimit:4;" d="M 138 -189 C 138 -181.820312 132.179688 -176 125 -176 C 117.820312 -176 112 -181.820312 112 -189 C 112 -196.179688 117.820312 -202 125 -202 C 132.179688 -202 138 -196.179688 138 -189 Z M 138 -189 " transform="matrix(1,0,0,1,4,206)"/>
<path style=" stroke:none;fill-rule:nonzero;fill:rgb(0%,0%,0%);fill-opacity:1;" d="M 127.40625 17.5 L 126.957031 17.5 L 126.957031 15.855469 L 125.523438 15.855469 L 125.523438 17.5 L 125.078125 17.5 L 125.078125 13.945312 L 125.523438 13.945312 L 125.523438 15.472656 L 126.957031 15.472656 L 126.957031 13.945312 L 127.40625 13.945312 Z M 124.695312 12.859375 "/>
<path style=" stroke:none;fill-rule:nonzero;fill:rgb(0%,0%,0%);fill-opacity:1;" d="M 130.578125 18.5 L 128.589844 18.5 L 128.589844 18.175781 L 129.601562 16.832031 C 129.757812 16.625 129.863281 16.457031 129.921875 16.324219 C 129.980469 16.191406 130.011719 16.050781 130.011719 15.902344 C 130.011719 15.714844 129.96875 15.5625 129.878906 15.445312 C 129.792969 15.328125 129.675781 15.265625 129.53125 15.265625 C 129.351562 15.265625 129.210938 15.328125 129.113281 15.453125 C 129.015625 15.578125 128.964844 15.757812 128.964844 15.992188 L 128.535156 15.992188 C 128.535156 15.664062 128.625 15.402344 128.804688 15.199219 C 128.984375 14.996094 129.226562 14.898438 129.53125 14.898438 C 129.816406 14.898438 130.039062 14.984375 130.203125 15.15625 C 130.363281 15.328125 130.445312 15.5625 130.445312 15.847656 C 130.445312 16.199219 130.261719 16.617188 129.898438 17.097656 L 129.105469 18.132812 L 130.578125 18.132812 Z M 132.34375 18.5 L 131.910156 18.5 L 131.910156 15.488281 L 131.164062 15.824219 L 131.164062 15.414062 L 132.277344 14.929688 L 132.34375 14.929688 Z M 128.304688 13.859375 "/>
<path style="fill:none;stroke-width:1;stroke-linecap:butt;stroke-linejoin:miter;stroke:rgb(94.901961%,94.901961%,94.901961%);stroke-opacity:1;stroke-miterlimit:4;" d="M 72.011719 -105.730469 C 80.644531 -119.296875 105.652344 -158.59375 117.972656 -177.953125 " transform="matrix(1,0,0,1,4,206)"/>
<path style="fill:none;stroke-width:1;stroke-linecap:butt;stroke-linejoin:miter;stroke:rgb(33.725491%,70.588237%,91.37255%);stroke-opacity:0.501961;stroke-dasharray:5,2;stroke-miterlimit:4;" d="M 134 -145 C 134 -140.03125 129.96875 -136 125 -136 C 120.03125 -136 116 -140.03125 116 -145 C 116 -149.96875 120.03125 -154 125 -154 C 129.96875 -154 134 -149.96875 134 -145 Z M 134 -145 " transform="matrix(1,0,0,1,4,206)"/>
<path style="fill:none;stroke-width:1;stroke-linecap:butt;stroke-linejoin:miter;stroke:rgb(33.725491%,70.588237%,91.37255%);stroke-opacity:0.501961;stroke-dasharray:5,2;stroke-miterlimit:4;" d="M 138 -145 C 138 -137.820312 132.179688 -132 125 -132 C 117.820312 -132 112 -137.820312 112 -145 C 112 -152.179688 117.820312 -158 125 -158 C 132.179688 -158 138 -152.179688 138 -145 Z M 138 -145 " transform="matrix(1,0,0,1,4,206)"/>
<path style=" stroke:none;fill-rule:nonzero;fill:rgb(0%,0%,0%);fill-opacity:1;" d="M 127.40625 61.5 L 126.957031 61.5 L 126.957031 59.855469 L 125.523438 59.855469 L 125.523438 61.5 L 125.078125 61.5 L 125.078125 57.945312 L 125.523438 57.945312 L 125.523438 59.472656 L 126.957031 59.472656 L 126.957031 57.945312 L 127.40625 57.945312 Z M 124.695312 56.859375 "/>
<path style=" stroke:none;fill-rule:nonzero;fill:rgb(0%,0%,0%);fill-opacity:1;" d="M 130.578125 62.5 L 128.589844 62.5 L 128.589844 62.175781 L 129.601562 60.832031 C 129.757812 60.625 129.863281 60.457031 129.921875 60.324219 C 129.980469 60.191406 130.011719 60.050781 130.011719 59.902344 C 130.011719 59.714844 129.96875 59.5625 129.878906 59.445312 C 129.792969 59.328125 129.675781 59.265625 129.53125 59.265625 C 129.351562 59.265625 129.210938 59.328125 129.113281 59.453125 C 129.015625 59.578125 128.964844 59.757812 128.964844 59.992188 L 128.535156 59.992188 C 128.535156 59.664062 128.625 59.402344 128.804688 59.199219 C 128.984375 58.996094 129.226562 58.898438 129.53125 58.898438 C 129.816406 58.898438 130.039062 58.984375 130.203125 59.15625 C 130.363281 59.328125 130.445312 59.5625 130.445312 59.847656 C 130.445312 60.199219 130.261719 60.617188 129.898438 61.097656 L 129.105469 62.132812 L 130.578125 62.132812 Z M 133.046875 62.5 L 131.058594 62.5 L 131.058594 62.175781 L 132.070312 60.832031 C 132.226562 60.625 132.332031 60.457031 132.390625 60.324219 C 132.449219 60.191406 132.480469 60.050781 132.480469 59.902344 C 132.480469 59.714844 132.4375 59.5625 132.347656 59.445312 C 132.261719 59.328125 132.144531 59.265625 132 59.265625 C 131.820312 59.265625 131.679688 59.328125 131.582031 59.453125 C 131.484375 59.578125 131.433594 59.757812 131.433594 59.992188 L 131.003906 59.992188 C 131.003906 59.664062 131.09375 59.402344 131.273438 59.199219 C 131.453125 58.996094 131.695312 58.898438 132 58.898438 C 132.285156 58.898438 132.507812 58.984375 132.671875 59.15625 C 132.832031 59.328125 132.914062 59.5625 132.914062 59.847656 C 132.914062 60.199219 132.730469 60.617188 132.367188 61.097656 L 131.574219 62.132812 L 133.046875 62.132812 Z M 128.304688 57.859375 "/>
<path style="fill:none;stroke-width:1;stroke-linecap:butt;stroke-linejoin:miter;stroke:rgb(94.901961%,94.901961%,94.901961%);stroke-opacity:1;stroke-miterlimit:4;" d="M 73.027344 -104.164062 C 81.65625 -110.941406 102.148438 -127.046875 114.671875 -136.886719 " transform="matrix(1,0,0,1,4,206)"/>
<path style="fill:none;stroke-width:1;stroke-linecap:butt;stroke-linejoin:miter;stroke:rgb(33.725491%,70.588237%,91.37255%);stroke-opacity:0.501961;stroke-dasharray:5,2;stroke-miterlimit:4;" d="M 134 -101 C 134 -96.03125 129.96875 -92 125 -92 C 120.03125 -92 116 -96.03125 116 -101 C 116 -105.96875 120.03125 -110 125 -110 C 129.96875 -110 134 -105.96875 134 -101 Z M 134 -101 " transform="matrix(1,0,0,1,4,206)"/>
<path style="fill:none;stroke-width:1;stroke-linecap:butt;stroke-linejoin:miter;stroke:rgb(33.725491%,70.588237%,91.37255%);stroke-opacity:0.501961;stroke-dasharray:5,2;stroke-miterlimit:4;" d="M 138 -101 C 138 -93.820312 132.179688 -88 125 -88 C 117.820312 -88 112 -93.820312 112 -101 C 112 -108.179688 117.820312 -114 125 -114 C 132.179688 -114 138 -108.179688 138 -101 Z M 138 -101 " transform="matrix(1,0,0,1,4,206)"/>
<path style=" stroke:none;fill-rule:nonzero;fill:rgb(0%,0%,0%);fill-opacity:1;" d="M 127.40625 105.5 L 126.957031 105.5 L 126.957031 103.855469 L 125.523438 103.855469 L 125.523438 105.5 L 125.078125 105.5 L 125.078125 101.945312 L 125.523438 101.945312 L 125.523438 103.472656 L 126.957031 103.472656 L 126.957031 101.945312 L 127.40625 101.945312 Z M 124.695312 100.859375 "/>
<path style=" stroke:none;fill-rule:nonzero;fill:rgb(0%,0%,0%);fill-opacity:1;" d="M 130.578125 106.5 L 128.589844 106.5 L 128.589844 106.175781 L 129.601562 104.832031 C 129.757812 104.625 129.863281 104.457031 129.921875 104.324219 C 129.980469 104.191406 130.011719 104.050781 130.011719 103.902344 C 130.011719 103.714844 129.96875 103.5625 129.878906 103.445312 C 129.792969 103.328125 129.675781 103.265625 129.53125 103.265625 C 129.351562 103.265625 129.210938 103.328125 129.113281 103.453125 C 129.015625 103.578125 128.964844 103.757812 128.964844 103.992188 L 128.535156 103.992188 C 128.535156 103.664062 128.625 103.402344 128.804688 103.199219 C 128.984375 102.996094 129.226562 102.898438 129.53125 102.898438 C 129.816406 102.898438 130.039062 102.984375 130.203125 103.15625 C 130.363281 103.328125 130.445312 103.5625 130.445312 103.847656 C 130.445312 104.199219 130.261719 104.617188 129.898438 105.097656 L 129.105469 106.132812 L 130.578125 106.132812 Z M 131.609375 104.503906 L 131.886719 104.503906 C 132.0625 104.503906 132.199219 104.449219 132.296875 104.339844 C 132.394531 104.230469 132.441406 104.082031 132.441406 103.890625 C 132.441406 103.476562 132.28125 103.265625 131.957031 103.265625 C 131.804688 103.265625 131.679688 103.324219 131.59375 103.4375 C 131.507812 103.546875 131.460938 103.695312 131.460938 103.878906 L 131.03125 103.878906 C 131.03125 103.59375 131.117188 103.359375 131.292969 103.171875 C 131.464844 102.988281 131.6875 102.898438 131.957031 102.898438 C 132.238281 102.898438 132.460938 102.984375 132.625 103.160156 C 132.789062 103.335938 132.871094 103.582031 132.871094 103.902344 C 132.871094 104.066406 132.828125 104.21875 132.742188 104.363281 C 132.65625 104.503906 132.546875 104.609375 132.410156 104.675781 C 132.746094 104.800781 132.914062 105.078125 132.914062 105.507812 C 132.914062 105.824219 132.824219 106.078125 132.648438 106.265625 C 132.472656 106.453125 132.238281 106.546875 131.953125 106.546875 C 131.671875 106.546875 131.445312 106.460938 131.273438 106.28125 C 131.101562 106.101562 131.011719 105.863281 131.011719 105.5625 L 131.445312 105.5625 C 131.445312 105.75 131.492188 105.902344 131.582031 106.011719 C 131.671875 106.125 131.796875 106.179688 131.953125 106.179688 C 132.117188 106.179688 132.246094 106.125 132.339844 106.015625 C 132.433594 105.90625 132.484375 105.742188 132.484375 105.519531 C 132.484375 105.085938 132.277344 104.871094 131.871094 104.871094 L 131.609375 104.871094 Z M 128.304688 101.859375 "/>
<path style="fill:none;stroke-width:1;stroke-linecap:butt;stroke-linejoin:miter;stroke:rgb(94.901961%,94.901961%,94.901961%);stroke-opacity:1;stroke-miterlimit:4;" d="M 76.320312 -101 C 85.332031 -101 100.804688 -101 111.886719 -101 " transform="matrix(1,0,0,1,4,206)"/>
<path style="fill:none;stroke-width:1;stroke-linecap:butt;stroke-linejoin:miter;stroke:rgb(33.725491%,70.588237%,91.37255%);stroke-opacity:0.501961;stroke-dasharray:5,2;stroke-miterlimit:4;" d="M 134 -57 C 134 -52.03125 129.96875 -48 125 -48 C 120.03125 -48 116 -52.03125 116 -57 C 116 -61.96875 120.03125 -66 125 -66 C 129.96875 -66 134 -61.96875 134 -57 Z M 134 -57 " transform="matrix(1,0,0,1,4,206)"/>
<path style="fill:none;stroke-width:1;stroke-linecap:butt;stroke-linejoin:miter;stroke:rgb(33.725491%,70.588237%,91.37255%);stroke-opacity:0.501961;stroke-dasharray:5,2;stroke-miterlimit:4;" d="M 138 -57 C 138 -49.820312 132.179688 -44 125 -44 C 117.820312 -44 112 -49.820312 112 -57 C 112 -64.179688 117.820312 -70 125 -70 C 132.179688 -70 138 -64.179688 138 -57 Z M 138 -57 " transform="matrix(1,0,0,1,4,206)"/>
<path style=" stroke:none;fill-rule:nonzero;fill:rgb(0%,0%,0%);fill-opacity:1;" d="M 127.40625 149.5 L 126.957031 149.5 L 126.957031 147.855469 L 125.523438 147.855469 L 125.523438 149.5 L 125.078125 149.5 L 125.078125 145.945312 L 125.523438 145.945312 L 125.523438 147.472656 L 126.957031 147.472656 L 126.957031 145.945312 L 127.40625 145.945312 Z M 124.695312 144.859375 "/>
<path style=" stroke:none;fill-rule:nonzero;fill:rgb(0%,0%,0%);fill-opacity:1;" d="M 130.578125 150.5 L 128.589844 150.5 L 128.589844 150.175781 L 129.601562 148.832031 C 129.757812 148.625 129.863281 148.457031 129.921875 148.324219 C 129.980469 148.191406 130.011719 148.050781 130.011719 147.902344 C 130.011719 147.714844 129.96875 147.5625 129.878906 147.445312 C 129.792969 147.328125 129.675781 147.265625 129.53125 147.265625 C 129.351562 147.265625 129.210938 147.328125 129.113281 147.453125 C 129.015625 147.578125 128.964844 147.757812 128.964844 147.992188 L 128.535156 147.992188 C 128.535156 147.664062 128.625 147.402344 128.804688 147.199219 C 128.984375 146.996094 129.226562 146.898438 129.53125 146.898438 C 129.816406 146.898438 130.039062 146.984375 130.203125 147.15625 C 130.363281 147.328125 130.445312 147.5625 130.445312 147.847656 C 130.445312 148.199219 130.261719 148.617188 129.898438 149.097656 L 129.105469 150.132812 L 130.578125 150.132812 Z M 132.695312 149.304688 L 133.089844 149.304688 L 133.089844 149.675781 L 132.695312 149.675781 L 132.695312 150.5 L 132.261719 150.5 L 132.261719 149.675781 L 130.921875 149.675781 L 130.921875 149.410156 L 132.242188 146.945312 L 132.695312 146.945312 Z M 131.398438 149.304688 L 132.261719 149.304688 L 132.261719 147.617188 Z M 128.304688 145.859375 "/>
<path style="fill:none;stroke-width:1;stroke-linecap:butt;stroke-linejoin:miter;stroke:rgb(94.901961%,94.901961%,94.901961%);stroke-opacity:1;stroke-miterlimit:4;" d="M 73.027344 -97.835938 C 81.65625 -91.058594 102.148438 -74.953125 114.671875 -65.113281 " transform="matrix(1,0,0,1,4,206)"/>
<path style="fill:none;stroke-width:1;stroke-linecap:butt;stroke-linejoin:miter;stroke:rgb(33.725491%,70.588237%,91.37255%);stroke-opacity:0.501961;stroke-dasharray:5,2;stroke-miterlimit:4;" d="M 134 -13 C 134 -8.03125 129.96875 -4 125 -4 C 120.03125 -4 116 -8.03125 116 -13 C 116 -17.96875 120.03125 -22 125 -22 C 129.96875 -22 134 -17.96875 134 -13 Z M 134 -13 " transform="matrix(1,0,0,1,4,206)"/>
<path style="fill:none;stroke-width:1;stroke-linecap:butt;stroke-linejoin:miter;stroke:rgb(33.725491%,70.588237%,91.37255%);stroke-opacity:0.501961;stroke-dasharray:5,2;stroke-miterlimit:4;" d="M 138 -13 C 138 -5.820312 132.179688 0 125 0 C 117.820312 0 112 -5.820312 112 -13 C 112 -20.179688 117.820312 -26 125 -26 C 132.179688 -26 138 -20.179688 138 -13 Z M 138 -13 " transform="matrix(1,0,0,1,4,206)"/>
<path style=" stroke:none;fill-rule:nonzero;fill:rgb(0%,0%,0%);fill-opacity:1;" d="M 127.40625 193.5 L 126.957031 193.5 L 126.957031 191.855469 L 125.523438 191.855469 L 125.523438 193.5 L 125.078125 193.5 L 125.078125 189.945312 L 125.523438 189.945312 L 125.523438 191.472656 L 126.957031 191.472656 L 126.957031 189.945312 L 127.40625 189.945312 Z M 124.695312 188.859375 "/>
<path style=" stroke:none;fill-rule:nonzero;fill:rgb(0%,0%,0%);fill-opacity:1;" d="M 130.578125 194.5 L 128.589844 194.5 L 128.589844 194.175781 L 129.601562 192.832031 C 129.757812 192.625 129.863281 192.457031 129.921875 192.324219 C 129.980469 192.191406 130.011719 192.050781 130.011719 191.902344 C 130.011719 191.714844 129.96875 191.5625 129.878906 191.445312 C 129.792969 191.328125 129.675781 191.265625 129.53125 191.265625 C 129.351562 191.265625 129.210938 191.328125 129.113281 191.453125 C 129.015625 191.578125 128.964844 191.757812 128.964844 191.992188 L 128.535156 191.992188 C 128.535156 191.664062 128.625 191.402344 128.804688 191.199219 C 128.984375 190.996094 129.226562 190.898438 129.53125 190.898438 C 129.816406 190.898438 130.039062 190.984375 130.203125 191.15625 C 130.363281 191.328125 130.445312 191.5625 130.445312 191.847656 C 130.445312 192.199219 130.261719 192.617188 129.898438 193.097656 L 129.105469 194.132812 L 130.578125 194.132812 Z M 131.234375 192.71875 L 131.390625 190.945312 L 132.933594 190.945312 L 132.933594 191.363281 L 131.753906 191.363281 L 131.667969 192.332031 C 131.816406 192.230469 131.972656 192.179688 132.144531 192.179688 C 132.421875 192.179688 132.636719 192.285156 132.796875 192.5 C 132.953125 192.714844 133.03125 193.003906 133.03125 193.367188 C 133.03125 193.734375 132.945312 194.023438 132.773438 194.234375 C 132.601562 194.445312 132.367188 194.546875 132.066406 194.546875 C 131.800781 194.546875 131.582031 194.460938 131.414062 194.289062 C 131.246094 194.113281 131.152344 193.871094 131.128906 193.566406 L 131.53125 193.566406 C 131.554688 193.769531 131.617188 193.921875 131.707031 194.023438 C 131.800781 194.128906 131.917969 194.179688 132.066406 194.179688 C 132.234375 194.179688 132.367188 194.105469 132.460938 193.960938 C 132.554688 193.816406 132.601562 193.621094 132.601562 193.371094 C 132.601562 193.140625 132.550781 192.949219 132.449219 192.804688 C 132.347656 192.65625 132.210938 192.582031 132.039062 192.582031 C 131.894531 192.582031 131.78125 192.621094 131.695312 192.695312 L 131.578125 192.8125 Z M 128.304688 189.859375 "/>
<path style="fill:none;stroke-width:1;stroke-linecap:butt;stroke-linejoin:miter;stroke:rgb(94.901961%,94.901961%,94.901961%);stroke-opacity:1;stroke-miterlimit:4;" d="M 72.011719 -96.269531 C 80.644531 -82.703125 105.652344 -43.40625 117.972656 -24.046875 " transform="matrix(1,0,0,1,4,206)"/>
</g>
</svg>
