<?xml version="1.0" encoding="UTF-8"?>
<svg xmlns="http://www.w3.org/2000/svg" xmlns:xlink="http://www.w3.org/1999/xlink" width="149pt" height="260pt" viewBox="0 0 149 260" version="1.1">
<g id="surface385">
<path style="fill:none;stroke-width:2;stroke-linecap:butt;stroke-linejoin:miter;stroke:rgb(33.725491%,70.588237%,91.37255%);stroke-opacity:0.501961;stroke-dasharray:5,2;stroke-miterlimit:4;" d="M 22 -126 C 22 -121.03125 17.96875 -117 13 -117 C 8.03125 -117 4 -121.03125 4 -126 C 4 -130.96875 8.03125 -135 13 -135 C 17.96875 -135 22 -130.96875 22 -126 Z M 22 -126 " transform="matrix(1,0,0,1,4,256)"/>
<path style="fill:none;stroke-width:2;stroke-linecap:butt;stroke-linejoin:miter;stroke:rgb(33.725491%,70.588237%,91.37255%);stroke-opacity:0.501961;stroke-dasharray:5,2;stroke-miterlimit:4;" d="M 26 -126 C 26 -118.820312 20.179688 -113 13 -113 C 5.820312 -113 0 -118.820312 0 -126 C 0 -133.179688 5.820312 -139 13 -139 C 20.179688 -139 26 -133.179688 26 -126 Z M 26 -126 " transform="matrix(1,0,0,1,4,256)"/>
<path style=" stroke:none;fill-rule:nonzero;fill:rgb(0%,0%,0%);fill-opacity:1;" d="M 19.320312 133 L 18.421875 133 L 18.421875 129.714844 L 15.558594 129.714844 L 15.558594 133 L 14.664062 133 L 14.664062 125.890625 L 15.558594 125.890625 L 15.558594 128.945312 L 18.421875 128.945312 L 18.421875 125.890625 L 19.320312 125.890625 Z M 13.898438 123.722656 "/>
<path style="fill:none;stroke-width:0.25;stroke-linecap:butt;stroke-linejoin:miter;stroke:rgb(100%,54.901963%,0%);stroke-opacity:1;stroke-miterlimit:4;" d="M 65.5 -179.5 L 62 -176 L 65.5 -172.5 L 69 -176 Z M 65.5 -179.5 " transform="matrix(1,0,0,1,4,256)"/>
<path style="fill:none;stroke-width:0.25;stroke-linecap:butt;stroke-linejoin:miter;stroke:rgb(100%,54.901963%,0%);stroke-opacity:1;stroke-miterlimit:4;" d="M 63.167969 -177.167969 L 63.167969 -174.832031 " transform="matrix(1,0,0,1,4,256)"/>
<path style="fill:none;stroke-width:0.25;stroke-linecap:butt;stroke-linejoin:miter;stroke:rgb(100%,54.901963%,0%);stroke-opacity:1;stroke-miterlimit:4;" d="M 64.332031 -173.667969 L 66.667969 -173.667969 " transform="matrix(1,0,0,1,4,256)"/>
<path style="fill:none;stroke-width:0.25;stroke-linecap:butt;stroke-linejoin:miter;stroke:rgb(100%,54.901963%,0%);stroke-opacity:1;stroke-miterlimit:4;" d="M 67.832031 -174.832031 L 67.832031 -177.167969 " transform="matrix(1,0,0,1,4,256)"/>
<path style="fill:none;stroke-width:0.25;stroke-linecap:butt;stroke-linejoin:miter;stroke:rgb(100%,54.901963%,0%);stroke-opacity:1;stroke-miterlimit:4;" d="M 66.667969 -178.332031 L 64.332031 -178.332031 " transform="matrix(1,0,0,1,4,256)"/>
<path style="fill:none;stroke-width:1;stroke-linecap:butt;stroke-linejoin:miter;stroke:rgb(94.901961%,94.901961%,94.901961%);stroke-opacity:1;stroke-miterlimit:4;" d="M 22.628906 -135.171875 C 35.417969 -147.351562 57.144531 -168.042969 63.625 -174.214844 " transform="matrix(1,0,0,1,4,256)"/>
<path style="fill:none;stroke-width:0.25;stroke-linecap:butt;stroke-linejoin:miter;stroke:rgb(100%,54.901963%,0%);stroke-opacity:1;stroke-miterlimit:4;" d="M 65.5 -154.5 L 62 -151 L 65.5 -147.5 L 69 -151 Z M 65.5 -154.5 " transform="matrix(1,0,0,1,4,256)"/>
<path style="fill:none;stroke-width:0.25;stroke-linecap:butt;stroke-linejoin:miter;stroke:rgb(100%,54.901963%,0%);stroke-opacity:1;stroke-miterlimit:4;" d="M 63.167969 -152.167969 L 63.167969 -149.832031 " transform="matrix(1,0,0,1,4,256)"/>
<path style="fill:none;stroke-width:0.25;stroke-linecap:butt;stroke-linejoin:miter;stroke:rgb(100%,54.901963%,0%);stroke-opacity:1;stroke-miterlimit:4;" d="M 64.332031 -148.667969 L 66.667969 -148.667969 " transform="matrix(1,0,0,1,4,256)"/>
<path style="fill:none;stroke-width:0.25;stroke-linecap:butt;stroke-linejoin:miter;stroke:rgb(100%,54.901963%,0%);stroke-opacity:1;stroke-miterlimit:4;" d="M 67.832031 -149.832031 L 67.832031 -152.167969 " transform="matrix(1,0,0,1,4,256)"/>
<path style="fill:none;stroke-width:0.25;stroke-linecap:butt;stroke-linejoin:miter;stroke:rgb(100%,54.901963%,0%);stroke-opacity:1;stroke-miterlimit:4;" d="M 66.667969 -153.332031 L 64.332031 -153.332031 " transform="matrix(1,0,0,1,4,256)"/>
<path style="fill:none;stroke-width:1;stroke-linecap:butt;stroke-linejoin:miter;stroke:rgb(94.901961%,94.901961%,94.901961%);stroke-opacity:1;stroke-miterlimit:4;" d="M 24.914062 -131.671875 C 37.5 -137.664062 56.425781 -146.679688 63.082031 -149.847656 " transform="matrix(1,0,0,1,4,256)"/>
<path style="fill:none;stroke-width:0.25;stroke-linecap:butt;stroke-linejoin:miter;stroke:rgb(100%,54.901963%,0%);stroke-opacity:1;stroke-miterlimit:4;" d="M 65.5 -129.5 L 62 -126 L 65.5 -122.5 L 69 -126 Z M 65.5 -129.5 " transform="matrix(1,0,0,1,4,256)"/>
<path style="fill:none;stroke-width:0.25;stroke-linecap:butt;stroke-linejoin:miter;stroke:rgb(100%,54.901963%,0%);stroke-opacity:1;stroke-miterlimit:4;" d="M 63.167969 -127.167969 L 63.167969 -124.832031 " transform="matrix(1,0,0,1,4,256)"/>
<path style="fill:none;stroke-width:0.25;stroke-linecap:butt;stroke-linejoin:miter;stroke:rgb(100%,54.901963%,0%);stroke-opacity:1;stroke-miterlimit:4;" d="M 64.332031 -123.667969 L 66.667969 -123.667969 " transform="matrix(1,0,0,1,4,256)"/>
<path style="fill:none;stroke-width:0.25;stroke-linecap:butt;stroke-linejoin:miter;stroke:rgb(100%,54.901963%,0%);stroke-opacity:1;stroke-miterlimit:4;" d="M 67.832031 -124.832031 L 67.832031 -127.167969 " transform="matrix(1,0,0,1,4,256)"/>
<path style="fill:none;stroke-width:0.25;stroke-linecap:butt;stroke-linejoin:miter;stroke:rgb(100%,54.901963%,0%);stroke-opacity:1;stroke-miterlimit:4;" d="M 66.667969 -128.332031 L 64.332031 -128.332031 " transform="matrix(1,0,0,1,4,256)"/>
<path style="fill:none;stroke-width:1;stroke-linecap:butt;stroke-linejoin:miter;stroke:rgb(94.901961%,94.901961%,94.901961%);stroke-opacity:1;stroke-miterlimit:4;" d="M 26.246094 -126 C 37.914062 -126 54.160156 -126 61.554688 -126 " transform="matrix(1,0,0,1,4,256)"/>
<path style="fill:none;stroke-width:0.25;stroke-linecap:butt;stroke-linejoin:miter;stroke:rgb(100%,54.901963%,0%);stroke-opacity:1;stroke-miterlimit:4;" d="M 65.5 -104.5 L 62 -101 L 65.5 -97.5 L 69 -101 Z M 65.5 -104.5 " transform="matrix(1,0,0,1,4,256)"/>
<path style="fill:none;stroke-width:0.25;stroke-linecap:butt;stroke-linejoin:miter;stroke:rgb(100%,54.901963%,0%);stroke-opacity:1;stroke-miterlimit:4;" d="M 63.167969 -102.167969 L 63.167969 -99.832031 " transform="matrix(1,0,0,1,4,256)"/>
<path style="fill:none;stroke-width:0.25;stroke-linecap:butt;stroke-linejoin:miter;stroke:rgb(100%,54.901963%,0%);stroke-opacity:1;stroke-miterlimit:4;" d="M 64.332031 -98.667969 L 66.667969 -98.667969 " transform="matrix(1,0,0,1,4,256)"/>
<path style="fill:none;stroke-width:0.25;stroke-linecap:butt;stroke-linejoin:miter;stroke:rgb(100%,54.901963%,0%);stroke-opacity:1;stroke-miterlimit:4;" d="M 67.832031 -99.832031 L 67.832031 -102.167969 " transform="matrix(1,0,0,1,4,256)"/>
<path style="fill:none;stroke-width:0.25;stroke-linecap:butt;stroke-linejoin:miter;stroke:rgb(100%,54.901963%,0%);stroke-opacity:1;stroke-miterlimit:4;" d="M 66.667969 -103.332031 L 64.332031 -103.332031 " transform="matrix(1,0,0,1,4,256)"/>
<path style="fill:none;stroke-width:1;stroke-linecap:butt;stroke-linejoin:miter;stroke:rgb(94.901961%,94.901961%,94.901961%);stroke-opacity:1;stroke-miterlimit:4;" d="M 24.914062 -120.328125 C 37.5 -114.335938 56.425781 -105.320312 63.082031 -102.152344 " transform="matrix(1,0,0,1,4,256)"/>
<path style="fill:none;stroke-width:0.25;stroke-linecap:butt;stroke-linejoin:miter;stroke:rgb(100%,54.901963%,0%);stroke-opacity:1;stroke-miterlimit:4;" d="M 65.5 -79.5 L 62 -76 L 65.5 -72.5 L 69 -76 Z M 65.5 -79.5 " transform="matrix(1,0,0,1,4,256)"/>
<path style="fill:none;stroke-width:0.25;stroke-linecap:butt;stroke-linejoin:miter;stroke:rgb(100%,54.901963%,0%);stroke-opacity:1;stroke-miterlimit:4;" d="M 63.167969 -77.167969 L 63.167969 -74.832031 " transform="matrix(1,0,0,1,4,256)"/>
<path style="fill:none;stroke-width:0.25;stroke-linecap:butt;stroke-linejoin:miter;stroke:rgb(100%,54.901963%,0%);stroke-opacity:1;stroke-miterlimit:4;" d="M 64.332031 -73.667969 L 66.667969 -73.667969 " transform="matrix(1,0,0,1,4,256)"/>
<path style="fill:none;stroke-width:0.25;stroke-linecap:butt;stroke-linejoin:miter;stroke:rgb(100%,54.901963%,0%);stroke-opacity:1;stroke-miterlimit:4;" d="M 67.832031 -74.832031 L 67.832031 -77.167969 " transform="matrix(1,0,0,1,4,256)"/>
<path style="fill:none;stroke-width:0.25;stroke-linecap:butt;stroke-linejoin:miter;stroke:rgb(100%,54.901963%,0%);stroke-opacity:1;stroke-miterlimit:4;" d="M 66.667969 -78.332031 L 64.332031 -78.332031 " transform="matrix(1,0,0,1,4,256)"/>
<path style="fill:none;stroke-width:1;stroke-linecap:butt;stroke-linejoin:miter;stroke:rgb(94.901961%,94.901961%,94.901961%);stroke-opacity:1;stroke-miterlimit:4;" d="M 22.628906 -116.828125 C 35.417969 -104.648438 57.144531 -83.957031 63.625 -77.785156 " transform="matrix(1,0,0,1,4,256)"/>
<path style="fill:none;stroke-width:1;stroke-linecap:butt;stroke-linejoin:miter;stroke:rgb(94.901961%,94.901961%,94.901961%);stroke-opacity:1;stroke-miterlimit:4;" d="M 67.414062 -177.929688 C 73.960938 -184.535156 95.855469 -206.617188 110.132812 -221.019531 " transform="matrix(1,0,0,1,4,256)"/>
<path style="fill:none;stroke-width:1;stroke-linecap:butt;stroke-linejoin:miter;stroke:rgb(94.901961%,94.901961%,94.901961%);stroke-opacity:1;stroke-miterlimit:4;" d="M 67.96875 -152.246094 C 74.589844 -155.585938 93.160156 -164.949219 106.90625 -171.882812 " transform="matrix(1,0,0,1,4,256)"/>
<path style="fill:none;stroke-width:1;stroke-linecap:butt;stroke-linejoin:miter;stroke:rgb(94.901961%,94.901961%,94.901961%);stroke-opacity:1;stroke-miterlimit:4;" d="M 69.273438 -126 C 76.367188 -126 92.121094 -126 104.746094 -126 " transform="matrix(1,0,0,1,4,256)"/>
<path style="fill:none;stroke-width:1;stroke-linecap:butt;stroke-linejoin:miter;stroke:rgb(94.901961%,94.901961%,94.901961%);stroke-opacity:1;stroke-miterlimit:4;" d="M 67.96875 -99.753906 C 74.589844 -96.414062 93.160156 -87.050781 106.90625 -80.117188 " transform="matrix(1,0,0,1,4,256)"/>
<path style="fill:none;stroke-width:1;stroke-linecap:butt;stroke-linejoin:miter;stroke:rgb(94.901961%,94.901961%,94.901961%);stroke-opacity:1;stroke-miterlimit:4;" d="M 67.414062 -74.070312 C 73.960938 -67.464844 95.855469 -45.382812 110.132812 -30.980469 " transform="matrix(1,0,0,1,4,256)"/>
</g>
</svg>
