<?xml version="1.0" encoding="UTF-8"?>
<svg xmlns="http://www.w3.org/2000/svg" xmlns:xlink="http://www.w3.org/1999/xlink" width="216pt" height="210pt" viewBox="0 0 216 210" version="1.1">
<g id="surface80">
<path style="fill:none;stroke-width:1;stroke-linecap:butt;stroke-linejoin:miter;stroke:rgb(49.803922%,49.803922%,49.803922%);stroke-opacity:1;stroke-miterlimit:4;" d="M 24 -143 C 24 -136.371094 18.628906 -131 12 -131 C 5.371094 -131 0 -136.371094 0 -143 C 0 -149.628906 5.371094 -155 12 -155 C 18.628906 -155 24 -149.628906 24 -143 Z M 24 -143 " transform="matrix(1,0,0,1,4,206)"/>
<path style=" stroke:none;fill-rule:nonzero;fill:rgb(0%,0%,0%);fill-opacity:1;" d="M 12.394531 64.691406 C 12.554688 64.675781 12.679688 64.632812 12.761719 64.5625 C 12.847656 64.496094 13.011719 64.308594 13.261719 64.003906 L 14.199219 62.847656 L 13.535156 61.886719 C 13.246094 61.46875 13.042969 61.210938 12.929688 61.109375 C 12.8125 61.003906 12.65625 60.949219 12.464844 60.941406 L 12.464844 60.832031 L 14.273438 60.832031 L 14.273438 60.941406 C 14.101562 60.949219 13.988281 60.960938 13.933594 60.976562 C 13.855469 61.003906 13.816406 61.058594 13.816406 61.144531 C 13.816406 61.199219 13.832031 61.265625 13.871094 61.339844 C 13.890625 61.378906 13.917969 61.425781 13.957031 61.476562 L 14.578125 62.378906 L 15.261719 61.550781 C 15.363281 61.433594 15.429688 61.335938 15.464844 61.265625 C 15.484375 61.222656 15.496094 61.183594 15.496094 61.148438 C 15.496094 61.058594 15.453125 61 15.367188 60.972656 C 15.316406 60.953125 15.21875 60.945312 15.082031 60.941406 L 15.082031 60.832031 L 16.503906 60.832031 L 16.503906 60.941406 C 16.34375 60.945312 16.21875 60.972656 16.132812 61.019531 C 15.992188 61.09375 15.820312 61.257812 15.617188 61.511719 L 14.734375 62.59375 L 15.886719 64.246094 C 16.007812 64.425781 16.113281 64.539062 16.191406 64.585938 C 16.273438 64.632812 16.394531 64.667969 16.554688 64.691406 L 16.554688 64.800781 L 14.777344 64.800781 L 14.777344 64.683594 C 14.945312 64.679688 15.0625 64.664062 15.132812 64.640625 C 15.199219 64.613281 15.230469 64.566406 15.230469 64.492188 C 15.230469 64.429688 15.1875 64.328125 15.097656 64.183594 C 15.007812 64.039062 14.757812 63.667969 14.351562 63.066406 L 13.640625 63.964844 C 13.539062 64.09375 13.464844 64.191406 13.425781 64.25 C 13.359375 64.347656 13.328125 64.417969 13.328125 64.464844 C 13.328125 64.550781 13.378906 64.609375 13.480469 64.644531 C 13.542969 64.667969 13.644531 64.683594 13.789062 64.691406 L 13.789062 64.800781 L 12.394531 64.800781 Z M 18.4375 60.777344 C 18.445312 60.785156 18.453125 60.792969 18.453125 60.796875 C 18.453125 60.800781 18.453125 60.8125 18.453125 60.832031 L 18.453125 64.359375 C 18.453125 64.507812 18.492188 64.605469 18.574219 64.644531 C 18.65625 64.6875 18.804688 64.710938 19.023438 64.71875 L 19.023438 64.800781 L 17.371094 64.800781 L 17.371094 64.714844 C 17.605469 64.703125 17.761719 64.667969 17.832031 64.617188 C 17.90625 64.5625 17.941406 64.449219 17.941406 64.273438 L 17.941406 61.558594 C 17.941406 61.464844 17.929688 61.394531 17.90625 61.347656 C 17.882812 61.296875 17.832031 61.273438 17.753906 61.273438 C 17.703125 61.273438 17.636719 61.289062 17.554688 61.316406 C 17.476562 61.34375 17.398438 61.375 17.328125 61.40625 L 17.328125 61.324219 L 18.40625 60.777344 Z M 12.332031 60.300781 "/>
<path style="fill:none;stroke-width:3;stroke-linecap:butt;stroke-linejoin:miter;stroke:rgb(33.725491%,70.588237%,91.37255%);stroke-opacity:0.501961;stroke-dasharray:5,2;stroke-miterlimit:4;" d="M 82 -145 C 82 -140.03125 77.96875 -136 73 -136 C 68.03125 -136 64 -140.03125 64 -145 C 64 -149.96875 68.03125 -154 73 -154 C 77.96875 -154 82 -149.96875 82 -145 Z M 82 -145 " transform="matrix(1,0,0,1,4,206)"/>
<path style="fill:none;stroke-width:3;stroke-linecap:butt;stroke-linejoin:miter;stroke:rgb(33.725491%,70.588237%,91.37255%);stroke-opacity:0.501961;stroke-dasharray:5,2;stroke-miterlimit:4;" d="M 86 -145 C 86 -137.820312 80.179688 -132 73 -132 C 65.820312 -132 60 -137.820312 60 -145 C 60 -152.179688 65.820312 -158 73 -158 C 80.179688 -158 86 -152.179688 86 -145 Z M 86 -145 " transform="matrix(1,0,0,1,4,206)"/>
<path style=" stroke:none;fill-rule:nonzero;fill:rgb(0%,0%,0%);fill-opacity:1;" d="M 73.550781 63.820312 C 73.941406 63.777344 74.1875 63.703125 74.285156 63.601562 C 74.382812 63.5 74.429688 63.230469 74.429688 62.796875 L 74.429688 58.46875 C 74.429688 58.109375 74.375 57.875 74.265625 57.769531 C 74.15625 57.664062 73.917969 57.59375 73.550781 57.570312 L 73.550781 57.382812 L 76.328125 57.382812 L 76.328125 57.570312 C 75.960938 57.59375 75.722656 57.664062 75.613281 57.769531 C 75.5 57.875 75.445312 58.109375 75.445312 58.46875 L 75.445312 60.414062 L 78.476562 60.414062 L 78.476562 58.46875 C 78.476562 58.109375 78.425781 57.875 78.316406 57.769531 C 78.210938 57.664062 77.96875 57.59375 77.601562 57.570312 L 77.601562 57.382812 L 80.378906 57.382812 L 80.378906 57.570312 C 80.011719 57.59375 79.773438 57.664062 79.664062 57.769531 C 79.554688 57.875 79.5 58.109375 79.5 58.46875 L 79.5 62.914062 C 79.5 63.28125 79.554688 63.515625 79.664062 63.617188 C 79.773438 63.71875 80.011719 63.785156 80.378906 63.820312 L 80.378906 64 L 77.601562 64 L 77.601562 63.820312 C 77.992188 63.78125 78.238281 63.707031 78.335938 63.605469 C 78.429688 63.5 78.476562 63.230469 78.476562 62.796875 L 78.476562 60.855469 L 75.445312 60.855469 L 75.445312 62.914062 C 75.445312 63.28125 75.5 63.515625 75.613281 63.617188 C 75.722656 63.722656 75.960938 63.789062 76.328125 63.820312 L 76.328125 64 L 73.550781 64 Z M 73.390625 56.5 "/>
<path style="fill:none;stroke-width:1;stroke-linecap:butt;stroke-linejoin:miter;stroke:rgb(74.901962%,74.901962%,74.901962%);stroke-opacity:1;stroke-miterlimit:4;" d="M 24.050781 -143.394531 C 34.007812 -143.722656 48.164062 -144.1875 58.695312 -144.53125 " transform="matrix(1,0,0,1,4,206)"/>
<path style="fill-rule:nonzero;fill:rgb(74.901962%,74.901962%,74.901962%);fill-opacity:1;stroke-width:1;stroke-linecap:butt;stroke-linejoin:miter;stroke:rgb(74.901962%,74.901962%,74.901962%);stroke-opacity:1;stroke-miterlimit:4;" d="M 59.703125 -144.550781 C 59.703125 -144.328125 59.523438 -144.152344 59.304688 -144.152344 C 59.082031 -144.152344 58.902344 -144.328125 58.902344 -144.550781 C 58.902344 -144.773438 59.082031 -144.949219 59.304688 -144.949219 C 59.523438 -144.949219 59.703125 -144.773438 59.703125 -144.550781 Z M 59.703125 -144.550781 " transform="matrix(1,0,0,1,4,206)"/>
<path style="fill:none;stroke-width:3;stroke-linecap:butt;stroke-linejoin:miter;stroke:rgb(33.725491%,70.588237%,91.37255%);stroke-opacity:0.501961;stroke-dasharray:5,2;stroke-miterlimit:4;" d="M 82 -101 C 82 -96.03125 77.96875 -92 73 -92 C 68.03125 -92 64 -96.03125 64 -101 C 64 -105.96875 68.03125 -110 73 -110 C 77.96875 -110 82 -105.96875 82 -101 Z M 82 -101 " transform="matrix(1,0,0,1,4,206)"/>
<path style="fill:none;stroke-width:3;stroke-linecap:butt;stroke-linejoin:miter;stroke:rgb(33.725491%,70.588237%,91.37255%);stroke-opacity:0.501961;stroke-dasharray:5,2;stroke-miterlimit:4;" d="M 86 -101 C 86 -93.820312 80.179688 -88 73 -88 C 65.820312 -88 60 -93.820312 60 -101 C 60 -108.179688 65.820312 -114 73 -114 C 80.179688 -114 86 -108.179688 86 -101 Z M 86 -101 " transform="matrix(1,0,0,1,4,206)"/>
<path style=" stroke:none;fill-rule:nonzero;fill:rgb(0%,0%,0%);fill-opacity:1;" d="M 73.550781 107.820312 C 73.941406 107.777344 74.1875 107.703125 74.285156 107.601562 C 74.382812 107.5 74.429688 107.230469 74.429688 106.796875 L 74.429688 102.46875 C 74.429688 102.109375 74.375 101.875 74.265625 101.769531 C 74.15625 101.664062 73.917969 101.59375 73.550781 101.570312 L 73.550781 101.382812 L 76.328125 101.382812 L 76.328125 101.570312 C 75.960938 101.59375 75.722656 101.664062 75.613281 101.769531 C 75.5 101.875 75.445312 102.109375 75.445312 102.46875 L 75.445312 104.414062 L 78.476562 104.414062 L 78.476562 102.46875 C 78.476562 102.109375 78.425781 101.875 78.316406 101.769531 C 78.210938 101.664062 77.96875 101.59375 77.601562 101.570312 L 77.601562 101.382812 L 80.378906 101.382812 L 80.378906 101.570312 C 80.011719 101.59375 79.773438 101.664062 79.664062 101.769531 C 79.554688 101.875 79.5 102.109375 79.5 102.46875 L 79.5 106.914062 C 79.5 107.28125 79.554688 107.515625 79.664062 107.617188 C 79.773438 107.71875 80.011719 107.785156 80.378906 107.820312 L 80.378906 108 L 77.601562 108 L 77.601562 107.820312 C 77.992188 107.78125 78.238281 107.707031 78.335938 107.605469 C 78.429688 107.5 78.476562 107.230469 78.476562 106.796875 L 78.476562 104.855469 L 75.445312 104.855469 L 75.445312 106.914062 C 75.445312 107.28125 75.5 107.515625 75.613281 107.617188 C 75.722656 107.722656 75.960938 107.789062 76.328125 107.820312 L 76.328125 108 L 73.550781 108 Z M 73.390625 100.5 "/>
<path style="fill:none;stroke-width:1;stroke-linecap:butt;stroke-linejoin:miter;stroke:rgb(74.901962%,74.901962%,74.901962%);stroke-opacity:1;stroke-miterlimit:4;" d="M 22.074219 -136.066406 C 32.78125 -128.691406 49.703125 -117.039062 61.070312 -109.214844 " transform="matrix(1,0,0,1,4,206)"/>
<path style="fill-rule:nonzero;fill:rgb(74.901962%,74.901962%,74.901962%);fill-opacity:1;stroke-width:1;stroke-linecap:butt;stroke-linejoin:miter;stroke:rgb(74.901962%,74.901962%,74.901962%);stroke-opacity:1;stroke-miterlimit:4;" d="M 61.949219 -108.882812 C 61.949219 -108.664062 61.769531 -108.484375 61.546875 -108.484375 C 61.328125 -108.484375 61.148438 -108.664062 61.148438 -108.882812 C 61.148438 -109.105469 61.328125 -109.285156 61.546875 -109.285156 C 61.769531 -109.285156 61.949219 -109.105469 61.949219 -108.882812 Z M 61.949219 -108.882812 " transform="matrix(1,0,0,1,4,206)"/>
<path style="fill:none;stroke-width:3;stroke-linecap:butt;stroke-linejoin:miter;stroke:rgb(33.725491%,70.588237%,91.37255%);stroke-opacity:0.501961;stroke-dasharray:5,2;stroke-miterlimit:4;" d="M 82 -57 C 82 -52.03125 77.96875 -48 73 -48 C 68.03125 -48 64 -52.03125 64 -57 C 64 -61.96875 68.03125 -66 73 -66 C 77.96875 -66 82 -61.96875 82 -57 Z M 82 -57 " transform="matrix(1,0,0,1,4,206)"/>
<path style="fill:none;stroke-width:3;stroke-linecap:butt;stroke-linejoin:miter;stroke:rgb(33.725491%,70.588237%,91.37255%);stroke-opacity:0.501961;stroke-dasharray:5,2;stroke-miterlimit:4;" d="M 86 -57 C 86 -49.820312 80.179688 -44 73 -44 C 65.820312 -44 60 -49.820312 60 -57 C 60 -64.179688 65.820312 -70 73 -70 C 80.179688 -70 86 -64.179688 86 -57 Z M 86 -57 " transform="matrix(1,0,0,1,4,206)"/>
<path style=" stroke:none;fill-rule:nonzero;fill:rgb(0%,0%,0%);fill-opacity:1;" d="M 73.550781 151.820312 C 73.941406 151.777344 74.1875 151.703125 74.285156 151.601562 C 74.382812 151.5 74.429688 151.230469 74.429688 150.796875 L 74.429688 146.46875 C 74.429688 146.109375 74.375 145.875 74.265625 145.769531 C 74.15625 145.664062 73.917969 145.59375 73.550781 145.570312 L 73.550781 145.382812 L 76.328125 145.382812 L 76.328125 145.570312 C 75.960938 145.59375 75.722656 145.664062 75.613281 145.769531 C 75.5 145.875 75.445312 146.109375 75.445312 146.46875 L 75.445312 148.414062 L 78.476562 148.414062 L 78.476562 146.46875 C 78.476562 146.109375 78.425781 145.875 78.316406 145.769531 C 78.210938 145.664062 77.96875 145.59375 77.601562 145.570312 L 77.601562 145.382812 L 80.378906 145.382812 L 80.378906 145.570312 C 80.011719 145.59375 79.773438 145.664062 79.664062 145.769531 C 79.554688 145.875 79.5 146.109375 79.5 146.46875 L 79.5 150.914062 C 79.5 151.28125 79.554688 151.515625 79.664062 151.617188 C 79.773438 151.71875 80.011719 151.785156 80.378906 151.820312 L 80.378906 152 L 77.601562 152 L 77.601562 151.820312 C 77.992188 151.78125 78.238281 151.707031 78.335938 151.605469 C 78.429688 151.5 78.476562 151.230469 78.476562 150.796875 L 78.476562 148.855469 L 75.445312 148.855469 L 75.445312 150.914062 C 75.445312 151.28125 75.5 151.515625 75.613281 151.617188 C 75.722656 151.722656 75.960938 151.789062 76.328125 151.820312 L 76.328125 152 L 73.550781 152 Z M 73.390625 144.5 "/>
<path style="fill:none;stroke-width:1;stroke-linecap:butt;stroke-linejoin:miter;stroke:rgb(74.901962%,74.901962%,74.901962%);stroke-opacity:1;stroke-miterlimit:4;" d="M 18.996094 -133.132812 C 30.332031 -117.152344 52.660156 -85.671875 64.753906 -68.628906 " transform="matrix(1,0,0,1,4,206)"/>
<path style="fill-rule:nonzero;fill:rgb(74.901962%,74.901962%,74.901962%);fill-opacity:1;stroke-width:1;stroke-linecap:butt;stroke-linejoin:miter;stroke:rgb(74.901962%,74.901962%,74.901962%);stroke-opacity:1;stroke-miterlimit:4;" d="M 65.488281 -68.152344 C 65.488281 -67.933594 65.308594 -67.753906 65.089844 -67.753906 C 64.867188 -67.753906 64.6875 -67.933594 64.6875 -68.152344 C 64.6875 -68.375 64.867188 -68.554688 65.089844 -68.554688 C 65.308594 -68.554688 65.488281 -68.375 65.488281 -68.152344 Z M 65.488281 -68.152344 " transform="matrix(1,0,0,1,4,206)"/>
<path style="fill:none;stroke-width:3;stroke-linecap:butt;stroke-linejoin:miter;stroke:rgb(33.725491%,70.588237%,91.37255%);stroke-opacity:0.501961;stroke-dasharray:5,2;stroke-miterlimit:4;" d="M 82 -13 C 82 -8.03125 77.96875 -4 73 -4 C 68.03125 -4 64 -8.03125 64 -13 C 64 -17.96875 68.03125 -22 73 -22 C 77.96875 -22 82 -17.96875 82 -13 Z M 82 -13 " transform="matrix(1,0,0,1,4,206)"/>
<path style="fill:none;stroke-width:3;stroke-linecap:butt;stroke-linejoin:miter;stroke:rgb(33.725491%,70.588237%,91.37255%);stroke-opacity:0.501961;stroke-dasharray:5,2;stroke-miterlimit:4;" d="M 86 -13 C 86 -5.820312 80.179688 0 73 0 C 65.820312 0 60 -5.820312 60 -13 C 60 -20.179688 65.820312 -26 73 -26 C 80.179688 -26 86 -20.179688 86 -13 Z M 86 -13 " transform="matrix(1,0,0,1,4,206)"/>
<path style=" stroke:none;fill-rule:nonzero;fill:rgb(0%,0%,0%);fill-opacity:1;" d="M 73.550781 195.820312 C 73.941406 195.777344 74.1875 195.703125 74.285156 195.601562 C 74.382812 195.5 74.429688 195.230469 74.429688 194.796875 L 74.429688 190.46875 C 74.429688 190.109375 74.375 189.875 74.265625 189.769531 C 74.15625 189.664062 73.917969 189.59375 73.550781 189.570312 L 73.550781 189.382812 L 76.328125 189.382812 L 76.328125 189.570312 C 75.960938 189.59375 75.722656 189.664062 75.613281 189.769531 C 75.5 189.875 75.445312 190.109375 75.445312 190.46875 L 75.445312 192.414062 L 78.476562 192.414062 L 78.476562 190.46875 C 78.476562 190.109375 78.425781 189.875 78.316406 189.769531 C 78.210938 189.664062 77.96875 189.59375 77.601562 189.570312 L 77.601562 189.382812 L 80.378906 189.382812 L 80.378906 189.570312 C 80.011719 189.59375 79.773438 189.664062 79.664062 189.769531 C 79.554688 189.875 79.5 190.109375 79.5 190.46875 L 79.5 194.914062 C 79.5 195.28125 79.554688 195.515625 79.664062 195.617188 C 79.773438 195.71875 80.011719 195.785156 80.378906 195.820312 L 80.378906 196 L 77.601562 196 L 77.601562 195.820312 C 77.992188 195.78125 78.238281 195.707031 78.335938 195.605469 C 78.429688 195.5 78.476562 195.230469 78.476562 194.796875 L 78.476562 192.855469 L 75.445312 192.855469 L 75.445312 194.914062 C 75.445312 195.28125 75.5 195.515625 75.613281 195.617188 C 75.722656 195.722656 75.960938 195.789062 76.328125 195.820312 L 76.328125 196 L 73.550781 196 Z M 73.390625 188.5 "/>
<path style="fill:none;stroke-width:1;stroke-linecap:butt;stroke-linejoin:miter;stroke:rgb(74.901962%,74.901962%,74.901962%);stroke-opacity:1;stroke-miterlimit:4;" d="M 18.371094 -132.457031 C 20.273438 -129.15625 22.300781 -125.46875 24 -122 C 42.417969 -84.425781 41.308594 -72.441406 60 -35 C 61.652344 -31.691406 63.605469 -28.203125 65.492188 -25.003906 " transform="matrix(1,0,0,1,4,206)"/>
<path style="fill-rule:nonzero;fill:rgb(74.901962%,74.901962%,74.901962%);fill-opacity:1;stroke-width:1;stroke-linecap:butt;stroke-linejoin:miter;stroke:rgb(74.901962%,74.901962%,74.901962%);stroke-opacity:1;stroke-miterlimit:4;" d="M 66.269531 -24.367188 C 66.269531 -24.144531 66.089844 -23.964844 65.871094 -23.964844 C 65.648438 -23.964844 65.46875 -24.144531 65.46875 -24.367188 C 65.46875 -24.585938 65.648438 -24.765625 65.871094 -24.765625 C 66.089844 -24.765625 66.269531 -24.585938 66.269531 -24.367188 Z M 66.269531 -24.367188 " transform="matrix(1,0,0,1,4,206)"/>
<path style="fill:none;stroke-width:3;stroke-linecap:butt;stroke-linejoin:miter;stroke:rgb(33.725491%,70.588237%,91.37255%);stroke-opacity:0.501961;stroke-dasharray:5,2;stroke-miterlimit:4;" d="M 82 -189 C 82 -184.03125 77.96875 -180 73 -180 C 68.03125 -180 64 -184.03125 64 -189 C 64 -193.96875 68.03125 -198 73 -198 C 77.96875 -198 82 -193.96875 82 -189 Z M 82 -189 " transform="matrix(1,0,0,1,4,206)"/>
<path style="fill:none;stroke-width:3;stroke-linecap:butt;stroke-linejoin:miter;stroke:rgb(33.725491%,70.588237%,91.37255%);stroke-opacity:0.501961;stroke-dasharray:5,2;stroke-miterlimit:4;" d="M 86 -189 C 86 -181.820312 80.179688 -176 73 -176 C 65.820312 -176 60 -181.820312 60 -189 C 60 -196.179688 65.820312 -202 73 -202 C 80.179688 -202 86 -196.179688 86 -189 Z M 86 -189 " transform="matrix(1,0,0,1,4,206)"/>
<path style=" stroke:none;fill-rule:nonzero;fill:rgb(0%,0%,0%);fill-opacity:1;" d="M 73.550781 19.820312 C 73.941406 19.777344 74.1875 19.703125 74.285156 19.601562 C 74.382812 19.5 74.429688 19.230469 74.429688 18.796875 L 74.429688 14.46875 C 74.429688 14.109375 74.375 13.875 74.265625 13.769531 C 74.15625 13.664062 73.917969 13.59375 73.550781 13.570312 L 73.550781 13.382812 L 76.328125 13.382812 L 76.328125 13.570312 C 75.960938 13.59375 75.722656 13.664062 75.613281 13.769531 C 75.5 13.875 75.445312 14.109375 75.445312 14.46875 L 75.445312 16.414062 L 78.476562 16.414062 L 78.476562 14.46875 C 78.476562 14.109375 78.425781 13.875 78.316406 13.769531 C 78.210938 13.664062 77.96875 13.59375 77.601562 13.570312 L 77.601562 13.382812 L 80.378906 13.382812 L 80.378906 13.570312 C 80.011719 13.59375 79.773438 13.664062 79.664062 13.769531 C 79.554688 13.875 79.5 14.109375 79.5 14.46875 L 79.5 18.914062 C 79.5 19.28125 79.554688 19.515625 79.664062 19.617188 C 79.773438 19.71875 80.011719 19.785156 80.378906 19.820312 L 80.378906 20 L 77.601562 20 L 77.601562 19.820312 C 77.992188 19.78125 78.238281 19.707031 78.335938 19.605469 C 78.429688 19.5 78.476562 19.230469 78.476562 18.796875 L 78.476562 16.855469 L 75.445312 16.855469 L 75.445312 18.914062 C 75.445312 19.28125 75.5 19.515625 75.613281 19.617188 C 75.722656 19.722656 75.960938 19.789062 76.328125 19.820312 L 76.328125 20 L 73.550781 20 Z M 73.390625 12.5 "/>
<path style="fill:none;stroke-width:1;stroke-linecap:butt;stroke-linejoin:miter;stroke:rgb(74.901962%,74.901962%,74.901962%);stroke-opacity:1;stroke-miterlimit:4;" d="M 21.800781 -150.390625 C 32.71875 -158.625 50.339844 -171.914062 61.796875 -180.550781 " transform="matrix(1,0,0,1,4,206)"/>
<path style="fill-rule:nonzero;fill:rgb(74.901962%,74.901962%,74.901962%);fill-opacity:1;stroke-width:1;stroke-linecap:butt;stroke-linejoin:miter;stroke:rgb(74.901962%,74.901962%,74.901962%);stroke-opacity:1;stroke-miterlimit:4;" d="M 62.691406 -180.925781 C 62.691406 -180.703125 62.511719 -180.523438 62.292969 -180.523438 C 62.070312 -180.523438 61.890625 -180.703125 61.890625 -180.925781 C 61.890625 -181.144531 62.070312 -181.324219 62.292969 -181.324219 C 62.511719 -181.324219 62.691406 -181.144531 62.691406 -180.925781 Z M 62.691406 -180.925781 " transform="matrix(1,0,0,1,4,206)"/>
<path style="fill:none;stroke-width:1;stroke-linecap:butt;stroke-linejoin:miter;stroke:rgb(49.803922%,49.803922%,49.803922%);stroke-opacity:1;stroke-miterlimit:4;" d="M 24 -101 C 24 -94.371094 18.628906 -89 12 -89 C 5.371094 -89 0 -94.371094 0 -101 C 0 -107.628906 5.371094 -113 12 -113 C 18.628906 -113 24 -107.628906 24 -101 Z M 24 -101 " transform="matrix(1,0,0,1,4,206)"/>
<path style=" stroke:none;fill-rule:nonzero;fill:rgb(0%,0%,0%);fill-opacity:1;" d="M 12.394531 106.691406 C 12.554688 106.675781 12.679688 106.632812 12.761719 106.5625 C 12.847656 106.496094 13.011719 106.308594 13.261719 106.003906 L 14.199219 104.847656 L 13.535156 103.886719 C 13.246094 103.46875 13.042969 103.210938 12.929688 103.109375 C 12.8125 103.003906 12.65625 102.949219 12.464844 102.941406 L 12.464844 102.832031 L 14.273438 102.832031 L 14.273438 102.941406 C 14.101562 102.949219 13.988281 102.960938 13.933594 102.976562 C 13.855469 103.003906 13.816406 103.058594 13.816406 103.144531 C 13.816406 103.199219 13.832031 103.265625 13.871094 103.339844 C 13.890625 103.378906 13.917969 103.425781 13.957031 103.476562 L 14.578125 104.378906 L 15.261719 103.550781 C 15.363281 103.433594 15.429688 103.335938 15.464844 103.265625 C 15.484375 103.222656 15.496094 103.183594 15.496094 103.148438 C 15.496094 103.058594 15.453125 103 15.367188 102.972656 C 15.316406 102.953125 15.21875 102.945312 15.082031 102.941406 L 15.082031 102.832031 L 16.503906 102.832031 L 16.503906 102.941406 C 16.34375 102.945312 16.21875 102.972656 16.132812 103.019531 C 15.992188 103.09375 15.820312 103.257812 15.617188 103.511719 L 14.734375 104.59375 L 15.886719 106.246094 C 16.007812 106.425781 16.113281 106.539062 16.191406 106.585938 C 16.273438 106.632812 16.394531 106.667969 16.554688 106.691406 L 16.554688 106.800781 L 14.777344 106.800781 L 14.777344 106.683594 C 14.945312 106.679688 15.0625 106.664062 15.132812 106.640625 C 15.199219 106.613281 15.230469 106.566406 15.230469 106.492188 C 15.230469 106.429688 15.1875 106.328125 15.097656 106.183594 C 15.007812 106.039062 14.757812 105.667969 14.351562 105.066406 L 13.640625 105.964844 C 13.539062 106.09375 13.464844 106.191406 13.425781 106.25 C 13.359375 106.347656 13.328125 106.417969 13.328125 106.464844 C 13.328125 106.550781 13.378906 106.609375 13.480469 106.644531 C 13.542969 106.667969 13.644531 106.683594 13.789062 106.691406 L 13.789062 106.800781 L 12.394531 106.800781 Z M 16.84375 106.734375 C 17.558594 105.992188 18.042969 105.445312 18.296875 105.097656 C 18.554688 104.75 18.683594 104.410156 18.683594 104.082031 C 18.683594 103.792969 18.605469 103.574219 18.449219 103.421875 C 18.292969 103.269531 18.105469 103.195312 17.890625 103.195312 C 17.621094 103.195312 17.40625 103.292969 17.238281 103.488281 C 17.148438 103.59375 17.058594 103.761719 16.976562 103.980469 L 16.847656 103.957031 C 16.945312 103.507812 17.113281 103.195312 17.34375 103.019531 C 17.578125 102.84375 17.828125 102.757812 18.097656 102.757812 C 18.425781 102.757812 18.695312 102.863281 18.898438 103.070312 C 19.101562 103.277344 19.203125 103.53125 19.203125 103.832031 C 19.203125 104.152344 19.09375 104.460938 18.875 104.757812 C 18.652344 105.054688 18.171875 105.582031 17.433594 106.34375 L 18.78125 106.34375 C 18.96875 106.34375 19.097656 106.320312 19.175781 106.277344 C 19.25 106.230469 19.335938 106.121094 19.433594 105.949219 L 19.507812 105.984375 L 19.183594 106.800781 L 16.84375 106.800781 Z M 12.332031 102.300781 "/>
<path style="fill:none;stroke-width:1;stroke-linecap:butt;stroke-linejoin:miter;stroke:rgb(74.901962%,74.901962%,74.901962%);stroke-opacity:1;stroke-miterlimit:4;" d="M 21.800781 -108.070312 C 32.589844 -115.851562 49.917969 -128.351562 61.378906 -136.617188 " transform="matrix(1,0,0,1,4,206)"/>
<path style="fill-rule:nonzero;fill:rgb(74.901962%,74.901962%,74.901962%);fill-opacity:1;stroke-width:1;stroke-linecap:butt;stroke-linejoin:miter;stroke:rgb(74.901962%,74.901962%,74.901962%);stroke-opacity:1;stroke-miterlimit:4;" d="M 62.269531 -136.972656 C 62.269531 -136.75 62.09375 -136.574219 61.871094 -136.574219 C 61.648438 -136.574219 61.472656 -136.75 61.472656 -136.972656 C 61.472656 -137.195312 61.648438 -137.371094 61.871094 -137.371094 C 62.09375 -137.371094 62.269531 -137.195312 62.269531 -136.972656 Z M 62.269531 -136.972656 " transform="matrix(1,0,0,1,4,206)"/>
<path style="fill:none;stroke-width:1;stroke-linecap:butt;stroke-linejoin:miter;stroke:rgb(74.901962%,74.901962%,74.901962%);stroke-opacity:1;stroke-miterlimit:4;" d="M 24.050781 -101 C 34.007812 -101 48.164062 -101 58.695312 -101 " transform="matrix(1,0,0,1,4,206)"/>
<path style="fill-rule:nonzero;fill:rgb(74.901962%,74.901962%,74.901962%);fill-opacity:1;stroke-width:1;stroke-linecap:butt;stroke-linejoin:miter;stroke:rgb(74.901962%,74.901962%,74.901962%);stroke-opacity:1;stroke-miterlimit:4;" d="M 59.703125 -101 C 59.703125 -100.777344 59.523438 -100.601562 59.304688 -100.601562 C 59.082031 -100.601562 58.902344 -100.777344 58.902344 -101 C 58.902344 -101.222656 59.082031 -101.398438 59.304688 -101.398438 C 59.523438 -101.398438 59.703125 -101.222656 59.703125 -101 Z M 59.703125 -101 " transform="matrix(1,0,0,1,4,206)"/>
<path style="fill:none;stroke-width:1;stroke-linecap:butt;stroke-linejoin:miter;stroke:rgb(74.901962%,74.901962%,74.901962%);stroke-opacity:1;stroke-miterlimit:4;" d="M 21.800781 -93.929688 C 32.589844 -86.148438 49.917969 -73.648438 61.378906 -65.382812 " transform="matrix(1,0,0,1,4,206)"/>
<path style="fill-rule:nonzero;fill:rgb(74.901962%,74.901962%,74.901962%);fill-opacity:1;stroke-width:1;stroke-linecap:butt;stroke-linejoin:miter;stroke:rgb(74.901962%,74.901962%,74.901962%);stroke-opacity:1;stroke-miterlimit:4;" d="M 62.269531 -65.027344 C 62.269531 -64.804688 62.09375 -64.628906 61.871094 -64.628906 C 61.648438 -64.628906 61.472656 -64.804688 61.472656 -65.027344 C 61.472656 -65.25 61.648438 -65.425781 61.871094 -65.425781 C 62.09375 -65.425781 62.269531 -65.25 62.269531 -65.027344 Z M 62.269531 -65.027344 " transform="matrix(1,0,0,1,4,206)"/>
<path style="fill:none;stroke-width:1;stroke-linecap:butt;stroke-linejoin:miter;stroke:rgb(74.901962%,74.901962%,74.901962%);stroke-opacity:1;stroke-miterlimit:4;" d="M 18.996094 -90.90625 C 30.394531 -74.460938 52.90625 -41.988281 64.949219 -24.613281 " transform="matrix(1,0,0,1,4,206)"/>
<path style="fill-rule:nonzero;fill:rgb(74.901962%,74.901962%,74.901962%);fill-opacity:1;stroke-width:1;stroke-linecap:butt;stroke-linejoin:miter;stroke:rgb(74.901962%,74.901962%,74.901962%);stroke-opacity:1;stroke-miterlimit:4;" d="M 65.6875 -24.128906 C 65.6875 -23.90625 65.507812 -23.726562 65.285156 -23.726562 C 65.066406 -23.726562 64.886719 -23.90625 64.886719 -24.128906 C 64.886719 -24.347656 65.066406 -24.527344 65.285156 -24.527344 C 65.507812 -24.527344 65.6875 -24.347656 65.6875 -24.128906 Z M 65.6875 -24.128906 " transform="matrix(1,0,0,1,4,206)"/>
<path style="fill:none;stroke-width:1;stroke-linecap:butt;stroke-linejoin:miter;stroke:rgb(74.901962%,74.901962%,74.901962%);stroke-opacity:1;stroke-miterlimit:4;" d="M 18.996094 -111.09375 C 30.394531 -127.539062 52.90625 -160.011719 64.949219 -177.386719 " transform="matrix(1,0,0,1,4,206)"/>
<path style="fill-rule:nonzero;fill:rgb(74.901962%,74.901962%,74.901962%);fill-opacity:1;stroke-width:1;stroke-linecap:butt;stroke-linejoin:miter;stroke:rgb(74.901962%,74.901962%,74.901962%);stroke-opacity:1;stroke-miterlimit:4;" d="M 65.6875 -177.871094 C 65.6875 -177.652344 65.507812 -177.472656 65.285156 -177.472656 C 65.066406 -177.472656 64.886719 -177.652344 64.886719 -177.871094 C 64.886719 -178.09375 65.066406 -178.273438 65.285156 -178.273438 C 65.507812 -178.273438 65.6875 -178.09375 65.6875 -177.871094 Z M 65.6875 -177.871094 " transform="matrix(1,0,0,1,4,206)"/>
<path style="fill:none;stroke-width:1;stroke-linecap:butt;stroke-linejoin:miter;stroke:rgb(49.803922%,49.803922%,49.803922%);stroke-opacity:1;stroke-miterlimit:4;" d="M 24 -59 C 24 -52.371094 18.628906 -47 12 -47 C 5.371094 -47 0 -52.371094 0 -59 C 0 -65.628906 5.371094 -71 12 -71 C 18.628906 -71 24 -65.628906 24 -59 Z M 24 -59 " transform="matrix(1,0,0,1,4,206)"/>
<path style=" stroke:none;fill-rule:nonzero;fill:rgb(0%,0%,0%);fill-opacity:1;" d="M 12.394531 148.691406 C 12.554688 148.675781 12.679688 148.632812 12.761719 148.5625 C 12.847656 148.496094 13.011719 148.308594 13.261719 148.003906 L 14.199219 146.847656 L 13.535156 145.886719 C 13.246094 145.46875 13.042969 145.210938 12.929688 145.109375 C 12.8125 145.003906 12.65625 144.949219 12.464844 144.941406 L 12.464844 144.832031 L 14.273438 144.832031 L 14.273438 144.941406 C 14.101562 144.949219 13.988281 144.960938 13.933594 144.976562 C 13.855469 145.003906 13.816406 145.058594 13.816406 145.144531 C 13.816406 145.199219 13.832031 145.265625 13.871094 145.339844 C 13.890625 145.378906 13.917969 145.425781 13.957031 145.476562 L 14.578125 146.378906 L 15.261719 145.550781 C 15.363281 145.433594 15.429688 145.335938 15.464844 145.265625 C 15.484375 145.222656 15.496094 145.183594 15.496094 145.148438 C 15.496094 145.058594 15.453125 145 15.367188 144.972656 C 15.316406 144.953125 15.21875 144.945312 15.082031 144.941406 L 15.082031 144.832031 L 16.503906 144.832031 L 16.503906 144.941406 C 16.34375 144.945312 16.21875 144.972656 16.132812 145.019531 C 15.992188 145.09375 15.820312 145.257812 15.617188 145.511719 L 14.734375 146.59375 L 15.886719 148.246094 C 16.007812 148.425781 16.113281 148.539062 16.191406 148.585938 C 16.273438 148.632812 16.394531 148.667969 16.554688 148.691406 L 16.554688 148.800781 L 14.777344 148.800781 L 14.777344 148.683594 C 14.945312 148.679688 15.0625 148.664062 15.132812 148.640625 C 15.199219 148.613281 15.230469 148.566406 15.230469 148.492188 C 15.230469 148.429688 15.1875 148.328125 15.097656 148.183594 C 15.007812 148.039062 14.757812 147.667969 14.351562 147.066406 L 13.640625 147.964844 C 13.539062 148.09375 13.464844 148.191406 13.425781 148.25 C 13.359375 148.347656 13.328125 148.417969 13.328125 148.464844 C 13.328125 148.550781 13.378906 148.609375 13.480469 148.644531 C 13.542969 148.667969 13.644531 148.683594 13.789062 148.691406 L 13.789062 148.800781 L 12.394531 148.800781 Z M 17.128906 148.292969 C 17.238281 148.292969 17.378906 148.347656 17.554688 148.457031 C 17.734375 148.570312 17.882812 148.625 18.007812 148.625 C 18.28125 148.625 18.484375 148.53125 18.617188 148.347656 C 18.75 148.164062 18.8125 147.964844 18.8125 147.746094 C 18.8125 147.535156 18.761719 147.355469 18.652344 147.195312 C 18.472656 146.925781 18.164062 146.792969 17.734375 146.792969 C 17.707031 146.792969 17.683594 146.792969 17.660156 146.796875 C 17.636719 146.796875 17.609375 146.800781 17.578125 146.800781 L 17.570312 146.726562 C 17.882812 146.613281 18.132812 146.484375 18.3125 146.335938 C 18.492188 146.191406 18.578125 145.996094 18.578125 145.757812 C 18.578125 145.542969 18.507812 145.382812 18.367188 145.269531 C 18.226562 145.160156 18.0625 145.105469 17.882812 145.105469 C 17.667969 145.105469 17.476562 145.183594 17.3125 145.339844 C 17.222656 145.425781 17.128906 145.558594 17.023438 145.738281 L 16.933594 145.71875 C 17.011719 145.421875 17.15625 145.183594 17.371094 145.007812 C 17.582031 144.828125 17.828125 144.738281 18.109375 144.738281 C 18.40625 144.738281 18.636719 144.824219 18.800781 144.988281 C 18.964844 145.152344 19.046875 145.339844 19.046875 145.554688 C 19.046875 145.746094 18.976562 145.917969 18.84375 146.074219 C 18.765625 146.164062 18.648438 146.265625 18.488281 146.378906 C 18.675781 146.457031 18.828125 146.550781 18.941406 146.660156 C 19.152344 146.863281 19.257812 147.125 19.257812 147.4375 C 19.257812 147.808594 19.113281 148.136719 18.820312 148.417969 C 18.53125 148.703125 18.113281 148.84375 17.574219 148.84375 C 17.335938 148.84375 17.167969 148.808594 17.070312 148.738281 C 16.972656 148.667969 16.925781 148.589844 16.925781 148.507812 C 16.925781 148.457031 16.941406 148.410156 16.972656 148.363281 C 17.003906 148.316406 17.058594 148.292969 17.128906 148.292969 Z M 12.332031 144.300781 "/>
<path style="fill:none;stroke-width:1;stroke-linecap:butt;stroke-linejoin:miter;stroke:rgb(74.901962%,74.901962%,74.901962%);stroke-opacity:1;stroke-miterlimit:4;" d="M 18.996094 -68.867188 C 30.332031 -84.847656 52.660156 -116.328125 64.753906 -133.371094 " transform="matrix(1,0,0,1,4,206)"/>
<path style="fill-rule:nonzero;fill:rgb(74.901962%,74.901962%,74.901962%);fill-opacity:1;stroke-width:1;stroke-linecap:butt;stroke-linejoin:miter;stroke:rgb(74.901962%,74.901962%,74.901962%);stroke-opacity:1;stroke-miterlimit:4;" d="M 65.488281 -133.847656 C 65.488281 -133.625 65.308594 -133.445312 65.089844 -133.445312 C 64.867188 -133.445312 64.6875 -133.625 64.6875 -133.847656 C 64.6875 -134.066406 64.867188 -134.246094 65.089844 -134.246094 C 65.308594 -134.246094 65.488281 -134.066406 65.488281 -133.847656 Z M 65.488281 -133.847656 " transform="matrix(1,0,0,1,4,206)"/>
<path style="fill:none;stroke-width:1;stroke-linecap:butt;stroke-linejoin:miter;stroke:rgb(74.901962%,74.901962%,74.901962%);stroke-opacity:1;stroke-miterlimit:4;" d="M 22.074219 -65.933594 C 32.78125 -73.308594 49.703125 -84.960938 61.070312 -92.785156 " transform="matrix(1,0,0,1,4,206)"/>
<path style="fill-rule:nonzero;fill:rgb(74.901962%,74.901962%,74.901962%);fill-opacity:1;stroke-width:1;stroke-linecap:butt;stroke-linejoin:miter;stroke:rgb(74.901962%,74.901962%,74.901962%);stroke-opacity:1;stroke-miterlimit:4;" d="M 61.949219 -93.117188 C 61.949219 -92.894531 61.769531 -92.714844 61.546875 -92.714844 C 61.328125 -92.714844 61.148438 -92.894531 61.148438 -93.117188 C 61.148438 -93.335938 61.328125 -93.515625 61.546875 -93.515625 C 61.769531 -93.515625 61.949219 -93.335938 61.949219 -93.117188 Z M 61.949219 -93.117188 " transform="matrix(1,0,0,1,4,206)"/>
<path style="fill:none;stroke-width:1;stroke-linecap:butt;stroke-linejoin:miter;stroke:rgb(74.901962%,74.901962%,74.901962%);stroke-opacity:1;stroke-miterlimit:4;" d="M 24.050781 -58.605469 C 34.007812 -58.277344 48.164062 -57.8125 58.695312 -57.46875 " transform="matrix(1,0,0,1,4,206)"/>
<path style="fill-rule:nonzero;fill:rgb(74.901962%,74.901962%,74.901962%);fill-opacity:1;stroke-width:1;stroke-linecap:butt;stroke-linejoin:miter;stroke:rgb(74.901962%,74.901962%,74.901962%);stroke-opacity:1;stroke-miterlimit:4;" d="M 59.703125 -57.449219 C 59.703125 -57.226562 59.523438 -57.050781 59.304688 -57.050781 C 59.082031 -57.050781 58.902344 -57.226562 58.902344 -57.449219 C 58.902344 -57.671875 59.082031 -57.847656 59.304688 -57.847656 C 59.523438 -57.847656 59.703125 -57.671875 59.703125 -57.449219 Z M 59.703125 -57.449219 " transform="matrix(1,0,0,1,4,206)"/>
<path style="fill:none;stroke-width:1;stroke-linecap:butt;stroke-linejoin:miter;stroke:rgb(74.901962%,74.901962%,74.901962%);stroke-opacity:1;stroke-miterlimit:4;" d="M 21.800781 -51.609375 C 32.71875 -43.375 50.339844 -30.085938 61.796875 -21.449219 " transform="matrix(1,0,0,1,4,206)"/>
<path style="fill-rule:nonzero;fill:rgb(74.901962%,74.901962%,74.901962%);fill-opacity:1;stroke-width:1;stroke-linecap:butt;stroke-linejoin:miter;stroke:rgb(74.901962%,74.901962%,74.901962%);stroke-opacity:1;stroke-miterlimit:4;" d="M 62.691406 -21.074219 C 62.691406 -20.855469 62.511719 -20.675781 62.292969 -20.675781 C 62.070312 -20.675781 61.890625 -20.855469 61.890625 -21.074219 C 61.890625 -21.296875 62.070312 -21.476562 62.292969 -21.476562 C 62.511719 -21.476562 62.691406 -21.296875 62.691406 -21.074219 Z M 62.691406 -21.074219 " transform="matrix(1,0,0,1,4,206)"/>
<path style="fill:none;stroke-width:1;stroke-linecap:butt;stroke-linejoin:miter;stroke:rgb(74.901962%,74.901962%,74.901962%);stroke-opacity:1;stroke-miterlimit:4;" d="M 18.371094 -69.542969 C 20.273438 -72.84375 22.300781 -76.53125 24 -80 C 42.417969 -117.574219 41.308594 -129.558594 60 -167 C 61.652344 -170.308594 63.605469 -173.796875 65.492188 -176.996094 " transform="matrix(1,0,0,1,4,206)"/>
<path style="fill-rule:nonzero;fill:rgb(74.901962%,74.901962%,74.901962%);fill-opacity:1;stroke-width:1;stroke-linecap:butt;stroke-linejoin:miter;stroke:rgb(74.901962%,74.901962%,74.901962%);stroke-opacity:1;stroke-miterlimit:4;" d="M 66.269531 -177.632812 C 66.269531 -177.414062 66.089844 -177.234375 65.871094 -177.234375 C 65.648438 -177.234375 65.46875 -177.414062 65.46875 -177.632812 C 65.46875 -177.855469 65.648438 -178.035156 65.871094 -178.035156 C 66.089844 -178.035156 66.269531 -177.855469 66.269531 -177.632812 Z M 66.269531 -177.632812 " transform="matrix(1,0,0,1,4,206)"/>
<path style="fill:none;stroke-width:3;stroke-linecap:butt;stroke-linejoin:miter;stroke:rgb(33.725491%,70.588237%,91.37255%);stroke-opacity:0.501961;stroke-dasharray:5,2;stroke-miterlimit:4;" d="M 144 -145 C 144 -140.03125 139.96875 -136 135 -136 C 130.03125 -136 126 -140.03125 126 -145 C 126 -149.96875 130.03125 -154 135 -154 C 139.96875 -154 144 -149.96875 144 -145 Z M 144 -145 " transform="matrix(1,0,0,1,4,206)"/>
<path style="fill:none;stroke-width:3;stroke-linecap:butt;stroke-linejoin:miter;stroke:rgb(33.725491%,70.588237%,91.37255%);stroke-opacity:0.501961;stroke-dasharray:5,2;stroke-miterlimit:4;" d="M 148 -145 C 148 -137.820312 142.179688 -132 135 -132 C 127.820312 -132 122 -137.820312 122 -145 C 122 -152.179688 127.820312 -158 135 -158 C 142.179688 -158 148 -152.179688 148 -145 Z M 148 -145 " transform="matrix(1,0,0,1,4,206)"/>
<path style=" stroke:none;fill-rule:nonzero;fill:rgb(0%,0%,0%);fill-opacity:1;" d="M 135.550781 63.820312 C 135.941406 63.777344 136.1875 63.703125 136.285156 63.601562 C 136.382812 63.5 136.429688 63.230469 136.429688 62.796875 L 136.429688 58.46875 C 136.429688 58.109375 136.375 57.875 136.265625 57.769531 C 136.15625 57.664062 135.917969 57.59375 135.550781 57.570312 L 135.550781 57.382812 L 138.328125 57.382812 L 138.328125 57.570312 C 137.960938 57.59375 137.722656 57.664062 137.613281 57.769531 C 137.5 57.875 137.445312 58.109375 137.445312 58.46875 L 137.445312 60.414062 L 140.476562 60.414062 L 140.476562 58.46875 C 140.476562 58.109375 140.425781 57.875 140.316406 57.769531 C 140.210938 57.664062 139.96875 57.59375 139.601562 57.570312 L 139.601562 57.382812 L 142.378906 57.382812 L 142.378906 57.570312 C 142.011719 57.59375 141.773438 57.664062 141.664062 57.769531 C 141.554688 57.875 141.5 58.109375 141.5 58.46875 L 141.5 62.914062 C 141.5 63.28125 141.554688 63.515625 141.664062 63.617188 C 141.773438 63.71875 142.011719 63.785156 142.378906 63.820312 L 142.378906 64 L 139.601562 64 L 139.601562 63.820312 C 139.992188 63.78125 140.238281 63.707031 140.335938 63.605469 C 140.429688 63.5 140.476562 63.230469 140.476562 62.796875 L 140.476562 60.855469 L 137.445312 60.855469 L 137.445312 62.914062 C 137.445312 63.28125 137.5 63.515625 137.613281 63.617188 C 137.722656 63.722656 137.960938 63.789062 138.328125 63.820312 L 138.328125 64 L 135.550781 64 Z M 135.390625 56.5 "/>
<path style="fill:none;stroke-width:1;stroke-linecap:butt;stroke-linejoin:miter;stroke:rgb(74.901962%,74.901962%,74.901962%);stroke-opacity:1;stroke-miterlimit:4;" d="M 86.148438 -145 C 96.339844 -145 110.441406 -145 120.871094 -145 " transform="matrix(1,0,0,1,4,206)"/>
<path style="fill-rule:nonzero;fill:rgb(74.901962%,74.901962%,74.901962%);fill-opacity:1;stroke-width:1;stroke-linecap:butt;stroke-linejoin:miter;stroke:rgb(74.901962%,74.901962%,74.901962%);stroke-opacity:1;stroke-miterlimit:4;" d="M 121.871094 -145 C 121.871094 -144.777344 121.691406 -144.601562 121.46875 -144.601562 C 121.25 -144.601562 121.070312 -144.777344 121.070312 -145 C 121.070312 -145.222656 121.25 -145.398438 121.46875 -145.398438 C 121.691406 -145.398438 121.871094 -145.222656 121.871094 -145 Z M 121.871094 -145 " transform="matrix(1,0,0,1,4,206)"/>
<path style="fill:none;stroke-width:3;stroke-linecap:butt;stroke-linejoin:miter;stroke:rgb(33.725491%,70.588237%,91.37255%);stroke-opacity:0.501961;stroke-dasharray:5,2;stroke-miterlimit:4;" d="M 144 -101 C 144 -96.03125 139.96875 -92 135 -92 C 130.03125 -92 126 -96.03125 126 -101 C 126 -105.96875 130.03125 -110 135 -110 C 139.96875 -110 144 -105.96875 144 -101 Z M 144 -101 " transform="matrix(1,0,0,1,4,206)"/>
<path style="fill:none;stroke-width:3;stroke-linecap:butt;stroke-linejoin:miter;stroke:rgb(33.725491%,70.588237%,91.37255%);stroke-opacity:0.501961;stroke-dasharray:5,2;stroke-miterlimit:4;" d="M 148 -101 C 148 -93.820312 142.179688 -88 135 -88 C 127.820312 -88 122 -93.820312 122 -101 C 122 -108.179688 127.820312 -114 135 -114 C 142.179688 -114 148 -108.179688 148 -101 Z M 148 -101 " transform="matrix(1,0,0,1,4,206)"/>
<path style=" stroke:none;fill-rule:nonzero;fill:rgb(0%,0%,0%);fill-opacity:1;" d="M 135.550781 107.820312 C 135.941406 107.777344 136.1875 107.703125 136.285156 107.601562 C 136.382812 107.5 136.429688 107.230469 136.429688 106.796875 L 136.429688 102.46875 C 136.429688 102.109375 136.375 101.875 136.265625 101.769531 C 136.15625 101.664062 135.917969 101.59375 135.550781 101.570312 L 135.550781 101.382812 L 138.328125 101.382812 L 138.328125 101.570312 C 137.960938 101.59375 137.722656 101.664062 137.613281 101.769531 C 137.5 101.875 137.445312 102.109375 137.445312 102.46875 L 137.445312 104.414062 L 140.476562 104.414062 L 140.476562 102.46875 C 140.476562 102.109375 140.425781 101.875 140.316406 101.769531 C 140.210938 101.664062 139.96875 101.59375 139.601562 101.570312 L 139.601562 101.382812 L 142.378906 101.382812 L 142.378906 101.570312 C 142.011719 101.59375 141.773438 101.664062 141.664062 101.769531 C 141.554688 101.875 141.5 102.109375 141.5 102.46875 L 141.5 106.914062 C 141.5 107.28125 141.554688 107.515625 141.664062 107.617188 C 141.773438 107.71875 142.011719 107.785156 142.378906 107.820312 L 142.378906 108 L 139.601562 108 L 139.601562 107.820312 C 139.992188 107.78125 140.238281 107.707031 140.335938 107.605469 C 140.429688 107.5 140.476562 107.230469 140.476562 106.796875 L 140.476562 104.855469 L 137.445312 104.855469 L 137.445312 106.914062 C 137.445312 107.28125 137.5 107.515625 137.613281 107.617188 C 137.722656 107.722656 137.960938 107.789062 138.328125 107.820312 L 138.328125 108 L 135.550781 108 Z M 135.390625 100.5 "/>
<path style="fill:none;stroke-width:1;stroke-linecap:butt;stroke-linejoin:miter;stroke:rgb(74.901962%,74.901962%,74.901962%);stroke-opacity:1;stroke-miterlimit:4;" d="M 83.800781 -137.335938 C 94.914062 -129.449219 112.160156 -117.210938 123.515625 -109.148438 " transform="matrix(1,0,0,1,4,206)"/>
<path style="fill-rule:nonzero;fill:rgb(74.901962%,74.901962%,74.901962%);fill-opacity:1;stroke-width:1;stroke-linecap:butt;stroke-linejoin:miter;stroke:rgb(74.901962%,74.901962%,74.901962%);stroke-opacity:1;stroke-miterlimit:4;" d="M 124.398438 -108.808594 C 124.398438 -108.585938 124.21875 -108.40625 123.996094 -108.40625 C 123.777344 -108.40625 123.597656 -108.585938 123.597656 -108.808594 C 123.597656 -109.027344 123.777344 -109.207031 123.996094 -109.207031 C 124.21875 -109.207031 124.398438 -109.027344 124.398438 -108.808594 Z M 124.398438 -108.808594 " transform="matrix(1,0,0,1,4,206)"/>
<path style="fill:none;stroke-width:3;stroke-linecap:butt;stroke-linejoin:miter;stroke:rgb(33.725491%,70.588237%,91.37255%);stroke-opacity:0.501961;stroke-dasharray:5,2;stroke-miterlimit:4;" d="M 144 -57 C 144 -52.03125 139.96875 -48 135 -48 C 130.03125 -48 126 -52.03125 126 -57 C 126 -61.96875 130.03125 -66 135 -66 C 139.96875 -66 144 -61.96875 144 -57 Z M 144 -57 " transform="matrix(1,0,0,1,4,206)"/>
<path style="fill:none;stroke-width:3;stroke-linecap:butt;stroke-linejoin:miter;stroke:rgb(33.725491%,70.588237%,91.37255%);stroke-opacity:0.501961;stroke-dasharray:5,2;stroke-miterlimit:4;" d="M 148 -57 C 148 -49.820312 142.179688 -44 135 -44 C 127.820312 -44 122 -49.820312 122 -57 C 122 -64.179688 127.820312 -70 135 -70 C 142.179688 -70 148 -64.179688 148 -57 Z M 148 -57 " transform="matrix(1,0,0,1,4,206)"/>
<path style=" stroke:none;fill-rule:nonzero;fill:rgb(0%,0%,0%);fill-opacity:1;" d="M 135.550781 151.820312 C 135.941406 151.777344 136.1875 151.703125 136.285156 151.601562 C 136.382812 151.5 136.429688 151.230469 136.429688 150.796875 L 136.429688 146.46875 C 136.429688 146.109375 136.375 145.875 136.265625 145.769531 C 136.15625 145.664062 135.917969 145.59375 135.550781 145.570312 L 135.550781 145.382812 L 138.328125 145.382812 L 138.328125 145.570312 C 137.960938 145.59375 137.722656 145.664062 137.613281 145.769531 C 137.5 145.875 137.445312 146.109375 137.445312 146.46875 L 137.445312 148.414062 L 140.476562 148.414062 L 140.476562 146.46875 C 140.476562 146.109375 140.425781 145.875 140.316406 145.769531 C 140.210938 145.664062 139.96875 145.59375 139.601562 145.570312 L 139.601562 145.382812 L 142.378906 145.382812 L 142.378906 145.570312 C 142.011719 145.59375 141.773438 145.664062 141.664062 145.769531 C 141.554688 145.875 141.5 146.109375 141.5 146.46875 L 141.5 150.914062 C 141.5 151.28125 141.554688 151.515625 141.664062 151.617188 C 141.773438 151.71875 142.011719 151.785156 142.378906 151.820312 L 142.378906 152 L 139.601562 152 L 139.601562 151.820312 C 139.992188 151.78125 140.238281 151.707031 140.335938 151.605469 C 140.429688 151.5 140.476562 151.230469 140.476562 150.796875 L 140.476562 148.855469 L 137.445312 148.855469 L 137.445312 150.914062 C 137.445312 151.28125 137.5 151.515625 137.613281 151.617188 C 137.722656 151.722656 137.960938 151.789062 138.328125 151.820312 L 138.328125 152 L 135.550781 152 Z M 135.390625 144.5 "/>
<path style="fill:none;stroke-width:1;stroke-linecap:butt;stroke-linejoin:miter;stroke:rgb(74.901962%,74.901962%,74.901962%);stroke-opacity:1;stroke-miterlimit:4;" d="M 80.601562 -134.210938 C 92.316406 -117.582031 114.683594 -85.835938 126.769531 -68.683594 " transform="matrix(1,0,0,1,4,206)"/>
<path style="fill-rule:nonzero;fill:rgb(74.901962%,74.901962%,74.901962%);fill-opacity:1;stroke-width:1;stroke-linecap:butt;stroke-linejoin:miter;stroke:rgb(74.901962%,74.901962%,74.901962%);stroke-opacity:1;stroke-miterlimit:4;" d="M 127.503906 -68.207031 C 127.503906 -67.984375 127.324219 -67.804688 127.105469 -67.804688 C 126.882812 -67.804688 126.703125 -67.984375 126.703125 -68.207031 C 126.703125 -68.425781 126.882812 -68.605469 127.105469 -68.605469 C 127.324219 -68.605469 127.503906 -68.425781 127.503906 -68.207031 Z M 127.503906 -68.207031 " transform="matrix(1,0,0,1,4,206)"/>
<path style="fill:none;stroke-width:3;stroke-linecap:butt;stroke-linejoin:miter;stroke:rgb(33.725491%,70.588237%,91.37255%);stroke-opacity:0.501961;stroke-dasharray:5,2;stroke-miterlimit:4;" d="M 144 -13 C 144 -8.03125 139.96875 -4 135 -4 C 130.03125 -4 126 -8.03125 126 -13 C 126 -17.96875 130.03125 -22 135 -22 C 139.96875 -22 144 -17.96875 144 -13 Z M 144 -13 " transform="matrix(1,0,0,1,4,206)"/>
<path style="fill:none;stroke-width:3;stroke-linecap:butt;stroke-linejoin:miter;stroke:rgb(33.725491%,70.588237%,91.37255%);stroke-opacity:0.501961;stroke-dasharray:5,2;stroke-miterlimit:4;" d="M 148 -13 C 148 -5.820312 142.179688 0 135 0 C 127.820312 0 122 -5.820312 122 -13 C 122 -20.179688 127.820312 -26 135 -26 C 142.179688 -26 148 -20.179688 148 -13 Z M 148 -13 " transform="matrix(1,0,0,1,4,206)"/>
<path style=" stroke:none;fill-rule:nonzero;fill:rgb(0%,0%,0%);fill-opacity:1;" d="M 135.550781 195.820312 C 135.941406 195.777344 136.1875 195.703125 136.285156 195.601562 C 136.382812 195.5 136.429688 195.230469 136.429688 194.796875 L 136.429688 190.46875 C 136.429688 190.109375 136.375 189.875 136.265625 189.769531 C 136.15625 189.664062 135.917969 189.59375 135.550781 189.570312 L 135.550781 189.382812 L 138.328125 189.382812 L 138.328125 189.570312 C 137.960938 189.59375 137.722656 189.664062 137.613281 189.769531 C 137.5 189.875 137.445312 190.109375 137.445312 190.46875 L 137.445312 192.414062 L 140.476562 192.414062 L 140.476562 190.46875 C 140.476562 190.109375 140.425781 189.875 140.316406 189.769531 C 140.210938 189.664062 139.96875 189.59375 139.601562 189.570312 L 139.601562 189.382812 L 142.378906 189.382812 L 142.378906 189.570312 C 142.011719 189.59375 141.773438 189.664062 141.664062 189.769531 C 141.554688 189.875 141.5 190.109375 141.5 190.46875 L 141.5 194.914062 C 141.5 195.28125 141.554688 195.515625 141.664062 195.617188 C 141.773438 195.71875 142.011719 195.785156 142.378906 195.820312 L 142.378906 196 L 139.601562 196 L 139.601562 195.820312 C 139.992188 195.78125 140.238281 195.707031 140.335938 195.605469 C 140.429688 195.5 140.476562 195.230469 140.476562 194.796875 L 140.476562 192.855469 L 137.445312 192.855469 L 137.445312 194.914062 C 137.445312 195.28125 137.5 195.515625 137.613281 195.617188 C 137.722656 195.722656 137.960938 195.789062 138.328125 195.820312 L 138.328125 196 L 135.550781 196 Z M 135.390625 188.5 "/>
<path style="fill:none;stroke-width:1;stroke-linecap:butt;stroke-linejoin:miter;stroke:rgb(74.901962%,74.901962%,74.901962%);stroke-opacity:1;stroke-miterlimit:4;" d="M 79.933594 -133.980469 C 81.996094 -130.523438 84.183594 -126.65625 86 -123 C 104.796875 -85.15625 103.203125 -72.84375 122 -35 C 123.644531 -31.6875 125.597656 -28.199219 127.484375 -25 " transform="matrix(1,0,0,1,4,206)"/>
<path style="fill-rule:nonzero;fill:rgb(74.901962%,74.901962%,74.901962%);fill-opacity:1;stroke-width:1;stroke-linecap:butt;stroke-linejoin:miter;stroke:rgb(74.901962%,74.901962%,74.901962%);stroke-opacity:1;stroke-miterlimit:4;" d="M 128.261719 -24.363281 C 128.261719 -24.140625 128.082031 -23.960938 127.863281 -23.960938 C 127.640625 -23.960938 127.460938 -24.140625 127.460938 -24.363281 C 127.460938 -24.582031 127.640625 -24.761719 127.863281 -24.761719 C 128.082031 -24.761719 128.261719 -24.582031 128.261719 -24.363281 Z M 128.261719 -24.363281 " transform="matrix(1,0,0,1,4,206)"/>
<path style="fill:none;stroke-width:3;stroke-linecap:butt;stroke-linejoin:miter;stroke:rgb(33.725491%,70.588237%,91.37255%);stroke-opacity:0.501961;stroke-dasharray:5,2;stroke-miterlimit:4;" d="M 144 -189 C 144 -184.03125 139.96875 -180 135 -180 C 130.03125 -180 126 -184.03125 126 -189 C 126 -193.96875 130.03125 -198 135 -198 C 139.96875 -198 144 -193.96875 144 -189 Z M 144 -189 " transform="matrix(1,0,0,1,4,206)"/>
<path style="fill:none;stroke-width:3;stroke-linecap:butt;stroke-linejoin:miter;stroke:rgb(33.725491%,70.588237%,91.37255%);stroke-opacity:0.501961;stroke-dasharray:5,2;stroke-miterlimit:4;" d="M 148 -189 C 148 -181.820312 142.179688 -176 135 -176 C 127.820312 -176 122 -181.820312 122 -189 C 122 -196.179688 127.820312 -202 135 -202 C 142.179688 -202 148 -196.179688 148 -189 Z M 148 -189 " transform="matrix(1,0,0,1,4,206)"/>
<path style=" stroke:none;fill-rule:nonzero;fill:rgb(0%,0%,0%);fill-opacity:1;" d="M 135.550781 19.820312 C 135.941406 19.777344 136.1875 19.703125 136.285156 19.601562 C 136.382812 19.5 136.429688 19.230469 136.429688 18.796875 L 136.429688 14.46875 C 136.429688 14.109375 136.375 13.875 136.265625 13.769531 C 136.15625 13.664062 135.917969 13.59375 135.550781 13.570312 L 135.550781 13.382812 L 138.328125 13.382812 L 138.328125 13.570312 C 137.960938 13.59375 137.722656 13.664062 137.613281 13.769531 C 137.5 13.875 137.445312 14.109375 137.445312 14.46875 L 137.445312 16.414062 L 140.476562 16.414062 L 140.476562 14.46875 C 140.476562 14.109375 140.425781 13.875 140.316406 13.769531 C 140.210938 13.664062 139.96875 13.59375 139.601562 13.570312 L 139.601562 13.382812 L 142.378906 13.382812 L 142.378906 13.570312 C 142.011719 13.59375 141.773438 13.664062 141.664062 13.769531 C 141.554688 13.875 141.5 14.109375 141.5 14.46875 L 141.5 18.914062 C 141.5 19.28125 141.554688 19.515625 141.664062 19.617188 C 141.773438 19.71875 142.011719 19.785156 142.378906 19.820312 L 142.378906 20 L 139.601562 20 L 139.601562 19.820312 C 139.992188 19.78125 140.238281 19.707031 140.335938 19.605469 C 140.429688 19.5 140.476562 19.230469 140.476562 18.796875 L 140.476562 16.855469 L 137.445312 16.855469 L 137.445312 18.914062 C 137.445312 19.28125 137.5 19.515625 137.613281 19.617188 C 137.722656 19.722656 137.960938 19.789062 138.328125 19.820312 L 138.328125 20 L 135.550781 20 Z M 135.390625 12.5 "/>
<path style="fill:none;stroke-width:1;stroke-linecap:butt;stroke-linejoin:miter;stroke:rgb(74.901962%,74.901962%,74.901962%);stroke-opacity:1;stroke-miterlimit:4;" d="M 83.800781 -152.664062 C 94.914062 -160.550781 112.160156 -172.789062 123.515625 -180.851562 " transform="matrix(1,0,0,1,4,206)"/>
<path style="fill-rule:nonzero;fill:rgb(74.901962%,74.901962%,74.901962%);fill-opacity:1;stroke-width:1;stroke-linecap:butt;stroke-linejoin:miter;stroke:rgb(74.901962%,74.901962%,74.901962%);stroke-opacity:1;stroke-miterlimit:4;" d="M 124.398438 -181.191406 C 124.398438 -180.972656 124.21875 -180.792969 123.996094 -180.792969 C 123.777344 -180.792969 123.597656 -180.972656 123.597656 -181.191406 C 123.597656 -181.414062 123.777344 -181.59375 123.996094 -181.59375 C 124.21875 -181.59375 124.398438 -181.414062 124.398438 -181.191406 Z M 124.398438 -181.191406 " transform="matrix(1,0,0,1,4,206)"/>
<path style="fill:none;stroke-width:1;stroke-linecap:butt;stroke-linejoin:miter;stroke:rgb(74.901962%,74.901962%,74.901962%);stroke-opacity:1;stroke-miterlimit:4;" d="M 83.800781 -108.664062 C 94.914062 -116.550781 112.160156 -128.789062 123.515625 -136.851562 " transform="matrix(1,0,0,1,4,206)"/>
<path style="fill-rule:nonzero;fill:rgb(74.901962%,74.901962%,74.901962%);fill-opacity:1;stroke-width:1;stroke-linecap:butt;stroke-linejoin:miter;stroke:rgb(74.901962%,74.901962%,74.901962%);stroke-opacity:1;stroke-miterlimit:4;" d="M 124.398438 -137.191406 C 124.398438 -136.972656 124.21875 -136.792969 123.996094 -136.792969 C 123.777344 -136.792969 123.597656 -136.972656 123.597656 -137.191406 C 123.597656 -137.414062 123.777344 -137.59375 123.996094 -137.59375 C 124.21875 -137.59375 124.398438 -137.414062 124.398438 -137.191406 Z M 124.398438 -137.191406 " transform="matrix(1,0,0,1,4,206)"/>
<path style="fill:none;stroke-width:1;stroke-linecap:butt;stroke-linejoin:miter;stroke:rgb(74.901962%,74.901962%,74.901962%);stroke-opacity:1;stroke-miterlimit:4;" d="M 86.148438 -101 C 96.339844 -101 110.441406 -101 120.871094 -101 " transform="matrix(1,0,0,1,4,206)"/>
<path style="fill-rule:nonzero;fill:rgb(74.901962%,74.901962%,74.901962%);fill-opacity:1;stroke-width:1;stroke-linecap:butt;stroke-linejoin:miter;stroke:rgb(74.901962%,74.901962%,74.901962%);stroke-opacity:1;stroke-miterlimit:4;" d="M 121.871094 -101 C 121.871094 -100.777344 121.691406 -100.601562 121.46875 -100.601562 C 121.25 -100.601562 121.070312 -100.777344 121.070312 -101 C 121.070312 -101.222656 121.25 -101.398438 121.46875 -101.398438 C 121.691406 -101.398438 121.871094 -101.222656 121.871094 -101 Z M 121.871094 -101 " transform="matrix(1,0,0,1,4,206)"/>
<path style="fill:none;stroke-width:1;stroke-linecap:butt;stroke-linejoin:miter;stroke:rgb(74.901962%,74.901962%,74.901962%);stroke-opacity:1;stroke-miterlimit:4;" d="M 83.800781 -93.335938 C 94.914062 -85.449219 112.160156 -73.210938 123.515625 -65.148438 " transform="matrix(1,0,0,1,4,206)"/>
<path style="fill-rule:nonzero;fill:rgb(74.901962%,74.901962%,74.901962%);fill-opacity:1;stroke-width:1;stroke-linecap:butt;stroke-linejoin:miter;stroke:rgb(74.901962%,74.901962%,74.901962%);stroke-opacity:1;stroke-miterlimit:4;" d="M 124.398438 -64.808594 C 124.398438 -64.585938 124.21875 -64.40625 123.996094 -64.40625 C 123.777344 -64.40625 123.597656 -64.585938 123.597656 -64.808594 C 123.597656 -65.027344 123.777344 -65.207031 123.996094 -65.207031 C 124.21875 -65.207031 124.398438 -65.027344 124.398438 -64.808594 Z M 124.398438 -64.808594 " transform="matrix(1,0,0,1,4,206)"/>
<path style="fill:none;stroke-width:1;stroke-linecap:butt;stroke-linejoin:miter;stroke:rgb(74.901962%,74.901962%,74.901962%);stroke-opacity:1;stroke-miterlimit:4;" d="M 80.601562 -90.210938 C 92.316406 -73.582031 114.683594 -41.835938 126.769531 -24.683594 " transform="matrix(1,0,0,1,4,206)"/>
<path style="fill-rule:nonzero;fill:rgb(74.901962%,74.901962%,74.901962%);fill-opacity:1;stroke-width:1;stroke-linecap:butt;stroke-linejoin:miter;stroke:rgb(74.901962%,74.901962%,74.901962%);stroke-opacity:1;stroke-miterlimit:4;" d="M 127.503906 -24.207031 C 127.503906 -23.984375 127.324219 -23.804688 127.105469 -23.804688 C 126.882812 -23.804688 126.703125 -23.984375 126.703125 -24.207031 C 126.703125 -24.425781 126.882812 -24.605469 127.105469 -24.605469 C 127.324219 -24.605469 127.503906 -24.425781 127.503906 -24.207031 Z M 127.503906 -24.207031 " transform="matrix(1,0,0,1,4,206)"/>
<path style="fill:none;stroke-width:1;stroke-linecap:butt;stroke-linejoin:miter;stroke:rgb(74.901962%,74.901962%,74.901962%);stroke-opacity:1;stroke-miterlimit:4;" d="M 80.601562 -111.789062 C 92.316406 -128.417969 114.683594 -160.164062 126.769531 -177.316406 " transform="matrix(1,0,0,1,4,206)"/>
<path style="fill-rule:nonzero;fill:rgb(74.901962%,74.901962%,74.901962%);fill-opacity:1;stroke-width:1;stroke-linecap:butt;stroke-linejoin:miter;stroke:rgb(74.901962%,74.901962%,74.901962%);stroke-opacity:1;stroke-miterlimit:4;" d="M 127.503906 -177.792969 C 127.503906 -177.574219 127.324219 -177.394531 127.105469 -177.394531 C 126.882812 -177.394531 126.703125 -177.574219 126.703125 -177.792969 C 126.703125 -178.015625 126.882812 -178.195312 127.105469 -178.195312 C 127.324219 -178.195312 127.503906 -178.015625 127.503906 -177.792969 Z M 127.503906 -177.792969 " transform="matrix(1,0,0,1,4,206)"/>
<path style="fill:none;stroke-width:1;stroke-linecap:butt;stroke-linejoin:miter;stroke:rgb(74.901962%,74.901962%,74.901962%);stroke-opacity:1;stroke-miterlimit:4;" d="M 80.601562 -67.789062 C 92.316406 -84.417969 114.683594 -116.164062 126.769531 -133.316406 " transform="matrix(1,0,0,1,4,206)"/>
<path style="fill-rule:nonzero;fill:rgb(74.901962%,74.901962%,74.901962%);fill-opacity:1;stroke-width:1;stroke-linecap:butt;stroke-linejoin:miter;stroke:rgb(74.901962%,74.901962%,74.901962%);stroke-opacity:1;stroke-miterlimit:4;" d="M 127.503906 -133.792969 C 127.503906 -133.574219 127.324219 -133.394531 127.105469 -133.394531 C 126.882812 -133.394531 126.703125 -133.574219 126.703125 -133.792969 C 126.703125 -134.015625 126.882812 -134.195312 127.105469 -134.195312 C 127.324219 -134.195312 127.503906 -134.015625 127.503906 -133.792969 Z M 127.503906 -133.792969 " transform="matrix(1,0,0,1,4,206)"/>
<path style="fill:none;stroke-width:1;stroke-linecap:butt;stroke-linejoin:miter;stroke:rgb(74.901962%,74.901962%,74.901962%);stroke-opacity:1;stroke-miterlimit:4;" d="M 83.800781 -64.664062 C 94.914062 -72.550781 112.160156 -84.789062 123.515625 -92.851562 " transform="matrix(1,0,0,1,4,206)"/>
<path style="fill-rule:nonzero;fill:rgb(74.901962%,74.901962%,74.901962%);fill-opacity:1;stroke-width:1;stroke-linecap:butt;stroke-linejoin:miter;stroke:rgb(74.901962%,74.901962%,74.901962%);stroke-opacity:1;stroke-miterlimit:4;" d="M 124.398438 -93.191406 C 124.398438 -92.972656 124.21875 -92.792969 123.996094 -92.792969 C 123.777344 -92.792969 123.597656 -92.972656 123.597656 -93.191406 C 123.597656 -93.414062 123.777344 -93.59375 123.996094 -93.59375 C 124.21875 -93.59375 124.398438 -93.414062 124.398438 -93.191406 Z M 124.398438 -93.191406 " transform="matrix(1,0,0,1,4,206)"/>
<path style="fill:none;stroke-width:1;stroke-linecap:butt;stroke-linejoin:miter;stroke:rgb(74.901962%,74.901962%,74.901962%);stroke-opacity:1;stroke-miterlimit:4;" d="M 86.148438 -57 C 96.339844 -57 110.441406 -57 120.871094 -57 " transform="matrix(1,0,0,1,4,206)"/>
<path style="fill-rule:nonzero;fill:rgb(74.901962%,74.901962%,74.901962%);fill-opacity:1;stroke-width:1;stroke-linecap:butt;stroke-linejoin:miter;stroke:rgb(74.901962%,74.901962%,74.901962%);stroke-opacity:1;stroke-miterlimit:4;" d="M 121.871094 -57 C 121.871094 -56.777344 121.691406 -56.601562 121.46875 -56.601562 C 121.25 -56.601562 121.070312 -56.777344 121.070312 -57 C 121.070312 -57.222656 121.25 -57.398438 121.46875 -57.398438 C 121.691406 -57.398438 121.871094 -57.222656 121.871094 -57 Z M 121.871094 -57 " transform="matrix(1,0,0,1,4,206)"/>
<path style="fill:none;stroke-width:1;stroke-linecap:butt;stroke-linejoin:miter;stroke:rgb(74.901962%,74.901962%,74.901962%);stroke-opacity:1;stroke-miterlimit:4;" d="M 83.800781 -49.335938 C 94.914062 -41.449219 112.160156 -29.210938 123.515625 -21.148438 " transform="matrix(1,0,0,1,4,206)"/>
<path style="fill-rule:nonzero;fill:rgb(74.901962%,74.901962%,74.901962%);fill-opacity:1;stroke-width:1;stroke-linecap:butt;stroke-linejoin:miter;stroke:rgb(74.901962%,74.901962%,74.901962%);stroke-opacity:1;stroke-miterlimit:4;" d="M 124.398438 -20.808594 C 124.398438 -20.585938 124.21875 -20.40625 123.996094 -20.40625 C 123.777344 -20.40625 123.597656 -20.585938 123.597656 -20.808594 C 123.597656 -21.027344 123.777344 -21.207031 123.996094 -21.207031 C 124.21875 -21.207031 124.398438 -21.027344 124.398438 -20.808594 Z M 124.398438 -20.808594 " transform="matrix(1,0,0,1,4,206)"/>
<path style="fill:none;stroke-width:1;stroke-linecap:butt;stroke-linejoin:miter;stroke:rgb(74.901962%,74.901962%,74.901962%);stroke-opacity:1;stroke-miterlimit:4;" d="M 79.933594 -68.019531 C 81.996094 -71.476562 84.183594 -75.34375 86 -79 C 104.796875 -116.84375 103.203125 -129.15625 122 -167 C 123.644531 -170.3125 125.597656 -173.800781 127.484375 -177 " transform="matrix(1,0,0,1,4,206)"/>
<path style="fill-rule:nonzero;fill:rgb(74.901962%,74.901962%,74.901962%);fill-opacity:1;stroke-width:1;stroke-linecap:butt;stroke-linejoin:miter;stroke:rgb(74.901962%,74.901962%,74.901962%);stroke-opacity:1;stroke-miterlimit:4;" d="M 128.261719 -177.636719 C 128.261719 -177.417969 128.082031 -177.238281 127.863281 -177.238281 C 127.640625 -177.238281 127.460938 -177.417969 127.460938 -177.636719 C 127.460938 -177.859375 127.640625 -178.039062 127.863281 -178.039062 C 128.082031 -178.039062 128.261719 -177.859375 128.261719 -177.636719 Z M 128.261719 -177.636719 " transform="matrix(1,0,0,1,4,206)"/>
<path style="fill:none;stroke-width:1;stroke-linecap:butt;stroke-linejoin:miter;stroke:rgb(74.901962%,74.901962%,74.901962%);stroke-opacity:1;stroke-miterlimit:4;" d="M 79.933594 -24.019531 C 81.996094 -27.476562 84.183594 -31.34375 86 -35 C 104.796875 -72.84375 103.203125 -85.15625 122 -123 C 123.644531 -126.3125 125.597656 -129.800781 127.484375 -133 " transform="matrix(1,0,0,1,4,206)"/>
<path style="fill-rule:nonzero;fill:rgb(74.901962%,74.901962%,74.901962%);fill-opacity:1;stroke-width:1;stroke-linecap:butt;stroke-linejoin:miter;stroke:rgb(74.901962%,74.901962%,74.901962%);stroke-opacity:1;stroke-miterlimit:4;" d="M 128.261719 -133.636719 C 128.261719 -133.417969 128.082031 -133.238281 127.863281 -133.238281 C 127.640625 -133.238281 127.460938 -133.417969 127.460938 -133.636719 C 127.460938 -133.859375 127.640625 -134.039062 127.863281 -134.039062 C 128.082031 -134.039062 128.261719 -133.859375 128.261719 -133.636719 Z M 128.261719 -133.636719 " transform="matrix(1,0,0,1,4,206)"/>
<path style="fill:none;stroke-width:1;stroke-linecap:butt;stroke-linejoin:miter;stroke:rgb(74.901962%,74.901962%,74.901962%);stroke-opacity:1;stroke-miterlimit:4;" d="M 80.601562 -23.789062 C 92.316406 -40.417969 114.683594 -72.164062 126.769531 -89.316406 " transform="matrix(1,0,0,1,4,206)"/>
<path style="fill-rule:nonzero;fill:rgb(74.901962%,74.901962%,74.901962%);fill-opacity:1;stroke-width:1;stroke-linecap:butt;stroke-linejoin:miter;stroke:rgb(74.901962%,74.901962%,74.901962%);stroke-opacity:1;stroke-miterlimit:4;" d="M 127.503906 -89.792969 C 127.503906 -89.574219 127.324219 -89.394531 127.105469 -89.394531 C 126.882812 -89.394531 126.703125 -89.574219 126.703125 -89.792969 C 126.703125 -90.015625 126.882812 -90.195312 127.105469 -90.195312 C 127.324219 -90.195312 127.503906 -90.015625 127.503906 -89.792969 Z M 127.503906 -89.792969 " transform="matrix(1,0,0,1,4,206)"/>
<path style="fill:none;stroke-width:1;stroke-linecap:butt;stroke-linejoin:miter;stroke:rgb(74.901962%,74.901962%,74.901962%);stroke-opacity:1;stroke-miterlimit:4;" d="M 83.800781 -20.664062 C 94.914062 -28.550781 112.160156 -40.789062 123.515625 -48.851562 " transform="matrix(1,0,0,1,4,206)"/>
<path style="fill-rule:nonzero;fill:rgb(74.901962%,74.901962%,74.901962%);fill-opacity:1;stroke-width:1;stroke-linecap:butt;stroke-linejoin:miter;stroke:rgb(74.901962%,74.901962%,74.901962%);stroke-opacity:1;stroke-miterlimit:4;" d="M 124.398438 -49.191406 C 124.398438 -48.972656 124.21875 -48.792969 123.996094 -48.792969 C 123.777344 -48.792969 123.597656 -48.972656 123.597656 -49.191406 C 123.597656 -49.414062 123.777344 -49.59375 123.996094 -49.59375 C 124.21875 -49.59375 124.398438 -49.414062 124.398438 -49.191406 Z M 124.398438 -49.191406 " transform="matrix(1,0,0,1,4,206)"/>
<path style="fill:none;stroke-width:1;stroke-linecap:butt;stroke-linejoin:miter;stroke:rgb(74.901962%,74.901962%,74.901962%);stroke-opacity:1;stroke-miterlimit:4;" d="M 86.148438 -13 C 96.339844 -13 110.441406 -13 120.871094 -13 " transform="matrix(1,0,0,1,4,206)"/>
<path style="fill-rule:nonzero;fill:rgb(74.901962%,74.901962%,74.901962%);fill-opacity:1;stroke-width:1;stroke-linecap:butt;stroke-linejoin:miter;stroke:rgb(74.901962%,74.901962%,74.901962%);stroke-opacity:1;stroke-miterlimit:4;" d="M 121.871094 -13 C 121.871094 -12.777344 121.691406 -12.601562 121.46875 -12.601562 C 121.25 -12.601562 121.070312 -12.777344 121.070312 -13 C 121.070312 -13.222656 121.25 -13.398438 121.46875 -13.398438 C 121.691406 -13.398438 121.871094 -13.222656 121.871094 -13 Z M 121.871094 -13 " transform="matrix(1,0,0,1,4,206)"/>
<path style="fill:none;stroke-width:1;stroke-linecap:butt;stroke-linejoin:miter;stroke:rgb(74.901962%,74.901962%,74.901962%);stroke-opacity:1;stroke-miterlimit:4;" d="M 80.214844 -23.890625 C 82.285156 -27.34375 84.410156 -31.242188 86 -35 C 109.679688 -91.007812 98.320312 -110.992188 122 -167 C 123.441406 -170.40625 125.320312 -173.929688 127.203125 -177.128906 " transform="matrix(1,0,0,1,4,206)"/>
<path style="fill-rule:nonzero;fill:rgb(74.901962%,74.901962%,74.901962%);fill-opacity:1;stroke-width:1;stroke-linecap:butt;stroke-linejoin:miter;stroke:rgb(74.901962%,74.901962%,74.901962%);stroke-opacity:1;stroke-miterlimit:4;" d="M 127.984375 -177.765625 C 127.984375 -177.546875 127.804688 -177.367188 127.582031 -177.367188 C 127.363281 -177.367188 127.183594 -177.546875 127.183594 -177.765625 C 127.183594 -177.988281 127.363281 -178.167969 127.582031 -178.167969 C 127.804688 -178.167969 127.984375 -177.988281 127.984375 -177.765625 Z M 127.984375 -177.765625 " transform="matrix(1,0,0,1,4,206)"/>
<path style="fill:none;stroke-width:1;stroke-linecap:butt;stroke-linejoin:miter;stroke:rgb(74.901962%,74.901962%,74.901962%);stroke-opacity:1;stroke-miterlimit:4;" d="M 83.800781 -181.335938 C 94.914062 -173.449219 112.160156 -161.210938 123.515625 -153.148438 " transform="matrix(1,0,0,1,4,206)"/>
<path style="fill-rule:nonzero;fill:rgb(74.901962%,74.901962%,74.901962%);fill-opacity:1;stroke-width:1;stroke-linecap:butt;stroke-linejoin:miter;stroke:rgb(74.901962%,74.901962%,74.901962%);stroke-opacity:1;stroke-miterlimit:4;" d="M 124.398438 -152.808594 C 124.398438 -152.585938 124.21875 -152.40625 123.996094 -152.40625 C 123.777344 -152.40625 123.597656 -152.585938 123.597656 -152.808594 C 123.597656 -153.027344 123.777344 -153.207031 123.996094 -153.207031 C 124.21875 -153.207031 124.398438 -153.027344 124.398438 -152.808594 Z M 124.398438 -152.808594 " transform="matrix(1,0,0,1,4,206)"/>
<path style="fill:none;stroke-width:1;stroke-linecap:butt;stroke-linejoin:miter;stroke:rgb(74.901962%,74.901962%,74.901962%);stroke-opacity:1;stroke-miterlimit:4;" d="M 80.601562 -178.210938 C 92.316406 -161.582031 114.683594 -129.835938 126.769531 -112.683594 " transform="matrix(1,0,0,1,4,206)"/>
<path style="fill-rule:nonzero;fill:rgb(74.901962%,74.901962%,74.901962%);fill-opacity:1;stroke-width:1;stroke-linecap:butt;stroke-linejoin:miter;stroke:rgb(74.901962%,74.901962%,74.901962%);stroke-opacity:1;stroke-miterlimit:4;" d="M 127.503906 -112.207031 C 127.503906 -111.984375 127.324219 -111.804688 127.105469 -111.804688 C 126.882812 -111.804688 126.703125 -111.984375 126.703125 -112.207031 C 126.703125 -112.425781 126.882812 -112.605469 127.105469 -112.605469 C 127.324219 -112.605469 127.503906 -112.425781 127.503906 -112.207031 Z M 127.503906 -112.207031 " transform="matrix(1,0,0,1,4,206)"/>
<path style="fill:none;stroke-width:1;stroke-linecap:butt;stroke-linejoin:miter;stroke:rgb(74.901962%,74.901962%,74.901962%);stroke-opacity:1;stroke-miterlimit:4;" d="M 79.933594 -177.980469 C 81.996094 -174.523438 84.183594 -170.65625 86 -167 C 104.796875 -129.15625 103.203125 -116.84375 122 -79 C 123.644531 -75.6875 125.597656 -72.199219 127.484375 -69 " transform="matrix(1,0,0,1,4,206)"/>
<path style="fill-rule:nonzero;fill:rgb(74.901962%,74.901962%,74.901962%);fill-opacity:1;stroke-width:1;stroke-linecap:butt;stroke-linejoin:miter;stroke:rgb(74.901962%,74.901962%,74.901962%);stroke-opacity:1;stroke-miterlimit:4;" d="M 128.261719 -68.363281 C 128.261719 -68.140625 128.082031 -67.960938 127.863281 -67.960938 C 127.640625 -67.960938 127.460938 -68.140625 127.460938 -68.363281 C 127.460938 -68.582031 127.640625 -68.761719 127.863281 -68.761719 C 128.082031 -68.761719 128.261719 -68.582031 128.261719 -68.363281 Z M 128.261719 -68.363281 " transform="matrix(1,0,0,1,4,206)"/>
<path style="fill:none;stroke-width:1;stroke-linecap:butt;stroke-linejoin:miter;stroke:rgb(74.901962%,74.901962%,74.901962%);stroke-opacity:1;stroke-miterlimit:4;" d="M 80.214844 -178.109375 C 82.285156 -174.65625 84.410156 -170.757812 86 -167 C 109.679688 -110.992188 98.320312 -91.007812 122 -35 C 123.441406 -31.59375 125.320312 -28.070312 127.203125 -24.871094 " transform="matrix(1,0,0,1,4,206)"/>
<path style="fill-rule:nonzero;fill:rgb(74.901962%,74.901962%,74.901962%);fill-opacity:1;stroke-width:1;stroke-linecap:butt;stroke-linejoin:miter;stroke:rgb(74.901962%,74.901962%,74.901962%);stroke-opacity:1;stroke-miterlimit:4;" d="M 127.984375 -24.234375 C 127.984375 -24.011719 127.804688 -23.832031 127.582031 -23.832031 C 127.363281 -23.832031 127.183594 -24.011719 127.183594 -24.234375 C 127.183594 -24.453125 127.363281 -24.632812 127.582031 -24.632812 C 127.804688 -24.632812 127.984375 -24.453125 127.984375 -24.234375 Z M 127.984375 -24.234375 " transform="matrix(1,0,0,1,4,206)"/>
<path style="fill:none;stroke-width:1;stroke-linecap:butt;stroke-linejoin:miter;stroke:rgb(74.901962%,74.901962%,74.901962%);stroke-opacity:1;stroke-miterlimit:4;" d="M 86.148438 -189 C 96.339844 -189 110.441406 -189 120.871094 -189 " transform="matrix(1,0,0,1,4,206)"/>
<path style="fill-rule:nonzero;fill:rgb(74.901962%,74.901962%,74.901962%);fill-opacity:1;stroke-width:1;stroke-linecap:butt;stroke-linejoin:miter;stroke:rgb(74.901962%,74.901962%,74.901962%);stroke-opacity:1;stroke-miterlimit:4;" d="M 121.871094 -189 C 121.871094 -188.777344 121.691406 -188.601562 121.46875 -188.601562 C 121.25 -188.601562 121.070312 -188.777344 121.070312 -189 C 121.070312 -189.222656 121.25 -189.398438 121.46875 -189.398438 C 121.691406 -189.398438 121.871094 -189.222656 121.871094 -189 Z M 121.871094 -189 " transform="matrix(1,0,0,1,4,206)"/>
<path style="fill:none;stroke-width:1;stroke-linecap:butt;stroke-linejoin:miter;stroke:rgb(0%,0%,0%);stroke-opacity:1;stroke-miterlimit:4;" d="M 200 -113 C 200 -113 192 -113 192 -113 C 188 -113 184 -109 184 -105 C 184 -105 184 -97 184 -97 C 184 -93 188 -89 192 -89 C 192 -89 200 -89 200 -89 C 204 -89 208 -93 208 -97 C 208 -97 208 -105 208 -105 C 208 -109 204 -113 200 -113 " transform="matrix(1,0,0,1,4,206)"/>
<path style=" stroke:none;fill-rule:nonzero;fill:rgb(0%,0%,0%);fill-opacity:1;" d="M 187.476562 105.734375 C 187.476562 105.085938 187.683594 104.539062 188.09375 104.089844 C 188.503906 103.644531 189.035156 103.421875 189.683594 103.421875 C 190.328125 103.421875 190.863281 103.632812 191.285156 104.054688 C 191.707031 104.476562 191.917969 105.039062 191.917969 105.742188 C 191.917969 106.390625 191.714844 106.953125 191.304688 107.433594 C 190.894531 107.914062 190.363281 108.152344 189.714844 108.152344 C 189.089844 108.152344 188.558594 107.921875 188.125 107.460938 C 187.691406 107.003906 187.476562 106.429688 187.476562 105.734375 Z M 189.546875 103.710938 C 189.289062 103.710938 189.066406 103.796875 188.878906 103.96875 C 188.550781 104.265625 188.390625 104.773438 188.390625 105.5 C 188.390625 106.078125 188.519531 106.621094 188.78125 107.121094 C 189.042969 107.621094 189.410156 107.875 189.875 107.875 C 190.238281 107.875 190.519531 107.707031 190.714844 107.371094 C 190.914062 107.035156 191.011719 106.59375 191.011719 106.050781 C 191.011719 105.488281 190.886719 104.957031 190.636719 104.460938 C 190.386719 103.960938 190.023438 103.710938 189.546875 103.710938 Z M 193.769531 103.476562 L 193.769531 106.601562 C 193.769531 106.824219 193.800781 107.003906 193.863281 107.136719 C 193.984375 107.382812 194.207031 107.507812 194.527344 107.507812 C 194.75 107.507812 194.964844 107.433594 195.175781 107.289062 C 195.296875 107.207031 195.417969 107.09375 195.542969 106.949219 L 195.542969 104.273438 C 195.542969 104.023438 195.496094 103.859375 195.394531 103.78125 C 195.296875 103.703125 195.105469 103.65625 194.808594 103.640625 L 194.808594 103.476562 L 196.386719 103.476562 L 196.386719 106.914062 C 196.386719 107.136719 196.425781 107.289062 196.507812 107.371094 C 196.585938 107.453125 196.753906 107.492188 197.011719 107.484375 L 197.011719 107.617188 C 196.832031 107.667969 196.703125 107.703125 196.617188 107.730469 C 196.53125 107.753906 196.390625 107.796875 196.191406 107.863281 C 196.105469 107.890625 195.921875 107.960938 195.636719 108.074219 C 195.621094 108.074219 195.609375 108.066406 195.605469 108.050781 C 195.601562 108.035156 195.601562 108.019531 195.601562 108 L 195.601562 107.214844 C 195.378906 107.476562 195.179688 107.671875 194.996094 107.800781 C 194.71875 107.996094 194.425781 108.09375 194.117188 108.09375 C 193.832031 108.09375 193.566406 107.992188 193.316406 107.789062 C 193.0625 107.589844 192.933594 107.257812 192.933594 106.789062 L 192.933594 104.253906 C 192.933594 103.992188 192.878906 103.820312 192.769531 103.734375 C 192.699219 103.679688 192.542969 103.636719 192.308594 103.617188 L 192.308594 103.476562 Z M 199.765625 103.5 L 199.765625 103.851562 L 198.769531 103.851562 L 198.761719 106.664062 C 198.761719 106.910156 198.78125 107.097656 198.824219 107.222656 C 198.902344 107.449219 199.054688 107.5625 199.285156 107.5625 C 199.402344 107.5625 199.503906 107.53125 199.589844 107.476562 C 199.675781 107.421875 199.773438 107.335938 199.882812 107.214844 L 200.011719 107.320312 L 199.902344 107.46875 C 199.734375 107.695312 199.554688 107.855469 199.367188 107.953125 C 199.175781 108.046875 198.996094 108.09375 198.820312 108.09375 C 198.433594 108.09375 198.175781 107.921875 198.039062 107.578125 C 197.964844 107.394531 197.925781 107.136719 197.925781 106.808594 L 197.925781 103.851562 L 197.394531 103.851562 C 197.378906 103.839844 197.363281 103.828125 197.355469 103.820312 C 197.347656 103.8125 197.34375 103.796875 197.34375 103.78125 C 197.34375 103.75 197.351562 103.722656 197.367188 103.707031 C 197.382812 103.6875 197.425781 103.644531 197.503906 103.582031 C 197.730469 103.394531 197.890625 103.246094 197.992188 103.128906 C 198.089844 103.015625 198.324219 102.707031 198.691406 102.214844 C 198.734375 102.214844 198.761719 102.21875 198.769531 102.222656 C 198.777344 102.230469 198.78125 102.253906 198.78125 102.296875 L 198.78125 103.5 Z M 201.597656 107.101562 C 201.679688 107.324219 201.808594 107.488281 201.976562 107.597656 C 202.144531 107.707031 202.339844 107.761719 202.570312 107.761719 C 202.921875 107.761719 203.21875 107.585938 203.46875 107.234375 C 203.71875 106.886719 203.84375 106.398438 203.84375 105.773438 C 203.84375 105.175781 203.714844 104.726562 203.453125 104.429688 C 203.195312 104.132812 202.894531 103.984375 202.554688 103.984375 C 202.3125 103.984375 202.09375 104.058594 201.894531 104.207031 C 201.695312 104.355469 201.597656 104.503906 201.597656 104.644531 Z M 200.042969 110.015625 C 200.351562 109.996094 200.542969 109.933594 200.628906 109.820312 C 200.710938 109.710938 200.75 109.535156 200.75 109.296875 L 200.75 104.609375 C 200.75 104.363281 200.722656 104.207031 200.660156 104.136719 C 200.601562 104.066406 200.488281 104.03125 200.320312 104.03125 C 200.285156 104.03125 200.253906 104.03125 200.222656 104.035156 C 200.191406 104.039062 200.148438 104.046875 200.085938 104.054688 L 200.085938 103.894531 L 200.550781 103.742188 C 200.566406 103.738281 200.894531 103.625 201.53125 103.40625 C 201.546875 103.40625 201.5625 103.414062 201.570312 103.425781 C 201.578125 103.441406 201.582031 103.460938 201.582031 103.476562 L 201.582031 104.136719 C 201.796875 103.921875 201.984375 103.761719 202.148438 103.660156 C 202.441406 103.476562 202.742188 103.386719 203.050781 103.386719 C 203.5 103.386719 203.886719 103.578125 204.210938 103.960938 C 204.535156 104.34375 204.695312 104.867188 204.695312 105.53125 C 204.695312 106.179688 204.503906 106.769531 204.113281 107.300781 C 203.726562 107.832031 203.234375 108.097656 202.648438 108.097656 C 202.464844 108.097656 202.304688 108.074219 202.171875 108.03125 C 201.964844 107.960938 201.773438 107.835938 201.597656 107.652344 L 201.597656 109.25 C 201.597656 109.578125 201.648438 109.78125 201.757812 109.855469 C 201.867188 109.929688 202.101562 109.980469 202.460938 110.007812 L 202.460938 110.179688 L 200.042969 110.179688 Z M 206.546875 103.476562 L 206.546875 106.601562 C 206.546875 106.824219 206.578125 107.003906 206.640625 107.136719 C 206.761719 107.382812 206.984375 107.507812 207.304688 107.507812 C 207.527344 107.507812 207.742188 107.433594 207.953125 107.289062 C 208.074219 107.207031 208.195312 107.09375 208.320312 106.949219 L 208.320312 104.273438 C 208.320312 104.023438 208.273438 103.859375 208.171875 103.78125 C 208.074219 103.703125 207.882812 103.65625 207.585938 103.640625 L 207.585938 103.476562 L 209.164062 103.476562 L 209.164062 106.914062 C 209.164062 107.136719 209.203125 107.289062 209.285156 107.371094 C 209.363281 107.453125 209.53125 107.492188 209.789062 107.484375 L 209.789062 107.617188 C 209.609375 107.667969 209.480469 107.703125 209.394531 107.730469 C 209.308594 107.753906 209.167969 107.796875 208.96875 107.863281 C 208.882812 107.890625 208.699219 107.960938 208.414062 108.074219 C 208.398438 108.074219 208.386719 108.066406 208.382812 108.050781 C 208.378906 108.035156 208.378906 108.019531 208.378906 108 L 208.378906 107.214844 C 208.15625 107.476562 207.957031 107.671875 207.773438 107.800781 C 207.496094 107.996094 207.203125 108.09375 206.894531 108.09375 C 206.609375 108.09375 206.34375 107.992188 206.09375 107.789062 C 205.839844 107.589844 205.710938 107.257812 205.710938 106.789062 L 205.710938 104.253906 C 205.710938 103.992188 205.65625 103.820312 205.546875 103.734375 C 205.476562 103.679688 205.320312 103.636719 205.085938 103.617188 L 205.085938 103.476562 Z M 212.542969 103.5 L 212.542969 103.851562 L 211.546875 103.851562 L 211.539062 106.664062 C 211.539062 106.910156 211.558594 107.097656 211.601562 107.222656 C 211.679688 107.449219 211.832031 107.5625 212.0625 107.5625 C 212.179688 107.5625 212.28125 107.53125 212.367188 107.476562 C 212.453125 107.421875 212.550781 107.335938 212.660156 107.214844 L 212.789062 107.320312 L 212.679688 107.46875 C 212.511719 107.695312 212.332031 107.855469 212.144531 107.953125 C 211.953125 108.046875 211.773438 108.09375 211.597656 108.09375 C 211.210938 108.09375 210.953125 107.921875 210.816406 107.578125 C 210.742188 107.394531 210.703125 107.136719 210.703125 106.808594 L 210.703125 103.851562 L 210.171875 103.851562 C 210.15625 103.839844 210.140625 103.828125 210.132812 103.820312 C 210.125 103.8125 210.121094 103.796875 210.121094 103.78125 C 210.121094 103.75 210.128906 103.722656 210.144531 103.707031 C 210.160156 103.6875 210.203125 103.644531 210.28125 103.582031 C 210.507812 103.394531 210.667969 103.246094 210.769531 103.128906 C 210.867188 103.015625 211.101562 102.707031 211.46875 102.214844 C 211.511719 102.214844 211.539062 102.21875 211.546875 102.222656 C 211.554688 102.230469 211.558594 102.253906 211.558594 102.296875 L 211.558594 103.5 Z M 187.222656 100.5 "/>
<path style="fill:none;stroke-width:1;stroke-linecap:butt;stroke-linejoin:miter;stroke:rgb(74.901962%,74.901962%,74.901962%);stroke-opacity:1;stroke-miterlimit:4;" d="M 145.625 -137.335938 C 155.691406 -130.074219 170.878906 -119.121094 181.941406 -111.140625 " transform="matrix(1,0,0,1,4,206)"/>
<path style="fill-rule:nonzero;fill:rgb(74.901962%,74.901962%,74.901962%);fill-opacity:1;stroke-width:1;stroke-linecap:butt;stroke-linejoin:miter;stroke:rgb(74.901962%,74.901962%,74.901962%);stroke-opacity:1;stroke-miterlimit:4;" d="M 184.007812 -110.371094 C 184.007812 -109.816406 183.5625 -109.371094 183.007812 -109.371094 C 182.457031 -109.371094 182.007812 -109.816406 182.007812 -110.371094 C 182.007812 -110.921875 182.457031 -111.371094 183.007812 -111.371094 C 183.5625 -111.371094 184.007812 -110.921875 184.007812 -110.371094 Z M 184.007812 -110.371094 " transform="matrix(1,0,0,1,4,206)"/>
<path style="fill:none;stroke-width:1;stroke-linecap:butt;stroke-linejoin:miter;stroke:rgb(74.901962%,74.901962%,74.901962%);stroke-opacity:1;stroke-miterlimit:4;" d="M 148.234375 -101 C 158.007812 -101 171.308594 -101 181.390625 -101 " transform="matrix(1,0,0,1,4,206)"/>
<path style="fill-rule:nonzero;fill:rgb(74.901962%,74.901962%,74.901962%);fill-opacity:1;stroke-width:1;stroke-linecap:butt;stroke-linejoin:miter;stroke:rgb(74.901962%,74.901962%,74.901962%);stroke-opacity:1;stroke-miterlimit:4;" d="M 183.621094 -101 C 183.621094 -100.449219 183.171875 -100 182.621094 -100 C 182.070312 -100 181.621094 -100.449219 181.621094 -101 C 181.621094 -101.550781 182.070312 -102 182.621094 -102 C 183.171875 -102 183.621094 -101.550781 183.621094 -101 Z M 183.621094 -101 " transform="matrix(1,0,0,1,4,206)"/>
<path style="fill:none;stroke-width:1;stroke-linecap:butt;stroke-linejoin:miter;stroke:rgb(74.901962%,74.901962%,74.901962%);stroke-opacity:1;stroke-miterlimit:4;" d="M 145.625 -64.664062 C 155.691406 -71.925781 170.878906 -82.878906 181.941406 -90.859375 " transform="matrix(1,0,0,1,4,206)"/>
<path style="fill-rule:nonzero;fill:rgb(74.901962%,74.901962%,74.901962%);fill-opacity:1;stroke-width:1;stroke-linecap:butt;stroke-linejoin:miter;stroke:rgb(74.901962%,74.901962%,74.901962%);stroke-opacity:1;stroke-miterlimit:4;" d="M 184.007812 -91.628906 C 184.007812 -91.078125 183.5625 -90.628906 183.007812 -90.628906 C 182.457031 -90.628906 182.007812 -91.078125 182.007812 -91.628906 C 182.007812 -92.183594 182.457031 -92.628906 183.007812 -92.628906 C 183.5625 -92.628906 184.007812 -92.183594 184.007812 -91.628906 Z M 184.007812 -91.628906 " transform="matrix(1,0,0,1,4,206)"/>
<path style="fill:none;stroke-width:1;stroke-linecap:butt;stroke-linejoin:miter;stroke:rgb(74.901962%,74.901962%,74.901962%);stroke-opacity:1;stroke-miterlimit:4;" d="M 142.480469 -23.789062 C 153.574219 -39.796875 174.386719 -69.820312 186.53125 -87.339844 " transform="matrix(1,0,0,1,4,206)"/>
<path style="fill-rule:nonzero;fill:rgb(74.901962%,74.901962%,74.901962%);fill-opacity:1;stroke-width:1;stroke-linecap:butt;stroke-linejoin:miter;stroke:rgb(74.901962%,74.901962%,74.901962%);stroke-opacity:1;stroke-miterlimit:4;" d="M 188.109375 -88.171875 C 188.109375 -87.621094 187.660156 -87.171875 187.109375 -87.171875 C 186.554688 -87.171875 186.109375 -87.621094 186.109375 -88.171875 C 186.109375 -88.726562 186.554688 -89.171875 187.109375 -89.171875 C 187.660156 -89.171875 188.109375 -88.726562 188.109375 -88.171875 Z M 188.109375 -88.171875 " transform="matrix(1,0,0,1,4,206)"/>
<path style="fill:none;stroke-width:1;stroke-linecap:butt;stroke-linejoin:miter;stroke:rgb(74.901962%,74.901962%,74.901962%);stroke-opacity:1;stroke-miterlimit:4;" d="M 142.480469 -178.210938 C 153.574219 -162.203125 174.386719 -132.179688 186.53125 -114.660156 " transform="matrix(1,0,0,1,4,206)"/>
<path style="fill-rule:nonzero;fill:rgb(74.901962%,74.901962%,74.901962%);fill-opacity:1;stroke-width:1;stroke-linecap:butt;stroke-linejoin:miter;stroke:rgb(74.901962%,74.901962%,74.901962%);stroke-opacity:1;stroke-miterlimit:4;" d="M 188.109375 -113.828125 C 188.109375 -113.273438 187.660156 -112.828125 187.109375 -112.828125 C 186.554688 -112.828125 186.109375 -113.273438 186.109375 -113.828125 C 186.109375 -114.378906 186.554688 -114.828125 187.109375 -114.828125 C 187.660156 -114.828125 188.109375 -114.378906 188.109375 -113.828125 Z M 188.109375 -113.828125 " transform="matrix(1,0,0,1,4,206)"/>
</g>
</svg>
