<?xml version="1.0" encoding="UTF-8"?>
<svg xmlns="http://www.w3.org/2000/svg" xmlns:xlink="http://www.w3.org/1999/xlink" width="396pt" height="300pt" viewBox="0 0 396 300" version="1.1">
<g id="surface65">
<path style="fill-rule:nonzero;fill:rgb(100%,93.725491%,83.529413%);fill-opacity:1;stroke-width:1;stroke-linecap:butt;stroke-linejoin:miter;stroke:rgb(100%,93.725491%,83.529413%);stroke-opacity:1;stroke-miterlimit:4;" d="M 130 -128 L 130 -222 L 147 -222 L 147 -128 Z M 130 -128 " transform="matrix(1,0,0,1,4,296)"/>
<path style="fill-rule:nonzero;fill:rgb(100%,93.725491%,83.529413%);fill-opacity:1;stroke-width:1;stroke-linecap:butt;stroke-linejoin:miter;stroke:rgb(100%,93.725491%,83.529413%);stroke-opacity:1;stroke-miterlimit:4;" d="M 167 -128 L 167 -222 L 184 -222 L 184 -128 Z M 167 -128 " transform="matrix(1,0,0,1,4,296)"/>
<path style="fill-rule:nonzero;fill:rgb(100%,93.725491%,83.529413%);fill-opacity:1;stroke-width:1;stroke-linecap:butt;stroke-linejoin:miter;stroke:rgb(100%,93.725491%,83.529413%);stroke-opacity:1;stroke-miterlimit:4;" d="M 204 -128 L 204 -222 L 221 -222 L 221 -128 Z M 204 -128 " transform="matrix(1,0,0,1,4,296)"/>
<path style="fill-rule:nonzero;fill:rgb(100%,93.725491%,83.529413%);fill-opacity:1;stroke-width:1;stroke-linecap:butt;stroke-linejoin:miter;stroke:rgb(100%,93.725491%,83.529413%);stroke-opacity:1;stroke-miterlimit:4;" d="M 241 -128 L 241 -222 L 258 -222 L 258 -128 Z M 241 -128 " transform="matrix(1,0,0,1,4,296)"/>
<path style="fill:none;stroke-width:1;stroke-linecap:butt;stroke-linejoin:miter;stroke:rgb(49.803922%,49.803922%,49.803922%);stroke-opacity:1;stroke-miterlimit:4;" d="M 40 -175 C 40 -168.371094 34.628906 -163 28 -163 C 21.371094 -163 16 -168.371094 16 -175 C 16 -181.628906 21.371094 -187 28 -187 C 34.628906 -187 40 -181.628906 40 -175 Z M 40 -175 " transform="matrix(1,0,0,1,4,296)"/>
<path style=" stroke:none;fill-rule:nonzero;fill:rgb(0%,0%,0%);fill-opacity:1;" d="M 29.992188 119.167969 L 30.796875 117.535156 L 31.425781 117.535156 L 30.316406 119.652344 L 31.449219 121.800781 L 30.8125 121.800781 L 29.992188 120.136719 L 29.171875 121.800781 L 28.535156 121.800781 L 29.675781 119.652344 L 28.558594 117.535156 L 29.1875 117.535156 Z M 28.335938 116.234375 "/>
<path style=" stroke:none;fill-rule:nonzero;fill:rgb(0%,0%,0%);fill-opacity:1;" d="M 35.390625 123 L 33.007812 123 L 33.007812 122.609375 L 34.222656 121 C 34.40625 120.75 34.535156 120.546875 34.605469 120.386719 C 34.675781 120.226562 34.710938 120.0625 34.710938 119.882812 C 34.710938 119.65625 34.660156 119.472656 34.554688 119.332031 C 34.449219 119.191406 34.308594 119.121094 34.136719 119.121094 C 33.921875 119.121094 33.753906 119.195312 33.636719 119.34375 C 33.515625 119.492188 33.457031 119.710938 33.457031 119.992188 L 32.9375 119.992188 C 32.9375 119.597656 33.046875 119.28125 33.261719 119.039062 C 33.476562 118.796875 33.769531 118.675781 34.136719 118.675781 C 34.476562 118.675781 34.746094 118.78125 34.941406 118.988281 C 35.136719 119.195312 35.234375 119.472656 35.234375 119.820312 C 35.234375 120.242188 35.015625 120.738281 34.574219 121.316406 L 33.625 122.558594 L 35.390625 122.558594 Z M 32.664062 117.433594 "/>
<path style="fill:none;stroke-width:1;stroke-linecap:butt;stroke-linejoin:miter;stroke:rgb(33.725491%,70.588237%,91.37255%);stroke-opacity:0.501961;stroke-dasharray:5,2;stroke-miterlimit:4;" d="M 98 -175 C 98 -170.03125 93.96875 -166 89 -166 C 84.03125 -166 80 -170.03125 80 -175 C 80 -179.96875 84.03125 -184 89 -184 C 93.96875 -184 98 -179.96875 98 -175 Z M 98 -175 " transform="matrix(1,0,0,1,4,296)"/>
<path style="fill:none;stroke-width:1;stroke-linecap:butt;stroke-linejoin:miter;stroke:rgb(33.725491%,70.588237%,91.37255%);stroke-opacity:0.501961;stroke-dasharray:5,2;stroke-miterlimit:4;" d="M 102 -175 C 102 -167.820312 96.179688 -162 89 -162 C 81.820312 -162 76 -167.820312 76 -175 C 76 -182.179688 81.820312 -188 89 -188 C 96.179688 -188 102 -182.179688 102 -175 Z M 102 -175 " transform="matrix(1,0,0,1,4,296)"/>
<path style="fill:none;stroke-width:1;stroke-linecap:butt;stroke-linejoin:miter;stroke:rgb(74.901962%,74.901962%,74.901962%);stroke-opacity:1;stroke-miterlimit:4;" d="M 40.050781 -175 C 50.007812 -175 64.164062 -175 74.695312 -175 " transform="matrix(1,0,0,1,4,296)"/>
<path style="fill-rule:nonzero;fill:rgb(74.901962%,74.901962%,74.901962%);fill-opacity:1;stroke-width:1;stroke-linecap:butt;stroke-linejoin:miter;stroke:rgb(74.901962%,74.901962%,74.901962%);stroke-opacity:1;stroke-miterlimit:4;" d="M 75.703125 -175 C 75.703125 -174.777344 75.523438 -174.601562 75.304688 -174.601562 C 75.082031 -174.601562 74.902344 -174.777344 74.902344 -175 C 74.902344 -175.222656 75.082031 -175.398438 75.304688 -175.398438 C 75.523438 -175.398438 75.703125 -175.222656 75.703125 -175 Z M 75.703125 -175 " transform="matrix(1,0,0,1,4,296)"/>
<path style="fill:none;stroke-width:1;stroke-linecap:butt;stroke-linejoin:miter;stroke:rgb(33.725491%,70.588237%,91.37255%);stroke-opacity:0.501961;stroke-dasharray:5,2;stroke-miterlimit:4;" d="M 98 -131 C 98 -126.03125 93.96875 -122 89 -122 C 84.03125 -122 80 -126.03125 80 -131 C 80 -135.96875 84.03125 -140 89 -140 C 93.96875 -140 98 -135.96875 98 -131 Z M 98 -131 " transform="matrix(1,0,0,1,4,296)"/>
<path style="fill:none;stroke-width:1;stroke-linecap:butt;stroke-linejoin:miter;stroke:rgb(33.725491%,70.588237%,91.37255%);stroke-opacity:0.501961;stroke-dasharray:5,2;stroke-miterlimit:4;" d="M 102 -131 C 102 -123.820312 96.179688 -118 89 -118 C 81.820312 -118 76 -123.820312 76 -131 C 76 -138.179688 81.820312 -144 89 -144 C 96.179688 -144 102 -138.179688 102 -131 Z M 102 -131 " transform="matrix(1,0,0,1,4,296)"/>
<path style="fill:none;stroke-width:1;stroke-linecap:butt;stroke-linejoin:miter;stroke:rgb(74.901962%,74.901962%,74.901962%);stroke-opacity:1;stroke-miterlimit:4;" d="M 37.800781 -167.929688 C 48.589844 -160.148438 65.917969 -147.648438 77.378906 -139.382812 " transform="matrix(1,0,0,1,4,296)"/>
<path style="fill-rule:nonzero;fill:rgb(74.901962%,74.901962%,74.901962%);fill-opacity:1;stroke-width:1;stroke-linecap:butt;stroke-linejoin:miter;stroke:rgb(74.901962%,74.901962%,74.901962%);stroke-opacity:1;stroke-miterlimit:4;" d="M 78.269531 -139.027344 C 78.269531 -138.804688 78.09375 -138.628906 77.871094 -138.628906 C 77.648438 -138.628906 77.472656 -138.804688 77.472656 -139.027344 C 77.472656 -139.25 77.648438 -139.425781 77.871094 -139.425781 C 78.09375 -139.425781 78.269531 -139.25 78.269531 -139.027344 Z M 78.269531 -139.027344 " transform="matrix(1,0,0,1,4,296)"/>
<path style="fill:none;stroke-width:1;stroke-linecap:butt;stroke-linejoin:miter;stroke:rgb(33.725491%,70.588237%,91.37255%);stroke-opacity:0.501961;stroke-dasharray:5,2;stroke-miterlimit:4;" d="M 98 -87 C 98 -82.03125 93.96875 -78 89 -78 C 84.03125 -78 80 -82.03125 80 -87 C 80 -91.96875 84.03125 -96 89 -96 C 93.96875 -96 98 -91.96875 98 -87 Z M 98 -87 " transform="matrix(1,0,0,1,4,296)"/>
<path style="fill:none;stroke-width:1;stroke-linecap:butt;stroke-linejoin:miter;stroke:rgb(33.725491%,70.588237%,91.37255%);stroke-opacity:0.501961;stroke-dasharray:5,2;stroke-miterlimit:4;" d="M 102 -87 C 102 -79.820312 96.179688 -74 89 -74 C 81.820312 -74 76 -79.820312 76 -87 C 76 -94.179688 81.820312 -100 89 -100 C 96.179688 -100 102 -94.179688 102 -87 Z M 102 -87 " transform="matrix(1,0,0,1,4,296)"/>
<path style="fill:none;stroke-width:1;stroke-linecap:butt;stroke-linejoin:miter;stroke:rgb(74.901962%,74.901962%,74.901962%);stroke-opacity:1;stroke-miterlimit:4;" d="M 37.292969 -166.589844 C 40.945312 -162.964844 44.976562 -158.519531 48 -154 C 60.167969 -135.808594 55.820312 -127.183594 68 -109 C 70.976562 -104.558594 74.882812 -100.1875 78.519531 -96.527344 " transform="matrix(1,0,0,1,4,296)"/>
<path style="fill-rule:nonzero;fill:rgb(74.901962%,74.901962%,74.901962%);fill-opacity:1;stroke-width:1;stroke-linecap:butt;stroke-linejoin:miter;stroke:rgb(74.901962%,74.901962%,74.901962%);stroke-opacity:1;stroke-miterlimit:4;" d="M 79.359375 -96.089844 C 79.359375 -95.867188 79.179688 -95.6875 78.957031 -95.6875 C 78.738281 -95.6875 78.558594 -95.867188 78.558594 -96.089844 C 78.558594 -96.308594 78.738281 -96.488281 78.957031 -96.488281 C 79.179688 -96.488281 79.359375 -96.308594 79.359375 -96.089844 Z M 79.359375 -96.089844 " transform="matrix(1,0,0,1,4,296)"/>
<path style="fill:none;stroke-width:1;stroke-linecap:butt;stroke-linejoin:miter;stroke:rgb(33.725491%,70.588237%,91.37255%);stroke-opacity:0.501961;stroke-dasharray:5,2;stroke-miterlimit:4;" d="M 98 -263 C 98 -258.03125 93.96875 -254 89 -254 C 84.03125 -254 80 -258.03125 80 -263 C 80 -267.96875 84.03125 -272 89 -272 C 93.96875 -272 98 -267.96875 98 -263 Z M 98 -263 " transform="matrix(1,0,0,1,4,296)"/>
<path style="fill:none;stroke-width:1;stroke-linecap:butt;stroke-linejoin:miter;stroke:rgb(33.725491%,70.588237%,91.37255%);stroke-opacity:0.501961;stroke-dasharray:5,2;stroke-miterlimit:4;" d="M 102 -263 C 102 -255.820312 96.179688 -250 89 -250 C 81.820312 -250 76 -255.820312 76 -263 C 76 -270.179688 81.820312 -276 89 -276 C 96.179688 -276 102 -270.179688 102 -263 Z M 102 -263 " transform="matrix(1,0,0,1,4,296)"/>
<path style="fill:none;stroke-width:1;stroke-linecap:butt;stroke-linejoin:miter;stroke:rgb(74.901962%,74.901962%,74.901962%);stroke-opacity:1;stroke-miterlimit:4;" d="M 37.292969 -183.410156 C 40.945312 -187.035156 44.976562 -191.480469 48 -196 C 60.167969 -214.191406 55.820312 -222.816406 68 -241 C 70.976562 -245.441406 74.882812 -249.8125 78.519531 -253.472656 " transform="matrix(1,0,0,1,4,296)"/>
<path style="fill-rule:nonzero;fill:rgb(74.901962%,74.901962%,74.901962%);fill-opacity:1;stroke-width:1;stroke-linecap:butt;stroke-linejoin:miter;stroke:rgb(74.901962%,74.901962%,74.901962%);stroke-opacity:1;stroke-miterlimit:4;" d="M 79.359375 -253.910156 C 79.359375 -253.691406 79.179688 -253.511719 78.957031 -253.511719 C 78.738281 -253.511719 78.558594 -253.691406 78.558594 -253.910156 C 78.558594 -254.132812 78.738281 -254.3125 78.957031 -254.3125 C 79.179688 -254.3125 79.359375 -254.132812 79.359375 -253.910156 Z M 79.359375 -253.910156 " transform="matrix(1,0,0,1,4,296)"/>
<path style="fill:none;stroke-width:1;stroke-linecap:butt;stroke-linejoin:miter;stroke:rgb(33.725491%,70.588237%,91.37255%);stroke-opacity:0.501961;stroke-dasharray:5,2;stroke-miterlimit:4;" d="M 98 -219 C 98 -214.03125 93.96875 -210 89 -210 C 84.03125 -210 80 -214.03125 80 -219 C 80 -223.96875 84.03125 -228 89 -228 C 93.96875 -228 98 -223.96875 98 -219 Z M 98 -219 " transform="matrix(1,0,0,1,4,296)"/>
<path style="fill:none;stroke-width:1;stroke-linecap:butt;stroke-linejoin:miter;stroke:rgb(33.725491%,70.588237%,91.37255%);stroke-opacity:0.501961;stroke-dasharray:5,2;stroke-miterlimit:4;" d="M 102 -219 C 102 -211.820312 96.179688 -206 89 -206 C 81.820312 -206 76 -211.820312 76 -219 C 76 -226.179688 81.820312 -232 89 -232 C 96.179688 -232 102 -226.179688 102 -219 Z M 102 -219 " transform="matrix(1,0,0,1,4,296)"/>
<path style="fill:none;stroke-width:1;stroke-linecap:butt;stroke-linejoin:miter;stroke:rgb(74.901962%,74.901962%,74.901962%);stroke-opacity:1;stroke-miterlimit:4;" d="M 37.800781 -182.070312 C 48.589844 -189.851562 65.917969 -202.351562 77.378906 -210.617188 " transform="matrix(1,0,0,1,4,296)"/>
<path style="fill-rule:nonzero;fill:rgb(74.901962%,74.901962%,74.901962%);fill-opacity:1;stroke-width:1;stroke-linecap:butt;stroke-linejoin:miter;stroke:rgb(74.901962%,74.901962%,74.901962%);stroke-opacity:1;stroke-miterlimit:4;" d="M 78.269531 -210.972656 C 78.269531 -210.75 78.09375 -210.574219 77.871094 -210.574219 C 77.648438 -210.574219 77.472656 -210.75 77.472656 -210.972656 C 77.472656 -211.195312 77.648438 -211.371094 77.871094 -211.371094 C 78.09375 -211.371094 78.269531 -211.195312 78.269531 -210.972656 Z M 78.269531 -210.972656 " transform="matrix(1,0,0,1,4,296)"/>
<path style="fill:none;stroke-width:1;stroke-linecap:butt;stroke-linejoin:miter;stroke:rgb(49.803922%,49.803922%,49.803922%);stroke-opacity:1;stroke-miterlimit:4;" d="M 40 -133 C 40 -126.371094 34.628906 -121 28 -121 C 21.371094 -121 16 -126.371094 16 -133 C 16 -139.628906 21.371094 -145 28 -145 C 34.628906 -145 40 -139.628906 40 -133 Z M 40 -133 " transform="matrix(1,0,0,1,4,296)"/>
<path style=" stroke:none;fill-rule:nonzero;fill:rgb(0%,0%,0%);fill-opacity:1;" d="M 29.992188 161.167969 L 30.796875 159.535156 L 31.425781 159.535156 L 30.316406 161.652344 L 31.449219 163.800781 L 30.8125 163.800781 L 29.992188 162.136719 L 29.171875 163.800781 L 28.535156 163.800781 L 29.675781 161.652344 L 28.558594 159.535156 L 29.1875 159.535156 Z M 28.335938 158.234375 "/>
<path style=" stroke:none;fill-rule:nonzero;fill:rgb(0%,0%,0%);fill-opacity:1;" d="M 33.667969 162.601562 L 34 162.601562 C 34.210938 162.601562 34.375 162.539062 34.492188 162.40625 C 34.609375 162.277344 34.664062 162.097656 34.664062 161.871094 C 34.664062 161.371094 34.472656 161.121094 34.085938 161.121094 C 33.898438 161.121094 33.753906 161.1875 33.648438 161.324219 C 33.542969 161.457031 33.492188 161.632812 33.492188 161.851562 L 32.976562 161.851562 C 32.976562 161.511719 33.078125 161.230469 33.285156 161.007812 C 33.492188 160.785156 33.761719 160.675781 34.085938 160.675781 C 34.421875 160.675781 34.6875 160.78125 34.882812 160.992188 C 35.082031 161.203125 35.179688 161.5 35.179688 161.882812 C 35.179688 162.078125 35.128906 162.265625 35.027344 162.433594 C 34.925781 162.605469 34.789062 162.730469 34.625 162.8125 C 35.027344 162.960938 35.230469 163.292969 35.230469 163.8125 C 35.230469 164.191406 35.125 164.496094 34.914062 164.71875 C 34.703125 164.945312 34.421875 165.058594 34.082031 165.058594 C 33.742188 165.058594 33.472656 164.953125 33.261719 164.738281 C 33.054688 164.523438 32.953125 164.234375 32.953125 163.875 L 33.46875 163.875 C 33.46875 164.101562 33.523438 164.28125 33.632812 164.414062 C 33.742188 164.546875 33.890625 164.617188 34.082031 164.617188 C 34.273438 164.617188 34.429688 164.550781 34.542969 164.421875 C 34.65625 164.289062 34.714844 164.089844 34.714844 163.820312 C 34.714844 163.304688 34.46875 163.046875 33.980469 163.046875 L 33.667969 163.046875 Z M 32.664062 159.433594 "/>
<path style="fill:none;stroke-width:1;stroke-linecap:butt;stroke-linejoin:miter;stroke:rgb(74.901962%,74.901962%,74.901962%);stroke-opacity:1;stroke-miterlimit:4;" d="M 38.074219 -139.933594 C 48.78125 -147.308594 65.703125 -158.960938 77.070312 -166.785156 " transform="matrix(1,0,0,1,4,296)"/>
<path style="fill-rule:nonzero;fill:rgb(74.901962%,74.901962%,74.901962%);fill-opacity:1;stroke-width:1;stroke-linecap:butt;stroke-linejoin:miter;stroke:rgb(74.901962%,74.901962%,74.901962%);stroke-opacity:1;stroke-miterlimit:4;" d="M 77.949219 -167.117188 C 77.949219 -166.894531 77.769531 -166.714844 77.546875 -166.714844 C 77.328125 -166.714844 77.148438 -166.894531 77.148438 -167.117188 C 77.148438 -167.335938 77.328125 -167.515625 77.546875 -167.515625 C 77.769531 -167.515625 77.949219 -167.335938 77.949219 -167.117188 Z M 77.949219 -167.117188 " transform="matrix(1,0,0,1,4,296)"/>
<path style="fill:none;stroke-width:1;stroke-linecap:butt;stroke-linejoin:miter;stroke:rgb(74.901962%,74.901962%,74.901962%);stroke-opacity:1;stroke-miterlimit:4;" d="M 40.050781 -132.605469 C 50.007812 -132.277344 64.164062 -131.8125 74.695312 -131.46875 " transform="matrix(1,0,0,1,4,296)"/>
<path style="fill-rule:nonzero;fill:rgb(74.901962%,74.901962%,74.901962%);fill-opacity:1;stroke-width:1;stroke-linecap:butt;stroke-linejoin:miter;stroke:rgb(74.901962%,74.901962%,74.901962%);stroke-opacity:1;stroke-miterlimit:4;" d="M 75.703125 -131.449219 C 75.703125 -131.226562 75.523438 -131.050781 75.304688 -131.050781 C 75.082031 -131.050781 74.902344 -131.226562 74.902344 -131.449219 C 74.902344 -131.671875 75.082031 -131.847656 75.304688 -131.847656 C 75.523438 -131.847656 75.703125 -131.671875 75.703125 -131.449219 Z M 75.703125 -131.449219 " transform="matrix(1,0,0,1,4,296)"/>
<path style="fill:none;stroke-width:1;stroke-linecap:butt;stroke-linejoin:miter;stroke:rgb(74.901962%,74.901962%,74.901962%);stroke-opacity:1;stroke-miterlimit:4;" d="M 37.800781 -125.609375 C 48.71875 -117.375 66.339844 -104.085938 77.796875 -95.449219 " transform="matrix(1,0,0,1,4,296)"/>
<path style="fill-rule:nonzero;fill:rgb(74.901962%,74.901962%,74.901962%);fill-opacity:1;stroke-width:1;stroke-linecap:butt;stroke-linejoin:miter;stroke:rgb(74.901962%,74.901962%,74.901962%);stroke-opacity:1;stroke-miterlimit:4;" d="M 78.691406 -95.074219 C 78.691406 -94.855469 78.511719 -94.675781 78.292969 -94.675781 C 78.070312 -94.675781 77.890625 -94.855469 77.890625 -95.074219 C 77.890625 -95.296875 78.070312 -95.476562 78.292969 -95.476562 C 78.511719 -95.476562 78.691406 -95.296875 78.691406 -95.074219 Z M 78.691406 -95.074219 " transform="matrix(1,0,0,1,4,296)"/>
<path style="fill:none;stroke-width:1;stroke-linecap:butt;stroke-linejoin:miter;stroke:rgb(74.901962%,74.901962%,74.901962%);stroke-opacity:1;stroke-miterlimit:4;" d="M 37.328125 -140.746094 C 41.167969 -144.394531 45.328125 -149.035156 48 -154 C 66.792969 -188.941406 49.1875 -206.070312 68 -241 C 70.535156 -245.707031 74.351562 -250.132812 78.035156 -253.761719 " transform="matrix(1,0,0,1,4,296)"/>
<path style="fill-rule:nonzero;fill:rgb(74.901962%,74.901962%,74.901962%);fill-opacity:1;stroke-width:1;stroke-linecap:butt;stroke-linejoin:miter;stroke:rgb(74.901962%,74.901962%,74.901962%);stroke-opacity:1;stroke-miterlimit:4;" d="M 78.882812 -254.199219 C 78.882812 -253.976562 78.703125 -253.796875 78.484375 -253.796875 C 78.261719 -253.796875 78.082031 -253.976562 78.082031 -254.199219 C 78.082031 -254.417969 78.261719 -254.597656 78.484375 -254.597656 C 78.703125 -254.597656 78.882812 -254.417969 78.882812 -254.199219 Z M 78.882812 -254.199219 " transform="matrix(1,0,0,1,4,296)"/>
<path style="fill:none;stroke-width:1;stroke-linecap:butt;stroke-linejoin:miter;stroke:rgb(74.901962%,74.901962%,74.901962%);stroke-opacity:1;stroke-miterlimit:4;" d="M 37.253906 -141.433594 C 40.898438 -145.066406 44.9375 -149.507812 48 -154 C 59.871094 -171.417969 56.121094 -179.589844 68 -197 C 71.011719 -201.417969 74.929688 -205.78125 78.558594 -209.441406 " transform="matrix(1,0,0,1,4,296)"/>
<path style="fill-rule:nonzero;fill:rgb(74.901962%,74.901962%,74.901962%);fill-opacity:1;stroke-width:1;stroke-linecap:butt;stroke-linejoin:miter;stroke:rgb(74.901962%,74.901962%,74.901962%);stroke-opacity:1;stroke-miterlimit:4;" d="M 79.398438 -209.882812 C 79.398438 -209.664062 79.21875 -209.484375 79 -209.484375 C 78.777344 -209.484375 78.597656 -209.664062 78.597656 -209.882812 C 78.597656 -210.105469 78.777344 -210.28125 79 -210.28125 C 79.21875 -210.28125 79.398438 -210.105469 79.398438 -209.882812 Z M 79.398438 -209.882812 " transform="matrix(1,0,0,1,4,296)"/>
<path style="fill:none;stroke-width:1;stroke-linecap:butt;stroke-linejoin:miter;stroke:rgb(49.803922%,49.803922%,49.803922%);stroke-opacity:1;stroke-miterlimit:4;" d="M 40 -217 C 40 -210.371094 34.628906 -205 28 -205 C 21.371094 -205 16 -210.371094 16 -217 C 16 -223.628906 21.371094 -229 28 -229 C 34.628906 -229 40 -223.628906 40 -217 Z M 40 -217 " transform="matrix(1,0,0,1,4,296)"/>
<path style=" stroke:none;fill-rule:nonzero;fill:rgb(0%,0%,0%);fill-opacity:1;" d="M 29.992188 77.167969 L 30.796875 75.535156 L 31.425781 75.535156 L 30.316406 77.652344 L 31.449219 79.800781 L 30.8125 79.800781 L 29.992188 78.136719 L 29.171875 79.800781 L 28.535156 79.800781 L 29.675781 77.652344 L 28.558594 75.535156 L 29.1875 75.535156 Z M 28.335938 74.234375 "/>
<path style=" stroke:none;fill-rule:nonzero;fill:rgb(0%,0%,0%);fill-opacity:1;" d="M 34.550781 81 L 34.03125 81 L 34.03125 77.386719 L 33.132812 77.789062 L 33.132812 77.296875 L 34.46875 76.714844 L 34.550781 76.714844 Z M 32.664062 75.433594 "/>
<path style="fill:none;stroke-width:1;stroke-linecap:butt;stroke-linejoin:miter;stroke:rgb(74.901962%,74.901962%,74.901962%);stroke-opacity:1;stroke-miterlimit:4;" d="M 38.074219 -210.066406 C 48.78125 -202.691406 65.703125 -191.039062 77.070312 -183.214844 " transform="matrix(1,0,0,1,4,296)"/>
<path style="fill-rule:nonzero;fill:rgb(74.901962%,74.901962%,74.901962%);fill-opacity:1;stroke-width:1;stroke-linecap:butt;stroke-linejoin:miter;stroke:rgb(74.901962%,74.901962%,74.901962%);stroke-opacity:1;stroke-miterlimit:4;" d="M 77.949219 -182.882812 C 77.949219 -182.664062 77.769531 -182.484375 77.546875 -182.484375 C 77.328125 -182.484375 77.148438 -182.664062 77.148438 -182.882812 C 77.148438 -183.105469 77.328125 -183.285156 77.546875 -183.285156 C 77.769531 -183.285156 77.949219 -183.105469 77.949219 -182.882812 Z M 77.949219 -182.882812 " transform="matrix(1,0,0,1,4,296)"/>
<path style="fill:none;stroke-width:1;stroke-linecap:butt;stroke-linejoin:miter;stroke:rgb(74.901962%,74.901962%,74.901962%);stroke-opacity:1;stroke-miterlimit:4;" d="M 37.253906 -208.566406 C 40.898438 -204.933594 44.9375 -200.492188 48 -196 C 59.871094 -178.582031 56.121094 -170.410156 68 -153 C 71.011719 -148.582031 74.929688 -144.21875 78.558594 -140.558594 " transform="matrix(1,0,0,1,4,296)"/>
<path style="fill-rule:nonzero;fill:rgb(74.901962%,74.901962%,74.901962%);fill-opacity:1;stroke-width:1;stroke-linecap:butt;stroke-linejoin:miter;stroke:rgb(74.901962%,74.901962%,74.901962%);stroke-opacity:1;stroke-miterlimit:4;" d="M 79.398438 -140.117188 C 79.398438 -139.894531 79.21875 -139.71875 79 -139.71875 C 78.777344 -139.71875 78.597656 -139.894531 78.597656 -140.117188 C 78.597656 -140.335938 78.777344 -140.515625 79 -140.515625 C 79.21875 -140.515625 79.398438 -140.335938 79.398438 -140.117188 Z M 79.398438 -140.117188 " transform="matrix(1,0,0,1,4,296)"/>
<path style="fill:none;stroke-width:1;stroke-linecap:butt;stroke-linejoin:miter;stroke:rgb(74.901962%,74.901962%,74.901962%);stroke-opacity:1;stroke-miterlimit:4;" d="M 37.328125 -209.253906 C 41.167969 -205.605469 45.328125 -200.964844 48 -196 C 66.792969 -161.058594 49.1875 -143.929688 68 -109 C 70.535156 -104.292969 74.351562 -99.867188 78.035156 -96.238281 " transform="matrix(1,0,0,1,4,296)"/>
<path style="fill-rule:nonzero;fill:rgb(74.901962%,74.901962%,74.901962%);fill-opacity:1;stroke-width:1;stroke-linecap:butt;stroke-linejoin:miter;stroke:rgb(74.901962%,74.901962%,74.901962%);stroke-opacity:1;stroke-miterlimit:4;" d="M 78.882812 -95.800781 C 78.882812 -95.582031 78.703125 -95.402344 78.484375 -95.402344 C 78.261719 -95.402344 78.082031 -95.582031 78.082031 -95.800781 C 78.082031 -96.023438 78.261719 -96.203125 78.484375 -96.203125 C 78.703125 -96.203125 78.882812 -96.023438 78.882812 -95.800781 Z M 78.882812 -95.800781 " transform="matrix(1,0,0,1,4,296)"/>
<path style="fill:none;stroke-width:1;stroke-linecap:butt;stroke-linejoin:miter;stroke:rgb(74.901962%,74.901962%,74.901962%);stroke-opacity:1;stroke-miterlimit:4;" d="M 37.800781 -224.390625 C 48.71875 -232.625 66.339844 -245.914062 77.796875 -254.550781 " transform="matrix(1,0,0,1,4,296)"/>
<path style="fill-rule:nonzero;fill:rgb(74.901962%,74.901962%,74.901962%);fill-opacity:1;stroke-width:1;stroke-linecap:butt;stroke-linejoin:miter;stroke:rgb(74.901962%,74.901962%,74.901962%);stroke-opacity:1;stroke-miterlimit:4;" d="M 78.691406 -254.925781 C 78.691406 -254.703125 78.511719 -254.523438 78.292969 -254.523438 C 78.070312 -254.523438 77.890625 -254.703125 77.890625 -254.925781 C 77.890625 -255.144531 78.070312 -255.324219 78.292969 -255.324219 C 78.511719 -255.324219 78.691406 -255.144531 78.691406 -254.925781 Z M 78.691406 -254.925781 " transform="matrix(1,0,0,1,4,296)"/>
<path style="fill:none;stroke-width:1;stroke-linecap:butt;stroke-linejoin:miter;stroke:rgb(74.901962%,74.901962%,74.901962%);stroke-opacity:1;stroke-miterlimit:4;" d="M 40.050781 -217.394531 C 50.007812 -217.722656 64.164062 -218.1875 74.695312 -218.53125 " transform="matrix(1,0,0,1,4,296)"/>
<path style="fill-rule:nonzero;fill:rgb(74.901962%,74.901962%,74.901962%);fill-opacity:1;stroke-width:1;stroke-linecap:butt;stroke-linejoin:miter;stroke:rgb(74.901962%,74.901962%,74.901962%);stroke-opacity:1;stroke-miterlimit:4;" d="M 75.703125 -218.550781 C 75.703125 -218.328125 75.523438 -218.152344 75.304688 -218.152344 C 75.082031 -218.152344 74.902344 -218.328125 74.902344 -218.550781 C 74.902344 -218.773438 75.082031 -218.949219 75.304688 -218.949219 C 75.523438 -218.949219 75.703125 -218.773438 75.703125 -218.550781 Z M 75.703125 -218.550781 " transform="matrix(1,0,0,1,4,296)"/>
<path style="fill-rule:nonzero;fill:rgb(49.803922%,49.803922%,49.803922%);fill-opacity:1;stroke-width:1;stroke-linecap:butt;stroke-linejoin:miter;stroke:rgb(49.803922%,49.803922%,49.803922%);stroke-opacity:1;stroke-miterlimit:4;" d="M 28.5 -102 C 28.5 -101.722656 28.277344 -101.5 28 -101.5 C 27.722656 -101.5 27.5 -101.722656 27.5 -102 C 27.5 -102.277344 27.722656 -102.5 28 -102.5 C 28.277344 -102.5 28.5 -102.277344 28.5 -102 Z M 28.5 -102 " transform="matrix(1,0,0,1,4,296)"/>
<path style="fill-rule:nonzero;fill:rgb(49.803922%,49.803922%,49.803922%);fill-opacity:1;stroke-width:1;stroke-linecap:butt;stroke-linejoin:miter;stroke:rgb(49.803922%,49.803922%,49.803922%);stroke-opacity:1;stroke-miterlimit:4;" d="M 28.5 -83 C 28.5 -82.722656 28.277344 -82.5 28 -82.5 C 27.722656 -82.5 27.5 -82.722656 27.5 -83 C 27.5 -83.277344 27.722656 -83.5 28 -83.5 C 28.277344 -83.5 28.5 -83.277344 28.5 -83 Z M 28.5 -83 " transform="matrix(1,0,0,1,4,296)"/>
<path style="fill-rule:nonzero;fill:rgb(49.803922%,49.803922%,49.803922%);fill-opacity:1;stroke-width:1;stroke-linecap:butt;stroke-linejoin:miter;stroke:rgb(49.803922%,49.803922%,49.803922%);stroke-opacity:1;stroke-miterlimit:4;" d="M 28.5 -64 C 28.5 -63.722656 28.277344 -63.5 28 -63.5 C 27.722656 -63.5 27.5 -63.722656 27.5 -64 C 27.5 -64.277344 27.722656 -64.5 28 -64.5 C 28.277344 -64.5 28.5 -64.277344 28.5 -64 Z M 28.5 -64 " transform="matrix(1,0,0,1,4,296)"/>
<path style="fill:none;stroke-width:1;stroke-linecap:butt;stroke-linejoin:miter;stroke:rgb(92.156863%,92.156863%,92.156863%);stroke-opacity:1;stroke-miterlimit:4;" d="M 101.234375 -170.304688 C 113.691406 -165.523438 131.878906 -158.539062 137.070312 -156.550781 " transform="matrix(1,0,0,1,4,296)"/>
<path style="fill-rule:nonzero;fill:rgb(92.156863%,92.156863%,92.156863%);fill-opacity:1;stroke-width:1;stroke-linecap:butt;stroke-linejoin:miter;stroke:rgb(92.156863%,92.156863%,92.156863%);stroke-opacity:1;stroke-miterlimit:4;" d="M 137.957031 -156.363281 C 137.957031 -156.140625 137.777344 -155.960938 137.554688 -155.960938 C 137.335938 -155.960938 137.15625 -156.140625 137.15625 -156.363281 C 137.15625 -156.582031 137.335938 -156.761719 137.554688 -156.761719 C 137.777344 -156.761719 137.957031 -156.582031 137.957031 -156.363281 Z M 137.957031 -156.363281 " transform="matrix(1,0,0,1,4,296)"/>
<path style="fill:none;stroke-width:1;stroke-linecap:butt;stroke-linejoin:miter;stroke:rgb(92.156863%,92.156863%,92.156863%);stroke-opacity:1;stroke-miterlimit:4;" d="M 99.496094 -166.941406 C 112.046875 -157.304688 132.015625 -141.976562 137.222656 -137.980469 " transform="matrix(1,0,0,1,4,296)"/>
<path style="fill-rule:nonzero;fill:rgb(92.156863%,92.156863%,92.156863%);fill-opacity:1;stroke-width:1;stroke-linecap:butt;stroke-linejoin:miter;stroke:rgb(92.156863%,92.156863%,92.156863%);stroke-opacity:1;stroke-miterlimit:4;" d="M 137.964844 -137.71875 C 137.964844 -137.496094 137.785156 -137.316406 137.566406 -137.316406 C 137.34375 -137.316406 137.164062 -137.496094 137.164062 -137.71875 C 137.164062 -137.9375 137.34375 -138.117188 137.566406 -138.117188 C 137.785156 -138.117188 137.964844 -137.9375 137.964844 -137.71875 Z M 137.964844 -137.71875 " transform="matrix(1,0,0,1,4,296)"/>
<path style="fill:none;stroke-width:1;stroke-linecap:butt;stroke-linejoin:miter;stroke:rgb(92.156863%,92.156863%,92.156863%);stroke-opacity:1;stroke-miterlimit:4;" d="M 99.496094 -183.058594 C 112.046875 -192.695312 132.015625 -208.023438 137.222656 -212.019531 " transform="matrix(1,0,0,1,4,296)"/>
<path style="fill-rule:nonzero;fill:rgb(92.156863%,92.156863%,92.156863%);fill-opacity:1;stroke-width:1;stroke-linecap:butt;stroke-linejoin:miter;stroke:rgb(92.156863%,92.156863%,92.156863%);stroke-opacity:1;stroke-miterlimit:4;" d="M 137.964844 -212.28125 C 137.964844 -212.0625 137.785156 -211.882812 137.566406 -211.882812 C 137.34375 -211.882812 137.164062 -212.0625 137.164062 -212.28125 C 137.164062 -212.503906 137.34375 -212.683594 137.566406 -212.683594 C 137.785156 -212.683594 137.964844 -212.503906 137.964844 -212.28125 Z M 137.964844 -212.28125 " transform="matrix(1,0,0,1,4,296)"/>
<path style="fill:none;stroke-width:1;stroke-linecap:butt;stroke-linejoin:miter;stroke:rgb(92.156863%,92.156863%,92.156863%);stroke-opacity:1;stroke-miterlimit:4;" d="M 101.234375 -179.695312 C 113.691406 -184.476562 131.878906 -191.460938 137.070312 -193.449219 " transform="matrix(1,0,0,1,4,296)"/>
<path style="fill-rule:nonzero;fill:rgb(92.156863%,92.156863%,92.156863%);fill-opacity:1;stroke-width:1;stroke-linecap:butt;stroke-linejoin:miter;stroke:rgb(92.156863%,92.156863%,92.156863%);stroke-opacity:1;stroke-miterlimit:4;" d="M 137.957031 -193.636719 C 137.957031 -193.417969 137.777344 -193.238281 137.554688 -193.238281 C 137.335938 -193.238281 137.15625 -193.417969 137.15625 -193.636719 C 137.15625 -193.859375 137.335938 -194.039062 137.554688 -194.039062 C 137.777344 -194.039062 137.957031 -193.859375 137.957031 -193.636719 Z M 137.957031 -193.636719 " transform="matrix(1,0,0,1,4,296)"/>
<path style="fill:none;stroke-width:1;stroke-linecap:butt;stroke-linejoin:miter;stroke:rgb(92.156863%,92.156863%,92.156863%);stroke-opacity:1;stroke-miterlimit:4;" d="M 102.003906 -175 C 114.464844 -175 132.097656 -175 137.117188 -175 " transform="matrix(1,0,0,1,4,296)"/>
<path style="fill-rule:nonzero;fill:rgb(92.156863%,92.156863%,92.156863%);fill-opacity:1;stroke-width:1;stroke-linecap:butt;stroke-linejoin:miter;stroke:rgb(92.156863%,92.156863%,92.156863%);stroke-opacity:1;stroke-miterlimit:4;" d="M 137.949219 -175 C 137.949219 -174.777344 137.769531 -174.601562 137.546875 -174.601562 C 137.328125 -174.601562 137.148438 -174.777344 137.148438 -175 C 137.148438 -175.222656 137.328125 -175.398438 137.546875 -175.398438 C 137.769531 -175.398438 137.949219 -175.222656 137.949219 -175 Z M 137.949219 -175 " transform="matrix(1,0,0,1,4,296)"/>
<path style="fill:none;stroke-width:1;stroke-linecap:butt;stroke-linejoin:miter;stroke:rgb(92.156863%,92.156863%,92.156863%);stroke-opacity:1;stroke-miterlimit:4;" d="M 100.730469 -136.925781 C 113.167969 -143.207031 131.734375 -152.582031 137.039062 -155.261719 " transform="matrix(1,0,0,1,4,296)"/>
<path style="fill-rule:nonzero;fill:rgb(92.156863%,92.156863%,92.156863%);fill-opacity:1;stroke-width:1;stroke-linecap:butt;stroke-linejoin:miter;stroke:rgb(92.156863%,92.156863%,92.156863%);stroke-opacity:1;stroke-miterlimit:4;" d="M 137.960938 -155.523438 C 137.960938 -155.304688 137.78125 -155.125 137.558594 -155.125 C 137.339844 -155.125 137.160156 -155.304688 137.160156 -155.523438 C 137.160156 -155.746094 137.339844 -155.925781 137.558594 -155.925781 C 137.78125 -155.925781 137.960938 -155.746094 137.960938 -155.523438 Z M 137.960938 -155.523438 " transform="matrix(1,0,0,1,4,296)"/>
<path style="fill:none;stroke-width:1;stroke-linecap:butt;stroke-linejoin:miter;stroke:rgb(92.156863%,92.156863%,92.156863%);stroke-opacity:1;stroke-miterlimit:4;" d="M 102.003906 -132.578125 C 114.464844 -134.085938 132.097656 -136.222656 137.117188 -136.832031 " transform="matrix(1,0,0,1,4,296)"/>
<path style="fill-rule:nonzero;fill:rgb(92.156863%,92.156863%,92.156863%);fill-opacity:1;stroke-width:1;stroke-linecap:butt;stroke-linejoin:miter;stroke:rgb(92.156863%,92.156863%,92.156863%);stroke-opacity:1;stroke-miterlimit:4;" d="M 137.953125 -136.886719 C 137.953125 -136.664062 137.773438 -136.484375 137.550781 -136.484375 C 137.332031 -136.484375 137.152344 -136.664062 137.152344 -136.886719 C 137.152344 -137.105469 137.332031 -137.285156 137.550781 -137.285156 C 137.773438 -137.285156 137.953125 -137.105469 137.953125 -136.886719 Z M 137.953125 -136.886719 " transform="matrix(1,0,0,1,4,296)"/>
<path style="fill:none;stroke-width:1;stroke-linecap:butt;stroke-linejoin:miter;stroke:rgb(92.156863%,92.156863%,92.156863%);stroke-opacity:1;stroke-miterlimit:4;" d="M 98.867188 -139.738281 C 102.714844 -143.527344 106.933594 -148.191406 110 -153 C 123.097656 -173.523438 116.957031 -183.441406 130 -204 C 132.09375 -207.304688 135.507812 -210.457031 137.304688 -212.007812 " transform="matrix(1,0,0,1,4,296)"/>
<path style="fill-rule:nonzero;fill:rgb(92.156863%,92.156863%,92.156863%);fill-opacity:1;stroke-width:1;stroke-linecap:butt;stroke-linejoin:miter;stroke:rgb(92.156863%,92.156863%,92.156863%);stroke-opacity:1;stroke-miterlimit:4;" d="M 138.0625 -212.308594 C 138.0625 -212.089844 137.882812 -211.910156 137.664062 -211.910156 C 137.441406 -211.910156 137.261719 -212.089844 137.261719 -212.308594 C 137.261719 -212.53125 137.441406 -212.710938 137.664062 -212.710938 C 137.882812 -212.710938 138.0625 -212.53125 138.0625 -212.308594 Z M 138.0625 -212.308594 " transform="matrix(1,0,0,1,4,296)"/>
<path style="fill:none;stroke-width:1;stroke-linecap:butt;stroke-linejoin:miter;stroke:rgb(92.156863%,92.156863%,92.156863%);stroke-opacity:1;stroke-miterlimit:4;" d="M 98.433594 -140.042969 C 102.21875 -143.878906 106.503906 -148.496094 110 -153 C 120.289062 -166.246094 119.746094 -171.726562 130 -185 C 132.390625 -188.09375 135.679688 -191.339844 137.378906 -192.953125 " transform="matrix(1,0,0,1,4,296)"/>
<path style="fill-rule:nonzero;fill:rgb(92.156863%,92.156863%,92.156863%);fill-opacity:1;stroke-width:1;stroke-linecap:butt;stroke-linejoin:miter;stroke:rgb(92.156863%,92.156863%,92.156863%);stroke-opacity:1;stroke-miterlimit:4;" d="M 138.113281 -193.269531 C 138.113281 -193.046875 137.933594 -192.867188 137.710938 -192.867188 C 137.492188 -192.867188 137.3125 -193.046875 137.3125 -193.269531 C 137.3125 -193.488281 137.492188 -193.667969 137.710938 -193.667969 C 137.933594 -193.667969 138.113281 -193.488281 138.113281 -193.269531 Z M 138.113281 -193.269531 " transform="matrix(1,0,0,1,4,296)"/>
<path style="fill:none;stroke-width:1;stroke-linecap:butt;stroke-linejoin:miter;stroke:rgb(92.156863%,92.156863%,92.156863%);stroke-opacity:1;stroke-miterlimit:4;" d="M 99.015625 -139.902344 C 111.511719 -151.007812 131.878906 -169.113281 137.195312 -173.84375 " transform="matrix(1,0,0,1,4,296)"/>
<path style="fill-rule:nonzero;fill:rgb(92.156863%,92.156863%,92.156863%);fill-opacity:1;stroke-width:1;stroke-linecap:butt;stroke-linejoin:miter;stroke:rgb(92.156863%,92.156863%,92.156863%);stroke-opacity:1;stroke-miterlimit:4;" d="M 137.96875 -174.175781 C 137.96875 -173.953125 137.792969 -173.773438 137.570312 -173.773438 C 137.351562 -173.773438 137.171875 -173.953125 137.171875 -174.175781 C 137.171875 -174.394531 137.351562 -174.574219 137.570312 -174.574219 C 137.792969 -174.574219 137.96875 -174.394531 137.96875 -174.175781 Z M 137.96875 -174.175781 " transform="matrix(1,0,0,1,4,296)"/>
<path style="fill:none;stroke-width:1;stroke-linecap:butt;stroke-linejoin:miter;stroke:rgb(92.156863%,92.156863%,92.156863%);stroke-opacity:1;stroke-miterlimit:4;" d="M 98.578125 -95.933594 C 102.382812 -99.753906 106.644531 -104.386719 110 -109 C 120.996094 -124.117188 119.445312 -130.570312 130 -146 C 132.339844 -149.421875 135.648438 -153.03125 137.367188 -154.835938 " transform="matrix(1,0,0,1,4,296)"/>
<path style="fill-rule:nonzero;fill:rgb(92.156863%,92.156863%,92.156863%);fill-opacity:1;stroke-width:1;stroke-linecap:butt;stroke-linejoin:miter;stroke:rgb(92.156863%,92.156863%,92.156863%);stroke-opacity:1;stroke-miterlimit:4;" d="M 138.121094 -155.203125 C 138.121094 -154.980469 137.941406 -154.800781 137.71875 -154.800781 C 137.5 -154.800781 137.320312 -154.980469 137.320312 -155.203125 C 137.320312 -155.421875 137.5 -155.601562 137.71875 -155.601562 C 137.941406 -155.601562 138.121094 -155.421875 138.121094 -155.203125 Z M 138.121094 -155.203125 " transform="matrix(1,0,0,1,4,296)"/>
<path style="fill:none;stroke-width:1;stroke-linecap:butt;stroke-linejoin:miter;stroke:rgb(92.156863%,92.156863%,92.156863%);stroke-opacity:1;stroke-miterlimit:4;" d="M 98.542969 -96.640625 C 110.96875 -109.191406 131.742188 -130.171875 137.167969 -135.65625 " transform="matrix(1,0,0,1,4,296)"/>
<path style="fill-rule:nonzero;fill:rgb(92.156863%,92.156863%,92.156863%);fill-opacity:1;stroke-width:1;stroke-linecap:butt;stroke-linejoin:miter;stroke:rgb(92.156863%,92.156863%,92.156863%);stroke-opacity:1;stroke-miterlimit:4;" d="M 137.972656 -136.066406 C 137.972656 -135.84375 137.796875 -135.664062 137.574219 -135.664062 C 137.355469 -135.664062 137.175781 -135.84375 137.175781 -136.066406 C 137.175781 -136.285156 137.355469 -136.464844 137.574219 -136.464844 C 137.796875 -136.464844 137.972656 -136.285156 137.972656 -136.066406 Z M 137.972656 -136.066406 " transform="matrix(1,0,0,1,4,296)"/>
<path style="fill:none;stroke-width:1;stroke-linecap:butt;stroke-linejoin:miter;stroke:rgb(92.156863%,92.156863%,92.156863%);stroke-opacity:1;stroke-miterlimit:4;" d="M 99.277344 -95.5 C 103.191406 -99.25 107.34375 -103.953125 110 -109 C 130.109375 -147.175781 109.992188 -165.769531 130 -204 C 131.8125 -207.464844 135.34375 -210.550781 137.234375 -212.046875 " transform="matrix(1,0,0,1,4,296)"/>
<path style="fill-rule:nonzero;fill:rgb(92.156863%,92.156863%,92.156863%);fill-opacity:1;stroke-width:1;stroke-linecap:butt;stroke-linejoin:miter;stroke:rgb(92.156863%,92.156863%,92.156863%);stroke-opacity:1;stroke-miterlimit:4;" d="M 138.015625 -212.34375 C 138.015625 -212.121094 137.839844 -211.941406 137.617188 -211.941406 C 137.398438 -211.941406 137.21875 -212.121094 137.21875 -212.34375 C 137.21875 -212.5625 137.398438 -212.742188 137.617188 -212.742188 C 137.839844 -212.742188 138.015625 -212.5625 138.015625 -212.34375 Z M 138.015625 -212.34375 " transform="matrix(1,0,0,1,4,296)"/>
<path style="fill:none;stroke-width:1;stroke-linecap:butt;stroke-linejoin:miter;stroke:rgb(92.156863%,92.156863%,92.156863%);stroke-opacity:1;stroke-miterlimit:4;" d="M 99.152344 -95.566406 C 103.046875 -99.328125 107.21875 -104.023438 110 -109 C 127.042969 -139.488281 113.039062 -154.46875 130 -185 C 131.898438 -188.417969 135.394531 -191.527344 137.257812 -193.035156 " transform="matrix(1,0,0,1,4,296)"/>
<path style="fill-rule:nonzero;fill:rgb(92.156863%,92.156863%,92.156863%);fill-opacity:1;stroke-width:1;stroke-linecap:butt;stroke-linejoin:miter;stroke:rgb(92.156863%,92.156863%,92.156863%);stroke-opacity:1;stroke-miterlimit:4;" d="M 138.03125 -193.332031 C 138.03125 -193.113281 137.851562 -192.933594 137.632812 -192.933594 C 137.410156 -192.933594 137.230469 -193.113281 137.230469 -193.332031 C 137.230469 -193.554688 137.410156 -193.734375 137.632812 -193.734375 C 137.851562 -193.734375 138.03125 -193.554688 138.03125 -193.332031 Z M 138.03125 -193.332031 " transform="matrix(1,0,0,1,4,296)"/>
<path style="fill:none;stroke-width:1;stroke-linecap:butt;stroke-linejoin:miter;stroke:rgb(92.156863%,92.156863%,92.156863%);stroke-opacity:1;stroke-miterlimit:4;" d="M 98.941406 -95.691406 C 102.800781 -99.472656 107.007812 -104.144531 110 -109 C 123.871094 -131.496094 116.78125 -142.113281 130 -165 C 132.074219 -168.589844 135.496094 -172.128906 137.300781 -173.875 " transform="matrix(1,0,0,1,4,296)"/>
<path style="fill-rule:nonzero;fill:rgb(92.156863%,92.156863%,92.156863%);fill-opacity:1;stroke-width:1;stroke-linecap:butt;stroke-linejoin:miter;stroke:rgb(92.156863%,92.156863%,92.156863%);stroke-opacity:1;stroke-miterlimit:4;" d="M 138.074219 -174.234375 C 138.074219 -174.011719 137.898438 -173.835938 137.675781 -173.835938 C 137.453125 -173.835938 137.277344 -174.011719 137.277344 -174.234375 C 137.277344 -174.457031 137.453125 -174.632812 137.675781 -174.632812 C 137.898438 -174.632812 138.074219 -174.457031 138.074219 -174.234375 Z M 138.074219 -174.234375 " transform="matrix(1,0,0,1,4,296)"/>
<path style="fill:none;stroke-width:1;stroke-linecap:butt;stroke-linejoin:miter;stroke:rgb(92.156863%,92.156863%,92.156863%);stroke-opacity:1;stroke-miterlimit:4;" d="M 99.152344 -254.433594 C 103.046875 -250.671875 107.21875 -245.976562 110 -241 C 127.042969 -210.511719 113.039062 -195.53125 130 -165 C 131.898438 -161.582031 135.394531 -158.472656 137.257812 -156.964844 " transform="matrix(1,0,0,1,4,296)"/>
<path style="fill-rule:nonzero;fill:rgb(92.156863%,92.156863%,92.156863%);fill-opacity:1;stroke-width:1;stroke-linecap:butt;stroke-linejoin:miter;stroke:rgb(92.156863%,92.156863%,92.156863%);stroke-opacity:1;stroke-miterlimit:4;" d="M 138.03125 -156.667969 C 138.03125 -156.445312 137.851562 -156.265625 137.632812 -156.265625 C 137.410156 -156.265625 137.230469 -156.445312 137.230469 -156.667969 C 137.230469 -156.886719 137.410156 -157.066406 137.632812 -157.066406 C 137.851562 -157.066406 138.03125 -156.886719 138.03125 -156.667969 Z M 138.03125 -156.667969 " transform="matrix(1,0,0,1,4,296)"/>
<path style="fill:none;stroke-width:1;stroke-linecap:butt;stroke-linejoin:miter;stroke:rgb(92.156863%,92.156863%,92.156863%);stroke-opacity:1;stroke-miterlimit:4;" d="M 99.277344 -254.5 C 103.191406 -250.75 107.34375 -246.046875 110 -241 C 130.109375 -202.824219 109.992188 -184.230469 130 -146 C 131.8125 -142.535156 135.34375 -139.449219 137.234375 -137.953125 " transform="matrix(1,0,0,1,4,296)"/>
<path style="fill-rule:nonzero;fill:rgb(92.156863%,92.156863%,92.156863%);fill-opacity:1;stroke-width:1;stroke-linecap:butt;stroke-linejoin:miter;stroke:rgb(92.156863%,92.156863%,92.156863%);stroke-opacity:1;stroke-miterlimit:4;" d="M 138.015625 -137.65625 C 138.015625 -137.4375 137.839844 -137.257812 137.617188 -137.257812 C 137.398438 -137.257812 137.21875 -137.4375 137.21875 -137.65625 C 137.21875 -137.878906 137.398438 -138.058594 137.617188 -138.058594 C 137.839844 -138.058594 138.015625 -137.878906 138.015625 -137.65625 Z M 138.015625 -137.65625 " transform="matrix(1,0,0,1,4,296)"/>
<path style="fill:none;stroke-width:1;stroke-linecap:butt;stroke-linejoin:miter;stroke:rgb(92.156863%,92.156863%,92.156863%);stroke-opacity:1;stroke-miterlimit:4;" d="M 98.542969 -253.359375 C 110.96875 -240.808594 131.742188 -219.828125 137.167969 -214.34375 " transform="matrix(1,0,0,1,4,296)"/>
<path style="fill-rule:nonzero;fill:rgb(92.156863%,92.156863%,92.156863%);fill-opacity:1;stroke-width:1;stroke-linecap:butt;stroke-linejoin:miter;stroke:rgb(92.156863%,92.156863%,92.156863%);stroke-opacity:1;stroke-miterlimit:4;" d="M 137.972656 -213.933594 C 137.972656 -213.714844 137.796875 -213.535156 137.574219 -213.535156 C 137.355469 -213.535156 137.175781 -213.714844 137.175781 -213.933594 C 137.175781 -214.15625 137.355469 -214.335938 137.574219 -214.335938 C 137.796875 -214.335938 137.972656 -214.15625 137.972656 -213.933594 Z M 137.972656 -213.933594 " transform="matrix(1,0,0,1,4,296)"/>
<path style="fill:none;stroke-width:1;stroke-linecap:butt;stroke-linejoin:miter;stroke:rgb(92.156863%,92.156863%,92.156863%);stroke-opacity:1;stroke-miterlimit:4;" d="M 98.578125 -254.066406 C 102.382812 -250.246094 106.644531 -245.613281 110 -241 C 120.996094 -225.882812 119.445312 -219.429688 130 -204 C 132.339844 -200.578125 135.648438 -196.96875 137.367188 -195.164062 " transform="matrix(1,0,0,1,4,296)"/>
<path style="fill-rule:nonzero;fill:rgb(92.156863%,92.156863%,92.156863%);fill-opacity:1;stroke-width:1;stroke-linecap:butt;stroke-linejoin:miter;stroke:rgb(92.156863%,92.156863%,92.156863%);stroke-opacity:1;stroke-miterlimit:4;" d="M 138.121094 -194.796875 C 138.121094 -194.578125 137.941406 -194.398438 137.71875 -194.398438 C 137.5 -194.398438 137.320312 -194.578125 137.320312 -194.796875 C 137.320312 -195.019531 137.5 -195.199219 137.71875 -195.199219 C 137.941406 -195.199219 138.121094 -195.019531 138.121094 -194.796875 Z M 138.121094 -194.796875 " transform="matrix(1,0,0,1,4,296)"/>
<path style="fill:none;stroke-width:1;stroke-linecap:butt;stroke-linejoin:miter;stroke:rgb(92.156863%,92.156863%,92.156863%);stroke-opacity:1;stroke-miterlimit:4;" d="M 98.941406 -254.308594 C 102.800781 -250.527344 107.007812 -245.855469 110 -241 C 123.871094 -218.503906 116.78125 -207.886719 130 -185 C 132.074219 -181.410156 135.496094 -177.871094 137.300781 -176.125 " transform="matrix(1,0,0,1,4,296)"/>
<path style="fill-rule:nonzero;fill:rgb(92.156863%,92.156863%,92.156863%);fill-opacity:1;stroke-width:1;stroke-linecap:butt;stroke-linejoin:miter;stroke:rgb(92.156863%,92.156863%,92.156863%);stroke-opacity:1;stroke-miterlimit:4;" d="M 138.074219 -175.765625 C 138.074219 -175.542969 137.898438 -175.367188 137.675781 -175.367188 C 137.453125 -175.367188 137.277344 -175.542969 137.277344 -175.765625 C 137.277344 -175.988281 137.453125 -176.164062 137.675781 -176.164062 C 137.898438 -176.164062 138.074219 -175.988281 138.074219 -175.765625 Z M 138.074219 -175.765625 " transform="matrix(1,0,0,1,4,296)"/>
<path style="fill:none;stroke-width:1;stroke-linecap:butt;stroke-linejoin:miter;stroke:rgb(92.156863%,92.156863%,92.156863%);stroke-opacity:1;stroke-miterlimit:4;" d="M 98.433594 -209.957031 C 102.21875 -206.121094 106.503906 -201.503906 110 -197 C 120.289062 -183.753906 119.746094 -178.273438 130 -165 C 132.390625 -161.90625 135.679688 -158.660156 137.378906 -157.046875 " transform="matrix(1,0,0,1,4,296)"/>
<path style="fill-rule:nonzero;fill:rgb(92.156863%,92.156863%,92.156863%);fill-opacity:1;stroke-width:1;stroke-linecap:butt;stroke-linejoin:miter;stroke:rgb(92.156863%,92.156863%,92.156863%);stroke-opacity:1;stroke-miterlimit:4;" d="M 138.113281 -156.730469 C 138.113281 -156.511719 137.933594 -156.332031 137.710938 -156.332031 C 137.492188 -156.332031 137.3125 -156.511719 137.3125 -156.730469 C 137.3125 -156.953125 137.492188 -157.132812 137.710938 -157.132812 C 137.933594 -157.132812 138.113281 -156.953125 138.113281 -156.730469 Z M 138.113281 -156.730469 " transform="matrix(1,0,0,1,4,296)"/>
<path style="fill:none;stroke-width:1;stroke-linecap:butt;stroke-linejoin:miter;stroke:rgb(92.156863%,92.156863%,92.156863%);stroke-opacity:1;stroke-miterlimit:4;" d="M 98.867188 -210.261719 C 102.714844 -206.472656 106.933594 -201.808594 110 -197 C 123.097656 -176.476562 116.957031 -166.558594 130 -146 C 132.09375 -142.695312 135.507812 -139.542969 137.304688 -137.992188 " transform="matrix(1,0,0,1,4,296)"/>
<path style="fill-rule:nonzero;fill:rgb(92.156863%,92.156863%,92.156863%);fill-opacity:1;stroke-width:1;stroke-linecap:butt;stroke-linejoin:miter;stroke:rgb(92.156863%,92.156863%,92.156863%);stroke-opacity:1;stroke-miterlimit:4;" d="M 138.0625 -137.691406 C 138.0625 -137.46875 137.882812 -137.289062 137.664062 -137.289062 C 137.441406 -137.289062 137.261719 -137.46875 137.261719 -137.691406 C 137.261719 -137.910156 137.441406 -138.089844 137.664062 -138.089844 C 137.882812 -138.089844 138.0625 -137.910156 138.0625 -137.691406 Z M 138.0625 -137.691406 " transform="matrix(1,0,0,1,4,296)"/>
<path style="fill:none;stroke-width:1;stroke-linecap:butt;stroke-linejoin:miter;stroke:rgb(92.156863%,92.156863%,92.156863%);stroke-opacity:1;stroke-miterlimit:4;" d="M 102.003906 -217.421875 C 114.464844 -215.914062 132.097656 -213.777344 137.117188 -213.167969 " transform="matrix(1,0,0,1,4,296)"/>
<path style="fill-rule:nonzero;fill:rgb(92.156863%,92.156863%,92.156863%);fill-opacity:1;stroke-width:1;stroke-linecap:butt;stroke-linejoin:miter;stroke:rgb(92.156863%,92.156863%,92.156863%);stroke-opacity:1;stroke-miterlimit:4;" d="M 137.953125 -213.113281 C 137.953125 -212.894531 137.773438 -212.714844 137.550781 -212.714844 C 137.332031 -212.714844 137.152344 -212.894531 137.152344 -213.113281 C 137.152344 -213.335938 137.332031 -213.515625 137.550781 -213.515625 C 137.773438 -213.515625 137.953125 -213.335938 137.953125 -213.113281 Z M 137.953125 -213.113281 " transform="matrix(1,0,0,1,4,296)"/>
<path style="fill:none;stroke-width:1;stroke-linecap:butt;stroke-linejoin:miter;stroke:rgb(92.156863%,92.156863%,92.156863%);stroke-opacity:1;stroke-miterlimit:4;" d="M 100.730469 -213.074219 C 113.167969 -206.792969 131.734375 -197.417969 137.039062 -194.738281 " transform="matrix(1,0,0,1,4,296)"/>
<path style="fill-rule:nonzero;fill:rgb(92.156863%,92.156863%,92.156863%);fill-opacity:1;stroke-width:1;stroke-linecap:butt;stroke-linejoin:miter;stroke:rgb(92.156863%,92.156863%,92.156863%);stroke-opacity:1;stroke-miterlimit:4;" d="M 137.960938 -194.476562 C 137.960938 -194.253906 137.78125 -194.074219 137.558594 -194.074219 C 137.339844 -194.074219 137.160156 -194.253906 137.160156 -194.476562 C 137.160156 -194.695312 137.339844 -194.875 137.558594 -194.875 C 137.78125 -194.875 137.960938 -194.695312 137.960938 -194.476562 Z M 137.960938 -194.476562 " transform="matrix(1,0,0,1,4,296)"/>
<path style="fill:none;stroke-width:1;stroke-linecap:butt;stroke-linejoin:miter;stroke:rgb(92.156863%,92.156863%,92.156863%);stroke-opacity:1;stroke-miterlimit:4;" d="M 99.015625 -210.097656 C 111.511719 -198.992188 131.878906 -180.886719 137.195312 -176.15625 " transform="matrix(1,0,0,1,4,296)"/>
<path style="fill-rule:nonzero;fill:rgb(92.156863%,92.156863%,92.156863%);fill-opacity:1;stroke-width:1;stroke-linecap:butt;stroke-linejoin:miter;stroke:rgb(92.156863%,92.156863%,92.156863%);stroke-opacity:1;stroke-miterlimit:4;" d="M 137.96875 -175.824219 C 137.96875 -175.605469 137.792969 -175.425781 137.570312 -175.425781 C 137.351562 -175.425781 137.171875 -175.605469 137.171875 -175.824219 C 137.171875 -176.046875 137.351562 -176.226562 137.570312 -176.226562 C 137.792969 -176.226562 137.96875 -176.046875 137.96875 -175.824219 Z M 137.96875 -175.824219 " transform="matrix(1,0,0,1,4,296)"/>
<path style="fill-rule:nonzero;fill:rgb(49.803922%,49.803922%,49.803922%);fill-opacity:1;stroke-width:1;stroke-linecap:butt;stroke-linejoin:miter;stroke:rgb(49.803922%,49.803922%,49.803922%);stroke-opacity:1;stroke-miterlimit:4;" d="M 89.5 -55 C 89.5 -54.722656 89.277344 -54.5 89 -54.5 C 88.722656 -54.5 88.5 -54.722656 88.5 -55 C 88.5 -55.277344 88.722656 -55.5 89 -55.5 C 89.277344 -55.5 89.5 -55.277344 89.5 -55 Z M 89.5 -55 " transform="matrix(1,0,0,1,4,296)"/>
<path style="fill-rule:nonzero;fill:rgb(49.803922%,49.803922%,49.803922%);fill-opacity:1;stroke-width:1;stroke-linecap:butt;stroke-linejoin:miter;stroke:rgb(49.803922%,49.803922%,49.803922%);stroke-opacity:1;stroke-miterlimit:4;" d="M 89.5 -36 C 89.5 -35.722656 89.277344 -35.5 89 -35.5 C 88.722656 -35.5 88.5 -35.722656 88.5 -36 C 88.5 -36.277344 88.722656 -36.5 89 -36.5 C 89.277344 -36.5 89.5 -36.277344 89.5 -36 Z M 89.5 -36 " transform="matrix(1,0,0,1,4,296)"/>
<path style="fill-rule:nonzero;fill:rgb(49.803922%,49.803922%,49.803922%);fill-opacity:1;stroke-width:1;stroke-linecap:butt;stroke-linejoin:miter;stroke:rgb(49.803922%,49.803922%,49.803922%);stroke-opacity:1;stroke-miterlimit:4;" d="M 89.5 -17 C 89.5 -16.722656 89.277344 -16.5 89 -16.5 C 88.722656 -16.5 88.5 -16.722656 88.5 -17 C 88.5 -17.277344 88.722656 -17.5 89 -17.5 C 89.277344 -17.5 89.5 -17.277344 89.5 -17 Z M 89.5 -17 " transform="matrix(1,0,0,1,4,296)"/>
<path style="fill:none;stroke-width:1;stroke-linecap:butt;stroke-linejoin:miter;stroke:rgb(33.725491%,70.588237%,91.37255%);stroke-opacity:0.501961;stroke-dasharray:5,2;stroke-miterlimit:4;" d="M 308 -175 C 308 -170.03125 303.96875 -166 299 -166 C 294.03125 -166 290 -170.03125 290 -175 C 290 -179.96875 294.03125 -184 299 -184 C 303.96875 -184 308 -179.96875 308 -175 Z M 308 -175 " transform="matrix(1,0,0,1,4,296)"/>
<path style="fill:none;stroke-width:1;stroke-linecap:butt;stroke-linejoin:miter;stroke:rgb(33.725491%,70.588237%,91.37255%);stroke-opacity:0.501961;stroke-dasharray:5,2;stroke-miterlimit:4;" d="M 312 -175 C 312 -167.820312 306.179688 -162 299 -162 C 291.820312 -162 286 -167.820312 286 -175 C 286 -182.179688 291.820312 -188 299 -188 C 306.179688 -188 312 -182.179688 312 -175 Z M 312 -175 " transform="matrix(1,0,0,1,4,296)"/>
<path style="fill:none;stroke-width:1;stroke-linecap:butt;stroke-linejoin:miter;stroke:rgb(92.156863%,92.156863%,92.156863%);stroke-opacity:1;stroke-miterlimit:4;" d="M 250.054688 -137.425781 C 253.609375 -140.152344 273.398438 -155.347656 286.703125 -165.558594 " transform="matrix(1,0,0,1,4,296)"/>
<path style="fill-rule:nonzero;fill:rgb(92.156863%,92.156863%,92.156863%);fill-opacity:1;stroke-width:1;stroke-linecap:butt;stroke-linejoin:miter;stroke:rgb(92.156863%,92.156863%,92.156863%);stroke-opacity:1;stroke-miterlimit:4;" d="M 288.496094 -166.167969 C 288.496094 -165.617188 288.046875 -165.167969 287.496094 -165.167969 C 286.945312 -165.167969 286.496094 -165.617188 286.496094 -166.167969 C 286.496094 -166.722656 286.945312 -167.167969 287.496094 -167.167969 C 288.046875 -167.167969 288.496094 -166.722656 288.496094 -166.167969 Z M 288.496094 -166.167969 " transform="matrix(1,0,0,1,4,296)"/>
<path style="fill:none;stroke-width:1;stroke-linecap:butt;stroke-linejoin:miter;stroke:rgb(33.725491%,70.588237%,91.37255%);stroke-opacity:0.501961;stroke-dasharray:5,2;stroke-miterlimit:4;" d="M 308 -131 C 308 -126.03125 303.96875 -122 299 -122 C 294.03125 -122 290 -126.03125 290 -131 C 290 -135.96875 294.03125 -140 299 -140 C 303.96875 -140 308 -135.96875 308 -131 Z M 308 -131 " transform="matrix(1,0,0,1,4,296)"/>
<path style="fill:none;stroke-width:1;stroke-linecap:butt;stroke-linejoin:miter;stroke:rgb(33.725491%,70.588237%,91.37255%);stroke-opacity:0.501961;stroke-dasharray:5,2;stroke-miterlimit:4;" d="M 312 -131 C 312 -123.820312 306.179688 -118 299 -118 C 291.820312 -118 286 -123.820312 286 -131 C 286 -138.179688 291.820312 -144 299 -144 C 306.179688 -144 312 -138.179688 312 -131 Z M 312 -131 " transform="matrix(1,0,0,1,4,296)"/>
<path style="fill:none;stroke-width:1;stroke-linecap:butt;stroke-linejoin:miter;stroke:rgb(92.156863%,92.156863%,92.156863%);stroke-opacity:1;stroke-miterlimit:4;" d="M 250.054688 -136.933594 C 253.347656 -136.535156 270.601562 -134.441406 283.703125 -132.855469 " transform="matrix(1,0,0,1,4,296)"/>
<path style="fill-rule:nonzero;fill:rgb(92.156863%,92.156863%,92.156863%);fill-opacity:1;stroke-width:1;stroke-linecap:butt;stroke-linejoin:miter;stroke:rgb(92.156863%,92.156863%,92.156863%);stroke-opacity:1;stroke-miterlimit:4;" d="M 285.9375 -132.703125 C 285.9375 -132.152344 285.488281 -131.703125 284.9375 -131.703125 C 284.382812 -131.703125 283.9375 -132.152344 283.9375 -132.703125 C 283.9375 -133.257812 284.382812 -133.703125 284.9375 -133.703125 C 285.488281 -133.703125 285.9375 -133.257812 285.9375 -132.703125 Z M 285.9375 -132.703125 " transform="matrix(1,0,0,1,4,296)"/>
<path style="fill:none;stroke-width:1;stroke-linecap:butt;stroke-linejoin:miter;stroke:rgb(33.725491%,70.588237%,91.37255%);stroke-opacity:0.501961;stroke-dasharray:5,2;stroke-miterlimit:4;" d="M 308 -87 C 308 -82.03125 303.96875 -78 299 -78 C 294.03125 -78 290 -82.03125 290 -87 C 290 -91.96875 294.03125 -96 299 -96 C 303.96875 -96 308 -91.96875 308 -87 Z M 308 -87 " transform="matrix(1,0,0,1,4,296)"/>
<path style="fill:none;stroke-width:1;stroke-linecap:butt;stroke-linejoin:miter;stroke:rgb(33.725491%,70.588237%,91.37255%);stroke-opacity:0.501961;stroke-dasharray:5,2;stroke-miterlimit:4;" d="M 312 -87 C 312 -79.820312 306.179688 -74 299 -74 C 291.820312 -74 286 -79.820312 286 -87 C 286 -94.179688 291.820312 -100 299 -100 C 306.179688 -100 312 -94.179688 312 -87 Z M 312 -87 " transform="matrix(1,0,0,1,4,296)"/>
<path style="fill:none;stroke-width:1;stroke-linecap:butt;stroke-linejoin:miter;stroke:rgb(92.156863%,92.156863%,92.156863%);stroke-opacity:1;stroke-miterlimit:4;" d="M 250.054688 -136.4375 C 253.730469 -132.726562 274.78125 -111.460938 288.054688 -98.058594 " transform="matrix(1,0,0,1,4,296)"/>
<path style="fill-rule:nonzero;fill:rgb(92.156863%,92.156863%,92.156863%);fill-opacity:1;stroke-width:1;stroke-linecap:butt;stroke-linejoin:miter;stroke:rgb(92.156863%,92.156863%,92.156863%);stroke-opacity:1;stroke-miterlimit:4;" d="M 289.925781 -97.175781 C 289.925781 -96.621094 289.480469 -96.175781 288.925781 -96.175781 C 288.375 -96.175781 287.925781 -96.621094 287.925781 -97.175781 C 287.925781 -97.726562 288.375 -98.175781 288.925781 -98.175781 C 289.480469 -98.175781 289.925781 -97.726562 289.925781 -97.175781 Z M 289.925781 -97.175781 " transform="matrix(1,0,0,1,4,296)"/>
<path style="fill:none;stroke-width:1;stroke-linecap:butt;stroke-linejoin:miter;stroke:rgb(33.725491%,70.588237%,91.37255%);stroke-opacity:0.501961;stroke-dasharray:5,2;stroke-miterlimit:4;" d="M 308 -263 C 308 -258.03125 303.96875 -254 299 -254 C 294.03125 -254 290 -258.03125 290 -263 C 290 -267.96875 294.03125 -272 299 -272 C 303.96875 -272 308 -267.96875 308 -263 Z M 308 -263 " transform="matrix(1,0,0,1,4,296)"/>
<path style="fill:none;stroke-width:1;stroke-linecap:butt;stroke-linejoin:miter;stroke:rgb(33.725491%,70.588237%,91.37255%);stroke-opacity:0.501961;stroke-dasharray:5,2;stroke-miterlimit:4;" d="M 312 -263 C 312 -255.820312 306.179688 -250 299 -250 C 291.820312 -250 286 -255.820312 286 -263 C 286 -270.179688 291.820312 -276 299 -276 C 306.179688 -276 312 -270.179688 312 -263 Z M 312 -263 " transform="matrix(1,0,0,1,4,296)"/>
<path style="fill:none;stroke-width:1;stroke-linecap:butt;stroke-linejoin:miter;stroke:rgb(92.156863%,92.156863%,92.156863%);stroke-opacity:1;stroke-miterlimit:4;" d="M 250.066406 -137.414062 C 251.609375 -138.574219 255.925781 -142.039062 258 -146 C 278.007812 -184.230469 257.890625 -202.824219 278 -241 C 280.324219 -245.414062 283.796875 -249.566406 287.25 -253.050781 " transform="matrix(1,0,0,1,4,296)"/>
<path style="fill-rule:nonzero;fill:rgb(92.156863%,92.156863%,92.156863%);fill-opacity:1;stroke-width:1;stroke-linecap:butt;stroke-linejoin:miter;stroke:rgb(92.156863%,92.156863%,92.156863%);stroke-opacity:1;stroke-miterlimit:4;" d="M 289.011719 -253.800781 C 289.011719 -253.25 288.5625 -252.800781 288.011719 -252.800781 C 287.457031 -252.800781 287.011719 -253.25 287.011719 -253.800781 C 287.011719 -254.351562 287.457031 -254.800781 288.011719 -254.800781 C 288.5625 -254.800781 289.011719 -254.351562 289.011719 -253.800781 Z M 289.011719 -253.800781 " transform="matrix(1,0,0,1,4,296)"/>
<path style="fill:none;stroke-width:1;stroke-linecap:butt;stroke-linejoin:miter;stroke:rgb(33.725491%,70.588237%,91.37255%);stroke-opacity:0.501961;stroke-dasharray:5,2;stroke-miterlimit:4;" d="M 308 -219 C 308 -214.03125 303.96875 -210 299 -210 C 294.03125 -210 290 -214.03125 290 -219 C 290 -223.96875 294.03125 -228 299 -228 C 303.96875 -228 308 -223.96875 308 -219 Z M 308 -219 " transform="matrix(1,0,0,1,4,296)"/>
<path style="fill:none;stroke-width:1;stroke-linecap:butt;stroke-linejoin:miter;stroke:rgb(33.725491%,70.588237%,91.37255%);stroke-opacity:0.501961;stroke-dasharray:5,2;stroke-miterlimit:4;" d="M 312 -219 C 312 -211.820312 306.179688 -206 299 -206 C 291.820312 -206 286 -211.820312 286 -219 C 286 -226.179688 291.820312 -232 299 -232 C 306.179688 -232 312 -226.179688 312 -219 Z M 312 -219 " transform="matrix(1,0,0,1,4,296)"/>
<path style="fill:none;stroke-width:1;stroke-linecap:butt;stroke-linejoin:miter;stroke:rgb(92.156863%,92.156863%,92.156863%);stroke-opacity:1;stroke-miterlimit:4;" d="M 250.03125 -137.433594 C 251.492188 -138.644531 255.605469 -142.226562 258 -146 C 271.042969 -166.558594 264.902344 -176.476562 278 -197 C 280.683594 -201.207031 284.246094 -205.304688 287.675781 -208.800781 " transform="matrix(1,0,0,1,4,296)"/>
<path style="fill-rule:nonzero;fill:rgb(92.156863%,92.156863%,92.156863%);fill-opacity:1;stroke-width:1;stroke-linecap:butt;stroke-linejoin:miter;stroke:rgb(92.156863%,92.156863%,92.156863%);stroke-opacity:1;stroke-miterlimit:4;" d="M 289.429688 -209.554688 C 289.429688 -209.003906 288.980469 -208.554688 288.429688 -208.554688 C 287.875 -208.554688 287.429688 -209.003906 287.429688 -209.554688 C 287.429688 -210.109375 287.875 -210.554688 288.429688 -210.554688 C 288.980469 -210.554688 289.429688 -210.109375 289.429688 -209.554688 Z M 289.429688 -209.554688 " transform="matrix(1,0,0,1,4,296)"/>
<path style="fill:none;stroke-width:1;stroke-linecap:butt;stroke-linejoin:miter;stroke:rgb(92.156863%,92.156863%,92.156863%);stroke-opacity:1;stroke-miterlimit:4;" d="M 250.054688 -212.574219 C 253.609375 -209.847656 273.398438 -194.652344 286.703125 -184.441406 " transform="matrix(1,0,0,1,4,296)"/>
<path style="fill-rule:nonzero;fill:rgb(92.156863%,92.156863%,92.156863%);fill-opacity:1;stroke-width:1;stroke-linecap:butt;stroke-linejoin:miter;stroke:rgb(92.156863%,92.156863%,92.156863%);stroke-opacity:1;stroke-miterlimit:4;" d="M 288.496094 -183.832031 C 288.496094 -183.277344 288.046875 -182.832031 287.496094 -182.832031 C 286.945312 -182.832031 286.496094 -183.277344 286.496094 -183.832031 C 286.496094 -184.382812 286.945312 -184.832031 287.496094 -184.832031 C 288.046875 -184.832031 288.496094 -184.382812 288.496094 -183.832031 Z M 288.496094 -183.832031 " transform="matrix(1,0,0,1,4,296)"/>
<path style="fill:none;stroke-width:1;stroke-linecap:butt;stroke-linejoin:miter;stroke:rgb(92.156863%,92.156863%,92.156863%);stroke-opacity:1;stroke-miterlimit:4;" d="M 250.03125 -212.566406 C 251.492188 -211.355469 255.605469 -207.773438 258 -204 C 271.042969 -183.441406 264.902344 -173.523438 278 -153 C 280.683594 -148.792969 284.246094 -144.695312 287.675781 -141.199219 " transform="matrix(1,0,0,1,4,296)"/>
<path style="fill-rule:nonzero;fill:rgb(92.156863%,92.156863%,92.156863%);fill-opacity:1;stroke-width:1;stroke-linecap:butt;stroke-linejoin:miter;stroke:rgb(92.156863%,92.156863%,92.156863%);stroke-opacity:1;stroke-miterlimit:4;" d="M 289.429688 -140.445312 C 289.429688 -139.890625 288.980469 -139.445312 288.429688 -139.445312 C 287.875 -139.445312 287.429688 -139.890625 287.429688 -140.445312 C 287.429688 -140.996094 287.875 -141.445312 288.429688 -141.445312 C 288.980469 -141.445312 289.429688 -140.996094 289.429688 -140.445312 Z M 289.429688 -140.445312 " transform="matrix(1,0,0,1,4,296)"/>
<path style="fill:none;stroke-width:1;stroke-linecap:butt;stroke-linejoin:miter;stroke:rgb(92.156863%,92.156863%,92.156863%);stroke-opacity:1;stroke-miterlimit:4;" d="M 250.066406 -212.585938 C 251.609375 -211.425781 255.925781 -207.960938 258 -204 C 278.007812 -165.769531 257.890625 -147.175781 278 -109 C 280.324219 -104.585938 283.796875 -100.433594 287.25 -96.949219 " transform="matrix(1,0,0,1,4,296)"/>
<path style="fill-rule:nonzero;fill:rgb(92.156863%,92.156863%,92.156863%);fill-opacity:1;stroke-width:1;stroke-linecap:butt;stroke-linejoin:miter;stroke:rgb(92.156863%,92.156863%,92.156863%);stroke-opacity:1;stroke-miterlimit:4;" d="M 289.011719 -96.199219 C 289.011719 -95.648438 288.5625 -95.199219 288.011719 -95.199219 C 287.457031 -95.199219 287.011719 -95.648438 287.011719 -96.199219 C 287.011719 -96.75 287.457031 -97.199219 288.011719 -97.199219 C 288.5625 -97.199219 289.011719 -96.75 289.011719 -96.199219 Z M 289.011719 -96.199219 " transform="matrix(1,0,0,1,4,296)"/>
<path style="fill:none;stroke-width:1;stroke-linecap:butt;stroke-linejoin:miter;stroke:rgb(92.156863%,92.156863%,92.156863%);stroke-opacity:1;stroke-miterlimit:4;" d="M 250.054688 -213.5625 C 253.730469 -217.273438 274.78125 -238.539062 288.054688 -251.941406 " transform="matrix(1,0,0,1,4,296)"/>
<path style="fill-rule:nonzero;fill:rgb(92.156863%,92.156863%,92.156863%);fill-opacity:1;stroke-width:1;stroke-linecap:butt;stroke-linejoin:miter;stroke:rgb(92.156863%,92.156863%,92.156863%);stroke-opacity:1;stroke-miterlimit:4;" d="M 289.925781 -252.824219 C 289.925781 -252.273438 289.480469 -251.824219 288.925781 -251.824219 C 288.375 -251.824219 287.925781 -252.273438 287.925781 -252.824219 C 287.925781 -253.378906 288.375 -253.824219 288.925781 -253.824219 C 289.480469 -253.824219 289.925781 -253.378906 289.925781 -252.824219 Z M 289.925781 -252.824219 " transform="matrix(1,0,0,1,4,296)"/>
<path style="fill:none;stroke-width:1;stroke-linecap:butt;stroke-linejoin:miter;stroke:rgb(92.156863%,92.156863%,92.156863%);stroke-opacity:1;stroke-miterlimit:4;" d="M 250.054688 -213.066406 C 253.347656 -213.464844 270.601562 -215.558594 283.703125 -217.144531 " transform="matrix(1,0,0,1,4,296)"/>
<path style="fill-rule:nonzero;fill:rgb(92.156863%,92.156863%,92.156863%);fill-opacity:1;stroke-width:1;stroke-linecap:butt;stroke-linejoin:miter;stroke:rgb(92.156863%,92.156863%,92.156863%);stroke-opacity:1;stroke-miterlimit:4;" d="M 285.9375 -217.296875 C 285.9375 -216.742188 285.488281 -216.296875 284.9375 -216.296875 C 284.382812 -216.296875 283.9375 -216.742188 283.9375 -217.296875 C 283.9375 -217.847656 284.382812 -218.296875 284.9375 -218.296875 C 285.488281 -218.296875 285.9375 -217.847656 285.9375 -217.296875 Z M 285.9375 -217.296875 " transform="matrix(1,0,0,1,4,296)"/>
<path style="fill:none;stroke-width:1;stroke-linecap:butt;stroke-linejoin:miter;stroke:rgb(92.156863%,92.156863%,92.156863%);stroke-opacity:1;stroke-miterlimit:4;" d="M 250.054688 -193.785156 C 253.417969 -192.496094 271.320312 -185.625 284.503906 -180.5625 " transform="matrix(1,0,0,1,4,296)"/>
<path style="fill-rule:nonzero;fill:rgb(92.156863%,92.156863%,92.156863%);fill-opacity:1;stroke-width:1;stroke-linecap:butt;stroke-linejoin:miter;stroke:rgb(92.156863%,92.156863%,92.156863%);stroke-opacity:1;stroke-miterlimit:4;" d="M 286.480469 -180.191406 C 286.480469 -179.636719 286.03125 -179.191406 285.480469 -179.191406 C 284.925781 -179.191406 284.480469 -179.636719 284.480469 -180.191406 C 284.480469 -180.742188 284.925781 -181.191406 285.480469 -181.191406 C 286.03125 -181.191406 286.480469 -180.742188 286.480469 -180.191406 Z M 286.480469 -180.191406 " transform="matrix(1,0,0,1,4,296)"/>
<path style="fill:none;stroke-width:1;stroke-linecap:butt;stroke-linejoin:miter;stroke:rgb(92.156863%,92.156863%,92.156863%);stroke-opacity:1;stroke-miterlimit:4;" d="M 249.996094 -193.542969 C 251.363281 -192.269531 255.265625 -188.539062 258 -185 C 268.253906 -171.726562 267.710938 -166.246094 278 -153 C 281.0625 -149.058594 284.722656 -145.03125 288.125 -141.515625 " transform="matrix(1,0,0,1,4,296)"/>
<path style="fill-rule:nonzero;fill:rgb(92.156863%,92.156863%,92.156863%);fill-opacity:1;stroke-width:1;stroke-linecap:butt;stroke-linejoin:miter;stroke:rgb(92.156863%,92.156863%,92.156863%);stroke-opacity:1;stroke-miterlimit:4;" d="M 289.867188 -140.757812 C 289.867188 -140.203125 289.417969 -139.757812 288.867188 -139.757812 C 288.316406 -139.757812 287.867188 -140.203125 287.867188 -140.757812 C 287.867188 -141.308594 288.316406 -141.757812 288.867188 -141.757812 C 289.417969 -141.757812 289.867188 -141.308594 289.867188 -140.757812 Z M 289.867188 -140.757812 " transform="matrix(1,0,0,1,4,296)"/>
<path style="fill:none;stroke-width:1;stroke-linecap:butt;stroke-linejoin:miter;stroke:rgb(92.156863%,92.156863%,92.156863%);stroke-opacity:1;stroke-miterlimit:4;" d="M 250.054688 -193.582031 C 251.574219 -192.40625 255.828125 -188.90625 258 -185 C 274.960938 -154.46875 260.957031 -139.488281 278 -109 C 280.433594 -104.644531 283.933594 -100.507812 287.378906 -97.019531 " transform="matrix(1,0,0,1,4,296)"/>
<path style="fill-rule:nonzero;fill:rgb(92.156863%,92.156863%,92.156863%);fill-opacity:1;stroke-width:1;stroke-linecap:butt;stroke-linejoin:miter;stroke:rgb(92.156863%,92.156863%,92.156863%);stroke-opacity:1;stroke-miterlimit:4;" d="M 289.136719 -96.269531 C 289.136719 -95.71875 288.691406 -95.269531 288.136719 -95.269531 C 287.585938 -95.269531 287.136719 -95.71875 287.136719 -96.269531 C 287.136719 -96.820312 287.585938 -97.269531 288.136719 -97.269531 C 288.691406 -97.269531 289.136719 -96.820312 289.136719 -96.269531 Z M 289.136719 -96.269531 " transform="matrix(1,0,0,1,4,296)"/>
<path style="fill:none;stroke-width:1;stroke-linecap:butt;stroke-linejoin:miter;stroke:rgb(92.156863%,92.156863%,92.156863%);stroke-opacity:1;stroke-miterlimit:4;" d="M 250.003906 -194.511719 C 251.386719 -195.929688 255.324219 -200.089844 258 -204 C 268.554688 -219.429688 267.003906 -225.882812 278 -241 C 280.933594 -245.035156 284.566406 -249.089844 287.976562 -252.597656 " transform="matrix(1,0,0,1,4,296)"/>
<path style="fill-rule:nonzero;fill:rgb(92.156863%,92.156863%,92.156863%);fill-opacity:1;stroke-width:1;stroke-linecap:butt;stroke-linejoin:miter;stroke:rgb(92.156863%,92.156863%,92.156863%);stroke-opacity:1;stroke-miterlimit:4;" d="M 289.722656 -253.355469 C 289.722656 -252.800781 289.273438 -252.355469 288.722656 -252.355469 C 288.167969 -252.355469 287.722656 -252.800781 287.722656 -253.355469 C 287.722656 -253.90625 288.167969 -254.355469 288.722656 -254.355469 C 289.273438 -254.355469 289.722656 -253.90625 289.722656 -253.355469 Z M 289.722656 -253.355469 " transform="matrix(1,0,0,1,4,296)"/>
<path style="fill:none;stroke-width:1;stroke-linecap:butt;stroke-linejoin:miter;stroke:rgb(92.156863%,92.156863%,92.156863%);stroke-opacity:1;stroke-miterlimit:4;" d="M 250.054688 -194.28125 C 253.496094 -196.019531 272.191406 -205.460938 285.449219 -212.15625 " transform="matrix(1,0,0,1,4,296)"/>
<path style="fill-rule:nonzero;fill:rgb(92.156863%,92.156863%,92.156863%);fill-opacity:1;stroke-width:1;stroke-linecap:butt;stroke-linejoin:miter;stroke:rgb(92.156863%,92.156863%,92.156863%);stroke-opacity:1;stroke-miterlimit:4;" d="M 287.46875 -212.671875 C 287.46875 -212.121094 287.023438 -211.671875 286.46875 -211.671875 C 285.917969 -211.671875 285.46875 -212.121094 285.46875 -212.671875 C 285.46875 -213.222656 285.917969 -213.671875 286.46875 -213.671875 C 287.023438 -213.671875 287.46875 -213.222656 287.46875 -212.671875 Z M 287.46875 -212.671875 " transform="matrix(1,0,0,1,4,296)"/>
<path style="fill:none;stroke-width:1;stroke-linecap:butt;stroke-linejoin:miter;stroke:rgb(92.156863%,92.156863%,92.156863%);stroke-opacity:1;stroke-miterlimit:4;" d="M 250.054688 -175 C 253.347656 -175 270.601562 -175 283.703125 -175 " transform="matrix(1,0,0,1,4,296)"/>
<path style="fill-rule:nonzero;fill:rgb(92.156863%,92.156863%,92.156863%);fill-opacity:1;stroke-width:1;stroke-linecap:butt;stroke-linejoin:miter;stroke:rgb(92.156863%,92.156863%,92.156863%);stroke-opacity:1;stroke-miterlimit:4;" d="M 285.929688 -175 C 285.929688 -174.449219 285.480469 -174 284.929688 -174 C 284.378906 -174 283.929688 -174.449219 283.929688 -175 C 283.929688 -175.550781 284.378906 -176 284.929688 -176 C 285.480469 -176 285.929688 -175.550781 285.929688 -175 Z M 285.929688 -175 " transform="matrix(1,0,0,1,4,296)"/>
<path style="fill:none;stroke-width:1;stroke-linecap:butt;stroke-linejoin:miter;stroke:rgb(92.156863%,92.156863%,92.156863%);stroke-opacity:1;stroke-miterlimit:4;" d="M 250.054688 -174.507812 C 253.691406 -171.277344 274.316406 -152.941406 287.609375 -141.125 " transform="matrix(1,0,0,1,4,296)"/>
<path style="fill-rule:nonzero;fill:rgb(92.156863%,92.156863%,92.156863%);fill-opacity:1;stroke-width:1;stroke-linecap:butt;stroke-linejoin:miter;stroke:rgb(92.156863%,92.156863%,92.156863%);stroke-opacity:1;stroke-miterlimit:4;" d="M 289.445312 -140.382812 C 289.445312 -139.832031 288.996094 -139.382812 288.445312 -139.382812 C 287.890625 -139.382812 287.445312 -139.832031 287.445312 -140.382812 C 287.445312 -140.9375 287.890625 -141.382812 288.445312 -141.382812 C 288.996094 -141.382812 289.445312 -140.9375 289.445312 -140.382812 Z M 289.445312 -140.382812 " transform="matrix(1,0,0,1,4,296)"/>
<path style="fill:none;stroke-width:1;stroke-linecap:butt;stroke-linejoin:miter;stroke:rgb(92.156863%,92.156863%,92.156863%);stroke-opacity:1;stroke-miterlimit:4;" d="M 250.035156 -174.511719 C 251.5 -173.140625 255.628906 -169.105469 258 -165 C 271.21875 -142.113281 264.128906 -131.496094 278 -109 C 280.617188 -104.753906 284.167969 -100.644531 287.597656 -97.148438 " transform="matrix(1,0,0,1,4,296)"/>
<path style="fill-rule:nonzero;fill:rgb(92.156863%,92.156863%,92.156863%);fill-opacity:1;stroke-width:1;stroke-linecap:butt;stroke-linejoin:miter;stroke:rgb(92.156863%,92.156863%,92.156863%);stroke-opacity:1;stroke-miterlimit:4;" d="M 289.351562 -96.398438 C 289.351562 -95.84375 288.90625 -95.398438 288.351562 -95.398438 C 287.800781 -95.398438 287.351562 -95.84375 287.351562 -96.398438 C 287.351562 -96.949219 287.800781 -97.398438 288.351562 -97.398438 C 288.90625 -97.398438 289.351562 -96.949219 289.351562 -96.398438 Z M 289.351562 -96.398438 " transform="matrix(1,0,0,1,4,296)"/>
<path style="fill:none;stroke-width:1;stroke-linecap:butt;stroke-linejoin:miter;stroke:rgb(92.156863%,92.156863%,92.156863%);stroke-opacity:1;stroke-miterlimit:4;" d="M 250.035156 -175.488281 C 251.5 -176.859375 255.628906 -180.894531 258 -185 C 271.21875 -207.886719 264.128906 -218.503906 278 -241 C 280.617188 -245.246094 284.167969 -249.355469 287.597656 -252.851562 " transform="matrix(1,0,0,1,4,296)"/>
<path style="fill-rule:nonzero;fill:rgb(92.156863%,92.156863%,92.156863%);fill-opacity:1;stroke-width:1;stroke-linecap:butt;stroke-linejoin:miter;stroke:rgb(92.156863%,92.156863%,92.156863%);stroke-opacity:1;stroke-miterlimit:4;" d="M 289.351562 -253.601562 C 289.351562 -253.050781 288.90625 -252.601562 288.351562 -252.601562 C 287.800781 -252.601562 287.351562 -253.050781 287.351562 -253.601562 C 287.351562 -254.15625 287.800781 -254.601562 288.351562 -254.601562 C 288.90625 -254.601562 289.351562 -254.15625 289.351562 -253.601562 Z M 289.351562 -253.601562 " transform="matrix(1,0,0,1,4,296)"/>
<path style="fill:none;stroke-width:1;stroke-linecap:butt;stroke-linejoin:miter;stroke:rgb(92.156863%,92.156863%,92.156863%);stroke-opacity:1;stroke-miterlimit:4;" d="M 250.054688 -175.492188 C 253.691406 -178.722656 274.316406 -197.058594 287.609375 -208.875 " transform="matrix(1,0,0,1,4,296)"/>
<path style="fill-rule:nonzero;fill:rgb(92.156863%,92.156863%,92.156863%);fill-opacity:1;stroke-width:1;stroke-linecap:butt;stroke-linejoin:miter;stroke:rgb(92.156863%,92.156863%,92.156863%);stroke-opacity:1;stroke-miterlimit:4;" d="M 289.445312 -209.617188 C 289.445312 -209.0625 288.996094 -208.617188 288.445312 -208.617188 C 287.890625 -208.617188 287.445312 -209.0625 287.445312 -209.617188 C 287.445312 -210.167969 287.890625 -210.617188 288.445312 -210.617188 C 288.996094 -210.617188 289.445312 -210.167969 289.445312 -209.617188 Z M 289.445312 -209.617188 " transform="matrix(1,0,0,1,4,296)"/>
<path style="fill:none;stroke-width:1;stroke-linecap:butt;stroke-linejoin:miter;stroke:rgb(92.156863%,92.156863%,92.156863%);stroke-opacity:1;stroke-miterlimit:4;" d="M 250.054688 -156.214844 C 253.417969 -157.503906 271.320312 -164.375 284.503906 -169.4375 " transform="matrix(1,0,0,1,4,296)"/>
<path style="fill-rule:nonzero;fill:rgb(92.156863%,92.156863%,92.156863%);fill-opacity:1;stroke-width:1;stroke-linecap:butt;stroke-linejoin:miter;stroke:rgb(92.156863%,92.156863%,92.156863%);stroke-opacity:1;stroke-miterlimit:4;" d="M 286.480469 -169.808594 C 286.480469 -169.257812 286.03125 -168.808594 285.480469 -168.808594 C 284.925781 -168.808594 284.480469 -169.257812 284.480469 -169.808594 C 284.480469 -170.363281 284.925781 -170.808594 285.480469 -170.808594 C 286.03125 -170.808594 286.480469 -170.363281 286.480469 -169.808594 Z M 286.480469 -169.808594 " transform="matrix(1,0,0,1,4,296)"/>
<path style="fill:none;stroke-width:1;stroke-linecap:butt;stroke-linejoin:miter;stroke:rgb(92.156863%,92.156863%,92.156863%);stroke-opacity:1;stroke-miterlimit:4;" d="M 250.054688 -155.71875 C 253.496094 -153.980469 272.191406 -144.539062 285.449219 -137.84375 " transform="matrix(1,0,0,1,4,296)"/>
<path style="fill-rule:nonzero;fill:rgb(92.156863%,92.156863%,92.156863%);fill-opacity:1;stroke-width:1;stroke-linecap:butt;stroke-linejoin:miter;stroke:rgb(92.156863%,92.156863%,92.156863%);stroke-opacity:1;stroke-miterlimit:4;" d="M 287.46875 -137.328125 C 287.46875 -136.777344 287.023438 -136.328125 286.46875 -136.328125 C 285.917969 -136.328125 285.46875 -136.777344 285.46875 -137.328125 C 285.46875 -137.878906 285.917969 -138.328125 286.46875 -138.328125 C 287.023438 -138.328125 287.46875 -137.878906 287.46875 -137.328125 Z M 287.46875 -137.328125 " transform="matrix(1,0,0,1,4,296)"/>
<path style="fill:none;stroke-width:1;stroke-linecap:butt;stroke-linejoin:miter;stroke:rgb(92.156863%,92.156863%,92.156863%);stroke-opacity:1;stroke-miterlimit:4;" d="M 250.003906 -155.488281 C 251.386719 -154.070312 255.324219 -149.910156 258 -146 C 268.554688 -130.570312 267.003906 -124.117188 278 -109 C 280.933594 -104.964844 284.566406 -100.910156 287.976562 -97.402344 " transform="matrix(1,0,0,1,4,296)"/>
<path style="fill-rule:nonzero;fill:rgb(92.156863%,92.156863%,92.156863%);fill-opacity:1;stroke-width:1;stroke-linecap:butt;stroke-linejoin:miter;stroke:rgb(92.156863%,92.156863%,92.156863%);stroke-opacity:1;stroke-miterlimit:4;" d="M 289.722656 -96.644531 C 289.722656 -96.09375 289.273438 -95.644531 288.722656 -95.644531 C 288.167969 -95.644531 287.722656 -96.09375 287.722656 -96.644531 C 287.722656 -97.199219 288.167969 -97.644531 288.722656 -97.644531 C 289.273438 -97.644531 289.722656 -97.199219 289.722656 -96.644531 Z M 289.722656 -96.644531 " transform="matrix(1,0,0,1,4,296)"/>
<path style="fill:none;stroke-width:1;stroke-linecap:butt;stroke-linejoin:miter;stroke:rgb(92.156863%,92.156863%,92.156863%);stroke-opacity:1;stroke-miterlimit:4;" d="M 250.054688 -156.417969 C 251.574219 -157.59375 255.828125 -161.09375 258 -165 C 274.960938 -195.53125 260.957031 -210.511719 278 -241 C 280.433594 -245.355469 283.933594 -249.492188 287.378906 -252.980469 " transform="matrix(1,0,0,1,4,296)"/>
<path style="fill-rule:nonzero;fill:rgb(92.156863%,92.156863%,92.156863%);fill-opacity:1;stroke-width:1;stroke-linecap:butt;stroke-linejoin:miter;stroke:rgb(92.156863%,92.156863%,92.156863%);stroke-opacity:1;stroke-miterlimit:4;" d="M 289.136719 -253.730469 C 289.136719 -253.179688 288.691406 -252.730469 288.136719 -252.730469 C 287.585938 -252.730469 287.136719 -253.179688 287.136719 -253.730469 C 287.136719 -254.28125 287.585938 -254.730469 288.136719 -254.730469 C 288.691406 -254.730469 289.136719 -254.28125 289.136719 -253.730469 Z M 289.136719 -253.730469 " transform="matrix(1,0,0,1,4,296)"/>
<path style="fill:none;stroke-width:1;stroke-linecap:butt;stroke-linejoin:miter;stroke:rgb(92.156863%,92.156863%,92.156863%);stroke-opacity:1;stroke-miterlimit:4;" d="M 249.996094 -156.457031 C 251.363281 -157.730469 255.265625 -161.460938 258 -165 C 268.253906 -178.273438 267.710938 -183.753906 278 -197 C 281.0625 -200.941406 284.722656 -204.96875 288.125 -208.484375 " transform="matrix(1,0,0,1,4,296)"/>
<path style="fill-rule:nonzero;fill:rgb(92.156863%,92.156863%,92.156863%);fill-opacity:1;stroke-width:1;stroke-linecap:butt;stroke-linejoin:miter;stroke:rgb(92.156863%,92.156863%,92.156863%);stroke-opacity:1;stroke-miterlimit:4;" d="M 289.867188 -209.242188 C 289.867188 -208.691406 289.417969 -208.242188 288.867188 -208.242188 C 288.316406 -208.242188 287.867188 -208.691406 287.867188 -209.242188 C 287.867188 -209.796875 288.316406 -210.242188 288.867188 -210.242188 C 289.417969 -210.242188 289.867188 -209.796875 289.867188 -209.242188 Z M 289.867188 -209.242188 " transform="matrix(1,0,0,1,4,296)"/>
<path style="fill:none;stroke-width:1;stroke-linecap:butt;stroke-linejoin:miter;stroke:rgb(54.509807%,0%,0%);stroke-opacity:1;stroke-miterlimit:4;" d="M 364 -187 C 364 -187 356 -187 356 -187 C 352 -187 348 -183 348 -179 C 348 -179 348 -171 348 -171 C 348 -167 352 -163 356 -163 C 356 -163 364 -163 364 -163 C 368 -163 372 -167 372 -171 C 372 -171 372 -179 372 -179 C 372 -183 368 -187 364 -187 " transform="matrix(1,0,0,1,4,296)"/>
<path style=" stroke:none;fill-rule:nonzero;fill:rgb(0%,0%,0%);fill-opacity:1;" d="M 354.160156 121.089844 C 354.160156 120.476562 354.308594 119.988281 354.609375 119.632812 C 354.90625 119.273438 355.300781 119.09375 355.789062 119.09375 C 356.277344 119.09375 356.671875 119.269531 356.96875 119.617188 C 357.269531 119.964844 357.421875 120.441406 357.429688 121.042969 L 357.429688 121.488281 C 357.429688 122.101562 357.28125 122.585938 356.984375 122.941406 C 356.6875 123.296875 356.292969 123.476562 355.796875 123.476562 C 355.308594 123.476562 354.914062 123.304688 354.617188 122.957031 C 354.324219 122.609375 354.171875 122.140625 354.160156 121.550781 Z M 354.851562 121.488281 C 354.851562 121.921875 354.9375 122.265625 355.109375 122.515625 C 355.277344 122.761719 355.507812 122.886719 355.796875 122.886719 C 356.40625 122.886719 356.71875 122.445312 356.738281 121.566406 L 356.738281 121.089844 C 356.738281 120.65625 356.652344 120.316406 356.480469 120.0625 C 356.308594 119.8125 356.078125 119.6875 355.789062 119.6875 C 355.503906 119.6875 355.277344 119.8125 355.109375 120.0625 C 354.9375 120.316406 354.851562 120.65625 354.851562 121.085938 Z M 360.476562 123.027344 C 360.246094 123.328125 359.914062 123.476562 359.472656 123.476562 C 359.089844 123.476562 358.800781 123.34375 358.605469 123.078125 C 358.410156 122.816406 358.3125 122.429688 358.308594 121.925781 L 358.308594 119.171875 L 358.996094 119.171875 L 358.996094 121.875 C 358.996094 122.535156 359.195312 122.863281 359.589844 122.863281 C 360.007812 122.863281 360.296875 122.675781 360.457031 122.300781 L 360.457031 119.171875 L 361.148438 119.171875 L 361.148438 123.398438 L 360.492188 123.398438 Z M 363.09375 118.148438 L 363.09375 119.171875 L 363.730469 119.171875 L 363.730469 119.730469 L 363.09375 119.730469 L 363.09375 122.351562 C 363.09375 122.519531 363.121094 122.644531 363.175781 122.730469 C 363.230469 122.816406 363.324219 122.859375 363.457031 122.859375 C 363.546875 122.859375 363.640625 122.84375 363.734375 122.8125 L 363.726562 123.398438 C 363.570312 123.449219 363.410156 123.476562 363.246094 123.476562 C 362.972656 123.476562 362.765625 123.378906 362.621094 123.183594 C 362.476562 122.988281 362.40625 122.710938 362.40625 122.355469 L 362.40625 119.730469 L 361.761719 119.730469 L 361.761719 119.171875 L 362.40625 119.171875 L 362.40625 118.148438 Z M 367.605469 121.488281 C 367.605469 122.15625 367.484375 122.65625 367.246094 122.984375 C 367.003906 123.3125 366.664062 123.476562 366.222656 123.476562 C 365.796875 123.476562 365.472656 123.316406 365.242188 122.996094 L 365.242188 125.023438 L 364.554688 125.023438 L 364.554688 119.171875 L 365.179688 119.171875 L 365.214844 119.640625 C 365.445312 119.277344 365.777344 119.09375 366.210938 119.09375 C 366.675781 119.09375 367.019531 119.253906 367.25 119.578125 C 367.480469 119.902344 367.597656 120.382812 367.605469 121.027344 Z M 366.917969 121.09375 C 366.917969 120.621094 366.84375 120.269531 366.699219 120.046875 C 366.554688 119.820312 366.320312 119.707031 365.996094 119.707031 C 365.664062 119.707031 365.414062 119.871094 365.242188 120.203125 L 365.242188 122.402344 C 365.410156 122.726562 365.664062 122.886719 366.003906 122.886719 C 366.316406 122.886719 366.546875 122.773438 366.691406 122.546875 C 366.839844 122.324219 366.914062 121.980469 366.917969 121.515625 Z M 370.652344 123.027344 C 370.421875 123.328125 370.089844 123.476562 369.648438 123.476562 C 369.265625 123.476562 368.976562 123.34375 368.78125 123.078125 C 368.585938 122.816406 368.488281 122.429688 368.484375 121.925781 L 368.484375 119.171875 L 369.171875 119.171875 L 369.171875 121.875 C 369.171875 122.535156 369.371094 122.863281 369.765625 122.863281 C 370.183594 122.863281 370.472656 122.675781 370.632812 122.300781 L 370.632812 119.171875 L 371.324219 119.171875 L 371.324219 123.398438 L 370.667969 123.398438 Z M 373.269531 118.148438 L 373.269531 119.171875 L 373.90625 119.171875 L 373.90625 119.730469 L 373.269531 119.730469 L 373.269531 122.351562 C 373.269531 122.519531 373.296875 122.644531 373.351562 122.730469 C 373.40625 122.816406 373.5 122.859375 373.632812 122.859375 C 373.722656 122.859375 373.816406 122.84375 373.910156 122.8125 L 373.902344 123.398438 C 373.746094 123.449219 373.585938 123.476562 373.421875 123.476562 C 373.148438 123.476562 372.941406 123.378906 372.796875 123.183594 C 372.652344 122.988281 372.582031 122.710938 372.582031 122.355469 L 372.582031 119.730469 L 371.9375 119.730469 L 371.9375 119.171875 L 372.582031 119.171875 L 372.582031 118.148438 Z M 353.789062 115.976562 "/>
<path style="fill:none;stroke-width:1;stroke-linecap:butt;stroke-linejoin:miter;stroke:rgb(74.901962%,74.901962%,74.901962%);stroke-opacity:1;stroke-miterlimit:4;" d="M 312.234375 -175 C 322.007812 -175 335.308594 -175 345.390625 -175 " transform="matrix(1,0,0,1,4,296)"/>
<path style="fill-rule:nonzero;fill:rgb(74.901962%,74.901962%,74.901962%);fill-opacity:1;stroke-width:1;stroke-linecap:butt;stroke-linejoin:miter;stroke:rgb(74.901962%,74.901962%,74.901962%);stroke-opacity:1;stroke-miterlimit:4;" d="M 347.621094 -175 C 347.621094 -174.449219 347.171875 -174 346.621094 -174 C 346.070312 -174 345.621094 -174.449219 345.621094 -175 C 345.621094 -175.550781 346.070312 -176 346.621094 -176 C 347.171875 -176 347.621094 -175.550781 347.621094 -175 Z M 347.621094 -175 " transform="matrix(1,0,0,1,4,296)"/>
<path style="fill:none;stroke-width:1;stroke-linecap:butt;stroke-linejoin:miter;stroke:rgb(74.901962%,74.901962%,74.901962%);stroke-opacity:1;stroke-miterlimit:4;" d="M 309.625 -138.664062 C 319.691406 -145.925781 334.878906 -156.878906 345.941406 -164.859375 " transform="matrix(1,0,0,1,4,296)"/>
<path style="fill-rule:nonzero;fill:rgb(74.901962%,74.901962%,74.901962%);fill-opacity:1;stroke-width:1;stroke-linecap:butt;stroke-linejoin:miter;stroke:rgb(74.901962%,74.901962%,74.901962%);stroke-opacity:1;stroke-miterlimit:4;" d="M 348.007812 -165.628906 C 348.007812 -165.078125 347.5625 -164.628906 347.007812 -164.628906 C 346.457031 -164.628906 346.007812 -165.078125 346.007812 -165.628906 C 346.007812 -166.183594 346.457031 -166.628906 347.007812 -166.628906 C 347.5625 -166.628906 348.007812 -166.183594 348.007812 -165.628906 Z M 348.007812 -165.628906 " transform="matrix(1,0,0,1,4,296)"/>
<path style="fill:none;stroke-width:1;stroke-linecap:butt;stroke-linejoin:miter;stroke:rgb(74.901962%,74.901962%,74.901962%);stroke-opacity:1;stroke-miterlimit:4;" d="M 308.738281 -95.820312 C 312.570312 -99.621094 316.804688 -104.277344 320 -109 C 332.03125 -126.796875 328.1875 -135.058594 340 -153 C 341.84375 -155.800781 344.042969 -158.601562 346.292969 -161.214844 " transform="matrix(1,0,0,1,4,296)"/>
<path style="fill-rule:nonzero;fill:rgb(74.901962%,74.901962%,74.901962%);fill-opacity:1;stroke-width:1;stroke-linecap:butt;stroke-linejoin:miter;stroke:rgb(74.901962%,74.901962%,74.901962%);stroke-opacity:1;stroke-miterlimit:4;" d="M 348.199219 -162.242188 C 348.199219 -161.691406 347.75 -161.242188 347.199219 -161.242188 C 346.644531 -161.242188 346.199219 -161.691406 346.199219 -162.242188 C 346.199219 -162.792969 346.644531 -163.242188 347.199219 -163.242188 C 347.75 -163.242188 348.199219 -162.792969 348.199219 -162.242188 Z M 348.199219 -162.242188 " transform="matrix(1,0,0,1,4,296)"/>
<path style="fill:none;stroke-width:1;stroke-linecap:butt;stroke-linejoin:miter;stroke:rgb(74.901962%,74.901962%,74.901962%);stroke-opacity:1;stroke-miterlimit:4;" d="M 308.464844 -253.984375 C 312.253906 -250.152344 316.53125 -245.527344 320 -241 C 332.886719 -224.167969 345.125 -202.933594 352.59375 -189.164062 " transform="matrix(1,0,0,1,4,296)"/>
<path style="fill-rule:nonzero;fill:rgb(74.901962%,74.901962%,74.901962%);fill-opacity:1;stroke-width:1;stroke-linecap:butt;stroke-linejoin:miter;stroke:rgb(74.901962%,74.901962%,74.901962%);stroke-opacity:1;stroke-miterlimit:4;" d="M 354.183594 -188.070312 C 354.183594 -187.515625 353.734375 -187.070312 353.183594 -187.070312 C 352.632812 -187.070312 352.183594 -187.515625 352.183594 -188.070312 C 352.183594 -188.621094 352.632812 -189.070312 353.183594 -189.070312 C 353.734375 -189.070312 354.183594 -188.621094 354.183594 -188.070312 Z M 354.183594 -188.070312 " transform="matrix(1,0,0,1,4,296)"/>
<path style="fill:none;stroke-width:1;stroke-linecap:butt;stroke-linejoin:miter;stroke:rgb(74.901962%,74.901962%,74.901962%);stroke-opacity:1;stroke-miterlimit:4;" d="M 309.625 -211.335938 C 319.691406 -204.074219 334.878906 -193.121094 345.941406 -185.140625 " transform="matrix(1,0,0,1,4,296)"/>
<path style="fill-rule:nonzero;fill:rgb(74.901962%,74.901962%,74.901962%);fill-opacity:1;stroke-width:1;stroke-linecap:butt;stroke-linejoin:miter;stroke:rgb(74.901962%,74.901962%,74.901962%);stroke-opacity:1;stroke-miterlimit:4;" d="M 348.007812 -184.371094 C 348.007812 -183.816406 347.5625 -183.371094 347.007812 -183.371094 C 346.457031 -183.371094 346.007812 -183.816406 346.007812 -184.371094 C 346.007812 -184.921875 346.457031 -185.371094 347.007812 -185.371094 C 347.5625 -185.371094 348.007812 -184.921875 348.007812 -184.371094 Z M 348.007812 -184.371094 " transform="matrix(1,0,0,1,4,296)"/>
<path style="fill-rule:nonzero;fill:rgb(49.803922%,49.803922%,49.803922%);fill-opacity:1;stroke-width:1;stroke-linecap:butt;stroke-linejoin:miter;stroke:rgb(49.803922%,49.803922%,49.803922%);stroke-opacity:1;stroke-miterlimit:4;" d="M 299.5 -55 C 299.5 -54.722656 299.277344 -54.5 299 -54.5 C 298.722656 -54.5 298.5 -54.722656 298.5 -55 C 298.5 -55.277344 298.722656 -55.5 299 -55.5 C 299.277344 -55.5 299.5 -55.277344 299.5 -55 Z M 299.5 -55 " transform="matrix(1,0,0,1,4,296)"/>
<path style="fill-rule:nonzero;fill:rgb(49.803922%,49.803922%,49.803922%);fill-opacity:1;stroke-width:1;stroke-linecap:butt;stroke-linejoin:miter;stroke:rgb(49.803922%,49.803922%,49.803922%);stroke-opacity:1;stroke-miterlimit:4;" d="M 299.5 -36 C 299.5 -35.722656 299.277344 -35.5 299 -35.5 C 298.722656 -35.5 298.5 -35.722656 298.5 -36 C 298.5 -36.277344 298.722656 -36.5 299 -36.5 C 299.277344 -36.5 299.5 -36.277344 299.5 -36 Z M 299.5 -36 " transform="matrix(1,0,0,1,4,296)"/>
<path style="fill-rule:nonzero;fill:rgb(49.803922%,49.803922%,49.803922%);fill-opacity:1;stroke-width:1;stroke-linecap:butt;stroke-linejoin:miter;stroke:rgb(49.803922%,49.803922%,49.803922%);stroke-opacity:1;stroke-miterlimit:4;" d="M 299.5 -17 C 299.5 -16.722656 299.277344 -16.5 299 -16.5 C 298.722656 -16.5 298.5 -16.722656 298.5 -17 C 298.5 -17.277344 298.722656 -17.5 299 -17.5 C 299.277344 -17.5 299.5 -17.277344 299.5 -17 Z M 299.5 -17 " transform="matrix(1,0,0,1,4,296)"/>
<path style="fill-rule:nonzero;fill:rgb(49.803922%,49.803922%,49.803922%);fill-opacity:1;stroke-width:1;stroke-linecap:butt;stroke-linejoin:miter;stroke:rgb(49.803922%,49.803922%,49.803922%);stroke-opacity:1;stroke-miterlimit:4;" d="M 360.5 -144 C 360.5 -143.722656 360.277344 -143.5 360 -143.5 C 359.722656 -143.5 359.5 -143.722656 359.5 -144 C 359.5 -144.277344 359.722656 -144.5 360 -144.5 C 360.277344 -144.5 360.5 -144.277344 360.5 -144 Z M 360.5 -144 " transform="matrix(1,0,0,1,4,296)"/>
<path style="fill-rule:nonzero;fill:rgb(49.803922%,49.803922%,49.803922%);fill-opacity:1;stroke-width:1;stroke-linecap:butt;stroke-linejoin:miter;stroke:rgb(49.803922%,49.803922%,49.803922%);stroke-opacity:1;stroke-miterlimit:4;" d="M 360.5 -125 C 360.5 -124.722656 360.277344 -124.5 360 -124.5 C 359.722656 -124.5 359.5 -124.722656 359.5 -125 C 359.5 -125.277344 359.722656 -125.5 360 -125.5 C 360.277344 -125.5 360.5 -125.277344 360.5 -125 Z M 360.5 -125 " transform="matrix(1,0,0,1,4,296)"/>
<path style="fill-rule:nonzero;fill:rgb(49.803922%,49.803922%,49.803922%);fill-opacity:1;stroke-width:1;stroke-linecap:butt;stroke-linejoin:miter;stroke:rgb(49.803922%,49.803922%,49.803922%);stroke-opacity:1;stroke-miterlimit:4;" d="M 360.5 -106 C 360.5 -105.722656 360.277344 -105.5 360 -105.5 C 359.722656 -105.5 359.5 -105.722656 359.5 -106 C 359.5 -106.277344 359.722656 -106.5 360 -106.5 C 360.277344 -106.5 360.5 -106.277344 360.5 -106 Z M 360.5 -106 " transform="matrix(1,0,0,1,4,296)"/>
</g>
</svg>
