<?xml version="1.0" encoding="UTF-8"?>
<svg xmlns="http://www.w3.org/2000/svg" xmlns:xlink="http://www.w3.org/1999/xlink" width="94pt" height="210pt" viewBox="0 0 94 210" version="1.1">
<g id="surface1">
<path style="fill:none;stroke-width:1;stroke-linecap:butt;stroke-linejoin:miter;stroke:rgb(49.803922%,49.803922%,49.803922%);stroke-opacity:1;stroke-miterlimit:4;" d="M 24 -143 C 24 -136.371094 18.628906 -131 12 -131 C 5.371094 -131 0 -136.371094 0 -143 C 0 -149.628906 5.371094 -155 12 -155 C 18.628906 -155 24 -149.628906 24 -143 Z M 24 -143 " transform="matrix(1,0,0,1,4,206)"/>
<path style=" stroke:none;fill-rule:nonzero;fill:rgb(0%,0%,0%);fill-opacity:1;" d="M 13.992188 61.167969 L 14.796875 59.535156 L 15.425781 59.535156 L 14.316406 61.652344 L 15.449219 63.800781 L 14.8125 63.800781 L 13.992188 62.136719 L 13.171875 63.800781 L 12.535156 63.800781 L 13.675781 61.652344 L 12.558594 59.535156 L 13.1875 59.535156 Z M 12.335938 58.234375 "/>
<path style=" stroke:none;fill-rule:nonzero;fill:rgb(0%,0%,0%);fill-opacity:1;" d="M 18.550781 65 L 18.03125 65 L 18.03125 61.386719 L 17.132812 61.789062 L 17.132812 61.296875 L 18.46875 60.714844 L 18.550781 60.714844 Z M 16.664062 59.433594 "/>
<path style="fill:none;stroke-width:1;stroke-linecap:butt;stroke-linejoin:miter;stroke:rgb(33.725491%,70.588237%,91.37255%);stroke-opacity:0.501961;stroke-dasharray:5,2;stroke-miterlimit:4;" d="M 82 -145 C 82 -140.03125 77.96875 -136 73 -136 C 68.03125 -136 64 -140.03125 64 -145 C 64 -149.96875 68.03125 -154 73 -154 C 77.96875 -154 82 -149.96875 82 -145 Z M 82 -145 " transform="matrix(1,0,0,1,4,206)"/>
<path style="fill:none;stroke-width:1;stroke-linecap:butt;stroke-linejoin:miter;stroke:rgb(33.725491%,70.588237%,91.37255%);stroke-opacity:0.501961;stroke-dasharray:5,2;stroke-miterlimit:4;" d="M 86 -145 C 86 -137.820312 80.179688 -132 73 -132 C 65.820312 -132 60 -137.820312 60 -145 C 60 -152.179688 65.820312 -158 73 -158 C 80.179688 -158 86 -152.179688 86 -145 Z M 86 -145 " transform="matrix(1,0,0,1,4,206)"/>
<path style=" stroke:none;fill-rule:nonzero;fill:rgb(0%,0%,0%);fill-opacity:1;" d="M 76.585938 61.800781 L 76.046875 61.800781 L 76.046875 59.828125 L 74.332031 59.828125 L 74.332031 61.800781 L 73.796875 61.800781 L 73.796875 57.535156 L 74.332031 57.535156 L 74.332031 59.371094 L 76.046875 59.371094 L 76.046875 57.535156 L 76.585938 57.535156 Z M 73.335938 56.234375 "/>
<path style=" stroke:none;fill-rule:nonzero;fill:rgb(0%,0%,0%);fill-opacity:1;" d="M 80.390625 63 L 78.007812 63 L 78.007812 62.609375 L 79.222656 61 C 79.40625 60.75 79.535156 60.546875 79.605469 60.386719 C 79.675781 60.226562 79.710938 60.0625 79.710938 59.882812 C 79.710938 59.65625 79.660156 59.472656 79.554688 59.332031 C 79.449219 59.191406 79.308594 59.121094 79.136719 59.121094 C 78.921875 59.121094 78.753906 59.195312 78.636719 59.34375 C 78.515625 59.492188 78.457031 59.710938 78.457031 59.992188 L 77.9375 59.992188 C 77.9375 59.597656 78.046875 59.28125 78.261719 59.039062 C 78.476562 58.796875 78.769531 58.675781 79.136719 58.675781 C 79.476562 58.675781 79.746094 58.78125 79.941406 58.988281 C 80.136719 59.195312 80.234375 59.472656 80.234375 59.820312 C 80.234375 60.242188 80.015625 60.738281 79.574219 61.316406 L 78.625 62.558594 L 80.390625 62.558594 Z M 77.664062 57.433594 "/>
<path style="fill:none;stroke-width:1;stroke-linecap:butt;stroke-linejoin:miter;stroke:rgb(74.901962%,74.901962%,74.901962%);stroke-opacity:1;stroke-miterlimit:4;" d="M 24.050781 -143.394531 C 34.007812 -143.722656 48.164062 -144.1875 58.695312 -144.53125 " transform="matrix(1,0,0,1,4,206)"/>
<path style="fill-rule:nonzero;fill:rgb(74.901962%,74.901962%,74.901962%);fill-opacity:1;stroke-width:1;stroke-linecap:butt;stroke-linejoin:miter;stroke:rgb(74.901962%,74.901962%,74.901962%);stroke-opacity:1;stroke-miterlimit:4;" d="M 59.703125 -144.550781 C 59.703125 -144.328125 59.523438 -144.152344 59.304688 -144.152344 C 59.082031 -144.152344 58.902344 -144.328125 58.902344 -144.550781 C 58.902344 -144.773438 59.082031 -144.949219 59.304688 -144.949219 C 59.523438 -144.949219 59.703125 -144.773438 59.703125 -144.550781 Z M 59.703125 -144.550781 " transform="matrix(1,0,0,1,4,206)"/>
<path style="fill:none;stroke-width:1;stroke-linecap:butt;stroke-linejoin:miter;stroke:rgb(33.725491%,70.588237%,91.37255%);stroke-opacity:0.501961;stroke-dasharray:5,2;stroke-miterlimit:4;" d="M 82 -101 C 82 -96.03125 77.96875 -92 73 -92 C 68.03125 -92 64 -96.03125 64 -101 C 64 -105.96875 68.03125 -110 73 -110 C 77.96875 -110 82 -105.96875 82 -101 Z M 82 -101 " transform="matrix(1,0,0,1,4,206)"/>
<path style="fill:none;stroke-width:1;stroke-linecap:butt;stroke-linejoin:miter;stroke:rgb(33.725491%,70.588237%,91.37255%);stroke-opacity:0.501961;stroke-dasharray:5,2;stroke-miterlimit:4;" d="M 86 -101 C 86 -93.820312 80.179688 -88 73 -88 C 65.820312 -88 60 -93.820312 60 -101 C 60 -108.179688 65.820312 -114 73 -114 C 80.179688 -114 86 -108.179688 86 -101 Z M 86 -101 " transform="matrix(1,0,0,1,4,206)"/>
<path style=" stroke:none;fill-rule:nonzero;fill:rgb(0%,0%,0%);fill-opacity:1;" d="M 76.585938 105.800781 L 76.046875 105.800781 L 76.046875 103.828125 L 74.332031 103.828125 L 74.332031 105.800781 L 73.796875 105.800781 L 73.796875 101.535156 L 74.332031 101.535156 L 74.332031 103.371094 L 76.046875 103.371094 L 76.046875 101.535156 L 76.585938 101.535156 Z M 73.335938 100.234375 "/>
<path style=" stroke:none;fill-rule:nonzero;fill:rgb(0%,0%,0%);fill-opacity:1;" d="M 78.667969 104.601562 L 79 104.601562 C 79.210938 104.601562 79.375 104.539062 79.492188 104.40625 C 79.609375 104.277344 79.664062 104.097656 79.664062 103.871094 C 79.664062 103.371094 79.472656 103.121094 79.085938 103.121094 C 78.898438 103.121094 78.753906 103.1875 78.648438 103.324219 C 78.542969 103.457031 78.492188 103.632812 78.492188 103.851562 L 77.976562 103.851562 C 77.976562 103.511719 78.078125 103.230469 78.285156 103.007812 C 78.492188 102.785156 78.761719 102.675781 79.085938 102.675781 C 79.421875 102.675781 79.6875 102.78125 79.882812 102.992188 C 80.082031 103.203125 80.179688 103.5 80.179688 103.882812 C 80.179688 104.078125 80.128906 104.265625 80.027344 104.433594 C 79.925781 104.605469 79.789062 104.730469 79.625 104.8125 C 80.027344 104.960938 80.230469 105.292969 80.230469 105.8125 C 80.230469 106.191406 80.125 106.496094 79.914062 106.71875 C 79.703125 106.945312 79.421875 107.058594 79.082031 107.058594 C 78.742188 107.058594 78.472656 106.953125 78.261719 106.738281 C 78.054688 106.523438 77.953125 106.234375 77.953125 105.875 L 78.46875 105.875 C 78.46875 106.101562 78.523438 106.28125 78.632812 106.414062 C 78.742188 106.546875 78.890625 106.617188 79.082031 106.617188 C 79.273438 106.617188 79.429688 106.550781 79.542969 106.421875 C 79.65625 106.289062 79.714844 106.089844 79.714844 105.820312 C 79.714844 105.304688 79.46875 105.046875 78.980469 105.046875 L 78.667969 105.046875 Z M 77.664062 101.433594 "/>
<path style="fill:none;stroke-width:1;stroke-linecap:butt;stroke-linejoin:miter;stroke:rgb(74.901962%,74.901962%,74.901962%);stroke-opacity:1;stroke-miterlimit:4;" d="M 22.074219 -136.066406 C 32.78125 -128.691406 49.703125 -117.039062 61.070312 -109.214844 " transform="matrix(1,0,0,1,4,206)"/>
<path style="fill-rule:nonzero;fill:rgb(74.901962%,74.901962%,74.901962%);fill-opacity:1;stroke-width:1;stroke-linecap:butt;stroke-linejoin:miter;stroke:rgb(74.901962%,74.901962%,74.901962%);stroke-opacity:1;stroke-miterlimit:4;" d="M 61.949219 -108.882812 C 61.949219 -108.664062 61.769531 -108.484375 61.546875 -108.484375 C 61.328125 -108.484375 61.148438 -108.664062 61.148438 -108.882812 C 61.148438 -109.105469 61.328125 -109.285156 61.546875 -109.285156 C 61.769531 -109.285156 61.949219 -109.105469 61.949219 -108.882812 Z M 61.949219 -108.882812 " transform="matrix(1,0,0,1,4,206)"/>
<path style="fill:none;stroke-width:1;stroke-linecap:butt;stroke-linejoin:miter;stroke:rgb(33.725491%,70.588237%,91.37255%);stroke-opacity:0.501961;stroke-dasharray:5,2;stroke-miterlimit:4;" d="M 82 -57 C 82 -52.03125 77.96875 -48 73 -48 C 68.03125 -48 64 -52.03125 64 -57 C 64 -61.96875 68.03125 -66 73 -66 C 77.96875 -66 82 -61.96875 82 -57 Z M 82 -57 " transform="matrix(1,0,0,1,4,206)"/>
<path style="fill:none;stroke-width:1;stroke-linecap:butt;stroke-linejoin:miter;stroke:rgb(33.725491%,70.588237%,91.37255%);stroke-opacity:0.501961;stroke-dasharray:5,2;stroke-miterlimit:4;" d="M 86 -57 C 86 -49.820312 80.179688 -44 73 -44 C 65.820312 -44 60 -49.820312 60 -57 C 60 -64.179688 65.820312 -70 73 -70 C 80.179688 -70 86 -64.179688 86 -57 Z M 86 -57 " transform="matrix(1,0,0,1,4,206)"/>
<path style=" stroke:none;fill-rule:nonzero;fill:rgb(0%,0%,0%);fill-opacity:1;" d="M 76.585938 149.800781 L 76.046875 149.800781 L 76.046875 147.828125 L 74.332031 147.828125 L 74.332031 149.800781 L 73.796875 149.800781 L 73.796875 145.535156 L 74.332031 145.535156 L 74.332031 147.371094 L 76.046875 147.371094 L 76.046875 145.535156 L 76.585938 145.535156 Z M 73.335938 144.234375 "/>
<path style=" stroke:none;fill-rule:nonzero;fill:rgb(0%,0%,0%);fill-opacity:1;" d="M 79.96875 149.566406 L 80.445312 149.566406 L 80.445312 150.007812 L 79.96875 150.007812 L 79.96875 151 L 79.453125 151 L 79.453125 150.007812 L 77.839844 150.007812 L 77.839844 149.691406 L 79.425781 146.734375 L 79.96875 146.734375 Z M 78.414062 149.566406 L 79.453125 149.566406 L 79.453125 147.539062 Z M 77.664062 145.433594 "/>
<path style="fill:none;stroke-width:1;stroke-linecap:butt;stroke-linejoin:miter;stroke:rgb(74.901962%,74.901962%,74.901962%);stroke-opacity:1;stroke-miterlimit:4;" d="M 18.996094 -133.132812 C 30.332031 -117.152344 52.660156 -85.671875 64.753906 -68.628906 " transform="matrix(1,0,0,1,4,206)"/>
<path style="fill-rule:nonzero;fill:rgb(74.901962%,74.901962%,74.901962%);fill-opacity:1;stroke-width:1;stroke-linecap:butt;stroke-linejoin:miter;stroke:rgb(74.901962%,74.901962%,74.901962%);stroke-opacity:1;stroke-miterlimit:4;" d="M 65.488281 -68.152344 C 65.488281 -67.933594 65.308594 -67.753906 65.089844 -67.753906 C 64.867188 -67.753906 64.6875 -67.933594 64.6875 -68.152344 C 64.6875 -68.375 64.867188 -68.554688 65.089844 -68.554688 C 65.308594 -68.554688 65.488281 -68.375 65.488281 -68.152344 Z M 65.488281 -68.152344 " transform="matrix(1,0,0,1,4,206)"/>
<path style="fill:none;stroke-width:1;stroke-linecap:butt;stroke-linejoin:miter;stroke:rgb(33.725491%,70.588237%,91.37255%);stroke-opacity:0.501961;stroke-dasharray:5,2;stroke-miterlimit:4;" d="M 82 -13 C 82 -8.03125 77.96875 -4 73 -4 C 68.03125 -4 64 -8.03125 64 -13 C 64 -17.96875 68.03125 -22 73 -22 C 77.96875 -22 82 -17.96875 82 -13 Z M 82 -13 " transform="matrix(1,0,0,1,4,206)"/>
<path style="fill:none;stroke-width:1;stroke-linecap:butt;stroke-linejoin:miter;stroke:rgb(33.725491%,70.588237%,91.37255%);stroke-opacity:0.501961;stroke-dasharray:5,2;stroke-miterlimit:4;" d="M 86 -13 C 86 -5.820312 80.179688 0 73 0 C 65.820312 0 60 -5.820312 60 -13 C 60 -20.179688 65.820312 -26 73 -26 C 80.179688 -26 86 -20.179688 86 -13 Z M 86 -13 " transform="matrix(1,0,0,1,4,206)"/>
<path style=" stroke:none;fill-rule:nonzero;fill:rgb(0%,0%,0%);fill-opacity:1;" d="M 76.585938 193.800781 L 76.046875 193.800781 L 76.046875 191.828125 L 74.332031 191.828125 L 74.332031 193.800781 L 73.796875 193.800781 L 73.796875 189.535156 L 74.332031 189.535156 L 74.332031 191.371094 L 76.046875 191.371094 L 76.046875 189.535156 L 76.585938 189.535156 Z M 73.335938 188.234375 "/>
<path style=" stroke:none;fill-rule:nonzero;fill:rgb(0%,0%,0%);fill-opacity:1;" d="M 78.21875 192.859375 L 78.402344 190.734375 L 80.257812 190.734375 L 80.257812 191.234375 L 78.839844 191.234375 L 78.738281 192.398438 C 78.914062 192.273438 79.105469 192.214844 79.308594 192.214844 C 79.640625 192.214844 79.898438 192.34375 80.089844 192.601562 C 80.28125 192.859375 80.375 193.203125 80.375 193.640625 C 80.375 194.082031 80.269531 194.429688 80.066406 194.679688 C 79.859375 194.933594 79.578125 195.058594 79.21875 195.058594 C 78.898438 195.058594 78.636719 194.953125 78.433594 194.746094 C 78.234375 194.535156 78.117188 194.246094 78.089844 193.878906 L 78.574219 193.878906 C 78.605469 194.121094 78.675781 194.304688 78.785156 194.429688 C 78.894531 194.554688 79.039062 194.617188 79.21875 194.617188 C 79.417969 194.617188 79.574219 194.527344 79.6875 194.355469 C 79.800781 194.179688 79.859375 193.945312 79.859375 193.648438 C 79.859375 193.367188 79.796875 193.140625 79.675781 192.964844 C 79.554688 192.789062 79.390625 192.699219 79.179688 192.699219 C 79.007812 192.699219 78.871094 192.746094 78.769531 192.835938 L 78.632812 192.972656 Z M 77.664062 189.433594 "/>
<path style="fill:none;stroke-width:1;stroke-linecap:butt;stroke-linejoin:miter;stroke:rgb(74.901962%,74.901962%,74.901962%);stroke-opacity:1;stroke-miterlimit:4;" d="M 18.371094 -132.457031 C 20.273438 -129.15625 22.300781 -125.46875 24 -122 C 42.417969 -84.425781 41.308594 -72.441406 60 -35 C 61.652344 -31.691406 63.605469 -28.203125 65.492188 -25.003906 " transform="matrix(1,0,0,1,4,206)"/>
<path style="fill-rule:nonzero;fill:rgb(74.901962%,74.901962%,74.901962%);fill-opacity:1;stroke-width:1;stroke-linecap:butt;stroke-linejoin:miter;stroke:rgb(74.901962%,74.901962%,74.901962%);stroke-opacity:1;stroke-miterlimit:4;" d="M 66.269531 -24.367188 C 66.269531 -24.144531 66.089844 -23.964844 65.871094 -23.964844 C 65.648438 -23.964844 65.46875 -24.144531 65.46875 -24.367188 C 65.46875 -24.585938 65.648438 -24.765625 65.871094 -24.765625 C 66.089844 -24.765625 66.269531 -24.585938 66.269531 -24.367188 Z M 66.269531 -24.367188 " transform="matrix(1,0,0,1,4,206)"/>
<path style="fill:none;stroke-width:1;stroke-linecap:butt;stroke-linejoin:miter;stroke:rgb(33.725491%,70.588237%,91.37255%);stroke-opacity:0.501961;stroke-dasharray:5,2;stroke-miterlimit:4;" d="M 82 -189 C 82 -184.03125 77.96875 -180 73 -180 C 68.03125 -180 64 -184.03125 64 -189 C 64 -193.96875 68.03125 -198 73 -198 C 77.96875 -198 82 -193.96875 82 -189 Z M 82 -189 " transform="matrix(1,0,0,1,4,206)"/>
<path style="fill:none;stroke-width:1;stroke-linecap:butt;stroke-linejoin:miter;stroke:rgb(33.725491%,70.588237%,91.37255%);stroke-opacity:0.501961;stroke-dasharray:5,2;stroke-miterlimit:4;" d="M 86 -189 C 86 -181.820312 80.179688 -176 73 -176 C 65.820312 -176 60 -181.820312 60 -189 C 60 -196.179688 65.820312 -202 73 -202 C 80.179688 -202 86 -196.179688 86 -189 Z M 86 -189 " transform="matrix(1,0,0,1,4,206)"/>
<path style=" stroke:none;fill-rule:nonzero;fill:rgb(0%,0%,0%);fill-opacity:1;" d="M 76.585938 17.800781 L 76.046875 17.800781 L 76.046875 15.828125 L 74.332031 15.828125 L 74.332031 17.800781 L 73.796875 17.800781 L 73.796875 13.535156 L 74.332031 13.535156 L 74.332031 15.371094 L 76.046875 15.371094 L 76.046875 13.535156 L 76.585938 13.535156 Z M 73.335938 12.234375 "/>
<path style=" stroke:none;fill-rule:nonzero;fill:rgb(0%,0%,0%);fill-opacity:1;" d="M 79.550781 19 L 79.03125 19 L 79.03125 15.386719 L 78.132812 15.789062 L 78.132812 15.296875 L 79.46875 14.714844 L 79.550781 14.714844 Z M 77.664062 13.433594 "/>
<path style="fill:none;stroke-width:1;stroke-linecap:butt;stroke-linejoin:miter;stroke:rgb(74.901962%,74.901962%,74.901962%);stroke-opacity:1;stroke-miterlimit:4;" d="M 21.800781 -150.390625 C 32.71875 -158.625 50.339844 -171.914062 61.796875 -180.550781 " transform="matrix(1,0,0,1,4,206)"/>
<path style="fill-rule:nonzero;fill:rgb(74.901962%,74.901962%,74.901962%);fill-opacity:1;stroke-width:1;stroke-linecap:butt;stroke-linejoin:miter;stroke:rgb(74.901962%,74.901962%,74.901962%);stroke-opacity:1;stroke-miterlimit:4;" d="M 62.691406 -180.925781 C 62.691406 -180.703125 62.511719 -180.523438 62.292969 -180.523438 C 62.070312 -180.523438 61.890625 -180.703125 61.890625 -180.925781 C 61.890625 -181.144531 62.070312 -181.324219 62.292969 -181.324219 C 62.511719 -181.324219 62.691406 -181.144531 62.691406 -180.925781 Z M 62.691406 -180.925781 " transform="matrix(1,0,0,1,4,206)"/>
<path style="fill:none;stroke-width:1;stroke-linecap:butt;stroke-linejoin:miter;stroke:rgb(49.803922%,49.803922%,49.803922%);stroke-opacity:1;stroke-miterlimit:4;" d="M 24 -101 C 24 -94.371094 18.628906 -89 12 -89 C 5.371094 -89 0 -94.371094 0 -101 C 0 -107.628906 5.371094 -113 12 -113 C 18.628906 -113 24 -107.628906 24 -101 Z M 24 -101 " transform="matrix(1,0,0,1,4,206)"/>
<path style=" stroke:none;fill-rule:nonzero;fill:rgb(0%,0%,0%);fill-opacity:1;" d="M 13.992188 103.167969 L 14.796875 101.535156 L 15.425781 101.535156 L 14.316406 103.652344 L 15.449219 105.800781 L 14.8125 105.800781 L 13.992188 104.136719 L 13.171875 105.800781 L 12.535156 105.800781 L 13.675781 103.652344 L 12.558594 101.535156 L 13.1875 101.535156 Z M 12.335938 100.234375 "/>
<path style=" stroke:none;fill-rule:nonzero;fill:rgb(0%,0%,0%);fill-opacity:1;" d="M 19.390625 107 L 17.007812 107 L 17.007812 106.609375 L 18.222656 105 C 18.40625 104.75 18.535156 104.546875 18.605469 104.386719 C 18.675781 104.226562 18.710938 104.0625 18.710938 103.882812 C 18.710938 103.65625 18.660156 103.472656 18.554688 103.332031 C 18.449219 103.191406 18.308594 103.121094 18.136719 103.121094 C 17.921875 103.121094 17.753906 103.195312 17.636719 103.34375 C 17.515625 103.492188 17.457031 103.710938 17.457031 103.992188 L 16.9375 103.992188 C 16.9375 103.597656 17.046875 103.28125 17.261719 103.039062 C 17.476562 102.796875 17.769531 102.675781 18.136719 102.675781 C 18.476562 102.675781 18.746094 102.78125 18.941406 102.988281 C 19.136719 103.195312 19.234375 103.472656 19.234375 103.820312 C 19.234375 104.242188 19.015625 104.738281 18.574219 105.316406 L 17.625 106.558594 L 19.390625 106.558594 Z M 16.664062 101.433594 "/>
<path style="fill:none;stroke-width:1;stroke-linecap:butt;stroke-linejoin:miter;stroke:rgb(74.901962%,74.901962%,74.901962%);stroke-opacity:1;stroke-miterlimit:4;" d="M 21.800781 -108.070312 C 32.589844 -115.851562 49.917969 -128.351562 61.378906 -136.617188 " transform="matrix(1,0,0,1,4,206)"/>
<path style="fill-rule:nonzero;fill:rgb(74.901962%,74.901962%,74.901962%);fill-opacity:1;stroke-width:1;stroke-linecap:butt;stroke-linejoin:miter;stroke:rgb(74.901962%,74.901962%,74.901962%);stroke-opacity:1;stroke-miterlimit:4;" d="M 62.269531 -136.972656 C 62.269531 -136.75 62.09375 -136.574219 61.871094 -136.574219 C 61.648438 -136.574219 61.472656 -136.75 61.472656 -136.972656 C 61.472656 -137.195312 61.648438 -137.371094 61.871094 -137.371094 C 62.09375 -137.371094 62.269531 -137.195312 62.269531 -136.972656 Z M 62.269531 -136.972656 " transform="matrix(1,0,0,1,4,206)"/>
<path style="fill:none;stroke-width:1;stroke-linecap:butt;stroke-linejoin:miter;stroke:rgb(74.901962%,74.901962%,74.901962%);stroke-opacity:1;stroke-miterlimit:4;" d="M 24.050781 -101 C 34.007812 -101 48.164062 -101 58.695312 -101 " transform="matrix(1,0,0,1,4,206)"/>
<path style="fill-rule:nonzero;fill:rgb(74.901962%,74.901962%,74.901962%);fill-opacity:1;stroke-width:1;stroke-linecap:butt;stroke-linejoin:miter;stroke:rgb(74.901962%,74.901962%,74.901962%);stroke-opacity:1;stroke-miterlimit:4;" d="M 59.703125 -101 C 59.703125 -100.777344 59.523438 -100.601562 59.304688 -100.601562 C 59.082031 -100.601562 58.902344 -100.777344 58.902344 -101 C 58.902344 -101.222656 59.082031 -101.398438 59.304688 -101.398438 C 59.523438 -101.398438 59.703125 -101.222656 59.703125 -101 Z M 59.703125 -101 " transform="matrix(1,0,0,1,4,206)"/>
<path style="fill:none;stroke-width:1;stroke-linecap:butt;stroke-linejoin:miter;stroke:rgb(74.901962%,74.901962%,74.901962%);stroke-opacity:1;stroke-miterlimit:4;" d="M 21.800781 -93.929688 C 32.589844 -86.148438 49.917969 -73.648438 61.378906 -65.382812 " transform="matrix(1,0,0,1,4,206)"/>
<path style="fill-rule:nonzero;fill:rgb(74.901962%,74.901962%,74.901962%);fill-opacity:1;stroke-width:1;stroke-linecap:butt;stroke-linejoin:miter;stroke:rgb(74.901962%,74.901962%,74.901962%);stroke-opacity:1;stroke-miterlimit:4;" d="M 62.269531 -65.027344 C 62.269531 -64.804688 62.09375 -64.628906 61.871094 -64.628906 C 61.648438 -64.628906 61.472656 -64.804688 61.472656 -65.027344 C 61.472656 -65.25 61.648438 -65.425781 61.871094 -65.425781 C 62.09375 -65.425781 62.269531 -65.25 62.269531 -65.027344 Z M 62.269531 -65.027344 " transform="matrix(1,0,0,1,4,206)"/>
<path style="fill:none;stroke-width:1;stroke-linecap:butt;stroke-linejoin:miter;stroke:rgb(74.901962%,74.901962%,74.901962%);stroke-opacity:1;stroke-miterlimit:4;" d="M 18.996094 -90.90625 C 30.394531 -74.460938 52.90625 -41.988281 64.949219 -24.613281 " transform="matrix(1,0,0,1,4,206)"/>
<path style="fill-rule:nonzero;fill:rgb(74.901962%,74.901962%,74.901962%);fill-opacity:1;stroke-width:1;stroke-linecap:butt;stroke-linejoin:miter;stroke:rgb(74.901962%,74.901962%,74.901962%);stroke-opacity:1;stroke-miterlimit:4;" d="M 65.6875 -24.128906 C 65.6875 -23.90625 65.507812 -23.726562 65.285156 -23.726562 C 65.066406 -23.726562 64.886719 -23.90625 64.886719 -24.128906 C 64.886719 -24.347656 65.066406 -24.527344 65.285156 -24.527344 C 65.507812 -24.527344 65.6875 -24.347656 65.6875 -24.128906 Z M 65.6875 -24.128906 " transform="matrix(1,0,0,1,4,206)"/>
<path style="fill:none;stroke-width:1;stroke-linecap:butt;stroke-linejoin:miter;stroke:rgb(74.901962%,74.901962%,74.901962%);stroke-opacity:1;stroke-miterlimit:4;" d="M 18.996094 -111.09375 C 30.394531 -127.539062 52.90625 -160.011719 64.949219 -177.386719 " transform="matrix(1,0,0,1,4,206)"/>
<path style="fill-rule:nonzero;fill:rgb(74.901962%,74.901962%,74.901962%);fill-opacity:1;stroke-width:1;stroke-linecap:butt;stroke-linejoin:miter;stroke:rgb(74.901962%,74.901962%,74.901962%);stroke-opacity:1;stroke-miterlimit:4;" d="M 65.6875 -177.871094 C 65.6875 -177.652344 65.507812 -177.472656 65.285156 -177.472656 C 65.066406 -177.472656 64.886719 -177.652344 64.886719 -177.871094 C 64.886719 -178.09375 65.066406 -178.273438 65.285156 -178.273438 C 65.507812 -178.273438 65.6875 -178.09375 65.6875 -177.871094 Z M 65.6875 -177.871094 " transform="matrix(1,0,0,1,4,206)"/>
<path style="fill:none;stroke-width:1;stroke-linecap:butt;stroke-linejoin:miter;stroke:rgb(49.803922%,49.803922%,49.803922%);stroke-opacity:1;stroke-miterlimit:4;" d="M 24 -59 C 24 -52.371094 18.628906 -47 12 -47 C 5.371094 -47 0 -52.371094 0 -59 C 0 -65.628906 5.371094 -71 12 -71 C 18.628906 -71 24 -65.628906 24 -59 Z M 24 -59 " transform="matrix(1,0,0,1,4,206)"/>
<path style=" stroke:none;fill-rule:nonzero;fill:rgb(0%,0%,0%);fill-opacity:1;" d="M 13.992188 145.167969 L 14.796875 143.535156 L 15.425781 143.535156 L 14.316406 145.652344 L 15.449219 147.800781 L 14.8125 147.800781 L 13.992188 146.136719 L 13.171875 147.800781 L 12.535156 147.800781 L 13.675781 145.652344 L 12.558594 143.535156 L 13.1875 143.535156 Z M 12.335938 142.234375 "/>
<path style=" stroke:none;fill-rule:nonzero;fill:rgb(0%,0%,0%);fill-opacity:1;" d="M 17.667969 146.601562 L 18 146.601562 C 18.210938 146.601562 18.375 146.539062 18.492188 146.40625 C 18.609375 146.277344 18.664062 146.097656 18.664062 145.871094 C 18.664062 145.371094 18.472656 145.121094 18.085938 145.121094 C 17.898438 145.121094 17.753906 145.1875 17.648438 145.324219 C 17.542969 145.457031 17.492188 145.632812 17.492188 145.851562 L 16.976562 145.851562 C 16.976562 145.511719 17.078125 145.230469 17.285156 145.007812 C 17.492188 144.785156 17.761719 144.675781 18.085938 144.675781 C 18.421875 144.675781 18.6875 144.78125 18.882812 144.992188 C 19.082031 145.203125 19.179688 145.5 19.179688 145.882812 C 19.179688 146.078125 19.128906 146.265625 19.027344 146.433594 C 18.925781 146.605469 18.789062 146.730469 18.625 146.8125 C 19.027344 146.960938 19.230469 147.292969 19.230469 147.8125 C 19.230469 148.191406 19.125 148.496094 18.914062 148.71875 C 18.703125 148.945312 18.421875 149.058594 18.082031 149.058594 C 17.742188 149.058594 17.472656 148.953125 17.261719 148.738281 C 17.054688 148.523438 16.953125 148.234375 16.953125 147.875 L 17.46875 147.875 C 17.46875 148.101562 17.523438 148.28125 17.632812 148.414062 C 17.742188 148.546875 17.890625 148.617188 18.082031 148.617188 C 18.273438 148.617188 18.429688 148.550781 18.542969 148.421875 C 18.65625 148.289062 18.714844 148.089844 18.714844 147.820312 C 18.714844 147.304688 18.46875 147.046875 17.980469 147.046875 L 17.667969 147.046875 Z M 16.664062 143.433594 "/>
<path style="fill:none;stroke-width:1;stroke-linecap:butt;stroke-linejoin:miter;stroke:rgb(74.901962%,74.901962%,74.901962%);stroke-opacity:1;stroke-miterlimit:4;" d="M 18.996094 -68.867188 C 30.332031 -84.847656 52.660156 -116.328125 64.753906 -133.371094 " transform="matrix(1,0,0,1,4,206)"/>
<path style="fill-rule:nonzero;fill:rgb(74.901962%,74.901962%,74.901962%);fill-opacity:1;stroke-width:1;stroke-linecap:butt;stroke-linejoin:miter;stroke:rgb(74.901962%,74.901962%,74.901962%);stroke-opacity:1;stroke-miterlimit:4;" d="M 65.488281 -133.847656 C 65.488281 -133.625 65.308594 -133.445312 65.089844 -133.445312 C 64.867188 -133.445312 64.6875 -133.625 64.6875 -133.847656 C 64.6875 -134.066406 64.867188 -134.246094 65.089844 -134.246094 C 65.308594 -134.246094 65.488281 -134.066406 65.488281 -133.847656 Z M 65.488281 -133.847656 " transform="matrix(1,0,0,1,4,206)"/>
<path style="fill:none;stroke-width:1;stroke-linecap:butt;stroke-linejoin:miter;stroke:rgb(74.901962%,74.901962%,74.901962%);stroke-opacity:1;stroke-miterlimit:4;" d="M 22.074219 -65.933594 C 32.78125 -73.308594 49.703125 -84.960938 61.070312 -92.785156 " transform="matrix(1,0,0,1,4,206)"/>
<path style="fill-rule:nonzero;fill:rgb(74.901962%,74.901962%,74.901962%);fill-opacity:1;stroke-width:1;stroke-linecap:butt;stroke-linejoin:miter;stroke:rgb(74.901962%,74.901962%,74.901962%);stroke-opacity:1;stroke-miterlimit:4;" d="M 61.949219 -93.117188 C 61.949219 -92.894531 61.769531 -92.714844 61.546875 -92.714844 C 61.328125 -92.714844 61.148438 -92.894531 61.148438 -93.117188 C 61.148438 -93.335938 61.328125 -93.515625 61.546875 -93.515625 C 61.769531 -93.515625 61.949219 -93.335938 61.949219 -93.117188 Z M 61.949219 -93.117188 " transform="matrix(1,0,0,1,4,206)"/>
<path style="fill:none;stroke-width:1;stroke-linecap:butt;stroke-linejoin:miter;stroke:rgb(74.901962%,74.901962%,74.901962%);stroke-opacity:1;stroke-miterlimit:4;" d="M 24.050781 -58.605469 C 34.007812 -58.277344 48.164062 -57.8125 58.695312 -57.46875 " transform="matrix(1,0,0,1,4,206)"/>
<path style="fill-rule:nonzero;fill:rgb(74.901962%,74.901962%,74.901962%);fill-opacity:1;stroke-width:1;stroke-linecap:butt;stroke-linejoin:miter;stroke:rgb(74.901962%,74.901962%,74.901962%);stroke-opacity:1;stroke-miterlimit:4;" d="M 59.703125 -57.449219 C 59.703125 -57.226562 59.523438 -57.050781 59.304688 -57.050781 C 59.082031 -57.050781 58.902344 -57.226562 58.902344 -57.449219 C 58.902344 -57.671875 59.082031 -57.847656 59.304688 -57.847656 C 59.523438 -57.847656 59.703125 -57.671875 59.703125 -57.449219 Z M 59.703125 -57.449219 " transform="matrix(1,0,0,1,4,206)"/>
<path style="fill:none;stroke-width:1;stroke-linecap:butt;stroke-linejoin:miter;stroke:rgb(74.901962%,74.901962%,74.901962%);stroke-opacity:1;stroke-miterlimit:4;" d="M 21.800781 -51.609375 C 32.71875 -43.375 50.339844 -30.085938 61.796875 -21.449219 " transform="matrix(1,0,0,1,4,206)"/>
<path style="fill-rule:nonzero;fill:rgb(74.901962%,74.901962%,74.901962%);fill-opacity:1;stroke-width:1;stroke-linecap:butt;stroke-linejoin:miter;stroke:rgb(74.901962%,74.901962%,74.901962%);stroke-opacity:1;stroke-miterlimit:4;" d="M 62.691406 -21.074219 C 62.691406 -20.855469 62.511719 -20.675781 62.292969 -20.675781 C 62.070312 -20.675781 61.890625 -20.855469 61.890625 -21.074219 C 61.890625 -21.296875 62.070312 -21.476562 62.292969 -21.476562 C 62.511719 -21.476562 62.691406 -21.296875 62.691406 -21.074219 Z M 62.691406 -21.074219 " transform="matrix(1,0,0,1,4,206)"/>
<path style="fill:none;stroke-width:1;stroke-linecap:butt;stroke-linejoin:miter;stroke:rgb(74.901962%,74.901962%,74.901962%);stroke-opacity:1;stroke-miterlimit:4;" d="M 18.371094 -69.542969 C 20.273438 -72.84375 22.300781 -76.53125 24 -80 C 42.417969 -117.574219 41.308594 -129.558594 60 -167 C 61.652344 -170.308594 63.605469 -173.796875 65.492188 -176.996094 " transform="matrix(1,0,0,1,4,206)"/>
<path style="fill-rule:nonzero;fill:rgb(74.901962%,74.901962%,74.901962%);fill-opacity:1;stroke-width:1;stroke-linecap:butt;stroke-linejoin:miter;stroke:rgb(74.901962%,74.901962%,74.901962%);stroke-opacity:1;stroke-miterlimit:4;" d="M 66.269531 -177.632812 C 66.269531 -177.414062 66.089844 -177.234375 65.871094 -177.234375 C 65.648438 -177.234375 65.46875 -177.414062 65.46875 -177.632812 C 65.46875 -177.855469 65.648438 -178.035156 65.871094 -178.035156 C 66.089844 -178.035156 66.269531 -177.855469 66.269531 -177.632812 Z M 66.269531 -177.632812 " transform="matrix(1,0,0,1,4,206)"/>
</g>
</svg>
