<?xml version="1.0" encoding="UTF-8"?>
<svg xmlns="http://www.w3.org/2000/svg" xmlns:xlink="http://www.w3.org/1999/xlink" width="238pt" height="150pt" viewBox="0 0 238 150" version="1.1">
<g id="surface340">
<path style="fill:none;stroke-width:0.5;stroke-linecap:butt;stroke-linejoin:miter;stroke:rgb(49.803922%,49.803922%,49.803922%);stroke-opacity:1;stroke-miterlimit:4;" d="M 22.001355 -131.001622 C 22.001355 -124.925111 17.075937 -119.999693 10.999427 -119.999693 C 4.922917 -119.999693 0.00141319 -124.925111 0.00141319 -131.001622 C 0.00141319 -137.074216 4.922917 -141.999635 10.999427 -141.999635 C 17.075937 -141.999635 22.001355 -137.074216 22.001355 -131.001622 Z M 22.001355 -131.001622 " transform="matrix(0.997694,0,0,0.997694,3.990778,145.836302)"/>
<path style=" stroke:none;fill-rule:nonzero;fill:rgb(25.098041%,25.098041%,25.098041%);fill-opacity:1;" d="M 12.132812 15.9375 L 11.429688 15.9375 L 12.964844 13.734375 L 11.523438 11.640625 L 12.253906 11.640625 L 13.347656 13.289062 L 14.433594 11.640625 L 15.128906 11.640625 L 13.6875 13.734375 L 15.199219 15.9375 L 14.476562 15.9375 L 13.320312 14.171875 Z M 11.304688 11.328125 "/>
<path style=" stroke:none;fill-rule:nonzero;fill:rgb(25.098041%,25.098041%,25.098041%);fill-opacity:1;" d="M 15.871094 14.171875 L 15.871094 13.765625 C 16.246094 13.726562 16.511719 13.667969 16.664062 13.578125 C 16.816406 13.492188 16.925781 13.292969 17 12.964844 L 17.417969 12.964844 L 17.417969 17.132812 L 16.855469 17.132812 L 16.855469 14.171875 Z M 15.296875 12.523438 "/>
<path style="fill:none;stroke-width:1;stroke-linecap:butt;stroke-linejoin:miter;stroke:rgb(33.725491%,70.588237%,91.37255%);stroke-opacity:0.501961;stroke-dasharray:5,2;stroke-miterlimit:4;" d="M 94.55144 -71 C 94.55144 -64.371436 89.17968 -58.999676 82.555031 -58.999676 C 75.926467 -58.999676 70.554707 -64.371436 70.554707 -71 C 70.554707 -77.628564 75.926467 -83.000324 82.555031 -83.000324 C 89.17968 -83.000324 94.55144 -77.628564 94.55144 -71 Z M 94.55144 -71 " transform="matrix(0.997694,0,0,0.997694,3.990778,145.836302)"/>
<path style="fill:none;stroke-width:1;stroke-linecap:butt;stroke-linejoin:miter;stroke:rgb(33.725491%,70.588237%,91.37255%);stroke-opacity:0.501961;stroke-dasharray:5,2;stroke-miterlimit:4;" d="M 98.552853 -71 C 98.552853 -62.16322 91.391811 -54.998262 82.555031 -54.998262 C 73.71825 -54.998262 66.553293 -62.16322 66.553293 -71 C 66.553293 -79.83678 73.71825 -87.001738 82.555031 -87.001738 C 91.391811 -87.001738 98.552853 -79.83678 98.552853 -71 Z M 98.552853 -71 " transform="matrix(0.997694,0,0,0.997694,3.990778,145.836302)"/>
<path style="fill:none;stroke-width:0.5;stroke-linecap:butt;stroke-linejoin:miter;stroke:rgb(32.941177%,32.941177%,32.941177%);stroke-opacity:1;stroke-miterlimit:4;" d="M 19.487747 -123.879732 C 31.582038 -113.739165 53.922609 -95.008479 68.507017 -82.777154 " transform="matrix(0.997694,0,0,0.997694,3.990778,145.836302)"/>
<path style="fill-rule:nonzero;fill:rgb(32.941177%,32.941177%,32.941177%);fill-opacity:1;stroke-width:0.5;stroke-linecap:butt;stroke-linejoin:miter;stroke:rgb(32.941177%,32.941177%,32.941177%);stroke-opacity:1;stroke-miterlimit:4;" d="M 70.480316 -81.962776 C 70.480316 -81.410722 70.030059 -80.96438 69.478005 -80.96438 C 68.925951 -80.96438 68.47961 -81.410722 68.47961 -81.962776 C 68.47961 -82.51483 68.925951 -82.965087 69.478005 -82.965087 C 70.030059 -82.965087 70.480316 -82.51483 70.480316 -81.962776 Z M 70.480316 -81.962776 " transform="matrix(0.997694,0,0,0.997694,3.990778,145.836302)"/>
<path style=" stroke:none;fill-rule:nonzero;fill:rgb(25.098041%,25.098041%,25.098041%);fill-opacity:1;" d="M 47.144531 33.925781 C 47.007812 33.941406 46.90625 33.964844 46.839844 33.996094 C 46.773438 34.023438 46.742188 34.082031 46.742188 34.171875 C 46.742188 34.21875 46.75 34.269531 46.761719 34.320312 C 46.777344 34.371094 46.796875 34.433594 46.824219 34.5 L 47.445312 36.121094 L 48.054688 34.640625 C 48.082031 34.578125 48.109375 34.492188 48.140625 34.390625 C 48.171875 34.285156 48.1875 34.207031 48.1875 34.15625 C 48.1875 34.070312 48.164062 34.015625 48.113281 33.984375 C 48.058594 33.957031 47.984375 33.933594 47.882812 33.917969 L 47.882812 33.820312 L 48.746094 33.820312 L 48.746094 33.917969 C 48.691406 33.929688 48.644531 33.957031 48.605469 34.003906 C 48.570312 34.046875 48.519531 34.148438 48.453125 34.308594 L 47.363281 37 C 47.355469 37.019531 47.347656 37.035156 47.339844 37.042969 C 47.332031 37.050781 47.320312 37.058594 47.308594 37.058594 C 47.28125 37.042969 47.265625 37.03125 47.261719 37.023438 L 46.488281 35.121094 L 45.59375 37.015625 C 45.589844 37.027344 45.582031 37.035156 45.574219 37.042969 C 45.566406 37.050781 45.558594 37.058594 45.546875 37.058594 C 45.519531 37.042969 45.503906 37.03125 45.496094 37.023438 L 44.480469 34.511719 C 44.367188 34.234375 44.292969 34.074219 44.257812 34.023438 C 44.222656 33.976562 44.148438 33.941406 44.042969 33.925781 L 44.042969 33.820312 L 45.300781 33.820312 L 45.300781 33.925781 C 45.199219 33.933594 45.117188 33.953125 45.0625 33.984375 C 45.007812 34.011719 44.976562 34.074219 44.976562 34.167969 C 44.976562 34.234375 45.023438 34.394531 45.117188 34.652344 C 45.171875 34.800781 45.242188 34.980469 45.328125 35.191406 L 45.714844 36.15625 L 46.332031 34.84375 L 46.339844 34.800781 C 46.339844 34.753906 46.3125 34.671875 46.265625 34.546875 C 46.214844 34.421875 46.167969 34.3125 46.121094 34.214844 C 46.078125 34.113281 46.027344 34.039062 45.96875 34 C 45.910156 33.960938 45.828125 33.9375 45.722656 33.925781 L 45.722656 33.820312 L 47.144531 33.820312 Z M 43.898438 31.753906 "/>
<path style=" stroke:none;fill-rule:nonzero;fill:rgb(25.098041%,25.098041%,25.098041%);fill-opacity:1;" d="M 51.007812 33.699219 C 51.015625 33.710938 51.023438 33.71875 51.023438 33.722656 C 51.023438 33.730469 51.027344 33.742188 51.027344 33.761719 L 51.027344 37.871094 C 51.027344 38.046875 51.074219 38.15625 51.164062 38.207031 C 51.257812 38.253906 51.433594 38.28125 51.683594 38.292969 L 51.683594 38.386719 L 49.765625 38.386719 L 49.765625 38.285156 C 50.039062 38.269531 50.21875 38.234375 50.300781 38.171875 C 50.386719 38.109375 50.429688 37.976562 50.429688 37.769531 L 50.429688 34.613281 C 50.429688 34.503906 50.414062 34.421875 50.386719 34.363281 C 50.359375 34.308594 50.300781 34.277344 50.210938 34.277344 C 50.148438 34.277344 50.074219 34.296875 49.976562 34.328125 C 49.882812 34.363281 49.800781 34.398438 49.71875 34.433594 L 49.71875 34.335938 L 50.96875 33.699219 Z M 48.941406 33.148438 "/>
<path style="fill:none;stroke-width:0.5;stroke-linecap:butt;stroke-linejoin:miter;stroke:rgb(49.803922%,49.803922%,49.803922%);stroke-opacity:1;stroke-miterlimit:4;" d="M 22.001355 -90.999235 C 22.001355 -84.926641 17.075937 -80.001222 10.999427 -80.001222 C 4.922917 -80.001222 0.00141319 -84.926641 0.00141319 -90.999235 C 0.00141319 -97.075745 4.922917 -102.001164 10.999427 -102.001164 C 17.075937 -102.001164 22.001355 -97.075745 22.001355 -90.999235 Z M 22.001355 -90.999235 " transform="matrix(0.997694,0,0,0.997694,3.990778,145.836302)"/>
<path style=" stroke:none;fill-rule:nonzero;fill:rgb(25.098041%,25.098041%,25.098041%);fill-opacity:1;" d="M 12.132812 55.84375 L 11.429688 55.84375 L 12.964844 53.644531 L 11.523438 51.550781 L 12.253906 51.550781 L 13.347656 53.195312 L 14.433594 51.550781 L 15.128906 51.550781 L 13.6875 53.644531 L 15.199219 55.84375 L 14.476562 55.84375 L 13.320312 54.078125 Z M 11.304688 51.234375 "/>
<path style=" stroke:none;fill-rule:nonzero;fill:rgb(25.098041%,25.098041%,25.098041%);fill-opacity:1;" d="M 15.484375 57.042969 C 15.503906 56.683594 15.578125 56.367188 15.707031 56.097656 C 15.835938 55.832031 16.089844 55.589844 16.464844 55.375 L 17.027344 55.046875 C 17.277344 54.902344 17.457031 54.777344 17.558594 54.671875 C 17.71875 54.511719 17.792969 54.328125 17.792969 54.117188 C 17.792969 53.875 17.722656 53.683594 17.578125 53.539062 C 17.433594 53.394531 17.238281 53.324219 16.992188 53.324219 C 16.628906 53.324219 16.378906 53.460938 16.242188 53.734375 C 16.167969 53.875 16.128906 54.078125 16.121094 54.339844 L 15.585938 54.339844 C 15.59375 53.976562 15.660156 53.679688 15.789062 53.449219 C 16.015625 53.042969 16.417969 52.839844 16.996094 52.839844 C 17.476562 52.839844 17.824219 52.972656 18.042969 53.230469 C 18.265625 53.488281 18.375 53.777344 18.375 54.09375 C 18.375 54.429688 18.257812 54.71875 18.023438 54.953125 C 17.886719 55.09375 17.644531 55.261719 17.292969 55.460938 L 16.890625 55.675781 C 16.699219 55.78125 16.546875 55.882812 16.4375 55.980469 C 16.242188 56.148438 16.121094 56.339844 16.070312 56.542969 L 18.355469 56.542969 L 18.355469 57.042969 Z M 15.296875 52.429688 "/>
<path style="fill:none;stroke-width:0.5;stroke-linecap:butt;stroke-linejoin:miter;stroke:rgb(32.941177%,32.941177%,32.941177%);stroke-opacity:1;stroke-miterlimit:4;" d="M 21.868236 -87.96098 C 33.343913 -84.754368 51.608681 -79.648847 65.108556 -75.87452 " transform="matrix(0.997694,0,0,0.997694,3.990778,145.836302)"/>
<path style="fill-rule:nonzero;fill:rgb(32.941177%,32.941177%,32.941177%);fill-opacity:1;stroke-width:0.5;stroke-linecap:butt;stroke-linejoin:miter;stroke:rgb(32.941177%,32.941177%,32.941177%);stroke-opacity:1;stroke-miterlimit:4;" d="M 67.101432 -75.600451 C 67.101432 -75.048397 66.651175 -74.59814 66.099121 -74.59814 C 65.547067 -74.59814 65.100726 -75.048397 65.100726 -75.600451 C 65.100726 -76.152505 65.547067 -76.598846 66.099121 -76.598846 C 66.651175 -76.598846 67.101432 -76.152505 67.101432 -75.600451 Z M 67.101432 -75.600451 " transform="matrix(0.997694,0,0,0.997694,3.990778,145.836302)"/>
<path style=" stroke:none;fill-rule:nonzero;fill:rgb(25.098041%,25.098041%,25.098041%);fill-opacity:1;" d="M 47.144531 57.871094 C 47.007812 57.886719 46.90625 57.910156 46.839844 57.941406 C 46.773438 57.96875 46.742188 58.027344 46.742188 58.117188 C 46.742188 58.164062 46.75 58.214844 46.761719 58.265625 C 46.777344 58.316406 46.796875 58.378906 46.824219 58.445312 L 47.445312 60.066406 L 48.054688 58.585938 C 48.082031 58.523438 48.109375 58.4375 48.140625 58.335938 C 48.171875 58.230469 48.1875 58.152344 48.1875 58.101562 C 48.1875 58.015625 48.164062 57.960938 48.113281 57.929688 C 48.058594 57.902344 47.984375 57.878906 47.882812 57.863281 L 47.882812 57.765625 L 48.746094 57.765625 L 48.746094 57.863281 C 48.691406 57.875 48.644531 57.902344 48.605469 57.949219 C 48.570312 57.992188 48.519531 58.09375 48.453125 58.253906 L 47.363281 60.945312 C 47.355469 60.964844 47.347656 60.980469 47.339844 60.988281 C 47.332031 60.996094 47.320312 61.003906 47.308594 61.003906 C 47.28125 60.988281 47.265625 60.976562 47.261719 60.96875 L 46.488281 59.0625 L 45.59375 60.960938 C 45.589844 60.972656 45.582031 60.980469 45.574219 60.988281 C 45.566406 60.996094 45.558594 61.003906 45.546875 61.003906 C 45.519531 60.988281 45.503906 60.976562 45.496094 60.96875 L 44.480469 58.457031 C 44.367188 58.179688 44.292969 58.019531 44.257812 57.96875 C 44.222656 57.921875 44.148438 57.886719 44.042969 57.871094 L 44.042969 57.765625 L 45.300781 57.765625 L 45.300781 57.871094 C 45.199219 57.878906 45.117188 57.898438 45.0625 57.929688 C 45.007812 57.957031 44.976562 58.019531 44.976562 58.113281 C 44.976562 58.179688 45.023438 58.339844 45.117188 58.597656 C 45.171875 58.746094 45.242188 58.925781 45.328125 59.132812 L 45.714844 60.101562 L 46.332031 58.789062 L 46.339844 58.746094 C 46.339844 58.699219 46.3125 58.617188 46.265625 58.492188 C 46.214844 58.367188 46.167969 58.257812 46.121094 58.160156 C 46.078125 58.058594 46.027344 57.984375 45.96875 57.945312 C 45.910156 57.90625 45.828125 57.882812 45.722656 57.871094 L 45.722656 57.765625 L 47.144531 57.765625 Z M 43.898438 55.695312 "/>
<path style=" stroke:none;fill-rule:nonzero;fill:rgb(25.098041%,25.098041%,25.098041%);fill-opacity:1;" d="M 49.148438 62.253906 C 49.980469 61.386719 50.546875 60.75 50.84375 60.351562 C 51.144531 59.945312 51.292969 59.550781 51.292969 59.164062 C 51.292969 58.832031 51.203125 58.574219 51.019531 58.398438 C 50.835938 58.222656 50.617188 58.132812 50.367188 58.132812 C 50.054688 58.132812 49.804688 58.246094 49.613281 58.472656 C 49.503906 58.597656 49.402344 58.792969 49.304688 59.046875 L 49.15625 59.015625 C 49.269531 58.496094 49.464844 58.132812 49.734375 57.929688 C 50.003906 57.726562 50.296875 57.621094 50.609375 57.621094 C 50.992188 57.621094 51.304688 57.746094 51.542969 57.988281 C 51.777344 58.230469 51.898438 58.527344 51.898438 58.878906 C 51.898438 59.246094 51.769531 59.605469 51.515625 59.953125 C 51.257812 60.300781 50.699219 60.914062 49.839844 61.800781 L 51.40625 61.800781 C 51.621094 61.800781 51.773438 61.773438 51.863281 61.71875 C 51.953125 61.667969 52.050781 61.539062 52.164062 61.335938 L 52.253906 61.378906 L 51.871094 62.328125 L 49.148438 62.328125 Z M 48.941406 57.09375 "/>
<path style="fill:none;stroke-width:0.5;stroke-linecap:butt;stroke-linejoin:miter;stroke:rgb(49.803922%,49.803922%,49.803922%);stroke-opacity:1;stroke-miterlimit:4;" d="M 22.001355 -51.000765 C 22.001355 -44.924255 17.075937 -39.998836 10.999427 -39.998836 C 4.922917 -39.998836 0.00141319 -44.924255 0.00141319 -51.000765 C 0.00141319 -57.073359 4.922917 -61.998778 10.999427 -61.998778 C 17.075937 -61.998778 22.001355 -57.073359 22.001355 -51.000765 Z M 22.001355 -51.000765 " transform="matrix(0.997694,0,0,0.997694,3.990778,145.836302)"/>
<path style=" stroke:none;fill-rule:nonzero;fill:rgb(25.098041%,25.098041%,25.098041%);fill-opacity:1;" d="M 12.132812 95.753906 L 11.429688 95.753906 L 12.964844 93.550781 L 11.523438 91.457031 L 12.253906 91.457031 L 13.347656 93.101562 L 14.433594 91.457031 L 15.128906 91.457031 L 13.6875 93.550781 L 15.199219 95.753906 L 14.476562 95.753906 L 13.320312 93.988281 Z M 11.304688 91.140625 "/>
<path style=" stroke:none;fill-rule:nonzero;fill:rgb(25.098041%,25.098041%,25.098041%);fill-opacity:1;" d="M 16.851562 97.0625 C 16.355469 97.0625 16 96.925781 15.777344 96.65625 C 15.554688 96.382812 15.441406 96.054688 15.441406 95.664062 L 15.992188 95.664062 C 16.015625 95.9375 16.0625 96.128906 16.140625 96.253906 C 16.277344 96.472656 16.523438 96.582031 16.878906 96.582031 C 17.15625 96.582031 17.378906 96.507812 17.550781 96.359375 C 17.71875 96.210938 17.796875 96.023438 17.796875 95.789062 C 17.796875 95.5 17.710938 95.296875 17.535156 95.183594 C 17.359375 95.070312 17.113281 95.011719 16.800781 95.011719 C 16.765625 95.011719 16.726562 95.011719 16.691406 95.011719 C 16.65625 95.011719 16.621094 95.015625 16.582031 95.015625 L 16.582031 94.550781 C 16.636719 94.554688 16.683594 94.5625 16.71875 94.5625 C 16.757812 94.5625 16.796875 94.566406 16.839844 94.566406 C 17.035156 94.566406 17.199219 94.535156 17.324219 94.472656 C 17.546875 94.367188 17.660156 94.171875 17.660156 93.890625 C 17.660156 93.679688 17.585938 93.519531 17.4375 93.40625 C 17.289062 93.292969 17.117188 93.238281 16.917969 93.238281 C 16.566406 93.238281 16.324219 93.355469 16.191406 93.589844 C 16.117188 93.71875 16.074219 93.902344 16.0625 94.136719 L 15.546875 94.136719 C 15.546875 93.824219 15.609375 93.558594 15.734375 93.339844 C 15.949219 92.949219 16.324219 92.753906 16.863281 92.753906 C 17.292969 92.753906 17.621094 92.851562 17.851562 93.042969 C 18.085938 93.230469 18.203125 93.507812 18.203125 93.871094 C 18.203125 94.128906 18.132812 94.335938 17.996094 94.492188 C 17.910156 94.59375 17.796875 94.671875 17.667969 94.726562 C 17.882812 94.789062 18.054688 94.902344 18.179688 95.078125 C 18.304688 95.25 18.367188 95.460938 18.367188 95.710938 C 18.367188 96.109375 18.234375 96.433594 17.96875 96.683594 C 17.710938 96.9375 17.335938 97.0625 16.851562 97.0625 Z M 15.296875 92.339844 "/>
<path style="fill:none;stroke-width:0.5;stroke-linecap:butt;stroke-linejoin:miter;stroke:rgb(32.941177%,32.941177%,32.941177%);stroke-opacity:1;stroke-miterlimit:4;" d="M 21.868236 -54.03902 C 33.343913 -57.245632 51.608681 -62.351153 65.108556 -66.12548 " transform="matrix(0.997694,0,0,0.997694,3.990778,145.836302)"/>
<path style="fill-rule:nonzero;fill:rgb(32.941177%,32.941177%,32.941177%);fill-opacity:1;stroke-width:0.5;stroke-linecap:butt;stroke-linejoin:miter;stroke:rgb(32.941177%,32.941177%,32.941177%);stroke-opacity:1;stroke-miterlimit:4;" d="M 67.101432 -66.399549 C 67.101432 -65.847495 66.651175 -65.401154 66.099121 -65.401154 C 65.547067 -65.401154 65.100726 -65.847495 65.100726 -66.399549 C 65.100726 -66.951603 65.547067 -67.40186 66.099121 -67.40186 C 66.651175 -67.40186 67.101432 -66.951603 67.101432 -66.399549 Z M 67.101432 -66.399549 " transform="matrix(0.997694,0,0,0.997694,3.990778,145.836302)"/>
<path style=" stroke:none;fill-rule:nonzero;fill:rgb(25.098041%,25.098041%,25.098041%);fill-opacity:1;" d="M 47.144531 78.824219 C 47.007812 78.839844 46.90625 78.863281 46.839844 78.894531 C 46.773438 78.921875 46.742188 78.980469 46.742188 79.070312 C 46.742188 79.117188 46.75 79.167969 46.761719 79.21875 C 46.777344 79.265625 46.796875 79.328125 46.824219 79.394531 L 47.445312 81.015625 L 48.054688 79.535156 C 48.082031 79.472656 48.109375 79.386719 48.140625 79.285156 C 48.171875 79.183594 48.1875 79.105469 48.1875 79.054688 C 48.1875 78.96875 48.164062 78.914062 48.113281 78.882812 C 48.058594 78.855469 47.984375 78.832031 47.882812 78.816406 L 47.882812 78.71875 L 48.746094 78.71875 L 48.746094 78.816406 C 48.691406 78.828125 48.644531 78.855469 48.605469 78.902344 C 48.570312 78.945312 48.519531 79.046875 48.453125 79.207031 L 47.363281 81.898438 C 47.355469 81.917969 47.347656 81.933594 47.339844 81.941406 C 47.332031 81.949219 47.320312 81.957031 47.308594 81.957031 C 47.28125 81.941406 47.265625 81.929688 47.261719 81.921875 L 46.488281 80.015625 L 45.59375 81.914062 C 45.589844 81.925781 45.582031 81.933594 45.574219 81.941406 C 45.566406 81.949219 45.558594 81.957031 45.546875 81.957031 C 45.519531 81.941406 45.503906 81.929688 45.496094 81.921875 L 44.480469 79.40625 C 44.367188 79.132812 44.292969 78.972656 44.257812 78.921875 C 44.222656 78.875 44.148438 78.839844 44.042969 78.824219 L 44.042969 78.71875 L 45.300781 78.71875 L 45.300781 78.824219 C 45.199219 78.832031 45.117188 78.851562 45.0625 78.882812 C 45.007812 78.910156 44.976562 78.972656 44.976562 79.066406 C 44.976562 79.132812 45.023438 79.289062 45.117188 79.546875 C 45.171875 79.695312 45.242188 79.875 45.328125 80.085938 L 45.714844 81.050781 L 46.332031 79.738281 L 46.339844 79.695312 C 46.339844 79.648438 46.3125 79.566406 46.265625 79.441406 C 46.214844 79.316406 46.167969 79.210938 46.121094 79.113281 C 46.078125 79.011719 46.027344 78.9375 45.96875 78.898438 C 45.910156 78.859375 45.828125 78.835938 45.722656 78.824219 L 45.722656 78.71875 L 47.144531 78.71875 Z M 43.898438 76.648438 "/>
<path style=" stroke:none;fill-rule:nonzero;fill:rgb(25.098041%,25.098041%,25.098041%);fill-opacity:1;" d="M 49.484375 82.6875 C 49.609375 82.6875 49.777344 82.75 49.976562 82.882812 C 50.183594 83.011719 50.359375 83.078125 50.503906 83.078125 C 50.820312 83.078125 51.058594 82.96875 51.214844 82.753906 C 51.367188 82.542969 51.445312 82.308594 51.445312 82.054688 C 51.445312 81.8125 51.382812 81.597656 51.257812 81.410156 C 51.046875 81.097656 50.6875 80.945312 50.183594 80.945312 C 50.15625 80.945312 50.125 80.945312 50.101562 80.945312 C 50.074219 80.945312 50.039062 80.949219 50.003906 80.953125 L 49.996094 80.867188 C 50.359375 80.734375 50.648438 80.585938 50.859375 80.414062 C 51.070312 80.242188 51.171875 80.019531 51.171875 79.738281 C 51.171875 79.488281 51.089844 79.300781 50.925781 79.175781 C 50.761719 79.042969 50.570312 78.980469 50.359375 78.980469 C 50.109375 78.980469 49.886719 79.070312 49.699219 79.253906 C 49.59375 79.351562 49.484375 79.507812 49.363281 79.71875 L 49.253906 79.695312 C 49.347656 79.347656 49.515625 79.074219 49.765625 78.867188 C 50.007812 78.660156 50.296875 78.554688 50.621094 78.554688 C 50.96875 78.554688 51.242188 78.652344 51.429688 78.84375 C 51.617188 79.035156 51.710938 79.25 51.710938 79.5 C 51.710938 79.722656 51.632812 79.925781 51.480469 80.109375 C 51.390625 80.214844 51.253906 80.332031 51.066406 80.460938 C 51.285156 80.554688 51.460938 80.664062 51.589844 80.789062 C 51.839844 81.027344 51.960938 81.328125 51.960938 81.695312 C 51.960938 82.128906 51.792969 82.511719 51.453125 82.835938 C 51.113281 83.167969 50.628906 83.332031 50 83.332031 C 49.722656 83.332031 49.527344 83.289062 49.414062 83.207031 C 49.300781 83.125 49.246094 83.035156 49.246094 82.9375 C 49.246094 82.878906 49.265625 82.824219 49.300781 82.769531 C 49.339844 82.714844 49.402344 82.6875 49.484375 82.6875 Z M 48.941406 78.042969 "/>
<path style="fill-rule:nonzero;fill:rgb(100%,100%,100%);fill-opacity:1;stroke-width:0.5;stroke-linecap:butt;stroke-linejoin:miter;stroke:rgb(100%,54.901963%,0%);stroke-opacity:1;stroke-miterlimit:4;" d="M 153.554666 -88.998529 L 135.552222 -71 L 153.554666 -53.001471 L 171.553195 -71 Z M 153.554666 -88.998529 " transform="matrix(0.997694,0,0,0.997694,3.990778,145.836302)"/>
<path style="fill:none;stroke-width:0.5;stroke-linecap:butt;stroke-linejoin:miter;stroke:rgb(100%,54.901963%,0%);stroke-opacity:1;stroke-miterlimit:4;" d="M 141.554341 -76.998205 L 141.554341 -65.001795 " transform="matrix(0.997694,0,0,0.997694,3.990778,145.836302)"/>
<path style="fill:none;stroke-width:0.5;stroke-linecap:butt;stroke-linejoin:miter;stroke:rgb(100%,54.901963%,0%);stroke-opacity:1;stroke-miterlimit:4;" d="M 147.552546 -58.999676 L 159.55287 -58.999676 " transform="matrix(0.997694,0,0,0.997694,3.990778,145.836302)"/>
<path style="fill:none;stroke-width:0.5;stroke-linecap:butt;stroke-linejoin:miter;stroke:rgb(100%,54.901963%,0%);stroke-opacity:1;stroke-miterlimit:4;" d="M 165.55499 -65.001795 L 165.55499 -76.998205 " transform="matrix(0.997694,0,0,0.997694,3.990778,145.836302)"/>
<path style="fill:none;stroke-width:0.5;stroke-linecap:butt;stroke-linejoin:miter;stroke:rgb(100%,54.901963%,0%);stroke-opacity:1;stroke-miterlimit:4;" d="M 159.55287 -83.000324 L 147.552546 -83.000324 " transform="matrix(0.997694,0,0,0.997694,3.990778,145.836302)"/>
<path style=" stroke:none;fill-rule:nonzero;fill:rgb(25.098041%,25.098041%,25.098041%);fill-opacity:1;" d="M 147.574219 75.816406 C 147.589844 75.988281 147.632812 76.125 147.707031 76.21875 C 147.839844 76.386719 148.066406 76.472656 148.394531 76.472656 C 148.589844 76.472656 148.761719 76.429688 148.910156 76.34375 C 149.058594 76.257812 149.132812 76.128906 149.132812 75.949219 C 149.132812 75.820312 149.074219 75.714844 148.953125 75.644531 C 148.878906 75.601562 148.726562 75.554688 148.503906 75.496094 L 148.082031 75.390625 C 147.820312 75.324219 147.625 75.25 147.496094 75.167969 C 147.269531 75.027344 147.15625 74.828125 147.15625 74.578125 C 147.15625 74.28125 147.261719 74.042969 147.476562 73.859375 C 147.691406 73.675781 147.972656 73.585938 148.335938 73.585938 C 148.808594 73.585938 149.148438 73.722656 149.359375 74 C 149.488281 74.171875 149.550781 74.363281 149.550781 74.566406 L 149.050781 74.566406 C 149.042969 74.445312 149 74.339844 148.925781 74.238281 C 148.804688 74.105469 148.59375 74.035156 148.292969 74.035156 C 148.09375 74.035156 147.945312 74.074219 147.847656 74.148438 C 147.742188 74.222656 147.691406 74.324219 147.691406 74.449219 C 147.691406 74.585938 147.757812 74.695312 147.894531 74.777344 C 147.96875 74.824219 148.082031 74.867188 148.238281 74.90625 L 148.585938 74.988281 C 148.964844 75.082031 149.21875 75.171875 149.347656 75.257812 C 149.550781 75.390625 149.648438 75.605469 149.648438 75.890625 C 149.648438 76.167969 149.546875 76.410156 149.335938 76.613281 C 149.125 76.816406 148.800781 76.917969 148.367188 76.917969 C 147.902344 76.917969 147.574219 76.8125 147.378906 76.597656 C 147.1875 76.386719 147.082031 76.125 147.070312 75.816406 Z M 150.253906 73.679688 L 150.789062 73.679688 L 150.789062 76.796875 L 150.253906 76.796875 Z M 150.253906 72.5 L 150.789062 72.5 L 150.789062 73.097656 L 150.253906 73.097656 Z M 152.6875 73.609375 C 152.933594 73.609375 153.144531 73.671875 153.332031 73.792969 C 153.429688 73.859375 153.53125 73.960938 153.636719 74.09375 L 153.636719 73.695312 L 154.121094 73.695312 L 154.121094 76.542969 C 154.121094 76.941406 154.0625 77.253906 153.945312 77.484375 C 153.726562 77.90625 153.3125 78.121094 152.710938 78.121094 C 152.371094 78.121094 152.085938 78.042969 151.859375 77.894531 C 151.628906 77.742188 151.5 77.507812 151.46875 77.1875 L 152.007812 77.1875 C 152.03125 77.328125 152.082031 77.4375 152.160156 77.511719 C 152.277344 77.625 152.464844 77.683594 152.722656 77.683594 C 153.121094 77.683594 153.386719 77.542969 153.511719 77.257812 C 153.585938 77.089844 153.621094 76.792969 153.613281 76.359375 C 153.507812 76.519531 153.382812 76.640625 153.234375 76.71875 C 153.085938 76.796875 152.890625 76.835938 152.648438 76.835938 C 152.308594 76.835938 152.011719 76.714844 151.757812 76.472656 C 151.5 76.230469 151.375 75.835938 151.375 75.28125 C 151.375 74.753906 151.503906 74.34375 151.757812 74.054688 C 152.015625 73.757812 152.328125 73.609375 152.6875 73.609375 Z M 153.636719 75.21875 C 153.636719 74.832031 153.554688 74.542969 153.394531 74.355469 C 153.234375 74.167969 153.03125 74.078125 152.785156 74.078125 C 152.414062 74.078125 152.160156 74.246094 152.023438 74.59375 C 151.953125 74.78125 151.914062 75.023438 151.914062 75.324219 C 151.914062 75.675781 151.988281 75.941406 152.132812 76.128906 C 152.273438 76.3125 152.46875 76.40625 152.710938 76.40625 C 153.085938 76.40625 153.351562 76.234375 153.503906 75.890625 C 153.589844 75.703125 153.636719 75.476562 153.636719 75.21875 Z M 154.910156 73.667969 L 155.429688 73.667969 L 155.429688 74.113281 C 155.554688 73.957031 155.671875 73.84375 155.773438 73.773438 C 155.945312 73.65625 156.140625 73.597656 156.359375 73.597656 C 156.609375 73.597656 156.808594 73.65625 156.964844 73.78125 C 157.050781 73.851562 157.128906 73.953125 157.199219 74.09375 C 157.316406 73.925781 157.453125 73.800781 157.609375 73.71875 C 157.769531 73.636719 157.945312 73.597656 158.140625 73.597656 C 158.5625 73.597656 158.847656 73.75 159 74.054688 C 159.082031 74.214844 159.125 74.433594 159.125 74.710938 L 159.125 76.796875 L 158.578125 76.796875 L 158.578125 74.621094 C 158.578125 74.410156 158.523438 74.269531 158.417969 74.191406 C 158.3125 74.117188 158.1875 74.078125 158.042969 74.078125 C 157.835938 74.078125 157.65625 74.148438 157.507812 74.28125 C 157.355469 74.417969 157.28125 74.652344 157.28125 74.976562 L 157.28125 76.796875 L 156.746094 76.796875 L 156.746094 74.753906 C 156.746094 74.539062 156.722656 74.386719 156.667969 74.285156 C 156.589844 74.144531 156.441406 74.070312 156.226562 74.070312 C 156.027344 74.070312 155.84375 74.148438 155.683594 74.300781 C 155.519531 74.453125 155.4375 74.730469 155.4375 75.136719 L 155.4375 76.796875 L 154.910156 76.796875 Z M 161.144531 76.457031 C 161.488281 76.457031 161.730469 76.324219 161.859375 76.058594 C 161.988281 75.800781 162.054688 75.503906 162.054688 75.179688 C 162.054688 74.886719 162.007812 74.648438 161.914062 74.464844 C 161.765625 74.175781 161.507812 74.035156 161.148438 74.035156 C 160.828125 74.035156 160.59375 74.15625 160.445312 74.402344 C 160.300781 74.648438 160.226562 74.945312 160.226562 75.292969 C 160.226562 75.625 160.300781 75.898438 160.445312 76.125 C 160.59375 76.347656 160.824219 76.457031 161.144531 76.457031 Z M 161.164062 73.578125 C 161.5625 73.578125 161.90625 73.710938 162.1875 73.980469 C 162.464844 74.246094 162.605469 74.644531 162.605469 75.167969 C 162.605469 75.671875 162.480469 76.085938 162.234375 76.414062 C 161.988281 76.746094 161.609375 76.910156 161.09375 76.910156 C 160.660156 76.910156 160.320312 76.765625 160.066406 76.472656 C 159.8125 76.179688 159.6875 75.792969 159.6875 75.300781 C 159.6875 74.773438 159.816406 74.355469 160.085938 74.046875 C 160.355469 73.734375 160.714844 73.578125 161.164062 73.578125 Z M 163.226562 73.679688 L 163.761719 73.679688 L 163.761719 76.796875 L 163.226562 76.796875 Z M 163.226562 72.5 L 163.761719 72.5 L 163.761719 73.097656 L 163.226562 73.097656 Z M 164.890625 75.269531 C 164.890625 75.605469 164.964844 75.882812 165.105469 76.109375 C 165.25 76.335938 165.476562 76.449219 165.792969 76.449219 C 166.035156 76.449219 166.238281 76.34375 166.394531 76.132812 C 166.546875 75.921875 166.625 75.625 166.625 75.234375 C 166.625 74.835938 166.542969 74.542969 166.386719 74.351562 C 166.226562 74.160156 166.023438 74.070312 165.785156 74.070312 C 165.519531 74.070312 165.304688 74.167969 165.140625 74.371094 C 164.976562 74.574219 164.890625 74.875 164.890625 75.269531 Z M 165.6875 73.609375 C 165.925781 73.609375 166.128906 73.664062 166.289062 73.765625 C 166.382812 73.824219 166.492188 73.925781 166.605469 74.070312 L 166.605469 72.484375 L 167.113281 72.484375 L 167.113281 76.796875 L 166.636719 76.796875 L 166.636719 76.359375 C 166.515625 76.554688 166.375 76.695312 166.203125 76.78125 C 166.035156 76.867188 165.84375 76.90625 165.628906 76.90625 C 165.277344 76.90625 164.976562 76.761719 164.722656 76.46875 C 164.46875 76.171875 164.339844 75.785156 164.339844 75.296875 C 164.339844 74.839844 164.457031 74.445312 164.691406 74.113281 C 164.921875 73.777344 165.253906 73.609375 165.6875 73.609375 Z M 146.875 72.1875 "/>
<path style="fill:none;stroke-width:1;stroke-linecap:butt;stroke-linejoin:miter;stroke:rgb(25.098041%,25.098041%,25.098041%);stroke-opacity:1;stroke-miterlimit:4;" d="M 98.662481 -71 C 109.629172 -71 124.15485 -71 135.509154 -71 " transform="matrix(0.997694,0,0,0.997694,3.990778,145.836302)"/>
<path style="fill-rule:nonzero;fill:rgb(89.803922%,89.803922%,89.803922%);fill-opacity:1;stroke-width:0.5;stroke-linecap:butt;stroke-linejoin:miter;stroke:rgb(49.803922%,49.803922%,49.803922%);stroke-opacity:1;stroke-miterlimit:4;" d="M 22.001355 -10.998378 C 22.001355 -4.925784 17.075937 -0.000365097 10.999427 -0.000365097 C 4.922917 -0.000365097 0.00141319 -4.925784 0.00141319 -10.998378 C 0.00141319 -17.074889 4.922917 -22.000307 10.999427 -22.000307 C 17.075937 -22.000307 22.001355 -17.074889 22.001355 -10.998378 Z M 22.001355 -10.998378 " transform="matrix(0.997694,0,0,0.997694,3.990778,145.836302)"/>
<path style=" stroke:none;fill-rule:nonzero;fill:rgb(25.098041%,25.098041%,25.098041%);fill-opacity:1;" d="M 7.570312 133.984375 L 7.925781 133.984375 L 7.925781 136.0625 L 7.570312 136.0625 Z M 7.570312 133.203125 L 7.925781 133.203125 L 7.925781 133.597656 L 7.570312 133.597656 Z M 8.457031 133.972656 L 8.792969 133.972656 L 8.792969 134.269531 C 8.890625 134.148438 8.996094 134.0625 9.105469 134.007812 C 9.214844 133.953125 9.335938 133.925781 9.46875 133.925781 C 9.765625 133.925781 9.96875 134.03125 10.070312 134.238281 C 10.128906 134.351562 10.15625 134.511719 10.15625 134.722656 L 10.15625 136.0625 L 9.800781 136.0625 L 9.800781 134.746094 C 9.800781 134.621094 9.78125 134.519531 9.742188 134.441406 C 9.679688 134.308594 9.570312 134.246094 9.40625 134.246094 C 9.320312 134.246094 9.257812 134.253906 9.203125 134.269531 C 9.105469 134.296875 9.023438 134.355469 8.949219 134.441406 C 8.890625 134.511719 8.851562 134.582031 8.835938 134.65625 C 8.816406 134.730469 8.808594 134.832031 8.808594 134.972656 L 8.808594 136.0625 L 8.457031 136.0625 Z M 10.746094 133.390625 L 11.097656 133.390625 L 11.097656 133.972656 L 11.429688 133.972656 L 11.429688 134.261719 L 11.097656 134.261719 L 11.097656 135.625 C 11.097656 135.695312 11.121094 135.746094 11.171875 135.769531 C 11.199219 135.785156 11.246094 135.789062 11.308594 135.789062 C 11.324219 135.789062 11.34375 135.789062 11.363281 135.789062 C 11.382812 135.789062 11.40625 135.789062 11.429688 135.785156 L 11.429688 136.0625 C 11.390625 136.074219 11.347656 136.082031 11.304688 136.085938 C 11.261719 136.09375 11.214844 136.09375 11.164062 136.09375 C 11 136.09375 10.894531 136.054688 10.832031 135.96875 C 10.773438 135.886719 10.746094 135.777344 10.746094 135.640625 L 10.746094 134.261719 L 10.464844 134.261719 L 10.464844 133.972656 L 10.746094 133.972656 Z M 12.65625 133.925781 C 12.800781 133.925781 12.945312 133.960938 13.085938 134.03125 C 13.222656 134.101562 13.328125 134.191406 13.402344 134.300781 C 13.472656 134.40625 13.519531 134.53125 13.542969 134.671875 C 13.5625 134.769531 13.574219 134.921875 13.574219 135.128906 L 12.042969 135.128906 C 12.050781 135.339844 12.101562 135.511719 12.195312 135.640625 C 12.289062 135.769531 12.433594 135.832031 12.628906 135.832031 C 12.808594 135.832031 12.957031 135.773438 13.066406 135.648438 C 13.128906 135.578125 13.171875 135.5 13.199219 135.40625 L 13.546875 135.40625 C 13.535156 135.484375 13.503906 135.570312 13.453125 135.664062 C 13.402344 135.757812 13.34375 135.835938 13.28125 135.894531 C 13.175781 136 13.042969 136.070312 12.882812 136.105469 C 12.800781 136.125 12.703125 136.136719 12.601562 136.136719 C 12.339844 136.136719 12.121094 136.042969 11.941406 135.851562 C 11.757812 135.664062 11.667969 135.398438 11.667969 135.054688 C 11.667969 134.722656 11.757812 134.453125 11.941406 134.242188 C 12.125 134.03125 12.363281 133.925781 12.65625 133.925781 Z M 13.210938 134.855469 C 13.199219 134.703125 13.164062 134.578125 13.113281 134.488281 C 13.015625 134.320312 12.855469 134.234375 12.636719 134.234375 C 12.472656 134.234375 12.339844 134.292969 12.230469 134.410156 C 12.121094 134.527344 12.0625 134.675781 12.054688 134.855469 Z M 14.011719 133.972656 L 14.347656 133.972656 L 14.347656 134.335938 C 14.371094 134.265625 14.4375 134.179688 14.546875 134.078125 C 14.652344 133.976562 14.773438 133.925781 14.914062 133.925781 C 14.921875 133.925781 14.929688 133.929688 14.945312 133.929688 C 14.960938 133.929688 14.988281 133.933594 15.027344 133.9375 L 15.027344 134.308594 C 15.007812 134.304688 14.988281 134.300781 14.96875 134.300781 C 14.953125 134.300781 14.933594 134.300781 14.914062 134.300781 C 14.734375 134.300781 14.597656 134.355469 14.503906 134.46875 C 14.410156 134.582031 14.363281 134.714844 14.363281 134.863281 L 14.363281 136.0625 L 14.011719 136.0625 Z M 16.132812 133.914062 C 16.371094 133.914062 16.5625 133.972656 16.710938 134.085938 C 16.859375 134.199219 16.945312 134.398438 16.976562 134.675781 L 16.632812 134.675781 C 16.613281 134.546875 16.566406 134.441406 16.492188 134.355469 C 16.417969 134.269531 16.296875 134.230469 16.132812 134.230469 C 15.914062 134.230469 15.753906 134.339844 15.660156 134.558594 C 15.597656 134.699219 15.566406 134.875 15.566406 135.078125 C 15.566406 135.289062 15.609375 135.464844 15.699219 135.609375 C 15.785156 135.75 15.925781 135.820312 16.109375 135.820312 C 16.257812 135.820312 16.371094 135.777344 16.457031 135.6875 C 16.542969 135.597656 16.601562 135.476562 16.632812 135.320312 L 16.976562 135.320312 C 16.9375 135.597656 16.839844 135.800781 16.683594 135.929688 C 16.527344 136.058594 16.328125 136.125 16.085938 136.125 C 15.816406 136.125 15.597656 136.023438 15.433594 135.824219 C 15.269531 135.625 15.191406 135.375 15.191406 135.074219 C 15.191406 134.710938 15.277344 134.425781 15.457031 134.222656 C 15.636719 134.015625 15.863281 133.914062 16.132812 133.914062 Z M 18.195312 133.925781 C 18.34375 133.925781 18.488281 133.960938 18.628906 134.03125 C 18.765625 134.101562 18.871094 134.191406 18.945312 134.300781 C 19.015625 134.40625 19.0625 134.53125 19.085938 134.671875 C 19.105469 134.769531 19.117188 134.921875 19.117188 135.128906 L 17.585938 135.128906 C 17.59375 135.339844 17.644531 135.511719 17.738281 135.640625 C 17.828125 135.769531 17.972656 135.832031 18.167969 135.832031 C 18.351562 135.832031 18.5 135.773438 18.609375 135.648438 C 18.671875 135.578125 18.714844 135.5 18.742188 135.40625 L 19.089844 135.40625 C 19.078125 135.484375 19.046875 135.570312 18.996094 135.664062 C 18.945312 135.757812 18.886719 135.835938 18.824219 135.894531 C 18.71875 136 18.585938 136.070312 18.425781 136.105469 C 18.34375 136.125 18.246094 136.136719 18.140625 136.136719 C 17.878906 136.136719 17.664062 136.042969 17.484375 135.851562 C 17.300781 135.664062 17.210938 135.398438 17.210938 135.054688 C 17.210938 134.722656 17.300781 134.453125 17.484375 134.242188 C 17.667969 134.03125 17.902344 133.925781 18.195312 133.925781 Z M 18.753906 134.855469 C 18.742188 134.703125 18.707031 134.578125 18.65625 134.488281 C 18.558594 134.320312 18.398438 134.234375 18.175781 134.234375 C 18.011719 134.234375 17.878906 134.292969 17.769531 134.410156 C 17.664062 134.527344 17.605469 134.675781 17.597656 134.855469 Z M 20.429688 135.828125 C 20.59375 135.828125 20.730469 135.757812 20.839844 135.621094 C 20.949219 135.484375 21 135.277344 21 135.007812 C 21 134.839844 20.976562 134.699219 20.929688 134.578125 C 20.839844 134.347656 20.671875 134.230469 20.429688 134.230469 C 20.1875 134.230469 20.019531 134.355469 19.929688 134.597656 C 19.882812 134.726562 19.859375 134.894531 19.859375 135.089844 C 19.859375 135.25 19.882812 135.390625 19.929688 135.5 C 20.019531 135.71875 20.1875 135.828125 20.429688 135.828125 Z M 19.519531 133.984375 L 19.859375 133.984375 L 19.859375 134.261719 C 19.929688 134.167969 20.007812 134.09375 20.09375 134.042969 C 20.210938 133.964844 20.351562 133.925781 20.507812 133.925781 C 20.746094 133.925781 20.949219 134.015625 21.113281 134.195312 C 21.273438 134.378906 21.355469 134.636719 21.355469 134.972656 C 21.355469 135.425781 21.238281 135.75 21.003906 135.945312 C 20.851562 136.070312 20.675781 136.132812 20.476562 136.132812 C 20.320312 136.132812 20.1875 136.097656 20.078125 136.03125 C 20.015625 135.992188 19.949219 135.921875 19.871094 135.828125 L 19.871094 136.894531 L 19.519531 136.894531 Z M 21.835938 133.390625 L 22.191406 133.390625 L 22.191406 133.972656 L 22.523438 133.972656 L 22.523438 134.261719 L 22.191406 134.261719 L 22.191406 135.625 C 22.191406 135.695312 22.214844 135.746094 22.265625 135.769531 C 22.292969 135.785156 22.339844 135.789062 22.402344 135.789062 C 22.417969 135.789062 22.4375 135.789062 22.457031 135.789062 C 22.476562 135.789062 22.5 135.789062 22.523438 135.785156 L 22.523438 136.0625 C 22.484375 136.074219 22.441406 136.082031 22.398438 136.085938 C 22.355469 136.09375 22.308594 136.09375 22.257812 136.09375 C 22.09375 136.09375 21.984375 136.054688 21.921875 135.96875 C 21.863281 135.886719 21.835938 135.777344 21.835938 135.640625 L 21.835938 134.261719 L 21.554688 134.261719 L 21.554688 133.972656 L 21.835938 133.972656 Z M 7.3125 132.988281 "/>
<path style="fill:none;stroke-width:0.5;stroke-linecap:butt;stroke-linejoin:miter;stroke:rgb(32.941177%,32.941177%,32.941177%);stroke-opacity:1;stroke-miterlimit:4;" d="M 19.487747 -18.120268 C 31.582038 -28.260835 53.922609 -46.991521 68.507017 -59.222846 " transform="matrix(0.997694,0,0,0.997694,3.990778,145.836302)"/>
<path style="fill-rule:nonzero;fill:rgb(32.941177%,32.941177%,32.941177%);fill-opacity:1;stroke-width:0.5;stroke-linecap:butt;stroke-linejoin:miter;stroke:rgb(32.941177%,32.941177%,32.941177%);stroke-opacity:1;stroke-miterlimit:4;" d="M 70.480316 -60.037224 C 70.480316 -59.48517 70.030059 -59.034913 69.478005 -59.034913 C 68.925951 -59.034913 68.47961 -59.48517 68.47961 -60.037224 C 68.47961 -60.589278 68.925951 -61.03562 69.478005 -61.03562 C 70.030059 -61.03562 70.480316 -60.589278 70.480316 -60.037224 Z M 70.480316 -60.037224 " transform="matrix(0.997694,0,0,0.997694,3.990778,145.836302)"/>
<path style=" stroke:none;fill-rule:nonzero;fill:rgb(25.098041%,25.098041%,25.098041%);fill-opacity:1;" d="M 47.144531 98.777344 C 47.007812 98.792969 46.90625 98.816406 46.839844 98.847656 C 46.773438 98.875 46.742188 98.933594 46.742188 99.023438 C 46.742188 99.070312 46.75 99.121094 46.761719 99.171875 C 46.777344 99.222656 46.796875 99.285156 46.824219 99.351562 L 47.445312 100.972656 L 48.054688 99.492188 C 48.082031 99.429688 48.109375 99.34375 48.140625 99.242188 C 48.171875 99.136719 48.1875 99.058594 48.1875 99.007812 C 48.1875 98.921875 48.164062 98.867188 48.113281 98.835938 C 48.058594 98.808594 47.984375 98.785156 47.882812 98.769531 L 47.882812 98.671875 L 48.746094 98.671875 L 48.746094 98.769531 C 48.691406 98.78125 48.644531 98.808594 48.605469 98.855469 C 48.570312 98.898438 48.519531 99 48.453125 99.160156 L 47.363281 101.851562 C 47.355469 101.871094 47.347656 101.886719 47.339844 101.894531 C 47.332031 101.902344 47.320312 101.910156 47.308594 101.910156 C 47.28125 101.894531 47.265625 101.882812 47.261719 101.875 L 46.488281 99.96875 L 45.59375 101.867188 C 45.589844 101.878906 45.582031 101.886719 45.574219 101.894531 C 45.566406 101.902344 45.558594 101.910156 45.546875 101.910156 C 45.519531 101.894531 45.503906 101.882812 45.496094 101.875 L 44.480469 99.363281 C 44.367188 99.085938 44.292969 98.925781 44.257812 98.875 C 44.222656 98.828125 44.148438 98.792969 44.042969 98.777344 L 44.042969 98.671875 L 45.300781 98.671875 L 45.300781 98.777344 C 45.199219 98.785156 45.117188 98.804688 45.0625 98.835938 C 45.007812 98.863281 44.976562 98.925781 44.976562 99.019531 C 44.976562 99.085938 45.023438 99.246094 45.117188 99.503906 C 45.171875 99.648438 45.242188 99.828125 45.328125 100.039062 L 45.714844 101.007812 L 46.332031 99.691406 L 46.339844 99.648438 C 46.339844 99.601562 46.3125 99.519531 46.265625 99.398438 C 46.214844 99.273438 46.167969 99.164062 46.121094 99.066406 C 46.078125 98.964844 46.027344 98.890625 45.96875 98.851562 C 45.910156 98.8125 45.828125 98.789062 45.722656 98.777344 L 45.722656 98.671875 L 47.144531 98.671875 Z M 43.898438 96.601562 "/>
<path style=" stroke:none;fill-rule:nonzero;fill:rgb(25.098041%,25.098041%,25.098041%);fill-opacity:1;" d="M 50.613281 103.109375 C 50.949219 103.109375 51.175781 102.925781 51.304688 102.5625 C 51.429688 102.195312 51.492188 101.664062 51.492188 100.972656 C 51.492188 100.417969 51.453125 99.976562 51.378906 99.648438 C 51.238281 99.035156 50.972656 98.726562 50.585938 98.726562 C 50.199219 98.726562 49.933594 99.042969 49.792969 99.671875 C 49.71875 100.011719 49.679688 100.457031 49.679688 101.007812 C 49.679688 101.519531 49.71875 101.933594 49.796875 102.242188 C 49.9375 102.820312 50.210938 103.109375 50.613281 103.109375 Z M 50.601562 98.542969 C 51.125 98.542969 51.53125 98.816406 51.816406 99.367188 C 52.046875 99.808594 52.164062 100.316406 52.164062 100.894531 C 52.164062 101.34375 52.09375 101.769531 51.953125 102.171875 C 51.683594 102.921875 51.226562 103.300781 50.570312 103.300781 C 50.121094 103.300781 49.757812 103.09375 49.46875 102.691406 C 49.160156 102.257812 49.003906 101.664062 49.003906 100.921875 C 49.003906 100.332031 49.105469 99.828125 49.3125 99.40625 C 49.59375 98.832031 50.019531 98.542969 50.601562 98.542969 Z M 48.941406 97.996094 "/>
<path style="fill:none;stroke-width:0.5;stroke-linecap:butt;stroke-linejoin:miter;stroke:rgb(54.509807%,0%,0%);stroke-opacity:1;stroke-miterlimit:4;" d="M 223.219191 -82.001929 C 223.219191 -82.001929 215.885877 -82.001929 215.885877 -82.001929 C 212.221178 -82.001929 208.552563 -78.333314 208.552563 -74.668615 C 208.552563 -74.668615 208.552563 -67.331385 208.552563 -67.331385 C 208.552563 -63.666686 212.221178 -59.998071 215.885877 -59.998071 C 215.885877 -59.998071 223.219191 -59.998071 223.219191 -59.998071 C 226.887806 -59.998071 230.552505 -63.666686 230.552505 -67.331385 C 230.552505 -67.331385 230.552505 -74.668615 230.552505 -74.668615 C 230.552505 -78.333314 226.887806 -82.001929 223.219191 -82.001929 " transform="matrix(0.997694,0,0,0.997694,3.990778,145.836302)"/>
<path style=" stroke:none;fill-rule:nonzero;fill:rgb(25.098041%,25.098041%,25.098041%);fill-opacity:1;" d="M 216.34375 76.457031 C 216.691406 76.457031 216.933594 76.324219 217.0625 76.058594 C 217.191406 75.800781 217.253906 75.503906 217.253906 75.179688 C 217.253906 74.886719 217.207031 74.648438 217.117188 74.464844 C 216.96875 74.175781 216.710938 74.035156 216.347656 74.035156 C 216.027344 74.035156 215.792969 74.15625 215.644531 74.402344 C 215.503906 74.648438 215.429688 74.945312 215.429688 75.292969 C 215.429688 75.625 215.503906 75.898438 215.644531 76.125 C 215.792969 76.347656 216.023438 76.457031 216.34375 76.457031 Z M 216.363281 73.578125 C 216.765625 73.578125 217.109375 73.710938 217.386719 73.980469 C 217.664062 74.246094 217.804688 74.644531 217.804688 75.167969 C 217.804688 75.671875 217.679688 76.085938 217.433594 76.414062 C 217.191406 76.746094 216.8125 76.910156 216.292969 76.910156 C 215.859375 76.910156 215.519531 76.765625 215.269531 76.472656 C 215.015625 76.179688 214.886719 75.792969 214.886719 75.300781 C 214.886719 74.773438 215.019531 74.355469 215.289062 74.046875 C 215.554688 73.734375 215.914062 73.578125 216.363281 73.578125 Z M 218.953125 73.667969 L 218.953125 75.746094 C 218.953125 75.902344 218.976562 76.03125 219.03125 76.132812 C 219.125 76.320312 219.296875 76.414062 219.554688 76.414062 C 219.921875 76.414062 220.171875 76.25 220.304688 75.921875 C 220.375 75.75 220.414062 75.511719 220.414062 75.203125 L 220.414062 73.667969 L 220.933594 73.667969 L 220.933594 76.796875 L 220.441406 76.796875 L 220.445312 76.335938 C 220.378906 76.453125 220.292969 76.554688 220.191406 76.636719 C 219.992188 76.800781 219.746094 76.882812 219.460938 76.882812 C 219.011719 76.882812 218.710938 76.734375 218.550781 76.433594 C 218.460938 76.273438 218.417969 76.058594 218.417969 75.796875 L 218.417969 73.667969 Z M 221.863281 72.789062 L 222.390625 72.789062 L 222.390625 73.667969 L 222.894531 73.667969 L 222.894531 74.097656 L 222.390625 74.097656 L 222.390625 76.136719 C 222.390625 76.246094 222.429688 76.320312 222.503906 76.359375 C 222.546875 76.378906 222.613281 76.390625 222.710938 76.390625 C 222.734375 76.390625 222.761719 76.390625 222.789062 76.386719 C 222.820312 76.386719 222.855469 76.382812 222.894531 76.382812 L 222.894531 76.796875 C 222.832031 76.8125 222.769531 76.828125 222.703125 76.835938 C 222.640625 76.84375 222.570312 76.847656 222.492188 76.847656 C 222.25 76.847656 222.082031 76.785156 221.996094 76.65625 C 221.90625 76.53125 221.863281 76.367188 221.863281 76.167969 L 221.863281 74.097656 L 221.4375 74.097656 L 221.4375 73.667969 L 221.863281 73.667969 Z M 224.742188 76.441406 C 224.988281 76.441406 225.191406 76.339844 225.355469 76.132812 C 225.519531 75.925781 225.601562 75.621094 225.601562 75.214844 C 225.601562 74.964844 225.5625 74.746094 225.492188 74.566406 C 225.355469 74.222656 225.105469 74.054688 224.742188 74.054688 C 224.375 74.054688 224.125 74.230469 223.992188 74.597656 C 223.925781 74.792969 223.886719 75.042969 223.886719 75.339844 C 223.886719 75.582031 223.925781 75.789062 223.992188 75.957031 C 224.128906 76.28125 224.378906 76.441406 224.742188 76.441406 Z M 223.378906 73.679688 L 223.894531 73.679688 L 223.894531 74.097656 C 223.996094 73.953125 224.109375 73.84375 224.234375 73.765625 C 224.414062 73.648438 224.621094 73.589844 224.863281 73.589844 C 225.21875 73.589844 225.519531 73.726562 225.761719 74 C 226.011719 74.269531 226.136719 74.65625 226.136719 75.164062 C 226.136719 75.84375 225.957031 76.332031 225.601562 76.625 C 225.375 76.808594 225.113281 76.902344 224.8125 76.902344 C 224.578125 76.902344 224.378906 76.851562 224.21875 76.746094 C 224.125 76.6875 224.019531 76.585938 223.910156 76.445312 L 223.910156 78.042969 L 223.378906 78.042969 Z M 227.28125 73.667969 L 227.28125 75.746094 C 227.28125 75.902344 227.304688 76.03125 227.355469 76.132812 C 227.449219 76.320312 227.621094 76.414062 227.878906 76.414062 C 228.246094 76.414062 228.496094 76.25 228.628906 75.921875 C 228.699219 75.75 228.738281 75.511719 228.738281 75.203125 L 228.738281 73.667969 L 229.257812 73.667969 L 229.257812 76.796875 L 228.765625 76.796875 L 228.769531 76.335938 C 228.703125 76.453125 228.617188 76.554688 228.515625 76.636719 C 228.316406 76.800781 228.070312 76.882812 227.785156 76.882812 C 227.339844 76.882812 227.035156 76.734375 226.875 76.433594 C 226.785156 76.273438 226.742188 76.058594 226.742188 75.796875 L 226.742188 73.667969 Z M 230.1875 72.789062 L 230.71875 72.789062 L 230.71875 73.667969 L 231.21875 73.667969 L 231.21875 74.097656 L 230.71875 74.097656 L 230.71875 76.136719 C 230.71875 76.246094 230.753906 76.320312 230.828125 76.359375 C 230.871094 76.378906 230.9375 76.390625 231.035156 76.390625 C 231.058594 76.390625 231.085938 76.390625 231.113281 76.386719 C 231.144531 76.386719 231.179688 76.382812 231.21875 76.382812 L 231.21875 76.796875 C 231.15625 76.8125 231.09375 76.828125 231.027344 76.835938 C 230.964844 76.84375 230.894531 76.847656 230.816406 76.847656 C 230.574219 76.847656 230.40625 76.785156 230.320312 76.65625 C 230.230469 76.53125 230.1875 76.367188 230.1875 76.167969 L 230.1875 74.097656 L 229.761719 74.097656 L 229.761719 73.667969 L 230.1875 73.667969 Z M 214.714844 72.1875 "/>
<path style="fill:none;stroke-width:1;stroke-linecap:butt;stroke-linejoin:miter;stroke:rgb(25.098041%,25.098041%,25.098041%);stroke-opacity:1;stroke-miterlimit:4;" d="M 171.588432 -71 C 181.783814 -71 194.394921 -71 204.124385 -71 " transform="matrix(0.997694,0,0,0.997694,3.990778,145.836302)"/>
<path style="fill-rule:nonzero;fill:rgb(25.098041%,25.098041%,25.098041%);fill-opacity:1;stroke-width:1;stroke-linecap:butt;stroke-linejoin:miter;stroke:rgb(25.098041%,25.098041%,25.098041%);stroke-opacity:1;stroke-miterlimit:4;" d="M 208.376376 -71 C 208.376376 -69.895892 207.479777 -68.999293 206.375669 -68.999293 C 205.271561 -68.999293 204.374962 -69.895892 204.374962 -71 C 204.374962 -72.104108 205.271561 -73.000707 206.375669 -73.000707 C 207.479777 -73.000707 208.376376 -72.104108 208.376376 -71 Z M 208.376376 -71 " transform="matrix(0.997694,0,0,0.997694,3.990778,145.836302)"/>
</g>
</svg>
