<svg xmlns="http://www.w3.org/2000/svg" width="1440" height="684" style="cursor: move;"><g transform="translate(0,-1) scale(1)"><path class="link" marker-end="" d="M548.3333333333334,283C612.8333333333334,283 612.8333333333334,283 677.3333333333334,283" style="stroke-width: 0.105486; stroke-opacity: 0.0976721; stroke: rgb(80, 80, 80); fill: none;"></path><path class="link" marker-end="" d="M548.3333333333334,283C612.8333333333334,283 612.8333333333334,329 677.3333333333334,329" style="stroke-width: 0.634068; stroke-opacity: 0.5871; stroke: rgb(80, 80, 80); fill: none;"></path><path class="link" marker-end="" d="M548.3333333333334,283C612.8333333333334,283 612.8333333333334,375 677.3333333333334,375" style="stroke-width: 0.590998; stroke-opacity: 0.547221; stroke: rgb(80, 80, 80); fill: none;"></path><path class="link" marker-end="" d="M548.3333333333334,283C612.8333333333334,283 612.8333333333334,421 677.3333333333334,421" style="stroke-width: 0.0932316; stroke-opacity: 0.0863255; stroke: rgb(80, 80, 80); fill: none;"></path><path class="link" marker-end="" d="M548.3333333333334,329C612.8333333333334,329 612.8333333333334,283 677.3333333333334,283" style="stroke-width: 0.643561; stroke-opacity: 0.59589; stroke: rgb(80, 80, 80); fill: none;"></path><path class="link" marker-end="" d="M548.3333333333334,329C612.8333333333334,329 612.8333333333334,329 677.3333333333334,329" style="stroke-width: 0.431204; stroke-opacity: 0.399263; stroke: rgb(80, 80, 80); fill: none;"></path><path class="link" marker-end="" d="M548.3333333333334,329C612.8333333333334,329 612.8333333333334,375 677.3333333333334,375" style="stroke-width: 1.0761; stroke-opacity: 0.996388; stroke: rgb(80, 80, 80); fill: none;"></path><path class="link" marker-end="" d="M548.3333333333334,329C612.8333333333334,329 612.8333333333334,421 677.3333333333334,421" style="stroke-width: 0.722157; stroke-opacity: 0.668664; stroke: rgb(80, 80, 80); fill: none;"></path><path class="link" marker-end="" d="M548.3333333333334,375C612.8333333333334,375 612.8333333333334,283 677.3333333333334,283" style="stroke-width: 0.809651; stroke-opacity: 0.749677; stroke: rgb(80, 80, 80); fill: none;"></path><path class="link" marker-end="" d="M548.3333333333334,375C612.8333333333334,375 612.8333333333334,329 677.3333333333334,329" style="stroke-width: 1.06227; stroke-opacity: 0.983581; stroke: rgb(80, 80, 80); fill: none;"></path><path class="link" marker-end="" d="M548.3333333333334,375C612.8333333333334,375 612.8333333333334,375 677.3333333333334,375" style="stroke-width: 0.0509402; stroke-opacity: 0.0471668; stroke: rgb(80, 80, 80); fill: none;"></path><path class="link" marker-end="" d="M548.3333333333334,375C612.8333333333334,375 612.8333333333334,421 677.3333333333334,421" style="stroke-width: 0.0520368; stroke-opacity: 0.0481822; stroke: rgb(80, 80, 80); fill: none;"></path><path class="link" marker-end="" d="M677.3333333333334,237C741.8333333333334,237 741.8333333333334,283 806.3333333333334,283" style="stroke-width: 0.529996; stroke-opacity: 0.490737; stroke: rgb(80, 80, 80); fill: none;"></path><path class="link" marker-end="" d="M677.3333333333334,237C741.8333333333334,237 741.8333333333334,329 806.3333333333334,329" style="stroke-width: 0.852162; stroke-opacity: 0.789039; stroke: rgb(80, 80, 80); fill: none;"></path><path class="link" marker-end="" d="M677.3333333333334,237C741.8333333333334,237 741.8333333333334,375 806.3333333333334,375" style="stroke-width: 0.119494; stroke-opacity: 0.110643; stroke: rgb(80, 80, 80); fill: none;"></path><path class="link" marker-end="" d="M677.3333333333334,237C741.8333333333334,237 741.8333333333334,421 806.3333333333334,421" style="stroke-width: 0.996841; stroke-opacity: 0.923001; stroke: rgb(80, 80, 80); fill: none;"></path><path class="link" marker-end="" d="M677.3333333333334,283C741.8333333333334,283 741.8333333333334,283 806.3333333333334,283" style="stroke-width: 0.120438; stroke-opacity: 0.111517; stroke: rgb(80, 80, 80); fill: none;"></path><path class="link" marker-end="" d="M677.3333333333334,283C741.8333333333334,283 741.8333333333334,329 806.3333333333334,329" style="stroke-width: 0.647072; stroke-opacity: 0.599141; stroke: rgb(80, 80, 80); fill: none;"></path><path class="link" marker-end="" d="M677.3333333333334,283C741.8333333333334,283 741.8333333333334,375 806.3333333333334,375" style="stroke-width: 0.126272; stroke-opacity: 0.116919; stroke: rgb(80, 80, 80); fill: none;"></path><path class="link" marker-end="" d="M677.3333333333334,283C741.8333333333334,283 741.8333333333334,421 806.3333333333334,421" style="stroke-width: 0.367037; stroke-opacity: 0.339849; stroke: rgb(80, 80, 80); fill: none;"></path><path class="link" marker-end="" d="M677.3333333333334,329C741.8333333333334,329 741.8333333333334,283 806.3333333333334,283" style="stroke-width: 0.65552; stroke-opacity: 0.606963; stroke: rgb(80, 80, 80); fill: none;"></path><path class="link" marker-end="" d="M677.3333333333334,329C741.8333333333334,329 741.8333333333334,329 806.3333333333334,329" style="stroke-width: 1.06758; stroke-opacity: 0.988498; stroke: rgb(80, 80, 80); fill: none;"></path><path class="link" marker-end="" d="M677.3333333333334,329C741.8333333333334,329 741.8333333333334,375 806.3333333333334,375" style="stroke-width: 0.454608; stroke-opacity: 0.420933; stroke: rgb(80, 80, 80); fill: none;"></path><path class="link" marker-end="" d="M677.3333333333334,329C741.8333333333334,329 741.8333333333334,421 806.3333333333334,421" style="stroke-width: 0.641302; stroke-opacity: 0.593798; stroke: rgb(80, 80, 80); fill: none;"></path><path class="link" marker-end="" d="M677.3333333333334,375C741.8333333333334,375 741.8333333333334,283 806.3333333333334,283" style="stroke-width: 0.271446; stroke-opacity: 0.251338; stroke: rgb(80, 80, 80); fill: none;"></path><path class="link" marker-end="" d="M677.3333333333334,375C741.8333333333334,375 741.8333333333334,329 806.3333333333334,329" style="stroke-width: 0.975825; stroke-opacity: 0.903542; stroke: rgb(80, 80, 80); fill: none;"></path><path class="link" marker-end="" d="M677.3333333333334,375C741.8333333333334,375 741.8333333333334,375 806.3333333333334,375" style="stroke-width: 0.0448265; stroke-opacity: 0.041506; stroke: rgb(80, 80, 80); fill: none;"></path><path class="link" marker-end="" d="M677.3333333333334,375C741.8333333333334,375 741.8333333333334,421 806.3333333333334,421" style="stroke-width: 1.01781; stroke-opacity: 0.94242; stroke: rgb(80, 80, 80); fill: none;"></path><path class="link" marker-end="" d="M677.3333333333334,421C741.8333333333334,421 741.8333333333334,283 806.3333333333334,283" style="stroke-width: 0.332171; stroke-opacity: 0.307565; stroke: rgb(80, 80, 80); fill: none;"></path><path class="link" marker-end="" d="M677.3333333333334,421C741.8333333333334,421 741.8333333333334,329 806.3333333333334,329" style="stroke-width: 0.713735; stroke-opacity: 0.660866; stroke: rgb(80, 80, 80); fill: none;"></path><path class="link" marker-end="" d="M677.3333333333334,421C741.8333333333334,421 741.8333333333334,375 806.3333333333334,375" style="stroke-width: 0.449714; stroke-opacity: 0.416401; stroke: rgb(80, 80, 80); fill: none;"></path><path class="link" marker-end="" d="M677.3333333333334,421C741.8333333333334,421 741.8333333333334,421 806.3333333333334,421" style="stroke-width: 0.546617; stroke-opacity: 0.506127; stroke: rgb(80, 80, 80); fill: none;"></path><path class="link" marker-end="" d="M806.3333333333334,237C870.8333333333334,237 870.8333333333334,329 935.3333333333334,329" style="stroke-width: 0.433965; stroke-opacity: 0.40182; stroke: rgb(80, 80, 80); fill: none;"></path><path class="link" marker-end="" d="M806.3333333333334,237C870.8333333333334,237 870.8333333333334,375 935.3333333333334,375" style="stroke-width: 0.410639; stroke-opacity: 0.380221; stroke: rgb(80, 80, 80); fill: none;"></path><path class="link" marker-end="" d="M806.3333333333334,283C870.8333333333334,283 870.8333333333334,329 935.3333333333334,329" style="stroke-width: 0.790225; stroke-opacity: 0.73169; stroke: rgb(80, 80, 80); fill: none;"></path><path class="link" marker-end="" d="M806.3333333333334,283C870.8333333333334,283 870.8333333333334,375 935.3333333333334,375" style="stroke-width: 0.554288; stroke-opacity: 0.513229; stroke: rgb(80, 80, 80); fill: none;"></path><path class="link" marker-end="" d="M806.3333333333334,329C870.8333333333334,329 870.8333333333334,329 935.3333333333334,329" style="stroke-width: 0.986481; stroke-opacity: 0.913408; stroke: rgb(80, 80, 80); fill: none;"></path><path class="link" marker-end="" d="M806.3333333333334,329C870.8333333333334,329 870.8333333333334,375 935.3333333333334,375" style="stroke-width: 0.379706; stroke-opacity: 0.35158; stroke: rgb(80, 80, 80); fill: none;"></path><path class="link" marker-end="" d="M806.3333333333334,375C870.8333333333334,375 870.8333333333334,329 935.3333333333334,329" style="stroke-width: 0.327287; stroke-opacity: 0.303043; stroke: rgb(80, 80, 80); fill: none;"></path><path class="link" marker-end="" d="M806.3333333333334,375C870.8333333333334,375 870.8333333333334,375 935.3333333333334,375" style="stroke-width: 0.551116; stroke-opacity: 0.510292; stroke: rgb(80, 80, 80); fill: none;"></path><path class="link" marker-end="" d="M806.3333333333334,421C870.8333333333334,421 870.8333333333334,329 935.3333333333334,329" style="stroke-width: 1.00063; stroke-opacity: 0.926512; stroke: rgb(80, 80, 80); fill: none;"></path><path class="link" marker-end="" d="M806.3333333333334,421C870.8333333333334,421 870.8333333333334,375 935.3333333333334,375" style="stroke-width: 0.280098; stroke-opacity: 0.25935; stroke: rgb(80, 80, 80); fill: none;"></path><path class="link" marker-end="" d="M935.3333333333334,283C999.8333333333333,283 999.8333333333333,329 1064.3333333333333,329" style="stroke-width: 0.0718748; stroke-opacity: 0.0665507; stroke: rgb(80, 80, 80); fill: none;"></path><path class="link" marker-end="" d="M935.3333333333334,329C999.8333333333333,329 999.8333333333333,329 1064.3333333333333,329" style="stroke-width: 0.157297; stroke-opacity: 0.145645; stroke: rgb(80, 80, 80); fill: none;"></path><path class="link" marker-end="" d="M935.3333333333334,375C999.8333333333333,375 999.8333333333333,329 1064.3333333333333,329" style="stroke-width: 1.0651; stroke-opacity: 0.986207; stroke: rgb(80, 80, 80); fill: none;"></path><path class="link" marker-end="" d="M548.3333333333334,283C612.8333333333334,283 612.8333333333334,237 677.3333333333334,237" style="stroke-width: 0.342332; stroke-opacity: 0.316974; stroke: rgb(80, 80, 80); fill: none;"></path><path class="link" marker-end="" d="M548.3333333333334,329C612.8333333333334,329 612.8333333333334,237 677.3333333333334,237" style="stroke-width: 0.982281; stroke-opacity: 0.909519; stroke: rgb(80, 80, 80); fill: none;"></path><path class="link" marker-end="" d="M548.3333333333334,375C612.8333333333334,375 612.8333333333334,237 677.3333333333334,237" style="stroke-width: 0.582503; stroke-opacity: 0.539354; stroke: rgb(80, 80, 80); fill: none;"></path><path class="link" marker-end="" d="M677.3333333333334,237C741.8333333333334,237 741.8333333333334,237 806.3333333333334,237" style="stroke-width: 0.668665; stroke-opacity: 0.619134; stroke: rgb(80, 80, 80); fill: none;"></path><path class="link" marker-end="" d="M677.3333333333334,283C741.8333333333334,283 741.8333333333334,237 806.3333333333334,237" style="stroke-width: 0.267377; stroke-opacity: 0.247571; stroke: rgb(80, 80, 80); fill: none;"></path><path class="link" marker-end="" d="M677.3333333333334,329C741.8333333333334,329 741.8333333333334,237 806.3333333333334,237" style="stroke-width: 0.28858; stroke-opacity: 0.267204; stroke: rgb(80, 80, 80); fill: none;"></path><path class="link" marker-end="" d="M677.3333333333334,375C741.8333333333334,375 741.8333333333334,237 806.3333333333334,237" style="stroke-width: 0.0972102; stroke-opacity: 0.0900095; stroke: rgb(80, 80, 80); fill: none;"></path><path class="link" marker-end="" d="M677.3333333333334,421C741.8333333333334,421 741.8333333333334,237 806.3333333333334,237" style="stroke-width: 0.600237; stroke-opacity: 0.555775; stroke: rgb(80, 80, 80); fill: none;"></path><path class="link" marker-end="" d="M806.3333333333334,237C870.8333333333334,237 870.8333333333334,283 935.3333333333334,283" style="stroke-width: 1.01177; stroke-opacity: 0.936823; stroke: rgb(80, 80, 80); fill: none;"></path><path class="link" marker-end="" d="M806.3333333333334,283C870.8333333333334,283 870.8333333333334,283 935.3333333333334,283" style="stroke-width: 0.262063; stroke-opacity: 0.242651; stroke: rgb(80, 80, 80); fill: none;"></path><path class="link" marker-end="" d="M806.3333333333334,329C870.8333333333334,329 870.8333333333334,283 935.3333333333334,283" style="stroke-width: 0.128815; stroke-opacity: 0.119273; stroke: rgb(80, 80, 80); fill: none;"></path><path class="link" marker-end="" d="M806.3333333333334,375C870.8333333333334,375 870.8333333333334,283 935.3333333333334,283" style="stroke-width: 0.372806; stroke-opacity: 0.345191; stroke: rgb(80, 80, 80); fill: none;"></path><path class="link" marker-end="" d="M806.3333333333334,421C870.8333333333334,421 870.8333333333334,283 935.3333333333334,283" style="stroke-width: 0.157411; stroke-opacity: 0.145751; stroke: rgb(80, 80, 80); fill: none;"></path><circle r="13" class="node" id="0_0" cx="548.3333333333334" cy="283" style="fill: rgb(255, 255, 248); stroke: rgb(255, 85, 0);"></circle><circle r="13" class="node" id="0_1" cx="548.3333333333334" cy="329" style="fill: rgb(255, 255, 248); stroke: rgb(255, 85, 0);"></circle><circle r="13" class="node" id="0_2" cx="548.3333333333334" cy="375" style="fill: rgb(255, 255, 248); stroke: rgb(255, 85, 0);"></circle><circle r="13" class="node" id="1_0" cx="677.3333333333334" cy="237" style="fill: rgb(255, 255, 248); stroke: rgb(255, 85, 0);"></circle><circle r="13" class="node" id="1_1" cx="677.3333333333334" cy="283" style="fill: rgb(255, 255, 248); stroke: rgb(255, 85, 0);"></circle><circle r="13" class="node" id="1_2" cx="677.3333333333334" cy="329" style="fill: rgb(255, 255, 248); stroke: rgb(255, 85, 0);"></circle><circle r="13" class="node" id="1_3" cx="677.3333333333334" cy="375" style="fill: rgb(255, 255, 248); stroke: rgb(255, 85, 0);"></circle><circle r="13" class="node" id="1_4" cx="677.3333333333334" cy="421" style="fill: rgb(255, 255, 248); stroke: rgb(255, 85, 0);"></circle><circle r="13" class="node" id="2_0" cx="806.3333333333334" cy="237" style="fill: rgb(255, 255, 248); stroke: rgb(255, 85, 0);"></circle><circle r="13" class="node" id="2_1" cx="806.3333333333334" cy="283" style="fill: rgb(255, 255, 248); stroke: rgb(255, 85, 0);"></circle><circle r="13" class="node" id="2_2" cx="806.3333333333334" cy="329" style="fill: rgb(255, 255, 248); stroke: rgb(255, 85, 0);"></circle><circle r="13" class="node" id="2_3" cx="806.3333333333334" cy="375" style="fill: rgb(255, 255, 248); stroke: rgb(255, 85, 0);"></circle><circle r="13" class="node" id="2_4" cx="806.3333333333334" cy="421" style="fill: rgb(255, 255, 248); stroke: rgb(255, 85, 0);"></circle><circle r="13" class="node" id="3_0" cx="935.3333333333334" cy="283" style="fill: rgb(255, 255, 248); stroke: rgb(255, 85, 0);"></circle><text class="text" dy=".35em" x="513.3333333333334" y="467" style="font-size: 12px;"></text><text class="text" dy=".35em" x="642.3333333333334" y="467" style="font-size: 12px;"></text><text class="text" dy=".35em" x="771.3333333333334" y="467" style="font-size: 12px;"></text><text class="text" dy=".35em" x="900.3333333333334" y="467" style="font-size: 12px;"></text><circle r="13" class="node" id="3_1" cx="935.3333333333334" cy="329" style="fill: rgb(255, 255, 248); stroke: rgb(255, 85, 0);"></circle><circle r="13" class="node" id="3_2" cx="935.3333333333334" cy="375" style="fill: rgb(255, 255, 248); stroke: rgb(255, 85, 0);"></circle><circle r="13" class="node" id="4_0" cx="1064.3333333333333" cy="329" style="fill: rgb(255, 255, 248); stroke: rgb(255, 85, 0);"></circle><text class="text" dy=".35em" x="1029.3333333333333" y="467" style="font-size: 12px;"></text></g><defs><marker id="arrow" viewBox="0 -5 10 10" markerWidth="7" markerHeight="7" orient="auto" refX="48.4"><path d="M0,-5L10,0L0,5" style="stroke: rgb(80, 80, 80); fill: rgb(80, 80, 80);"></path></marker></defs></svg>