<svg version="1.1" viewBox="0.0 0.0 960.0 540.0" fill="none" stroke="none" stroke-linecap="square" stroke-miterlimit="10" xmlns:xlink="http://www.w3.org/1999/xlink" xmlns="http://www.w3.org/2000/svg"><clipPath id="p.0"><path d="m0 0l960.0 0l0 540.0l-960.0 0l0 -540.0z" clip-rule="nonzero"/></clipPath><g clip-path="url(#p.0)"><path fill="#ffffff" d="m0 0l960.0 0l0 540.0l-960.0 0z" fill-rule="evenodd"/><g filter="url(#shadowFilter-p.1)"><use xlink:href="#p.1" transform="matrix(1.0 0.0 0.0 1.0 0.0 2.0)"/></g><defs><filter id="shadowFilter-p.1" filterUnits="userSpaceOnUse"><feGaussianBlur in="SourceAlpha" stdDeviation="2.0" result="blur"/><feComponentTransfer in="blur" color-interpolation-filters="sRGB"><feFuncR type="linear" slope="0" intercept="0.0"/><feFuncG type="linear" slope="0" intercept="0.0"/><feFuncB type="linear" slope="0" intercept="0.0"/><feFuncA type="linear" slope="0.5" intercept="0"/></feComponentTransfer></filter></defs><g id="p.1"><path fill="#fcfcfc" d="m373.18896 147.15486l151.68506 0l0 72.53543l-151.68506 0z" fill-rule="evenodd"/><path stroke="#595959" stroke-width="2.0" stroke-linejoin="round" stroke-linecap="butt" d="m373.18896 147.15486l151.68506 0l0 72.53543l-151.68506 0z" fill-rule="evenodd"/><path fill="#000000" d="m411.6822 188.90508l0 1.4375l-5.75 0l0 -1.4375l5.75 0zm-5.453125 -11.828125l0 13.265625l-1.671875 0l0 -13.265625l1.671875 0zm4.671875 5.703125l0 1.4375l-4.96875 0l0 -1.4375l4.96875 0zm0.6875 -5.703125l0 1.4375l-5.65625 0l0 -1.4375l5.65625 0zm3.632843 5.515625l0 7.75l-1.609375 0l0 -9.859375l1.515625 0l0.09375 2.109375zm-0.390625 2.453125l-0.65625 -0.03125q-0.015625 -1.015625 0.21875 -1.875q0.25 -0.859375 0.703125 -1.5q0.453125 -0.640625 1.078125 -0.984375q0.625 -0.34375 1.390625 -0.34375q0.609375 0 1.09375 0.203125q0.5 0.1875 0.84375 0.609375q0.34375 0.421875 0.53125 1.109375q0.1875 0.671875 0.1875 1.65625l0 6.453125l-1.609375 0l0 -6.484375q0 -0.765625 -0.171875 -1.234375q-0.171875 -0.46875 -0.515625 -0.6875q-0.34375 -0.21875 -0.859375 -0.21875q-0.46875 0 -0.890625 0.265625q-0.40625 0.265625 -0.71875 0.734375q-0.296875 0.46875 -0.46875 1.0625q-0.15625 0.59375 -0.15625 1.265625zm10.364746 3.78125l2.109375 -8.34375l1.640625 0l-2.921875 9.859375l-1.0625 0l0.234375 -1.515625zm-1.703125 -8.34375l2.203125 8.390625l0.171875 1.46875l-1.0625 0l-2.953125 -9.859375l1.640625 0zm8.854919 0l0 9.859375l-1.59375 0l0 -9.859375l1.59375 0zm-1.6875 -2.609375q0 -0.40625 0.21875 -0.6875q0.234375 -0.296875 0.6875 -0.296875q0.453125 0 0.6875 0.296875q0.234375 0.28125 0.234375 0.6875q0 0.390625 -0.234375 0.671875q-0.234375 0.265625 -0.6875 0.265625q-0.453125 0 -0.6875 -0.265625q-0.21875 -0.28125 -0.21875 -0.671875zm5.8595886 4.15625l0 8.3125l-1.609375 0l0 -9.859375l1.546875 0l0.0625 1.546875zm2.453125 -1.59375l0 1.5625q-0.203125 -0.046875 -0.359375 -0.0625q-0.15625 -0.015625 -0.359375 -0.015625q-0.46875 0 -0.8125 0.1875q-0.328125 0.1875 -0.578125 0.515625q-0.25 0.328125 -0.40625 0.78125q-0.140625 0.4375 -0.1875 0.984375l-0.421875 0.265625q0 -0.890625 0.140625 -1.671875q0.140625 -0.78125 0.4375 -1.390625q0.3125 -0.609375 0.78125 -0.9375q0.46875 -0.34375 1.125 -0.34375q0.140625 0 0.34375 0.046875q0.21875 0.03125 0.296875 0.078125zm1.0957642 5.453125l0 -0.9375q0 -1.15625 0.28125 -2.015625q0.296875 -0.875 0.8125 -1.453125q0.53125 -0.59375 1.21875 -0.875q0.6875 -0.296875 1.484375 -0.296875q0.8125 0 1.5 0.296875q0.703125 0.28125 1.21875 0.875q0.53125 0.578125 0.8125 1.453125q0.296875 0.859375 0.296875 2.015625l0 0.9375q0 1.140625 -0.296875 2.015625q-0.28125 0.875 -0.8125 1.453125q-0.515625 0.578125 -1.203125 0.875q-0.6875 0.296875 -1.5 0.296875q-0.796875 0 -1.5 -0.296875q-0.6875 -0.296875 -1.21875 -0.875q-0.515625 -0.578125 -0.8125 -1.453125q-0.28125 -0.875 -0.28125 -2.015625zm1.609375 -0.9375l0 0.9375q0 0.8125 0.15625 1.421875q0.171875 0.609375 0.46875 1.015625q0.3125 0.40625 0.703125 0.625q0.40625 0.203125 0.875 0.203125q0.546875 0 0.953125 -0.203125q0.421875 -0.21875 0.6875 -0.625q0.28125 -0.40625 0.421875 -1.015625q0.140625 -0.609375 0.140625 -1.421875l0 -0.9375q0 -0.8125 -0.171875 -1.421875q-0.15625 -0.609375 -0.46875 -1.015625q-0.296875 -0.421875 -0.703125 -0.625q-0.40625 -0.203125 -0.875 -0.203125q-0.46875 0 -0.875 0.203125q-0.390625 0.203125 -0.6875 0.625q-0.296875 0.40625 -0.46875 1.015625q-0.15625 0.609375 -0.15625 1.421875zm9.708313 -2.359375l0 7.75l-1.609375 0l0 -9.859375l1.515625 0l0.09375 2.109375zm-0.390625 2.453125l-0.65625 -0.03125q-0.015625 -1.015625 0.21875 -1.875q0.25 -0.859375 0.703125 -1.5q0.453125 -0.640625 1.078125 -0.984375q0.625 -0.34375 1.390625 -0.34375q0.609375 0 1.09375 0.203125q0.5 0.1875 0.84375 0.609375q0.34375 0.421875 0.53125 1.109375q0.1875 0.671875 0.1875 1.65625l0 6.453125l-1.609375 0l0 -6.484375q0 -0.765625 -0.171875 -1.234375q-0.171875 -0.46875 -0.515625 -0.6875q-0.34375 -0.21875 -0.859375 -0.21875q-0.46875 0 -0.890625 0.265625q-0.40625 0.265625 -0.71875 0.734375q-0.296875 0.46875 -0.46875 1.0625q-0.15625 0.59375 -0.15625 1.265625zm9.427246 -2.59375l0 7.890625l-1.609375 0l0 -9.859375l1.515625 0l0.09375 1.96875zm-0.328125 2.59375l-0.75 -0.03125q-0.015625 -1.015625 0.1875 -1.875q0.21875 -0.859375 0.640625 -1.5q0.421875 -0.640625 1.0625 -0.984375q0.65625 -0.34375 1.5 -0.34375q0.578125 0 1.0625 0.203125q0.484375 0.1875 0.84375 0.609375q0.375 0.40625 0.578125 1.0625q0.203125 0.65625 0.203125 1.59375l0 6.5625l-1.609375 0l0 -6.484375q0 -0.78125 -0.21875 -1.234375q-0.203125 -0.46875 -0.578125 -0.6875q-0.359375 -0.21875 -0.890625 -0.21875q-0.59375 0 -0.984375 0.265625q-0.390625 0.265625 -0.625 0.734375q-0.234375 0.46875 -0.328125 1.0625q-0.09375 0.59375 -0.09375 1.265625zm5.3125 -0.9375l-1.078125 0.34375q-0.015625 -0.8125 0.1875 -1.546875q0.21875 -0.75 0.625 -1.328125q0.421875 -0.59375 1.03125 -0.921875q0.625 -0.34375 1.453125 -0.34375q0.671875 0 1.1875 0.203125q0.515625 0.203125 0.875 0.640625q0.375 0.4375 0.546875 1.109375q0.1875 0.671875 0.1875 1.59375l0 6.484375l-1.609375 0l0 -6.5q0 -0.828125 -0.21875 -1.28125q-0.203125 -0.46875 -0.578125 -0.65625q-0.359375 -0.1875 -0.890625 -0.1875q-0.40625 0 -0.734375 0.203125q-0.328125 0.1875 -0.546875 0.53125q-0.21875 0.328125 -0.328125 0.75q-0.109375 0.421875 -0.109375 0.90625zm10.9687195 6.421875q-0.875 0 -1.59375 -0.265625q-0.703125 -0.265625 -1.203125 -0.8125q-0.5 -0.546875 -0.765625 -1.375q-0.265625 -0.828125 -0.265625 -1.953125l0 -1.109375q0 -1.296875 0.296875 -2.203125q0.3125 -0.90625 0.828125 -1.453125q0.515625 -0.546875 1.171875 -0.796875q0.65625 -0.25 1.359375 -0.25q0.921875 0 1.578125 0.296875q0.65625 0.296875 1.0625 0.890625q0.40625 0.59375 0.59375 1.46875q0.203125 0.859375 0.203125 1.984375l0 0.9375l-6.15625 0l0 -1.375l4.546875 0l0 -0.234375q-0.03125 -0.765625 -0.203125 -1.34375q-0.171875 -0.578125 -0.5625 -0.90625q-0.375 -0.34375 -1.0625 -0.34375q-0.453125 0 -0.828125 0.15625q-0.375 0.140625 -0.65625 0.515625q-0.265625 0.375 -0.421875 1.015625q-0.140625 0.640625 -0.140625 1.640625l0 1.109375q0 0.796875 0.140625 1.375q0.15625 0.5625 0.453125 0.9375q0.296875 0.359375 0.71875 0.546875q0.4375 0.171875 1.0 0.171875q0.8125 0 1.34375 -0.3125q0.53125 -0.328125 0.921875 -0.8125l0.84375 1.015625q-0.265625 0.375 -0.6875 0.71875q-0.421875 0.328125 -1.046875 0.546875q-0.609375 0.21875 -1.46875 0.21875zm6.838867 -7.9375l0 7.75l-1.609375 0l0 -9.859375l1.515625 0l0.09375 2.109375zm-0.390625 2.453125l-0.65625 -0.03125q-0.015625 -1.015625 0.21875 -1.875q0.25 -0.859375 0.703125 -1.5q0.453125 -0.640625 1.078125 -0.984375q0.625 -0.34375 1.390625 -0.34375q0.609375 0 1.09375 0.203125q0.5 0.1875 0.84375 0.609375q0.34375 0.421875 0.53125 1.109375q0.1875 0.671875 0.1875 1.65625l0 6.453125l-1.609375 0l0 -6.484375q0 -0.765625 -0.171875 -1.234375q-0.171875 -0.46875 -0.515625 -0.6875q-0.34375 -0.21875 -0.859375 -0.21875q-0.46875 0 -0.890625 0.265625q-0.40625 0.265625 -0.71875 0.734375q-0.296875 0.46875 -0.46875 1.0625q-0.15625 0.59375 -0.15625 1.265625zm11.411621 -4.5625l0 1.296875l-4.609375 0l0 -1.296875l4.609375 0zm-3.09375 -2.390625l1.609375 0l0 9.8125q0 0.5 0.125 0.75q0.125 0.25 0.3125 0.34375q0.1875 0.078125 0.40625 0.078125q0.171875 0 0.359375 -0.03125q0.203125 -0.046875 0.28125 -0.078125l-0.015625 1.375q-0.15625 0.0625 -0.4375 0.125q-0.265625 0.0625 -0.6875 0.0625q-0.515625 0 -0.96875 -0.25q-0.4375 -0.25 -0.71875 -0.828125q-0.265625 -0.578125 -0.265625 -1.5625l0 -9.796875z" fill-rule="nonzero"/></g><g filter="url(#shadowFilter-p.2)"><use xlink:href="#p.2" transform="matrix(1.0 0.0 0.0 1.0 0.0 2.0)"/></g><defs><filter id="shadowFilter-p.2" filterUnits="userSpaceOnUse"><feGaussianBlur in="SourceAlpha" stdDeviation="2.0" result="blur"/><feComponentTransfer in="blur" color-interpolation-filters="sRGB"><feFuncR type="linear" slope="0" intercept="0.0"/><feFuncG type="linear" slope="0" intercept="0.0"/><feFuncB type="linear" slope="0" intercept="0.0"/><feFuncA type="linear" slope="0.5" intercept="0"/></feComponentTransfer></filter></defs><g id="p.2"><path fill="#fcfcfc" d="m373.18896 307.0761l151.68506 0l0 72.53543l-151.68506 0z" fill-rule="evenodd"/><path stroke="#595959" stroke-width="2.0" stroke-linejoin="round" stroke-linecap="butt" d="m373.18896 307.0761l151.68506 0l0 72.53543l-151.68506 0z" fill-rule="evenodd"/><path fill="#000000" d="m433.13538 338.17007l-3.625 12.09375l-1.71875 0l4.28125 -13.265625l1.0625 0l0 1.171875zm2.921875 12.09375l-3.625 -12.09375l-0.015625 -1.171875l1.09375 0l4.265625 13.265625l-1.71875 0zm0 -4.90625l0 1.4375l-6.390625 0l0 -1.4375l6.390625 0zm8.648926 -4.953125l1.453125 0l0 9.9375q0 1.3125 -0.453125 2.15625q-0.453125 0.84375 -1.25 1.25q-0.796875 0.40625 -1.84375 0.40625q-0.375 0 -0.953125 -0.140625q-0.5625 -0.140625 -1.125 -0.421875q-0.5625 -0.265625 -0.921875 -0.6875l0.65625 -1.125q0.515625 0.53125 1.09375 0.75q0.59375 0.234375 1.125 0.234375q0.625 0 1.09375 -0.234375q0.46875 -0.21875 0.71875 -0.734375q0.25 -0.515625 0.25 -1.375l0 -7.84375l0.15625 -2.171875zm-5.65625 5.40625l0 -0.921875q0 -1.21875 0.21875 -2.09375q0.234375 -0.890625 0.65625 -1.453125q0.4375 -0.5625 1.046875 -0.828125q0.609375 -0.28125 1.375 -0.28125q0.765625 0 1.3125 0.3125q0.5625 0.296875 0.921875 0.890625q0.375 0.578125 0.578125 1.421875q0.21875 0.828125 0.3125 1.875l0 1.234375q-0.09375 1.03125 -0.3125 1.859375q-0.203125 0.828125 -0.578125 1.421875q-0.375 0.578125 -0.9375 0.890625q-0.5625 0.3125 -1.328125 0.3125q-0.734375 0 -1.34375 -0.28125q-0.59375 -0.296875 -1.03125 -0.875q-0.4375 -0.578125 -0.671875 -1.4375q-0.21875 -0.875 -0.21875 -2.046875zm1.609375 -0.921875l0 0.921875q0 0.8125 0.109375 1.421875q0.125 0.609375 0.375 1.015625q0.25 0.390625 0.640625 0.578125q0.40625 0.1875 0.953125 0.1875q0.671875 0 1.09375 -0.328125q0.4375 -0.328125 0.6875 -0.859375q0.265625 -0.546875 0.421875 -1.171875l0 -2.59375q-0.078125 -0.46875 -0.25 -0.890625q-0.171875 -0.4375 -0.4375 -0.78125q-0.265625 -0.34375 -0.640625 -0.546875q-0.359375 -0.203125 -0.859375 -0.203125q-0.546875 0 -0.953125 0.203125q-0.390625 0.203125 -0.65625 0.609375q-0.25 0.390625 -0.375 1.015625q-0.109375 0.609375 -0.109375 1.421875zm11.434967 5.5625q-0.875 0 -1.59375 -0.265625q-0.703125 -0.265625 -1.203125 -0.8125q-0.5 -0.546875 -0.765625 -1.375q-0.265625 -0.828125 -0.265625 -1.953125l0 -1.109375q0 -1.296875 0.296875 -2.203125q0.3125 -0.90625 0.828125 -1.453125q0.515625 -0.546875 1.171875 -0.796875q0.65625 -0.25 1.359375 -0.25q0.921875 0 1.578125 0.296875q0.65625 0.296875 1.0625 0.890625q0.40625 0.59375 0.59375 1.46875q0.203125 0.859375 0.203125 1.984375l0 0.9375l-6.15625 0l0 -1.375l4.546875 0l0 -0.234375q-0.03125 -0.765625 -0.203125 -1.34375q-0.171875 -0.578125 -0.5625 -0.90625q-0.375 -0.34375 -1.0625 -0.34375q-0.453125 0 -0.828125 0.15625q-0.375 0.140625 -0.65625 0.515625q-0.265625 0.375 -0.421875 1.015625q-0.140625 0.640625 -0.140625 1.640625l0 1.109375q0 0.796875 0.140625 1.375q0.15625 0.5625 0.453125 0.9375q0.296875 0.359375 0.71875 0.546875q0.4375 0.171875 1.0 0.171875q0.8125 0 1.34375 -0.3125q0.53125 -0.328125 0.921875 -0.8125l0.84375 1.015625q-0.265625 0.375 -0.6875 0.71875q-0.421875 0.328125 -1.046875 0.546875q-0.609375 0.21875 -1.46875 0.21875zm6.838867 -7.9375l0 7.75l-1.609375 0l0 -9.859375l1.515625 0l0.09375 2.109375zm-0.390625 2.453125l-0.65625 -0.03125q-0.015625 -1.015625 0.21875 -1.875q0.25 -0.859375 0.703125 -1.5q0.453125 -0.640625 1.078125 -0.984375q0.625 -0.34375 1.390625 -0.34375q0.609375 0 1.09375 0.203125q0.5 0.1875 0.84375 0.609375q0.34375 0.421875 0.53125 1.109375q0.1875 0.671875 0.1875 1.65625l0 6.453125l-1.609375 0l0 -6.484375q0 -0.765625 -0.171875 -1.234375q-0.171875 -0.46875 -0.515625 -0.6875q-0.34375 -0.21875 -0.859375 -0.21875q-0.46875 0 -0.890625 0.265625q-0.40625 0.265625 -0.71875 0.734375q-0.296875 0.46875 -0.46875 1.0625q-0.15625 0.59375 -0.15625 1.265625zm11.411621 -4.5625l0 1.296875l-4.609375 0l0 -1.296875l4.609375 0zm-3.09375 -2.390625l1.609375 0l0 9.8125q0 0.5 0.125 0.75q0.125 0.25 0.3125 0.34375q0.1875 0.078125 0.40625 0.078125q0.171875 0 0.359375 -0.03125q0.203125 -0.046875 0.28125 -0.078125l-0.015625 1.375q-0.15625 0.0625 -0.4375 0.125q-0.265625 0.0625 -0.6875 0.0625q-0.515625 0 -0.96875 -0.25q-0.4375 -0.25 -0.71875 -0.828125q-0.265625 -0.578125 -0.265625 -1.5625l0 -9.796875z" fill-rule="nonzero"/></g><path fill="#000000" fill-opacity="0.0" d="m306.01312 343.32022l0 -79.95276l0.06298828 0l0 -79.95276" fill-rule="evenodd"/><path stroke="#595959" stroke-width="2.0" stroke-linejoin="round" stroke-linecap="butt" d="m306.01312 343.32022l0 -79.95276l0.06298828 0l0 -79.95276" fill-rule="evenodd"/><path fill="#000000" fill-opacity="0.0" d="m305.6929 343.43832l67.49606 -0.09448242" fill-rule="evenodd"/><path stroke="#595959" stroke-width="2.0" stroke-linejoin="round" stroke-linecap="butt" d="m305.6929 343.43832l67.49606 -0.09448242" fill-rule="evenodd"/><path fill="#000000" fill-opacity="0.0" d="m306.07086 183.42258l67.1181 0" fill-rule="evenodd"/><path stroke="#595959" stroke-width="2.0" stroke-linejoin="round" stroke-linecap="butt" d="m306.07086 183.42258l55.86154 0" fill-rule="evenodd"/><path fill="#595959" stroke="#595959" stroke-width="2.0" stroke-linecap="butt" d="m361.93243 183.42258l4.756531 3.3305664l4.7565613 -3.3305664l-4.7565613 -3.3305817z" fill-rule="evenodd"/><path fill="#000000" fill-opacity="0.0" d="m585.33124 191.0275l0 72.409454l0.06298828 0l0 72.409454" fill-rule="evenodd"/><path stroke="#595959" stroke-width="2.0" stroke-linejoin="round" stroke-linecap="butt" d="m585.33124 191.0275l0 72.409454l0.06298828 0l0 72.409454" fill-rule="evenodd"/><path fill="#000000" fill-opacity="0.0" d="m585.61945 190.92053l-60.74646 0.08557129" fill-rule="evenodd"/><path stroke="#595959" stroke-width="2.0" stroke-linejoin="round" stroke-linecap="butt" d="m585.61945 190.92053l-60.74646 0.08557129" fill-rule="evenodd"/><path fill="#000000" fill-opacity="0.0" d="m585.27924 335.8308l-60.40625 0" fill-rule="evenodd"/><path stroke="#595959" stroke-width="2.0" stroke-linejoin="round" stroke-linecap="butt" d="m585.2793 335.83078l-49.14978 0" fill-rule="evenodd"/><path fill="#595959" stroke="#595959" stroke-width="2.0" stroke-linecap="butt" d="m536.1295 335.83078l-4.756592 -3.3305664l-4.756531 3.3305664l4.756531 3.330597z" fill-rule="evenodd"/><path fill="#000000" fill-opacity="0.0" d="m609.5288 161.60023l0 101.85835l0.0881958 0l0 101.8584" fill-rule="evenodd"/><path stroke="#595959" stroke-width="2.0" stroke-linejoin="round" stroke-linecap="butt" d="m609.5288 161.60023l0 101.85835l0.0881958 0l0 101.8584" fill-rule="evenodd"/><path fill="#000000" fill-opacity="0.0" d="m609.9323 161.44977l-85.05829 0.13291931" fill-rule="evenodd"/><path stroke="#595959" stroke-width="2.0" stroke-linejoin="round" stroke-linecap="butt" d="m609.9323 161.44977l-85.05829 0.13291931" fill-rule="evenodd"/><path fill="#000000" fill-opacity="0.0" d="m609.45605 365.29504l-84.57324 0" fill-rule="evenodd"/><path stroke="#595959" stroke-width="2.0" stroke-linejoin="round" stroke-linecap="butt" d="m609.45605 365.29504l-73.31665 0" fill-rule="evenodd"/><path fill="#595959" stroke="#595959" stroke-width="2.0" stroke-linecap="butt" d="m536.1394 365.29504l-4.756592 -3.330597l-4.756531 3.330597l4.756531 3.3305664z" fill-rule="evenodd"/><path fill="#000000" fill-opacity="0.0" d="m200.94751 248.26772l136.94489 0l0 43.464554l-136.94489 0z" fill-rule="evenodd"/><path fill="#595959" d="m242.5573 261.4271l-2.59375 8.640625l-1.21875 0l3.046875 -9.46875l0.765625 0l0 0.828125zm2.09375 8.640625l-2.59375 -8.640625l-0.015625 -0.828125l0.78125 0l3.046875 9.46875l-1.21875 0zm0 -3.5l0 1.015625l-4.5625 0l0 -1.015625l4.5625 0zm4.8108063 2.640625q0.34375 0 0.625 -0.125q0.28125 -0.140625 0.453125 -0.4375q0.1875 -0.3125 0.21875 -0.796875l1.078125 0q-0.03125 0.703125 -0.359375 1.234375q-0.328125 0.515625 -0.859375 0.8125q-0.53125 0.296875 -1.15625 0.296875q-0.6875 0 -1.203125 -0.21875q-0.5 -0.21875 -0.828125 -0.640625q-0.328125 -0.421875 -0.5 -1.015625q-0.15625 -0.609375 -0.15625 -1.375l0 -0.796875q0 -0.765625 0.15625 -1.359375q0.171875 -0.609375 0.5 -1.03125q0.328125 -0.421875 0.828125 -0.640625q0.515625 -0.21875 1.203125 -0.21875q0.703125 0 1.21875 0.3125q0.53125 0.296875 0.828125 0.875q0.296875 0.5625 0.328125 1.359375l-1.078125 0q-0.03125 -0.515625 -0.203125 -0.859375q-0.15625 -0.359375 -0.4375 -0.53125q-0.265625 -0.171875 -0.65625 -0.171875q-0.46875 0 -0.765625 0.171875q-0.28125 0.15625 -0.453125 0.453125q-0.171875 0.296875 -0.25 0.71875q-0.0625 0.40625 -0.0625 0.921875l0 0.796875q0 0.515625 0.0625 0.9375q0.078125 0.421875 0.234375 0.71875q0.171875 0.296875 0.46875 0.453125q0.296875 0.15625 0.765625 0.15625zm6.2814484 -6.1875l0 0.921875l-3.28125 0l0 -0.921875l3.28125 0zm-2.21875 -1.703125l1.15625 0l0 7.0q0 0.359375 0.078125 0.546875q0.09375 0.1875 0.234375 0.25q0.140625 0.046875 0.296875 0.046875q0.109375 0 0.25 -0.03125q0.15625 -0.03125 0.203125 -0.046875l-0.015625 0.984375q-0.109375 0.046875 -0.3125 0.078125q-0.1875 0.046875 -0.484375 0.046875q-0.375 0 -0.703125 -0.171875q-0.3125 -0.171875 -0.515625 -0.578125q-0.1875 -0.421875 -0.1875 -1.125l0 -7.0zm4.8343964 1.703125l0 7.046875l-1.15625 0l0 -7.046875l1.15625 0zm-1.21875 -1.859375q0 -0.296875 0.15625 -0.5q0.171875 -0.203125 0.5 -0.203125q0.328125 0 0.484375 0.203125q0.171875 0.203125 0.171875 0.5q0 0.28125 -0.171875 0.484375q-0.15625 0.1875 -0.484375 0.1875q-0.328125 0 -0.5 -0.1875q-0.15625 -0.203125 -0.15625 -0.484375zm2.7930603 5.71875l0 -0.671875q0 -0.8125 0.203125 -1.4375q0.21875 -0.625 0.578125 -1.03125q0.375 -0.421875 0.859375 -0.625q0.5 -0.21875 1.078125 -0.21875q0.578125 0 1.0625 0.21875q0.5 0.203125 0.875 0.625q0.375 0.40625 0.578125 1.03125q0.21875 0.625 0.21875 1.4375l0 0.671875q0 0.828125 -0.21875 1.453125q-0.203125 0.609375 -0.578125 1.03125q-0.375 0.421875 -0.875 0.625q-0.484375 0.203125 -1.0625 0.203125q-0.5625 0 -1.0625 -0.203125q-0.484375 -0.203125 -0.859375 -0.625q-0.375 -0.421875 -0.59375 -1.03125q-0.203125 -0.625 -0.203125 -1.453125zm1.15625 -0.671875l0 0.671875q0 0.578125 0.109375 1.015625q0.125 0.4375 0.328125 0.734375q0.21875 0.296875 0.5 0.4375q0.296875 0.140625 0.625 0.140625q0.390625 0 0.6875 -0.140625q0.296875 -0.140625 0.484375 -0.4375q0.203125 -0.296875 0.296875 -0.734375q0.109375 -0.4375 0.109375 -1.015625l0 -0.671875q0 -0.578125 -0.125 -1.0q-0.109375 -0.4375 -0.328125 -0.734375q-0.21875 -0.296875 -0.515625 -0.4375q-0.28125 -0.15625 -0.609375 -0.15625q-0.34375 0 -0.625 0.15625q-0.28125 0.140625 -0.5 0.4375q-0.203125 0.296875 -0.328125 0.734375q-0.109375 0.421875 -0.109375 1.0zm6.924469 -1.671875l0 5.53125l-1.15625 0l0 -7.046875l1.09375 0l0.0625 1.515625zm-0.28125 1.75l-0.46875 -0.03125q0 -0.71875 0.171875 -1.328125q0.171875 -0.625 0.484375 -1.078125q0.328125 -0.453125 0.78125 -0.703125q0.453125 -0.25 1.0 -0.25q0.421875 0 0.765625 0.140625q0.359375 0.140625 0.609375 0.453125q0.25 0.296875 0.375 0.78125q0.140625 0.484375 0.140625 1.1875l0 4.609375l-1.15625 0l0 -4.625q0 -0.5625 -0.125 -0.890625q-0.109375 -0.328125 -0.359375 -0.484375q-0.25 -0.15625 -0.609375 -0.15625q-0.34375 0 -0.640625 0.1875q-0.28125 0.1875 -0.5 0.53125q-0.21875 0.328125 -0.34375 0.75q-0.125 0.421875 -0.125 0.90625zm14.7413025 0l0 -0.078125q0 -1.40625 0.28125 -2.546875q0.28125 -1.15625 0.71875 -2.015625q0.4375 -0.875 0.90625 -1.4375q0.46875 -0.578125 0.84375 -0.828125l0.234375 0.78125q-0.296875 0.296875 -0.625 0.8125q-0.3125 0.515625 -0.59375 1.265625q-0.265625 0.75 -0.4375 1.734375q-0.171875 0.984375 -0.171875 2.234375l0 0.078125q0 1.25 0.171875 2.25q0.171875 0.984375 0.4375 1.734375q0.28125 0.75 0.59375 1.28125q0.328125 0.53125 0.625 0.84375l-0.234375 0.734375q-0.375 -0.25 -0.84375 -0.828125q-0.46875 -0.5625 -0.90625 -1.4375q-0.4375 -0.859375 -0.71875 -2.0q-0.28125 -1.15625 -0.28125 -2.578125zm7.4345703 -4.859375l-2.59375 8.640625l-1.21875 0l3.046875 -9.46875l0.765625 0l0 0.828125zm2.09375 8.640625l-2.59375 -8.640625l-0.015625 -0.828125l0.78125 0l3.046875 9.46875l-1.21875 0zm0 -3.5l0 1.015625l-4.5625 0l0 -1.015625l4.5625 0z" fill-rule="nonzero"/><path fill="#595959" d="m295.7819 270.38022l0 0.609375l-2.1875 0l0 -0.609375l2.1875 0zm-1.46875 -1.140625l0.765625 0l0 4.671875q0 0.234375 0.0625 0.359375q0.0625 0.109375 0.140625 0.15625q0.09375 0.03125 0.203125 0.03125q0.078125 0 0.171875 -0.015625q0.09375 -0.015625 0.125 -0.03125l0 0.65625q-0.078125 0.03125 -0.203125 0.0625q-0.125 0.03125 -0.328125 0.03125q-0.25 0 -0.46875 -0.109375q-0.203125 -0.125 -0.34375 -0.40625q-0.125 -0.28125 -0.125 -0.75l0 -4.65625z" fill-rule="nonzero"/><path fill="#595959" d="m299.47046 266.20834l0 0.078125q0 1.421875 -0.296875 2.578125q-0.28125 1.140625 -0.71875 2.0q-0.421875 0.875 -0.890625 1.4375q-0.46875 0.578125 -0.859375 0.828125l-0.234375 -0.734375q0.3125 -0.296875 0.625 -0.828125q0.328125 -0.515625 0.609375 -1.28125q0.28125 -0.765625 0.4375 -1.75q0.171875 -1.0 0.171875 -2.25l0 -0.078125q0 -1.25 -0.1875 -2.234375q-0.171875 -1.0 -0.46875 -1.765625q-0.28125 -0.765625 -0.59375 -1.28125q-0.3125 -0.53125 -0.59375 -0.8125l0.234375 -0.734375q0.390625 0.25 0.859375 0.828125q0.46875 0.5625 0.890625 1.4375q0.4375 0.859375 0.71875 2.015625q0.296875 1.140625 0.296875 2.546875z" fill-rule="nonzero"/><path fill="#000000" fill-opacity="0.0" d="m484.85773 248.26772l125.60632 0l0 43.464554l-125.60632 0z" fill-rule="evenodd"/><path fill="#595959" d="m515.57837 260.59897l2.640625 0q0.921875 0 1.546875 0.328125q0.640625 0.3125 0.953125 0.953125q0.328125 0.625 0.328125 1.5625q0 0.640625 -0.21875 1.1875q-0.203125 0.53125 -0.625 0.90625q-0.40625 0.375 -0.984375 0.5625l-0.328125 0.125l-2.359375 0l-0.015625 -1.015625l1.6875 0q0.546875 0 0.90625 -0.234375q0.375 -0.25 0.546875 -0.640625q0.1875 -0.40625 0.1875 -0.890625q0 -0.546875 -0.15625 -0.953125q-0.15625 -0.421875 -0.515625 -0.640625q-0.359375 -0.234375 -0.953125 -0.234375l-1.453125 0l0 8.453125l-1.1875 0l0 -9.46875zm4.546875 9.46875l-1.890625 -4.296875l1.25 0l1.921875 4.21875l0 0.078125l-1.28125 0zm4.8865967 0.125q-0.640625 0 -1.15625 -0.1875q-0.5 -0.1875 -0.859375 -0.5625q-0.359375 -0.390625 -0.546875 -0.984375q-0.1875 -0.59375 -0.1875 -1.40625l0 -0.796875q0 -0.921875 0.21875 -1.5625q0.21875 -0.65625 0.59375 -1.046875q0.375 -0.390625 0.84375 -0.5625q0.46875 -0.1875 0.953125 -0.1875q0.671875 0 1.140625 0.21875q0.46875 0.21875 0.75 0.640625q0.296875 0.421875 0.4375 1.046875q0.140625 0.609375 0.140625 1.40625l0 0.671875l-4.390625 0l0 -0.984375l3.234375 0l0 -0.15625q-0.015625 -0.546875 -0.140625 -0.953125q-0.125 -0.421875 -0.40625 -0.65625q-0.265625 -0.25 -0.765625 -0.25q-0.3125 0 -0.59375 0.109375q-0.265625 0.109375 -0.453125 0.375q-0.1875 0.265625 -0.296875 0.734375q-0.109375 0.453125 -0.109375 1.15625l0 0.796875q0 0.5625 0.109375 0.96875q0.109375 0.40625 0.3125 0.671875q0.21875 0.265625 0.515625 0.390625q0.3125 0.125 0.71875 0.125q0.578125 0 0.953125 -0.21875q0.375 -0.21875 0.65625 -0.578125l0.609375 0.71875q-0.1875 0.28125 -0.5 0.53125q-0.296875 0.234375 -0.734375 0.390625q-0.4375 0.140625 -1.046875 0.140625zm5.1694336 -1.375l1.546875 -5.796875l0.75 0l-0.078125 1.15625l-1.5625 5.890625l-0.71875 0l0.0625 -1.25zm-0.84375 -5.796875l1.296875 5.859375l0.046875 1.1875l-0.765625 0l-1.71875 -7.046875l1.140625 0zm4.484375 5.8125l1.234375 -5.8125l1.125 0l-1.71875 7.046875l-0.75 0l0.109375 -1.234375zm-1.171875 -5.8125l1.515625 5.703125l0.09375 1.34375l-0.703125 0l-1.625 -5.90625l-0.078125 -1.140625l0.796875 0zm8.193237 5.84375l0 -3.828125q0 -0.40625 -0.125 -0.65625q-0.125 -0.265625 -0.375 -0.375q-0.25 -0.125 -0.625 -0.125q-0.375 0 -0.640625 0.15625q-0.25 0.140625 -0.390625 0.390625q-0.140625 0.25 -0.140625 0.546875l-1.15625 0q0 -0.375 0.15625 -0.734375q0.171875 -0.375 0.484375 -0.671875q0.3125 -0.3125 0.75 -0.484375q0.4375 -0.1875 0.984375 -0.1875q0.65625 0 1.15625 0.21875q0.5 0.203125 0.78125 0.6875q0.296875 0.46875 0.296875 1.25l0 3.484375q0 0.34375 0.046875 0.75q0.0625 0.390625 0.171875 0.671875l0 0.109375l-1.203125 0q-0.078125 -0.203125 -0.125 -0.546875q-0.046875 -0.359375 -0.046875 -0.65625zm0.1875 -3.0625l0.015625 0.84375l-0.8125 0q-0.40625 0 -0.75 0.09375q-0.328125 0.09375 -0.578125 0.265625q-0.234375 0.171875 -0.359375 0.421875q-0.125 0.25 -0.125 0.578125q0 0.421875 0.109375 0.671875q0.125 0.25 0.359375 0.359375q0.234375 0.109375 0.59375 0.109375q0.4375 0 0.765625 -0.203125q0.328125 -0.203125 0.515625 -0.484375q0.1875 -0.28125 0.171875 -0.53125l0.265625 0.546875q-0.03125 0.25 -0.171875 0.546875q-0.140625 0.296875 -0.390625 0.5625q-0.25 0.265625 -0.578125 0.4375q-0.328125 0.171875 -0.75 0.171875q-0.609375 0 -1.078125 -0.234375q-0.453125 -0.234375 -0.71875 -0.6875q-0.25 -0.453125 -0.25 -1.125q0 -0.5 0.171875 -0.921875q0.1875 -0.4375 0.53125 -0.75q0.34375 -0.328125 0.859375 -0.5q0.53125 -0.171875 1.21875 -0.171875l0.984375 0zm3.8998413 -1.671875l0 5.9375l-1.15625 0l0 -7.046875l1.125 0l0.03125 1.109375zm1.75 -1.140625l0.015625 1.109375q-0.15625 -0.03125 -0.265625 -0.03125q-0.109375 -0.015625 -0.265625 -0.015625q-0.328125 0 -0.578125 0.140625q-0.234375 0.125 -0.40625 0.359375q-0.171875 0.234375 -0.28125 0.5625q-0.109375 0.3125 -0.140625 0.703125l-0.296875 0.1875q0 -0.640625 0.09375 -1.1875q0.109375 -0.5625 0.3125 -1.0q0.21875 -0.4375 0.546875 -0.671875q0.34375 -0.25 0.8125 -0.25q0.109375 0 0.25 0.03125q0.15625 0.03125 0.203125 0.0625zm4.73407 5.71875l0 -8.640625l1.140625 0l0 10.0l-1.046875 0l-0.09375 -1.359375zm-3.9375 -1.828125l0 -0.65625q0 -0.875 0.15625 -1.5q0.171875 -0.625 0.484375 -1.03125q0.3125 -0.40625 0.75 -0.59375q0.4375 -0.203125 0.96875 -0.203125q0.546875 0 0.9375 0.21875q0.390625 0.21875 0.65625 0.640625q0.265625 0.421875 0.421875 1.015625q0.15625 0.59375 0.203125 1.34375l0 0.875q-0.0625 0.75 -0.21875 1.34375q-0.140625 0.59375 -0.40625 1.015625q-0.265625 0.40625 -0.671875 0.625q-0.390625 0.21875 -0.9375 0.21875q-0.515625 0 -0.953125 -0.203125q-0.421875 -0.203125 -0.75 -0.609375q-0.3125 -0.421875 -0.484375 -1.03125q-0.15625 -0.625 -0.15625 -1.46875zm1.140625 -0.65625l0 0.65625q0 0.59375 0.078125 1.03125q0.09375 0.421875 0.265625 0.703125q0.1875 0.28125 0.46875 0.421875q0.296875 0.140625 0.6875 0.140625q0.484375 0 0.78125 -0.234375q0.3125 -0.234375 0.5 -0.625q0.1875 -0.390625 0.296875 -0.828125l0 -1.859375q-0.0625 -0.328125 -0.1875 -0.625q-0.125 -0.3125 -0.3125 -0.5625q-0.1875 -0.25 -0.453125 -0.390625q-0.265625 -0.140625 -0.609375 -0.140625q-0.390625 0 -0.6875 0.140625q-0.296875 0.140625 -0.46875 0.4375q-0.171875 0.28125 -0.265625 0.71875q-0.09375 0.4375 -0.09375 1.015625zm14.866211 0.0625l0 -0.078125q0 -1.40625 0.28125 -2.546875q0.28125 -1.15625 0.71875 -2.015625q0.4375 -0.875 0.90625 -1.4375q0.46875 -0.578125 0.84375 -0.828125l0.234375 0.78125q-0.296875 0.296875 -0.625 0.8125q-0.3125 0.515625 -0.59375 1.265625q-0.265625 0.75 -0.4375 1.734375q-0.171875 0.984375 -0.171875 2.234375l0 0.078125q0 1.25 0.171875 2.25q0.171875 0.984375 0.4375 1.734375q0.28125 0.75 0.59375 1.28125q0.328125 0.53125 0.625 0.84375l-0.234375 0.734375q-0.375 -0.25 -0.84375 -0.828125q-0.46875 -0.5625 -0.90625 -1.4375q-0.4375 -0.859375 -0.71875 -2.0q-0.28125 -1.15625 -0.28125 -2.578125zm4.3720703 -5.6875l2.640625 0q0.921875 0 1.546875 0.328125q0.640625 0.3125 0.953125 0.953125q0.328125 0.625 0.328125 1.5625q0 0.640625 -0.21875 1.1875q-0.203125 0.53125 -0.625 0.90625q-0.40625 0.375 -0.984375 0.5625l-0.328125 0.125l-2.359375 0l-0.015625 -1.015625l1.6875 0q0.546875 0 0.90625 -0.234375q0.375 -0.25 0.546875 -0.640625q0.1875 -0.40625 0.1875 -0.890625q0 -0.546875 -0.15625 -0.953125q-0.15625 -0.421875 -0.515625 -0.640625q-0.359375 -0.234375 -0.953125 -0.234375l-1.453125 0l0 8.453125l-1.1875 0l0 -9.46875zm4.546875 9.46875l-1.890625 -4.296875l1.25 0l1.921875 4.21875l0 0.078125l-1.28125 0z" fill-rule="nonzero"/><path fill="#595959" d="m576.1802 270.38022l0 0.609375l-2.1875 0l0 -0.609375l2.1875 0zm-1.46875 -1.140625l0.765625 0l0 4.671875q0 0.234375 0.0625 0.359375q0.0625 0.109375 0.140625 0.15625q0.09375 0.03125 0.203125 0.03125q0.078125 0 0.171875 -0.015625q0.09375 -0.015625 0.125 -0.03125l0 0.65625q-0.078125 0.03125 -0.203125 0.0625q-0.125 0.03125 -0.328125 0.03125q-0.25 0 -0.46875 -0.109375q-0.203125 -0.125 -0.34375 -0.40625q-0.125 -0.28125 -0.125 -0.75l0 -4.65625z" fill-rule="nonzero"/><path fill="#595959" d="m579.8687 266.20834l0 0.078125q0 1.421875 -0.296875 2.578125q-0.28125 1.140625 -0.71875 2.0q-0.421875 0.875 -0.890625 1.4375q-0.46875 0.578125 -0.859375 0.828125l-0.234375 -0.734375q0.3125 -0.296875 0.625 -0.828125q0.328125 -0.515625 0.609375 -1.28125q0.28125 -0.765625 0.4375 -1.75q0.171875 -1.0 0.171875 -2.25l0 -0.078125q0 -1.25 -0.1875 -2.234375q-0.171875 -1.0 -0.46875 -1.765625q-0.28125 -0.765625 -0.59375 -1.28125q-0.3125 -0.53125 -0.59375 -0.8125l0.234375 -0.734375q0.390625 0.25 0.859375 0.828125q0.46875 0.5625 0.890625 1.4375q0.4375 0.859375 0.71875 2.015625q0.296875 1.140625 0.296875 2.546875z" fill-rule="nonzero"/><path fill="#000000" fill-opacity="0.0" d="m574.37006 248.26772l136.94489 0l0 43.464554l-136.94489 0z" fill-rule="evenodd"/><path fill="#595959" d="m620.72516 267.6771q0 -0.34375 -0.078125 -0.59375q-0.078125 -0.25 -0.28125 -0.453125q-0.1875 -0.21875 -0.546875 -0.40625q-0.34375 -0.1875 -0.890625 -0.390625q-0.578125 -0.203125 -1.0625 -0.453125q-0.46875 -0.265625 -0.8125 -0.59375q-0.328125 -0.328125 -0.515625 -0.75q-0.171875 -0.4375 -0.171875 -1.0q0 -0.546875 0.1875 -1.015625q0.1875 -0.46875 0.546875 -0.8125q0.359375 -0.359375 0.859375 -0.546875q0.5 -0.203125 1.109375 -0.203125q0.921875 0 1.5625 0.40625q0.640625 0.40625 0.953125 1.0625q0.328125 0.65625 0.328125 1.40625l-1.1875 0q0 -0.546875 -0.171875 -0.953125q-0.171875 -0.421875 -0.546875 -0.65625q-0.359375 -0.234375 -0.9375 -0.234375q-0.515625 0 -0.859375 0.203125q-0.328125 0.203125 -0.484375 0.546875q-0.15625 0.34375 -0.15625 0.78125q0 0.3125 0.09375 0.5625q0.109375 0.234375 0.328125 0.4375q0.21875 0.203125 0.546875 0.390625q0.328125 0.171875 0.78125 0.328125q0.6875 0.234375 1.1875 0.515625q0.5 0.28125 0.8125 0.625q0.3125 0.34375 0.453125 0.78125q0.140625 0.4375 0.140625 1.0q0 0.578125 -0.1875 1.046875q-0.1875 0.46875 -0.5625 0.796875q-0.359375 0.328125 -0.875 0.515625q-0.515625 0.171875 -1.15625 0.171875q-0.5625 0 -1.09375 -0.171875q-0.53125 -0.1875 -0.96875 -0.546875q-0.4375 -0.375 -0.703125 -0.90625q-0.265625 -0.53125 -0.265625 -1.25l1.203125 0q0 0.484375 0.140625 0.84375q0.140625 0.34375 0.390625 0.578125q0.265625 0.21875 0.59375 0.328125q0.328125 0.109375 0.703125 0.109375q0.515625 0 0.875 -0.171875q0.359375 -0.1875 0.53125 -0.53125q0.1875 -0.34375 0.1875 -0.796875zm5.177002 -4.65625l0 0.921875l-3.28125 0l0 -0.921875l3.28125 0zm-2.21875 -1.703125l1.15625 0l0 7.0q0 0.359375 0.078125 0.546875q0.09375 0.1875 0.234375 0.25q0.140625 0.046875 0.296875 0.046875q0.109375 0 0.25 -0.03125q0.15625 -0.03125 0.203125 -0.046875l-0.015625 0.984375q-0.109375 0.046875 -0.3125 0.078125q-0.1875 0.046875 -0.484375 0.046875q-0.375 0 -0.703125 -0.171875q-0.3125 -0.171875 -0.515625 -0.578125q-0.1875 -0.421875 -0.1875 -1.125l0 -7.0zm7.0375366 7.546875l0 -3.828125q0 -0.40625 -0.125 -0.65625q-0.125 -0.265625 -0.375 -0.375q-0.25 -0.125 -0.625 -0.125q-0.375 0 -0.640625 0.15625q-0.25 0.140625 -0.390625 0.390625q-0.140625 0.25 -0.140625 0.546875l-1.15625 0q0 -0.375 0.15625 -0.734375q0.171875 -0.375 0.484375 -0.671875q0.3125 -0.3125 0.75 -0.484375q0.4375 -0.1875 0.984375 -0.1875q0.65625 0 1.15625 0.21875q0.5 0.203125 0.78125 0.6875q0.296875 0.46875 0.296875 1.25l0 3.484375q0 0.34375 0.046875 0.75q0.0625 0.390625 0.171875 0.671875l0 0.109375l-1.203125 0q-0.078125 -0.203125 -0.125 -0.546875q-0.046875 -0.359375 -0.046875 -0.65625zm0.1875 -3.0625l0.015625 0.84375l-0.8125 0q-0.40625 0 -0.75 0.09375q-0.328125 0.09375 -0.578125 0.265625q-0.234375 0.171875 -0.359375 0.421875q-0.125 0.25 -0.125 0.578125q0 0.421875 0.109375 0.671875q0.125 0.25 0.359375 0.359375q0.234375 0.109375 0.59375 0.109375q0.4375 0 0.765625 -0.203125q0.328125 -0.203125 0.515625 -0.484375q0.1875 -0.28125 0.171875 -0.53125l0.265625 0.546875q-0.03125 0.25 -0.171875 0.546875q-0.140625 0.296875 -0.390625 0.5625q-0.25 0.265625 -0.578125 0.4375q-0.328125 0.171875 -0.75 0.171875q-0.609375 0 -1.078125 -0.234375q-0.453125 -0.234375 -0.71875 -0.6875q-0.25 -0.453125 -0.25 -1.125q0 -0.5 0.171875 -0.921875q0.1875 -0.4375 0.53125 -0.75q0.34375 -0.328125 0.859375 -0.5q0.53125 -0.171875 1.21875 -0.171875l0.984375 0zm5.3217163 -2.78125l0 0.921875l-3.28125 0l0 -0.921875l3.28125 0zm-2.21875 -1.703125l1.15625 0l0 7.0q0 0.359375 0.078125 0.546875q0.09375 0.1875 0.234375 0.25q0.140625 0.046875 0.296875 0.046875q0.109375 0 0.25 -0.03125q0.15625 -0.03125 0.203125 -0.046875l-0.015625 0.984375q-0.109375 0.046875 -0.3125 0.078125q-0.1875 0.046875 -0.484375 0.046875q-0.375 0 -0.703125 -0.171875q-0.3125 -0.171875 -0.515625 -0.578125q-0.1875 -0.421875 -0.1875 -1.125l0 -7.0zm6.1156616 8.875q-0.640625 0 -1.15625 -0.1875q-0.5 -0.1875 -0.859375 -0.5625q-0.359375 -0.390625 -0.546875 -0.984375q-0.1875 -0.59375 -0.1875 -1.40625l0 -0.796875q0 -0.921875 0.21875 -1.5625q0.21875 -0.65625 0.59375 -1.046875q0.375 -0.390625 0.84375 -0.5625q0.46875 -0.1875 0.953125 -0.1875q0.671875 0 1.140625 0.21875q0.46875 0.21875 0.75 0.640625q0.296875 0.421875 0.4375 1.046875q0.140625 0.609375 0.140625 1.40625l0 0.671875l-4.390625 0l0 -0.984375l3.234375 0l0 -0.15625q-0.015625 -0.546875 -0.140625 -0.953125q-0.125 -0.421875 -0.40625 -0.65625q-0.265625 -0.25 -0.765625 -0.25q-0.3125 0 -0.59375 0.109375q-0.265625 0.109375 -0.453125 0.375q-0.1875 0.265625 -0.296875 0.734375q-0.109375 0.453125 -0.109375 1.15625l0 0.796875q0 0.5625 0.109375 0.96875q0.109375 0.40625 0.3125 0.671875q0.21875 0.265625 0.515625 0.390625q0.3125 0.125 0.71875 0.125q0.578125 0 0.953125 -0.21875q0.375 -0.21875 0.65625 -0.578125l0.609375 0.71875q-0.1875 0.28125 -0.5 0.53125q-0.296875 0.234375 -0.734375 0.390625q-0.4375 0.140625 -1.046875 0.140625zm12.87677 -3.90625l0 -0.078125q0 -1.40625 0.28125 -2.546875q0.28125 -1.15625 0.71875 -2.015625q0.4375 -0.875 0.90625 -1.4375q0.46875 -0.578125 0.84375 -0.828125l0.234375 0.78125q-0.296875 0.296875 -0.625 0.8125q-0.3125 0.515625 -0.59375 1.265625q-0.265625 0.75 -0.4375 1.734375q-0.171875 0.984375 -0.171875 2.234375l0 0.078125q0 1.25 0.171875 2.25q0.171875 0.984375 0.4375 1.734375q0.28125 0.75 0.59375 1.28125q0.328125 0.53125 0.625 0.84375l-0.234375 0.734375q-0.375 -0.25 -0.84375 -0.828125q-0.46875 -0.5625 -0.90625 -1.4375q-0.4375 -0.859375 -0.71875 -2.0q-0.28125 -1.15625 -0.28125 -2.578125zm8.512695 1.390625q0 -0.34375 -0.078125 -0.59375q-0.078125 -0.25 -0.28125 -0.453125q-0.1875 -0.21875 -0.546875 -0.40625q-0.34375 -0.1875 -0.890625 -0.390625q-0.578125 -0.203125 -1.0625 -0.453125q-0.46875 -0.265625 -0.8125 -0.59375q-0.328125 -0.328125 -0.515625 -0.75q-0.171875 -0.4375 -0.171875 -1.0q0 -0.546875 0.1875 -1.015625q0.1875 -0.46875 0.546875 -0.8125q0.359375 -0.359375 0.859375 -0.546875q0.5 -0.203125 1.109375 -0.203125q0.921875 0 1.5625 0.40625q0.640625 0.40625 0.953125 1.0625q0.328125 0.65625 0.328125 1.40625l-1.1875 0q0 -0.546875 -0.171875 -0.953125q-0.171875 -0.421875 -0.546875 -0.65625q-0.359375 -0.234375 -0.9375 -0.234375q-0.515625 0 -0.859375 0.203125q-0.328125 0.203125 -0.484375 0.546875q-0.15625 0.34375 -0.15625 0.78125q0 0.3125 0.09375 0.5625q0.109375 0.234375 0.328125 0.4375q0.21875 0.203125 0.546875 0.390625q0.328125 0.171875 0.78125 0.328125q0.6875 0.234375 1.1875 0.515625q0.5 0.28125 0.8125 0.625q0.3125 0.34375 0.453125 0.78125q0.140625 0.4375 0.140625 1.0q0 0.578125 -0.1875 1.046875q-0.1875 0.46875 -0.5625 0.796875q-0.359375 0.328125 -0.875 0.515625q-0.515625 0.171875 -1.15625 0.171875q-0.5625 0 -1.09375 -0.171875q-0.53125 -0.1875 -0.96875 -0.546875q-0.4375 -0.375 -0.703125 -0.90625q-0.265625 -0.53125 -0.265625 -1.25l1.203125 0q0 0.484375 0.140625 0.84375q0.140625 0.34375 0.390625 0.578125q0.265625 0.21875 0.59375 0.328125q0.328125 0.109375 0.703125 0.109375q0.515625 0 0.875 -0.171875q0.359375 -0.1875 0.53125 -0.53125q0.1875 -0.34375 0.1875 -0.796875z" fill-rule="nonzero"/><path fill="#595959" d="m665.5373 270.38022l0 0.609375l-2.1875 0l0 -0.609375l2.1875 0zm-1.46875 -1.140625l0.765625 0l0 4.671875q0 0.234375 0.0625 0.359375q0.0625 0.109375 0.140625 0.15625q0.09375 0.03125 0.203125 0.03125q0.078125 0 0.171875 -0.015625q0.09375 -0.015625 0.125 -0.03125l0 0.65625q-0.078125 0.03125 -0.203125 0.0625q-0.125 0.03125 -0.328125 0.03125q-0.25 0 -0.46875 -0.109375q-0.203125 -0.125 -0.34375 -0.40625q-0.125 -0.28125 -0.125 -0.75l0 -4.65625z" fill-rule="nonzero"/><path fill="#595959" d="m669.2258 266.20834l0 0.078125q0 1.421875 -0.296875 2.578125q-0.28125 1.140625 -0.71875 2.0q-0.421875 0.875 -0.890625 1.4375q-0.46875 0.578125 -0.859375 0.828125l-0.234375 -0.734375q0.3125 -0.296875 0.625 -0.828125q0.328125 -0.515625 0.609375 -1.28125q0.28125 -0.765625 0.4375 -1.75q0.171875 -1.0 0.171875 -2.25l0 -0.078125q0 -1.25 -0.1875 -2.234375q-0.171875 -1.0 -0.46875 -1.765625q-0.28125 -0.765625 -0.59375 -1.28125q-0.3125 -0.53125 -0.59375 -0.8125l0.234375 -0.734375q0.390625 0.25 0.859375 0.828125q0.46875 0.5625 0.890625 1.4375q0.4375 0.859375 0.71875 2.015625q0.296875 1.140625 0.296875 2.546875z" fill-rule="nonzero"/><path fill="#000000" fill-opacity="0.0" d="m585.6247 183.3746l-60.75592 0.09448242" fill-rule="evenodd"/><path stroke="#999999" stroke-width="2.0" stroke-linejoin="round" stroke-linecap="butt" stroke-dasharray="2.0,6.0" d="m578.7705 183.38527l-53.901733 0.08383179" fill-rule="evenodd"/><path fill="#999999" stroke="#999999" stroke-width="2.0" stroke-linecap="butt" d="m578.7705 183.38527l-2.2456665 2.2526703l6.1760254 -2.258789l-6.1830444 -2.2395477z" fill-rule="evenodd"/><path fill="#000000" fill-opacity="0.0" d="m526.7743 156.53806l56.944885 0l0 32.314957l-56.944885 0z" fill-rule="evenodd"/><path fill="#999999" d="m545.14545 172.74681l0 -0.046875q0 -1.140625 0.21875 -2.046875q0.234375 -0.921875 0.578125 -1.609375q0.359375 -0.703125 0.734375 -1.15625q0.375 -0.453125 0.671875 -0.65625l0.1875 0.625q-0.25 0.234375 -0.5 0.65625q-0.25 0.40625 -0.46875 1.015625q-0.21875 0.59375 -0.359375 1.390625q-0.140625 0.78125 -0.140625 1.765625l0 0.078125q0 0.984375 0.140625 1.78125q0.140625 0.796875 0.359375 1.390625q0.21875 0.609375 0.46875 1.03125q0.25 0.421875 0.5 0.671875l-0.1875 0.59375q-0.296875 -0.203125 -0.671875 -0.671875q-0.375 -0.453125 -0.734375 -1.140625q-0.34375 -0.6875 -0.578125 -1.609375q-0.21875 -0.921875 -0.21875 -2.0625zm3.5019531 -4.546875l2.109375 0q0.734375 0 1.234375 0.265625q0.515625 0.25 0.765625 0.765625q0.265625 0.5 0.265625 1.25q0 0.515625 -0.171875 0.953125q-0.171875 0.421875 -0.5 0.71875q-0.328125 0.296875 -0.796875 0.453125l-0.265625 0.109375l-1.890625 0l0 -0.828125l1.34375 0q0.4375 0 0.734375 -0.1875q0.296875 -0.1875 0.4375 -0.5q0.140625 -0.328125 0.140625 -0.71875q0 -0.4375 -0.125 -0.765625q-0.125 -0.328125 -0.421875 -0.5q-0.28125 -0.1875 -0.75 -0.1875l-1.15625 0l0 6.75l-0.953125 0l0 -7.578125zm3.625 7.578125l-1.5 -3.4375l0.984375 0l1.546875 3.375l0 0.0625l-1.03125 0z" fill-rule="nonzero"/><path fill="#999999" d="m555.30334 176.02806l0 0.484375l-1.75 0l0 -0.484375l1.75 0zm-1.171875 -0.921875l0.609375 0l0 3.734375q0 0.203125 0.046875 0.296875q0.046875 0.09375 0.109375 0.125q0.078125 0.03125 0.171875 0.03125q0.0625 0 0.140625 -0.015625q0.078125 -0.015625 0.09375 -0.03125l0 0.53125q-0.0625 0.03125 -0.171875 0.046875q-0.09375 0.015625 -0.25 0.015625q-0.203125 0 -0.375 -0.09375q-0.171875 -0.09375 -0.28125 -0.3125q-0.09375 -0.21875 -0.09375 -0.59375l0 -3.734375zm4.6660767 1.953125l0 0.609375l-2.921875 0l0 -0.609375l2.921875 0zm-1.15625 -1.46875l0 3.6875l-0.609375 0l0 -3.6875l0.609375 0zm3.7056885 -0.890625l0 5.078125l-0.609375 0l0 -4.28125l-1.0625 0.46875l0 -0.578125l1.578125 -0.6875l0.09375 0z" fill-rule="nonzero"/><path fill="#999999" d="m565.294 172.69994l0 0.046875q0 1.140625 -0.234375 2.0625q-0.21875 0.921875 -0.578125 1.609375q-0.34375 0.6875 -0.71875 1.140625q-0.375 0.46875 -0.671875 0.671875l-0.1875 -0.59375q0.25 -0.234375 0.5 -0.65625q0.265625 -0.40625 0.484375 -1.03125q0.21875 -0.609375 0.34375 -1.40625q0.140625 -0.796875 0.140625 -1.78125l0 -0.078125q0 -0.984375 -0.140625 -1.78125q-0.140625 -0.796875 -0.375 -1.40625q-0.234375 -0.609375 -0.484375 -1.03125q-0.25 -0.421875 -0.46875 -0.65625l0.1875 -0.578125q0.296875 0.203125 0.671875 0.65625q0.375 0.453125 0.71875 1.15625q0.359375 0.6875 0.578125 1.609375q0.234375 0.90625 0.234375 2.046875z" fill-rule="nonzero"/><path fill="#000000" fill-opacity="0.0" d="m526.7743 126.16798l56.944885 0l0 32.314964l-56.944885 0z" fill-rule="evenodd"/><path fill="#999999" d="m545.2105 142.37672l0 -0.046875q0 -1.140625 0.21875 -2.046875q0.234375 -0.921875 0.578125 -1.609375q0.359375 -0.703125 0.734375 -1.15625q0.375 -0.453125 0.671875 -0.65625l0.1875 0.625q-0.25 0.234375 -0.5 0.65625q-0.25 0.40625 -0.46875 1.015625q-0.21875 0.59375 -0.359375 1.390625q-0.140625 0.78125 -0.140625 1.765625l0 0.078125q0 0.984375 0.140625 1.78125q0.140625 0.796875 0.359375 1.390625q0.21875 0.609375 0.46875 1.03125q0.25 0.421875 0.5 0.671875l-0.1875 0.59375q-0.296875 -0.203125 -0.671875 -0.671875q-0.375 -0.453125 -0.734375 -1.140625q-0.34375 -0.6875 -0.578125 -1.609375q-0.21875 -0.921875 -0.21875 -2.0625zm6.798828 1.109375q0 -0.265625 -0.0625 -0.46875q-0.0625 -0.203125 -0.21875 -0.359375q-0.15625 -0.171875 -0.4375 -0.3125q-0.28125 -0.15625 -0.703125 -0.3125q-0.46875 -0.171875 -0.859375 -0.375q-0.375 -0.203125 -0.640625 -0.46875q-0.265625 -0.265625 -0.421875 -0.609375q-0.140625 -0.34375 -0.140625 -0.796875q0 -0.4375 0.15625 -0.8125q0.15625 -0.375 0.4375 -0.65625q0.28125 -0.28125 0.6875 -0.4375q0.40625 -0.15625 0.890625 -0.15625q0.734375 0 1.234375 0.328125q0.515625 0.328125 0.78125 0.859375q0.265625 0.515625 0.265625 1.109375l-0.96875 0q0 -0.421875 -0.140625 -0.75q-0.125 -0.34375 -0.421875 -0.53125q-0.28125 -0.1875 -0.75 -0.1875q-0.40625 0 -0.6875 0.171875q-0.265625 0.15625 -0.390625 0.4375q-0.125 0.265625 -0.125 0.625q0 0.234375 0.078125 0.4375q0.09375 0.1875 0.265625 0.359375q0.171875 0.15625 0.4375 0.296875q0.265625 0.140625 0.609375 0.28125q0.5625 0.171875 0.953125 0.40625q0.40625 0.21875 0.65625 0.5q0.25 0.28125 0.359375 0.625q0.125 0.34375 0.125 0.796875q0 0.453125 -0.15625 0.828125q-0.15625 0.375 -0.453125 0.640625q-0.28125 0.265625 -0.703125 0.421875q-0.40625 0.140625 -0.921875 0.140625q-0.4375 0 -0.875 -0.140625q-0.421875 -0.15625 -0.78125 -0.4375q-0.34375 -0.296875 -0.5625 -0.71875q-0.203125 -0.4375 -0.203125 -1.015625l0.96875 0q0 0.390625 0.109375 0.671875q0.109375 0.28125 0.3125 0.46875q0.203125 0.171875 0.46875 0.265625q0.265625 0.078125 0.5625 0.078125q0.421875 0 0.703125 -0.140625q0.28125 -0.140625 0.421875 -0.40625q0.140625 -0.28125 0.140625 -0.65625z" fill-rule="nonzero"/><path fill="#999999" d="m555.2383 145.65797l0 0.484375l-1.75 0l0 -0.484375l1.75 0zm-1.171875 -0.921875l0.609375 0l0 3.734375q0 0.203125 0.046875 0.296875q0.046875 0.09375 0.109375 0.125q0.078125 0.03125 0.171875 0.03125q0.0625 0 0.140625 -0.015625q0.078125 -0.015625 0.09375 -0.03125l0 0.53125q-0.0625 0.03125 -0.171875 0.046875q-0.09375 0.015625 -0.25 0.015625q-0.203125 0 -0.375 -0.09375q-0.171875 -0.09375 -0.28125 -0.3125q-0.09375 -0.21875 -0.09375 -0.59375l0 -3.734375zm4.6661377 1.953125l0 0.609375l-2.921875 0l0 -0.609375l2.921875 0zm-1.15625 -1.46875l0 3.6875l-0.609375 0l0 -3.6875l0.609375 0zm3.7056885 -0.890625l0 5.078125l-0.609375 0l0 -4.28125l-1.0625 0.46875l0 -0.578125l1.578125 -0.6875l0.09375 0z" fill-rule="nonzero"/><path fill="#999999" d="m565.22894 142.32985l0 0.046875q0 1.140625 -0.234375 2.0625q-0.21875 0.921875 -0.578125 1.609375q-0.34375 0.6875 -0.71875 1.140625q-0.375 0.46875 -0.671875 0.671875l-0.1875 -0.59375q0.25 -0.234375 0.5 -0.65625q0.265625 -0.40625 0.484375 -1.03125q0.21875 -0.609375 0.34375 -1.40625q0.140625 -0.796875 0.140625 -1.78125l0 -0.078125q0 -0.984375 -0.140625 -1.78125q-0.140625 -0.796875 -0.375 -1.40625q-0.234375 -0.609375 -0.484375 -1.03125q-0.25 -0.421875 -0.46875 -0.65625l0.1875 -0.578125q0.296875 0.203125 0.671875 0.65625q0.375 0.453125 0.71875 1.15625q0.359375 0.6875 0.578125 1.609375q0.234375 0.90625 0.234375 2.046875z" fill-rule="nonzero"/><path fill="#000000" fill-opacity="0.0" d="m585.6247 154.3746l-60.75592 0.09448242" fill-rule="evenodd"/><path stroke="#999999" stroke-width="2.0" stroke-linejoin="round" stroke-linecap="butt" stroke-dasharray="2.0,6.0" d="m578.7705 154.38527l-53.901733 0.08381653" fill-rule="evenodd"/><path fill="#999999" stroke="#999999" stroke-width="2.0" stroke-linecap="butt" d="m578.7705 154.38525l-2.2456665 2.2526703l6.1760254 -2.2587738l-6.1830444 -2.239563z" fill-rule="evenodd"/></g></svg>