<?xml version="1.0" encoding="UTF-8"?>
<svg xmlns="http://www.w3.org/2000/svg" xmlns:xlink="http://www.w3.org/1999/xlink" width="80pt" height="147pt" viewBox="0 0 80 147" version="1.1">
<g id="surface207">
<path style=" stroke:none;fill-rule:nonzero;fill:rgb(100%,100%,100%);fill-opacity:1;" d="M 0.0546875 147 L 0.0546875 0 L 79.945312 0 L 79.945312 147 Z M 0.0546875 147 "/>
<path style="fill-rule:nonzero;fill:rgb(100%,100%,100%);fill-opacity:1;stroke-width:1;stroke-linecap:butt;stroke-linejoin:miter;stroke:rgb(75.294119%,75.294119%,75.294119%);stroke-opacity:1;stroke-miterlimit:4;" d="M 54.00102 -139.198466 L 36 -139.198466 L 36 -121.201358 L 54.00102 -121.201358 Z M 54.00102 -139.198466 " transform="matrix(0.998641,0,0,0.998641,4.048912,143.005435)"/>
<path style=" stroke:none;fill-rule:nonzero;fill:rgb(25.098041%,25.098041%,25.098041%);fill-opacity:1;" d="M 46.882812 11.296875 L 47.734375 9.9375 L 48.285156 9.9375 L 47.164062 11.695312 L 48.3125 13.488281 L 47.753906 13.488281 L 46.882812 12.101562 L 46.007812 13.488281 L 45.453125 13.488281 L 46.605469 11.695312 L 45.476562 9.9375 L 46.027344 9.9375 Z M 45.3125 8.851562 "/>
<path style=" stroke:none;fill-rule:nonzero;fill:rgb(25.098041%,25.098041%,25.098041%);fill-opacity:1;" d="M 50.695312 14.484375 L 50.238281 14.484375 L 50.238281 11.476562 L 49.332031 11.8125 L 49.332031 11.402344 L 50.625 10.917969 L 50.695312 10.917969 Z M 48.917969 9.851562 "/>
<path style="fill-rule:nonzero;fill:rgb(100%,100%,100%);fill-opacity:1;stroke-width:1;stroke-linecap:butt;stroke-linejoin:miter;stroke:rgb(75.294119%,75.294119%,75.294119%);stroke-opacity:1;stroke-miterlimit:4;" d="M 36 -78.600508 L 17.99898 -78.600508 L 17.99898 -60.599488 L 36 -60.599488 Z M 36 -78.600508 " transform="matrix(0.998641,0,0,0.998641,4.048912,143.005435)"/>
<path style=" stroke:none;fill-rule:nonzero;fill:rgb(25.098041%,25.098041%,25.098041%);fill-opacity:1;" d="M 28.90625 71.808594 L 29.761719 70.449219 L 30.308594 70.449219 L 29.1875 72.207031 L 30.335938 73.996094 L 29.78125 73.996094 L 28.90625 72.613281 L 28.03125 73.996094 L 27.476562 73.996094 L 28.628906 72.207031 L 27.5 70.449219 L 28.050781 70.449219 Z M 27.335938 69.367188 "/>
<path style=" stroke:none;fill-rule:nonzero;fill:rgb(25.098041%,25.098041%,25.098041%);fill-opacity:1;" d="M 33.5625 74.996094 L 31.238281 74.996094 L 31.238281 74.671875 L 32.46875 73.308594 C 32.648438 73.101562 32.773438 72.933594 32.839844 72.804688 C 32.910156 72.675781 32.945312 72.539062 32.945312 72.402344 C 32.945312 72.21875 32.886719 72.066406 32.78125 71.945312 C 32.667969 71.828125 32.519531 71.765625 32.332031 71.765625 C 32.105469 71.765625 31.929688 71.832031 31.808594 71.960938 C 31.683594 72.085938 31.621094 72.265625 31.621094 72.492188 L 31.167969 72.492188 C 31.167969 72.164062 31.273438 71.902344 31.484375 71.699219 C 31.695312 71.496094 31.976562 71.398438 32.332031 71.398438 C 32.660156 71.398438 32.917969 71.484375 33.109375 71.65625 C 33.300781 71.828125 33.398438 72.0625 33.398438 72.347656 C 33.398438 72.699219 33.175781 73.117188 32.734375 73.597656 L 31.78125 74.628906 L 33.5625 74.628906 Z M 30.941406 70.367188 "/>
<path style="fill:none;stroke-width:1;stroke-linecap:butt;stroke-linejoin:miter;stroke:rgb(49.803922%,49.803922%,49.803922%);stroke-opacity:1;stroke-miterlimit:4;" d="M 42.266326 -120.997957 C 39.254422 -110.851358 34.380612 -94.446256 30.95017 -82.903229 " transform="matrix(0.998641,0,0,0.998641,4.048912,143.005435)"/>
<path style="fill-rule:nonzero;fill:rgb(49.803922%,49.803922%,49.803922%);fill-opacity:1;stroke-width:1;stroke-linecap:butt;stroke-linejoin:miter;stroke:rgb(49.803922%,49.803922%,49.803922%);stroke-opacity:1;stroke-miterlimit:4;" d="M 32.330952 -80.806631 C 32.330952 -79.70357 31.435204 -78.807821 30.328231 -78.807821 C 29.22517 -78.807821 28.329422 -79.70357 28.329422 -80.806631 C 28.329422 -81.913604 29.22517 -82.809352 30.328231 -82.809352 C 31.435204 -82.809352 32.330952 -81.913604 32.330952 -80.806631 Z M 32.330952 -80.806631 " transform="matrix(0.998641,0,0,0.998641,4.048912,143.005435)"/>
<path style=" stroke:none;fill-rule:nonzero;fill:rgb(49.803922%,49.803922%,49.803922%);fill-opacity:1;" d="M 42.375 44.363281 L 44.742188 43.34375 L 44.742188 42.953125 L 42.375 41.941406 L 42.375 42.449219 L 44.113281 43.09375 L 44.273438 43.144531 L 44.113281 43.191406 L 42.375 43.847656 Z M 48.054688 42.796875 L 48.054688 42.363281 L 45.660156 42.363281 L 45.660156 42.796875 Z M 48.054688 43.910156 L 48.054688 43.480469 L 45.660156 43.480469 L 45.660156 43.910156 Z M 49.136719 42.929688 L 49.535156 43.03125 C 49.578125 42.992188 49.621094 42.957031 49.664062 42.925781 C 49.707031 42.898438 49.75 42.871094 49.800781 42.851562 C 49.847656 42.828125 49.902344 42.8125 49.960938 42.800781 C 50.023438 42.789062 50.089844 42.78125 50.171875 42.78125 C 50.296875 42.78125 50.410156 42.804688 50.503906 42.851562 C 50.601562 42.894531 50.683594 42.957031 50.75 43.03125 C 50.816406 43.109375 50.867188 43.203125 50.902344 43.308594 C 50.9375 43.414062 50.953125 43.527344 50.953125 43.648438 C 50.953125 43.785156 50.9375 43.90625 50.90625 44.015625 C 50.875 44.125 50.828125 44.21875 50.769531 44.292969 C 50.707031 44.371094 50.628906 44.433594 50.539062 44.476562 C 50.445312 44.519531 50.339844 44.539062 50.222656 44.539062 C 50.015625 44.539062 49.847656 44.480469 49.710938 44.367188 C 49.578125 44.253906 49.496094 44.085938 49.46875 43.863281 L 48.996094 43.863281 C 49.011719 44.042969 49.054688 44.203125 49.128906 44.335938 C 49.199219 44.472656 49.289062 44.585938 49.398438 44.675781 C 49.507812 44.765625 49.632812 44.832031 49.777344 44.878906 C 49.917969 44.921875 50.0625 44.945312 50.222656 44.945312 C 50.429688 44.945312 50.613281 44.910156 50.765625 44.847656 C 50.917969 44.78125 51.046875 44.691406 51.148438 44.574219 C 51.25 44.460938 51.324219 44.320312 51.375 44.164062 C 51.425781 44.003906 51.449219 43.832031 51.449219 43.644531 C 51.449219 43.449219 51.421875 43.269531 51.371094 43.109375 C 51.316406 42.945312 51.238281 42.808594 51.140625 42.695312 C 51.039062 42.582031 50.917969 42.492188 50.773438 42.429688 C 50.628906 42.367188 50.46875 42.335938 50.289062 42.335938 C 50.148438 42.335938 50.027344 42.355469 49.917969 42.386719 C 49.8125 42.421875 49.71875 42.460938 49.640625 42.507812 L 49.75 41.46875 L 51.335938 41.46875 L 51.335938 40.984375 L 49.332031 40.984375 Z M 41.898438 39.136719 "/>
<path style="fill-rule:nonzero;fill:rgb(100%,100%,100%);fill-opacity:1;stroke-width:1;stroke-linecap:butt;stroke-linejoin:miter;stroke:rgb(90.196079%,62.352943%,0%);stroke-opacity:1;stroke-miterlimit:4;" d="M 71.998129 -69.599998 C 71.998129 -64.6284 67.969217 -60.599488 63.00153 -60.599488 C 58.029932 -60.599488 54.00102 -64.6284 54.00102 -69.599998 C 54.00102 -74.571597 58.029932 -78.600508 63.00153 -78.600508 C 67.969217 -78.600508 71.998129 -74.571597 71.998129 -69.599998 Z M 71.998129 -69.599998 " transform="matrix(0.998641,0,0,0.998641,4.048912,143.005435)"/>
<path style=" stroke:none;fill-rule:nonzero;fill:rgb(25.098041%,25.098041%,25.098041%);fill-opacity:1;" d="M 66.902344 74.996094 L 66.429688 74.996094 L 64.640625 72.261719 L 64.640625 74.996094 L 64.175781 74.996094 L 64.175781 71.445312 L 64.640625 71.445312 L 66.4375 74.191406 L 66.4375 71.445312 L 66.902344 71.445312 Z M 67.542969 73.65625 C 67.542969 73.398438 67.59375 73.164062 67.695312 72.957031 C 67.796875 72.75 67.9375 72.589844 68.121094 72.476562 C 68.300781 72.367188 68.507812 72.308594 68.742188 72.308594 C 69.101562 72.308594 69.390625 72.433594 69.613281 72.683594 C 69.835938 72.933594 69.945312 73.261719 69.945312 73.675781 L 69.945312 73.707031 C 69.945312 73.960938 69.898438 74.191406 69.800781 74.398438 C 69.703125 74.601562 69.558594 74.761719 69.378906 74.875 C 69.195312 74.988281 68.984375 75.042969 68.746094 75.042969 C 68.386719 75.042969 68.097656 74.921875 67.875 74.671875 C 67.652344 74.421875 67.542969 74.09375 67.542969 73.6875 Z M 67.996094 73.707031 C 67.996094 73.996094 68.066406 74.234375 68.199219 74.410156 C 68.335938 74.585938 68.519531 74.675781 68.746094 74.675781 C 68.976562 74.675781 69.15625 74.585938 69.292969 74.40625 C 69.429688 74.226562 69.496094 73.976562 69.496094 73.65625 C 69.496094 73.367188 69.425781 73.128906 69.289062 72.949219 C 69.152344 72.769531 68.96875 72.679688 68.742188 72.679688 C 68.519531 72.679688 68.339844 72.769531 68.203125 72.945312 C 68.066406 73.125 67.996094 73.378906 67.996094 73.707031 Z M 63.761719 70.367188 "/>
<path style="fill:none;stroke-width:1;stroke-linecap:butt;stroke-linejoin:miter;stroke:rgb(90.196079%,62.352943%,0%);stroke-opacity:1;stroke-miterlimit:4;" d="M 47.734694 -120.997957 C 50.781802 -110.734011 55.733843 -94.062923 59.168197 -82.500338 " transform="matrix(0.998641,0,0,0.998641,4.048912,143.005435)"/>
<path style="fill-rule:nonzero;fill:rgb(90.196079%,62.352943%,0%);fill-opacity:1;stroke-width:1;stroke-linecap:butt;stroke-linejoin:miter;stroke:rgb(90.196079%,62.352943%,0%);stroke-opacity:1;stroke-miterlimit:4;" d="M 61.788945 -80.411563 C 61.788945 -79.308502 60.893197 -78.412753 59.790136 -78.412753 C 58.683163 -78.412753 57.787415 -79.308502 57.787415 -80.411563 C 57.787415 -81.518536 58.683163 -82.410372 59.790136 -82.410372 C 60.893197 -82.410372 61.788945 -81.518536 61.788945 -80.411563 Z M 61.788945 -80.411563 " transform="matrix(0.998641,0,0,0.998641,4.048912,143.005435)"/>
<path style=" stroke:none;fill-rule:nonzero;fill:rgb(49.803922%,49.803922%,49.803922%);fill-opacity:1;" d="M 62.703125 44.363281 L 62.703125 43.835938 L 61.0625 43.203125 L 60.921875 43.15625 L 61.0625 43.109375 L 62.703125 42.464844 L 62.703125 41.941406 L 60.429688 42.953125 L 60.429688 43.347656 Z M 63.914062 42.929688 L 64.3125 43.03125 C 64.355469 42.992188 64.398438 42.957031 64.4375 42.925781 C 64.480469 42.898438 64.523438 42.871094 64.574219 42.851562 C 64.621094 42.828125 64.675781 42.8125 64.734375 42.800781 C 64.796875 42.789062 64.867188 42.78125 64.949219 42.78125 C 65.074219 42.78125 65.1875 42.804688 65.28125 42.851562 C 65.378906 42.894531 65.460938 42.957031 65.527344 43.03125 C 65.59375 43.109375 65.644531 43.203125 65.679688 43.308594 C 65.714844 43.414062 65.730469 43.527344 65.730469 43.648438 C 65.730469 43.785156 65.714844 43.90625 65.683594 44.015625 C 65.652344 44.125 65.605469 44.21875 65.546875 44.292969 C 65.484375 44.371094 65.40625 44.433594 65.316406 44.476562 C 65.222656 44.519531 65.117188 44.539062 65 44.539062 C 64.789062 44.539062 64.621094 44.480469 64.484375 44.367188 C 64.355469 44.253906 64.273438 44.085938 64.246094 43.863281 L 63.773438 43.863281 C 63.789062 44.042969 63.832031 44.203125 63.90625 44.335938 C 63.976562 44.472656 64.066406 44.585938 64.175781 44.675781 C 64.285156 44.765625 64.40625 44.832031 64.550781 44.878906 C 64.691406 44.921875 64.839844 44.945312 65 44.945312 C 65.207031 44.945312 65.390625 44.910156 65.542969 44.847656 C 65.695312 44.78125 65.824219 44.691406 65.925781 44.574219 C 66.027344 44.460938 66.101562 44.320312 66.152344 44.164062 C 66.203125 44.003906 66.226562 43.832031 66.226562 43.644531 C 66.226562 43.449219 66.199219 43.269531 66.148438 43.109375 C 66.09375 42.945312 66.015625 42.808594 65.917969 42.695312 C 65.816406 42.582031 65.695312 42.492188 65.550781 42.429688 C 65.40625 42.367188 65.246094 42.335938 65.066406 42.335938 C 64.925781 42.335938 64.800781 42.355469 64.691406 42.386719 C 64.585938 42.421875 64.492188 42.460938 64.414062 42.507812 L 64.523438 41.46875 L 66.113281 41.46875 L 66.113281 40.984375 L 64.109375 40.984375 Z M 59.972656 39.136719 "/>
<path style="fill-rule:nonzero;fill:rgb(100%,100%,100%);fill-opacity:1;stroke-width:1;stroke-linecap:butt;stroke-linejoin:miter;stroke:rgb(90.196079%,62.352943%,0%);stroke-opacity:1;stroke-miterlimit:4;" d="M 17.99898 -8.998129 C 17.99898 -4.030442 13.970068 -0.00153053 8.99847 -0.00153053 C 4.030783 -0.00153053 0.00187149 -4.030442 0.00187149 -8.998129 C 0.00187149 -13.969728 4.030783 -17.998639 8.99847 -17.998639 C 13.970068 -17.998639 17.99898 -13.969728 17.99898 -8.998129 Z M 17.99898 -8.998129 " transform="matrix(0.998641,0,0,0.998641,4.048912,143.005435)"/>
<path style=" stroke:none;fill-rule:nonzero;fill:rgb(25.098041%,25.098041%,25.098041%);fill-opacity:1;" d="M 12.972656 135.515625 L 12.503906 135.515625 L 10.714844 132.78125 L 10.714844 135.515625 L 10.246094 135.515625 L 10.246094 131.964844 L 10.714844 131.964844 L 12.511719 134.710938 L 12.511719 131.964844 L 12.972656 131.964844 Z M 13.617188 134.171875 C 13.617188 133.917969 13.667969 133.683594 13.769531 133.476562 C 13.871094 133.269531 14.011719 133.109375 14.195312 132.996094 C 14.375 132.886719 14.582031 132.828125 14.816406 132.828125 C 15.175781 132.828125 15.464844 132.953125 15.683594 133.203125 C 15.90625 133.453125 16.015625 133.78125 16.015625 134.191406 L 16.015625 134.222656 C 16.015625 134.480469 15.96875 134.710938 15.871094 134.917969 C 15.773438 135.121094 15.628906 135.28125 15.453125 135.394531 C 15.269531 135.507812 15.058594 135.5625 14.820312 135.5625 C 14.460938 135.5625 14.171875 135.441406 13.949219 135.191406 C 13.726562 134.941406 13.617188 134.613281 13.617188 134.203125 Z M 14.070312 134.222656 C 14.070312 134.515625 14.140625 134.753906 14.273438 134.929688 C 14.410156 135.105469 14.59375 135.195312 14.820312 135.195312 C 15.050781 135.195312 15.230469 135.105469 15.367188 134.925781 C 15.503906 134.746094 15.570312 134.496094 15.570312 134.171875 C 15.570312 133.886719 15.5 133.648438 15.363281 133.46875 C 15.226562 133.289062 15.042969 133.199219 14.816406 133.199219 C 14.59375 133.199219 14.414062 133.289062 14.277344 133.464844 C 14.140625 133.644531 14.070312 133.898438 14.070312 134.222656 Z M 9.835938 130.886719 "/>
<path style="fill:none;stroke-width:1;stroke-linecap:butt;stroke-linejoin:miter;stroke:rgb(90.196079%,62.352943%,0%);stroke-opacity:1;stroke-miterlimit:4;" d="M 20.353742 -60.595577 C 17.013266 -55.565305 13.269898 -49.029081 11.29847 -42.598468 C 9.291837 -36.058333 8.638606 -28.47772 8.521259 -22.17619 " transform="matrix(0.998641,0,0,0.998641,4.048912,143.005435)"/>
<path style="fill-rule:nonzero;fill:rgb(90.196079%,62.352943%,0%);fill-opacity:1;stroke-width:1;stroke-linecap:butt;stroke-linejoin:miter;stroke:rgb(90.196079%,62.352943%,0%);stroke-opacity:1;stroke-miterlimit:4;" d="M 10.520069 -20.044387 C 10.520069 -18.941326 9.62432 -18.045578 8.521259 -18.045578 C 7.414286 -18.045578 6.518538 -18.941326 6.518538 -20.044387 C 6.518538 -21.147448 7.414286 -22.043197 8.521259 -22.043197 C 9.62432 -22.043197 10.520069 -21.147448 10.520069 -20.044387 Z M 10.520069 -20.044387 " transform="matrix(0.998641,0,0,0.998641,4.048912,143.005435)"/>
<path style=" stroke:none;fill-rule:nonzero;fill:rgb(49.803922%,49.803922%,49.803922%);fill-opacity:1;" d="M 17.410156 104.882812 L 19.777344 103.863281 L 19.777344 103.472656 L 17.410156 102.460938 L 17.410156 102.96875 L 19.144531 103.613281 L 19.304688 103.664062 L 19.144531 103.710938 L 17.410156 104.367188 Z M 23.089844 103.316406 L 23.089844 102.882812 L 20.695312 102.882812 L 20.695312 103.316406 Z M 23.089844 104.429688 L 23.089844 104 L 20.695312 104 L 20.695312 104.429688 Z M 24.570312 103.214844 L 24.570312 103.617188 L 24.925781 103.617188 C 25.050781 103.617188 25.160156 103.632812 25.265625 103.660156 C 25.367188 103.691406 25.457031 103.734375 25.53125 103.792969 C 25.601562 103.851562 25.65625 103.925781 25.699219 104.015625 C 25.738281 104.105469 25.757812 104.207031 25.757812 104.332031 C 25.757812 104.453125 25.742188 104.5625 25.707031 104.652344 C 25.671875 104.742188 25.621094 104.816406 25.554688 104.878906 C 25.492188 104.941406 25.414062 104.984375 25.324219 105.015625 C 25.230469 105.042969 25.128906 105.058594 25.015625 105.058594 C 24.902344 105.058594 24.800781 105.042969 24.710938 105.011719 C 24.617188 104.976562 24.539062 104.933594 24.472656 104.871094 C 24.410156 104.8125 24.359375 104.742188 24.324219 104.660156 C 24.289062 104.574219 24.273438 104.480469 24.273438 104.378906 L 23.78125 104.378906 C 23.78125 104.550781 23.8125 104.703125 23.878906 104.839844 C 23.945312 104.972656 24.03125 105.085938 24.140625 105.179688 C 24.25 105.273438 24.378906 105.34375 24.53125 105.386719 C 24.683594 105.4375 24.84375 105.460938 25.015625 105.460938 C 25.191406 105.460938 25.355469 105.433594 25.507812 105.382812 C 25.660156 105.335938 25.789062 105.261719 25.898438 105.164062 C 26.011719 105.066406 26.097656 104.949219 26.160156 104.804688 C 26.222656 104.664062 26.253906 104.503906 26.253906 104.320312 C 26.253906 104.230469 26.246094 104.140625 26.222656 104.046875 C 26.203125 103.957031 26.167969 103.871094 26.117188 103.789062 C 26.066406 103.707031 25.996094 103.632812 25.914062 103.566406 C 25.828125 103.5 25.722656 103.445312 25.59375 103.402344 C 25.699219 103.359375 25.789062 103.304688 25.867188 103.234375 C 25.941406 103.167969 26.003906 103.097656 26.054688 103.019531 C 26.101562 102.945312 26.136719 102.867188 26.160156 102.785156 C 26.183594 102.707031 26.195312 102.628906 26.195312 102.550781 C 26.195312 102.375 26.167969 102.214844 26.109375 102.078125 C 26.050781 101.941406 25.972656 101.824219 25.867188 101.730469 C 25.765625 101.636719 25.640625 101.570312 25.496094 101.519531 C 25.351562 101.472656 25.1875 101.449219 25.015625 101.449219 C 24.832031 101.449219 24.667969 101.476562 24.519531 101.535156 C 24.371094 101.589844 24.246094 101.667969 24.144531 101.765625 C 24.039062 101.863281 23.957031 101.976562 23.898438 102.109375 C 23.839844 102.242188 23.8125 102.382812 23.8125 102.527344 L 24.308594 102.527344 C 24.308594 102.429688 24.324219 102.335938 24.359375 102.253906 C 24.394531 102.171875 24.441406 102.101562 24.503906 102.039062 C 24.566406 101.980469 24.636719 101.9375 24.726562 101.90625 C 24.8125 101.875 24.910156 101.859375 25.015625 101.859375 C 25.125 101.859375 25.21875 101.871094 25.304688 101.898438 C 25.390625 101.925781 25.460938 101.96875 25.519531 102.023438 C 25.578125 102.082031 25.621094 102.152344 25.652344 102.242188 C 25.683594 102.328125 25.699219 102.429688 25.699219 102.542969 C 25.699219 102.640625 25.683594 102.730469 25.648438 102.8125 C 25.613281 102.894531 25.5625 102.964844 25.5 103.027344 C 25.433594 103.085938 25.351562 103.132812 25.257812 103.164062 C 25.160156 103.199219 25.050781 103.214844 24.925781 103.214844 Z M 16.933594 99.652344 "/>
<path style="fill-rule:nonzero;fill:rgb(100%,100%,100%);fill-opacity:1;stroke-width:1;stroke-linecap:butt;stroke-linejoin:miter;stroke:rgb(33.725491%,70.588237%,91.37255%);stroke-opacity:1;stroke-miterlimit:4;" d="M 54.00102 -8.998129 C 54.00102 -4.030442 49.972109 -0.00153053 45.00051 -0.00153053 C 40.028911 -0.00153053 36 -4.030442 36 -8.998129 C 36 -13.969728 40.028911 -17.998639 45.00051 -17.998639 C 49.972109 -17.998639 54.00102 -13.969728 54.00102 -8.998129 Z M 54.00102 -8.998129 " transform="matrix(0.998641,0,0,0.998641,4.048912,143.005435)"/>
<path style=" stroke:none;fill-rule:nonzero;fill:rgb(25.098041%,25.098041%,25.098041%);fill-opacity:1;" d="M 46.453125 133.75 L 47.378906 131.964844 L 47.910156 131.964844 L 46.6875 134.191406 L 46.6875 135.515625 L 46.21875 135.515625 L 46.21875 134.191406 L 44.992188 131.964844 L 45.53125 131.964844 Z M 49.234375 135.5625 C 48.875 135.5625 48.585938 135.445312 48.359375 135.210938 C 48.136719 134.976562 48.023438 134.660156 48.023438 134.269531 L 48.023438 134.183594 C 48.023438 133.925781 48.074219 133.691406 48.175781 133.488281 C 48.273438 133.28125 48.414062 133.121094 48.59375 133.003906 C 48.773438 132.886719 48.96875 132.828125 49.179688 132.828125 C 49.523438 132.828125 49.789062 132.941406 49.980469 133.167969 C 50.167969 133.394531 50.261719 133.71875 50.261719 134.136719 L 50.261719 134.324219 L 48.476562 134.324219 C 48.484375 134.585938 48.558594 134.796875 48.703125 134.957031 C 48.847656 135.117188 49.035156 135.195312 49.257812 135.195312 C 49.417969 135.195312 49.554688 135.164062 49.664062 135.097656 C 49.773438 135.03125 49.871094 134.945312 49.953125 134.839844 L 50.226562 135.054688 C 50.007812 135.394531 49.675781 135.5625 49.234375 135.5625 Z M 49.179688 133.199219 C 48.996094 133.199219 48.84375 133.265625 48.71875 133.398438 C 48.59375 133.53125 48.519531 133.71875 48.492188 133.957031 L 49.8125 133.957031 L 49.8125 133.921875 C 49.800781 133.691406 49.738281 133.515625 49.628906 133.390625 C 49.515625 133.261719 49.367188 133.199219 49.179688 133.199219 Z M 52.324219 134.816406 C 52.324219 134.695312 52.277344 134.597656 52.1875 134.53125 C 52.09375 134.464844 51.933594 134.40625 51.707031 134.355469 C 51.476562 134.308594 51.296875 134.25 51.160156 134.179688 C 51.027344 134.113281 50.929688 134.035156 50.863281 133.941406 C 50.800781 133.847656 50.765625 133.734375 50.765625 133.601562 C 50.765625 133.386719 50.859375 133.203125 51.042969 133.054688 C 51.226562 132.902344 51.460938 132.828125 51.742188 132.828125 C 52.042969 132.828125 52.285156 132.90625 52.472656 133.0625 C 52.660156 133.214844 52.753906 133.414062 52.753906 133.652344 L 52.296875 133.652344 C 52.296875 133.53125 52.246094 133.425781 52.140625 133.335938 C 52.035156 133.246094 51.902344 133.199219 51.742188 133.199219 C 51.578125 133.199219 51.453125 133.234375 51.359375 133.308594 C 51.265625 133.378906 51.21875 133.472656 51.21875 133.589844 C 51.21875 133.699219 51.261719 133.78125 51.347656 133.835938 C 51.433594 133.890625 51.589844 133.941406 51.816406 133.992188 C 52.042969 134.042969 52.222656 134.101562 52.363281 134.171875 C 52.503906 134.242188 52.609375 134.324219 52.675781 134.421875 C 52.742188 134.519531 52.777344 134.640625 52.777344 134.78125 C 52.777344 135.019531 52.683594 135.207031 52.492188 135.351562 C 52.304688 135.492188 52.058594 135.5625 51.757812 135.5625 C 51.546875 135.5625 51.359375 135.527344 51.195312 135.453125 C 51.035156 135.378906 50.90625 135.273438 50.816406 135.136719 C 50.722656 135.003906 50.675781 134.859375 50.675781 134.703125 L 51.128906 134.703125 C 51.136719 134.855469 51.199219 134.972656 51.3125 135.0625 C 51.425781 135.152344 51.574219 135.195312 51.757812 135.195312 C 51.929688 135.195312 52.066406 135.160156 52.171875 135.09375 C 52.273438 135.023438 52.324219 134.929688 52.324219 134.816406 Z M 44.957031 130.886719 "/>
<path style="fill:none;stroke-width:1;stroke-linecap:butt;stroke-linejoin:miter;stroke:rgb(33.725491%,70.588237%,91.37255%);stroke-opacity:1;stroke-miterlimit:4;" d="M 29.733674 -60.396087 C 32.780782 -50.132142 37.732823 -33.461054 41.167177 -21.90238 " transform="matrix(0.998641,0,0,0.998641,4.048912,143.005435)"/>
<path style="fill-rule:nonzero;fill:rgb(33.725491%,70.588237%,91.37255%);fill-opacity:1;stroke-width:1;stroke-linecap:butt;stroke-linejoin:miter;stroke:rgb(33.725491%,70.588237%,91.37255%);stroke-opacity:1;stroke-miterlimit:4;" d="M 43.787925 -19.813605 C 43.787925 -18.706632 42.892177 -17.810884 41.789116 -17.810884 C 40.682143 -17.810884 39.790306 -18.706632 39.790306 -19.813605 C 39.790306 -20.916666 40.682143 -21.812414 41.789116 -21.812414 C 42.892177 -21.812414 43.787925 -20.916666 43.787925 -19.813605 Z M 43.787925 -19.813605 " transform="matrix(0.998641,0,0,0.998641,4.048912,143.005435)"/>
<path style=" stroke:none;fill-rule:nonzero;fill:rgb(49.803922%,49.803922%,49.803922%);fill-opacity:1;" d="M 44.726562 104.882812 L 44.726562 104.355469 L 43.085938 103.722656 L 42.945312 103.675781 L 43.085938 103.628906 L 44.726562 102.984375 L 44.726562 102.460938 L 42.453125 103.472656 L 42.453125 103.867188 Z M 46.339844 103.214844 L 46.339844 103.617188 L 46.695312 103.617188 C 46.820312 103.617188 46.929688 103.632812 47.035156 103.660156 C 47.136719 103.691406 47.222656 103.734375 47.296875 103.792969 C 47.367188 103.851562 47.421875 103.925781 47.464844 104.015625 C 47.503906 104.105469 47.523438 104.207031 47.523438 104.332031 C 47.523438 104.453125 47.507812 104.5625 47.472656 104.652344 C 47.4375 104.742188 47.386719 104.816406 47.320312 104.878906 C 47.257812 104.941406 47.179688 104.984375 47.09375 105.015625 C 47 105.042969 46.898438 105.058594 46.785156 105.058594 C 46.671875 105.058594 46.570312 105.042969 46.480469 105.011719 C 46.386719 104.976562 46.308594 104.933594 46.242188 104.871094 C 46.179688 104.8125 46.128906 104.742188 46.09375 104.660156 C 46.058594 104.574219 46.042969 104.480469 46.042969 104.378906 L 45.546875 104.378906 C 45.546875 104.550781 45.578125 104.703125 45.644531 104.839844 C 45.710938 104.972656 45.796875 105.085938 45.90625 105.179688 C 46.019531 105.273438 46.148438 105.34375 46.300781 105.386719 C 46.453125 105.4375 46.613281 105.460938 46.785156 105.460938 C 46.960938 105.460938 47.125 105.433594 47.273438 105.382812 C 47.425781 105.335938 47.554688 105.261719 47.664062 105.164062 C 47.777344 105.066406 47.863281 104.949219 47.925781 104.804688 C 47.988281 104.664062 48.019531 104.503906 48.019531 104.320312 C 48.019531 104.230469 48.011719 104.140625 47.988281 104.046875 C 47.96875 103.957031 47.933594 103.871094 47.882812 103.789062 C 47.832031 103.707031 47.761719 103.632812 47.679688 103.566406 C 47.59375 103.5 47.488281 103.445312 47.359375 103.402344 C 47.464844 103.359375 47.554688 103.304688 47.632812 103.234375 C 47.707031 103.167969 47.769531 103.097656 47.820312 103.019531 C 47.867188 102.945312 47.902344 102.867188 47.925781 102.785156 C 47.949219 102.707031 47.960938 102.628906 47.960938 102.550781 C 47.960938 102.375 47.933594 102.214844 47.875 102.078125 C 47.816406 101.941406 47.738281 101.824219 47.632812 101.730469 C 47.53125 101.636719 47.40625 101.570312 47.261719 101.519531 C 47.121094 101.472656 46.957031 101.449219 46.785156 101.449219 C 46.601562 101.449219 46.4375 101.476562 46.289062 101.535156 C 46.140625 101.589844 46.015625 101.667969 45.910156 101.765625 C 45.804688 101.863281 45.722656 101.976562 45.664062 102.109375 C 45.605469 102.242188 45.578125 102.382812 45.578125 102.527344 L 46.078125 102.527344 C 46.078125 102.429688 46.09375 102.335938 46.128906 102.253906 C 46.164062 102.171875 46.210938 102.101562 46.273438 102.039062 C 46.335938 101.980469 46.40625 101.9375 46.496094 101.90625 C 46.582031 101.875 46.679688 101.859375 46.785156 101.859375 C 46.894531 101.859375 46.988281 101.871094 47.074219 101.898438 C 47.160156 101.925781 47.226562 101.96875 47.285156 102.023438 C 47.34375 102.082031 47.386719 102.152344 47.417969 102.242188 C 47.449219 102.328125 47.464844 102.429688 47.464844 102.542969 C 47.464844 102.640625 47.449219 102.730469 47.414062 102.8125 C 47.378906 102.894531 47.328125 102.964844 47.265625 103.027344 C 47.199219 103.085938 47.121094 103.132812 47.027344 103.164062 C 46.929688 103.199219 46.820312 103.214844 46.695312 103.214844 Z M 41.996094 99.652344 "/>
</g>
</svg>
