<?xml version="1.0" encoding="UTF-8"?>
<svg xmlns="http://www.w3.org/2000/svg" xmlns:xlink="http://www.w3.org/1999/xlink" width="314pt" height="242pt" viewBox="0 0 314 242" version="1.1">
<g id="surface1">
<rect x="0" y="0" width="314" height="242" style="fill:rgb(100%,100%,100%);fill-opacity:1;stroke:none;"/>
<path style="fill-rule:nonzero;fill:rgb(90.196079%,62.352943%,0%);fill-opacity:1;stroke-width:1;stroke-linecap:butt;stroke-linejoin:miter;stroke:rgb(90.196079%,62.352943%,0%);stroke-opacity:1;stroke-miterlimit:4;" d="M 144 -225 C 144 -220.03125 139.96875 -216 135 -216 C 130.03125 -216 126 -220.03125 126 -225 C 126 -229.96875 130.03125 -234 135 -234 C 139.96875 -234 144 -229.96875 144 -225 Z M 144 -225 " transform="matrix(1,0,0,1,4,238)"/>
<path style="fill-rule:nonzero;fill:rgb(90.196079%,62.352943%,0%);fill-opacity:1;stroke-width:1;stroke-linecap:butt;stroke-linejoin:miter;stroke:rgb(90.196079%,62.352943%,0%);stroke-opacity:1;stroke-miterlimit:4;" d="M 117 -171 C 117 -166.03125 112.96875 -162 108 -162 C 103.03125 -162 99 -166.03125 99 -171 C 99 -175.96875 103.03125 -180 108 -180 C 112.96875 -180 117 -175.96875 117 -171 Z M 117 -171 " transform="matrix(1,0,0,1,4,238)"/>
<path style="fill:none;stroke-width:0.5;stroke-linecap:butt;stroke-linejoin:miter;stroke:rgb(70.19608%,70.19608%,70.19608%);stroke-opacity:1;stroke-miterlimit:4;" d="M 130.78125 -216.5625 C 126.039062 -207.074219 118.332031 -191.664062 113.214844 -181.429688 " transform="matrix(1,0,0,1,4,238)"/>
<path style="fill-rule:nonzero;fill:rgb(70.19608%,70.19608%,70.19608%);fill-opacity:1;stroke-width:0.5;stroke-linecap:butt;stroke-linejoin:miter;stroke:rgb(70.19608%,70.19608%,70.19608%);stroke-opacity:1;stroke-miterlimit:4;" d="M 113.835938 -180.273438 C 113.835938 -179.613281 113.300781 -179.074219 112.636719 -179.074219 C 111.976562 -179.074219 111.4375 -179.613281 111.4375 -180.273438 C 111.4375 -180.9375 111.976562 -181.476562 112.636719 -181.476562 C 113.300781 -181.476562 113.835938 -180.9375 113.835938 -180.273438 Z M 113.835938 -180.273438 " transform="matrix(1,0,0,1,4,238)"/>
<path style="fill-rule:nonzero;fill:rgb(90.196079%,62.352943%,0%);fill-opacity:1;stroke-width:1;stroke-linecap:butt;stroke-linejoin:miter;stroke:rgb(90.196079%,62.352943%,0%);stroke-opacity:1;stroke-miterlimit:4;" d="M 171 -171 C 171 -166.03125 166.96875 -162 162 -162 C 157.03125 -162 153 -166.03125 153 -171 C 153 -175.96875 157.03125 -180 162 -180 C 166.96875 -180 171 -175.96875 171 -171 Z M 171 -171 " transform="matrix(1,0,0,1,4,238)"/>
<path style="fill:none;stroke-width:0.5;stroke-linecap:butt;stroke-linejoin:miter;stroke:rgb(70.19608%,70.19608%,70.19608%);stroke-opacity:1;stroke-miterlimit:4;" d="M 139.21875 -216.5625 C 143.960938 -207.074219 151.667969 -191.664062 156.785156 -181.429688 " transform="matrix(1,0,0,1,4,238)"/>
<path style="fill-rule:nonzero;fill:rgb(70.19608%,70.19608%,70.19608%);fill-opacity:1;stroke-width:0.5;stroke-linecap:butt;stroke-linejoin:miter;stroke:rgb(70.19608%,70.19608%,70.19608%);stroke-opacity:1;stroke-miterlimit:4;" d="M 158.5625 -180.273438 C 158.5625 -179.613281 158.023438 -179.074219 157.363281 -179.074219 C 156.699219 -179.074219 156.164062 -179.613281 156.164062 -180.273438 C 156.164062 -180.9375 156.699219 -181.476562 157.363281 -181.476562 C 158.023438 -181.476562 158.5625 -180.9375 158.5625 -180.273438 Z M 158.5625 -180.273438 " transform="matrix(1,0,0,1,4,238)"/>
<path style="fill-rule:nonzero;fill:rgb(90.196079%,62.352943%,0%);fill-opacity:1;stroke-width:1;stroke-linecap:butt;stroke-linejoin:miter;stroke:rgb(90.196079%,62.352943%,0%);stroke-opacity:1;stroke-miterlimit:4;" d="M 54 -117 C 54 -112.03125 49.96875 -108 45 -108 C 40.03125 -108 36 -112.03125 36 -117 C 36 -121.96875 40.03125 -126 45 -126 C 49.96875 -126 54 -121.96875 54 -117 Z M 54 -117 " transform="matrix(1,0,0,1,4,238)"/>
<path style="fill:none;stroke-width:0.5;stroke-linecap:butt;stroke-linejoin:miter;stroke:rgb(70.19608%,70.19608%,70.19608%);stroke-opacity:1;stroke-miterlimit:4;" d="M 100.773438 -164.804688 C 89.285156 -154.957031 66.867188 -135.746094 54.234375 -124.914062 " transform="matrix(1,0,0,1,4,238)"/>
<path style="fill-rule:nonzero;fill:rgb(70.19608%,70.19608%,70.19608%);fill-opacity:1;stroke-width:0.5;stroke-linecap:butt;stroke-linejoin:miter;stroke:rgb(70.19608%,70.19608%,70.19608%);stroke-opacity:1;stroke-miterlimit:4;" d="M 54.253906 -123.902344 C 54.253906 -123.242188 53.714844 -122.703125 53.054688 -122.703125 C 52.390625 -122.703125 51.855469 -123.242188 51.855469 -123.902344 C 51.855469 -124.566406 52.390625 -125.101562 53.054688 -125.101562 C 53.714844 -125.101562 54.253906 -124.566406 54.253906 -123.902344 Z M 54.253906 -123.902344 " transform="matrix(1,0,0,1,4,238)"/>
<path style="fill-rule:nonzero;fill:rgb(90.196079%,62.352943%,0%);fill-opacity:1;stroke-width:1;stroke-linecap:butt;stroke-linejoin:miter;stroke:rgb(90.196079%,62.352943%,0%);stroke-opacity:1;stroke-miterlimit:4;" d="M 117 -117 C 117 -112.03125 112.96875 -108 108 -108 C 103.03125 -108 99 -112.03125 99 -117 C 99 -121.96875 103.03125 -126 108 -126 C 112.96875 -126 117 -121.96875 117 -117 Z M 117 -117 " transform="matrix(1,0,0,1,4,238)"/>
<path style="fill:none;stroke-width:0.5;stroke-linecap:butt;stroke-linejoin:miter;stroke:rgb(70.19608%,70.19608%,70.19608%);stroke-opacity:1;stroke-miterlimit:4;" d="M 108 -161.59375 C 108 -152.457031 108 -138.558594 108 -128.710938 " transform="matrix(1,0,0,1,4,238)"/>
<path style="fill-rule:nonzero;fill:rgb(70.19608%,70.19608%,70.19608%);fill-opacity:1;stroke-width:0.5;stroke-linecap:butt;stroke-linejoin:miter;stroke:rgb(70.19608%,70.19608%,70.19608%);stroke-opacity:1;stroke-miterlimit:4;" d="M 109.199219 -127.5 C 109.199219 -126.835938 108.664062 -126.296875 108 -126.296875 C 107.335938 -126.296875 106.800781 -126.835938 106.800781 -127.5 C 106.800781 -128.160156 107.335938 -128.699219 108 -128.699219 C 108.664062 -128.699219 109.199219 -128.160156 109.199219 -127.5 Z M 109.199219 -127.5 " transform="matrix(1,0,0,1,4,238)"/>
<path style="fill-rule:nonzero;fill:rgb(90.196079%,62.352943%,0%);fill-opacity:1;stroke-width:1;stroke-linecap:butt;stroke-linejoin:miter;stroke:rgb(90.196079%,62.352943%,0%);stroke-opacity:1;stroke-miterlimit:4;" d="M 171 -117 C 171 -112.03125 166.96875 -108 162 -108 C 157.03125 -108 153 -112.03125 153 -117 C 153 -121.96875 157.03125 -126 162 -126 C 166.96875 -126 171 -121.96875 171 -117 Z M 171 -117 " transform="matrix(1,0,0,1,4,238)"/>
<path style="fill:none;stroke-width:0.5;stroke-linecap:butt;stroke-linejoin:miter;stroke:rgb(70.19608%,70.19608%,70.19608%);stroke-opacity:1;stroke-miterlimit:4;" d="M 162 -161.59375 C 162 -152.457031 162 -138.558594 162 -128.710938 " transform="matrix(1,0,0,1,4,238)"/>
<path style="fill-rule:nonzero;fill:rgb(70.19608%,70.19608%,70.19608%);fill-opacity:1;stroke-width:0.5;stroke-linecap:butt;stroke-linejoin:miter;stroke:rgb(70.19608%,70.19608%,70.19608%);stroke-opacity:1;stroke-miterlimit:4;" d="M 163.199219 -127.5 C 163.199219 -126.835938 162.664062 -126.296875 162 -126.296875 C 161.335938 -126.296875 160.800781 -126.835938 160.800781 -127.5 C 160.800781 -128.160156 161.335938 -128.699219 162 -128.699219 C 162.664062 -128.699219 163.199219 -128.160156 163.199219 -127.5 Z M 163.199219 -127.5 " transform="matrix(1,0,0,1,4,238)"/>
<path style="fill-rule:nonzero;fill:rgb(90.196079%,62.352943%,0%);fill-opacity:1;stroke-width:1;stroke-linecap:butt;stroke-linejoin:miter;stroke:rgb(90.196079%,62.352943%,0%);stroke-opacity:1;stroke-miterlimit:4;" d="M 234 -117 C 234 -112.03125 229.96875 -108 225 -108 C 220.03125 -108 216 -112.03125 216 -117 C 216 -121.96875 220.03125 -126 225 -126 C 229.96875 -126 234 -121.96875 234 -117 Z M 234 -117 " transform="matrix(1,0,0,1,4,238)"/>
<path style="fill:none;stroke-width:0.5;stroke-linecap:butt;stroke-linejoin:miter;stroke:rgb(70.19608%,70.19608%,70.19608%);stroke-opacity:1;stroke-miterlimit:4;" d="M 169.226562 -164.804688 C 180.714844 -154.957031 203.132812 -135.746094 215.765625 -124.914062 " transform="matrix(1,0,0,1,4,238)"/>
<path style="fill-rule:nonzero;fill:rgb(70.19608%,70.19608%,70.19608%);fill-opacity:1;stroke-width:0.5;stroke-linecap:butt;stroke-linejoin:miter;stroke:rgb(70.19608%,70.19608%,70.19608%);stroke-opacity:1;stroke-miterlimit:4;" d="M 218.144531 -123.902344 C 218.144531 -123.242188 217.609375 -122.703125 216.945312 -122.703125 C 216.285156 -122.703125 215.746094 -123.242188 215.746094 -123.902344 C 215.746094 -124.566406 216.285156 -125.101562 216.945312 -125.101562 C 217.609375 -125.101562 218.144531 -124.566406 218.144531 -123.902344 Z M 218.144531 -123.902344 " transform="matrix(1,0,0,1,4,238)"/>
<path style="fill-rule:nonzero;fill:rgb(0%,44.705883%,69.803923%);fill-opacity:0.501961;stroke-width:1;stroke-linecap:butt;stroke-linejoin:miter;stroke:rgb(0%,44.705883%,69.803923%);stroke-opacity:1;stroke-miterlimit:4;" d="M 18 -63 C 18 -58.03125 13.96875 -54 9 -54 C 4.03125 -54 0 -58.03125 0 -63 C 0 -67.96875 4.03125 -72 9 -72 C 13.96875 -72 18 -67.96875 18 -63 Z M 18 -63 " transform="matrix(1,0,0,1,4,238)"/>
<path style="fill:none;stroke-width:0.5;stroke-linecap:butt;stroke-linejoin:miter;stroke:rgb(90.196079%,62.352943%,0%);stroke-opacity:1;stroke-miterlimit:4;" d="M 39.996094 -109.492188 C 33.617188 -99.929688 22.585938 -83.378906 15.546875 -72.820312 " transform="matrix(1,0,0,1,4,238)"/>
<path style="fill-rule:nonzero;fill:rgb(90.196079%,62.352943%,0%);fill-opacity:1;stroke-width:0.5;stroke-linecap:butt;stroke-linejoin:miter;stroke:rgb(90.196079%,62.352943%,0%);stroke-opacity:1;stroke-miterlimit:4;" d="M 16.0625 -71.792969 C 16.0625 -71.128906 15.523438 -70.59375 14.863281 -70.59375 C 14.199219 -70.59375 13.660156 -71.128906 13.660156 -71.792969 C 13.660156 -72.457031 14.199219 -72.992188 14.863281 -72.992188 C 15.523438 -72.992188 16.0625 -72.457031 16.0625 -71.792969 Z M 16.0625 -71.792969 " transform="matrix(1,0,0,1,4,238)"/>
<path style="fill-rule:nonzero;fill:rgb(33.725491%,70.588237%,91.37255%);fill-opacity:0.501961;stroke-width:1;stroke-linecap:butt;stroke-linejoin:miter;stroke:rgb(33.725491%,70.588237%,91.37255%);stroke-opacity:1;stroke-miterlimit:4;" d="M 54 -63 C 54 -58.03125 49.96875 -54 45 -54 C 40.03125 -54 36 -58.03125 36 -63 C 36 -67.96875 40.03125 -72 45 -72 C 49.96875 -72 54 -67.96875 54 -63 Z M 54 -63 " transform="matrix(1,0,0,1,4,238)"/>
<path style="fill:none;stroke-width:0.5;stroke-linecap:butt;stroke-linejoin:miter;stroke:rgb(33.725491%,70.588237%,91.37255%);stroke-opacity:1;stroke-miterlimit:4;" d="M 45 -107.59375 C 45 -98.457031 45 -84.558594 45 -74.710938 " transform="matrix(1,0,0,1,4,238)"/>
<path style="fill-rule:nonzero;fill:rgb(33.725491%,70.588237%,91.37255%);fill-opacity:1;stroke-width:0.5;stroke-linecap:butt;stroke-linejoin:miter;stroke:rgb(33.725491%,70.588237%,91.37255%);stroke-opacity:1;stroke-miterlimit:4;" d="M 46.199219 -73.5 C 46.199219 -72.835938 45.664062 -72.296875 45 -72.296875 C 44.335938 -72.296875 43.800781 -72.835938 43.800781 -73.5 C 43.800781 -74.160156 44.335938 -74.699219 45 -74.699219 C 45.664062 -74.699219 46.199219 -74.160156 46.199219 -73.5 Z M 46.199219 -73.5 " transform="matrix(1,0,0,1,4,238)"/>
<path style="fill-rule:nonzero;fill:rgb(0%,44.705883%,69.803923%);fill-opacity:0.501961;stroke-width:1;stroke-linecap:butt;stroke-linejoin:miter;stroke:rgb(0%,44.705883%,69.803923%);stroke-opacity:1;stroke-miterlimit:4;" d="M 90 -63 C 90 -58.03125 85.96875 -54 81 -54 C 76.03125 -54 72 -58.03125 72 -63 C 72 -67.96875 76.03125 -72 81 -72 C 85.96875 -72 90 -67.96875 90 -63 Z M 90 -63 " transform="matrix(1,0,0,1,4,238)"/>
<path style="fill:none;stroke-width:0.5;stroke-linecap:butt;stroke-linejoin:miter;stroke:rgb(90.196079%,62.352943%,0%);stroke-opacity:1;stroke-miterlimit:4;" d="M 103.78125 -108.5625 C 99.039062 -99.074219 91.332031 -83.664062 86.214844 -73.429688 " transform="matrix(1,0,0,1,4,238)"/>
<path style="fill-rule:nonzero;fill:rgb(90.196079%,62.352943%,0%);fill-opacity:1;stroke-width:0.5;stroke-linecap:butt;stroke-linejoin:miter;stroke:rgb(90.196079%,62.352943%,0%);stroke-opacity:1;stroke-miterlimit:4;" d="M 86.835938 -72.273438 C 86.835938 -71.613281 86.300781 -71.074219 85.636719 -71.074219 C 84.976562 -71.074219 84.4375 -71.613281 84.4375 -72.273438 C 84.4375 -72.9375 84.976562 -73.476562 85.636719 -73.476562 C 86.300781 -73.476562 86.835938 -72.9375 86.835938 -72.273438 Z M 86.835938 -72.273438 " transform="matrix(1,0,0,1,4,238)"/>
<path style="fill-rule:nonzero;fill:rgb(33.725491%,70.588237%,91.37255%);fill-opacity:0.501961;stroke-width:1;stroke-linecap:butt;stroke-linejoin:miter;stroke:rgb(33.725491%,70.588237%,91.37255%);stroke-opacity:1;stroke-miterlimit:4;" d="M 126 -63 C 126 -58.03125 121.96875 -54 117 -54 C 112.03125 -54 108 -58.03125 108 -63 C 108 -67.96875 112.03125 -72 117 -72 C 121.96875 -72 126 -67.96875 126 -63 Z M 126 -63 " transform="matrix(1,0,0,1,4,238)"/>
<path style="fill:none;stroke-width:0.5;stroke-linecap:butt;stroke-linejoin:miter;stroke:rgb(33.725491%,70.588237%,91.37255%);stroke-opacity:1;stroke-miterlimit:4;" d="M 109.484375 -108.082031 C 111.015625 -98.914062 113.402344 -84.597656 115.074219 -74.5625 " transform="matrix(1,0,0,1,4,238)"/>
<path style="fill-rule:nonzero;fill:rgb(33.725491%,70.588237%,91.37255%);fill-opacity:1;stroke-width:0.5;stroke-linecap:butt;stroke-linejoin:miter;stroke:rgb(33.725491%,70.588237%,91.37255%);stroke-opacity:1;stroke-miterlimit:4;" d="M 116.484375 -73.292969 C 116.484375 -72.632812 115.945312 -72.09375 115.285156 -72.09375 C 114.621094 -72.09375 114.085938 -72.632812 114.085938 -73.292969 C 114.085938 -73.957031 114.621094 -74.496094 115.285156 -74.496094 C 115.945312 -74.496094 116.484375 -73.957031 116.484375 -73.292969 Z M 116.484375 -73.292969 " transform="matrix(1,0,0,1,4,238)"/>
<path style="fill-rule:nonzero;fill:rgb(0%,44.705883%,69.803923%);fill-opacity:0.501961;stroke-width:1;stroke-linecap:butt;stroke-linejoin:miter;stroke:rgb(0%,44.705883%,69.803923%);stroke-opacity:1;stroke-miterlimit:4;" d="M 162 -63 C 162 -58.03125 157.96875 -54 153 -54 C 148.03125 -54 144 -58.03125 144 -63 C 144 -67.96875 148.03125 -72 153 -72 C 157.96875 -72 162 -67.96875 162 -63 Z M 162 -63 " transform="matrix(1,0,0,1,4,238)"/>
<path style="fill:none;stroke-width:0.5;stroke-linecap:butt;stroke-linejoin:miter;stroke:rgb(90.196079%,62.352943%,0%);stroke-opacity:1;stroke-miterlimit:4;" d="M 160.515625 -108.082031 C 158.984375 -98.914062 156.597656 -84.597656 154.925781 -74.5625 " transform="matrix(1,0,0,1,4,238)"/>
<path style="fill-rule:nonzero;fill:rgb(90.196079%,62.352943%,0%);fill-opacity:1;stroke-width:0.5;stroke-linecap:butt;stroke-linejoin:miter;stroke:rgb(90.196079%,62.352943%,0%);stroke-opacity:1;stroke-miterlimit:4;" d="M 155.914062 -73.292969 C 155.914062 -72.632812 155.378906 -72.09375 154.714844 -72.09375 C 154.054688 -72.09375 153.515625 -72.632812 153.515625 -73.292969 C 153.515625 -73.957031 154.054688 -74.496094 154.714844 -74.496094 C 155.378906 -74.496094 155.914062 -73.957031 155.914062 -73.292969 Z M 155.914062 -73.292969 " transform="matrix(1,0,0,1,4,238)"/>
<path style="fill-rule:nonzero;fill:rgb(33.725491%,70.588237%,91.37255%);fill-opacity:0.501961;stroke-width:1;stroke-linecap:butt;stroke-linejoin:miter;stroke:rgb(33.725491%,70.588237%,91.37255%);stroke-opacity:1;stroke-miterlimit:4;" d="M 198 -63 C 198 -58.03125 193.96875 -54 189 -54 C 184.03125 -54 180 -58.03125 180 -63 C 180 -67.96875 184.03125 -72 189 -72 C 193.96875 -72 198 -67.96875 198 -63 Z M 198 -63 " transform="matrix(1,0,0,1,4,238)"/>
<path style="fill:none;stroke-width:0.5;stroke-linecap:butt;stroke-linejoin:miter;stroke:rgb(33.725491%,70.588237%,91.37255%);stroke-opacity:1;stroke-miterlimit:4;" d="M 166.21875 -108.5625 C 170.960938 -99.074219 178.667969 -83.664062 183.785156 -73.429688 " transform="matrix(1,0,0,1,4,238)"/>
<path style="fill-rule:nonzero;fill:rgb(33.725491%,70.588237%,91.37255%);fill-opacity:1;stroke-width:0.5;stroke-linecap:butt;stroke-linejoin:miter;stroke:rgb(33.725491%,70.588237%,91.37255%);stroke-opacity:1;stroke-miterlimit:4;" d="M 185.5625 -72.273438 C 185.5625 -71.613281 185.023438 -71.074219 184.363281 -71.074219 C 183.699219 -71.074219 183.164062 -71.613281 183.164062 -72.273438 C 183.164062 -72.9375 183.699219 -73.476562 184.363281 -73.476562 C 185.023438 -73.476562 185.5625 -72.9375 185.5625 -72.273438 Z M 185.5625 -72.273438 " transform="matrix(1,0,0,1,4,238)"/>
<path style="fill-rule:nonzero;fill:rgb(90.196079%,62.352943%,0%);fill-opacity:1;stroke-width:1;stroke-linecap:butt;stroke-linejoin:miter;stroke:rgb(90.196079%,62.352943%,0%);stroke-opacity:1;stroke-miterlimit:4;" d="M 234 -63 C 234 -58.03125 229.96875 -54 225 -54 C 220.03125 -54 216 -58.03125 216 -63 C 216 -67.96875 220.03125 -72 225 -72 C 229.96875 -72 234 -67.96875 234 -63 Z M 234 -63 " transform="matrix(1,0,0,1,4,238)"/>
<path style="fill:none;stroke-width:0.5;stroke-linecap:butt;stroke-linejoin:miter;stroke:rgb(70.19608%,70.19608%,70.19608%);stroke-opacity:1;stroke-miterlimit:4;" d="M 225 -107.59375 C 225 -98.457031 225 -84.558594 225 -74.710938 " transform="matrix(1,0,0,1,4,238)"/>
<path style="fill-rule:nonzero;fill:rgb(70.19608%,70.19608%,70.19608%);fill-opacity:1;stroke-width:0.5;stroke-linecap:butt;stroke-linejoin:miter;stroke:rgb(70.19608%,70.19608%,70.19608%);stroke-opacity:1;stroke-miterlimit:4;" d="M 226.199219 -73.5 C 226.199219 -72.835938 225.664062 -72.296875 225 -72.296875 C 224.335938 -72.296875 223.800781 -72.835938 223.800781 -73.5 C 223.800781 -74.160156 224.335938 -74.699219 225 -74.699219 C 225.664062 -74.699219 226.199219 -74.160156 226.199219 -73.5 Z M 226.199219 -73.5 " transform="matrix(1,0,0,1,4,238)"/>
<path style="fill-rule:nonzero;fill:rgb(90.196079%,62.352943%,0%);fill-opacity:1;stroke-width:1;stroke-linecap:butt;stroke-linejoin:miter;stroke:rgb(90.196079%,62.352943%,0%);stroke-opacity:1;stroke-miterlimit:4;" d="M 270 -63 C 270 -58.03125 265.96875 -54 261 -54 C 256.03125 -54 252 -58.03125 252 -63 C 252 -67.96875 256.03125 -72 261 -72 C 265.96875 -72 270 -67.96875 270 -63 Z M 270 -63 " transform="matrix(1,0,0,1,4,238)"/>
<path style="fill:none;stroke-width:0.5;stroke-linecap:butt;stroke-linejoin:miter;stroke:rgb(70.19608%,70.19608%,70.19608%);stroke-opacity:1;stroke-miterlimit:4;" d="M 230.003906 -109.492188 C 236.382812 -99.929688 247.414062 -83.378906 254.453125 -72.820312 " transform="matrix(1,0,0,1,4,238)"/>
<path style="fill-rule:nonzero;fill:rgb(70.19608%,70.19608%,70.19608%);fill-opacity:1;stroke-width:0.5;stroke-linecap:butt;stroke-linejoin:miter;stroke:rgb(70.19608%,70.19608%,70.19608%);stroke-opacity:1;stroke-miterlimit:4;" d="M 256.339844 -71.792969 C 256.339844 -71.128906 255.800781 -70.59375 255.136719 -70.59375 C 254.476562 -70.59375 253.9375 -71.128906 253.9375 -71.792969 C 253.9375 -72.457031 254.476562 -72.992188 255.136719 -72.992188 C 255.800781 -72.992188 256.339844 -72.457031 256.339844 -71.792969 Z M 256.339844 -71.792969 " transform="matrix(1,0,0,1,4,238)"/>
<path style="fill-rule:nonzero;fill:rgb(0%,44.705883%,69.803923%);fill-opacity:0.501961;stroke-width:1;stroke-linecap:butt;stroke-linejoin:miter;stroke:rgb(0%,44.705883%,69.803923%);stroke-opacity:1;stroke-miterlimit:4;" d="M 198 -9 C 198 -4.03125 193.96875 0 189 0 C 184.03125 0 180 -4.03125 180 -9 C 180 -13.96875 184.03125 -18 189 -18 C 193.96875 -18 198 -13.96875 198 -9 Z M 198 -9 " transform="matrix(1,0,0,1,4,238)"/>
<path style="fill:none;stroke-width:0.5;stroke-linecap:butt;stroke-linejoin:miter;stroke:rgb(90.196079%,62.352943%,0%);stroke-opacity:1;stroke-miterlimit:4;" d="M 219.996094 -55.492188 C 213.617188 -45.929688 202.585938 -29.378906 195.546875 -18.820312 " transform="matrix(1,0,0,1,4,238)"/>
<path style="fill-rule:nonzero;fill:rgb(90.196079%,62.352943%,0%);fill-opacity:1;stroke-width:0.5;stroke-linecap:butt;stroke-linejoin:miter;stroke:rgb(90.196079%,62.352943%,0%);stroke-opacity:1;stroke-miterlimit:4;" d="M 196.0625 -17.792969 C 196.0625 -17.128906 195.523438 -16.59375 194.863281 -16.59375 C 194.199219 -16.59375 193.660156 -17.128906 193.660156 -17.792969 C 193.660156 -18.457031 194.199219 -18.992188 194.863281 -18.992188 C 195.523438 -18.992188 196.0625 -18.457031 196.0625 -17.792969 Z M 196.0625 -17.792969 " transform="matrix(1,0,0,1,4,238)"/>
<path style="fill-rule:nonzero;fill:rgb(33.725491%,70.588237%,91.37255%);fill-opacity:0.501961;stroke-width:1;stroke-linecap:butt;stroke-linejoin:miter;stroke:rgb(33.725491%,70.588237%,91.37255%);stroke-opacity:1;stroke-miterlimit:4;" d="M 234 -9 C 234 -4.03125 229.96875 0 225 0 C 220.03125 0 216 -4.03125 216 -9 C 216 -13.96875 220.03125 -18 225 -18 C 229.96875 -18 234 -13.96875 234 -9 Z M 234 -9 " transform="matrix(1,0,0,1,4,238)"/>
<path style="fill:none;stroke-width:0.5;stroke-linecap:butt;stroke-linejoin:miter;stroke:rgb(33.725491%,70.588237%,91.37255%);stroke-opacity:1;stroke-miterlimit:4;" d="M 225 -53.59375 C 225 -44.457031 225 -30.558594 225 -20.710938 " transform="matrix(1,0,0,1,4,238)"/>
<path style="fill-rule:nonzero;fill:rgb(33.725491%,70.588237%,91.37255%);fill-opacity:1;stroke-width:0.5;stroke-linecap:butt;stroke-linejoin:miter;stroke:rgb(33.725491%,70.588237%,91.37255%);stroke-opacity:1;stroke-miterlimit:4;" d="M 226.199219 -19.5 C 226.199219 -18.835938 225.664062 -18.296875 225 -18.296875 C 224.335938 -18.296875 223.800781 -18.835938 223.800781 -19.5 C 223.800781 -20.160156 224.335938 -20.699219 225 -20.699219 C 225.664062 -20.699219 226.199219 -20.160156 226.199219 -19.5 Z M 226.199219 -19.5 " transform="matrix(1,0,0,1,4,238)"/>
<path style="fill-rule:nonzero;fill:rgb(0%,44.705883%,69.803923%);fill-opacity:0.501961;stroke-width:1;stroke-linecap:butt;stroke-linejoin:miter;stroke:rgb(0%,44.705883%,69.803923%);stroke-opacity:1;stroke-miterlimit:4;" d="M 270 -9 C 270 -4.03125 265.96875 0 261 0 C 256.03125 0 252 -4.03125 252 -9 C 252 -13.96875 256.03125 -18 261 -18 C 265.96875 -18 270 -13.96875 270 -9 Z M 270 -9 " transform="matrix(1,0,0,1,4,238)"/>
<path style="fill:none;stroke-width:0.5;stroke-linecap:butt;stroke-linejoin:miter;stroke:rgb(90.196079%,62.352943%,0%);stroke-opacity:1;stroke-miterlimit:4;" d="M 261 -53.59375 C 261 -44.457031 261 -30.558594 261 -20.710938 " transform="matrix(1,0,0,1,4,238)"/>
<path style="fill-rule:nonzero;fill:rgb(90.196079%,62.352943%,0%);fill-opacity:1;stroke-width:0.5;stroke-linecap:butt;stroke-linejoin:miter;stroke:rgb(90.196079%,62.352943%,0%);stroke-opacity:1;stroke-miterlimit:4;" d="M 262.199219 -19.5 C 262.199219 -18.835938 261.664062 -18.296875 261 -18.296875 C 260.335938 -18.296875 259.800781 -18.835938 259.800781 -19.5 C 259.800781 -20.160156 260.335938 -20.699219 261 -20.699219 C 261.664062 -20.699219 262.199219 -20.160156 262.199219 -19.5 Z M 262.199219 -19.5 " transform="matrix(1,0,0,1,4,238)"/>
<path style="fill-rule:nonzero;fill:rgb(33.725491%,70.588237%,91.37255%);fill-opacity:0.501961;stroke-width:1;stroke-linecap:butt;stroke-linejoin:miter;stroke:rgb(33.725491%,70.588237%,91.37255%);stroke-opacity:1;stroke-miterlimit:4;" d="M 306 -9 C 306 -4.03125 301.96875 0 297 0 C 292.03125 0 288 -4.03125 288 -9 C 288 -13.96875 292.03125 -18 297 -18 C 301.96875 -18 306 -13.96875 306 -9 Z M 306 -9 " transform="matrix(1,0,0,1,4,238)"/>
<path style="fill:none;stroke-width:0.5;stroke-linecap:butt;stroke-linejoin:miter;stroke:rgb(33.725491%,70.588237%,91.37255%);stroke-opacity:1;stroke-miterlimit:4;" d="M 266.003906 -55.492188 C 272.382812 -45.929688 283.414062 -29.378906 290.453125 -18.820312 " transform="matrix(1,0,0,1,4,238)"/>
<path style="fill-rule:nonzero;fill:rgb(33.725491%,70.588237%,91.37255%);fill-opacity:1;stroke-width:0.5;stroke-linecap:butt;stroke-linejoin:miter;stroke:rgb(33.725491%,70.588237%,91.37255%);stroke-opacity:1;stroke-miterlimit:4;" d="M 292.339844 -17.792969 C 292.339844 -17.128906 291.800781 -16.59375 291.136719 -16.59375 C 290.476562 -16.59375 289.9375 -17.128906 289.9375 -17.792969 C 289.9375 -18.457031 290.476562 -18.992188 291.136719 -18.992188 C 291.800781 -18.992188 292.339844 -18.457031 292.339844 -17.792969 Z M 292.339844 -17.792969 " transform="matrix(1,0,0,1,4,238)"/>
</g>
</svg>
