<?xml version="1.0" encoding="UTF-8"?><svg id="Layer_1" xmlns="http://www.w3.org/2000/svg" viewBox="0 0 3273 749"><path d="M3034.36,368.21h-21.65v8.17h21.65v-8.17Zm29.53,0h-21.65v8.17h21.65v-8.17Zm29.53,0h-21.65v8.17h21.65v-8.17Z" fill="gray"/><path d="M2148.46,376.38h-21.65v-8.17h21.65v8.17Zm29.53-45.33h-21.65v82.48h21.65v-82.48Zm29.53-51.19h-21.65v184.86h21.65v-184.86Z" fill="gray"/><path d="M2650.47,368.21h-21.65v8.17h21.65v-8.17Zm-29.53-158.13h-21.65v324.42h21.65V210.08Zm-29.53-85.62h-21.65v495.67h21.65V124.46Z" fill="gray"/><path d="M2502.82,57.18h-21.65V687.4h21.65V57.18Zm59.06,0h-21.65V687.4h21.65V57.18Zm-29.53-52.6h-21.65V740h21.65V4.59Z" fill="gray"/><path d="M2680,325.06h-21.65v94.47h21.65v-94.47Zm59.06-200.6h-21.65v495.67h21.65V124.46Zm-29.53,114.98h-21.65V505.15h21.65V239.44Z" fill="gray"/><path d="M2266.58,239.44h-21.65V505.15h21.65V239.44Zm29.53-89.29h-21.65v444.3h21.65V150.15Zm-59.06,71.31h-21.65v301.67h21.65V221.46Z" fill="gray"/><path d="M2384.7,368.21h-21.65v8.17h21.65v-8.17Zm-59.06-139.94h-21.65v288.05h21.65V228.27Zm29.53,87.58h-21.65v112.9h21.65v-112.9Z" fill="gray"/><path d="M2827.65,267.57h-21.65v209.44h21.65v-209.44Zm-59.06-117.43h-21.65v444.3h21.65V150.15Zm29.53,149.23h-21.65v145.84h21.65v-145.84Z" fill="gray"/><path d="M2886.71,267.57h-21.65v209.44h21.65v-209.44Zm-29.53-28.13h-21.65V505.15h21.65V239.44Zm59.06,59.94h-21.65v145.84h21.65v-145.84Z" fill="gray"/><path d="M3004.83,353.76h-21.65v37.07h21.65v-37.07Zm-29.53-28.7h-21.65v94.47h21.65v-94.47Zm-29.53-25.69h-21.65v145.84h21.65v-145.84Z" fill="gray"/><path d="M2443.76,175.83h-21.65v392.92h21.65V175.83Zm29.53-51.37h-21.65v495.67h21.65V124.46Zm-59.06,174.92h-21.65v145.84h21.65v-145.84Z" fill="gray"/><path d="M479.85,379.14h-22.45v-8.48h22.45v8.48Zm30.61-8.48h-22.45v8.48h22.45v-8.48Zm30.61,0h-22.45v8.48h22.45v-8.48Z" fill="gray"/><path d="M1122.66,370.67h-22.45v8.48h22.45v-8.48Zm30.61,0h-22.45v8.48h22.45v-8.48Zm30.61,0h-22.45v8.48h22.45v-8.48Z" fill="gray"/><path d="M694.12,370.67h-22.45v8.48h22.45v-8.48Zm30.61,0h-22.45v8.48h22.45v-8.48Zm-61.22-62.42h-22.44v133.32h22.44v-133.32Z" fill="gray"/><path d="M755.34,370.67h-22.45v8.48h22.45v-8.48Zm30.61,0h-22.45v8.48h22.45v-8.48Zm30.61-62.42h-22.44v133.32h22.44v-133.32Z" fill="gray"/><path d="M296.19,227.11h-22.44v295.59h22.44V227.11Zm61.22,0h-22.44v295.59h22.44V227.11Zm-30.61-39.7h-22.44v375h22.44V187.4Z" fill="gray"/><path d="M1000.21,227.11h-22.44v295.59h22.44V227.11Zm-61.22-129.47h-22.44V652.17h22.44V97.64Zm30.61-36.25h-22.44V688.42h22.44V61.39Z" fill="gray"/><path d="M204.36,25.13h-22.44V724.67h22.44V25.13Zm30.61,36.25h-22.44V688.42h22.44V61.39Zm30.61,210.61h-22.44v205.82h22.44v-205.82Z" fill="gray"/><path d="M449.23,308.24h-22.44v133.32h22.44v-133.32Zm-61.22-36.25h-22.44v205.82h22.44v-205.82Zm30.61,0h-22.44v205.82h22.44v-205.82Z" fill="gray"/><path d="M571.67,308.24h-22.44v133.32h22.44v-133.32Zm30.61,0h-22.44v133.32h22.44v-133.32Zm30.61-36.25h-22.44v205.82h22.44v-205.82Z" fill="gray"/><path d="M908.38,145.97h-22.44v457.86h22.44V145.97Zm-30.61,41.43h-22.44v375h22.44V187.4Zm-30.61,84.59h-22.44v205.82h22.44v-205.82Z" fill="gray"/><path d="M1092.04,227.11h-22.44v295.59h22.44V227.11Zm-61.22-39.7h-22.44v375h22.44V187.4Zm30.61,84.59h-22.44v205.82h22.44v-205.82Z" fill="gray"/><path d="M1468.25,528.77h-19.72V221.28h19.72v307.49Zm-30.59-388.64h-19.72v469.79h19.72V140.13Zm-30.59-63.76h-19.72V673.69h19.72V76.37Z" fill="gray"/><path d="M1315.29,609.92h-19.72V140.13h19.72v469.79Zm30.59-533.55h-19.72V673.69h19.72V76.37Zm30.59-49.85h-19.72V723.54h19.72V26.52Z" fill="gray"/><path d="M1682.4,474.28h-19.72v-198.51h19.72v198.51Zm61.18-198.51h-19.72v198.51h19.72v-198.51Zm-30.59-26.66h-19.72v251.84h19.72V249.11Z" fill="gray"/><path d="M1590.62,609.92h-19.72V140.13h19.72v469.79Zm30.59-445.45h-19.72v421.1h19.72V164.48Zm30.59,141.44h-19.72v138.23h19.72v-138.23Z" fill="gray"/><path d="M1835.36,419.79h-19.72v-89.53h19.72v89.53Zm-61.18-113.88h-19.72v138.23h19.72v-138.23Zm30.59,0h-19.72v138.23h19.72v-138.23Z" fill="gray"/><path d="M1957.73,419.79h-19.72v-89.53h19.72v89.53Zm30.59-89.53h-19.72v89.53h19.72v-89.53Zm30.59-24.35h-19.72v138.23h19.72v-138.23Z" fill="gray"/><path d="M1284.7,561.23h-19.72V188.82h19.72v372.41Zm-30.59-255.32h-19.72v138.23h19.72v-138.23Zm-30.59,64.89h-19.72v8.45h19.72v-8.45Z" fill="gray"/><path d="M1529.44,419.79h-19.72v-89.53h19.72v89.53Zm30.59-170.69h-19.72v251.84h19.72V249.11Zm-61.18,121.7h-19.72v8.45h19.72v-8.45Z" fill="gray"/><path d="M1865.95,379.25h-19.72v-8.45h19.72v8.45Zm30.59-8.45h-19.72v8.45h19.72v-8.45Zm30.59,0h-19.72v8.45h19.72v-8.45Z" fill="gray"/><path d="M2049.5,419.79h-19.72v-89.53h19.72v89.53Zm61.18-48.99h-19.72v8.45h19.72v-8.45Zm-30.59,0h-19.72v8.45h19.72v-8.45Z" fill="gray"/></svg>