<?xml version="1.0" encoding="UTF-8"?><svg id="Layer_1" xmlns="http://www.w3.org/2000/svg" viewBox="0 0 4416 1433"><rect x="4250.49" y="690.54" width="31.76" height="11.99" fill="#375f70"/><rect x="4293.81" y="690.54" width="31.76" height="11.99" fill="#2367bd"/><rect x="4337.13" y="690.54" width="31.76" height="11.99" fill="#e7e6c3"/><rect x="3031.84" y="690.54" width="31.76" height="11.99" fill="#e7e6c3"/><rect x="3077.48" y="560.94" width="31.76" height="271.19" fill="#3c885b"/><rect x="3687.31" y="690.54" width="31.76" height="11.99" fill="#e77e24"/><rect x="3643.98" y="458.56" width="31.76" height="475.94" fill="#e177a5"/><rect x="3600.66" y="332.95" width="31.76" height="727.16" fill="#920103"/><rect x="3557.34" y="234.25" width="31.76" height="924.55" fill="#7bd1b4"/><rect x="3514.02" y="157.09" width="31.76" height="1078.87" fill="#3c885b"/><rect x="3730.63" y="627.24" width="31.76" height="138.58" fill="#eabb25"/><rect x="3817.27" y="332.95" width="31.76" height="727.16" fill="#375f70"/><rect x="3773.95" y="501.63" width="31.76" height="389.81" fill="#594ab4"/><rect x="3164.13" y="501.63" width="31.76" height="389.81" fill="#920103"/><rect x="3207.45" y="370.63" width="31.76" height="651.8" fill="#e177a5"/><rect x="3120.8" y="475.25" width="31.76" height="442.56" fill="#7bd1b4"/><rect x="3337.41" y="690.54" width="31.76" height="11.99" fill="#594ab4"/><rect x="3250.77" y="485.24" width="31.76" height="422.58" fill="#e77e24"/><rect x="3294.09" y="613.72" width="31.76" height="165.62" fill="#eabb25"/><rect x="3947.24" y="542.9" width="31.76" height="307.26" fill="#3c885b"/><rect x="3860.59" y="370.63" width="31.76" height="651.8" fill="#2367bd"/><rect x="3903.91" y="589.56" width="31.76" height="213.95" fill="#e7e6c3"/><rect x="4033.88" y="542.9" width="31.76" height="307.26" fill="#920103"/><rect x="3990.56" y="501.63" width="31.76" height="389.81" fill="#7bd1b4"/><rect x="4077.2" y="589.56" width="31.76" height="213.95" fill="#e177a5"/><rect x="4207.16" y="669.34" width="31.76" height="54.38" fill="#594ab4"/><rect x="4163.84" y="627.24" width="31.76" height="138.58" fill="#eabb25"/><rect x="4120.52" y="589.56" width="31.76" height="213.95" fill="#e77e24"/><rect x="3424.05" y="408.32" width="31.76" height="576.43" fill="#2367bd"/><rect x="3467.38" y="332.95" width="31.76" height="727.16" fill="#e7e6c3"/><rect x="3380.73" y="589.56" width="31.76" height="213.95" fill="#375f70"/><rect x="497.64" y="690.47" width="34.53" height="13.04" fill="#2367bd"/><rect x="544.73" y="690.47" width="34.53" height="13.04" fill="#e7e6c3"/><rect x="591.81" y="690.47" width="34.53" height="13.04" fill="#3c885b"/><rect x="1486.42" y="690.47" width="34.53" height="13.04" fill="#2367bd"/><rect x="1533.51" y="690.47" width="34.53" height="13.04" fill="#e7e6c3"/><rect x="1580.59" y="690.47" width="34.53" height="13.04" fill="#3c885b"/><rect x="827.24" y="690.47" width="34.53" height="13.04" fill="#eabb25"/><rect x="874.32" y="690.47" width="34.53" height="13.04" fill="#594ab4"/><rect x="780.16" y="594.45" width="34.52" height="205.07" fill="#e77e24"/><rect x="921.41" y="690.47" width="34.53" height="13.04" fill="#375f70"/><rect x="968.49" y="690.47" width="34.53" height="13.04" fill="#2367bd"/><rect x="1015.58" y="594.45" width="34.52" height="205.07" fill="#e7e6c3"/><rect x="215.14" y="469.65" width="34.52" height="454.68" fill="#920103"/><rect x="309.31" y="469.65" width="34.52" height="454.68" fill="#e77e24"/><rect x="262.23" y="408.58" width="34.52" height="576.83" fill="#e177a5"/><rect x="1298.09" y="469.65" width="34.52" height="454.68" fill="#eabb25"/><rect x="1203.92" y="270.49" width="34.52" height="852.99" fill="#e177a5"/><rect x="1251.01" y="214.73" width="34.52" height="964.52" fill="#e77e24"/><rect x="73.89" y="158.97" width="34.52" height="1076.04" fill="#e7e6c3"/><rect x="120.97" y="214.73" width="34.52" height="964.52" fill="#3c885b"/><rect x="168.06" y="538.69" width="34.52" height="316.6" fill="#7bd1b4"/><rect x="450.57" y="594.45" width="34.52" height="205.07" fill="#375f70"/><rect x="356.4" y="538.69" width="34.52" height="316.6" fill="#eabb25"/><rect x="403.48" y="538.69" width="34.52" height="316.6" fill="#594ab4"/><rect x="638.91" y="594.45" width="34.52" height="205.07" fill="#7bd1b4"/><rect x="685.99" y="594.45" width="34.52" height="205.07" fill="#920103"/><rect x="733.07" y="538.69" width="34.52" height="316.6" fill="#e177a5"/><rect x="1156.84" y="344.85" width="34.52" height="704.29" fill="#920103"/><rect x="1109.75" y="408.58" width="34.52" height="576.83" fill="#7bd1b4"/><rect x="1062.67" y="538.69" width="34.52" height="316.6" fill="#3c885b"/><rect x="1439.34" y="469.65" width="34.52" height="454.68" fill="#2367bd"/><rect x="1345.17" y="408.58" width="34.52" height="576.83" fill="#594ab4"/><rect x="1392.26" y="538.69" width="34.52" height="316.6" fill="#375f70"/><rect x="2001.98" y="459.9" width="30.39" height="473.89" fill="#e7e6c3"/><rect x="1954.83" y="334.83" width="30.39" height="724.04" fill="#2367bd"/><rect x="1907.69" y="236.56" width="30.39" height="920.58" fill="#375f70"/><rect x="1766.24" y="334.83" width="30.39" height="724.04" fill="#e77e24"/><rect x="1813.39" y="236.56" width="30.39" height="920.58" fill="#eabb25"/><rect x="1860.54" y="159.73" width="30.39" height="1074.24" fill="#594ab4"/><rect x="2332.02" y="543.88" width="30.39" height="305.94" fill="#eabb25"/><rect x="2426.32" y="543.88" width="30.39" height="305.94" fill="#375f70"/><rect x="2379.17" y="502.79" width="30.39" height="388.13" fill="#594ab4"/><rect x="2190.57" y="334.83" width="30.39" height="724.04" fill="#920103"/><rect x="2237.72" y="372.35" width="30.39" height="648.99" fill="#e177a5"/><rect x="2284.87" y="590.34" width="30.39" height="213.03" fill="#e77e24"/><rect x="2567.76" y="627.86" width="30.39" height="137.99" fill="#3c885b"/><rect x="2473.46" y="590.34" width="30.39" height="213.03" fill="#2367bd"/><rect x="2520.61" y="590.34" width="30.39" height="213.03" fill="#e7e6c3"/><rect x="2756.35" y="627.86" width="30.39" height="137.99" fill="#e177a5"/><rect x="2803.5" y="627.86" width="30.39" height="137.99" fill="#e77e24"/><rect x="2850.65" y="590.34" width="30.39" height="213.03" fill="#eabb25"/><rect x="1719.09" y="409.88" width="30.39" height="573.95" fill="#e177a5"/><rect x="1671.94" y="590.34" width="30.39" height="213.03" fill="#920103"/><rect x="1624.8" y="690.34" width="30.39" height="13.02" fill="#7bd1b4"/><rect x="2096.28" y="627.86" width="30.39" height="137.99" fill="#3c885b"/><rect x="2143.43" y="502.79" width="30.39" height="388.13" fill="#7bd1b4"/><rect x="2049.13" y="690.34" width="30.39" height="13.02" fill="#e7e6c3"/><rect x="2614.91" y="690.34" width="30.39" height="13.02" fill="#3c885b"/><rect x="2662.06" y="690.34" width="30.39" height="13.02" fill="#7bd1b4"/><rect x="2709.2" y="690.34" width="30.39" height="13.02" fill="#920103"/><rect x="2897.8" y="627.86" width="30.39" height="137.99" fill="#594ab4"/><rect x="2992.09" y="690.34" width="30.39" height="13.02" fill="#2367bd"/><rect x="2944.95" y="690.34" width="30.39" height="13.02" fill="#375f70"/></svg>